<?xml version="1.0" encoding="UTF-8" standalone="no"?>
<!-- Created with Inkscape (http://www.inkscape.org/) -->

<svg
   xmlns:dc="http://purl.org/dc/elements/1.1/"
   xmlns:cc="http://creativecommons.org/ns#"
   xmlns:rdf="http://www.w3.org/1999/02/22-rdf-syntax-ns#"
   xmlns:svg="http://www.w3.org/2000/svg"
   xmlns="http://www.w3.org/2000/svg"
   xmlns:sodipodi="http://sodipodi.sourceforge.net/DTD/sodipodi-0.dtd"
   xmlns:inkscape="http://www.inkscape.org/namespaces/inkscape"
   width="380"
   height="120"
   viewBox="0 0 380.00002 120.00001"
   id="svg4924"
   version="1.1"
   inkscape:version="0.91 r13725"
   sodipodi:docname="Sarek_logo.svg"
   inkscape:export-filename="Sarek_germline_logo.png"
   inkscape:export-xdpi="90"
   inkscape:export-ydpi="90">
  <defs
     id="defs4926">
    <clipPath
       clipPathUnits="userSpaceOnUse"
       id="clipPath202">
      <path
         d="M 0,600 1500,600 1500,0 0,0 0,600 Z"
         id="path204"
         inkscape:connector-curvature="0" />
    </clipPath>
    <clipPath
       clipPathUnits="userSpaceOnUse"
       id="clipPath158">
      <path
         d="M 0,600 1500,600 1500,0 0,0 0,600 Z"
         id="path160"
         inkscape:connector-curvature="0" />
    </clipPath>
    <clipPath
       clipPathUnits="userSpaceOnUse"
       id="clipPath86">
      <path
         d="M 0,600 1500,600 1500,0 0,0 0,600 Z"
         id="path88"
         inkscape:connector-curvature="0" />
    </clipPath>
    <clipPath
       clipPathUnits="userSpaceOnUse"
       id="clipPath94">
      <path
         d="m 804.509,211 164.286,0 0,-96.981 -164.286,0 0,96.981 z"
         id="path96"
         inkscape:connector-curvature="0" />
    </clipPath>
    <clipPath
       clipPathUnits="userSpaceOnUse"
       id="clipPath110">
      <path
         d="m 804.597,506 164.286,0 0,-96.981 -164.286,0 0,96.981 z"
         id="path112"
         inkscape:connector-curvature="0" />
    </clipPath>
    <clipPath
       clipPathUnits="userSpaceOnUse"
       id="clipPath126">
      <path
         d="m 133.598,209 164.285,0 0,-96.981 -164.285,0 0,96.981 z"
         id="path128"
         inkscape:connector-curvature="0" />
    </clipPath>
    <clipPath
       clipPathUnits="userSpaceOnUse"
       id="clipPath142">
      <path
         d="m 133.686,504 164.286,0 0,-96.981 -164.286,0 0,96.981 z"
         id="path144"
         inkscape:connector-curvature="0" />
    </clipPath>
    <clipPath
       clipPathUnits="userSpaceOnUse"
       id="clipPath54">
      <path
         d="M 0,600 1500,600 1500,0 0,0 0,600 Z"
         id="path56"
         inkscape:connector-curvature="0" />
    </clipPath>
    <clipPath
       clipPathUnits="userSpaceOnUse"
       id="clipPath30">
      <path
         d="M 0,600 1500,600 1500,0 0,0 0,600 Z"
         id="path32"
         inkscape:connector-curvature="0" />
    </clipPath>
  </defs>
  <sodipodi:namedview
     id="base"
     pagecolor="#ffffff"
     bordercolor="#666666"
     borderopacity="1.0"
     inkscape:pageopacity="0.0"
     inkscape:pageshadow="2"
     inkscape:zoom="1.979899"
     inkscape:cx="188.72905"
     inkscape:cy="57.174547"
     inkscape:document-units="px"
     inkscape:current-layer="layer4"
     showgrid="false"
     fit-margin-top="0"
     fit-margin-left="0"
     fit-margin-right="0"
     fit-margin-bottom="0"
     units="px"
     width="200mm"
     inkscape:window-width="1920"
     inkscape:window-height="1015"
     inkscape:window-x="1920"
     inkscape:window-y="724"
     inkscape:window-maximized="1" />
  <metadata
     id="metadata4929">
    <rdf:RDF>
      <cc:Work
         rdf:about="">
        <dc:format>image/svg+xml</dc:format>
        <dc:type
           rdf:resource="http://purl.org/dc/dcmitype/StillImage" />
        <dc:title />
      </cc:Work>
    </rdf:RDF>
  </metadata>
  <g
     inkscape:label="Germline"
     inkscape:groupmode="layer"
     id="layer1"
     transform="translate(-221.17594,-598.32411)"
     style="display:none">
    <g
       transform="translate(-3.1831135e-6,4.3371042e-6)"
       style="display:inline"
       id="g3509">
      <flowRoot
         transform="translate(397.88815,-1473.0326)"
         style="font-style:normal;font-variant:normal;font-weight:normal;font-stretch:normal;font-size:52.46426392px;line-height:125%;font-family:Michroma;-inkscape-font-specification:Michroma;letter-spacing:0px;word-spacing:0px;display:inline;fill:#000000;fill-opacity:1;stroke:none;stroke-width:1px;stroke-linecap:butt;stroke-linejoin:miter;stroke-opacity:1"
         id="flowRoot5674-6-8-8-6"
         xml:space="preserve"><flowRegion
           id="flowRegion5676-1-5-9-8"><rect
             style="font-style:normal;font-variant:normal;font-weight:normal;font-stretch:normal;font-size:52.46426392px;font-family:Michroma;-inkscape-font-specification:Michroma"
             y="2079.1736"
             x="-40.786236"
             height="383.07242"
             width="616.24683"
             id="rect5678-0-9-7-9" /></flowRegion><flowPara
           style="font-style:normal;font-variant:normal;font-weight:normal;font-stretch:normal;font-size:50.00000381px;font-family:Michroma;-inkscape-font-specification:Michroma;text-align:start;text-anchor:start"
           id="flowPara5680-6-75-7-06">Sarek</flowPara><flowPara
           style="font-style:normal;font-variant:normal;font-weight:normal;font-stretch:normal;font-family:Michroma;-inkscape-font-specification:Michroma;text-align:start;text-anchor:start"
           id="flowPara5682-3-3-6-8" /></flowRoot>      <path
         style="display:inline;fill:none;fill-opacity:1;fill-rule:evenodd;stroke:#377eb8;stroke-width:4.20000029;stroke-linecap:butt;stroke-linejoin:miter;stroke-miterlimit:4;stroke-dasharray:none;stroke-opacity:1"
         d="m 389.07266,663.19468 159.33699,0"
         id="path5765-9-4-7"
         inkscape:connector-type="polyline"
         inkscape:connector-curvature="0"
         sodipodi:nodetypes="cc" />
      <flowRoot
         transform="translate(-19.995695,-240.03049)"
         xml:space="preserve"
         id="flowRoot4855-2-3"
         style="font-style:normal;font-variant:normal;font-weight:normal;font-stretch:normal;font-size:41.45429611px;line-height:125%;font-family:Michroma;-inkscape-font-specification:Michroma;text-align:center;letter-spacing:0px;word-spacing:0px;text-anchor:middle;display:inline;fill:#000000;fill-opacity:1;stroke:none;stroke-width:1px;stroke-linecap:butt;stroke-linejoin:miter;stroke-opacity:1"><flowRegion
           id="flowRegion4857-8-5"><rect
             id="rect4859-9-1"
             width="616.24683"
             height="383.07242"
             x="406.72501"
             y="847.40942"
             style="font-style:normal;font-variant:normal;font-weight:normal;font-stretch:normal;font-size:41.45429611px;font-family:Michroma;-inkscape-font-specification:Michroma;text-align:center;text-anchor:middle" /></flowRegion><flowPara
           id="flowPara4861-7-7"
           style="font-style:normal;font-variant:normal;font-weight:normal;font-stretch:normal;font-size:41.45429611px;font-family:Michroma;-inkscape-font-specification:Michroma;text-align:start;text-anchor:start" /><flowPara
           id="flowPara4863-3-4"
           style="font-style:normal;font-variant:normal;font-weight:normal;font-stretch:normal;font-size:37.50000381px;font-family:Michroma;-inkscape-font-specification:Michroma;text-align:start;text-anchor:start">Germline</flowPara></flowRoot>      <g
         transform="translate(221.18206,658.29359)"
         id="g5369">
        <path
           inkscape:connector-curvature="0"
           id="path5280"
           style="fill:#ffffff;stroke:none;stroke-width:4.18779993;stroke-linecap:butt;stroke-linejoin:miter;stroke-miterlimit:10;stroke-dasharray:none;stroke-opacity:1"
           d="m 117.90608,4e-5 c 0,-31.98037 -25.925273,-57.90611 -57.906104,-57.90611 -31.980369,0 -57.9060994,25.92574 -57.9060994,57.90611 0,31.980361 25.9257304,57.906099 57.9060994,57.906099 31.980831,0 57.906104,-25.925738 57.906104,-57.906099 z" />
        <path
           inkscape:connector-curvature="0"
           id="path5282"
           d="m 45.33005,-26.80855 -3.867187,1.67382 -4.886719,30.77734 -10.748047,2.93164 0,38.107427 -0.0332,0.0469 c 9.584012,7.02713 21.41042,11.17773 34.205078,11.17773 25.579545,0 47.285075,-16.5858 54.949215,-39.589847 l 0.0957,0.0312 -0.0898,-0.0527 c 1.91353,-5.75078 2.95117,-11.90144 2.95117,-18.29492 0,-3.51077 -0.31177,-6.94701 -0.91016,-10.28516 L 45.33005,-26.80855 Z"
           style="fill:#aacbe6;fill-opacity:1;fill-rule:nonzero;stroke:none" />
        <path
           d="m 115.04447,18.34822 -73.582435,-43.48285 -4.885301,30.778 -10.747755,2.93146 0,38.106187 -0.0335,0.0479 c 9.584013,7.02713 21.409894,11.17724 34.204553,11.17724 25.579547,0 47.284908,-16.58555 54.949048,-39.589607"
           style="fill:#377eb8;fill-opacity:1;fill-rule:nonzero;stroke:none"
           id="path5284"
           inkscape:connector-curvature="0" />
        <path
           d="m 117.8941,0.03052935 c 0,-31.97712035 -25.922642,-57.90022535 -57.900222,-57.90022535 -31.977116,0 -57.9002148,25.923105 -57.9002148,57.90022535 0,31.97711065 25.9230988,57.90021365 57.9002148,57.90021365 31.97758,0 57.900222,-25.923103 57.900222,-57.90021365 z"
           style="fill:none;stroke:#000000;stroke-width:4.19957352;stroke-linecap:butt;stroke-linejoin:miter;stroke-miterlimit:10;stroke-dasharray:none;stroke-opacity:1"
           id="path5286"
           inkscape:connector-curvature="0" />
      </g>
    </g>
  </g>
  <g
     inkscape:groupmode="layer"
     id="layer2"
     inkscape:label="Somatic"
     style="display:none"
     transform="translate(2.7783959e-5,59.99996)">
    <g
       style="display:inline"
       id="g3474">
      <flowRoot
         transform="translate(2.9094459,-398.05499)"
         style="font-style:normal;font-variant:normal;font-weight:normal;font-stretch:normal;font-size:52.46426392px;line-height:125%;font-family:Chandas;-inkscape-font-specification:Chandas;letter-spacing:0px;word-spacing:0px;display:inline;fill:#000000;fill-opacity:1;stroke:none;stroke-width:1px;stroke-linecap:butt;stroke-linejoin:miter;stroke-opacity:1"
         id="flowRoot5674-6-8-3"
         xml:space="preserve"><flowRegion
           id="flowRegion5676-1-5-3"><rect
             style="font-style:normal;font-variant:normal;font-weight:normal;font-stretch:normal;font-size:52.46426392px;font-family:Chandas;-inkscape-font-specification:Chandas"
             y="345.89627"
             x="133.01567"
             height="383.07242"
             width="616.24683"
             id="rect5678-0-9-3" /></flowRegion><flowPara
           style="font-style:normal;font-variant:normal;font-weight:normal;font-stretch:normal;font-size:50.00000381px;font-family:Michroma;-inkscape-font-specification:Michroma;text-align:start;text-anchor:start"
           id="flowPara5680-6-75-8">Sarek</flowPara><flowPara
           style="font-style:normal;font-variant:normal;font-weight:normal;font-stretch:normal;font-family:'Eurostile Extended';-inkscape-font-specification:'Eurostile Extended';text-align:start;text-anchor:start"
           id="flowPara5682-3-3-0" /></flowRoot>      <path
         style="display:inline;fill:none;fill-opacity:1;fill-rule:evenodd;stroke:#e41a1c;stroke-width:4.20000029;stroke-linecap:butt;stroke-linejoin:miter;stroke-miterlimit:4;stroke-dasharray:none;stroke-opacity:1"
         d="m 167.89671,4.8706135 159.33698,0"
         id="path5765-9-47"
         inkscape:connector-type="polyline"
         inkscape:connector-curvature="0"
         sodipodi:nodetypes="cc" />
      <flowRoot
         transform="translate(-12.814241,-398.10894)"
         style="font-style:normal;font-variant:normal;font-weight:normal;font-stretch:normal;font-size:41.45429611px;line-height:125%;font-family:Chandas;-inkscape-font-specification:Chandas;letter-spacing:0px;word-spacing:0px;display:inline;fill:#000000;fill-opacity:1;stroke:none;stroke-width:1px;stroke-linecap:butt;stroke-linejoin:miter;stroke-opacity:1"
         id="flowRoot4835-4-8"
         xml:space="preserve"><flowRegion
           id="flowRegion4837-7-6"><rect
             style="font-style:normal;font-variant:normal;font-weight:normal;font-stretch:normal;font-size:41.45429611px;font-family:Chandas;-inkscape-font-specification:Chandas"
             y="347.11771"
             x="178.36752"
             height="383.07242"
             width="616.24683"
             id="rect4839-8-8" /></flowRegion><flowPara
           style="font-style:normal;font-variant:normal;font-weight:normal;font-stretch:normal;font-size:41.45429611px;font-family:'Eurostile Extended';-inkscape-font-specification:'Eurostile Extended';text-align:start;text-anchor:start"
           id="flowPara4841-4-3" /><flowPara
           style="font-style:normal;font-variant:normal;font-weight:normal;font-stretch:normal;font-size:37.50000381px;font-family:Michroma;-inkscape-font-specification:Michroma;text-align:start;text-anchor:start"
           id="flowPara4843-5-8">Somatic</flowPara></flowRoot>      <g
         transform="translate(0.00609577,-240.00609)"
         id="g5381">
        <path
           inkscape:connector-curvature="0"
           id="path5300"
           style="fill:#ffffff;stroke:none;stroke-width:4.18779993;stroke-linecap:butt;stroke-linejoin:miter;stroke-miterlimit:10;stroke-dasharray:none;stroke-opacity:1"
           d="m 117.90608,240.00004 c 0,-31.98037 -25.925273,-57.90611 -57.906104,-57.90611 -31.980369,0 -57.9060994,25.92574 -57.9060994,57.90611 0,31.98036 25.9257304,57.9061 57.9060994,57.9061 31.980831,0 57.906104,-25.92574 57.906104,-57.9061 z" />
        <path
           inkscape:connector-curvature="0"
           id="path5302"
           d="m 45.33005,213.19145 -3.867187,1.67382 -4.886719,30.77734 -10.748047,2.93164 0,38.10743 -0.0332,0.0469 c 9.584012,7.02713 21.41042,11.17773 34.205078,11.17773 25.579545,0 47.285075,-16.5858 54.949215,-39.58985 l 0.0957,0.0312 -0.0898,-0.0527 c 1.91353,-5.75078 2.95117,-11.90144 2.95117,-18.29492 0,-3.51077 -0.31177,-6.94701 -0.91016,-10.28516 L 45.33005,213.19145 Z"
           style="fill:#f49c9d;fill-opacity:1;fill-rule:nonzero;stroke:none" />
        <path
           d="m 115.04447,258.34822 -73.582435,-43.48285 -4.885301,30.778 -10.747755,2.93146 0,38.10619 -0.0335,0.0479 c 9.584013,7.02713 21.409894,11.17724 34.204553,11.17724 25.579547,0 47.284908,-16.58555 54.949048,-39.58961"
           style="fill:#e41a1c;fill-opacity:1;fill-rule:nonzero;stroke:none"
           id="path5304"
           inkscape:connector-curvature="0" />
        <path
           d="m 117.8941,240.00614 c 0,-31.97712 -25.922642,-57.90023 -57.900222,-57.90023 -31.977116,0 -57.9002148,25.92311 -57.9002148,57.90023 0,31.97711 25.9230988,57.90021 57.9002148,57.90021 31.97758,0 57.900222,-25.9231 57.900222,-57.90021 z"
           style="fill:none;stroke:#000000;stroke-width:4.19957352;stroke-linecap:butt;stroke-linejoin:miter;stroke-miterlimit:10;stroke-dasharray:none;stroke-opacity:1"
           id="path5306"
           inkscape:connector-curvature="0" />
      </g>
    </g>
  </g>
  <g
     inkscape:groupmode="layer"
     id="layer3"
     inkscape:label="Exome"
     style="display:none"
     transform="translate(2.7783959e-5,59.99996)">
    <g
       style="display:inline"
       id="g3439">
      <flowRoot
         transform="translate(2.9094459,-271.6004)"
         style="font-style:normal;font-variant:normal;font-weight:normal;font-stretch:normal;font-size:52.46426392px;line-height:125%;font-family:Chandas;-inkscape-font-specification:Chandas;letter-spacing:0px;word-spacing:0px;display:inline;fill:#000000;fill-opacity:1;stroke:none;stroke-width:1px;stroke-linecap:butt;stroke-linejoin:miter;stroke-opacity:1"
         id="flowRoot5674-6-2"
         xml:space="preserve"><flowRegion
           id="flowRegion5676-1-2"><rect
             style="font-style:normal;font-variant:normal;font-weight:normal;font-stretch:normal;font-size:52.46426392px;font-family:Chandas;-inkscape-font-specification:Chandas"
             y="219.43036"
             x="133.01567"
             height="383.07242"
             width="616.24683"
             id="rect5678-0-6" /></flowRegion><flowPara
           style="font-style:normal;font-variant:normal;font-weight:normal;font-stretch:normal;font-size:50.00000381px;font-family:Michroma;-inkscape-font-specification:Michroma;text-align:start;text-anchor:start"
           id="flowPara5680-6-4">Sarek</flowPara><flowPara
           style="font-style:normal;font-variant:normal;font-weight:normal;font-stretch:normal;font-size:50.00000381px;font-family:Michroma;-inkscape-font-specification:Michroma;text-align:start;text-anchor:start"
           id="flowPara5682-3-1" /></flowRoot>      <path
         style="display:inline;fill:none;fill-opacity:1;fill-rule:evenodd;stroke:#974ea2;stroke-width:4.20000029;stroke-linecap:butt;stroke-linejoin:miter;stroke-miterlimit:4;stroke-dasharray:none;stroke-opacity:1"
         d="m 167.8967,4.8706135 159.33699,0"
         id="path5765-8"
         inkscape:connector-type="polyline"
         inkscape:connector-curvature="0"
         sodipodi:nodetypes="cc" />
      <flowRoot
         transform="translate(-13.488069,-271.4019)"
         xml:space="preserve"
         id="flowRoot4845-2-2"
         style="font-style:normal;font-variant:normal;font-weight:normal;font-stretch:normal;font-size:41.45429611px;line-height:125%;font-family:Chandas;-inkscape-font-specification:Chandas;letter-spacing:0px;word-spacing:0px;display:inline;fill:#000000;fill-opacity:1;stroke:none;stroke-width:1px;stroke-linecap:butt;stroke-linejoin:miter;stroke-opacity:1"><flowRegion
           id="flowRegion4847-0-8"><rect
             id="rect4849-6-8"
             width="616.24683"
             height="383.07242"
             x="177.86926"
             y="220.65378"
             style="font-style:normal;font-variant:normal;font-weight:normal;font-stretch:normal;font-size:41.45429611px;font-family:Chandas;-inkscape-font-specification:Chandas" /></flowRegion><flowPara
           id="flowPara4851-1-9"
           style="font-style:normal;font-variant:normal;font-weight:normal;font-stretch:normal;font-size:41.45429611px;font-family:'Eurostile Extended';-inkscape-font-specification:'Eurostile Extended';text-align:start;text-anchor:start" /><flowPara
           id="flowPara4853-5-28"
           style="font-style:normal;font-variant:normal;font-weight:normal;font-stretch:normal;font-size:37.50000381px;font-family:Michroma;-inkscape-font-specification:Michroma;text-align:start;text-anchor:start">Exome</flowPara></flowRoot>      <g
         transform="translate(0.00609577,-120.01829)"
         id="g5375">
        <path
           d="m 117.90608,120.00004 c 0,-31.98037 -25.925273,-57.90611 -57.906104,-57.90611 -31.980369,0 -57.9060994,25.92574 -57.9060994,57.90611 0,31.98036 25.9257304,57.9061 57.9060994,57.9061 31.980831,0 57.906104,-25.92574 57.906104,-57.9061 z"
           style="fill:#ffffff;stroke:none;stroke-width:4.18779993;stroke-linecap:butt;stroke-linejoin:miter;stroke-miterlimit:10;stroke-dasharray:none;stroke-opacity:1"
           id="path5290"
           inkscape:connector-curvature="0" />
        <path
           style="fill:#d6b5db;fill-opacity:1;fill-rule:nonzero;stroke:none"
           d="m 45.33005,93.19145 -3.867187,1.67382 -4.886719,30.77734 -10.748047,2.93164 0,38.10743 -0.0332,0.0469 c 9.584012,7.02713 21.41042,11.17773 34.205078,11.17773 25.579545,0 47.285075,-16.5858 54.949215,-39.58985 l 0.0957,0.0312 -0.0898,-0.0527 c 1.91353,-5.75078 2.95117,-11.90144 2.95117,-18.29492 0,-3.51077 -0.31177,-6.94701 -0.91016,-10.28516 L 45.33005,93.19145 Z"
           id="path5292"
           inkscape:connector-curvature="0" />
        <path
           inkscape:connector-curvature="0"
           id="path5294"
           style="fill:#974ea2;fill-opacity:1;fill-rule:nonzero;stroke:none"
           d="m 115.04447,138.34822 -73.582435,-43.48285 -4.885301,30.778 -10.747755,2.93146 0,38.10619 -0.0335,0.0479 c 9.584013,7.02713 21.409894,11.17724 34.204553,11.17724 25.579547,0 47.284908,-16.58555 54.949048,-39.58961" />
        <path
           inkscape:connector-curvature="0"
           id="path5296"
           style="fill:none;stroke:#000000;stroke-width:4.19957352;stroke-linecap:butt;stroke-linejoin:miter;stroke-miterlimit:10;stroke-dasharray:none;stroke-opacity:1"
           d="m 117.8941,120.01833 c 0,-31.977116 -25.922642,-57.900221 -57.900222,-57.900221 -31.977116,0 -57.9002148,25.923105 -57.9002148,57.900221 0,31.97711 25.9230988,57.90022 57.9002148,57.90022 31.97758,0 57.900222,-25.92311 57.900222,-57.90022 z" />
      </g>
    </g>
  </g>
  <g
     inkscape:groupmode="layer"
     id="layer4"
     inkscape:label="Sarek"
     style="display:inline"
     transform="translate(2.7783959e-5,59.99996)">
    <g
       style="display:inline"
       id="g3414">
      <flowRoot
         transform="translate(170.97195,-1611.369)"
         xml:space="preserve"
         id="flowRoot5349-3"
         style="font-style:normal;font-variant:normal;font-weight:normal;font-stretch:normal;font-size:52.46426392px;line-height:125%;font-family:Chandas;-inkscape-font-specification:Chandas;letter-spacing:0px;word-spacing:0px;display:inline;fill:#000000;fill-opacity:1;stroke:none;stroke-width:1px;stroke-linecap:butt;stroke-linejoin:miter;stroke-opacity:1"><flowRegion
           id="flowRegion5351-1"><rect
             id="rect5353-4"
             width="616.24683"
             height="383.07242"
             x="-35.047737"
             y="1559.1736"
             style="font-style:normal;font-variant:normal;font-weight:normal;font-stretch:normal;font-size:52.46426392px;font-family:Chandas;-inkscape-font-specification:Chandas" /></flowRegion><flowPara
           id="flowPara5355-6"
           style="font-style:normal;font-variant:normal;font-weight:normal;font-stretch:normal;font-size:50.00000381px;font-family:Michroma;-inkscape-font-specification:Michroma;text-align:start;text-anchor:start">Sarek</flowPara><flowPara
           id="flowPara5357-9"
           style="font-style:normal;font-variant:normal;font-weight:normal;font-stretch:normal;font-family:'Eurostile Extended';-inkscape-font-specification:'Eurostile Extended';text-align:start;text-anchor:start" /></flowRoot>      <path
         sodipodi:nodetypes="cc"
         inkscape:connector-curvature="0"
         inkscape:connector-type="polyline"
         id="path4964-31-4"
         d="m 167.8967,4.8706135 159.33699,0"
         style="display:inline;fill:none;fill-opacity:1;fill-rule:evenodd;stroke:#4daf4a;stroke-width:4.20000029;stroke-linecap:butt;stroke-linejoin:miter;stroke-miterlimit:4;stroke-dasharray:none;stroke-opacity:1" />
      <g
         transform="translate(0.00609597,119.95733)"
         id="g5363"
         style="display:inline">
        <path
           d="m 117.90608,-119.99997 c 0,-31.98037 -25.925273,-57.90611 -57.906104,-57.90611 -31.980369,0 -57.9060996,25.92574 -57.9060996,57.90611 0,31.980361 25.9257306,57.906099 57.9060996,57.906099 31.980831,0 57.906104,-25.925738 57.906104,-57.906099 z"
           style="fill:#ffffff;stroke:none;stroke-width:4.18779993;stroke-linecap:butt;stroke-linejoin:miter;stroke-miterlimit:10;stroke-dasharray:none;stroke-opacity:1"
           id="path4113"
           inkscape:connector-curvature="0" />
        <path
           style="fill:#b3deb2;fill-opacity:1;fill-rule:nonzero;stroke:none"
           d="m 45.33005,-146.80856 -3.867187,1.67382 -4.886719,30.77734 -10.748047,2.93164 0,38.107427 -0.0332,0.0469 c 9.584012,7.02713 21.41042,11.17773 34.205078,11.17773 25.579545,0 47.285075,-16.5858 54.949215,-39.589847 l 0.0957,0.0312 -0.0898,-0.0527 c 1.91353,-5.75078 2.95117,-11.90144 2.95117,-18.29492 0,-3.51077 -0.31177,-6.94701 -0.91016,-10.28516 l -71.66605,-16.52343 z"
           id="path4117"
           inkscape:connector-curvature="0" />
        <path
           inkscape:connector-curvature="0"
           id="path172"
           style="fill:#4daf4a;fill-opacity:1;fill-rule:nonzero;stroke:none"
           d="m 115.04447,-101.65179 -73.582435,-43.48285 -4.885301,30.778 -10.747755,2.93146 0,38.106187 -0.0335,0.0479 c 9.584013,7.02713 21.409894,11.17724 34.204553,11.17724 25.579547,0 47.284908,-16.58555 54.949048,-39.589607" />
        <path
           inkscape:connector-curvature="0"
           id="path220"
           style="fill:none;stroke:#000000;stroke-width:4.19957352;stroke-linecap:butt;stroke-linejoin:miter;stroke-miterlimit:10;stroke-dasharray:none;stroke-opacity:1"
           d="m 117.8941,-119.95729 c 0,-31.97712 -25.922642,-57.90022 -57.900222,-57.90022 -31.977116,0 -57.900215,25.9231 -57.900215,57.90022 0,31.977116 25.923099,57.900219 57.900215,57.900219 31.97758,0 57.900222,-25.923103 57.900222,-57.900219 z" />
      </g>
    </g>
  </g>
</svg>
