<?xml version="1.0" encoding="UTF-8" standalone="no"?>
<!-- Created with Inkscape (http://www.inkscape.org/) -->

<svg
   xmlns:dc="http://purl.org/dc/elements/1.1/"
   xmlns:cc="http://creativecommons.org/ns#"
   xmlns:rdf="http://www.w3.org/1999/02/22-rdf-syntax-ns#"
   xmlns:svg="http://www.w3.org/2000/svg"
   xmlns="http://www.w3.org/2000/svg"
   xmlns:sodipodi="http://sodipodi.sourceforge.net/DTD/sodipodi-0.dtd"
   xmlns:inkscape="http://www.inkscape.org/namespaces/inkscape"
   width="48"
   height="48"
   viewBox="0 0 48.000002 48.000003"
   id="svg4924"
   version="1.1"
   inkscape:version="0.91 r13725"
   sodipodi:docname="Sarek_icon.svg"
   inkscape:export-filename="Sarek_icon.png"
   inkscape:export-xdpi="90"
   inkscape:export-ydpi="90">
  <defs
     id="defs4926" />
  <sodipodi:namedview
     id="base"
     pagecolor="#ffffff"
     bordercolor="#666666"
     borderopacity="1.0"
     inkscape:pageopacity="0.0"
     inkscape:pageshadow="2"
     inkscape:zoom="2.8"
     inkscape:cx="-133.44674"
     inkscape:cy="-2.5145087"
     inkscape:document-units="px"
     inkscape:current-layer="layer1"
     showgrid="false"
     fit-margin-top="0"
     fit-margin-left="0"
     fit-margin-right="0"
     fit-margin-bottom="0"
     units="px"
     width="200mm"
     inkscape:window-width="1920"
     inkscape:window-height="1015"
     inkscape:window-x="1920"
     inkscape:window-y="0"
     inkscape:window-maximized="1" />
  <metadata
     id="metadata4929">
    <rdf:RDF>
      <cc:Work
         rdf:about="">
        <dc:format>image/svg+xml</dc:format>
        <dc:type
           rdf:resource="http://purl.org/dc/dcmitype/StillImage" />
        <dc:title />
      </cc:Work>
    </rdf:RDF>
  </metadata>
  <g
     inkscape:label="Germline"
     inkscape:groupmode="layer"
     id="layer1"
     transform="translate(-221.17598,-670.32414)"
     style="display:inline">
    <g
       style="display:inline"
       id="g9563"
       transform="matrix(0.40000002,0,0,0.40000002,291.09674,-158.62834)">
      <path
         inkscape:export-ydpi="90"
         inkscape:export-xdpi="90"
         style="color:#000000;font-style:normal;font-variant:normal;font-weight:normal;font-stretch:normal;font-size:medium;line-height:normal;font-family:sans-serif;text-indent:0;text-align:start;text-decoration:none;text-decoration-line:none;text-decoration-style:solid;text-decoration-color:#000000;letter-spacing:normal;word-spacing:normal;text-transform:none;direction:ltr;block-progression:tb;writing-mode:lr-tb;baseline-shift:baseline;text-anchor:start;white-space:normal;clip-rule:nonzero;display:inline;overflow:visible;visibility:visible;opacity:1;isolation:auto;mix-blend-mode:normal;color-interpolation:sRGB;color-interpolation-filters:linearRGB;solid-color:#000000;solid-opacity:1;fill:#ffffff;fill-opacity:1;fill-rule:nonzero;stroke:none;stroke-width:2.53707004;stroke-linecap:butt;stroke-linejoin:miter;stroke-miterlimit:4;stroke-dasharray:none;stroke-dashoffset:0;stroke-opacity:1;color-rendering:auto;image-rendering:auto;shape-rendering:auto;text-rendering:auto;enable-background:accumulate"
         d="m -114.80092,2075.3845 c -31.42015,-2e-4 -56.99494,25.5745 -56.99487,56.9949 -7e-5,31.42 25.57472,56.9949 56.99487,56.9947 31.420155,2e-4 56.99492,-25.5747 56.994778,-56.9947 1.42e-4,-31.4204 -25.574623,-56.9951 -56.994778,-56.9949 z"
         id="path6678-47-2"
         inkscape:connector-curvature="0"
         sodipodi:nodetypes="sssss" />
      <path
         id="path6673-7-9"
         d="m -129.82358,2106.0071 -3.46996,1.9062 -4.80701,29.8369 -11.17786,3.2664 -1.08726,31.9466 c 9.50398,8.3368 21.94661,13.408 35.56466,13.408 24.147053,2e-4 44.618013,-15.9052 51.507883,-37.7948 1.609966,-5.1149 2.479867,-10.5552 2.479843,-16.1977 2.4e-5,-4.6313 -0.584221,-9.1259 -1.684086,-13.417 l -67.32621,-12.9546 z"
         style="fill:#bae4b3;fill-opacity:1"
         inkscape:connector-curvature="0" />
      <path
         sodipodi:nodetypes="ccccscc"
         id="path4822-1-0-54-0"
         d="m -133.29351,2107.9145 -4.80591,29.836 -11.1788,3.2644 -1.08537,31.949 c 9.50398,8.3368 21.94406,13.4054 35.56208,13.4054 24.147079,2e-4 44.619413,-15.9019 51.509283,-37.7914 z"
         style="fill:#238b45;fill-opacity:1"
         inkscape:connector-curvature="0" />
      <path
         inkscape:connector-curvature="0"
         id="path4878-2-3-8-2"
         d="m -114.79959,2072.3811 c -33.05075,-3e-4 -60.00239,26.9467 -60.0023,59.9976 -9e-5,33.0507 26.95155,60.0026 60.0023,60.0024 33.050774,2e-4 59.997842,-26.9517 59.9977,-60.0024 1.42e-4,-33.0509 -26.946926,-59.9979 -59.9977,-59.9976 z m 0,6.0099 c 29.789552,-2e-4 53.987893,24.1979 53.987751,53.9877 1.42e-4,29.7895 -24.198199,53.9927 -53.987751,53.9925 -29.78953,2e-4 -53.99242,-24.203 -53.99235,-53.9925 -7e-5,-29.7898 24.20282,-53.9879 53.99235,-53.9877 z"
         style="color:#000000;font-style:normal;font-variant:normal;font-weight:normal;font-stretch:normal;font-size:medium;line-height:normal;font-family:sans-serif;text-indent:0;text-align:start;text-decoration:none;text-decoration-line:none;text-decoration-style:solid;text-decoration-color:#000000;letter-spacing:normal;word-spacing:normal;text-transform:none;direction:ltr;block-progression:tb;writing-mode:lr-tb;baseline-shift:baseline;text-anchor:start;white-space:normal;clip-rule:nonzero;display:inline;overflow:visible;visibility:visible;opacity:1;isolation:auto;mix-blend-mode:normal;color-interpolation:sRGB;color-interpolation-filters:linearRGB;solid-color:#000000;solid-opacity:1;fill:#000000;fill-opacity:1;fill-rule:nonzero;stroke:none;stroke-width:2.53707004;stroke-linecap:butt;stroke-linejoin:miter;stroke-miterlimit:4;stroke-dasharray:none;stroke-dashoffset:0;stroke-opacity:1;color-rendering:auto;image-rendering:auto;shape-rendering:auto;text-rendering:auto;enable-background:accumulate" />
      <path
         sodipodi:nodetypes="sssss"
         inkscape:connector-curvature="0"
         id="path6690-1-8"
         d="m -114.80092,2075.3845 c -31.42015,-2e-4 -56.99494,25.5745 -56.99487,56.9949 -7e-5,31.42 25.57472,56.9949 56.99487,56.9947 31.420155,2e-4 56.99492,-25.5747 56.994778,-56.9947 1.42e-4,-31.4204 -25.574623,-56.9951 -56.994778,-56.9949 z"
         style="color:#000000;font-style:normal;font-variant:normal;font-weight:normal;font-stretch:normal;font-size:medium;line-height:normal;font-family:sans-serif;text-indent:0;text-align:start;text-decoration:none;text-decoration-line:none;text-decoration-style:solid;text-decoration-color:#000000;letter-spacing:normal;word-spacing:normal;text-transform:none;direction:ltr;block-progression:tb;writing-mode:lr-tb;baseline-shift:baseline;text-anchor:start;white-space:normal;clip-rule:nonzero;display:inline;overflow:visible;visibility:visible;opacity:1;isolation:auto;mix-blend-mode:normal;color-interpolation:sRGB;color-interpolation-filters:linearRGB;solid-color:#000000;solid-opacity:1;fill:#ffffff;fill-opacity:1;fill-rule:nonzero;stroke:none;stroke-width:2.53707004;stroke-linecap:butt;stroke-linejoin:miter;stroke-miterlimit:4;stroke-dasharray:none;stroke-dashoffset:0;stroke-opacity:1;color-rendering:auto;image-rendering:auto;shape-rendering:auto;text-rendering:auto;enable-background:accumulate"
         inkscape:export-xdpi="90"
         inkscape:export-ydpi="90" />
      <path
         style="fill:#bdc9e1;fill-opacity:1"
         d="m -129.82358,2106.0071 -3.46996,1.9062 -4.80701,29.8369 -11.17786,3.2664 -1.08726,31.9466 c 9.50398,8.3368 21.94661,13.408 35.56466,13.408 24.147053,2e-4 44.618013,-15.9052 51.507883,-37.7948 1.609966,-5.1149 2.479867,-10.5552 2.479843,-16.1977 2.4e-5,-4.6313 -0.584221,-9.1259 -1.684086,-13.417 l -67.32621,-12.9546 z"
         id="path6692-2-3"
         inkscape:connector-curvature="0" />
      <path
         inkscape:connector-curvature="0"
         style="fill:#0570b0;fill-opacity:1"
         d="m -133.29351,2107.9145 -4.80591,29.836 -11.1788,3.2644 -1.08537,31.949 c 9.50398,8.3368 21.94406,13.4054 35.56208,13.4054 24.147079,2e-4 44.619413,-15.9019 51.509283,-37.7914 z"
         id="path6694-8-8"
         sodipodi:nodetypes="ccccscc" />
      <path
         style="color:#000000;font-style:normal;font-variant:normal;font-weight:normal;font-stretch:normal;font-size:medium;line-height:normal;font-family:sans-serif;text-indent:0;text-align:start;text-decoration:none;text-decoration-line:none;text-decoration-style:solid;text-decoration-color:#000000;letter-spacing:normal;word-spacing:normal;text-transform:none;direction:ltr;block-progression:tb;writing-mode:lr-tb;baseline-shift:baseline;text-anchor:start;white-space:normal;clip-rule:nonzero;display:inline;overflow:visible;visibility:visible;opacity:1;isolation:auto;mix-blend-mode:normal;color-interpolation:sRGB;color-interpolation-filters:linearRGB;solid-color:#000000;solid-opacity:1;fill:#000000;fill-opacity:1;fill-rule:nonzero;stroke:none;stroke-width:2.53707004;stroke-linecap:butt;stroke-linejoin:miter;stroke-miterlimit:4;stroke-dasharray:none;stroke-dashoffset:0;stroke-opacity:1;color-rendering:auto;image-rendering:auto;shape-rendering:auto;text-rendering:auto;enable-background:accumulate"
         d="m -114.79959,2072.3811 c -33.05075,-3e-4 -60.00239,26.9467 -60.0023,59.9976 -9e-5,33.0507 26.95155,60.0026 60.0023,60.0024 33.050774,2e-4 59.997842,-26.9517 59.9977,-60.0024 1.42e-4,-33.0509 -26.946926,-59.9979 -59.9977,-59.9976 z m 0,6.0099 c 29.789552,-2e-4 53.987893,24.1979 53.987751,53.9877 1.42e-4,29.7895 -24.198199,53.9927 -53.987751,53.9925 -29.78953,2e-4 -53.99242,-24.203 -53.99235,-53.9925 -7e-5,-29.7898 24.20282,-53.9879 53.99235,-53.9877 z"
         id="path6696-9-0"
         inkscape:connector-curvature="0" />
    </g>
  </g>
  <g
     inkscape:groupmode="layer"
     id="layer2"
     inkscape:label="Somatic"
     style="display:inline"
     transform="translate(-7.4225275e-6,-12.000066)">
    <g
       style="display:inline"
       id="g9553"
       transform="matrix(0.40000002,0,0,0.40000002,69.920768,-766.28573)">
      <path
         inkscape:export-ydpi="90"
         inkscape:export-xdpi="90"
         style="color:#000000;font-style:normal;font-variant:normal;font-weight:normal;font-stretch:normal;font-size:medium;line-height:normal;font-family:sans-serif;text-indent:0;text-align:start;text-decoration:none;text-decoration-line:none;text-decoration-style:solid;text-decoration-color:#000000;letter-spacing:normal;word-spacing:normal;text-transform:none;direction:ltr;block-progression:tb;writing-mode:lr-tb;baseline-shift:baseline;text-anchor:start;white-space:normal;clip-rule:nonzero;display:inline;overflow:visible;visibility:visible;opacity:1;isolation:auto;mix-blend-mode:normal;color-interpolation:sRGB;color-interpolation-filters:linearRGB;solid-color:#000000;solid-opacity:1;fill:#ffffff;fill-opacity:1;fill-rule:nonzero;stroke:none;stroke-width:2.53707004;stroke-linecap:butt;stroke-linejoin:miter;stroke-miterlimit:4;stroke-dasharray:none;stroke-dashoffset:0;stroke-opacity:1;color-rendering:auto;image-rendering:auto;shape-rendering:auto;text-rendering:auto;enable-background:accumulate"
         d="m -114.80092,1948.7178 c -31.42016,-3e-4 -56.99495,25.5744 -56.99487,56.9949 -8e-5,31.42 25.57471,56.9949 56.99487,56.9947 31.420151,2e-4 56.994917,-25.5747 56.994775,-56.9947 1.42e-4,-31.4205 -25.574624,-56.9952 -56.994775,-56.9949 z"
         id="path6678-4-6"
         inkscape:connector-curvature="0"
         sodipodi:nodetypes="sssss" />
      <path
         id="path6673-0-1"
         d="m -129.82358,1979.3404 -3.46996,1.9062 -4.80702,29.8369 -11.17785,3.2664 -1.08727,31.9466 c 9.50398,8.3368 21.94662,13.4079 35.56466,13.4079 24.147059,3e-4 44.618019,-15.9051 51.507889,-37.7947 1.609967,-5.115 2.479867,-10.5552 2.479844,-16.1977 2.3e-5,-4.6313 -0.584222,-9.1259 -1.684087,-13.417 l -67.326206,-12.9546 z"
         style="fill:#bae4b3;fill-opacity:1"
         inkscape:connector-curvature="0" />
      <path
         sodipodi:nodetypes="ccccscc"
         id="path4822-1-0-5-0"
         d="m -133.29352,1981.2478 -4.8059,29.836 -11.1788,3.2644 -1.08537,31.949 c 9.50398,8.3368 21.94406,13.4053 35.56208,13.4053 24.147075,3e-4 44.61941,-15.9018 51.509279,-37.7914 z"
         style="fill:#238b45;fill-opacity:1"
         inkscape:connector-curvature="0" />
      <path
         inkscape:connector-curvature="0"
         id="path4878-2-3-9-42"
         d="m -114.7996,1945.7144 c -33.05075,-3e-4 -60.00239,26.9467 -60.00229,59.9976 -1e-4,33.0507 26.95154,60.0026 60.00229,60.0024 33.05078,2e-4 59.997849,-26.9517 59.997707,-60.0024 1.42e-4,-33.0509 -26.946927,-59.9979 -59.997707,-59.9976 z m 0,6.0099 c 29.789559,-2e-4 53.9879,24.1979 53.987758,53.9877 1.42e-4,29.7895 -24.198199,53.9927 -53.987758,53.9924 -29.78953,3e-4 -53.99242,-24.2029 -53.99234,-53.9924 -8e-5,-29.7898 24.20281,-53.9879 53.99234,-53.9877 z"
         style="color:#000000;font-style:normal;font-variant:normal;font-weight:normal;font-stretch:normal;font-size:medium;line-height:normal;font-family:sans-serif;text-indent:0;text-align:start;text-decoration:none;text-decoration-line:none;text-decoration-style:solid;text-decoration-color:#000000;letter-spacing:normal;word-spacing:normal;text-transform:none;direction:ltr;block-progression:tb;writing-mode:lr-tb;baseline-shift:baseline;text-anchor:start;white-space:normal;clip-rule:nonzero;display:inline;overflow:visible;visibility:visible;opacity:1;isolation:auto;mix-blend-mode:normal;color-interpolation:sRGB;color-interpolation-filters:linearRGB;solid-color:#000000;solid-opacity:1;fill:#000000;fill-opacity:1;fill-rule:nonzero;stroke:none;stroke-width:2.53707004;stroke-linecap:butt;stroke-linejoin:miter;stroke-miterlimit:4;stroke-dasharray:none;stroke-dashoffset:0;stroke-opacity:1;color-rendering:auto;image-rendering:auto;shape-rendering:auto;text-rendering:auto;enable-background:accumulate" />
      <path
         sodipodi:nodetypes="sssss"
         inkscape:connector-curvature="0"
         id="path6690-4-2"
         d="m -114.80092,1948.7178 c -31.42016,-3e-4 -56.99495,25.5744 -56.99487,56.9949 -8e-5,31.42 25.57471,56.9949 56.99487,56.9947 31.420151,2e-4 56.994917,-25.5747 56.994775,-56.9947 1.42e-4,-31.4205 -25.574624,-56.9952 -56.994775,-56.9949 z"
         style="color:#000000;font-style:normal;font-variant:normal;font-weight:normal;font-stretch:normal;font-size:medium;line-height:normal;font-family:sans-serif;text-indent:0;text-align:start;text-decoration:none;text-decoration-line:none;text-decoration-style:solid;text-decoration-color:#000000;letter-spacing:normal;word-spacing:normal;text-transform:none;direction:ltr;block-progression:tb;writing-mode:lr-tb;baseline-shift:baseline;text-anchor:start;white-space:normal;clip-rule:nonzero;display:inline;overflow:visible;visibility:visible;opacity:1;isolation:auto;mix-blend-mode:normal;color-interpolation:sRGB;color-interpolation-filters:linearRGB;solid-color:#000000;solid-opacity:1;fill:#ffffff;fill-opacity:1;fill-rule:nonzero;stroke:none;stroke-width:2.53707004;stroke-linecap:butt;stroke-linejoin:miter;stroke-miterlimit:4;stroke-dasharray:none;stroke-dashoffset:0;stroke-opacity:1;color-rendering:auto;image-rendering:auto;shape-rendering:auto;text-rendering:auto;enable-background:accumulate"
         inkscape:export-xdpi="90"
         inkscape:export-ydpi="90" />
      <path
         style="fill:#fcae91;fill-opacity:1"
         d="m -129.82358,1979.3404 -3.46996,1.9062 -4.80702,29.8369 -11.17785,3.2664 -1.08727,31.9466 c 9.50398,8.3368 21.94662,13.4079 35.56466,13.4079 24.147059,3e-4 44.618019,-15.9051 51.507889,-37.7947 1.609967,-5.115 2.479867,-10.5552 2.479844,-16.1977 2.3e-5,-4.6313 -0.584222,-9.1259 -1.684087,-13.417 l -67.326206,-12.9546 z"
         id="path6692-6-2"
         inkscape:connector-curvature="0" />
      <path
         inkscape:connector-curvature="0"
         style="fill:#cb181d;fill-opacity:1"
         d="m -133.29352,1981.2478 -4.8059,29.836 -11.1788,3.2644 -1.08537,31.949 c 9.50398,8.3368 21.94406,13.4053 35.56208,13.4053 24.147075,3e-4 44.61941,-15.9018 51.509279,-37.7914 z"
         id="path6694-9-0"
         sodipodi:nodetypes="ccccscc" />
      <path
         style="color:#000000;font-style:normal;font-variant:normal;font-weight:normal;font-stretch:normal;font-size:medium;line-height:normal;font-family:sans-serif;text-indent:0;text-align:start;text-decoration:none;text-decoration-line:none;text-decoration-style:solid;text-decoration-color:#000000;letter-spacing:normal;word-spacing:normal;text-transform:none;direction:ltr;block-progression:tb;writing-mode:lr-tb;baseline-shift:baseline;text-anchor:start;white-space:normal;clip-rule:nonzero;display:inline;overflow:visible;visibility:visible;opacity:1;isolation:auto;mix-blend-mode:normal;color-interpolation:sRGB;color-interpolation-filters:linearRGB;solid-color:#000000;solid-opacity:1;fill:#000000;fill-opacity:1;fill-rule:nonzero;stroke:none;stroke-width:2.53707004;stroke-linecap:butt;stroke-linejoin:miter;stroke-miterlimit:4;stroke-dasharray:none;stroke-dashoffset:0;stroke-opacity:1;color-rendering:auto;image-rendering:auto;shape-rendering:auto;text-rendering:auto;enable-background:accumulate"
         d="m -114.7996,1945.7144 c -33.05075,-3e-4 -60.00239,26.9467 -60.00229,59.9976 -1e-4,33.0507 26.95154,60.0026 60.00229,60.0024 33.05078,2e-4 59.997849,-26.9517 59.997707,-60.0024 1.42e-4,-33.0509 -26.946927,-59.9979 -59.997707,-59.9976 z m 0,6.0099 c 29.789559,-2e-4 53.9879,24.1979 53.987758,53.9877 1.42e-4,29.7895 -24.198199,53.9927 -53.987758,53.9924 -29.78953,3e-4 -53.99242,-24.2029 -53.99234,-53.9924 -8e-5,-29.7898 24.20281,-53.9879 53.99234,-53.9877 z"
         id="path6696-2-5"
         inkscape:connector-curvature="0" />
    </g>
  </g>
  <g
     inkscape:groupmode="layer"
     id="layer3"
     inkscape:label="Exome"
     style="display:inline"
     transform="translate(-7.4225275e-6,-12.000066)">
    <g
       style="display:inline"
       id="g9543"
       transform="matrix(0.40000002,0,0,0.40000002,69.920767,-715.61905)">
      <path
         inkscape:export-ydpi="90"
         inkscape:export-xdpi="90"
         style="color:#000000;font-style:normal;font-variant:normal;font-weight:normal;font-stretch:normal;font-size:medium;line-height:normal;font-family:sans-serif;text-indent:0;text-align:start;text-decoration:none;text-decoration-line:none;text-decoration-style:solid;text-decoration-color:#000000;letter-spacing:normal;word-spacing:normal;text-transform:none;direction:ltr;block-progression:tb;writing-mode:lr-tb;baseline-shift:baseline;text-anchor:start;white-space:normal;clip-rule:nonzero;display:inline;overflow:visible;visibility:visible;opacity:1;isolation:auto;mix-blend-mode:normal;color-interpolation:sRGB;color-interpolation-filters:linearRGB;solid-color:#000000;solid-opacity:1;fill:#ffffff;fill-opacity:1;fill-rule:nonzero;stroke:none;stroke-width:2.53707004;stroke-linecap:butt;stroke-linejoin:miter;stroke-miterlimit:4;stroke-dasharray:none;stroke-dashoffset:0;stroke-opacity:1;color-rendering:auto;image-rendering:auto;shape-rendering:auto;text-rendering:auto;enable-background:accumulate"
         d="m -114.80092,1822.0513 c -31.42015,-2e-4 -56.99494,25.5745 -56.99487,56.9949 -7e-5,31.4198 25.57472,56.995 56.99487,56.9947 31.420155,3e-4 56.99492,-25.5747 56.994778,-56.9947 1.42e-4,-31.4204 -25.574623,-56.9951 -56.994778,-56.9949 z"
         id="path6678-6-9"
         inkscape:connector-curvature="0"
         sodipodi:nodetypes="sssss" />
      <path
         id="path6673-8-1"
         d="m -129.82358,1852.674 -3.46996,1.9059 -4.80701,29.8372 -11.17786,3.2661 -1.08726,31.9468 c 9.50398,8.3368 21.94661,13.408 35.56466,13.408 24.147053,2e-4 44.618013,-15.9054 51.507883,-37.7947 1.609966,-5.115 2.479867,-10.5552 2.479843,-16.1978 2.4e-5,-4.6312 -0.584221,-9.1258 -1.684086,-13.4169 l -67.32621,-12.9546 z"
         style="fill:#bae4b3;fill-opacity:1"
         inkscape:connector-curvature="0" />
      <path
         sodipodi:nodetypes="ccccscc"
         id="path4822-1-0-0-96"
         d="m -133.29351,1854.5813 -4.80591,29.836 -11.1788,3.2642 -1.08537,31.9492 c 9.50398,8.3366 21.94406,13.4054 35.56208,13.4054 24.147079,2e-4 44.619413,-15.9019 51.509283,-37.7914 z"
         style="fill:#238b45;fill-opacity:1"
         inkscape:connector-curvature="0" />
      <path
         inkscape:connector-curvature="0"
         id="path4878-2-3-2-2"
         d="m -114.79959,1819.0477 c -33.05075,0 -60.00239,26.9469 -60.0023,59.9978 -9e-5,33.0505 26.95155,60.0026 60.0023,60.0022 33.050774,4e-4 59.997842,-26.9517 59.9977,-60.0022 1.42e-4,-33.0511 -26.946926,-59.9978 -59.9977,-59.9978 z m 0,6.0099 c 29.789552,0 53.987893,24.1982 53.987751,53.9879 1.42e-4,29.7896 -24.198199,53.9927 -53.987751,53.9922 -29.78953,5e-4 -53.99242,-24.2026 -53.99235,-53.9922 -7e-5,-29.7897 24.20282,-53.9879 53.99235,-53.9879 z"
         style="color:#000000;font-style:normal;font-variant:normal;font-weight:normal;font-stretch:normal;font-size:medium;line-height:normal;font-family:sans-serif;text-indent:0;text-align:start;text-decoration:none;text-decoration-line:none;text-decoration-style:solid;text-decoration-color:#000000;letter-spacing:normal;word-spacing:normal;text-transform:none;direction:ltr;block-progression:tb;writing-mode:lr-tb;baseline-shift:baseline;text-anchor:start;white-space:normal;clip-rule:nonzero;display:inline;overflow:visible;visibility:visible;opacity:1;isolation:auto;mix-blend-mode:normal;color-interpolation:sRGB;color-interpolation-filters:linearRGB;solid-color:#000000;solid-opacity:1;fill:#000000;fill-opacity:1;fill-rule:nonzero;stroke:none;stroke-width:2.53707004;stroke-linecap:butt;stroke-linejoin:miter;stroke-miterlimit:4;stroke-dasharray:none;stroke-dashoffset:0;stroke-opacity:1;color-rendering:auto;image-rendering:auto;shape-rendering:auto;text-rendering:auto;enable-background:accumulate" />
      <path
         sodipodi:nodetypes="sssss"
         inkscape:connector-curvature="0"
         id="path6690-10-5"
         d="m -114.80092,1822.0513 c -31.42015,-2e-4 -56.99494,25.5745 -56.99487,56.9949 -7e-5,31.4198 25.57472,56.995 56.99487,56.9947 31.420155,3e-4 56.99492,-25.5747 56.994778,-56.9947 1.42e-4,-31.4204 -25.574623,-56.9951 -56.994778,-56.9949 z"
         style="color:#000000;font-style:normal;font-variant:normal;font-weight:normal;font-stretch:normal;font-size:medium;line-height:normal;font-family:sans-serif;text-indent:0;text-align:start;text-decoration:none;text-decoration-line:none;text-decoration-style:solid;text-decoration-color:#000000;letter-spacing:normal;word-spacing:normal;text-transform:none;direction:ltr;block-progression:tb;writing-mode:lr-tb;baseline-shift:baseline;text-anchor:start;white-space:normal;clip-rule:nonzero;display:inline;overflow:visible;visibility:visible;opacity:1;isolation:auto;mix-blend-mode:normal;color-interpolation:sRGB;color-interpolation-filters:linearRGB;solid-color:#000000;solid-opacity:1;fill:#ffffff;fill-opacity:1;fill-rule:nonzero;stroke:none;stroke-width:2.53707004;stroke-linecap:butt;stroke-linejoin:miter;stroke-miterlimit:4;stroke-dasharray:none;stroke-dashoffset:0;stroke-opacity:1;color-rendering:auto;image-rendering:auto;shape-rendering:auto;text-rendering:auto;enable-background:accumulate"
         inkscape:export-xdpi="90"
         inkscape:export-ydpi="90" />
      <path
         style="fill:#cbc9e2;fill-opacity:1"
         d="m -129.82358,1852.674 -3.46996,1.9059 -4.80701,29.8372 -11.17786,3.2661 -1.08726,31.9468 c 9.50398,8.3368 21.94661,13.408 35.56466,13.408 24.147053,2e-4 44.618013,-15.9054 51.507883,-37.7947 1.609966,-5.115 2.479867,-10.5552 2.479843,-16.1978 2.4e-5,-4.6312 -0.584221,-9.1258 -1.684086,-13.4169 l -67.32621,-12.9546 z"
         id="path6692-5-4"
         inkscape:connector-curvature="0" />
      <path
         inkscape:connector-curvature="0"
         style="fill:#6a51a3;fill-opacity:1"
         d="m -133.29351,1854.5813 -4.80591,29.836 -11.1788,3.2642 -1.08537,31.9492 c 9.50398,8.3366 21.94406,13.4054 35.56208,13.4054 24.147079,2e-4 44.619413,-15.9019 51.509283,-37.7914 z"
         id="path6694-1-4"
         sodipodi:nodetypes="ccccscc" />
      <path
         style="color:#000000;font-style:normal;font-variant:normal;font-weight:normal;font-stretch:normal;font-size:medium;line-height:normal;font-family:sans-serif;text-indent:0;text-align:start;text-decoration:none;text-decoration-line:none;text-decoration-style:solid;text-decoration-color:#000000;letter-spacing:normal;word-spacing:normal;text-transform:none;direction:ltr;block-progression:tb;writing-mode:lr-tb;baseline-shift:baseline;text-anchor:start;white-space:normal;clip-rule:nonzero;display:inline;overflow:visible;visibility:visible;opacity:1;isolation:auto;mix-blend-mode:normal;color-interpolation:sRGB;color-interpolation-filters:linearRGB;solid-color:#000000;solid-opacity:1;fill:#000000;fill-opacity:1;fill-rule:nonzero;stroke:none;stroke-width:2.53707004;stroke-linecap:butt;stroke-linejoin:miter;stroke-miterlimit:4;stroke-dasharray:none;stroke-dashoffset:0;stroke-opacity:1;color-rendering:auto;image-rendering:auto;shape-rendering:auto;text-rendering:auto;enable-background:accumulate"
         d="m -114.79959,1819.0477 c -33.05075,0 -60.00239,26.9469 -60.0023,59.9978 -9e-5,33.0505 26.95155,60.0026 60.0023,60.0022 33.050774,4e-4 59.997842,-26.9517 59.9977,-60.0022 1.42e-4,-33.0511 -26.946926,-59.9978 -59.9977,-59.9978 z m 0,6.0099 c 29.789552,0 53.987893,24.1982 53.987751,53.9879 1.42e-4,29.7896 -24.198199,53.9927 -53.987751,53.9922 -29.78953,5e-4 -53.99242,-24.2026 -53.99235,-53.9922 -7e-5,-29.7897 24.20282,-53.9879 53.99235,-53.9879 z"
         id="path6696-1-9"
         inkscape:connector-curvature="0" />
    </g>
  </g>
  <g
     inkscape:groupmode="layer"
     id="layer4"
     inkscape:label="Sarek"
     style="display:inline"
     transform="translate(-7.4225275e-6,-12.000066)">
    <g
       id="g9533"
       transform="matrix(0.40000002,0,0,0.40000002,69.920768,-664.95241)">
      <path
         inkscape:export-ydpi="90"
         inkscape:export-xdpi="90"
         style="color:#000000;font-style:normal;font-variant:normal;font-weight:normal;font-stretch:normal;font-size:medium;line-height:normal;font-family:sans-serif;text-indent:0;text-align:start;text-decoration:none;text-decoration-line:none;text-decoration-style:solid;text-decoration-color:#000000;letter-spacing:normal;word-spacing:normal;text-transform:none;direction:ltr;block-progression:tb;writing-mode:lr-tb;baseline-shift:baseline;text-anchor:start;white-space:normal;clip-rule:nonzero;display:inline;overflow:visible;visibility:visible;opacity:1;isolation:auto;mix-blend-mode:normal;color-interpolation:sRGB;color-interpolation-filters:linearRGB;solid-color:#000000;solid-opacity:1;fill:#ffffff;fill-opacity:1;fill-rule:nonzero;stroke:none;stroke-width:2.53707004;stroke-linecap:butt;stroke-linejoin:miter;stroke-miterlimit:4;stroke-dasharray:none;stroke-dashoffset:0;stroke-opacity:1;color-rendering:auto;image-rendering:auto;shape-rendering:auto;text-rendering:auto;enable-background:accumulate"
         d="m -114.80092,1695.3846 c -31.42016,-3e-4 -56.99495,25.5744 -56.99487,56.9949 -8e-5,31.42 25.57471,56.9949 56.99487,56.9947 31.420151,2e-4 56.994917,-25.5747 56.994775,-56.9947 1.42e-4,-31.4205 -25.574624,-56.9952 -56.994775,-56.9949 z"
         id="path6678-8-3"
         inkscape:connector-curvature="0"
         sodipodi:nodetypes="sssss" />
      <path
         id="path6673-5-6"
         d="m -129.82358,1726.0072 -3.46996,1.9062 -4.80702,29.8369 -11.17785,3.2664 -1.08727,31.9465 c 9.50398,8.3368 21.94662,13.408 35.56466,13.408 24.147059,2e-4 44.618019,-15.9052 51.507889,-37.7947 1.609967,-5.115 2.479867,-10.5552 2.479844,-16.1977 2.3e-5,-4.6313 -0.584222,-9.1259 -1.684087,-13.417 l -67.326206,-12.9546 z"
         style="fill:#bae4b3;fill-opacity:1"
         inkscape:connector-curvature="0" />
      <path
         sodipodi:nodetypes="ccccscc"
         id="path4822-1-0-06-0"
         d="m -133.29352,1727.9146 -4.8059,29.8359 -11.1788,3.2645 -1.08537,31.9489 c 9.50398,8.3369 21.94406,13.4054 35.56208,13.4054 24.147075,2e-4 44.61941,-15.9019 51.509279,-37.7914 z"
         style="fill:#238b45;fill-opacity:1"
         inkscape:connector-curvature="0" />
      <path
         inkscape:connector-curvature="0"
         id="path4878-2-3-4-5"
         d="m -114.7996,1692.3811 c -33.05075,-2e-4 -60.00239,26.9467 -60.00229,59.9977 -1e-4,33.0506 26.95154,60.0026 60.00229,60.0023 33.05078,3e-4 59.997849,-26.9517 59.997707,-60.0023 1.42e-4,-33.051 -26.946927,-59.9979 -59.997707,-59.9977 z m 0,6.01 c 29.789559,-3e-4 53.9879,24.1979 53.987758,53.9877 1.42e-4,29.7895 -24.198199,53.9926 -53.987758,53.9924 -29.78953,2e-4 -53.99242,-24.2029 -53.99234,-53.9924 -8e-5,-29.7898 24.20281,-53.988 53.99234,-53.9877 z"
         style="color:#000000;font-style:normal;font-variant:normal;font-weight:normal;font-stretch:normal;font-size:medium;line-height:normal;font-family:sans-serif;text-indent:0;text-align:start;text-decoration:none;text-decoration-line:none;text-decoration-style:solid;text-decoration-color:#000000;letter-spacing:normal;word-spacing:normal;text-transform:none;direction:ltr;block-progression:tb;writing-mode:lr-tb;baseline-shift:baseline;text-anchor:start;white-space:normal;clip-rule:nonzero;display:inline;overflow:visible;visibility:visible;opacity:1;isolation:auto;mix-blend-mode:normal;color-interpolation:sRGB;color-interpolation-filters:linearRGB;solid-color:#000000;solid-opacity:1;fill:#000000;fill-opacity:1;fill-rule:nonzero;stroke:none;stroke-width:2.53707004;stroke-linecap:butt;stroke-linejoin:miter;stroke-miterlimit:4;stroke-dasharray:none;stroke-dashoffset:0;stroke-opacity:1;color-rendering:auto;image-rendering:auto;shape-rendering:auto;text-rendering:auto;enable-background:accumulate" />
      <path
         sodipodi:nodetypes="sssss"
         inkscape:connector-curvature="0"
         id="path6690-6-0"
         d="m -114.80092,1695.3846 c -31.42016,-3e-4 -56.99495,25.5744 -56.99487,56.9949 -8e-5,31.42 25.57471,56.9949 56.99487,56.9947 31.420151,2e-4 56.994917,-25.5747 56.994775,-56.9947 1.42e-4,-31.4205 -25.574624,-56.9952 -56.994775,-56.9949 z"
         style="color:#000000;font-style:normal;font-variant:normal;font-weight:normal;font-stretch:normal;font-size:medium;line-height:normal;font-family:sans-serif;text-indent:0;text-align:start;text-decoration:none;text-decoration-line:none;text-decoration-style:solid;text-decoration-color:#000000;letter-spacing:normal;word-spacing:normal;text-transform:none;direction:ltr;block-progression:tb;writing-mode:lr-tb;baseline-shift:baseline;text-anchor:start;white-space:normal;clip-rule:nonzero;display:inline;overflow:visible;visibility:visible;opacity:1;isolation:auto;mix-blend-mode:normal;color-interpolation:sRGB;color-interpolation-filters:linearRGB;solid-color:#000000;solid-opacity:1;fill:#ffffff;fill-opacity:1;fill-rule:nonzero;stroke:none;stroke-width:2.53707004;stroke-linecap:butt;stroke-linejoin:miter;stroke-miterlimit:4;stroke-dasharray:none;stroke-dashoffset:0;stroke-opacity:1;color-rendering:auto;image-rendering:auto;shape-rendering:auto;text-rendering:auto;enable-background:accumulate"
         inkscape:export-xdpi="90"
         inkscape:export-ydpi="90" />
      <path
         style="fill:#bae4b3;fill-opacity:1"
         d="m -129.82358,1726.0072 -3.46996,1.9062 -4.80702,29.8369 -11.17785,3.2664 -1.08727,31.9465 c 9.50398,8.3368 21.94662,13.408 35.56466,13.408 24.147059,2e-4 44.618019,-15.9052 51.507889,-37.7947 1.609967,-5.115 2.479867,-10.5552 2.479844,-16.1977 2.3e-5,-4.6313 -0.584222,-9.1259 -1.684087,-13.417 l -67.326206,-12.9546 z"
         id="path6692-25-2"
         inkscape:connector-curvature="0" />
      <path
         inkscape:connector-curvature="0"
         style="fill:#238b45;fill-opacity:1"
         d="m -133.29352,1727.9146 -4.8059,29.8359 -11.1788,3.2645 -1.08537,31.9489 c 9.50398,8.3369 21.94406,13.4054 35.56208,13.4054 24.147075,2e-4 44.61941,-15.9019 51.509279,-37.7914 z"
         id="path6694-86-9"
         sodipodi:nodetypes="ccccscc" />
      <path
         style="color:#000000;font-style:normal;font-variant:normal;font-weight:normal;font-stretch:normal;font-size:medium;line-height:normal;font-family:sans-serif;text-indent:0;text-align:start;text-decoration:none;text-decoration-line:none;text-decoration-style:solid;text-decoration-color:#000000;letter-spacing:normal;word-spacing:normal;text-transform:none;direction:ltr;block-progression:tb;writing-mode:lr-tb;baseline-shift:baseline;text-anchor:start;white-space:normal;clip-rule:nonzero;display:inline;overflow:visible;visibility:visible;opacity:1;isolation:auto;mix-blend-mode:normal;color-interpolation:sRGB;color-interpolation-filters:linearRGB;solid-color:#000000;solid-opacity:1;fill:#000000;fill-opacity:1;fill-rule:nonzero;stroke:none;stroke-width:2.53707004;stroke-linecap:butt;stroke-linejoin:miter;stroke-miterlimit:4;stroke-dasharray:none;stroke-dashoffset:0;stroke-opacity:1;color-rendering:auto;image-rendering:auto;shape-rendering:auto;text-rendering:auto;enable-background:accumulate"
         d="m -114.7996,1692.3811 c -33.05075,-2e-4 -60.00239,26.9467 -60.00229,59.9977 -1e-4,33.0506 26.95154,60.0026 60.00229,60.0023 33.05078,3e-4 59.997849,-26.9517 59.997707,-60.0023 1.42e-4,-33.051 -26.946927,-59.9979 -59.997707,-59.9977 z m 0,6.01 c 29.789559,-3e-4 53.9879,24.1979 53.987758,53.9877 1.42e-4,29.7895 -24.198199,53.9926 -53.987758,53.9924 -29.78953,2e-4 -53.99242,-24.2029 -53.99234,-53.9924 -8e-5,-29.7898 24.20281,-53.988 53.99234,-53.9877 z"
         id="path6696-28-4"
         inkscape:connector-curvature="0" />
    </g>
  </g>
</svg>
