<?xml version="1.0" encoding="UTF-8" standalone="no"?>
<!-- Created with Inkscape (http://www.inkscape.org/) -->

<svg
   xmlns:dc="http://purl.org/dc/elements/1.1/"
   xmlns:cc="http://creativecommons.org/ns#"
   xmlns:rdf="http://www.w3.org/1999/02/22-rdf-syntax-ns#"
   xmlns:svg="http://www.w3.org/2000/svg"
   xmlns="http://www.w3.org/2000/svg"
   xmlns:sodipodi="http://sodipodi.sourceforge.net/DTD/sodipodi-0.dtd"
   xmlns:inkscape="http://www.inkscape.org/namespaces/inkscape"
   width="48"
   height="48"
   viewBox="0 0 48.000002 48.000003"
   id="svg4924"
   version="1.1"
   inkscape:version="0.91 r13725"
   sodipodi:docname="Sarek_icon.svg"
   inkscape:export-filename="/home/max/workspace/github/CAW/doc/images/Sarek_germline_icon.png"
   inkscape:export-xdpi="90"
   inkscape:export-ydpi="90">
  <defs
     id="defs4926" />
  <sodipodi:namedview
     id="base"
     pagecolor="#ffffff"
     bordercolor="#666666"
     borderopacity="1.0"
     inkscape:pageopacity="0.0"
     inkscape:pageshadow="2"
     inkscape:zoom="3.959798"
     inkscape:cx="49.066411"
     inkscape:cy="27.672353"
     inkscape:document-units="px"
     inkscape:current-layer="layer4"
     showgrid="false"
     fit-margin-top="0"
     fit-margin-left="0"
     fit-margin-right="0"
     fit-margin-bottom="0"
     units="px"
     width="200mm"
     inkscape:window-width="1920"
     inkscape:window-height="1015"
     inkscape:window-x="1920"
     inkscape:window-y="0"
     inkscape:window-maximized="1" />
  <metadata
     id="metadata4929">
    <rdf:RDF>
      <cc:Work
         rdf:about="">
        <dc:format>image/svg+xml</dc:format>
        <dc:type
           rdf:resource="http://purl.org/dc/dcmitype/StillImage" />
        <dc:title></dc:title>
      </cc:Work>
    </rdf:RDF>
  </metadata>
  <g
     inkscape:label="Germline"
     inkscape:groupmode="layer"
     id="layer1"
     transform="translate(-221.17598,-670.32414)"
     style="display:inline">
    <path
       sodipodi:nodetypes="sssss"
       inkscape:connector-curvature="0"
       id="path4678"
       d="m 245.17628,671.52689 c -12.57579,0 -22.81199,10.22969 -22.81197,22.79759 -2e-5,12.56783 10.23618,22.7976 22.81197,22.79752 12.57578,8e-5 22.81198,-10.22969 22.81192,-22.79752 6e-5,-12.5679 -10.23614,-22.79759 -22.81192,-22.79759 z"
       style="color:#000000;font-style:normal;font-variant:normal;font-weight:normal;font-stretch:normal;font-size:medium;line-height:normal;font-family:sans-serif;text-indent:0;text-align:start;text-decoration:none;text-decoration-line:none;text-decoration-style:solid;text-decoration-color:#000000;letter-spacing:normal;word-spacing:normal;text-transform:none;direction:ltr;block-progression:tb;writing-mode:lr-tb;baseline-shift:baseline;text-anchor:start;white-space:normal;clip-rule:nonzero;display:inline;overflow:visible;visibility:visible;opacity:1;isolation:auto;mix-blend-mode:normal;color-interpolation:sRGB;color-interpolation-filters:linearRGB;solid-color:#000000;solid-opacity:1;fill:#ffffff;fill-opacity:1;fill-rule:nonzero;stroke:#ffffff;stroke-width:2.40466046;stroke-linecap:butt;stroke-linejoin:miter;stroke-miterlimit:4;stroke-dasharray:none;stroke-dashoffset:0;stroke-opacity:1;color-rendering:auto;image-rendering:auto;shape-rendering:auto;text-rendering:auto;enable-background:accumulate"
       inkscape:export-xdpi="90"
       inkscape:export-ydpi="90" />
    <path
       inkscape:connector-curvature="0"
       id="path4680"
       d="m 245.17564,670.32538 c -13.22842,0 -24.01456,10.77922 -24.01453,23.99937 -1e-5,7.2875 3.28145,13.82877 8.43901,18.23616 0.79983,-1.16898 1.81853,-2.20642 2.84051,-3.05341 1.02439,-0.84893 1.93161,-1.33692 2.80269,-1.72933 0.6342,-1.44903 1.2048,-2.86007 1.50703,-4.15593 -0.26299,-1.7048 -0.36633,-3.20948 -0.25947,-4.47184 l 0.0755,-0.90159 0.8884,-0.17691 c 0.17328,-0.0343 0.53634,-0.0892 0.73891,-0.12872 0.2858,-3.45506 0.20815,-6.56114 0.11856,-9.7286 l -0.0121,-0.44306 0.27838,-0.34687 c 0.12201,-0.1508 0.24379,-0.17972 0.37117,-0.26791 0.0103,-0.49731 -0.0687,-1.04816 0.0361,-1.4477 l 0.23028,-0.88102 0.91073,-0.015 0,0 c 1.86185,-0.0326 3.3369,0.25947 4.5778,0.7144 1.98729,0.0818 3.4826,0.39444 5.07958,0.76083 1.58848,0.36428 3.25421,0.89755 4.46609,1.82543 1.46682,0.22483 2.82235,1.00623 3.91966,1.42194 1.46709,0.47314 3.33598,0.74553 4.97301,1.65891 l 5.99891,1.66585 c -0.76147,-12.54241 -11.23009,-22.53628 -23.9664,-22.53628 z m 0,2.40425 c 10.40453,0 19.10381,7.37235 21.15166,17.16794 -1.03782,-0.28944 -2.07101,-0.58567 -3.08278,-0.92049 -2.09058,-0.93044 -4.38045,-1.27959 -6.43881,-2.29435 -2.0131,-0.43251 -3.63703,-1.79141 -5.66382,-2.22735 -2.06854,-0.60449 -4.23399,-0.7945 -6.34602,-1.09388 -0.76965,-0.3838 -2.19436,-0.22325 -2.69273,-0.69208 l -4.52452,0.0738 c -0.26623,1.16133 -0.72077,2.33541 -0.75782,3.49823 -0.53618,0.48869 -0.78676,1.07208 -0.62548,1.79458 0.0834,2.7171 0.0548,5.43753 -0.0877,8.15208 -0.4978,0.2614 -1.6569,-0.0677 -1.54827,0.73497 -0.23197,2.12729 -0.30248,4.27691 0.0704,6.39523 -0.17233,2.66011 -2.29268,3.71936 -4.19804,5.09532 -0.30707,0.26018 -0.58678,0.54541 -0.8506,0.84313 -3.72151,-3.88046 -6.01439,-9.14002 -6.01437,-14.93199 -3e-5,-11.91567 9.68562,-21.59512 21.60878,-21.59512 z m -3.92138,14.65546 c 0.0103,0.0712 -0.0317,0.15976 -0.0121,0.23186 l 0.31961,1.16607 -0.82826,0.22149 c 0.0925,3.15822 0.18968,6.37034 -0.19074,10.07889 l -0.0963,0.93765 -0.93309,0.13057 c -0.33826,0.0466 -0.38092,0.0668 -0.5705,0.0996 -0.0213,0.97467 -0.0319,1.97307 0.20105,3.34181 l 0.0394,0.23362 -0.0515,0.23178 c -0.38075,1.69143 -1.07284,3.34198 -1.78712,4.95789 l -0.21652,0.4894 -0.50693,0.16662 c -0.38894,0.12776 -1.55779,0.7843 -2.64633,1.68642 -0.92621,0.7676 -1.83232,1.72573 -2.46589,2.67727 3.88371,2.69951 8.59418,4.28816 13.66638,4.28807 12.88017,9e-5 23.44148,-10.2208 23.98874,-22.96211 l -6.94059,-1.92681 -0.13575,-0.0809 c -1.07104,-0.63351 -2.90338,-0.95823 -4.69292,-1.54038 l -0.0258,-0.009 -0.024,-0.0106 c -1.46805,-0.55121 -3.14538,-1.3429 -3.63097,-1.38071 l -0.40897,-0.0326 -0.30415,-0.27477 c -0.35252,-0.31891 -2.24482,-1.12704 -3.75469,-1.47338 l -0.002,0 c -1.67784,-0.38486 -2.93838,-0.6831 -4.84415,-0.73674 l -0.20449,-0.009 -0.19245,-0.0738 c -0.70938,-0.27204 -1.735,-0.34581 -2.74944,-0.42934 z m 3.07077,2.6172 c 2.53625,0.14166 5.1293,0.63008 7.40283,1.79458 -0.16929,-0.20241 0.80214,0.98574 1.34721,0.68178 0.87079,0 2.11685,0.85499 3.42131,1.24679 1.72031,0.63114 3.56089,0.97238 5.21362,1.7551 l 4.92318,1.37552 c -1.25694,10.72497 -10.39156,19.06399 -21.45754,19.0639 -3.71012,0 -7.20296,-0.93783 -10.25537,-2.58803 0.49987,-0.48623 1.05667,-0.9124 1.7012,-1.23641 0.64653,-0.61742 1.86596,-0.63026 2.29921,-1.41851 0.96169,-2.23254 2.04849,-4.49101 2.39715,-6.90705 -0.18866,-0.88427 -0.45598,-2.05703 0.81109,-1.85814 0.57026,-0.17832 0.22417,-1.23607 0.42616,-1.76882 0.37125,-3.16147 0.41479,-6.35073 0.3179,-9.52935 0.63125,-0.10367 1.27208,-0.3598 1.45205,-0.61136 z m 24.81701,2.87132 c 0.029,0.48061 0.0481,0.96341 0.0481,1.45114 0,-0.48773 -0.0192,-0.97044 -0.0481,-1.45114 z m -39.53676,19.69073 c 0.29149,0.24892 0.58861,0.49133 0.89185,0.72636 -0.30318,-0.23538 -0.60015,-0.47726 -0.89185,-0.72636 z m 0.94855,0.77103 c 0.30438,0.23449 0.61404,0.46179 0.92965,0.68177 -0.31534,-0.21981 -0.6258,-0.44728 -0.92965,-0.68177 z"
       style="color:#000000;font-style:normal;font-variant:normal;font-weight:normal;font-stretch:normal;font-size:medium;line-height:normal;font-family:sans-serif;text-indent:0;text-align:start;text-decoration:none;text-decoration-line:none;text-decoration-style:solid;text-decoration-color:#000000;letter-spacing:normal;word-spacing:normal;text-transform:none;direction:ltr;block-progression:tb;writing-mode:lr-tb;baseline-shift:baseline;text-anchor:start;white-space:normal;clip-rule:nonzero;display:inline;overflow:visible;visibility:visible;opacity:1;isolation:auto;mix-blend-mode:normal;color-interpolation:sRGB;color-interpolation-filters:linearRGB;solid-color:#000000;solid-opacity:1;fill:#000000;fill-opacity:1;fill-rule:nonzero;stroke:none;stroke-width:4.80000019;stroke-linecap:butt;stroke-linejoin:miter;stroke-miterlimit:4;stroke-dasharray:none;stroke-dashoffset:0;stroke-opacity:1;color-rendering:auto;image-rendering:auto;shape-rendering:auto;text-rendering:auto;enable-background:accumulate" />
    <path
       sodipodi:nodetypes="cccccccccccccccsccccccccsccccccccccccccccc"
       style="color:#000000;font-style:normal;font-variant:normal;font-weight:normal;font-stretch:normal;font-size:medium;line-height:normal;font-family:sans-serif;text-indent:0;text-align:start;text-decoration:none;text-decoration-line:none;text-decoration-style:solid;text-decoration-color:#000000;letter-spacing:normal;word-spacing:normal;text-transform:none;direction:ltr;block-progression:tb;writing-mode:lr-tb;baseline-shift:baseline;text-anchor:start;white-space:normal;clip-rule:nonzero;display:inline;overflow:visible;visibility:visible;opacity:1;isolation:auto;mix-blend-mode:normal;color-interpolation:sRGB;color-interpolation-filters:linearRGB;solid-color:#000000;solid-opacity:1;fill:#0000ff;fill-opacity:1;fill-rule:nonzero;stroke:none;stroke-width:4.80000019;stroke-linecap:butt;stroke-linejoin:miter;stroke-miterlimit:4;stroke-dasharray:none;stroke-dashoffset:0;stroke-opacity:1;color-rendering:auto;image-rendering:auto;shape-rendering:auto;text-rendering:auto;enable-background:accumulate"
       d="m 245.17564,672.72963 c 10.40453,0 19.10381,7.37235 21.15166,17.16794 -1.03782,-0.28944 -2.07101,-0.58567 -3.08278,-0.92049 -2.09058,-0.93044 -4.38045,-1.27959 -6.43881,-2.29435 -2.0131,-0.43251 -3.63703,-1.79141 -5.66382,-2.22735 -2.06854,-0.60449 -4.23399,-0.7945 -6.34602,-1.09388 -0.76965,-0.3838 -2.19436,-0.22325 -2.69273,-0.69208 l -4.52452,0.0738 c -0.26623,1.16133 -0.72077,2.33541 -0.75782,3.49823 -0.53618,0.48869 -0.78676,1.07208 -0.62548,1.79458 0.0834,2.7171 0.0548,5.43753 -0.0877,8.15208 -0.4978,0.2614 -1.6569,-0.0677 -1.54827,0.73497 -0.23197,2.12729 -0.30248,4.27691 0.0704,6.39523 -0.17233,2.66011 -2.29268,3.71936 -4.19804,5.09532 -0.30707,0.26018 -0.58678,0.54541 -0.8506,0.84313 -3.72151,-3.88046 -6.01439,-9.14002 -6.01437,-14.93199 -3e-5,-11.91567 9.68562,-21.59512 21.60878,-21.59512 z m -0.85061,17.27266 c 2.53625,0.14166 5.1293,0.63008 7.40283,1.79458 -0.16929,-0.20241 0.80214,0.98574 1.34721,0.68178 0.87079,0 2.11685,0.85499 3.42131,1.24679 1.72031,0.63114 3.56089,0.97238 5.21362,1.7551 l 4.92318,1.37552 c -1.25694,10.72497 -10.39156,19.06399 -21.45754,19.0639 -3.71012,0 -7.20296,-0.93783 -10.25537,-2.58803 0.49987,-0.48623 1.05667,-0.9124 1.7012,-1.23641 0.64653,-0.61742 1.86596,-0.63026 2.29921,-1.41851 0.96169,-2.23254 2.04849,-4.49101 2.39715,-6.90705 -0.18866,-0.88427 -0.45598,-2.05703 0.81109,-1.85814 0.57026,-0.17832 0.22417,-1.23607 0.42616,-1.76882 0.37125,-3.16147 0.41479,-6.35073 0.3179,-9.52935 0.63125,-0.10367 1.27208,-0.3598 1.45205,-0.61136 z m 24.81701,2.87132 c 0.029,0.48061 0.0481,0.96341 0.0481,1.45114 0,-0.48773 -0.0192,-0.97044 -0.0481,-1.45114 z m -39.53676,19.69073 c 0.29149,0.24892 0.58861,0.49133 0.89185,0.72636 -0.30318,-0.23538 -0.60015,-0.47726 -0.89185,-0.72636 z m 0.94855,0.77103 c 0.30438,0.23449 0.61404,0.46179 0.92965,0.68177 -0.31534,-0.21981 -0.6258,-0.44728 -0.92965,-0.68177 z"
       id="path4682"
       inkscape:connector-curvature="0" />
  </g>
  <g
     inkscape:groupmode="layer"
     id="layer2"
     inkscape:label="Somatic"
     style="display:none"
     transform="translate(-7.4225275e-6,-12.000066)"
     sodipodi:insensitive="true">
    <path
       sodipodi:nodetypes="sssss"
       inkscape:connector-curvature="0"
       id="path4627"
       d="m 24.000304,13.202833 c -12.575781,0 -22.8119796,10.229689 -22.8119532,22.797598 -2.64e-5,12.567823 10.2361722,22.797598 22.8119532,22.79751 12.575779,8.8e-5 22.811979,-10.229687 22.811926,-22.79751 5.3e-5,-12.567909 -10.236147,-22.797598 -22.811926,-22.797598 z"
       style="color:#000000;font-style:normal;font-variant:normal;font-weight:normal;font-stretch:normal;font-size:medium;line-height:normal;font-family:sans-serif;text-indent:0;text-align:start;text-decoration:none;text-decoration-line:none;text-decoration-style:solid;text-decoration-color:#000000;letter-spacing:normal;word-spacing:normal;text-transform:none;direction:ltr;block-progression:tb;writing-mode:lr-tb;baseline-shift:baseline;text-anchor:start;white-space:normal;clip-rule:nonzero;display:inline;overflow:visible;visibility:visible;opacity:1;isolation:auto;mix-blend-mode:normal;color-interpolation:sRGB;color-interpolation-filters:linearRGB;solid-color:#000000;solid-opacity:1;fill:#ffffff;fill-opacity:1;fill-rule:nonzero;stroke:#ffffff;stroke-width:2.40466046;stroke-linecap:butt;stroke-linejoin:miter;stroke-miterlimit:4;stroke-dasharray:none;stroke-dashoffset:0;stroke-opacity:1;color-rendering:auto;image-rendering:auto;shape-rendering:auto;text-rendering:auto;enable-background:accumulate"
       inkscape:export-xdpi="90"
       inkscape:export-ydpi="90" />
    <path
       inkscape:connector-curvature="0"
       id="path4629"
       d="m 23.999661,12.001322 c -13.228419,0 -24.01455615,10.779226 -24.01452975,23.999373 -8.8e-6,7.287501 3.28146045,13.828772 8.43902415,18.236162 0.7998237,-1.168979 1.8185276,-2.206421 2.8405046,-3.053414 1.02438,-0.848928 1.931611,-1.336918 2.802692,-1.729333 0.634188,-1.449024 1.204802,-2.860064 1.507029,-4.15592 -0.262996,-1.704802 -0.36633,-3.209483 -0.259477,-4.47184 l 0.07558,-0.901595 0.888413,-0.176908 c 0.173271,-0.03429 0.536336,-0.08916 0.738905,-0.128724 0.285791,-3.455061 0.208147,-6.561143 0.118564,-9.728596 l -0.01206,-0.443061 0.278383,-0.346869 c 0.122013,-0.150793 0.243788,-0.179721 0.371168,-0.267911 0.0103,-0.497311 -0.0688,-1.048168 0.03607,-1.447705 l 0.230265,-0.881021 0.910742,-0.01494 0,0 c 1.86185,-0.03254 3.336897,0.25947 4.5778,0.7144 1.987285,0.08177 3.482594,0.394437 5.079567,0.760826 1.588492,0.364278 3.254221,0.897551 4.466098,1.825436 1.466813,0.224828 2.822355,1.006228 3.919654,1.421943 1.467093,0.473131 3.335991,0.745527 4.973022,1.658904 l 5.998905,1.66585 C 47.204522,21.993961 36.735903,12.000091 23.999582,12.000091 Z m 0,2.404254 c 10.404543,0 19.103817,7.37235 21.151678,17.167946 -1.037832,-0.289453 -2.071009,-0.585676 -3.082789,-0.920499 -2.090576,-0.930435 -4.380448,-1.27959 -6.438814,-2.294347 -2.013091,-0.432509 -3.637021,-1.791409 -5.663819,-2.227347 -2.068537,-0.604493 -4.233985,-0.794502 -6.346019,-1.09389 -0.769647,-0.383799 -2.194361,-0.223245 -2.692723,-0.692067 l -4.524527,0.07386 c -0.266232,1.161329 -0.720772,2.335408 -0.757812,3.498232 -0.536186,0.488694 -0.786759,1.072085 -0.625489,1.794575 0.08349,2.717096 0.05481,5.437532 -0.08763,8.152079 -0.4978,0.261404 -1.656897,-0.0677 -1.548275,0.734976 -0.231964,2.127286 -0.302472,4.276906 0.07047,6.395225 -0.172321,2.66012 -2.29267,3.719367 -4.198036,5.095324 -0.3070654,0.26017 -0.5867679,0.545403 -0.8505892,0.843121 C 4.6837736,47.052318 2.3908927,41.792747 2.3909103,36.000783 2.3908839,24.085109 12.076537,14.405664 23.999688,14.405664 Z M 20.078293,29.06103 c 0.0103,0.07122 -0.03168,0.159763 -0.01206,0.231862 l 0.319619,1.166078 -0.828258,0.221485 c 0.09244,3.158222 0.18967,6.370343 -0.190744,10.078895 l -0.09623,0.937646 -0.933089,0.13057 c -0.338263,0.0466 -0.380917,0.06682 -0.570508,0.09962 -0.02129,0.974662 -0.03194,1.973064 0.201055,3.341812 l 0.0395,0.23362 -0.05156,0.231773 c -0.38075,1.691437 -1.072848,3.341988 -1.787127,4.957896 l -0.216524,0.489398 -0.506923,0.16662 c -0.388941,0.127756 -1.557786,0.784302 -2.646322,1.686425 -0.926226,0.767595 -1.832323,1.725728 -2.465896,2.677265 3.883704,2.699511 8.594179,4.288162 13.666374,4.288074 12.880179,8.8e-5 23.441488,-10.220808 23.988743,-22.962109 l -6.94057,-1.926814 -0.135756,-0.08089 c -1.071045,-0.633509 -2.903386,-0.958221 -4.692924,-1.54038 l -0.02578,-0.0088 -0.02403,-0.01055 C 34.701246,32.919321 33.023929,32.127633 32.538332,32.089825 L 32.129358,32.057289 31.825205,31.78252 C 31.472691,31.463614 29.58039,30.655484 28.070519,30.309143 l -0.0018,0 C 26.390892,29.92429 25.130343,29.626044 23.224572,29.572409 l -0.204495,-0.0088 -0.192452,-0.07386 c -0.709368,-0.272044 -1.734998,-0.345814 -2.749426,-0.429344 z m 3.070762,2.617212 c 2.536255,0.14165 5.129304,0.630079 7.402829,1.794575 -0.169286,-0.202407 0.802154,0.98574 1.347219,0.68178 0.870789,0 2.116856,0.854994 3.421316,1.246793 1.720305,0.631135 3.560881,0.972376 5.213607,1.755095 l 4.923189,1.375518 c -1.25694,10.724977 -10.391574,19.063988 -21.457554,19.0639 -3.710116,0 -7.202951,-0.937822 -10.255361,-2.588021 0.499868,-0.486232 1.056668,-0.91241 1.701205,-1.236418 0.646532,-0.617418 1.865958,-0.630256 2.299206,-1.418514 0.961693,-2.232535 2.048486,-4.491007 2.397157,-6.907044 -0.188676,-0.884274 -0.455983,-2.057034 0.811085,-1.858145 0.570262,-0.178315 0.224169,-1.236067 0.426158,-1.768812 0.371247,-3.161475 0.414797,-6.350735 0.317903,-9.529356 0.631242,-0.103665 1.272083,-0.359794 1.452041,-0.611351 z m 24.81701,2.871319 c 0.02895,0.480605 0.04813,0.963407 0.04813,1.451134 0,-0.487727 -0.01918,-0.970441 -0.04813,-1.451134 z M 8.4293107,54.240286 c 0.2914924,0.248919 0.5886066,0.491332 0.891844,0.726358 C 9.017979,54.731266 8.7210144,54.489381 8.4293107,54.240286 Z m 0.9485565,0.771025 c 0.3043724,0.2345 0.6140243,0.461788 0.9296498,0.68178 -0.3153523,-0.219816 -0.6258049,-0.44728 -0.9296498,-0.68178 z"
       style="color:#000000;font-style:normal;font-variant:normal;font-weight:normal;font-stretch:normal;font-size:medium;line-height:normal;font-family:sans-serif;text-indent:0;text-align:start;text-decoration:none;text-decoration-line:none;text-decoration-style:solid;text-decoration-color:#000000;letter-spacing:normal;word-spacing:normal;text-transform:none;direction:ltr;block-progression:tb;writing-mode:lr-tb;baseline-shift:baseline;text-anchor:start;white-space:normal;clip-rule:nonzero;display:inline;overflow:visible;visibility:visible;opacity:1;isolation:auto;mix-blend-mode:normal;color-interpolation:sRGB;color-interpolation-filters:linearRGB;solid-color:#000000;solid-opacity:1;fill:#000000;fill-opacity:1;fill-rule:nonzero;stroke:none;stroke-width:4.80000019;stroke-linecap:butt;stroke-linejoin:miter;stroke-miterlimit:4;stroke-dasharray:none;stroke-dashoffset:0;stroke-opacity:1;color-rendering:auto;image-rendering:auto;shape-rendering:auto;text-rendering:auto;enable-background:accumulate" />
    <path
       sodipodi:nodetypes="cccccccccccccccsccccccccsccccccccccccccccc"
       style="color:#000000;font-style:normal;font-variant:normal;font-weight:normal;font-stretch:normal;font-size:medium;line-height:normal;font-family:sans-serif;text-indent:0;text-align:start;text-decoration:none;text-decoration-line:none;text-decoration-style:solid;text-decoration-color:#000000;letter-spacing:normal;word-spacing:normal;text-transform:none;direction:ltr;block-progression:tb;writing-mode:lr-tb;baseline-shift:baseline;text-anchor:start;white-space:normal;clip-rule:nonzero;display:inline;overflow:visible;visibility:visible;opacity:1;isolation:auto;mix-blend-mode:normal;color-interpolation:sRGB;color-interpolation-filters:linearRGB;solid-color:#000000;solid-opacity:1;fill:#ee1212;fill-opacity:1;fill-rule:nonzero;stroke:none;stroke-width:4.80000019;stroke-linecap:butt;stroke-linejoin:miter;stroke-miterlimit:4;stroke-dasharray:none;stroke-dashoffset:0;stroke-opacity:1;color-rendering:auto;image-rendering:auto;shape-rendering:auto;text-rendering:auto;enable-background:accumulate"
       d="m 23.999661,14.405576 c 10.404543,0 19.103817,7.37235 21.151678,17.167946 -1.037832,-0.289453 -2.071009,-0.585676 -3.082789,-0.920499 -2.090576,-0.930435 -4.380448,-1.27959 -6.438814,-2.294347 -2.013091,-0.432509 -3.637021,-1.791409 -5.663819,-2.227347 -2.068537,-0.604493 -4.233985,-0.794502 -6.346019,-1.09389 -0.769647,-0.383799 -2.194361,-0.223245 -2.692723,-0.692067 l -4.524527,0.07386 c -0.266232,1.161329 -0.720772,2.335408 -0.757812,3.498232 -0.536186,0.488694 -0.786759,1.072085 -0.625489,1.794575 0.08349,2.717096 0.05481,5.437532 -0.08763,8.152079 -0.4978,0.261404 -1.656897,-0.0677 -1.548275,0.734976 -0.231964,2.127286 -0.302472,4.276906 0.07047,6.395225 -0.172321,2.66012 -2.29267,3.719367 -4.198036,5.095324 -0.3070654,0.26017 -0.5867679,0.545403 -0.8505892,0.843121 C 4.6837736,47.052318 2.3908927,41.792747 2.3909103,36.000783 2.3908839,24.085109 12.076537,14.405664 23.999688,14.405664 Z m -0.850606,17.272666 c 2.536255,0.14165 5.129304,0.630079 7.402829,1.794575 -0.169286,-0.202407 0.802154,0.98574 1.347219,0.68178 0.870789,0 2.116856,0.854994 3.421316,1.246793 1.720305,0.631135 3.560881,0.972376 5.213607,1.755095 l 4.923189,1.375518 c -1.25694,10.724977 -10.391574,19.063988 -21.457554,19.0639 -3.710116,0 -7.202951,-0.937822 -10.255361,-2.588021 0.499868,-0.486232 1.056668,-0.91241 1.701205,-1.236418 0.646532,-0.617418 1.865958,-0.630256 2.299206,-1.418514 0.961693,-2.232535 2.048486,-4.491007 2.397157,-6.907044 -0.188676,-0.884274 -0.455983,-2.057034 0.811085,-1.858145 0.570262,-0.178315 0.224169,-1.236067 0.426158,-1.768812 0.371247,-3.161475 0.414797,-6.350735 0.317903,-9.529356 0.631242,-0.103665 1.272083,-0.359794 1.452041,-0.611351 z m 24.81701,2.871319 c 0.02895,0.480605 0.04813,0.963407 0.04813,1.451134 0,-0.487727 -0.01918,-0.970441 -0.04813,-1.451134 z M 8.4293107,54.240286 c 0.2914924,0.248919 0.5886066,0.491332 0.891844,0.726358 C 9.017979,54.731266 8.7210144,54.489381 8.4293107,54.240286 Z m 0.9485565,0.771025 c 0.3043724,0.2345 0.6140243,0.461788 0.9296498,0.68178 -0.3153523,-0.219816 -0.6258049,-0.44728 -0.9296498,-0.68178 z"
       id="path4631"
       inkscape:connector-curvature="0" />
  </g>
  <g
     inkscape:groupmode="layer"
     id="layer3"
     inkscape:label="Exome"
     style="display:none"
     transform="translate(-7.4225275e-6,-12.000066)"
     sodipodi:insensitive="true">
    <path
       sodipodi:nodetypes="sssss"
       inkscape:connector-curvature="0"
       id="path4648"
       d="m 24.000296,13.202833 c -12.575781,0 -22.8119796,10.229689 -22.8119532,22.797598 -2.64e-5,12.567823 10.2361722,22.797598 22.8119532,22.79751 12.575779,8.8e-5 22.811979,-10.229687 22.811926,-22.79751 5.3e-5,-12.567909 -10.236147,-22.797598 -22.811926,-22.797598 z"
       style="color:#000000;font-style:normal;font-variant:normal;font-weight:normal;font-stretch:normal;font-size:medium;line-height:normal;font-family:sans-serif;text-indent:0;text-align:start;text-decoration:none;text-decoration-line:none;text-decoration-style:solid;text-decoration-color:#000000;letter-spacing:normal;word-spacing:normal;text-transform:none;direction:ltr;block-progression:tb;writing-mode:lr-tb;baseline-shift:baseline;text-anchor:start;white-space:normal;clip-rule:nonzero;display:inline;overflow:visible;visibility:visible;opacity:1;isolation:auto;mix-blend-mode:normal;color-interpolation:sRGB;color-interpolation-filters:linearRGB;solid-color:#000000;solid-opacity:1;fill:#ffffff;fill-opacity:1;fill-rule:nonzero;stroke:#ffffff;stroke-width:2.40466046;stroke-linecap:butt;stroke-linejoin:miter;stroke-miterlimit:4;stroke-dasharray:none;stroke-dashoffset:0;stroke-opacity:1;color-rendering:auto;image-rendering:auto;shape-rendering:auto;text-rendering:auto;enable-background:accumulate"
       inkscape:export-xdpi="90"
       inkscape:export-ydpi="90" />
    <path
       inkscape:connector-curvature="0"
       id="path4650"
       d="m 23.999653,12.001322 c -13.228419,0 -24.01455615,10.779226 -24.01452976,23.999373 -8.79e-6,7.287501 3.28146046,13.828772 8.43902416,18.236162 0.7998237,-1.168979 1.8185276,-2.206421 2.8405046,-3.053414 1.02438,-0.848928 1.931611,-1.336918 2.802692,-1.729333 0.634188,-1.449024 1.204802,-2.860064 1.507029,-4.15592 -0.262996,-1.704802 -0.36633,-3.209483 -0.259477,-4.47184 l 0.07558,-0.901595 0.888413,-0.176908 c 0.173271,-0.03429 0.536336,-0.08916 0.738905,-0.128724 0.285791,-3.455061 0.208147,-6.561143 0.118564,-9.728596 l -0.01206,-0.443061 0.278383,-0.346869 c 0.122013,-0.150793 0.243788,-0.179721 0.371168,-0.267911 0.0103,-0.497311 -0.0688,-1.048168 0.03607,-1.447705 l 0.230265,-0.881021 0.910742,-0.01494 0,0 c 1.86185,-0.03254 3.336897,0.25947 4.5778,0.7144 1.987285,0.08177 3.482594,0.394437 5.079567,0.760826 1.588492,0.364278 3.254221,0.897551 4.466098,1.825436 1.466813,0.224828 2.822355,1.006228 3.919654,1.421943 1.467093,0.473131 3.335991,0.745527 4.973022,1.658904 l 5.998905,1.66585 C 47.204514,21.993961 36.735895,12.000091 23.999574,12.000091 Z m 0,2.404254 c 10.404543,0 19.103817,7.37235 21.151678,17.167946 -1.037832,-0.289453 -2.071009,-0.585676 -3.082789,-0.920499 -2.090576,-0.930435 -4.380448,-1.27959 -6.438814,-2.294347 -2.013091,-0.432509 -3.637021,-1.791409 -5.663819,-2.227347 -2.068537,-0.604493 -4.233985,-0.794502 -6.346019,-1.09389 -0.769647,-0.383799 -2.194361,-0.223245 -2.692723,-0.692067 l -4.524527,0.07386 c -0.266232,1.161329 -0.720772,2.335408 -0.757812,3.498232 -0.536186,0.488694 -0.786759,1.072085 -0.625489,1.794575 0.08349,2.717096 0.05481,5.437532 -0.08763,8.152079 -0.4978,0.261404 -1.656897,-0.0677 -1.548275,0.734976 -0.231964,2.127286 -0.302472,4.276906 0.07047,6.395225 -0.172321,2.66012 -2.29267,3.719367 -4.198036,5.095324 -0.3070654,0.26017 -0.5867679,0.545403 -0.8505892,0.843121 C 4.6837656,47.052318 2.3908847,41.792747 2.3909023,36.000783 2.3908759,24.085109 12.076529,14.405664 23.99968,14.405664 Z M 20.078285,29.06103 c 0.0103,0.07122 -0.03168,0.159763 -0.01206,0.231862 l 0.319619,1.166078 -0.828258,0.221485 c 0.09244,3.158222 0.18967,6.370343 -0.190744,10.078895 l -0.09622,0.937646 -0.93309,0.13057 c -0.338263,0.0466 -0.380916,0.06682 -0.570508,0.09962 -0.02129,0.974662 -0.03194,1.973064 0.201056,3.341812 l 0.03951,0.23362 -0.05156,0.231773 c -0.380751,1.691437 -1.072849,3.341988 -1.787128,4.957896 l -0.216524,0.489398 -0.506922,0.16662 c -0.388942,0.127756 -1.557786,0.784302 -2.646322,1.686425 -0.926226,0.767595 -1.832324,1.725728 -2.465897,2.677265 3.883704,2.699511 8.59418,4.288162 13.666375,4.288074 12.880179,8.8e-5 23.441488,-10.220808 23.988742,-22.962109 l -6.940579,-1.926814 -0.135756,-0.08089 c -1.071045,-0.633509 -2.903386,-0.958221 -4.692924,-1.54038 l -0.02578,-0.0088 -0.02401,-0.01055 c -1.468065,-0.551205 -3.145383,-1.342893 -3.63098,-1.380701 l -0.408973,-0.03254 -0.304153,-0.274769 C 31.472683,31.46361 29.580382,30.65548 28.070511,30.309139 l -0.0018,0 c -1.677827,-0.384849 -2.938376,-0.683095 -4.844147,-0.73673 l -0.204495,-0.0088 -0.192452,-0.07386 c -0.709368,-0.272044 -1.734998,-0.345814 -2.749426,-0.429344 z m 3.070762,2.617212 c 2.536255,0.14165 5.129304,0.630079 7.402829,1.794575 -0.169286,-0.202407 0.802154,0.98574 1.347219,0.68178 0.870789,0 2.116856,0.854994 3.421316,1.246793 1.720305,0.631135 3.560881,0.972376 5.213607,1.755095 l 4.923189,1.375518 c -1.25694,10.724977 -10.391574,19.063988 -21.457554,19.0639 -3.710116,0 -7.202951,-0.937822 -10.255361,-2.588021 0.499868,-0.486232 1.056668,-0.91241 1.701205,-1.236418 0.646532,-0.617418 1.865958,-0.630256 2.299206,-1.418514 0.961693,-2.232535 2.048486,-4.491007 2.397157,-6.907044 -0.188676,-0.884274 -0.455983,-2.057034 0.811085,-1.858145 0.570262,-0.178315 0.224169,-1.236067 0.426158,-1.768812 0.371247,-3.161475 0.414797,-6.350735 0.317903,-9.529356 0.631242,-0.103665 1.272083,-0.359794 1.452041,-0.611351 z m 24.81701,2.871319 c 0.02895,0.480605 0.04813,0.963407 0.04813,1.451134 0,-0.487727 -0.01918,-0.970441 -0.04813,-1.451134 z M 8.4293027,54.240286 c 0.2914924,0.248919 0.5886066,0.491332 0.891844,0.726358 C 9.017971,54.731266 8.7210064,54.489381 8.4293027,54.240286 Z m 0.9485565,0.771025 c 0.3043724,0.2345 0.6140243,0.461788 0.9296498,0.68178 -0.3153523,-0.219816 -0.6258049,-0.44728 -0.9296498,-0.68178 z"
       style="color:#000000;font-style:normal;font-variant:normal;font-weight:normal;font-stretch:normal;font-size:medium;line-height:normal;font-family:sans-serif;text-indent:0;text-align:start;text-decoration:none;text-decoration-line:none;text-decoration-style:solid;text-decoration-color:#000000;letter-spacing:normal;word-spacing:normal;text-transform:none;direction:ltr;block-progression:tb;writing-mode:lr-tb;baseline-shift:baseline;text-anchor:start;white-space:normal;clip-rule:nonzero;display:inline;overflow:visible;visibility:visible;opacity:1;isolation:auto;mix-blend-mode:normal;color-interpolation:sRGB;color-interpolation-filters:linearRGB;solid-color:#000000;solid-opacity:1;fill:#000000;fill-opacity:1;fill-rule:nonzero;stroke:none;stroke-width:4.80000019;stroke-linecap:butt;stroke-linejoin:miter;stroke-miterlimit:4;stroke-dasharray:none;stroke-dashoffset:0;stroke-opacity:1;color-rendering:auto;image-rendering:auto;shape-rendering:auto;text-rendering:auto;enable-background:accumulate" />
    <path
       sodipodi:nodetypes="cccccccccccccccsccccccccsccccccccccccccccc"
       style="color:#000000;font-style:normal;font-variant:normal;font-weight:normal;font-stretch:normal;font-size:medium;line-height:normal;font-family:sans-serif;text-indent:0;text-align:start;text-decoration:none;text-decoration-line:none;text-decoration-style:solid;text-decoration-color:#000000;letter-spacing:normal;word-spacing:normal;text-transform:none;direction:ltr;block-progression:tb;writing-mode:lr-tb;baseline-shift:baseline;text-anchor:start;white-space:normal;clip-rule:nonzero;display:inline;overflow:visible;visibility:visible;opacity:1;isolation:auto;mix-blend-mode:normal;color-interpolation:sRGB;color-interpolation-filters:linearRGB;solid-color:#000000;solid-opacity:1;fill:#fcbd11;fill-opacity:1;fill-rule:nonzero;stroke:none;stroke-width:4.80000019;stroke-linecap:butt;stroke-linejoin:miter;stroke-miterlimit:4;stroke-dasharray:none;stroke-dashoffset:0;stroke-opacity:1;color-rendering:auto;image-rendering:auto;shape-rendering:auto;text-rendering:auto;enable-background:accumulate"
       d="m 23.999653,14.405576 c 10.404543,0 19.103817,7.37235 21.151678,17.167946 -1.037832,-0.289453 -2.071009,-0.585676 -3.082789,-0.920499 -2.090576,-0.930435 -4.380448,-1.27959 -6.438814,-2.294347 -2.013091,-0.432509 -3.637021,-1.791409 -5.663819,-2.227347 -2.068537,-0.604493 -4.233985,-0.794502 -6.346019,-1.09389 -0.769647,-0.383799 -2.194361,-0.223245 -2.692723,-0.692067 l -4.524527,0.07386 c -0.266232,1.161329 -0.720772,2.335408 -0.757812,3.498232 -0.536186,0.488694 -0.786759,1.072085 -0.625489,1.794575 0.08349,2.717096 0.05481,5.437532 -0.08763,8.152079 -0.4978,0.261404 -1.656897,-0.0677 -1.548275,0.734976 -0.231964,2.127286 -0.302472,4.276906 0.07047,6.395225 -0.172321,2.66012 -2.29267,3.719367 -4.198036,5.095324 -0.3070654,0.26017 -0.5867679,0.545403 -0.8505892,0.843121 C 4.6837656,47.052318 2.3908847,41.792747 2.3909023,36.000783 2.3908759,24.085109 12.076529,14.405664 23.99968,14.405664 Z m -0.850606,17.272666 c 2.536255,0.14165 5.129304,0.630079 7.402829,1.794575 -0.169286,-0.202407 0.802154,0.98574 1.347219,0.68178 0.870789,0 2.116856,0.854994 3.421316,1.246793 1.720305,0.631135 3.560881,0.972376 5.213607,1.755095 l 4.923189,1.375518 c -1.25694,10.724977 -10.391574,19.063988 -21.457554,19.0639 -3.710116,0 -7.202951,-0.937822 -10.255361,-2.588021 0.499868,-0.486232 1.056668,-0.91241 1.701205,-1.236418 0.646532,-0.617418 1.865958,-0.630256 2.299206,-1.418514 0.961693,-2.232535 2.048486,-4.491007 2.397157,-6.907044 -0.188676,-0.884274 -0.455983,-2.057034 0.811085,-1.858145 0.570262,-0.178315 0.224169,-1.236067 0.426158,-1.768812 0.371247,-3.161475 0.414797,-6.350735 0.317903,-9.529356 0.631242,-0.103665 1.272083,-0.359794 1.452041,-0.611351 z m 24.81701,2.871319 c 0.02895,0.480605 0.04813,0.963407 0.04813,1.451134 0,-0.487727 -0.01918,-0.970441 -0.04813,-1.451134 z M 8.4293027,54.240286 c 0.2914924,0.248919 0.5886066,0.491332 0.891844,0.726358 C 9.017971,54.731266 8.7210064,54.489381 8.4293027,54.240286 Z m 0.9485565,0.771025 c 0.3043724,0.2345 0.6140243,0.461788 0.9296498,0.68178 -0.3153523,-0.219816 -0.6258049,-0.44728 -0.9296498,-0.68178 z"
       id="path4652"
       inkscape:connector-curvature="0" />
  </g>
  <g
     inkscape:groupmode="layer"
     id="layer4"
     inkscape:label="Sarek"
     style="display:none"
     transform="translate(-7.4225275e-6,-12.000066)"
     sodipodi:insensitive="true">
    <path
       sodipodi:nodetypes="sssss"
       inkscape:connector-curvature="0"
       id="path4689"
       d="m 24.000304,13.202833 c -12.575781,0 -22.8119796,10.229689 -22.8119532,22.797598 -2.64e-5,12.567823 10.2361722,22.797598 22.8119532,22.79751 12.575779,8.8e-5 22.811979,-10.229687 22.811926,-22.79751 5.3e-5,-12.567909 -10.236147,-22.797598 -22.811926,-22.797598 z"
       style="color:#000000;font-style:normal;font-variant:normal;font-weight:normal;font-stretch:normal;font-size:medium;line-height:normal;font-family:sans-serif;text-indent:0;text-align:start;text-decoration:none;text-decoration-line:none;text-decoration-style:solid;text-decoration-color:#000000;letter-spacing:normal;word-spacing:normal;text-transform:none;direction:ltr;block-progression:tb;writing-mode:lr-tb;baseline-shift:baseline;text-anchor:start;white-space:normal;clip-rule:nonzero;display:inline;overflow:visible;visibility:visible;opacity:1;isolation:auto;mix-blend-mode:normal;color-interpolation:sRGB;color-interpolation-filters:linearRGB;solid-color:#000000;solid-opacity:1;fill:#ffffff;fill-opacity:1;fill-rule:nonzero;stroke:#ffffff;stroke-width:2.40466046;stroke-linecap:butt;stroke-linejoin:miter;stroke-miterlimit:4;stroke-dasharray:none;stroke-dashoffset:0;stroke-opacity:1;color-rendering:auto;image-rendering:auto;shape-rendering:auto;text-rendering:auto;enable-background:accumulate"
       inkscape:export-xdpi="90"
       inkscape:export-ydpi="90" />
    <path
       inkscape:connector-curvature="0"
       id="path4691"
       d="m 23.999661,12.001322 c -13.228419,0 -24.01455615,10.779226 -24.01452975,23.999373 -8.8e-6,7.287501 3.28146045,13.828772 8.43902415,18.236162 0.7998237,-1.168979 1.8185276,-2.206421 2.8405046,-3.053414 1.02438,-0.848928 1.931611,-1.336918 2.802692,-1.729333 0.634188,-1.449024 1.204802,-2.860064 1.507029,-4.15592 -0.262996,-1.704802 -0.36633,-3.209483 -0.259477,-4.47184 l 0.07558,-0.901595 0.888413,-0.176908 c 0.173271,-0.03429 0.536336,-0.08916 0.738905,-0.128724 0.285791,-3.455061 0.208147,-6.561143 0.118564,-9.728596 l -0.01206,-0.443061 0.278383,-0.346869 c 0.122013,-0.150793 0.243788,-0.179721 0.371168,-0.267911 0.0103,-0.497311 -0.0688,-1.048168 0.03607,-1.447705 l 0.230265,-0.881021 0.910742,-0.01494 0,0 c 1.86185,-0.03254 3.336897,0.25947 4.5778,0.7144 1.987285,0.08177 3.482594,0.394437 5.079567,0.760826 1.588492,0.364278 3.254221,0.897551 4.466098,1.825436 1.466813,0.224828 2.822355,1.006228 3.919654,1.421943 1.467093,0.473131 3.335991,0.745527 4.973022,1.658904 l 5.998905,1.66585 C 47.204522,21.993961 36.735903,12.000091 23.999582,12.000091 Z m 0,2.404254 c 10.404543,0 19.103817,7.37235 21.151678,17.167946 -1.037832,-0.289453 -2.071009,-0.585676 -3.082789,-0.920499 -2.090576,-0.930435 -4.380448,-1.27959 -6.438814,-2.294347 -2.013091,-0.432509 -3.637021,-1.791409 -5.663819,-2.227347 -2.068537,-0.604493 -4.233985,-0.794502 -6.346019,-1.09389 -0.769647,-0.383799 -2.194361,-0.223245 -2.692723,-0.692067 l -4.524527,0.07386 c -0.266232,1.161329 -0.720772,2.335408 -0.757812,3.498232 -0.536186,0.488694 -0.786759,1.072085 -0.625489,1.794575 0.08349,2.717096 0.05481,5.437532 -0.08763,8.152079 -0.4978,0.261404 -1.656897,-0.0677 -1.548275,0.734976 -0.231964,2.127286 -0.302472,4.276906 0.07047,6.395225 -0.172321,2.66012 -2.29267,3.719367 -4.198036,5.095324 -0.3070654,0.26017 -0.5867679,0.545403 -0.8505892,0.843121 C 4.6837736,47.052318 2.3908927,41.792747 2.3909103,36.000783 2.3908839,24.085109 12.076537,14.405664 23.999688,14.405664 Z M 20.078293,29.06103 c 0.0103,0.07122 -0.03168,0.159763 -0.01206,0.231862 l 0.319619,1.166078 -0.828258,0.221485 c 0.09244,3.158222 0.18967,6.370343 -0.190744,10.078895 l -0.09623,0.937646 -0.933089,0.13057 c -0.338263,0.0466 -0.380917,0.06682 -0.570508,0.09962 -0.02129,0.974662 -0.03194,1.973064 0.201055,3.341812 l 0.0395,0.23362 -0.05156,0.231773 c -0.38075,1.691437 -1.072848,3.341988 -1.787127,4.957896 l -0.216524,0.489398 -0.506923,0.16662 c -0.388941,0.127756 -1.557786,0.784302 -2.646322,1.686425 -0.926226,0.767595 -1.832323,1.725728 -2.465896,2.677265 3.883704,2.699511 8.594179,4.288162 13.666374,4.288074 12.880179,8.8e-5 23.441488,-10.220808 23.988743,-22.962109 l -6.94057,-1.926814 -0.135756,-0.08089 c -1.071045,-0.633509 -2.903386,-0.958221 -4.692924,-1.54038 l -0.02578,-0.0088 -0.02403,-0.01055 C 34.701246,32.919321 33.023929,32.127633 32.538332,32.089825 L 32.129358,32.057289 31.825205,31.78252 C 31.472691,31.463614 29.58039,30.655484 28.070519,30.309143 l -0.0018,0 C 26.390892,29.92429 25.130343,29.626044 23.224572,29.572409 l -0.204495,-0.0088 -0.192452,-0.07386 c -0.709368,-0.272044 -1.734998,-0.345814 -2.749426,-0.429344 z m 3.070762,2.617212 c 2.536255,0.14165 5.129304,0.630079 7.402829,1.794575 -0.169286,-0.202407 0.802154,0.98574 1.347219,0.68178 0.870789,0 2.116856,0.854994 3.421316,1.246793 1.720305,0.631135 3.560881,0.972376 5.213607,1.755095 l 4.923189,1.375518 c -1.25694,10.724977 -10.391574,19.063988 -21.457554,19.0639 -3.710116,0 -7.202951,-0.937822 -10.255361,-2.588021 0.499868,-0.486232 1.056668,-0.91241 1.701205,-1.236418 0.646532,-0.617418 1.865958,-0.630256 2.299206,-1.418514 0.961693,-2.232535 2.048486,-4.491007 2.397157,-6.907044 -0.188676,-0.884274 -0.455983,-2.057034 0.811085,-1.858145 0.570262,-0.178315 0.224169,-1.236067 0.426158,-1.768812 0.371247,-3.161475 0.414797,-6.350735 0.317903,-9.529356 0.631242,-0.103665 1.272083,-0.359794 1.452041,-0.611351 z m 24.81701,2.871319 c 0.02895,0.480605 0.04813,0.963407 0.04813,1.451134 0,-0.487727 -0.01918,-0.970441 -0.04813,-1.451134 z M 8.4293107,54.240286 c 0.2914924,0.248919 0.5886066,0.491332 0.891844,0.726358 C 9.017979,54.731266 8.7210144,54.489381 8.4293107,54.240286 Z m 0.9485565,0.771025 c 0.3043724,0.2345 0.6140243,0.461788 0.9296498,0.68178 -0.3153523,-0.219816 -0.6258049,-0.44728 -0.9296498,-0.68178 z"
       style="color:#000000;font-style:normal;font-variant:normal;font-weight:normal;font-stretch:normal;font-size:medium;line-height:normal;font-family:sans-serif;text-indent:0;text-align:start;text-decoration:none;text-decoration-line:none;text-decoration-style:solid;text-decoration-color:#000000;letter-spacing:normal;word-spacing:normal;text-transform:none;direction:ltr;block-progression:tb;writing-mode:lr-tb;baseline-shift:baseline;text-anchor:start;white-space:normal;clip-rule:nonzero;display:inline;overflow:visible;visibility:visible;opacity:1;isolation:auto;mix-blend-mode:normal;color-interpolation:sRGB;color-interpolation-filters:linearRGB;solid-color:#000000;solid-opacity:1;fill:#000000;fill-opacity:1;fill-rule:nonzero;stroke:none;stroke-width:4.80000019;stroke-linecap:butt;stroke-linejoin:miter;stroke-miterlimit:4;stroke-dasharray:none;stroke-dashoffset:0;stroke-opacity:1;color-rendering:auto;image-rendering:auto;shape-rendering:auto;text-rendering:auto;enable-background:accumulate" />
    <path
       sodipodi:nodetypes="cccccccccccccccsccccccccsccccccccccccccccc"
       style="color:#000000;font-style:normal;font-variant:normal;font-weight:normal;font-stretch:normal;font-size:medium;line-height:normal;font-family:sans-serif;text-indent:0;text-align:start;text-decoration:none;text-decoration-line:none;text-decoration-style:solid;text-decoration-color:#000000;letter-spacing:normal;word-spacing:normal;text-transform:none;direction:ltr;block-progression:tb;writing-mode:lr-tb;baseline-shift:baseline;text-anchor:start;white-space:normal;clip-rule:nonzero;display:inline;overflow:visible;visibility:visible;opacity:1;isolation:auto;mix-blend-mode:normal;color-interpolation:sRGB;color-interpolation-filters:linearRGB;solid-color:#000000;solid-opacity:1;fill:#00aa00;fill-opacity:1;fill-rule:nonzero;stroke:none;stroke-width:4.80000019;stroke-linecap:butt;stroke-linejoin:miter;stroke-miterlimit:4;stroke-dasharray:none;stroke-dashoffset:0;stroke-opacity:1;color-rendering:auto;image-rendering:auto;shape-rendering:auto;text-rendering:auto;enable-background:accumulate"
       d="m 23.999661,14.405576 c 10.404543,0 19.103817,7.37235 21.151678,17.167946 -1.037832,-0.289453 -2.071009,-0.585676 -3.082789,-0.920499 -2.090576,-0.930435 -4.380448,-1.27959 -6.438814,-2.294347 -2.013091,-0.432509 -3.637021,-1.791409 -5.663819,-2.227347 -2.068537,-0.604493 -4.233985,-0.794502 -6.346019,-1.09389 -0.769647,-0.383799 -2.194361,-0.223245 -2.692723,-0.692067 l -4.524527,0.07386 c -0.266232,1.161329 -0.720772,2.335408 -0.757812,3.498232 -0.536186,0.488694 -0.786759,1.072085 -0.625489,1.794575 0.08349,2.717096 0.05481,5.437532 -0.08763,8.152079 -0.4978,0.261404 -1.656897,-0.0677 -1.548275,0.734976 -0.231964,2.127286 -0.302472,4.276906 0.07047,6.395225 -0.172321,2.66012 -2.29267,3.719367 -4.1980362,5.095324 -0.307065,0.26017 -0.586768,0.545403 -0.850589,0.843121 C 4.6837738,47.052318 2.3908928,41.792747 2.3909098,36.000783 2.3908838,24.085109 12.076537,14.405664 23.999688,14.405664 Z m -0.850606,17.272666 c 2.536255,0.14165 5.129304,0.630079 7.402829,1.794575 -0.169286,-0.202407 0.802154,0.98574 1.347219,0.68178 0.870789,0 2.116856,0.854994 3.421316,1.246793 1.720305,0.631135 3.560881,0.972376 5.213607,1.755095 l 4.923189,1.375518 c -1.25694,10.724977 -10.391574,19.063988 -21.457554,19.0639 -3.710116,0 -7.202951,-0.937822 -10.255361,-2.588021 0.499868,-0.486232 1.056668,-0.91241 1.701205,-1.236418 0.646532,-0.617418 1.865958,-0.630256 2.299206,-1.418514 0.961693,-2.232535 2.048486,-4.491007 2.397157,-6.907044 -0.188676,-0.884274 -0.455983,-2.057034 0.811085,-1.858145 0.570262,-0.178315 0.224169,-1.236067 0.426158,-1.768812 0.371247,-3.161475 0.414797,-6.350735 0.317903,-9.529356 0.631242,-0.103665 1.272083,-0.359794 1.452041,-0.611351 z m 24.81701,2.871319 c 0.02895,0.480605 0.04813,0.963407 0.04813,1.451134 0,-0.487727 -0.01918,-0.970441 -0.04813,-1.451134 z M 8.4293108,54.240286 c 0.291492,0.248919 0.588606,0.491332 0.891844,0.726358 -0.303176,-0.235378 -0.60014,-0.477263 -0.891844,-0.726358 z m 0.948556,0.771025 c 0.304373,0.2345 0.614025,0.461788 0.9296502,0.68178 -0.3153522,-0.219816 -0.6258052,-0.44728 -0.9296502,-0.68178 z"
       id="path4693"
       inkscape:connector-curvature="0" />
  </g>
</svg>
