<?xml version="1.0" encoding="UTF-8" standalone="no"?>
<!-- Created with Inkscape (http://www.inkscape.org/) -->

<svg
   xmlns:dc="http://purl.org/dc/elements/1.1/"
   xmlns:cc="http://creativecommons.org/ns#"
   xmlns:rdf="http://www.w3.org/1999/02/22-rdf-syntax-ns#"
   xmlns:svg="http://www.w3.org/2000/svg"
   xmlns="http://www.w3.org/2000/svg"
   xmlns:sodipodi="http://sodipodi.sourceforge.net/DTD/sodipodi-0.dtd"
   xmlns:inkscape="http://www.inkscape.org/namespaces/inkscape"
   width="210"
   height="60"
   viewBox="0 0 210.00001 60.000004"
   id="svg4924"
   version="1.1"
   inkscape:version="0.91 r13725"
   sodipodi:docname="Sarek_logo.svg"
   inkscape:export-filename="/home/max/workspace/github/CAW/doc/images/Sarek_germline_logo.png"
   inkscape:export-xdpi="90"
   inkscape:export-ydpi="90">
  <defs
     id="defs4926" />
  <sodipodi:namedview
     id="base"
     pagecolor="#ffffff"
     bordercolor="#666666"
     borderopacity="1.0"
     inkscape:pageopacity="0.0"
     inkscape:pageshadow="2"
     inkscape:zoom="3.959798"
     inkscape:cx="49.066418"
     inkscape:cy="27.672288"
     inkscape:document-units="px"
     inkscape:current-layer="layer4"
     showgrid="false"
     fit-margin-top="0"
     fit-margin-left="0"
     fit-margin-right="0"
     fit-margin-bottom="0"
     units="px"
     width="200mm"
     inkscape:window-width="1920"
     inkscape:window-height="1015"
     inkscape:window-x="1920"
     inkscape:window-y="0"
     inkscape:window-maximized="1" />
  <metadata
     id="metadata4929">
    <rdf:RDF>
      <cc:Work
         rdf:about="">
        <dc:format>image/svg+xml</dc:format>
        <dc:type
           rdf:resource="http://purl.org/dc/dcmitype/StillImage" />
        <dc:title />
      </cc:Work>
    </rdf:RDF>
  </metadata>
  <g
     inkscape:label="Germline"
     inkscape:groupmode="layer"
     id="layer1"
     transform="translate(-221.17597,-658.32407)"
     style="display:inline"
     sodipodi:insensitive="true">
    <g
       id="g5973"
       transform="translate(0,80.000004)">
      <flowRoot
         transform="matrix(1.0753408,0,0,1.0753408,-21.732809,-134.11913)"
         style="font-style:normal;font-variant:normal;font-weight:normal;font-stretch:normal;font-size:25.15196991px;line-height:125%;font-family:Chandas;-inkscape-font-specification:Chandas;text-align:center;letter-spacing:0px;word-spacing:0px;text-anchor:middle;fill:#000000;fill-opacity:1;stroke:none;stroke-width:1px;stroke-linecap:butt;stroke-linejoin:miter;stroke-opacity:1"
         id="flowRoot4666"
         xml:space="preserve"><flowRegion
           id="flowRegion4668"><rect
             style="font-style:normal;font-variant:normal;font-weight:normal;font-stretch:normal;font-size:25.15196991px;font-family:Chandas;-inkscape-font-specification:Chandas;text-align:center;text-anchor:middle"
             y="659.50055"
             x="287.41022"
             height="183.64931"
             width="295.43579"
             id="rect4670" /></flowRegion><flowPara
           style="font-style:normal;font-variant:normal;font-weight:normal;font-stretch:normal;font-family:'Eurostile Extended';-inkscape-font-specification:'Eurostile Extended';text-align:start;text-anchor:start"
           id="flowPara4672">Sarek</flowPara><flowPara
           style="font-style:normal;font-variant:normal;font-weight:normal;font-stretch:normal;font-family:'Eurostile Extended';-inkscape-font-specification:'Eurostile Extended';text-align:start;text-anchor:start"
           id="flowPara4674">Germline</flowPara></flowRoot>      <g
         transform="matrix(1.0990781,0,0,1.0990781,-259.41952,-958.80375)"
         id="g4676">
        <path
           sodipodi:nodetypes="sssss"
           inkscape:connector-curvature="0"
           id="path4678"
           d="m 464.56714,1399.929 c -14.29364,0 -25.92811,11.6344 -25.92808,25.9281 -3e-5,14.2936 11.63444,25.9281 25.92808,25.928 14.29364,10e-5 25.92811,-11.6344 25.92805,-25.928 6e-5,-14.2937 -11.63441,-25.9281 -25.92805,-25.9281 z"
           style="color:#000000;font-style:normal;font-variant:normal;font-weight:normal;font-stretch:normal;font-size:medium;line-height:normal;font-family:sans-serif;text-indent:0;text-align:start;text-decoration:none;text-decoration-line:none;text-decoration-style:solid;text-decoration-color:#000000;letter-spacing:normal;word-spacing:normal;text-transform:none;direction:ltr;block-progression:tb;writing-mode:lr-tb;baseline-shift:baseline;text-anchor:start;white-space:normal;clip-rule:nonzero;display:inline;overflow:visible;visibility:visible;opacity:1;isolation:auto;mix-blend-mode:normal;color-interpolation:sRGB;color-interpolation-filters:linearRGB;solid-color:#000000;solid-opacity:1;fill:#ffffff;fill-opacity:1;fill-rule:nonzero;stroke:#ffffff;stroke-width:2.73399997;stroke-linecap:butt;stroke-linejoin:miter;stroke-miterlimit:4;stroke-dasharray:none;stroke-dashoffset:0;stroke-opacity:1;color-rendering:auto;image-rendering:auto;shape-rendering:auto;text-rendering:auto;enable-background:accumulate"
           inkscape:export-xdpi="90"
           inkscape:export-ydpi="90" />
        <path
           inkscape:connector-curvature="0"
           id="path4680"
           d="m 464.56641,1398.5625 c -15.03543,0 -27.29496,12.2594 -27.29493,27.2949 -10e-6,8.2882 3.72971,15.7277 9.5918,20.7403 0.90908,-1.3295 2.06694,-2.5094 3.22852,-3.4727 1.16431,-0.9655 2.19547,-1.5205 3.18554,-1.9668 0.72082,-1.648 1.36938,-3.2528 1.71289,-4.7266 -0.29892,-1.9389 -0.41637,-3.6502 -0.29492,-5.0859 l 0.0859,-1.0254 1.00977,-0.2012 c 0.19694,-0.039 0.6096,-0.1014 0.83984,-0.1464 0.32483,-3.9295 0.23658,-7.4621 0.13476,-11.0645 l -0.0137,-0.5039 0.31641,-0.3945 c 0.13868,-0.1715 0.27709,-0.2044 0.42187,-0.3047 0.0117,-0.5656 -0.0782,-1.1921 0.041,-1.6465 l 0.26172,-1.002 1.03515,-0.017 0,0 c 2.11618,-0.037 3.79272,0.2951 5.20313,0.8125 2.25875,0.093 3.95832,0.4486 5.77344,0.8653 1.80548,0.4143 3.69875,1.0208 5.07617,2.0761 1.66718,0.2557 3.20789,1.1444 4.45508,1.6172 1.6675,0.5381 3.79169,0.8479 5.65234,1.8867 l 6.81836,1.8946 c -0.86548,-14.2647 -12.76412,-25.6309 -27.24023,-25.6309 z m 0,2.7344 c 11.82581,0 21.71341,8.3847 24.04101,19.5254 -1.1796,-0.3292 -2.35391,-0.6661 -3.5039,-1.0469 -2.37615,-1.0582 -4.97882,-1.4553 -7.31836,-2.6094 -2.28808,-0.4919 -4.13384,-2.0374 -6.4375,-2.5332 -2.3511,-0.6875 -4.81235,-0.9036 -7.21289,-1.2441 -0.87478,-0.4365 -2.49411,-0.2539 -3.06055,-0.7871 l -5.14258,0.084 c -0.3026,1.3208 -0.81923,2.6561 -0.86133,3.9786 -0.60943,0.5558 -0.89423,1.2193 -0.71093,2.041 0.0949,3.0902 0.0623,6.1842 -0.0996,9.2715 -0.5658,0.2973 -1.88323,-0.077 -1.75977,0.8359 -0.26365,2.4194 -0.34379,4.8642 0.0801,7.2734 -0.19586,3.0254 -2.60585,4.2301 -4.77149,5.795 -0.34902,0.2959 -0.66693,0.6203 -0.96679,0.9589 -4.22987,-4.4133 -6.83596,-10.3951 -6.83594,-16.9824 -3e-5,-13.5519 11.00869,-24.5605 24.56055,-24.5605 z m -4.45703,16.6679 c 0.0117,0.081 -0.036,0.1817 -0.0137,0.2637 l 0.36328,1.3262 -0.9414,0.2519 c 0.10506,3.5919 0.21558,7.2451 -0.2168,11.4629 l -0.10937,1.0664 -1.06055,0.1485 c -0.38447,0.053 -0.43295,0.076 -0.64844,0.1133 -0.0242,1.1085 -0.0363,2.244 0.22852,3.8007 l 0.0449,0.2657 -0.0586,0.2636 c -0.43276,1.9237 -1.2194,3.8009 -2.03125,5.6387 l -0.2461,0.5566 -0.57617,0.1895 c -0.44207,0.1453 -1.77058,0.892 -3.00781,1.918 -1.05275,0.873 -2.08262,1.9627 -2.80274,3.0449 4.41422,3.0702 9.76815,4.877 15.53321,4.8769 14.63962,10e-5 26.64361,-11.6243 27.26562,-26.1152 l -7.88867,-2.1914 -0.1543,-0.092 c -1.21735,-0.7205 -3.29999,-1.0898 -5.33398,-1.7519 l -0.0293,-0.01 -0.0273,-0.012 c -1.66859,-0.6269 -3.57503,-1.5273 -4.12696,-1.5703 l -0.46484,-0.037 -0.3457,-0.3125 c -0.40067,-0.3627 -2.55146,-1.2818 -4.26758,-1.6757 l -0.002,0 c -1.90702,-0.4377 -3.33976,-0.7769 -5.50586,-0.8379 l -0.23243,-0.01 -0.21874,-0.084 c -0.80627,-0.3094 -1.972,-0.3933 -3.125,-0.4883 z m 3.49023,2.9766 c 2.88271,0.1611 5.82997,0.7166 8.41406,2.041 -0.19241,-0.2302 0.91173,1.1211 1.53125,0.7754 0.98974,0 2.40602,0.9724 3.88867,1.418 1.9553,0.7178 4.0473,1.1059 5.92579,1.9961 l 5.5957,1.5644 c -1.42864,12.1977 -11.81107,21.6818 -24.38867,21.6817 -4.21692,0 -8.18688,-1.0666 -11.65625,-2.9434 0.56815,-0.553 1.20101,-1.0377 1.93359,-1.4062 0.73485,-0.7022 2.12085,-0.7168 2.61328,-1.6133 1.09306,-2.5391 2.32831,-5.1077 2.72461,-7.8555 -0.21445,-1.0057 -0.51827,-2.3395 0.92188,-2.1133 0.64816,-0.2028 0.25479,-1.4058 0.48437,-2.0117 0.42196,-3.5956 0.47146,-7.2228 0.36133,-10.8379 0.71747,-0.1179 1.44585,-0.4092 1.65039,-0.6953 z m 28.20703,3.2656 c 0.0329,0.5466 0.0547,1.0957 0.0547,1.6504 0,-0.5547 -0.0218,-1.1037 -0.0547,-1.6504 z m -44.9375,22.3946 c 0.33131,0.2831 0.66901,0.5588 1.01367,0.8261 -0.34459,-0.2677 -0.68212,-0.5428 -1.01367,-0.8261 z m 1.07813,0.8769 c 0.34595,0.2667 0.6979,0.5252 1.05664,0.7754 -0.35843,-0.25 -0.71129,-0.5087 -1.05664,-0.7754 z"
           style="color:#000000;font-style:normal;font-variant:normal;font-weight:normal;font-stretch:normal;font-size:medium;line-height:normal;font-family:sans-serif;text-indent:0;text-align:start;text-decoration:none;text-decoration-line:none;text-decoration-style:solid;text-decoration-color:#000000;letter-spacing:normal;word-spacing:normal;text-transform:none;direction:ltr;block-progression:tb;writing-mode:lr-tb;baseline-shift:baseline;text-anchor:start;white-space:normal;clip-rule:nonzero;display:inline;overflow:visible;visibility:visible;opacity:1;isolation:auto;mix-blend-mode:normal;color-interpolation:sRGB;color-interpolation-filters:linearRGB;solid-color:#000000;solid-opacity:1;fill:#000000;fill-opacity:1;fill-rule:nonzero;stroke:none;stroke-width:4.80000019;stroke-linecap:butt;stroke-linejoin:miter;stroke-miterlimit:4;stroke-dasharray:none;stroke-dashoffset:0;stroke-opacity:1;color-rendering:auto;image-rendering:auto;shape-rendering:auto;text-rendering:auto;enable-background:accumulate" />
        <path
           sodipodi:nodetypes="cccccccccccccccsccccccccsccccccccccccccccc"
           style="color:#000000;font-style:normal;font-variant:normal;font-weight:normal;font-stretch:normal;font-size:medium;line-height:normal;font-family:sans-serif;text-indent:0;text-align:start;text-decoration:none;text-decoration-line:none;text-decoration-style:solid;text-decoration-color:#000000;letter-spacing:normal;word-spacing:normal;text-transform:none;direction:ltr;block-progression:tb;writing-mode:lr-tb;baseline-shift:baseline;text-anchor:start;white-space:normal;clip-rule:nonzero;display:inline;overflow:visible;visibility:visible;opacity:1;isolation:auto;mix-blend-mode:normal;color-interpolation:sRGB;color-interpolation-filters:linearRGB;solid-color:#000000;solid-opacity:1;fill:#0000ff;fill-opacity:1;fill-rule:nonzero;stroke:none;stroke-width:4.80000019;stroke-linecap:butt;stroke-linejoin:miter;stroke-miterlimit:4;stroke-dasharray:none;stroke-dashoffset:0;stroke-opacity:1;color-rendering:auto;image-rendering:auto;shape-rendering:auto;text-rendering:auto;enable-background:accumulate"
           d="m 464.56641,1401.2969 c 11.82581,0 21.71341,8.3847 24.04101,19.5254 -1.1796,-0.3292 -2.35391,-0.6661 -3.5039,-1.0469 -2.37615,-1.0582 -4.97882,-1.4553 -7.31836,-2.6094 -2.28808,-0.4919 -4.13384,-2.0374 -6.4375,-2.5332 -2.3511,-0.6875 -4.81235,-0.9036 -7.21289,-1.2441 -0.87478,-0.4365 -2.49411,-0.2539 -3.06055,-0.7871 l -5.14258,0.084 c -0.3026,1.3208 -0.81923,2.6561 -0.86133,3.9786 -0.60943,0.5558 -0.89423,1.2193 -0.71093,2.041 0.0949,3.0902 0.0623,6.1842 -0.0996,9.2715 -0.5658,0.2973 -1.88323,-0.077 -1.75977,0.8359 -0.26365,2.4194 -0.34379,4.8642 0.0801,7.2734 -0.19586,3.0254 -2.60585,4.2301 -4.77149,5.795 -0.34902,0.2959 -0.66693,0.6203 -0.96679,0.9589 -4.22987,-4.4133 -6.83596,-10.3951 -6.83594,-16.9824 -3e-5,-13.5519 11.00869,-24.5605 24.56055,-24.5605 z m -0.9668,19.6445 c 2.88271,0.1611 5.82997,0.7166 8.41406,2.041 -0.19241,-0.2302 0.91173,1.1211 1.53125,0.7754 0.98974,0 2.40602,0.9724 3.88867,1.418 1.9553,0.7178 4.0473,1.1059 5.92579,1.9961 l 5.5957,1.5644 c -1.42864,12.1977 -11.81107,21.6818 -24.38867,21.6817 -4.21692,0 -8.18688,-1.0666 -11.65625,-2.9434 0.56815,-0.553 1.20101,-1.0377 1.93359,-1.4062 0.73485,-0.7022 2.12085,-0.7168 2.61328,-1.6133 1.09306,-2.5391 2.32831,-5.1077 2.72461,-7.8555 -0.21445,-1.0057 -0.51827,-2.3395 0.92188,-2.1133 0.64816,-0.2028 0.25479,-1.4058 0.48437,-2.0117 0.42196,-3.5956 0.47146,-7.2228 0.36133,-10.8379 0.71747,-0.1179 1.44585,-0.4092 1.65039,-0.6953 z m 28.20703,3.2656 c 0.0329,0.5466 0.0547,1.0957 0.0547,1.6504 0,-0.5547 -0.0218,-1.1037 -0.0547,-1.6504 z m -44.9375,22.3946 c 0.33131,0.2831 0.66901,0.5588 1.01367,0.8261 -0.34459,-0.2677 -0.68212,-0.5428 -1.01367,-0.8261 z m 1.07813,0.8769 c 0.34595,0.2667 0.6979,0.5252 1.05664,0.7754 -0.35843,-0.25 -0.71129,-0.5087 -1.05664,-0.7754 z"
           id="path4682"
           inkscape:connector-curvature="0" />
      </g>
    </g>
  </g>
  <g
     inkscape:groupmode="layer"
     id="layer2"
     inkscape:label="Somatic"
     style="display:none"
     sodipodi:insensitive="true">
    <g
       transform="translate(-221.17596,-658.32403)"
       style="display:inline"
       id="g5984">
      <g
         transform="matrix(1.0990781,0,0,1.0990781,-259.41953,-878.80375)"
         id="g4625">
        <path
           sodipodi:nodetypes="sssss"
           inkscape:connector-curvature="0"
           id="path4627"
           d="m 464.56714,1399.929 c -14.29364,0 -25.92811,11.6344 -25.92808,25.9281 -3e-5,14.2936 11.63444,25.9281 25.92808,25.928 14.29364,10e-5 25.92811,-11.6344 25.92805,-25.928 6e-5,-14.2937 -11.63441,-25.9281 -25.92805,-25.9281 z"
           style="color:#000000;font-style:normal;font-variant:normal;font-weight:normal;font-stretch:normal;font-size:medium;line-height:normal;font-family:sans-serif;text-indent:0;text-align:start;text-decoration:none;text-decoration-line:none;text-decoration-style:solid;text-decoration-color:#000000;letter-spacing:normal;word-spacing:normal;text-transform:none;direction:ltr;block-progression:tb;writing-mode:lr-tb;baseline-shift:baseline;text-anchor:start;white-space:normal;clip-rule:nonzero;display:inline;overflow:visible;visibility:visible;opacity:1;isolation:auto;mix-blend-mode:normal;color-interpolation:sRGB;color-interpolation-filters:linearRGB;solid-color:#000000;solid-opacity:1;fill:#ffffff;fill-opacity:1;fill-rule:nonzero;stroke:#ffffff;stroke-width:2.73399997;stroke-linecap:butt;stroke-linejoin:miter;stroke-miterlimit:4;stroke-dasharray:none;stroke-dashoffset:0;stroke-opacity:1;color-rendering:auto;image-rendering:auto;shape-rendering:auto;text-rendering:auto;enable-background:accumulate"
           inkscape:export-xdpi="90"
           inkscape:export-ydpi="90" />
        <path
           inkscape:connector-curvature="0"
           id="path4629"
           d="m 464.56641,1398.5625 c -15.03543,0 -27.29496,12.2594 -27.29493,27.2949 -10e-6,8.2882 3.72971,15.7277 9.5918,20.7403 0.90908,-1.3295 2.06694,-2.5094 3.22852,-3.4727 1.16431,-0.9655 2.19547,-1.5205 3.18554,-1.9668 0.72082,-1.648 1.36938,-3.2528 1.71289,-4.7266 -0.29892,-1.9389 -0.41637,-3.6502 -0.29492,-5.0859 l 0.0859,-1.0254 1.00977,-0.2012 c 0.19694,-0.039 0.6096,-0.1014 0.83984,-0.1464 0.32483,-3.9295 0.23658,-7.4621 0.13476,-11.0645 l -0.0137,-0.5039 0.31641,-0.3945 c 0.13868,-0.1715 0.27709,-0.2044 0.42187,-0.3047 0.0117,-0.5656 -0.0782,-1.1921 0.041,-1.6465 l 0.26172,-1.002 1.03515,-0.017 0,0 c 2.11618,-0.037 3.79272,0.2951 5.20313,0.8125 2.25875,0.093 3.95832,0.4486 5.77344,0.8653 1.80548,0.4143 3.69875,1.0208 5.07617,2.0761 1.66718,0.2557 3.20789,1.1444 4.45508,1.6172 1.6675,0.5381 3.79169,0.8479 5.65234,1.8867 l 6.81836,1.8946 c -0.86548,-14.2647 -12.76412,-25.6309 -27.24023,-25.6309 z m 0,2.7344 c 11.82581,0 21.71341,8.3847 24.04101,19.5254 -1.1796,-0.3292 -2.35391,-0.6661 -3.5039,-1.0469 -2.37615,-1.0582 -4.97882,-1.4553 -7.31836,-2.6094 -2.28808,-0.4919 -4.13384,-2.0374 -6.4375,-2.5332 -2.3511,-0.6875 -4.81235,-0.9036 -7.21289,-1.2441 -0.87478,-0.4365 -2.49411,-0.2539 -3.06055,-0.7871 l -5.14258,0.084 c -0.3026,1.3208 -0.81923,2.6561 -0.86133,3.9786 -0.60943,0.5558 -0.89423,1.2193 -0.71093,2.041 0.0949,3.0902 0.0623,6.1842 -0.0996,9.2715 -0.5658,0.2973 -1.88323,-0.077 -1.75977,0.8359 -0.26365,2.4194 -0.34379,4.8642 0.0801,7.2734 -0.19586,3.0254 -2.60585,4.2301 -4.77149,5.795 -0.34902,0.2959 -0.66693,0.6203 -0.96679,0.9589 -4.22987,-4.4133 -6.83596,-10.3951 -6.83594,-16.9824 -3e-5,-13.5519 11.00869,-24.5605 24.56055,-24.5605 z m -4.45703,16.6679 c 0.0117,0.081 -0.036,0.1817 -0.0137,0.2637 l 0.36328,1.3262 -0.9414,0.2519 c 0.10506,3.5919 0.21558,7.2451 -0.2168,11.4629 l -0.10937,1.0664 -1.06055,0.1485 c -0.38447,0.053 -0.43295,0.076 -0.64844,0.1133 -0.0242,1.1085 -0.0363,2.244 0.22852,3.8007 l 0.0449,0.2657 -0.0586,0.2636 c -0.43276,1.9237 -1.2194,3.8009 -2.03125,5.6387 l -0.2461,0.5566 -0.57617,0.1895 c -0.44207,0.1453 -1.77058,0.892 -3.00781,1.918 -1.05275,0.873 -2.08262,1.9627 -2.80274,3.0449 4.41422,3.0702 9.76815,4.877 15.53321,4.8769 14.63962,10e-5 26.64361,-11.6243 27.26562,-26.1152 l -7.88867,-2.1914 -0.1543,-0.092 c -1.21735,-0.7205 -3.29999,-1.0898 -5.33398,-1.7519 l -0.0293,-0.01 -0.0273,-0.012 c -1.66859,-0.6269 -3.57503,-1.5273 -4.12696,-1.5703 l -0.46484,-0.037 -0.3457,-0.3125 c -0.40067,-0.3627 -2.55146,-1.2818 -4.26758,-1.6757 l -0.002,0 c -1.90702,-0.4377 -3.33976,-0.7769 -5.50586,-0.8379 l -0.23243,-0.01 -0.21874,-0.084 c -0.80627,-0.3094 -1.972,-0.3933 -3.125,-0.4883 z m 3.49023,2.9766 c 2.88271,0.1611 5.82997,0.7166 8.41406,2.041 -0.19241,-0.2302 0.91173,1.1211 1.53125,0.7754 0.98974,0 2.40602,0.9724 3.88867,1.418 1.9553,0.7178 4.0473,1.1059 5.92579,1.9961 l 5.5957,1.5644 c -1.42864,12.1977 -11.81107,21.6818 -24.38867,21.6817 -4.21692,0 -8.18688,-1.0666 -11.65625,-2.9434 0.56815,-0.553 1.20101,-1.0377 1.93359,-1.4062 0.73485,-0.7022 2.12085,-0.7168 2.61328,-1.6133 1.09306,-2.5391 2.32831,-5.1077 2.72461,-7.8555 -0.21445,-1.0057 -0.51827,-2.3395 0.92188,-2.1133 0.64816,-0.2028 0.25479,-1.4058 0.48437,-2.0117 0.42196,-3.5956 0.47146,-7.2228 0.36133,-10.8379 0.71747,-0.1179 1.44585,-0.4092 1.65039,-0.6953 z m 28.20703,3.2656 c 0.0329,0.5466 0.0547,1.0957 0.0547,1.6504 0,-0.5547 -0.0218,-1.1037 -0.0547,-1.6504 z m -44.9375,22.3946 c 0.33131,0.2831 0.66901,0.5588 1.01367,0.8261 -0.34459,-0.2677 -0.68212,-0.5428 -1.01367,-0.8261 z m 1.07813,0.8769 c 0.34595,0.2667 0.6979,0.5252 1.05664,0.7754 -0.35843,-0.25 -0.71129,-0.5087 -1.05664,-0.7754 z"
           style="color:#000000;font-style:normal;font-variant:normal;font-weight:normal;font-stretch:normal;font-size:medium;line-height:normal;font-family:sans-serif;text-indent:0;text-align:start;text-decoration:none;text-decoration-line:none;text-decoration-style:solid;text-decoration-color:#000000;letter-spacing:normal;word-spacing:normal;text-transform:none;direction:ltr;block-progression:tb;writing-mode:lr-tb;baseline-shift:baseline;text-anchor:start;white-space:normal;clip-rule:nonzero;display:inline;overflow:visible;visibility:visible;opacity:1;isolation:auto;mix-blend-mode:normal;color-interpolation:sRGB;color-interpolation-filters:linearRGB;solid-color:#000000;solid-opacity:1;fill:#000000;fill-opacity:1;fill-rule:nonzero;stroke:none;stroke-width:4.80000019;stroke-linecap:butt;stroke-linejoin:miter;stroke-miterlimit:4;stroke-dasharray:none;stroke-dashoffset:0;stroke-opacity:1;color-rendering:auto;image-rendering:auto;shape-rendering:auto;text-rendering:auto;enable-background:accumulate" />
        <path
           sodipodi:nodetypes="cccccccccccccccsccccccccsccccccccccccccccc"
           style="color:#000000;font-style:normal;font-variant:normal;font-weight:normal;font-stretch:normal;font-size:medium;line-height:normal;font-family:sans-serif;text-indent:0;text-align:start;text-decoration:none;text-decoration-line:none;text-decoration-style:solid;text-decoration-color:#000000;letter-spacing:normal;word-spacing:normal;text-transform:none;direction:ltr;block-progression:tb;writing-mode:lr-tb;baseline-shift:baseline;text-anchor:start;white-space:normal;clip-rule:nonzero;display:inline;overflow:visible;visibility:visible;opacity:1;isolation:auto;mix-blend-mode:normal;color-interpolation:sRGB;color-interpolation-filters:linearRGB;solid-color:#000000;solid-opacity:1;fill:#ee1212;fill-opacity:1;fill-rule:nonzero;stroke:none;stroke-width:4.80000019;stroke-linecap:butt;stroke-linejoin:miter;stroke-miterlimit:4;stroke-dasharray:none;stroke-dashoffset:0;stroke-opacity:1;color-rendering:auto;image-rendering:auto;shape-rendering:auto;text-rendering:auto;enable-background:accumulate"
           d="m 464.56641,1401.2969 c 11.82581,0 21.71341,8.3847 24.04101,19.5254 -1.1796,-0.3292 -2.35391,-0.6661 -3.5039,-1.0469 -2.37615,-1.0582 -4.97882,-1.4553 -7.31836,-2.6094 -2.28808,-0.4919 -4.13384,-2.0374 -6.4375,-2.5332 -2.3511,-0.6875 -4.81235,-0.9036 -7.21289,-1.2441 -0.87478,-0.4365 -2.49411,-0.2539 -3.06055,-0.7871 l -5.14258,0.084 c -0.3026,1.3208 -0.81923,2.6561 -0.86133,3.9786 -0.60943,0.5558 -0.89423,1.2193 -0.71093,2.041 0.0949,3.0902 0.0623,6.1842 -0.0996,9.2715 -0.5658,0.2973 -1.88323,-0.077 -1.75977,0.8359 -0.26365,2.4194 -0.34379,4.8642 0.0801,7.2734 -0.19586,3.0254 -2.60585,4.2301 -4.77149,5.795 -0.34902,0.2959 -0.66693,0.6203 -0.96679,0.9589 -4.22987,-4.4133 -6.83596,-10.3951 -6.83594,-16.9824 -3e-5,-13.5519 11.00869,-24.5605 24.56055,-24.5605 z m -0.9668,19.6445 c 2.88271,0.1611 5.82997,0.7166 8.41406,2.041 -0.19241,-0.2302 0.91173,1.1211 1.53125,0.7754 0.98974,0 2.40602,0.9724 3.88867,1.418 1.9553,0.7178 4.0473,1.1059 5.92579,1.9961 l 5.5957,1.5644 c -1.42864,12.1977 -11.81107,21.6818 -24.38867,21.6817 -4.21692,0 -8.18688,-1.0666 -11.65625,-2.9434 0.56815,-0.553 1.20101,-1.0377 1.93359,-1.4062 0.73485,-0.7022 2.12085,-0.7168 2.61328,-1.6133 1.09306,-2.5391 2.32831,-5.1077 2.72461,-7.8555 -0.21445,-1.0057 -0.51827,-2.3395 0.92188,-2.1133 0.64816,-0.2028 0.25479,-1.4058 0.48437,-2.0117 0.42196,-3.5956 0.47146,-7.2228 0.36133,-10.8379 0.71747,-0.1179 1.44585,-0.4092 1.65039,-0.6953 z m 28.20703,3.2656 c 0.0329,0.5466 0.0547,1.0957 0.0547,1.6504 0,-0.5547 -0.0218,-1.1037 -0.0547,-1.6504 z m -44.9375,22.3946 c 0.33131,0.2831 0.66901,0.5588 1.01367,0.8261 -0.34459,-0.2677 -0.68212,-0.5428 -1.01367,-0.8261 z m 1.07813,0.8769 c 0.34595,0.2667 0.6979,0.5252 1.05664,0.7754 -0.35843,-0.25 -0.71129,-0.5087 -1.05664,-0.7754 z"
           id="path4631"
           inkscape:connector-curvature="0" />
      </g>
      <flowRoot
         transform="matrix(1.2211979,0,0,1.2211979,216.10675,658.32412)"
         xml:space="preserve"
         id="flowRoot4633"
         style="font-style:normal;font-variant:normal;font-weight:normal;font-stretch:normal;font-size:22.14787674px;line-height:125%;font-family:Chandas;-inkscape-font-specification:Chandas;letter-spacing:0px;word-spacing:0px;fill:#000000;fill-opacity:1;stroke:none;stroke-width:1px;stroke-linecap:butt;stroke-linejoin:miter;stroke-opacity:1"><flowRegion
           id="flowRegion4635"><rect
             id="rect4637"
             width="260.14963"
             height="161.71466"
             x="58.234299"
             y="-2.6528666"
             style="font-style:normal;font-variant:normal;font-weight:normal;font-stretch:normal;font-size:22.14787674px;font-family:Chandas;-inkscape-font-specification:Chandas" /></flowRegion><flowPara
           id="flowPara4639"
           style="font-style:normal;font-variant:normal;font-weight:normal;font-stretch:normal;font-family:'Eurostile Extended';-inkscape-font-specification:'Eurostile Extended';text-align:start;text-anchor:start">Sarek</flowPara><flowPara
           id="flowPara4641"
           style="font-style:normal;font-variant:normal;font-weight:normal;font-stretch:normal;font-family:'Eurostile Extended';-inkscape-font-specification:'Eurostile Extended';text-align:start;text-anchor:start">Somatic</flowPara></flowRoot>    </g>
  </g>
  <g
     inkscape:groupmode="layer"
     id="layer3"
     inkscape:label="Exome"
     sodipodi:insensitive="true"
     style="display:none">
    <g
       transform="translate(-221.17596,-658.32403)"
       style="display:inline"
       id="g6005">
      <g
         transform="matrix(1.0990781,0,0,1.0990781,-259.41954,-878.80375)"
         id="g4646">
        <path
           sodipodi:nodetypes="sssss"
           inkscape:connector-curvature="0"
           id="path4648"
           d="m 464.56714,1399.929 c -14.29364,0 -25.92811,11.6344 -25.92808,25.9281 -3e-5,14.2936 11.63444,25.9281 25.92808,25.928 14.29364,10e-5 25.92811,-11.6344 25.92805,-25.928 6e-5,-14.2937 -11.63441,-25.9281 -25.92805,-25.9281 z"
           style="color:#000000;font-style:normal;font-variant:normal;font-weight:normal;font-stretch:normal;font-size:medium;line-height:normal;font-family:sans-serif;text-indent:0;text-align:start;text-decoration:none;text-decoration-line:none;text-decoration-style:solid;text-decoration-color:#000000;letter-spacing:normal;word-spacing:normal;text-transform:none;direction:ltr;block-progression:tb;writing-mode:lr-tb;baseline-shift:baseline;text-anchor:start;white-space:normal;clip-rule:nonzero;display:inline;overflow:visible;visibility:visible;opacity:1;isolation:auto;mix-blend-mode:normal;color-interpolation:sRGB;color-interpolation-filters:linearRGB;solid-color:#000000;solid-opacity:1;fill:#ffffff;fill-opacity:1;fill-rule:nonzero;stroke:#ffffff;stroke-width:2.73399997;stroke-linecap:butt;stroke-linejoin:miter;stroke-miterlimit:4;stroke-dasharray:none;stroke-dashoffset:0;stroke-opacity:1;color-rendering:auto;image-rendering:auto;shape-rendering:auto;text-rendering:auto;enable-background:accumulate"
           inkscape:export-xdpi="90"
           inkscape:export-ydpi="90" />
        <path
           inkscape:connector-curvature="0"
           id="path4650"
           d="m 464.56641,1398.5625 c -15.03543,0 -27.29496,12.2594 -27.29493,27.2949 -10e-6,8.2882 3.72971,15.7277 9.5918,20.7403 0.90908,-1.3295 2.06694,-2.5094 3.22852,-3.4727 1.16431,-0.9655 2.19547,-1.5205 3.18554,-1.9668 0.72082,-1.648 1.36938,-3.2528 1.71289,-4.7266 -0.29892,-1.9389 -0.41637,-3.6502 -0.29492,-5.0859 l 0.0859,-1.0254 1.00977,-0.2012 c 0.19694,-0.039 0.6096,-0.1014 0.83984,-0.1464 0.32483,-3.9295 0.23658,-7.4621 0.13476,-11.0645 l -0.0137,-0.5039 0.31641,-0.3945 c 0.13868,-0.1715 0.27709,-0.2044 0.42187,-0.3047 0.0117,-0.5656 -0.0782,-1.1921 0.041,-1.6465 l 0.26172,-1.002 1.03515,-0.017 0,0 c 2.11618,-0.037 3.79272,0.2951 5.20313,0.8125 2.25875,0.093 3.95832,0.4486 5.77344,0.8653 1.80548,0.4143 3.69875,1.0208 5.07617,2.0761 1.66718,0.2557 3.20789,1.1444 4.45508,1.6172 1.6675,0.5381 3.79169,0.8479 5.65234,1.8867 l 6.81836,1.8946 c -0.86548,-14.2647 -12.76412,-25.6309 -27.24023,-25.6309 z m 0,2.7344 c 11.82581,0 21.71341,8.3847 24.04101,19.5254 -1.1796,-0.3292 -2.35391,-0.6661 -3.5039,-1.0469 -2.37615,-1.0582 -4.97882,-1.4553 -7.31836,-2.6094 -2.28808,-0.4919 -4.13384,-2.0374 -6.4375,-2.5332 -2.3511,-0.6875 -4.81235,-0.9036 -7.21289,-1.2441 -0.87478,-0.4365 -2.49411,-0.2539 -3.06055,-0.7871 l -5.14258,0.084 c -0.3026,1.3208 -0.81923,2.6561 -0.86133,3.9786 -0.60943,0.5558 -0.89423,1.2193 -0.71093,2.041 0.0949,3.0902 0.0623,6.1842 -0.0996,9.2715 -0.5658,0.2973 -1.88323,-0.077 -1.75977,0.8359 -0.26365,2.4194 -0.34379,4.8642 0.0801,7.2734 -0.19586,3.0254 -2.60585,4.2301 -4.77149,5.795 -0.34902,0.2959 -0.66693,0.6203 -0.96679,0.9589 -4.22987,-4.4133 -6.83596,-10.3951 -6.83594,-16.9824 -3e-5,-13.5519 11.00869,-24.5605 24.56055,-24.5605 z m -4.45703,16.6679 c 0.0117,0.081 -0.036,0.1817 -0.0137,0.2637 l 0.36328,1.3262 -0.9414,0.2519 c 0.10506,3.5919 0.21558,7.2451 -0.2168,11.4629 l -0.10937,1.0664 -1.06055,0.1485 c -0.38447,0.053 -0.43295,0.076 -0.64844,0.1133 -0.0242,1.1085 -0.0363,2.244 0.22852,3.8007 l 0.0449,0.2657 -0.0586,0.2636 c -0.43276,1.9237 -1.2194,3.8009 -2.03125,5.6387 l -0.2461,0.5566 -0.57617,0.1895 c -0.44207,0.1453 -1.77058,0.892 -3.00781,1.918 -1.05275,0.873 -2.08262,1.9627 -2.80274,3.0449 4.41422,3.0702 9.76815,4.877 15.53321,4.8769 14.63962,10e-5 26.64361,-11.6243 27.26562,-26.1152 l -7.88867,-2.1914 -0.1543,-0.092 c -1.21735,-0.7205 -3.29999,-1.0898 -5.33398,-1.7519 l -0.0293,-0.01 -0.0273,-0.012 c -1.66859,-0.6269 -3.57503,-1.5273 -4.12696,-1.5703 l -0.46484,-0.037 -0.3457,-0.3125 c -0.40067,-0.3627 -2.55146,-1.2818 -4.26758,-1.6757 l -0.002,0 c -1.90702,-0.4377 -3.33976,-0.7769 -5.50586,-0.8379 l -0.23243,-0.01 -0.21874,-0.084 c -0.80627,-0.3094 -1.972,-0.3933 -3.125,-0.4883 z m 3.49023,2.9766 c 2.88271,0.1611 5.82997,0.7166 8.41406,2.041 -0.19241,-0.2302 0.91173,1.1211 1.53125,0.7754 0.98974,0 2.40602,0.9724 3.88867,1.418 1.9553,0.7178 4.0473,1.1059 5.92579,1.9961 l 5.5957,1.5644 c -1.42864,12.1977 -11.81107,21.6818 -24.38867,21.6817 -4.21692,0 -8.18688,-1.0666 -11.65625,-2.9434 0.56815,-0.553 1.20101,-1.0377 1.93359,-1.4062 0.73485,-0.7022 2.12085,-0.7168 2.61328,-1.6133 1.09306,-2.5391 2.32831,-5.1077 2.72461,-7.8555 -0.21445,-1.0057 -0.51827,-2.3395 0.92188,-2.1133 0.64816,-0.2028 0.25479,-1.4058 0.48437,-2.0117 0.42196,-3.5956 0.47146,-7.2228 0.36133,-10.8379 0.71747,-0.1179 1.44585,-0.4092 1.65039,-0.6953 z m 28.20703,3.2656 c 0.0329,0.5466 0.0547,1.0957 0.0547,1.6504 0,-0.5547 -0.0218,-1.1037 -0.0547,-1.6504 z m -44.9375,22.3946 c 0.33131,0.2831 0.66901,0.5588 1.01367,0.8261 -0.34459,-0.2677 -0.68212,-0.5428 -1.01367,-0.8261 z m 1.07813,0.8769 c 0.34595,0.2667 0.6979,0.5252 1.05664,0.7754 -0.35843,-0.25 -0.71129,-0.5087 -1.05664,-0.7754 z"
           style="color:#000000;font-style:normal;font-variant:normal;font-weight:normal;font-stretch:normal;font-size:medium;line-height:normal;font-family:sans-serif;text-indent:0;text-align:start;text-decoration:none;text-decoration-line:none;text-decoration-style:solid;text-decoration-color:#000000;letter-spacing:normal;word-spacing:normal;text-transform:none;direction:ltr;block-progression:tb;writing-mode:lr-tb;baseline-shift:baseline;text-anchor:start;white-space:normal;clip-rule:nonzero;display:inline;overflow:visible;visibility:visible;opacity:1;isolation:auto;mix-blend-mode:normal;color-interpolation:sRGB;color-interpolation-filters:linearRGB;solid-color:#000000;solid-opacity:1;fill:#000000;fill-opacity:1;fill-rule:nonzero;stroke:none;stroke-width:4.80000019;stroke-linecap:butt;stroke-linejoin:miter;stroke-miterlimit:4;stroke-dasharray:none;stroke-dashoffset:0;stroke-opacity:1;color-rendering:auto;image-rendering:auto;shape-rendering:auto;text-rendering:auto;enable-background:accumulate" />
        <path
           sodipodi:nodetypes="cccccccccccccccsccccccccsccccccccccccccccc"
           style="color:#000000;font-style:normal;font-variant:normal;font-weight:normal;font-stretch:normal;font-size:medium;line-height:normal;font-family:sans-serif;text-indent:0;text-align:start;text-decoration:none;text-decoration-line:none;text-decoration-style:solid;text-decoration-color:#000000;letter-spacing:normal;word-spacing:normal;text-transform:none;direction:ltr;block-progression:tb;writing-mode:lr-tb;baseline-shift:baseline;text-anchor:start;white-space:normal;clip-rule:nonzero;display:inline;overflow:visible;visibility:visible;opacity:1;isolation:auto;mix-blend-mode:normal;color-interpolation:sRGB;color-interpolation-filters:linearRGB;solid-color:#000000;solid-opacity:1;fill:#fcbd11;fill-opacity:1;fill-rule:nonzero;stroke:none;stroke-width:4.80000019;stroke-linecap:butt;stroke-linejoin:miter;stroke-miterlimit:4;stroke-dasharray:none;stroke-dashoffset:0;stroke-opacity:1;color-rendering:auto;image-rendering:auto;shape-rendering:auto;text-rendering:auto;enable-background:accumulate"
           d="m 464.56641,1401.2969 c 11.82581,0 21.71341,8.3847 24.04101,19.5254 -1.1796,-0.3292 -2.35391,-0.6661 -3.5039,-1.0469 -2.37615,-1.0582 -4.97882,-1.4553 -7.31836,-2.6094 -2.28808,-0.4919 -4.13384,-2.0374 -6.4375,-2.5332 -2.3511,-0.6875 -4.81235,-0.9036 -7.21289,-1.2441 -0.87478,-0.4365 -2.49411,-0.2539 -3.06055,-0.7871 l -5.14258,0.084 c -0.3026,1.3208 -0.81923,2.6561 -0.86133,3.9786 -0.60943,0.5558 -0.89423,1.2193 -0.71093,2.041 0.0949,3.0902 0.0623,6.1842 -0.0996,9.2715 -0.5658,0.2973 -1.88323,-0.077 -1.75977,0.8359 -0.26365,2.4194 -0.34379,4.8642 0.0801,7.2734 -0.19586,3.0254 -2.60585,4.2301 -4.77149,5.795 -0.34902,0.2959 -0.66693,0.6203 -0.96679,0.9589 -4.22987,-4.4133 -6.83596,-10.3951 -6.83594,-16.9824 -3e-5,-13.5519 11.00869,-24.5605 24.56055,-24.5605 z m -0.9668,19.6445 c 2.88271,0.1611 5.82997,0.7166 8.41406,2.041 -0.19241,-0.2302 0.91173,1.1211 1.53125,0.7754 0.98974,0 2.40602,0.9724 3.88867,1.418 1.9553,0.7178 4.0473,1.1059 5.92579,1.9961 l 5.5957,1.5644 c -1.42864,12.1977 -11.81107,21.6818 -24.38867,21.6817 -4.21692,0 -8.18688,-1.0666 -11.65625,-2.9434 0.56815,-0.553 1.20101,-1.0377 1.93359,-1.4062 0.73485,-0.7022 2.12085,-0.7168 2.61328,-1.6133 1.09306,-2.5391 2.32831,-5.1077 2.72461,-7.8555 -0.21445,-1.0057 -0.51827,-2.3395 0.92188,-2.1133 0.64816,-0.2028 0.25479,-1.4058 0.48437,-2.0117 0.42196,-3.5956 0.47146,-7.2228 0.36133,-10.8379 0.71747,-0.1179 1.44585,-0.4092 1.65039,-0.6953 z m 28.20703,3.2656 c 0.0329,0.5466 0.0547,1.0957 0.0547,1.6504 0,-0.5547 -0.0218,-1.1037 -0.0547,-1.6504 z m -44.9375,22.3946 c 0.33131,0.2831 0.66901,0.5588 1.01367,0.8261 -0.34459,-0.2677 -0.68212,-0.5428 -1.01367,-0.8261 z m 1.07813,0.8769 c 0.34595,0.2667 0.6979,0.5252 1.05664,0.7754 -0.35843,-0.25 -0.71129,-0.5087 -1.05664,-0.7754 z"
           id="path4652"
           inkscape:connector-curvature="0" />
      </g>
      <flowRoot
         transform="matrix(1.0753408,0,0,1.0753408,-21.732809,-54.119127)"
         style="font-style:normal;font-variant:normal;font-weight:normal;font-stretch:normal;font-size:25.15196991px;line-height:125%;font-family:Chandas;-inkscape-font-specification:Chandas;letter-spacing:0px;word-spacing:0px;fill:#000000;fill-opacity:1;stroke:none;stroke-width:1px;stroke-linecap:butt;stroke-linejoin:miter;stroke-opacity:1"
         id="flowRoot4654"
         xml:space="preserve"><flowRegion
           id="flowRegion4656"><rect
             style="font-style:normal;font-variant:normal;font-weight:normal;font-stretch:normal;font-size:25.15196991px;font-family:Chandas;-inkscape-font-specification:Chandas"
             y="659.5152"
             x="287.3089"
             height="183.64931"
             width="295.43579"
             id="rect4658" /></flowRegion><flowPara
           style="font-style:normal;font-variant:normal;font-weight:normal;font-stretch:normal;font-family:'Eurostile Extended';-inkscape-font-specification:'Eurostile Extended';text-align:start;text-anchor:start"
           id="flowPara4660">Sarek</flowPara><flowPara
           style="font-style:normal;font-variant:normal;font-weight:normal;font-stretch:normal;font-family:'Eurostile Extended';-inkscape-font-specification:'Eurostile Extended';text-align:start;text-anchor:start"
           id="flowPara4662">Exome</flowPara></flowRoot>    </g>
  </g>
  <g
     inkscape:groupmode="layer"
     id="layer4"
     inkscape:label="Sarek"
     style="display:none"
     sodipodi:insensitive="true">
    <g
       transform="translate(-221.17596,-658.32403)"
       style="display:inline"
       id="g6026">
      <g
         transform="matrix(1.0990781,0,0,1.0990781,-259.41953,-878.80374)"
         id="g4687">
        <path
           sodipodi:nodetypes="sssss"
           inkscape:connector-curvature="0"
           id="path4689"
           d="m 464.56714,1399.929 c -14.29364,0 -25.92811,11.6344 -25.92808,25.9281 -3e-5,14.2936 11.63444,25.9281 25.92808,25.928 14.29364,10e-5 25.92811,-11.6344 25.92805,-25.928 6e-5,-14.2937 -11.63441,-25.9281 -25.92805,-25.9281 z"
           style="color:#000000;font-style:normal;font-variant:normal;font-weight:normal;font-stretch:normal;font-size:medium;line-height:normal;font-family:sans-serif;text-indent:0;text-align:start;text-decoration:none;text-decoration-line:none;text-decoration-style:solid;text-decoration-color:#000000;letter-spacing:normal;word-spacing:normal;text-transform:none;direction:ltr;block-progression:tb;writing-mode:lr-tb;baseline-shift:baseline;text-anchor:start;white-space:normal;clip-rule:nonzero;display:inline;overflow:visible;visibility:visible;opacity:1;isolation:auto;mix-blend-mode:normal;color-interpolation:sRGB;color-interpolation-filters:linearRGB;solid-color:#000000;solid-opacity:1;fill:#ffffff;fill-opacity:1;fill-rule:nonzero;stroke:#ffffff;stroke-width:2.73399997;stroke-linecap:butt;stroke-linejoin:miter;stroke-miterlimit:4;stroke-dasharray:none;stroke-dashoffset:0;stroke-opacity:1;color-rendering:auto;image-rendering:auto;shape-rendering:auto;text-rendering:auto;enable-background:accumulate"
           inkscape:export-xdpi="90"
           inkscape:export-ydpi="90" />
        <path
           inkscape:connector-curvature="0"
           id="path4691"
           d="m 464.56641,1398.5625 c -15.03543,0 -27.29496,12.2594 -27.29493,27.2949 -10e-6,8.2882 3.72971,15.7277 9.5918,20.7403 0.90908,-1.3295 2.06694,-2.5094 3.22852,-3.4727 1.16431,-0.9655 2.19547,-1.5205 3.18554,-1.9668 0.72082,-1.648 1.36938,-3.2528 1.71289,-4.7266 -0.29892,-1.9389 -0.41637,-3.6502 -0.29492,-5.0859 l 0.0859,-1.0254 1.00977,-0.2012 c 0.19694,-0.039 0.6096,-0.1014 0.83984,-0.1464 0.32483,-3.9295 0.23658,-7.4621 0.13476,-11.0645 l -0.0137,-0.5039 0.31641,-0.3945 c 0.13868,-0.1715 0.27709,-0.2044 0.42187,-0.3047 0.0117,-0.5656 -0.0782,-1.1921 0.041,-1.6465 l 0.26172,-1.002 1.03515,-0.017 0,0 c 2.11618,-0.037 3.79272,0.2951 5.20313,0.8125 2.25875,0.093 3.95832,0.4486 5.77344,0.8653 1.80548,0.4143 3.69875,1.0208 5.07617,2.0761 1.66718,0.2557 3.20789,1.1444 4.45508,1.6172 1.6675,0.5381 3.79169,0.8479 5.65234,1.8867 l 6.81836,1.8946 c -0.86548,-14.2647 -12.76412,-25.6309 -27.24023,-25.6309 z m 0,2.7344 c 11.82581,0 21.71341,8.3847 24.04101,19.5254 -1.1796,-0.3292 -2.35391,-0.6661 -3.5039,-1.0469 -2.37615,-1.0582 -4.97882,-1.4553 -7.31836,-2.6094 -2.28808,-0.4919 -4.13384,-2.0374 -6.4375,-2.5332 -2.3511,-0.6875 -4.81235,-0.9036 -7.21289,-1.2441 -0.87478,-0.4365 -2.49411,-0.2539 -3.06055,-0.7871 l -5.14258,0.084 c -0.3026,1.3208 -0.81923,2.6561 -0.86133,3.9786 -0.60943,0.5558 -0.89423,1.2193 -0.71093,2.041 0.0949,3.0902 0.0623,6.1842 -0.0996,9.2715 -0.5658,0.2973 -1.88323,-0.077 -1.75977,0.8359 -0.26365,2.4194 -0.34379,4.8642 0.0801,7.2734 -0.19586,3.0254 -2.60585,4.2301 -4.77149,5.795 -0.34902,0.2959 -0.66693,0.6203 -0.96679,0.9589 -4.22987,-4.4133 -6.83596,-10.3951 -6.83594,-16.9824 -3e-5,-13.5519 11.00869,-24.5605 24.56055,-24.5605 z m -4.45703,16.6679 c 0.0117,0.081 -0.036,0.1817 -0.0137,0.2637 l 0.36328,1.3262 -0.9414,0.2519 c 0.10506,3.5919 0.21558,7.2451 -0.2168,11.4629 l -0.10937,1.0664 -1.06055,0.1485 c -0.38447,0.053 -0.43295,0.076 -0.64844,0.1133 -0.0242,1.1085 -0.0363,2.244 0.22852,3.8007 l 0.0449,0.2657 -0.0586,0.2636 c -0.43276,1.9237 -1.2194,3.8009 -2.03125,5.6387 l -0.2461,0.5566 -0.57617,0.1895 c -0.44207,0.1453 -1.77058,0.892 -3.00781,1.918 -1.05275,0.873 -2.08262,1.9627 -2.80274,3.0449 4.41422,3.0702 9.76815,4.877 15.53321,4.8769 14.63962,10e-5 26.64361,-11.6243 27.26562,-26.1152 l -7.88867,-2.1914 -0.1543,-0.092 c -1.21735,-0.7205 -3.29999,-1.0898 -5.33398,-1.7519 l -0.0293,-0.01 -0.0273,-0.012 c -1.66859,-0.6269 -3.57503,-1.5273 -4.12696,-1.5703 l -0.46484,-0.037 -0.3457,-0.3125 c -0.40067,-0.3627 -2.55146,-1.2818 -4.26758,-1.6757 l -0.002,0 c -1.90702,-0.4377 -3.33976,-0.7769 -5.50586,-0.8379 l -0.23243,-0.01 -0.21874,-0.084 c -0.80627,-0.3094 -1.972,-0.3933 -3.125,-0.4883 z m 3.49023,2.9766 c 2.88271,0.1611 5.82997,0.7166 8.41406,2.041 -0.19241,-0.2302 0.91173,1.1211 1.53125,0.7754 0.98974,0 2.40602,0.9724 3.88867,1.418 1.9553,0.7178 4.0473,1.1059 5.92579,1.9961 l 5.5957,1.5644 c -1.42864,12.1977 -11.81107,21.6818 -24.38867,21.6817 -4.21692,0 -8.18688,-1.0666 -11.65625,-2.9434 0.56815,-0.553 1.20101,-1.0377 1.93359,-1.4062 0.73485,-0.7022 2.12085,-0.7168 2.61328,-1.6133 1.09306,-2.5391 2.32831,-5.1077 2.72461,-7.8555 -0.21445,-1.0057 -0.51827,-2.3395 0.92188,-2.1133 0.64816,-0.2028 0.25479,-1.4058 0.48437,-2.0117 0.42196,-3.5956 0.47146,-7.2228 0.36133,-10.8379 0.71747,-0.1179 1.44585,-0.4092 1.65039,-0.6953 z m 28.20703,3.2656 c 0.0329,0.5466 0.0547,1.0957 0.0547,1.6504 0,-0.5547 -0.0218,-1.1037 -0.0547,-1.6504 z m -44.9375,22.3946 c 0.33131,0.2831 0.66901,0.5588 1.01367,0.8261 -0.34459,-0.2677 -0.68212,-0.5428 -1.01367,-0.8261 z m 1.07813,0.8769 c 0.34595,0.2667 0.6979,0.5252 1.05664,0.7754 -0.35843,-0.25 -0.71129,-0.5087 -1.05664,-0.7754 z"
           style="color:#000000;font-style:normal;font-variant:normal;font-weight:normal;font-stretch:normal;font-size:medium;line-height:normal;font-family:sans-serif;text-indent:0;text-align:start;text-decoration:none;text-decoration-line:none;text-decoration-style:solid;text-decoration-color:#000000;letter-spacing:normal;word-spacing:normal;text-transform:none;direction:ltr;block-progression:tb;writing-mode:lr-tb;baseline-shift:baseline;text-anchor:start;white-space:normal;clip-rule:nonzero;display:inline;overflow:visible;visibility:visible;opacity:1;isolation:auto;mix-blend-mode:normal;color-interpolation:sRGB;color-interpolation-filters:linearRGB;solid-color:#000000;solid-opacity:1;fill:#000000;fill-opacity:1;fill-rule:nonzero;stroke:none;stroke-width:4.80000019;stroke-linecap:butt;stroke-linejoin:miter;stroke-miterlimit:4;stroke-dasharray:none;stroke-dashoffset:0;stroke-opacity:1;color-rendering:auto;image-rendering:auto;shape-rendering:auto;text-rendering:auto;enable-background:accumulate" />
        <path
           sodipodi:nodetypes="cccccccccccccccsccccccccsccccccccccccccccc"
           style="color:#000000;font-style:normal;font-variant:normal;font-weight:normal;font-stretch:normal;font-size:medium;line-height:normal;font-family:sans-serif;text-indent:0;text-align:start;text-decoration:none;text-decoration-line:none;text-decoration-style:solid;text-decoration-color:#000000;letter-spacing:normal;word-spacing:normal;text-transform:none;direction:ltr;block-progression:tb;writing-mode:lr-tb;baseline-shift:baseline;text-anchor:start;white-space:normal;clip-rule:nonzero;display:inline;overflow:visible;visibility:visible;opacity:1;isolation:auto;mix-blend-mode:normal;color-interpolation:sRGB;color-interpolation-filters:linearRGB;solid-color:#000000;solid-opacity:1;fill:#00aa00;fill-opacity:1;fill-rule:nonzero;stroke:none;stroke-width:4.80000019;stroke-linecap:butt;stroke-linejoin:miter;stroke-miterlimit:4;stroke-dasharray:none;stroke-dashoffset:0;stroke-opacity:1;color-rendering:auto;image-rendering:auto;shape-rendering:auto;text-rendering:auto;enable-background:accumulate"
           d="m 464.56641,1401.2969 c 11.82581,0 21.71341,8.3847 24.04101,19.5254 -1.1796,-0.3292 -2.35391,-0.6661 -3.5039,-1.0469 -2.37615,-1.0582 -4.97882,-1.4553 -7.31836,-2.6094 -2.28808,-0.4919 -4.13384,-2.0374 -6.4375,-2.5332 -2.3511,-0.6875 -4.81235,-0.9036 -7.21289,-1.2441 -0.87478,-0.4365 -2.49411,-0.2539 -3.06055,-0.7871 l -5.14258,0.084 c -0.3026,1.3208 -0.81923,2.6561 -0.86133,3.9786 -0.60943,0.5558 -0.89423,1.2193 -0.71093,2.041 0.0949,3.0902 0.0623,6.1842 -0.0996,9.2715 -0.5658,0.2973 -1.88323,-0.077 -1.75977,0.8359 -0.26365,2.4194 -0.34379,4.8642 0.0801,7.2734 -0.19586,3.0254 -2.60585,4.2301 -4.77149,5.795 -0.34902,0.2959 -0.66693,0.6203 -0.96679,0.9589 -4.22987,-4.4133 -6.83596,-10.3951 -6.83594,-16.9824 -3e-5,-13.5519 11.00869,-24.5605 24.56055,-24.5605 z m -0.9668,19.6445 c 2.88271,0.1611 5.82997,0.7166 8.41406,2.041 -0.19241,-0.2302 0.91173,1.1211 1.53125,0.7754 0.98974,0 2.40602,0.9724 3.88867,1.418 1.9553,0.7178 4.0473,1.1059 5.92579,1.9961 l 5.5957,1.5644 c -1.42864,12.1977 -11.81107,21.6818 -24.38867,21.6817 -4.21692,0 -8.18688,-1.0666 -11.65625,-2.9434 0.56815,-0.553 1.20101,-1.0377 1.93359,-1.4062 0.73485,-0.7022 2.12085,-0.7168 2.61328,-1.6133 1.09306,-2.5391 2.32831,-5.1077 2.72461,-7.8555 -0.21445,-1.0057 -0.51827,-2.3395 0.92188,-2.1133 0.64816,-0.2028 0.25479,-1.4058 0.48437,-2.0117 0.42196,-3.5956 0.47146,-7.2228 0.36133,-10.8379 0.71747,-0.1179 1.44585,-0.4092 1.65039,-0.6953 z m 28.20703,3.2656 c 0.0329,0.5466 0.0547,1.0957 0.0547,1.6504 0,-0.5547 -0.0218,-1.1037 -0.0547,-1.6504 z m -44.9375,22.3946 c 0.33131,0.2831 0.66901,0.5588 1.01367,0.8261 -0.34459,-0.2677 -0.68212,-0.5428 -1.01367,-0.8261 z m 1.07813,0.8769 c 0.34595,0.2667 0.6979,0.5252 1.05664,0.7754 -0.35843,-0.25 -0.71129,-0.5087 -1.05664,-0.7754 z"
           id="path4693"
           inkscape:connector-curvature="0" />
      </g>
      <flowRoot
         transform="matrix(1.2211979,0,0,1.2211979,216.10675,658.32408)"
         style="font-style:normal;font-variant:normal;font-weight:normal;font-stretch:normal;font-size:22.14787674px;line-height:125%;font-family:Chandas;-inkscape-font-specification:Chandas;letter-spacing:0px;word-spacing:0px;fill:#000000;fill-opacity:1;stroke:none;stroke-width:1px;stroke-linecap:butt;stroke-linejoin:miter;stroke-opacity:1"
         id="flowRoot4695"
         xml:space="preserve"><flowRegion
           id="flowRegion4697"><rect
             style="font-style:normal;font-variant:normal;font-weight:normal;font-stretch:normal;font-size:22.14787674px;font-family:Chandas;-inkscape-font-specification:Chandas"
             y="11.188453"
             x="58.233276"
             height="161.71466"
             width="260.14963"
             id="rect4699" /></flowRegion><flowPara
           id="flowPara4701"
           style="font-style:normal;font-variant:normal;font-weight:normal;font-stretch:normal;font-family:'Eurostile Extended';-inkscape-font-specification:'Eurostile Extended'">Sarek</flowPara></flowRoot>    </g>
  </g>
</svg>
