<?xml version="1.0" encoding="UTF-8" standalone="no"?>
<!-- Created with Inkscape (http://www.inkscape.org/) -->

<svg
   xmlns:dc="http://purl.org/dc/elements/1.1/"
   xmlns:cc="http://creativecommons.org/ns#"
   xmlns:rdf="http://www.w3.org/1999/02/22-rdf-syntax-ns#"
   xmlns:svg="http://www.w3.org/2000/svg"
   xmlns="http://www.w3.org/2000/svg"
   xmlns:sodipodi="http://sodipodi.sourceforge.net/DTD/sodipodi-0.dtd"
   xmlns:inkscape="http://www.inkscape.org/namespaces/inkscape"
   width="380"
   height="120"
   viewBox="0 0 380.00002 120.00001"
   id="svg4924"
   version="1.1"
   inkscape:version="0.91 r13725"
   sodipodi:docname="Sarek_germline.svg"
   inkscape:export-filename="Sarek_germline_logo.png"
   inkscape:export-xdpi="90"
   inkscape:export-ydpi="90">
  <defs
     id="defs4926">
    <clipPath
       clipPathUnits="userSpaceOnUse"
       id="clipPath202">
      <path
         d="M 0,600 1500,600 1500,0 0,0 0,600 Z"
         id="path204"
         inkscape:connector-curvature="0" />
    </clipPath>
    <clipPath
       clipPathUnits="userSpaceOnUse"
       id="clipPath158">
      <path
         d="M 0,600 1500,600 1500,0 0,0 0,600 Z"
         id="path160"
         inkscape:connector-curvature="0" />
    </clipPath>
    <clipPath
       clipPathUnits="userSpaceOnUse"
       id="clipPath86">
      <path
         d="M 0,600 1500,600 1500,0 0,0 0,600 Z"
         id="path88"
         inkscape:connector-curvature="0" />
    </clipPath>
    <clipPath
       clipPathUnits="userSpaceOnUse"
       id="clipPath94">
      <path
         d="m 804.509,211 164.286,0 0,-96.981 -164.286,0 0,96.981 z"
         id="path96"
         inkscape:connector-curvature="0" />
    </clipPath>
    <clipPath
       clipPathUnits="userSpaceOnUse"
       id="clipPath110">
      <path
         d="m 804.597,506 164.286,0 0,-96.981 -164.286,0 0,96.981 z"
         id="path112"
         inkscape:connector-curvature="0" />
    </clipPath>
    <clipPath
       clipPathUnits="userSpaceOnUse"
       id="clipPath126">
      <path
         d="m 133.598,209 164.285,0 0,-96.981 -164.285,0 0,96.981 z"
         id="path128"
         inkscape:connector-curvature="0" />
    </clipPath>
    <clipPath
       clipPathUnits="userSpaceOnUse"
       id="clipPath142">
      <path
         d="m 133.686,504 164.286,0 0,-96.981 -164.286,0 0,96.981 z"
         id="path144"
         inkscape:connector-curvature="0" />
    </clipPath>
    <clipPath
       clipPathUnits="userSpaceOnUse"
       id="clipPath54">
      <path
         d="M 0,600 1500,600 1500,0 0,0 0,600 Z"
         id="path56"
         inkscape:connector-curvature="0" />
    </clipPath>
    <clipPath
       clipPathUnits="userSpaceOnUse"
       id="clipPath30">
      <path
         d="M 0,600 1500,600 1500,0 0,0 0,600 Z"
         id="path32"
         inkscape:connector-curvature="0" />
    </clipPath>
  </defs>
  <sodipodi:namedview
     id="base"
     pagecolor="#ffffff"
     bordercolor="#666666"
     borderopacity="1.0"
     inkscape:pageopacity="0.0"
     inkscape:pageshadow="2"
     inkscape:zoom="1.979899"
     inkscape:cx="38.973939"
     inkscape:cy="57.174547"
     inkscape:document-units="px"
     inkscape:current-layer="layer1"
     showgrid="false"
     fit-margin-top="0"
     fit-margin-left="0"
     fit-margin-right="0"
     fit-margin-bottom="0"
     units="px"
     width="200mm"
     inkscape:window-width="1920"
     inkscape:window-height="1007"
     inkscape:window-x="0"
     inkscape:window-y="0"
     inkscape:window-maximized="1" />
  <metadata
     id="metadata4929">
    <rdf:RDF>
      <cc:Work
         rdf:about="">
        <dc:format>image/svg+xml</dc:format>
        <dc:type
           rdf:resource="http://purl.org/dc/dcmitype/StillImage" />
        <dc:title />
      </cc:Work>
    </rdf:RDF>
  </metadata>
  <g
     inkscape:label="Germline"
     inkscape:groupmode="layer"
     id="layer1"
     transform="translate(-221.17594,-598.32411)"
     style="display:inline">
    <g
       id="g4200">
      <path
         style="display:inline;fill:none;fill-opacity:1;fill-rule:evenodd;stroke:#377eb8;stroke-width:4.20000029;stroke-linecap:butt;stroke-linejoin:miter;stroke-miterlimit:4;stroke-dasharray:none;stroke-opacity:1"
         d="m 389.07266,663.19468 159.33699,0"
         id="path5765-9-4-7"
         inkscape:connector-type="polyline"
         inkscape:connector-curvature="0"
         sodipodi:nodetypes="cc" />
      <g
         id="g4185">
        <path
           inkscape:connector-curvature="0"
           id="path3451"
           style="font-style:normal;font-variant:normal;font-weight:normal;font-stretch:normal;font-size:50.00000381px;line-height:125%;font-family:Michroma;-inkscape-font-specification:Michroma;text-align:start;letter-spacing:0px;word-spacing:0px;text-anchor:start;fill:#000000;fill-opacity:1;stroke:none;stroke-width:1px;stroke-linecap:butt;stroke-linejoin:miter;stroke-opacity:1"
           d="m 385.42135,635.8717 q 3.85743,0 6.61622,0.3173 2.75879,0.3174 4.63867,0.9522 1.9043,0.6103 3.02734,1.5381 1.12305,0.9277 1.7334,2.124 0.61035,1.1719 0.78125,2.6367 0.19531,1.4649 0.19531,3.1738 0,1.709 -0.31738,3.2227 -0.29297,1.4893 -1.07422,2.7344 -0.78125,1.2451 -2.12402,2.2217 -1.34277,0.9765 -3.41797,1.6601 -2.0752,0.6836 -5.00488,1.0254 -2.90528,0.3662 -6.81153,0.3662 l -6.25,0 q -3.51562,0 -6.15234,-0.2685 -2.63672,-0.2686 -4.54102,-0.8057 -1.9043,-0.5615 -3.14941,-1.3916 -1.24512,-0.8545 -2.00196,-1.9775 -0.73242,-1.1475 -1.02539,-2.5879 -0.29297,-1.4649 -0.29297,-3.2227 l 4.6875,0 q 0,2.1973 0.63477,3.4424 0.63477,1.2451 2.09961,1.8799 1.46484,0.6103 3.83301,0.7812 2.39258,0.1465 5.9082,0.1465 l 6.25,0 q 4.10156,0 6.81153,-0.3906 2.70996,-0.3906 4.32129,-1.2451 1.61132,-0.8545 2.2705,-2.2217 0.65918,-1.3916 0.65918,-3.3692 0,-1.9775 -0.46386,-3.2959 -0.43946,-1.3183 -1.78223,-2.0996 -1.31836,-0.7812 -3.73535,-1.0986 -2.41699,-0.3418 -6.32325,-0.3418 l -6.44531,0 q -4.29687,0 -7.37304,-0.3174 -3.05176,-0.3174 -5.12696,-0.9033 -2.07519,-0.6103 -3.32031,-1.4893 -1.24512,-0.9033 -1.9043,-2.0507 -0.63476,-1.1475 -0.83008,-2.5391 -0.19531,-1.416 -0.19531,-3.0518 0,-1.7089 0.29297,-3.1738 0.31738,-1.4648 1.14746,-2.6367 0.83008,-1.1963 2.27051,-2.124 1.44043,-0.9278 3.68652,-1.5381 2.27051,-0.6348 5.44434,-0.9522 3.17383,-0.3173 7.4707,-0.3173 l 4.6875,0 q 3.51563,0 6.15235,0.2685 2.63672,0.2442 4.54101,0.8057 1.9043,0.5371 3.14942,1.3672 1.26953,0.8056 2.00195,1.9531 0.75684,1.123 1.04981,2.5635 0.29296,1.4404 0.29296,3.1982 l -4.6875,0 q 0,-2.1973 -0.63476,-3.4424 -0.63477,-1.2451 -2.09961,-1.8554 -1.46485,-0.6348 -3.85742,-0.7813 -2.39258,-0.1709 -5.90821,-0.1709 l -4.6875,0 q -4.6875,0 -7.71484,0.3418 -3.02735,0.3174 -4.78516,1.0986 -1.75781,0.7813 -2.44141,2.0996 -0.68359,1.3184 -0.68359,3.2959 0,1.2207 0.1709,2.1729 0.1709,0.9521 0.68359,1.6846 0.53711,0.708 1.48926,1.1963 0.95215,0.4882 2.51465,0.8056 1.5625,0.3174 3.80859,0.4639 2.27051,0.1221 5.39551,0.1221 l 6.44531,0 z" />
        <path
           inkscape:connector-curvature="0"
           id="path3453"
           style="font-style:normal;font-variant:normal;font-weight:normal;font-stretch:normal;font-size:50.00000381px;line-height:125%;font-family:Michroma;-inkscape-font-specification:Michroma;text-align:start;letter-spacing:0px;word-spacing:0px;text-anchor:start;fill:#000000;fill-opacity:1;stroke:none;stroke-width:1px;stroke-linecap:butt;stroke-linejoin:miter;stroke-opacity:1"
           d="m 436.66648,653.108 q -0.0732,0.293 -1.09864,1.4648 -0.73242,0.8789 -1.95312,1.5625 -1.22071,0.6592 -3.27149,1.0254 -2.02636,0.3906 -5.34668,0.3906 -4.41894,0 -7.54394,-0.4638 -3.125,-0.4395 -5.10254,-1.3672 -1.97754,-0.9522 -2.90528,-2.417 -0.90332,-1.4648 -0.90332,-3.4912 0,-2.124 0.48829,-3.5889 0.51269,-1.4892 1.46484,-2.4902 0.97656,-1.001 2.34375,-1.5625 1.36719,-0.5615 3.10059,-0.8545 1.75781,-0.293 3.833,-0.3662 2.0752,-0.073 4.41895,-0.073 3.34473,0 5.59082,0.293 2.24609,0.2686 3.66211,0.708 1.44043,0.4151 2.17285,0.9033 0.73242,0.4883 1.04981,0.9034 0,-2.7344 -0.24414,-4.6631 -0.21973,-1.9287 -0.75684,-3.2227 -0.5127,-1.2939 -1.34277,-2.0508 -0.83008,-0.7812 -2.05078,-1.1718 -1.19629,-0.3907 -2.80762,-0.4883 -1.61133,-0.1221 -3.68653,-0.1221 -3.22265,0 -5.34668,0.1709 -2.12402,0.1465 -3.36914,0.6104 -1.24511,0.4638 -1.75781,1.2939 -0.5127,0.8057 -0.5127,2.124 l -4.6875,0 q 0,-2.2217 0.78125,-3.7597 0.80567,-1.5381 2.63672,-2.4903 1.85547,-0.9765 4.8584,-1.416 3.00293,-0.4394 7.39746,-0.4394 4.29688,0 7.2754,0.708 2.97851,0.708 4.80957,2.4902 1.85546,1.7822 2.66113,4.8096 0.83008,3.0029 0.83008,7.6172 l 0,13.2812 -4.6875,0 0,-3.8574 z m -10.88868,0.7324 q 3.10059,0 5.17578,-0.293 2.09961,-0.2929 3.36915,-0.8789 1.26953,-0.5859 1.80664,-1.4648 0.53711,-0.8789 0.53711,-2.0508 0,-1.1719 -0.63477,-1.9775 -0.61035,-0.8301 -2.0752,-1.3428 -1.44042,-0.5127 -3.833,-0.7324 -2.39258,-0.2442 -5.90821,-0.2442 -3.51562,0 -5.68847,0.1221 -2.14844,0.1221 -3.32032,0.5615 -1.17187,0.4395 -1.58691,1.294 -0.39063,0.8545 -0.39063,2.3193 0,1.4649 0.41504,2.3926 0.43946,0.9033 1.75782,1.416 1.31836,0.5127 3.78418,0.708 2.49023,0.1709 6.59179,0.1709 z" />
        <path
           inkscape:connector-curvature="0"
           id="path3455"
           style="font-style:normal;font-variant:normal;font-weight:normal;font-stretch:normal;font-size:50.00000381px;line-height:125%;font-family:Michroma;-inkscape-font-specification:Michroma;text-align:start;letter-spacing:0px;word-spacing:0px;text-anchor:start;fill:#000000;fill-opacity:1;stroke:none;stroke-width:1px;stroke-linecap:butt;stroke-linejoin:miter;stroke-opacity:1"
           d="m 471.84714,637.9957 q 0,-1.7578 -0.26855,-2.9053 -0.24414,-1.1719 -1.19629,-1.8555 -0.95215,-0.708 -2.83203,-0.9765 -1.85547,-0.293 -5.07813,-0.293 -3.14941,0 -5.12695,0.5615 -1.97754,0.5371 -3.10059,1.5381 -1.12304,1.001 -1.53808,2.3926 -0.39063,1.3916 -0.39063,3.1006 l 0,17.4072 -4.6875,0 0,-28.125 4.6875,0 0,4.4678 q 0.24414,-0.7569 0.90332,-1.6602 0.65918,-0.9277 2.00196,-1.709 1.34277,-0.8056 3.46679,-1.3427 2.14844,-0.5371 5.34668,-0.5371 3.66211,0 5.95703,0.6591 2.29493,0.6348 3.56446,1.9043 1.29394,1.2451 1.7334,3.1006 0.46386,1.8555 0.46386,4.2725 l -3.90625,0 z" />
        <path
           inkscape:connector-curvature="0"
           id="path3457"
           style="font-style:normal;font-variant:normal;font-weight:normal;font-stretch:normal;font-size:50.00000381px;line-height:125%;font-family:Michroma;-inkscape-font-specification:Michroma;text-align:start;letter-spacing:0px;word-spacing:0px;text-anchor:start;fill:#000000;fill-opacity:1;stroke:none;stroke-width:1px;stroke-linecap:butt;stroke-linejoin:miter;stroke-opacity:1"
           d="m 495.28464,657.5025 q -4.6875,0 -7.95898,-0.6347 -3.27149,-0.6592 -5.32227,-2.2461 -2.05078,-1.587 -2.97851,-4.2481 -0.92774,-2.6611 -0.92774,-6.6894 0,-4.6143 0.92774,-7.6172 0.92773,-3.0274 2.97851,-4.8096 2.05078,-1.7822 5.32227,-2.4902 3.27148,-0.708 7.95898,-0.708 3.34473,0 5.78614,0.4882 2.46582,0.4883 4.19922,1.4161 1.75781,0.9277 2.83203,2.246 1.09863,1.3184 1.70898,2.7832 0.63477,1.4405 0.85449,3.3936 0.24414,1.9531 0.24414,4.126 l -0.39062,1.5625 -27.73438,0 q 0,3.2226 0.63477,5.2978 0.63476,2.0508 2.09961,3.003 1.46484,0.9521 3.85742,1.2207 2.39258,0.2441 5.9082,0.2441 3.22266,0 5.32227,-0.1709 2.12402,-0.1953 3.36914,-0.708 1.24512,-0.5127 1.7334,-1.416 0.51269,-0.9277 0.51269,-2.3926 l 4.6875,0 q 0,2.2705 -0.80566,3.8818 -0.78125,1.587 -2.6123,2.5879 -1.83106,0.9766 -4.83399,1.4161 -2.97851,0.4638 -7.37305,0.4638 z m 0,-25.5371 q -2.34375,0 -4.19922,0.098 -1.83105,0.098 -3.22265,0.4394 -1.36719,0.3174 -2.34375,0.9522 -0.97656,0.6103 -1.58692,1.4648 -0.58593,0.8301 -0.8789,2.3682 -0.26856,1.5136 -0.26856,3.6621 l 23.4375,0 q 0,-2.8565 -0.61035,-4.4678 -0.61035,-1.6357 -1.92871,-2.6855 -1.31836,-1.0498 -3.39355,-1.4405 -2.0752,-0.3906 -5.00489,-0.3906 z" />
        <path
           inkscape:connector-curvature="0"
           id="path3459"
           style="font-style:normal;font-variant:normal;font-weight:normal;font-stretch:normal;font-size:50.00000381px;line-height:125%;font-family:Michroma;-inkscape-font-specification:Michroma;text-align:start;letter-spacing:0px;word-spacing:0px;text-anchor:start;fill:#000000;fill-opacity:1;stroke:none;stroke-width:1px;stroke-linecap:butt;stroke-linejoin:miter;stroke-opacity:1"
           d="m 517.15965,619.4654 4.6875,0 0,20.5078 1.5625,0 17.1875,-11.1328 7.03125,0 -19.92187,13.0859 20.70312,15.0391 -7.03125,0 -17.96875,-13.4766 -1.5625,0 0,13.4766 -4.6875,0 0,-37.5 z" />
        <path
           inkscape:connector-curvature="0"
           id="path3434"
           style="font-style:normal;font-variant:normal;font-weight:normal;font-stretch:normal;font-size:41.45429611px;line-height:125%;font-family:Michroma;-inkscape-font-specification:Michroma;text-align:start;letter-spacing:0px;word-spacing:0px;text-anchor:start;fill:#000000;fill-opacity:1;stroke:none;stroke-width:1px;stroke-linecap:butt;stroke-linejoin:miter;stroke-opacity:1"
           d="m 420.7316,677.97973 q 0,-2.19726 -0.47608,-3.479 -0.47607,-1.28174 -1.5747,-1.94092 -1.09864,-0.65918 -2.89307,-0.84228 -1.79443,-0.18311 -4.43115,-0.18311 l -9.41162,0 q -2.34375,0 -3.95508,0.14648 -1.59302,0.12818 -2.63672,0.54932 -1.0437,0.42114 -1.61133,1.2085 -0.56763,0.78735 -0.82398,2.0874 -0.25634,1.30005 -0.29296,3.20435 -0.0366,1.88598 -0.0366,4.5227 0,2.63672 0.0366,4.54102 0.0549,1.88598 0.31128,3.18603 0.25634,1.30005 0.80566,2.08741 0.56763,0.78735 1.61133,1.20849 1.0437,0.42114 2.63672,0.56763 1.61133,0.12817 3.95508,0.12817 l 9.42993,0 q 2.05078,0 3.53393,-0.10986 1.48316,-0.10986 2.52686,-0.40283 1.0437,-0.29297 1.68457,-0.80567 0.64087,-0.51269 0.98877,-1.28174 0.36621,-0.78735 0.49438,-1.86767 0.12818,-1.09863 0.12818,-2.56348 l 0,-1.75781 -14.09912,0 0,-2.92969 17.61474,0 0,4.6875 q 0,1.75781 -0.21972,3.18604 -0.21973,1.40991 -0.78736,2.52685 -0.54931,1.09864 -1.48315,1.9043 -0.93384,0.80566 -2.36206,1.33667 -1.42822,0.5127 -3.40576,0.75073 -1.97754,0.25635 -4.61426,0.25635 l -9.42993,0 q -3.22266,0 -5.43824,-0.40283 -2.19726,-0.38452 -3.62549,-1.17188 -1.42822,-0.80566 -2.21557,-2.01416 -0.76905,-1.20849 -1.13526,-2.83813 -0.3479,-1.62964 -0.40283,-3.68042 -0.0549,-2.05078 -0.0549,-4.54102 0,-2.49023 0.0549,-4.54101 0.0549,-2.05079 0.40283,-3.68042 0.36621,-1.62964 1.13526,-2.83814 0.78735,-1.2085 2.21557,-1.99585 1.42823,-0.80566 3.62549,-1.19019 2.21558,-0.40283 5.43824,-0.40283 l 9.41162,0 q 2.63672,0 4.61426,0.25635 1.97753,0.23804 3.40576,0.75073 1.42822,0.49439 2.36206,1.26343 0.95215,0.76904 1.50146,1.81275 0.56763,1.0437 0.78736,2.36206 0.21972,1.31836 0.21972,2.92968 l -3.51562,0 z" />
        <path
           inkscape:connector-curvature="0"
           id="path3436"
           style="font-style:normal;font-variant:normal;font-weight:normal;font-stretch:normal;font-size:37.50000381px;line-height:125%;font-family:Michroma;-inkscape-font-specification:Michroma;text-align:start;letter-spacing:0px;word-spacing:0px;text-anchor:start;fill:#000000;fill-opacity:1;stroke:none;stroke-width:1px;stroke-linecap:butt;stroke-linejoin:miter;stroke-opacity:1"
           d="m 441.2211,697.71851 q -3.51562,0 -5.96924,-0.47608 -2.45361,-0.49438 -3.9917,-1.68457 -1.53808,-1.19019 -2.23388,-3.18604 -0.6958,-1.99584 -0.6958,-5.01709 0,-3.46069 0.6958,-5.71289 0.6958,-2.2705 2.23388,-3.60717 1.53809,-1.33667 3.9917,-1.86768 2.45362,-0.53101 5.96924,-0.53101 2.50855,0 4.3396,0.36621 1.84937,0.36622 3.14942,1.06202 1.31836,0.6958 2.12402,1.68457 0.82397,0.98877 1.28174,2.0874 0.47607,1.08032 0.64087,2.54517 0.1831,1.46484 0.1831,3.09448 l -0.29297,1.17187 -20.80078,0 q 0,2.417 0.47608,3.97339 0.47607,1.53809 1.5747,2.2522 1.09864,0.71411 2.89307,0.91553 1.79443,0.1831 4.43115,0.1831 2.41699,0 3.9917,-0.12817 1.59302,-0.14649 2.52686,-0.53101 0.93384,-0.38452 1.30005,-1.06201 0.38452,-0.6958 0.38452,-1.79443 l 3.51562,0 q 0,1.70288 -0.60424,2.91137 -0.58594,1.19019 -1.95923,1.94092 -1.37329,0.73242 -3.62549,1.06201 -2.23389,0.34791 -5.52979,0.34791 z m 0,-19.15284 q -1.75781,0 -3.14941,0.0732 -1.37329,0.0733 -2.41699,0.32959 -1.0254,0.23804 -1.75782,0.71411 -0.73242,0.45777 -1.19018,1.09864 -0.43946,0.62256 -0.65918,1.77612 -0.20142,1.13525 -0.20142,2.74658 l 17.57813,0 q 0,-2.14233 -0.45777,-3.35083 -0.45776,-1.2268 -1.44653,-2.01416 -0.98877,-0.78735 -2.54517,-1.08032 -1.55639,-0.29297 -3.75366,-0.29297 z" />
        <path
           inkscape:connector-curvature="0"
           id="path3438"
           style="font-style:normal;font-variant:normal;font-weight:normal;font-stretch:normal;font-size:37.50000381px;line-height:125%;font-family:Michroma;-inkscape-font-specification:Michroma;text-align:start;letter-spacing:0px;word-spacing:0px;text-anchor:start;fill:#000000;fill-opacity:1;stroke:none;stroke-width:1px;stroke-linecap:butt;stroke-linejoin:miter;stroke-opacity:1"
           d="m 475.79142,683.08838 q 0,-1.31836 -0.20142,-2.17896 -0.1831,-0.8789 -0.89721,-1.3916 -0.71412,-0.53101 -2.12403,-0.73242 -1.3916,-0.21973 -3.80859,-0.21973 -2.36206,0 -3.84522,0.42114 -1.48315,0.40284 -2.32544,1.15357 -0.84228,0.75073 -1.15356,1.79443 -0.29297,1.0437 -0.29297,2.32544 l 0,13.05542 -3.51563,0 0,-21.09375 3.51563,0 0,3.35083 q 0.18311,-0.56763 0.67749,-1.24512 0.49439,-0.6958 1.50147,-1.28173 1.00708,-0.60425 2.60009,-1.00708 1.61133,-0.40284 4.01001,-0.40284 2.74659,0 4.46778,0.49439 1.72119,0.47607 2.67334,1.42822 0.97046,0.93384 1.30005,2.32544 0.3479,1.3916 0.3479,3.20435 l -2.92969,0 z" />
        <path
           inkscape:connector-curvature="0"
           id="path3440"
           style="font-style:normal;font-variant:normal;font-weight:normal;font-stretch:normal;font-size:37.50000381px;line-height:125%;font-family:Michroma;-inkscape-font-specification:Michroma;text-align:start;letter-spacing:0px;word-spacing:0px;text-anchor:start;fill:#000000;fill-opacity:1;stroke:none;stroke-width:1px;stroke-linecap:butt;stroke-linejoin:miter;stroke-opacity:1"
           d="m 503.33048,697.31567 -3.51562,0 0,-11.90185 q 0,-1.9043 -0.25635,-3.20435 -0.23804,-1.31836 -1.00708,-2.12402 -0.75073,-0.80567 -2.14234,-1.15357 -1.37329,-0.36621 -3.62548,-0.36621 -2.47193,0 -4.06495,0.42114 -1.59301,0.40284 -2.50854,1.15357 -0.91553,0.73242 -1.28174,1.77612 -0.3479,1.0437 -0.3479,2.32544 l 0,13.07373 -3.51563,0 0,-21.09375 3.51563,0 0,3.33252 q 0.0183,-0.0549 0.1648,-0.36621 0.14648,-0.31128 0.51269,-0.73242 0.38452,-0.43946 1.02539,-0.93384 0.65918,-0.49438 1.68457,-0.91553 1.0437,-0.42114 2.50855,-0.6958 1.46484,-0.27466 3.479,-0.27466 1.97754,0 3.42407,0.25635 1.46485,0.23804 2.49024,0.73242 1.0437,0.47608 1.68457,1.2085 0.65918,0.71411 1.0437,1.64795 0.31128,-0.49439 0.97046,-1.15357 0.65918,-0.65918 1.83105,-1.26342 1.19019,-0.60425 2.96631,-1.00708 1.77613,-0.42115 4.3396,-0.42115 2.10572,0 3.60718,0.29297 1.51978,0.27466 2.56348,0.84229 1.0437,0.54931 1.66626,1.37329 0.64087,0.82397 0.97046,1.92261 0.3479,1.08032 0.45776,2.4353 0.10986,1.33667 0.10986,2.91138 l 0,11.90185 -3.51562,0 0,-11.90185 q 0,-1.9043 -0.25635,-3.20435 -0.23804,-1.31836 -1.00708,-2.12402 -0.75073,-0.80567 -2.14233,-1.15357 -1.37329,-0.36621 -3.62549,-0.36621 -2.47193,0 -4.06494,0.42114 -1.59302,0.40284 -2.50855,1.15357 -0.91553,0.73242 -1.28174,1.77612 -0.3479,1.0437 -0.3479,2.32544 l 0,13.07373 z" />
        <path
           inkscape:connector-curvature="0"
           id="path3442"
           style="font-style:normal;font-variant:normal;font-weight:normal;font-stretch:normal;font-size:37.50000381px;line-height:125%;font-family:Michroma;-inkscape-font-specification:Michroma;text-align:start;letter-spacing:0px;word-spacing:0px;text-anchor:start;fill:#000000;fill-opacity:1;stroke:none;stroke-width:1px;stroke-linecap:butt;stroke-linejoin:miter;stroke-opacity:1"
           d="m 527.93986,669.19067 3.51563,0 0,28.125 -3.51563,0 0,-28.125 z" />
        <path
           inkscape:connector-curvature="0"
           id="path3444"
           style="font-style:normal;font-variant:normal;font-weight:normal;font-stretch:normal;font-size:37.50000381px;line-height:125%;font-family:Michroma;-inkscape-font-specification:Michroma;text-align:start;letter-spacing:0px;word-spacing:0px;text-anchor:start;fill:#000000;fill-opacity:1;stroke:none;stroke-width:1px;stroke-linecap:butt;stroke-linejoin:miter;stroke-opacity:1"
           d="m 538.48674,676.22192 3.51562,0 0,21.09375 -3.51562,0 0,-21.09375 z m 3.51562,-3.51562 -3.51562,0 0,-3.51563 3.51562,0 0,3.51563 z" />
        <path
           inkscape:connector-curvature="0"
           id="path3446"
           style="font-style:normal;font-variant:normal;font-weight:normal;font-stretch:normal;font-size:37.50000381px;line-height:125%;font-family:Michroma;-inkscape-font-specification:Michroma;text-align:start;letter-spacing:0px;word-spacing:0px;text-anchor:start;fill:#000000;fill-opacity:1;stroke:none;stroke-width:1px;stroke-linecap:butt;stroke-linejoin:miter;stroke-opacity:1"
           d="m 568.95549,697.31567 0,-11.71875 q 0,-1.95923 -0.29297,-3.2959 -0.29297,-1.35498 -1.17187,-2.17895 -0.87891,-0.82398 -2.49024,-1.19019 -1.61133,-0.36621 -4.24805,-0.36621 -2.85644,0 -4.6875,0.42114 -1.81274,0.42115 -2.85644,1.19019 -1.0437,0.76904 -1.44654,1.84936 -0.38452,1.08033 -0.38452,2.39869 l 0,12.89062 -3.51562,0 0,-21.09375 3.51562,0 0,3.51563 q 0.38452,-0.89722 1.09864,-1.53809 0.71411,-0.65918 1.61132,-1.11694 0.89722,-0.45777 1.94092,-0.73243 1.0437,-0.29296 2.0874,-0.43945 1.04371,-0.16479 2.01417,-0.21972 0.98876,-0.0549 1.79443,-0.0549 2.34375,0 4.02832,0.29297 1.70288,0.29297 2.87476,0.8606 1.19018,0.56762 1.90429,1.40991 0.71411,0.84229 1.09864,1.95923 0.40283,1.09863 0.531,2.47192 0.12818,1.35498 0.12818,2.96631 l -0.0183,11.71875 -3.51562,0 z" />
        <path
           inkscape:connector-curvature="0"
           id="path3448"
           style="font-style:normal;font-variant:normal;font-weight:normal;font-stretch:normal;font-size:37.50000381px;line-height:125%;font-family:Michroma;-inkscape-font-specification:Michroma;text-align:start;letter-spacing:0px;word-spacing:0px;text-anchor:start;fill:#000000;fill-opacity:1;stroke:none;stroke-width:1px;stroke-linecap:butt;stroke-linejoin:miter;stroke-opacity:1"
           d="m 589.4633,697.71851 q -3.51562,0 -5.96924,-0.47608 -2.45361,-0.49438 -3.9917,-1.68457 -1.53808,-1.19019 -2.23388,-3.18604 -0.69581,-1.99584 -0.69581,-5.01709 0,-3.46069 0.69581,-5.71289 0.6958,-2.2705 2.23388,-3.60717 1.53809,-1.33667 3.9917,-1.86768 2.45362,-0.53101 5.96924,-0.53101 2.50855,0 4.3396,0.36621 1.84937,0.36622 3.14942,1.06202 1.31836,0.6958 2.12402,1.68457 0.82397,0.98877 1.28174,2.0874 0.47607,1.08032 0.64087,2.54517 0.1831,1.46484 0.1831,3.09448 l -0.29297,1.17187 -20.80078,0 q 0,2.417 0.47607,3.97339 0.47608,1.53809 1.57471,2.2522 1.09863,0.71411 2.89307,0.91553 1.79443,0.1831 4.43115,0.1831 2.41699,0 3.9917,-0.12817 1.59302,-0.14649 2.52686,-0.53101 0.93383,-0.38452 1.30005,-1.06201 0.38452,-0.6958 0.38452,-1.79443 l 3.51562,0 q 0,1.70288 -0.60425,2.91137 -0.58593,1.19019 -1.95922,1.94092 -1.3733,0.73242 -3.62549,1.06201 -2.23389,0.34791 -5.52979,0.34791 z m 0,-19.15284 q -1.75781,0 -3.14941,0.0732 -1.37329,0.0733 -2.417,0.32959 -1.02539,0.23804 -1.75781,0.71411 -0.73242,0.45777 -1.19018,1.09864 -0.43946,0.62256 -0.65918,1.77612 -0.20142,1.13525 -0.20142,2.74658 l 17.57813,0 q 0,-2.14233 -0.45777,-3.35083 -0.45776,-1.2268 -1.44653,-2.01416 -0.98877,-0.78735 -2.54517,-1.08032 -1.55639,-0.29297 -3.75366,-0.29297 z" />
      </g>
      <g
         transform="translate(221.18206,658.29359)"
         id="g5369">
        <path
           inkscape:connector-curvature="0"
           id="path5280"
           style="fill:#ffffff;stroke:none;stroke-width:4.18779993;stroke-linecap:butt;stroke-linejoin:miter;stroke-miterlimit:10;stroke-dasharray:none;stroke-opacity:1"
           d="m 117.90608,4e-5 c 0,-31.98037 -25.925273,-57.90611 -57.906104,-57.90611 -31.980369,0 -57.9060994,25.92574 -57.9060994,57.90611 0,31.980361 25.9257304,57.906099 57.9060994,57.906099 31.980831,0 57.906104,-25.925738 57.906104,-57.906099 z" />
        <path
           inkscape:connector-curvature="0"
           id="path5282"
           d="m 45.33005,-26.80855 -3.867187,1.67382 -4.886719,30.77734 -10.748047,2.93164 0,38.107427 -0.0332,0.0469 c 9.584012,7.02713 21.41042,11.17773 34.205078,11.17773 25.579545,0 47.285075,-16.5858 54.949215,-39.589847 l 0.0957,0.0312 -0.0898,-0.0527 c 1.91353,-5.75078 2.95117,-11.90144 2.95117,-18.29492 0,-3.51077 -0.31177,-6.94701 -0.91016,-10.28516 L 45.33005,-26.80855 Z"
           style="fill:#aacbe6;fill-opacity:1;fill-rule:nonzero;stroke:none" />
        <path
           d="m 115.04447,18.34822 -73.582435,-43.48285 -4.885301,30.778 -10.747755,2.93146 0,38.106187 -0.0335,0.0479 c 9.584013,7.02713 21.409894,11.17724 34.204553,11.17724 25.579547,0 47.284908,-16.58555 54.949048,-39.589607"
           style="fill:#377eb8;fill-opacity:1;fill-rule:nonzero;stroke:none"
           id="path5284"
           inkscape:connector-curvature="0" />
        <path
           d="m 117.8941,0.03052935 c 0,-31.97712035 -25.922642,-57.90022535 -57.900222,-57.90022535 -31.977116,0 -57.9002148,25.923105 -57.9002148,57.90022535 0,31.97711065 25.9230988,57.90021365 57.9002148,57.90021365 31.97758,0 57.900222,-25.923103 57.900222,-57.90021365 z"
           style="fill:none;stroke:#000000;stroke-width:4.19957352;stroke-linecap:butt;stroke-linejoin:miter;stroke-miterlimit:10;stroke-dasharray:none;stroke-opacity:1"
           id="path5286"
           inkscape:connector-curvature="0" />
      </g>
    </g>
  </g>
</svg>
