<?xml version="1.0" encoding="UTF-8" standalone="no"?>
<!-- Created with Inkscape (http://www.inkscape.org/) -->

<svg
   xmlns:dc="http://purl.org/dc/elements/1.1/"
   xmlns:cc="http://creativecommons.org/ns#"
   xmlns:rdf="http://www.w3.org/1999/02/22-rdf-syntax-ns#"
   xmlns:svg="http://www.w3.org/2000/svg"
   xmlns="http://www.w3.org/2000/svg"
   xmlns:sodipodi="http://sodipodi.sourceforge.net/DTD/sodipodi-0.dtd"
   xmlns:inkscape="http://www.inkscape.org/namespaces/inkscape"
   width="380"
   height="120"
   viewBox="0 0 380.00002 120.00001"
   id="svg4924"
   version="1.1"
   inkscape:version="0.91 r13725"
   sodipodi:docname="Sarek_somatic.svg"
   inkscape:export-filename="Sarek_germline_logo.png"
   inkscape:export-xdpi="90"
   inkscape:export-ydpi="90">
  <defs
     id="defs4926">
    <clipPath
       clipPathUnits="userSpaceOnUse"
       id="clipPath202">
      <path
         d="M 0,600 1500,600 1500,0 0,0 0,600 Z"
         id="path204"
         inkscape:connector-curvature="0" />
    </clipPath>
    <clipPath
       clipPathUnits="userSpaceOnUse"
       id="clipPath158">
      <path
         d="M 0,600 1500,600 1500,0 0,0 0,600 Z"
         id="path160"
         inkscape:connector-curvature="0" />
    </clipPath>
    <clipPath
       clipPathUnits="userSpaceOnUse"
       id="clipPath86">
      <path
         d="M 0,600 1500,600 1500,0 0,0 0,600 Z"
         id="path88"
         inkscape:connector-curvature="0" />
    </clipPath>
    <clipPath
       clipPathUnits="userSpaceOnUse"
       id="clipPath94">
      <path
         d="m 804.509,211 164.286,0 0,-96.981 -164.286,0 0,96.981 z"
         id="path96"
         inkscape:connector-curvature="0" />
    </clipPath>
    <clipPath
       clipPathUnits="userSpaceOnUse"
       id="clipPath110">
      <path
         d="m 804.597,506 164.286,0 0,-96.981 -164.286,0 0,96.981 z"
         id="path112"
         inkscape:connector-curvature="0" />
    </clipPath>
    <clipPath
       clipPathUnits="userSpaceOnUse"
       id="clipPath126">
      <path
         d="m 133.598,209 164.285,0 0,-96.981 -164.285,0 0,96.981 z"
         id="path128"
         inkscape:connector-curvature="0" />
    </clipPath>
    <clipPath
       clipPathUnits="userSpaceOnUse"
       id="clipPath142">
      <path
         d="m 133.686,504 164.286,0 0,-96.981 -164.286,0 0,96.981 z"
         id="path144"
         inkscape:connector-curvature="0" />
    </clipPath>
    <clipPath
       clipPathUnits="userSpaceOnUse"
       id="clipPath54">
      <path
         d="M 0,600 1500,600 1500,0 0,0 0,600 Z"
         id="path56"
         inkscape:connector-curvature="0" />
    </clipPath>
    <clipPath
       clipPathUnits="userSpaceOnUse"
       id="clipPath30">
      <path
         d="M 0,600 1500,600 1500,0 0,0 0,600 Z"
         id="path32"
         inkscape:connector-curvature="0" />
    </clipPath>
  </defs>
  <sodipodi:namedview
     id="base"
     pagecolor="#ffffff"
     bordercolor="#666666"
     borderopacity="1.0"
     inkscape:pageopacity="0.0"
     inkscape:pageshadow="2"
     inkscape:zoom="1.979899"
     inkscape:cx="38.973939"
     inkscape:cy="57.174547"
     inkscape:document-units="px"
     inkscape:current-layer="layer2"
     showgrid="false"
     fit-margin-top="0"
     fit-margin-left="0"
     fit-margin-right="0"
     fit-margin-bottom="0"
     units="px"
     width="200mm"
     inkscape:window-width="1920"
     inkscape:window-height="1007"
     inkscape:window-x="0"
     inkscape:window-y="0"
     inkscape:window-maximized="1" />
  <metadata
     id="metadata4929">
    <rdf:RDF>
      <cc:Work
         rdf:about="">
        <dc:format>image/svg+xml</dc:format>
        <dc:type
           rdf:resource="http://purl.org/dc/dcmitype/StillImage" />
        <dc:title />
      </cc:Work>
    </rdf:RDF>
  </metadata>
  <g
     inkscape:groupmode="layer"
     id="layer2"
     inkscape:label="Somatic"
     style="display:inline"
     transform="translate(2.7783959e-5,59.99996)">
    <g
       id="g4210">
      <g
         id="flowRoot5674-6-8-3"
         style="font-style:normal;font-variant:normal;font-weight:normal;font-stretch:normal;font-size:52.46426392px;line-height:125%;font-family:Chandas;-inkscape-font-specification:Chandas;letter-spacing:0px;word-spacing:0px;display:inline;fill:#000000;fill-opacity:1;stroke:none;stroke-width:1px;stroke-linecap:butt;stroke-linejoin:miter;stroke-opacity:1"
         transform="translate(2.9094459,-398.05499)">
        <path
           id="path4200"
           style="font-style:normal;font-variant:normal;font-weight:normal;font-stretch:normal;font-size:50.00000381px;font-family:Michroma;-inkscape-font-specification:Michroma;text-align:start;text-anchor:start"
           d="m 161.33594,375.62691 q 3.85742,0 6.61621,0.31739 2.75879,0.31738 4.63867,0.95214 1.9043,0.61036 3.02735,1.53809 1.12304,0.92773 1.7334,2.12402 0.61035,1.17188 0.78125,2.63672 0.19531,1.46485 0.19531,3.17383 0,1.70899 -0.31738,3.22266 -0.29297,1.48926 -1.07422,2.73437 -0.78125,1.24512 -2.12403,2.22168 -1.34277,0.97656 -3.41797,1.66016 -2.07519,0.68359 -5.00488,1.02539 -2.90527,0.36621 -6.81152,0.36621 l -6.25,0 q -3.51563,0 -6.15235,-0.26855 -2.63672,-0.26856 -4.54101,-0.80567 -1.9043,-0.56152 -3.14942,-1.3916 -1.24512,-0.85449 -2.00195,-1.97754 -0.73242,-1.14746 -1.02539,-2.58789 -0.29297,-1.46484 -0.29297,-3.22266 l 4.6875,0 q 0,2.19727 0.63477,3.44239 0.63476,1.24511 2.0996,1.87988 1.46485,0.61035 3.83301,0.78125 2.39258,0.14648 5.90821,0.14648 l 6.25,0 q 4.10156,0 6.81152,-0.39062 2.70996,-0.39063 4.32129,-1.24512 1.61133,-0.85449 2.27051,-2.22168 0.65918,-1.3916 0.65918,-3.36914 0,-1.97754 -0.46387,-3.2959 -0.43945,-1.31836 -1.78223,-2.09961 -1.31836,-0.78125 -3.73535,-1.09863 -2.41699,-0.3418 -6.32324,-0.3418 l -6.44531,0 q -4.29688,0 -7.37305,-0.31738 -3.05176,-0.31738 -5.12695,-0.90332 -2.0752,-0.61035 -3.32032,-1.48926 -1.24511,-0.90332 -1.90429,-2.05078 -0.63477,-1.14746 -0.83008,-2.53906 -0.19531,-1.41602 -0.19531,-3.05176 0,-1.70899 0.29296,-3.17383 0.31739,-1.46484 1.14747,-2.63672 0.83007,-1.19629 2.2705,-2.12402 1.44043,-0.92774 3.68653,-1.53809 2.2705,-0.63476 5.44433,-0.95215 3.17383,-0.31738 7.47071,-0.31738 l 4.6875,0 q 3.51562,0 6.15234,0.26856 2.63672,0.24414 4.54102,0.80566 1.90429,0.53711 3.14941,1.36719 1.26953,0.80566 2.00195,1.95312 0.75684,1.12305 1.04981,2.56348 0.29297,1.44043 0.29297,3.19824 l -4.6875,0 q 0,-2.19726 -0.63477,-3.44238 -0.63476,-1.24512 -2.09961,-1.85547 -1.46484,-0.63477 -3.85742,-0.78125 -2.39258,-0.1709 -5.9082,-0.1709 l -4.6875,0 q -4.6875,0 -7.71485,0.3418 -3.02734,0.31738 -4.78515,1.09863 -1.75782,0.78125 -2.44141,2.09961 -0.68359,1.31836 -0.68359,3.2959 0,1.2207 0.17089,2.17285 0.1709,0.95215 0.6836,1.68457 0.53711,0.70801 1.48926,1.19629 0.95214,0.48828 2.51464,0.80566 1.5625,0.31739 3.8086,0.46387 2.27051,0.12207 5.39551,0.12207 l 6.44531,0 z" />
        <path
           id="path4202"
           style="font-style:normal;font-variant:normal;font-weight:normal;font-stretch:normal;font-size:50.00000381px;font-family:Michroma;-inkscape-font-specification:Michroma;text-align:start;text-anchor:start"
           d="m 212.58106,392.86324 q -0.0732,0.29297 -1.09863,1.46485 -0.73242,0.8789 -1.95313,1.5625 -1.2207,0.65918 -3.27148,1.02539 -2.02637,0.39062 -5.34668,0.39062 -4.41895,0 -7.54395,-0.46387 -3.125,-0.43945 -5.10254,-1.36718 -1.97754,-0.95215 -2.90527,-2.417 -0.90332,-1.46484 -0.90332,-3.49121 0,-2.12402 0.48828,-3.58886 0.5127,-1.48926 1.46484,-2.49024 0.97657,-1.00098 2.34375,-1.5625 1.36719,-0.56152 3.10059,-0.85449 1.75781,-0.29297 3.83301,-0.36621 2.07519,-0.0732 4.41894,-0.0732 3.34473,0 5.59082,0.29296 2.2461,0.26856 3.66211,0.70801 1.44043,0.41504 2.17286,0.90332 0.73242,0.48828 1.0498,0.90332 0,-2.73437 -0.24414,-4.66308 -0.21973,-1.92871 -0.75684,-3.22266 -0.51269,-1.29395 -1.34277,-2.05078 -0.83008,-0.78125 -2.05078,-1.17188 -1.19629,-0.39062 -2.80762,-0.48828 -1.61133,-0.12207 -3.68652,-0.12207 -3.22266,0 -5.34668,0.1709 -2.12403,0.14649 -3.36914,0.61035 -1.24512,0.46387 -1.75782,1.29395 -0.51269,0.80566 -0.51269,2.12402 l -4.6875,0 q 0,-2.22168 0.78125,-3.75976 0.80566,-1.53809 2.63672,-2.49024 1.85547,-0.97656 4.8584,-1.41601 3.00293,-0.43946 7.39746,-0.43946 4.29687,0 7.27539,0.70801 2.97852,0.70801 4.80957,2.49023 1.85547,1.78223 2.66113,4.80957 0.83008,3.00293 0.83008,7.61719 l 0,13.28125 -4.6875,0 0,-3.85742 z m -10.88867,0.73242 q 3.10058,0 5.17578,-0.29296 2.09961,-0.29297 3.36914,-0.87891 1.26953,-0.58594 1.80664,-1.46485 0.53711,-0.8789 0.53711,-2.05078 0,-1.17187 -0.63476,-1.97754 -0.61036,-0.83007 -2.0752,-1.34277 -1.44043,-0.51269 -3.83301,-0.73242 -2.39258,-0.24414 -5.9082,-0.24414 -3.51563,0 -5.68848,0.12207 -2.14844,0.12207 -3.32031,0.56152 -1.17188,0.43946 -1.58692,1.29395 -0.39062,0.85449 -0.39062,2.31933 0,1.46485 0.41504,2.39258 0.43945,0.90332 1.75781,1.41602 1.31836,0.51269 3.78418,0.70801 2.49024,0.17089 6.5918,0.17089 z" />
        <path
           id="path4204"
           style="font-style:normal;font-variant:normal;font-weight:normal;font-stretch:normal;font-size:50.00000381px;font-family:Michroma;-inkscape-font-specification:Michroma;text-align:start;text-anchor:start"
           d="m 247.76173,377.75094 q 0,-1.75782 -0.26856,-2.90528 -0.24414,-1.17187 -1.19629,-1.85547 -0.95214,-0.708 -2.83203,-0.97656 -1.85547,-0.29297 -5.07812,-0.29297 -3.14942,0 -5.12696,0.56153 -1.97753,0.53711 -3.10058,1.53808 -1.12305,1.00098 -1.53809,2.39258 -0.39062,1.3916 -0.39062,3.10059 l 0,17.40722 -4.6875,0 0,-28.125 4.6875,0 0,4.46778 q 0.24414,-0.75684 0.90332,-1.66016 0.65918,-0.92774 2.00195,-1.70899 1.34277,-0.80566 3.4668,-1.34277 2.14844,-0.53711 5.34668,-0.53711 3.66211,0 5.95703,0.65918 2.29492,0.63477 3.56445,1.9043 1.29395,1.24512 1.7334,3.10058 0.46387,1.85547 0.46387,4.27247 l -3.90625,0 z" />
        <path
           id="path4206"
           style="font-style:normal;font-variant:normal;font-weight:normal;font-stretch:normal;font-size:50.00000381px;font-family:Michroma;-inkscape-font-specification:Michroma;text-align:start;text-anchor:start"
           d="m 271.19923,397.25777 q -4.6875,0 -7.95899,-0.63476 -3.27148,-0.65918 -5.32226,-2.2461 -2.05078,-1.58691 -2.97852,-4.24804 -0.92773,-2.66114 -0.92773,-6.68946 0,-4.61426 0.92773,-7.61719 0.92774,-3.02734 2.97852,-4.80957 2.05078,-1.78222 5.32226,-2.49023 3.27149,-0.70801 7.95899,-0.70801 3.34472,0 5.78613,0.48828 2.46582,0.48828 4.19922,1.41602 1.75781,0.92773 2.83203,2.24609 1.09863,1.31836 1.70899,2.78321 0.63476,1.44043 0.85449,3.39355 0.24414,1.95313 0.24414,4.12598 l -0.39063,1.5625 -27.73437,0 q 0,3.22265 0.63476,5.29785 0.63477,2.05078 2.09961,3.00293 1.46485,0.95215 3.85742,1.2207 2.39258,0.24414 5.90821,0.24414 3.22265,0 5.32226,-0.17089 2.12403,-0.19532 3.36914,-0.70801 1.24512,-0.5127 1.7334,-1.41602 0.5127,-0.92773 0.5127,-2.39258 l 4.6875,0 q 0,2.27051 -0.80567,3.88184 -0.78125,1.58691 -2.6123,2.58789 -1.83105,0.97656 -4.83398,1.41602 -2.97852,0.46386 -7.37305,0.46386 z m 0,-25.53711 q -2.34375,0 -4.19922,0.0977 -1.83106,0.0976 -3.22266,0.43945 -1.36719,0.31738 -2.34375,0.95215 -0.97656,0.61035 -1.58691,1.46484 -0.58594,0.83008 -0.87891,2.36817 -0.26855,1.51367 -0.26855,3.66211 l 23.4375,0 q 0,-2.85645 -0.61035,-4.46778 -0.61035,-1.63574 -1.92871,-2.68554 -1.31836,-1.04981 -3.39356,-1.44043 -2.07519,-0.39063 -5.00488,-0.39063 z" />
        <path
           id="path4208"
           style="font-style:normal;font-variant:normal;font-weight:normal;font-stretch:normal;font-size:50.00000381px;font-family:Michroma;-inkscape-font-specification:Michroma;text-align:start;text-anchor:start"
           d="m 293.07423,359.22066 4.6875,0 0,20.50782 1.5625,0 17.18751,-11.13282 7.03125,0 -19.92188,13.08594 20.70313,15.03906 -7.03125,0 -17.96876,-13.47656 -1.5625,0 0,13.47656 -4.6875,0 0,-37.5 z" />
      </g>
      <path
         style="display:inline;fill:none;fill-opacity:1;fill-rule:evenodd;stroke:#e41a1c;stroke-width:4.20000029;stroke-linecap:butt;stroke-linejoin:miter;stroke-miterlimit:4;stroke-dasharray:none;stroke-opacity:1"
         d="m 167.89671,4.8706135 159.33698,0"
         id="path5765-9-47"
         inkscape:connector-type="polyline"
         inkscape:connector-curvature="0"
         sodipodi:nodetypes="cc" />
      <g
         id="flowRoot4835-4-8"
         style="font-style:normal;font-variant:normal;font-weight:normal;font-stretch:normal;font-size:41.45429611px;line-height:125%;font-family:Chandas;-inkscape-font-specification:Chandas;letter-spacing:0px;word-spacing:0px;display:inline;fill:#000000;fill-opacity:1;stroke:none;stroke-width:1px;stroke-linecap:butt;stroke-linejoin:miter;stroke-opacity:1"
         transform="translate(-12.814241,-398.10894)">
        <path
           id="path4185"
           style="font-style:normal;font-variant:normal;font-weight:normal;font-stretch:normal;font-size:41.45429611px;font-family:'Eurostile Extended';-inkscape-font-specification:'Eurostile Extended';text-align:start;text-anchor:start"
           d="m 199.60742,421.23288 q 2.89307,0 4.96216,0.23804 2.06909,0.23803 3.47901,0.71411 1.42822,0.45776 2.27051,1.15356 0.84228,0.6958 1.30004,1.59302 0.45777,0.87891 0.58594,1.97754 0.14649,1.09863 0.14649,2.38037 0,1.28174 -0.23804,2.41699 -0.21973,1.11695 -0.80567,2.05079 -0.58593,0.93383 -1.59301,1.66626 -1.00708,0.73242 -2.56348,1.24511 -1.5564,0.5127 -3.75366,0.76905 -2.17896,0.27465 -5.10865,0.27465 l -4.6875,0 q -2.63671,0 -4.61425,-0.20141 -1.97754,-0.20142 -3.40577,-0.60425 -1.42822,-0.42114 -2.36206,-1.0437 -0.93384,-0.64087 -1.50146,-1.48316 -0.54932,-0.86059 -0.76905,-1.94091 -0.21972,-1.09864 -0.21972,-2.417 l 3.51562,0 q 0,1.64795 0.47608,2.58179 0.47607,0.93384 1.57471,1.40991 1.09863,0.45777 2.87475,0.58594 1.79444,0.10986 4.43115,0.10986 l 4.6875,0 q 3.07618,0 5.10865,-0.29296 2.03247,-0.29297 3.24096,-0.93384 1.2085,-0.64087 1.70289,-1.66626 0.49438,-1.0437 0.49438,-2.52686 0,-1.48315 -0.3479,-2.47192 -0.32959,-0.98877 -1.33667,-1.57471 -0.98877,-0.58594 -2.80151,-0.82397 -1.81275,-0.25635 -4.74244,-0.25635 l -4.83398,0 q -3.22266,0 -5.52979,-0.23804 -2.28882,-0.23804 -3.84521,-0.67749 -1.5564,-0.45776 -2.49024,-1.11694 -0.93383,-0.67749 -1.42822,-1.53809 -0.47607,-0.86059 -0.62256,-1.9043 -0.14648,-1.06201 -0.14648,-2.28881 0,-1.28174 0.21972,-2.38038 0.23804,-1.09863 0.8606,-1.97754 0.62256,-0.89721 1.70288,-1.59301 1.08032,-0.6958 2.76489,-1.15357 1.70289,-0.47607 4.08326,-0.71411 2.38037,-0.23804 5.60302,-0.23804 l 3.51563,0 q 2.63672,0 4.61426,0.20142 1.97754,0.18311 3.40576,0.60425 1.42822,0.40283 2.36206,1.02539 0.95215,0.60425 1.50147,1.46484 0.56762,0.84229 0.78735,1.92261 0.21973,1.08032 0.21973,2.39868 l -3.51563,0 q 0,-1.64795 -0.47607,-2.58179 -0.47608,-0.93383 -1.57471,-1.3916 -1.09863,-0.47607 -2.89307,-0.58593 -1.79443,-0.12818 -4.43115,-0.12818 l -3.51563,0 q -3.51562,0 -5.78613,0.25635 -2.27051,0.23804 -3.58887,0.82397 -1.31836,0.58594 -1.83105,1.57471 -0.5127,0.98877 -0.5127,2.47193 0,0.91552 0.12818,1.62963 0.12817,0.71412 0.51269,1.26343 0.40283,0.53101 1.11695,0.89722 0.71411,0.36621 1.88598,0.60425 1.17188,0.23803 2.85645,0.3479 1.70288,0.0916 4.04663,0.0916 l 4.83398,0 z" />
        <path
           id="path4187"
           style="font-style:normal;font-variant:normal;font-weight:normal;font-stretch:normal;font-size:37.50000381px;font-family:Michroma;-inkscape-font-specification:Michroma;text-align:start;text-anchor:start"
           d="m 216.45313,426.35983 q 0,-3.24096 0.6958,-5.36499 0.6958,-2.12402 2.23389,-3.36914 1.53808,-1.24512 3.9917,-1.7395 2.45361,-0.5127 5.96924,-0.5127 3.51562,0 5.96923,0.5127 2.45362,0.49438 3.9917,1.7395 1.53809,1.24512 2.23389,3.36914 0.6958,2.12403 0.6958,5.36499 0,3.24097 -0.6958,5.38331 -0.6958,2.14233 -2.23389,3.40576 -1.53808,1.26343 -3.9917,1.79443 -2.45361,0.5127 -5.96923,0.5127 -3.51563,0 -5.96924,-0.5127 -2.45362,-0.531 -3.9917,-1.79443 -1.53809,-1.26343 -2.23389,-3.40576 -0.6958,-2.14234 -0.6958,-5.38331 z m 3.51562,0 q 0,1.75782 0.12818,3.05787 0.12817,1.30004 0.47607,2.23388 0.36621,0.93384 1.00708,1.51978 0.64087,0.58594 1.68457,0.93384 1.0437,0.3479 2.52686,0.47607 1.50146,0.12817 3.55225,0.12817 1.75781,0 3.1311,-0.0732 1.3916,-0.0915 2.41699,-0.38452 1.0437,-0.29297 1.77612,-0.82397 0.73243,-0.54932 1.17188,-1.48316 0.45776,-0.93384 0.65918,-2.28882 0.21973,-1.37329 0.21973,-3.2959 0,-1.88598 -0.21973,-3.20434 -0.20142,-1.33667 -0.65918,-2.23389 -0.43945,-0.89722 -1.17188,-1.40991 -0.73242,-0.53101 -1.77612,-0.78735 -1.02539,-0.27466 -2.41699,-0.34791 -1.37329,-0.0732 -3.1311,-0.0732 -1.75782,0 -3.14942,0.0732 -1.37329,0.0732 -2.41699,0.34791 -1.02539,0.25634 -1.75781,0.78735 -0.73243,0.51269 -1.19019,1.40991 -0.43945,0.89722 -0.65918,2.23389 -0.20142,1.31836 -0.20142,3.20434 z" />
        <path
           id="path4189"
           style="font-style:normal;font-variant:normal;font-weight:normal;font-stretch:normal;font-size:37.50000381px;font-family:Michroma;-inkscape-font-specification:Michroma;text-align:start;text-anchor:start"
           d="m 268.60157,437.05319 -3.51562,0 0,-11.90185 q 0,-1.9043 -0.25635,-3.20435 -0.23804,-1.31836 -1.00708,-2.12402 -0.75073,-0.80567 -2.14233,-1.15357 -1.3733,-0.36621 -3.62549,-0.36621 -2.47193,0 -4.06495,0.42115 -1.59301,0.40283 -2.50854,1.15356 -0.91553,0.73242 -1.28174,1.77612 -0.3479,1.0437 -0.3479,2.32544 l 0,13.07373 -3.51562,0 0,-21.09375 3.51562,0 0,3.33252 q 0.0183,-0.0549 0.1648,-0.36621 0.14648,-0.31128 0.51269,-0.73242 0.38452,-0.43945 1.02539,-0.93384 0.65918,-0.49438 1.68457,-0.91553 1.0437,-0.42114 2.50855,-0.6958 1.46484,-0.27466 3.479,-0.27466 1.97754,0 3.42407,0.25635 1.46485,0.23804 2.49024,0.73242 1.0437,0.47608 1.68457,1.2085 0.65918,0.71411 1.0437,1.64795 0.31128,-0.49438 0.97046,-1.15356 0.65918,-0.65918 1.83105,-1.26343 1.19019,-0.60425 2.96631,-1.00708 1.77613,-0.42115 4.3396,-0.42115 2.10572,0 3.60718,0.29297 1.51978,0.27466 2.56348,0.84229 1.0437,0.54932 1.66626,1.37329 0.64087,0.82397 0.97046,1.92261 0.3479,1.08032 0.45776,2.4353 0.10986,1.33667 0.10986,2.91138 l 0,11.90185 -3.51562,0 0,-11.90185 q 0,-1.9043 -0.25635,-3.20435 -0.23804,-1.31836 -1.00708,-2.12402 -0.75073,-0.80567 -2.14233,-1.15357 -1.37329,-0.36621 -3.62549,-0.36621 -2.47193,0 -4.06494,0.42115 -1.59302,0.40283 -2.50855,1.15356 -0.91553,0.73242 -1.28174,1.77612 -0.3479,1.0437 -0.3479,2.32544 l 0,13.07373 z" />
        <path
           id="path4191"
           style="font-style:normal;font-variant:normal;font-weight:normal;font-stretch:normal;font-size:37.50000381px;font-family:Michroma;-inkscape-font-specification:Michroma;text-align:start;text-anchor:start"
           d="m 313.04128,434.16013 q -0.0549,0.21972 -0.82398,1.09863 -0.54931,0.65918 -1.46484,1.17188 -0.91553,0.49438 -2.45361,0.76904 -1.51978,0.29297 -4.01001,0.29297 -3.31421,0 -5.65796,-0.3479 -2.34375,-0.32959 -3.82691,-1.02539 -1.48315,-0.71412 -2.17895,-1.81275 -0.67749,-1.09863 -0.67749,-2.61841 0,-1.59301 0.36621,-2.69165 0.38452,-1.11694 1.09863,-1.86767 0.73242,-0.75074 1.75781,-1.17188 1.02539,-0.42114 2.32544,-0.64087 1.31836,-0.21972 2.87476,-0.27466 1.55639,-0.0549 3.31421,-0.0549 2.50854,0 4.19311,0.21973 1.68457,0.20142 2.74658,0.53101 1.08033,0.31127 1.62964,0.67749 0.54932,0.36621 0.78736,0.67749 0,-2.05079 -0.18311,-3.49732 -0.16479,-1.44653 -0.56763,-2.41699 -0.38452,-0.97046 -1.00708,-1.53809 -0.62255,-0.58594 -1.53808,-0.8789 -0.89722,-0.29297 -2.10571,-0.36621 -1.2085,-0.0916 -2.7649,-0.0916 -2.41699,0 -4.01001,0.12818 -1.59302,0.10986 -2.52685,0.45776 -0.93384,0.3479 -1.31836,0.97046 -0.38452,0.60425 -0.38452,1.59302 l -3.51563,0 q 0,-1.66626 0.58594,-2.81983 0.60425,-1.15356 1.97754,-1.86767 1.3916,-0.73243 3.6438,-1.06202 2.25219,-0.32959 5.54809,-0.32959 3.22266,0 5.45655,0.53101 2.23388,0.53101 3.60717,1.86768 1.39161,1.33667 1.99585,3.60717 0.62256,2.2522 0.62256,5.7129 l 0,9.96093 -3.51562,0 0,-2.89306 z m -8.16651,0.54931 q 2.32544,0 3.88184,-0.21972 1.57471,-0.21973 2.52685,-0.65918 0.95215,-0.43946 1.35499,-1.09864 0.40283,-0.65917 0.40283,-1.53808 0,-0.87891 -0.47608,-1.48316 -0.45776,-0.62255 -1.55639,-1.00708 -1.08033,-0.38452 -2.87476,-0.54931 -1.79443,-0.18311 -4.43115,-0.18311 -2.63672,0 -4.26636,0.0915 -1.61133,0.0916 -2.49023,0.42115 -0.87891,0.32959 -1.19019,0.97046 -0.29297,0.64087 -0.29297,1.7395 0,1.09863 0.31128,1.79443 0.32959,0.67749 1.31836,1.06201 0.98877,0.38453 2.83813,0.53101 1.86768,0.12817 4.94385,0.12817 z" />
        <path
           id="path4193"
           style="font-style:normal;font-variant:normal;font-weight:normal;font-stretch:normal;font-size:37.50000381px;font-family:Michroma;-inkscape-font-specification:Michroma;text-align:start;text-anchor:start"
           d="m 341.77053,427.67819 q 0,2.69165 -0.43946,4.5044 -0.43945,1.79443 -1.48315,2.87475 -1.02539,1.08033 -2.70996,1.53809 -1.68457,0.45776 -4.1565,0.45776 -2.39868,0 -4.02832,-0.36621 -1.62964,-0.36621 -2.63672,-1.24511 -1.00708,-0.87891 -1.44653,-2.34375 -0.43945,-1.46485 -0.43945,-3.66211 l 0,-10.5835 -4.3396,0 0,-2.89307 4.3396,0 0,-5.76782 3.51562,0 0,5.76782 13.23853,0 0,2.89307 -13.23853,0 0,10.5835 q 0,1.75781 0.25635,2.70996 0.27466,0.95215 0.86059,1.3916 0.58594,0.43945 1.53809,0.51269 0.97046,0.0733 2.36206,0.0733 1.09863,0 1.95923,-0.0366 0.87891,-0.0366 1.51978,-0.21973 0.65918,-0.20142 1.11694,-0.58594 0.45776,-0.40283 0.73242,-1.11694 0.29297,-0.71411 0.42114,-1.79444 0.12818,-1.09863 0.12818,-2.69165 l 2.92969,0 z" />
        <path
           id="path4195"
           style="font-style:normal;font-variant:normal;font-weight:normal;font-stretch:normal;font-size:37.50000381px;font-family:Michroma;-inkscape-font-specification:Michroma;text-align:start;text-anchor:start"
           d="m 347.6299,415.95944 3.51562,0 0,21.09375 -3.51562,0 0,-21.09375 z m 3.51562,-3.51562 -3.51562,0 0,-3.51563 3.51562,0 0,3.51563 z" />
        <path
           id="path4197"
           style="font-style:normal;font-variant:normal;font-weight:normal;font-stretch:normal;font-size:37.50000381px;font-family:Michroma;-inkscape-font-specification:Michroma;text-align:start;text-anchor:start"
           d="m 356.41896,426.54294 q 0,-2.19727 0.21973,-3.88184 0.21972,-1.68457 0.76904,-2.92968 0.56763,-1.24512 1.50147,-2.0691 0.95214,-0.84228 2.38037,-1.35498 1.44653,-0.51269 3.42407,-0.73242 1.97754,-0.21973 4.61426,-0.21973 3.51562,0 5.78613,0.43946 2.27051,0.42114 3.58887,1.31836 1.31836,0.8789 1.83105,2.25219 0.5127,1.35498 0.5127,3.24097 l -3.51563,0 q 0,-0.67749 -0.0366,-1.26343 -0.0366,-0.58593 -0.27466,-1.06201 -0.21972,-0.47607 -0.71411,-0.84228 -0.49438,-0.38453 -1.40991,-0.64087 -0.91553,-0.25635 -2.32544,-0.38452 -1.3916,-0.12818 -3.44238,-0.12818 -2.34375,0 -3.95508,0.1648 -1.59302,0.16479 -2.63672,0.54931 -1.0437,0.36621 -1.61133,1.00708 -0.56763,0.62256 -0.82397,1.53809 -0.25635,0.91553 -0.31128,2.16064 -0.0366,1.22681 -0.0366,2.83814 0,1.57471 0.0366,2.80151 0.0549,1.2085 0.31128,2.12403 0.25634,0.89721 0.82397,1.51977 0.56763,0.62256 1.61133,1.00708 1.0437,0.38452 2.63672,0.54932 1.61133,0.16479 3.95508,0.16479 2.05078,0 3.44238,-0.14648 1.40991,-0.14648 2.32544,-0.42114 0.91553,-0.27466 1.40991,-0.67749 0.49439,-0.40284 0.71411,-0.91553 0.23804,-0.53101 0.27466,-1.15357 0.0366,-0.64086 0.0366,-1.37329 l 3.51563,0 q 0,1.92261 -0.5127,3.33252 -0.51269,1.40992 -1.83105,2.32544 -1.31836,0.89722 -3.58887,1.33667 -2.27051,0.43946 -5.78613,0.43946 -2.63672,0 -4.61426,-0.21973 -1.97754,-0.21973 -3.42407,-0.71411 -1.42823,-0.5127 -2.38037,-1.33667 -0.93384,-0.82398 -1.50147,-2.03247 -0.54932,-1.2085 -0.76904,-2.83814 -0.21973,-1.64795 -0.21973,-3.77197 z" />
      </g>
      <g
         transform="translate(0.00609577,-240.00609)"
         id="g5381">
        <path
           inkscape:connector-curvature="0"
           id="path5300"
           style="fill:#ffffff;stroke:none;stroke-width:4.18779993;stroke-linecap:butt;stroke-linejoin:miter;stroke-miterlimit:10;stroke-dasharray:none;stroke-opacity:1"
           d="m 117.90608,240.00004 c 0,-31.98037 -25.925273,-57.90611 -57.906104,-57.90611 -31.980369,0 -57.9060994,25.92574 -57.9060994,57.90611 0,31.98036 25.9257304,57.9061 57.9060994,57.9061 31.980831,0 57.906104,-25.92574 57.906104,-57.9061 z" />
        <path
           inkscape:connector-curvature="0"
           id="path5302"
           d="m 45.33005,213.19145 -3.867187,1.67382 -4.886719,30.77734 -10.748047,2.93164 0,38.10743 -0.0332,0.0469 c 9.584012,7.02713 21.41042,11.17773 34.205078,11.17773 25.579545,0 47.285075,-16.5858 54.949215,-39.58985 l 0.0957,0.0312 -0.0898,-0.0527 c 1.91353,-5.75078 2.95117,-11.90144 2.95117,-18.29492 0,-3.51077 -0.31177,-6.94701 -0.91016,-10.28516 L 45.33005,213.19145 Z"
           style="fill:#f49c9d;fill-opacity:1;fill-rule:nonzero;stroke:none" />
        <path
           d="m 115.04447,258.34822 -73.582435,-43.48285 -4.885301,30.778 -10.747755,2.93146 0,38.10619 -0.0335,0.0479 c 9.584013,7.02713 21.409894,11.17724 34.204553,11.17724 25.579547,0 47.284908,-16.58555 54.949048,-39.58961"
           style="fill:#e41a1c;fill-opacity:1;fill-rule:nonzero;stroke:none"
           id="path5304"
           inkscape:connector-curvature="0" />
        <path
           d="m 117.8941,240.00614 c 0,-31.97712 -25.922642,-57.90023 -57.900222,-57.90023 -31.977116,0 -57.9002148,25.92311 -57.9002148,57.90023 0,31.97711 25.9230988,57.90021 57.9002148,57.90021 31.97758,0 57.900222,-25.9231 57.900222,-57.90021 z"
           style="fill:none;stroke:#000000;stroke-width:4.19957352;stroke-linecap:butt;stroke-linejoin:miter;stroke-miterlimit:10;stroke-dasharray:none;stroke-opacity:1"
           id="path5306"
           inkscape:connector-curvature="0" />
      </g>
    </g>
  </g>
</svg>
