<?xml version="1.0" encoding="UTF-8" standalone="no"?>
<!-- Created with Inkscape (http://www.inkscape.org/) -->

<svg
   xmlns:dc="http://purl.org/dc/elements/1.1/"
   xmlns:cc="http://creativecommons.org/ns#"
   xmlns:rdf="http://www.w3.org/1999/02/22-rdf-syntax-ns#"
   xmlns:svg="http://www.w3.org/2000/svg"
   xmlns="http://www.w3.org/2000/svg"
   xmlns:sodipodi="http://sodipodi.sourceforge.net/DTD/sodipodi-0.dtd"
   xmlns:inkscape="http://www.inkscape.org/namespaces/inkscape"
   width="380"
   height="120"
   viewBox="0 0 380.00002 120.00001"
   id="svg4924"
   version="1.1"
   inkscape:version="0.91 r13725"
   sodipodi:docname="Sarek_exome.svg"
   inkscape:export-filename="Sarek_germline_logo.png"
   inkscape:export-xdpi="90"
   inkscape:export-ydpi="90">
  <defs
     id="defs4926">
    <clipPath
       clipPathUnits="userSpaceOnUse"
       id="clipPath202">
      <path
         d="M 0,600 1500,600 1500,0 0,0 0,600 Z"
         id="path204"
         inkscape:connector-curvature="0" />
    </clipPath>
    <clipPath
       clipPathUnits="userSpaceOnUse"
       id="clipPath158">
      <path
         d="M 0,600 1500,600 1500,0 0,0 0,600 Z"
         id="path160"
         inkscape:connector-curvature="0" />
    </clipPath>
    <clipPath
       clipPathUnits="userSpaceOnUse"
       id="clipPath86">
      <path
         d="M 0,600 1500,600 1500,0 0,0 0,600 Z"
         id="path88"
         inkscape:connector-curvature="0" />
    </clipPath>
    <clipPath
       clipPathUnits="userSpaceOnUse"
       id="clipPath94">
      <path
         d="m 804.509,211 164.286,0 0,-96.981 -164.286,0 0,96.981 z"
         id="path96"
         inkscape:connector-curvature="0" />
    </clipPath>
    <clipPath
       clipPathUnits="userSpaceOnUse"
       id="clipPath110">
      <path
         d="m 804.597,506 164.286,0 0,-96.981 -164.286,0 0,96.981 z"
         id="path112"
         inkscape:connector-curvature="0" />
    </clipPath>
    <clipPath
       clipPathUnits="userSpaceOnUse"
       id="clipPath126">
      <path
         d="m 133.598,209 164.285,0 0,-96.981 -164.285,0 0,96.981 z"
         id="path128"
         inkscape:connector-curvature="0" />
    </clipPath>
    <clipPath
       clipPathUnits="userSpaceOnUse"
       id="clipPath142">
      <path
         d="m 133.686,504 164.286,0 0,-96.981 -164.286,0 0,96.981 z"
         id="path144"
         inkscape:connector-curvature="0" />
    </clipPath>
    <clipPath
       clipPathUnits="userSpaceOnUse"
       id="clipPath54">
      <path
         d="M 0,600 1500,600 1500,0 0,0 0,600 Z"
         id="path56"
         inkscape:connector-curvature="0" />
    </clipPath>
    <clipPath
       clipPathUnits="userSpaceOnUse"
       id="clipPath30">
      <path
         d="M 0,600 1500,600 1500,0 0,0 0,600 Z"
         id="path32"
         inkscape:connector-curvature="0" />
    </clipPath>
  </defs>
  <sodipodi:namedview
     id="base"
     pagecolor="#ffffff"
     bordercolor="#666666"
     borderopacity="1.0"
     inkscape:pageopacity="0.0"
     inkscape:pageshadow="2"
     inkscape:zoom="1.979899"
     inkscape:cx="21.043729"
     inkscape:cy="57.174547"
     inkscape:document-units="px"
     inkscape:current-layer="layer3"
     showgrid="false"
     fit-margin-top="0"
     fit-margin-left="0"
     fit-margin-right="0"
     fit-margin-bottom="0"
     units="px"
     width="200mm"
     inkscape:window-width="1920"
     inkscape:window-height="1007"
     inkscape:window-x="0"
     inkscape:window-y="0"
     inkscape:window-maximized="1" />
  <metadata
     id="metadata4929">
    <rdf:RDF>
      <cc:Work
         rdf:about="">
        <dc:format>image/svg+xml</dc:format>
        <dc:type
           rdf:resource="http://purl.org/dc/dcmitype/StillImage" />
        <dc:title />
      </cc:Work>
    </rdf:RDF>
  </metadata>
  <g
     inkscape:groupmode="layer"
     id="layer3"
     inkscape:label="Exome"
     style="display:inline"
     transform="translate(2.7783959e-5,59.99996)">
    <g
       id="g4226">
      <g
         id="g4211">
        <g
           transform="translate(2.9094459,-271.6004)"
           style="font-style:normal;font-variant:normal;font-weight:normal;font-stretch:normal;font-size:52.46426392px;line-height:125%;font-family:Chandas;-inkscape-font-specification:Chandas;letter-spacing:0px;word-spacing:0px;display:inline;fill:#000000;fill-opacity:1;stroke:none;stroke-width:1px;stroke-linecap:butt;stroke-linejoin:miter;stroke-opacity:1"
           id="flowRoot5674-6-2">
          <path
             d="m 161.33594,249.16012 q 3.85742,0 6.61621,0.31738 2.75879,0.31738 4.63867,0.95215 1.9043,0.61035 3.02735,1.53808 1.12304,0.92774 1.7334,2.12403 0.61035,1.17187 0.78125,2.63672 0.19531,1.46484 0.19531,3.17382 0,1.70899 -0.31738,3.22266 -0.29297,1.48926 -1.07422,2.73438 -0.78125,1.24511 -2.12403,2.22168 -1.34277,0.97656 -3.41797,1.66015 -2.07519,0.6836 -5.00488,1.02539 -2.90527,0.36621 -6.81152,0.36621 l -6.25,0 q -3.51563,0 -6.15235,-0.26855 -2.63672,-0.26856 -4.54101,-0.80567 -1.9043,-0.56152 -3.14942,-1.3916 -1.24512,-0.85449 -2.00195,-1.97754 -0.73242,-1.14746 -1.02539,-2.58789 -0.29297,-1.46484 -0.29297,-3.22265 l 4.6875,0 q 0,2.19726 0.63477,3.44238 0.63476,1.24512 2.0996,1.87988 1.46485,0.61035 3.83301,0.78125 2.39258,0.14649 5.90821,0.14649 l 6.25,0 q 4.10156,0 6.81152,-0.39063 2.70996,-0.39062 4.32129,-1.24512 1.61133,-0.85449 2.27051,-2.22168 0.65918,-1.3916 0.65918,-3.36914 0,-1.97754 -0.46387,-3.29589 -0.43945,-1.31836 -1.78223,-2.09961 -1.31836,-0.78125 -3.73535,-1.09864 -2.41699,-0.34179 -6.32324,-0.34179 l -6.44531,0 q -4.29688,0 -7.37305,-0.31739 -3.05176,-0.31738 -5.12695,-0.90332 -2.0752,-0.61035 -3.32032,-1.48926 -1.24511,-0.90332 -1.90429,-2.05078 -0.63477,-1.14746 -0.83008,-2.53906 -0.19531,-1.41602 -0.19531,-3.05176 0,-1.70898 0.29296,-3.17383 0.31739,-1.46484 1.14747,-2.63671 0.83007,-1.19629 2.2705,-2.12403 1.44043,-0.92773 3.68653,-1.53808 2.2705,-0.63477 5.44433,-0.95215 3.17383,-0.31739 7.47071,-0.31739 l 4.6875,0 q 3.51562,0 6.15234,0.26856 2.63672,0.24414 4.54102,0.80566 1.90429,0.53711 3.14941,1.36719 1.26953,0.80566 2.00195,1.95313 0.75684,1.12304 1.04981,2.56347 0.29297,1.44043 0.29297,3.19825 l -4.6875,0 q 0,-2.19727 -0.63477,-3.44239 -0.63476,-1.24512 -2.09961,-1.85547 -1.46484,-0.63476 -3.85742,-0.78125 -2.39258,-0.1709 -5.9082,-0.1709 l -4.6875,0 q -4.6875,0 -7.71485,0.3418 -3.02734,0.31738 -4.78515,1.09863 -1.75782,0.78125 -2.44141,2.09961 -0.68359,1.31836 -0.68359,3.2959 0,1.22071 0.17089,2.17285 0.1709,0.95215 0.6836,1.68457 0.53711,0.70801 1.48926,1.19629 0.95214,0.48829 2.51464,0.80567 1.5625,0.31738 3.8086,0.46387 2.27051,0.12207 5.39551,0.12207 l 6.44531,0 z"
             style="font-style:normal;font-variant:normal;font-weight:normal;font-stretch:normal;font-size:50.00000381px;font-family:Michroma;-inkscape-font-specification:Michroma;text-align:start;text-anchor:start"
             id="path4196" />
          <path
             d="m 212.58106,266.39645 q -0.0732,0.29296 -1.09863,1.46484 -0.73242,0.87891 -1.95313,1.5625 -1.2207,0.65918 -3.27148,1.02539 -2.02637,0.39062 -5.34668,0.39062 -4.41895,0 -7.54395,-0.46386 -3.125,-0.43946 -5.10254,-1.36719 -1.97754,-0.95215 -2.90527,-2.41699 -0.90332,-1.46485 -0.90332,-3.49121 0,-2.12403 0.48828,-3.58887 0.5127,-1.48926 1.46484,-2.49024 0.97657,-1.00097 2.34375,-1.5625 1.36719,-0.56152 3.10059,-0.85449 1.75781,-0.29297 3.83301,-0.36621 2.07519,-0.0732 4.41894,-0.0732 3.34473,0 5.59082,0.29297 2.2461,0.26855 3.66211,0.70801 1.44043,0.41503 2.17286,0.90332 0.73242,0.48828 1.0498,0.90332 0,-2.73438 -0.24414,-4.66309 -0.21973,-1.92871 -0.75684,-3.22266 -0.51269,-1.29394 -1.34277,-2.05078 -0.83008,-0.78125 -2.05078,-1.17187 -1.19629,-0.39063 -2.80762,-0.48828 -1.61133,-0.12207 -3.68652,-0.12207 -3.22266,0 -5.34668,0.17089 -2.12403,0.14649 -3.36914,0.61036 -1.24512,0.46386 -1.75782,1.29394 -0.51269,0.80566 -0.51269,2.12402 l -4.6875,0 q 0,-2.22168 0.78125,-3.75976 0.80566,-1.53809 2.63672,-2.49024 1.85547,-0.97656 4.8584,-1.41601 3.00293,-0.43946 7.39746,-0.43946 4.29687,0 7.27539,0.70801 2.97852,0.70801 4.80957,2.49024 1.85547,1.78222 2.66113,4.80957 0.83008,3.00293 0.83008,7.61719 l 0,13.28125 -4.6875,0 0,-3.85742 z m -10.88867,0.73242 q 3.10058,0 5.17578,-0.29297 2.09961,-0.29297 3.36914,-0.87891 1.26953,-0.58594 1.80664,-1.46484 0.53711,-0.87891 0.53711,-2.05078 0,-1.17188 -0.63476,-1.97754 -0.61036,-0.83008 -2.0752,-1.34278 -1.44043,-0.51269 -3.83301,-0.73242 -2.39258,-0.24414 -5.9082,-0.24414 -3.51563,0 -5.68848,0.12207 -2.14844,0.12207 -3.32031,0.56153 -1.17188,0.43945 -1.58692,1.29394 -0.39062,0.85449 -0.39062,2.31934 0,1.46484 0.41504,2.39257 0.43945,0.90333 1.75781,1.41602 1.31836,0.5127 3.78418,0.70801 2.49024,0.1709 6.5918,0.1709 z"
             style="font-style:normal;font-variant:normal;font-weight:normal;font-stretch:normal;font-size:50.00000381px;font-family:Michroma;-inkscape-font-specification:Michroma;text-align:start;text-anchor:start"
             id="path4198" />
          <path
             d="m 247.76173,251.28414 q 0,-1.75781 -0.26856,-2.90527 -0.24414,-1.17188 -1.19629,-1.85547 -0.95214,-0.70801 -2.83203,-0.97657 -1.85547,-0.29296 -5.07812,-0.29296 -3.14942,0 -5.12696,0.56152 -1.97753,0.53711 -3.10058,1.53808 -1.12305,1.00098 -1.53809,2.39258 -0.39062,1.3916 -0.39062,3.10059 l 0,17.40723 -4.6875,0 0,-28.125 4.6875,0 0,4.46777 q 0.24414,-0.75684 0.90332,-1.66016 0.65918,-0.92773 2.00195,-1.70898 1.34277,-0.80567 3.4668,-1.34278 2.14844,-0.53711 5.34668,-0.53711 3.66211,0 5.95703,0.65918 2.29492,0.63477 3.56445,1.9043 1.29395,1.24512 1.7334,3.10059 0.46387,1.85547 0.46387,4.27246 l -3.90625,0 z"
             style="font-style:normal;font-variant:normal;font-weight:normal;font-stretch:normal;font-size:50.00000381px;font-family:Michroma;-inkscape-font-specification:Michroma;text-align:start;text-anchor:start"
             id="path4200" />
          <path
             d="m 271.19923,270.79098 q -4.6875,0 -7.95899,-0.63477 -3.27148,-0.65918 -5.32226,-2.24609 -2.05078,-1.58692 -2.97852,-4.24805 -0.92773,-2.66113 -0.92773,-6.68945 0,-4.61426 0.92773,-7.61719 0.92774,-3.02735 2.97852,-4.80957 2.05078,-1.78223 5.32226,-2.49024 3.27149,-0.70801 7.95899,-0.70801 3.34472,0 5.78613,0.48829 2.46582,0.48828 4.19922,1.41601 1.75781,0.92774 2.83203,2.2461 1.09863,1.31836 1.70899,2.7832 0.63476,1.44043 0.85449,3.39355 0.24414,1.95313 0.24414,4.12598 l -0.39063,1.5625 -27.73437,0 q 0,3.22266 0.63476,5.29785 0.63477,2.05078 2.09961,3.00293 1.46485,0.95215 3.85742,1.22071 2.39258,0.24414 5.90821,0.24414 3.22265,0 5.32226,-0.1709 2.12403,-0.19531 3.36914,-0.70801 1.24512,-0.51269 1.7334,-1.41602 0.5127,-0.92773 0.5127,-2.39257 l 4.6875,0 q 0,2.2705 -0.80567,3.88183 -0.78125,1.58692 -2.6123,2.58789 -1.83105,0.97657 -4.83398,1.41602 -2.97852,0.46387 -7.37305,0.46387 z m 0,-25.53711 q -2.34375,0 -4.19922,0.0976 -1.83106,0.0977 -3.22266,0.43945 -1.36719,0.31739 -2.34375,0.95215 -0.97656,0.61035 -1.58691,1.46485 -0.58594,0.83008 -0.87891,2.36816 -0.26855,1.51367 -0.26855,3.66211 l 23.4375,0 q 0,-2.85644 -0.61035,-4.46777 -0.61035,-1.63575 -1.92871,-2.68555 -1.31836,-1.0498 -3.39356,-1.44043 -2.07519,-0.39062 -5.00488,-0.39062 z"
             style="font-style:normal;font-variant:normal;font-weight:normal;font-stretch:normal;font-size:50.00000381px;font-family:Michroma;-inkscape-font-specification:Michroma;text-align:start;text-anchor:start"
             id="path4202" />
          <path
             d="m 293.07423,232.75386 4.6875,0 0,20.50782 1.5625,0 17.18751,-11.13281 7.03125,0 -19.92188,13.08593 20.70313,15.03907 -7.03125,0 -17.96876,-13.47657 -1.5625,0 0,13.47657 -4.6875,0 0,-37.50001 z"
             style="font-style:normal;font-variant:normal;font-weight:normal;font-stretch:normal;font-size:50.00000381px;font-family:Michroma;-inkscape-font-specification:Michroma;text-align:start;text-anchor:start"
             id="path4204" />
        </g>
        <path
           sodipodi:nodetypes="cc"
           inkscape:connector-curvature="0"
           inkscape:connector-type="polyline"
           id="path5765-8"
           d="m 167.8967,4.8706135 159.33699,0"
           style="display:inline;fill:none;fill-opacity:1;fill-rule:evenodd;stroke:#974ea2;stroke-width:4.20000029;stroke-linecap:butt;stroke-linejoin:miter;stroke-miterlimit:4;stroke-dasharray:none;stroke-opacity:1" />
        <g
           transform="translate(-13.488069,-271.4019)"
           style="font-style:normal;font-variant:normal;font-weight:normal;font-stretch:normal;font-size:41.45429611px;line-height:125%;font-family:Chandas;-inkscape-font-specification:Chandas;letter-spacing:0px;word-spacing:0px;display:inline;fill:#000000;fill-opacity:1;stroke:none;stroke-width:1px;stroke-linecap:butt;stroke-linejoin:miter;stroke-opacity:1"
           id="flowRoot4845-2-2">
          <path
             d="m 181.38477,310.5903 0,-28.125 28.125,0 0,2.92969 -24.60938,0 0,9.375 23.4375,0 0,2.92969 -23.4375,0 0,9.96094 24.60938,0 0,2.92968 -28.125,0 z"
             style="font-style:normal;font-variant:normal;font-weight:normal;font-stretch:normal;font-size:41.45429611px;font-family:'Eurostile Extended';-inkscape-font-specification:'Eurostile Extended';text-align:start;text-anchor:start"
             id="path4185" />
          <path
             d="m 234.0459,310.5903 4.68751,0 -10.80323,-10.74829 10.29053,-10.34546 -4.6875,0 -7.85523,8.1482 -8.03833,-8.1482 -4.6875,0 10.29053,10.36377 -10.80322,10.72998 4.6875,0 8.45947,-8.82568 8.45947,8.82568 z"
             style="font-style:normal;font-variant:normal;font-weight:normal;font-stretch:normal;font-size:37.50000381px;font-family:Michroma;-inkscape-font-specification:Michroma;text-align:start;text-anchor:start"
             id="path4187" />
          <path
             d="m 240.49122,299.89694 q 0,-3.24096 0.6958,-5.36499 0.6958,-2.12402 2.23389,-3.36914 1.53808,-1.24512 3.9917,-1.7395 2.45361,-0.5127 5.96924,-0.5127 3.51562,0 5.96923,0.5127 2.45362,0.49438 3.9917,1.7395 1.53809,1.24512 2.23389,3.36914 0.6958,2.12403 0.6958,5.36499 0,3.24097 -0.6958,5.3833 -0.6958,2.14234 -2.23389,3.40577 -1.53808,1.26342 -3.9917,1.79443 -2.45361,0.5127 -5.96923,0.5127 -3.51563,0 -5.96924,-0.5127 -2.45362,-0.53101 -3.9917,-1.79443 -1.53809,-1.26343 -2.23389,-3.40577 -0.6958,-2.14233 -0.6958,-5.3833 z m 3.51562,0 q 0,1.75782 0.12818,3.05786 0.12817,1.30005 0.47607,2.23389 0.36621,0.93384 1.00708,1.51978 0.64087,0.58593 1.68457,0.93384 1.0437,0.3479 2.52686,0.47607 1.50146,0.12817 3.55225,0.12817 1.75781,0 3.1311,-0.0732 1.3916,-0.0916 2.41699,-0.38452 1.0437,-0.29297 1.77612,-0.82397 0.73243,-0.54932 1.17188,-1.48316 0.45776,-0.93384 0.65918,-2.28882 0.21973,-1.37329 0.21973,-3.2959 0,-1.88598 -0.21973,-3.20434 -0.20142,-1.33667 -0.65918,-2.23389 -0.43945,-0.89722 -1.17188,-1.40991 -0.73242,-0.53101 -1.77612,-0.78736 -1.02539,-0.27465 -2.41699,-0.3479 -1.37329,-0.0732 -3.1311,-0.0732 -1.75782,0 -3.14942,0.0732 -1.37329,0.0732 -2.41699,0.3479 -1.02539,0.25635 -1.75781,0.78736 -0.73243,0.51269 -1.19019,1.40991 -0.43945,0.89722 -0.65918,2.23389 -0.20142,1.31836 -0.20142,3.20434 z"
             style="font-style:normal;font-variant:normal;font-weight:normal;font-stretch:normal;font-size:37.50000381px;font-family:Michroma;-inkscape-font-specification:Michroma;text-align:start;text-anchor:start"
             id="path4189" />
          <path
             d="m 292.63966,310.5903 -3.51563,0 0,-11.90185 q 0,-1.9043 -0.25634,-3.20435 -0.23804,-1.31836 -1.00708,-2.12402 -0.75074,-0.80567 -2.14234,-1.15357 -1.37329,-0.36621 -3.62549,-0.36621 -2.47192,0 -4.06494,0.42114 -1.59302,0.40284 -2.50854,1.15357 -0.91553,0.73242 -1.28174,1.77612 -0.3479,1.0437 -0.3479,2.32544 l 0,13.07373 -3.51563,0 0,-21.09375 3.51563,0 0,3.33252 q 0.0183,-0.0549 0.16479,-0.36621 0.14649,-0.31128 0.5127,-0.73242 0.38452,-0.43945 1.02539,-0.93384 0.65918,-0.49438 1.68457,-0.91553 1.0437,-0.42114 2.50854,-0.6958 1.46485,-0.27466 3.47901,-0.27466 1.97754,0 3.42407,0.25635 1.46484,0.23804 2.49023,0.73242 1.04371,0.47608 1.68458,1.2085 0.65918,0.71411 1.0437,1.64795 0.31128,-0.49439 0.97046,-1.15357 0.65918,-0.65918 1.83105,-1.26342 1.19019,-0.60425 2.96631,-1.00708 1.77612,-0.42115 4.3396,-0.42115 2.10571,0 3.60718,0.29297 1.51977,0.27466 2.56347,0.84229 1.04371,0.54931 1.66626,1.37329 0.64087,0.82397 0.97046,1.92261 0.3479,1.08032 0.45777,2.4353 0.10986,1.33667 0.10986,2.91138 l 0,11.90185 -3.51562,0 0,-11.90185 q 0,-1.9043 -0.25635,-3.20435 -0.23804,-1.31836 -1.00708,-2.12402 -0.75074,-0.80567 -2.14234,-1.15357 -1.37329,-0.36621 -3.62549,-0.36621 -2.47192,0 -4.06494,0.42114 -1.59302,0.40284 -2.50854,1.15357 -0.91553,0.73242 -1.28174,1.77612 -0.3479,1.0437 -0.3479,2.32544 l 0,13.07373 z"
             style="font-style:normal;font-variant:normal;font-weight:normal;font-stretch:normal;font-size:37.50000381px;font-family:Michroma;-inkscape-font-specification:Michroma;text-align:start;text-anchor:start"
             id="path4191" />
          <path
             d="m 328.38185,310.99314 q -3.51562,0 -5.96924,-0.47608 -2.45361,-0.49438 -3.9917,-1.68457 -1.53808,-1.19018 -2.23388,-3.18603 -0.6958,-1.99585 -0.6958,-5.01709 0,-3.4607 0.6958,-5.7129 0.6958,-2.2705 2.23388,-3.60717 1.53809,-1.33667 3.9917,-1.86768 2.45362,-0.53101 5.96924,-0.53101 2.50855,0 4.3396,0.36621 1.84937,0.36622 3.14942,1.06202 1.31836,0.6958 2.12402,1.68457 0.82398,0.98877 1.28174,2.0874 0.47607,1.08032 0.64087,2.54517 0.1831,1.46484 0.1831,3.09448 l -0.29296,1.17187 -20.80079,0 q 0,2.417 0.47608,3.97339 0.47607,1.53809 1.5747,2.2522 1.09864,0.71411 2.89307,0.91553 1.79443,0.1831 4.43115,0.1831 2.417,0 3.9917,-0.12817 1.59302,-0.14648 2.52686,-0.53101 0.93384,-0.38452 1.30005,-1.06201 0.38452,-0.6958 0.38452,-1.79443 l 3.51562,0 q 0,1.70288 -0.60424,2.91138 -0.58594,1.19018 -1.95923,1.94091 -1.37329,0.73243 -3.62549,1.06202 -2.23389,0.3479 -5.52979,0.3479 z m 0,-19.15284 q -1.75781,0 -3.14941,0.0732 -1.37329,0.0732 -2.41699,0.32959 -1.02539,0.23804 -1.75782,0.71412 -0.73242,0.45776 -1.19018,1.09863 -0.43946,0.62256 -0.65918,1.77612 -0.20142,1.13526 -0.20142,2.74658 l 17.57813,0 q 0,-2.14233 -0.45777,-3.35083 -0.45776,-1.2268 -1.44653,-2.01416 -0.98877,-0.78735 -2.54516,-1.08032 -1.5564,-0.29297 -3.75367,-0.29297 z"
             style="font-style:normal;font-variant:normal;font-weight:normal;font-stretch:normal;font-size:37.50000381px;font-family:Michroma;-inkscape-font-specification:Michroma;text-align:start;text-anchor:start"
             id="path4193" />
        </g>
      </g>
      <g
         transform="translate(0.00609577,-120.01829)"
         id="g5375">
        <path
           d="m 117.90608,120.00004 c 0,-31.98037 -25.925273,-57.90611 -57.906104,-57.90611 -31.980369,0 -57.9060994,25.92574 -57.9060994,57.90611 0,31.98036 25.9257304,57.9061 57.9060994,57.9061 31.980831,0 57.906104,-25.92574 57.906104,-57.9061 z"
           style="fill:#ffffff;stroke:none;stroke-width:4.18779993;stroke-linecap:butt;stroke-linejoin:miter;stroke-miterlimit:10;stroke-dasharray:none;stroke-opacity:1"
           id="path5290"
           inkscape:connector-curvature="0" />
        <path
           style="fill:#d6b5db;fill-opacity:1;fill-rule:nonzero;stroke:none"
           d="m 45.33005,93.19145 -3.867187,1.67382 -4.886719,30.77734 -10.748047,2.93164 0,38.10743 -0.0332,0.0469 c 9.584012,7.02713 21.41042,11.17773 34.205078,11.17773 25.579545,0 47.285075,-16.5858 54.949215,-39.58985 l 0.0957,0.0312 -0.0898,-0.0527 c 1.91353,-5.75078 2.95117,-11.90144 2.95117,-18.29492 0,-3.51077 -0.31177,-6.94701 -0.91016,-10.28516 L 45.33005,93.19145 Z"
           id="path5292"
           inkscape:connector-curvature="0" />
        <path
           inkscape:connector-curvature="0"
           id="path5294"
           style="fill:#974ea2;fill-opacity:1;fill-rule:nonzero;stroke:none"
           d="m 115.04447,138.34822 -73.582435,-43.48285 -4.885301,30.778 -10.747755,2.93146 0,38.10619 -0.0335,0.0479 c 9.584013,7.02713 21.409894,11.17724 34.204553,11.17724 25.579547,0 47.284908,-16.58555 54.949048,-39.58961" />
        <path
           inkscape:connector-curvature="0"
           id="path5296"
           style="fill:none;stroke:#000000;stroke-width:4.19957352;stroke-linecap:butt;stroke-linejoin:miter;stroke-miterlimit:10;stroke-dasharray:none;stroke-opacity:1"
           d="m 117.8941,120.01833 c 0,-31.977116 -25.922642,-57.900221 -57.900222,-57.900221 -31.977116,0 -57.9002148,25.923105 -57.9002148,57.900221 0,31.97711 25.9230988,57.90022 57.9002148,57.90022 31.97758,0 57.900222,-25.92311 57.900222,-57.90022 z" />
      </g>
    </g>
  </g>
</svg>
