<?xml version="1.0" encoding="UTF-8" standalone="no"?>
<!-- Created with Inkscape (http://www.inkscape.org/) -->

<svg
   xmlns:dc="http://purl.org/dc/elements/1.1/"
   xmlns:cc="http://creativecommons.org/ns#"
   xmlns:rdf="http://www.w3.org/1999/02/22-rdf-syntax-ns#"
   xmlns:svg="http://www.w3.org/2000/svg"
   xmlns="http://www.w3.org/2000/svg"
   xmlns:sodipodi="http://sodipodi.sourceforge.net/DTD/sodipodi-0.dtd"
   xmlns:inkscape="http://www.inkscape.org/namespaces/inkscape"
   width="411.34305"
   height="177.58202"
   viewBox="0 0 385.63409 166.48314"
   id="svg4924"
   version="1.1"
   inkscape:version="0.92.3 (2405546, 2018-03-11)"
   sodipodi:docname="nf-core_sarek_dark_mono.svg"
   inkscape:export-filename="nf-core_sarek_logo.png"
   inkscape:export-xdpi="90"
   inkscape:export-ydpi="90">
  <defs
     id="defs4926">
    <clipPath
       clipPathUnits="userSpaceOnUse"
       id="clipPath202">
      <path
         d="M 0,600 H 1500 V 0 H 0 Z"
         id="path204"
         inkscape:connector-curvature="0" />
    </clipPath>
    <clipPath
       clipPathUnits="userSpaceOnUse"
       id="clipPath158">
      <path
         d="M 0,600 H 1500 V 0 H 0 Z"
         id="path160"
         inkscape:connector-curvature="0" />
    </clipPath>
    <clipPath
       clipPathUnits="userSpaceOnUse"
       id="clipPath86">
      <path
         d="M 0,600 H 1500 V 0 H 0 Z"
         id="path88"
         inkscape:connector-curvature="0" />
    </clipPath>
    <clipPath
       clipPathUnits="userSpaceOnUse"
       id="clipPath94">
      <path
         d="M 804.509,211 H 968.795 V 114.019 H 804.509 Z"
         id="path96"
         inkscape:connector-curvature="0" />
    </clipPath>
    <clipPath
       clipPathUnits="userSpaceOnUse"
       id="clipPath110">
      <path
         d="M 804.597,506 H 968.883 V 409.019 H 804.597 Z"
         id="path112"
         inkscape:connector-curvature="0" />
    </clipPath>
    <clipPath
       clipPathUnits="userSpaceOnUse"
       id="clipPath126">
      <path
         d="M 133.598,209 H 297.883 V 112.019 H 133.598 Z"
         id="path128"
         inkscape:connector-curvature="0" />
    </clipPath>
    <clipPath
       clipPathUnits="userSpaceOnUse"
       id="clipPath142">
      <path
         d="M 133.686,504 H 297.972 V 407.019 H 133.686 Z"
         id="path144"
         inkscape:connector-curvature="0" />
    </clipPath>
    <clipPath
       clipPathUnits="userSpaceOnUse"
       id="clipPath54">
      <path
         d="M 0,600 H 1500 V 0 H 0 Z"
         id="path56"
         inkscape:connector-curvature="0" />
    </clipPath>
    <clipPath
       clipPathUnits="userSpaceOnUse"
       id="clipPath30">
      <path
         d="M 0,600 H 1500 V 0 H 0 Z"
         id="path32"
         inkscape:connector-curvature="0" />
    </clipPath>
    <linearGradient
       id="a-3"
       x2="1"
       gradientTransform="matrix(47.34875,36.9925,-36.9925,47.34875,344.325,162.1875)"
       gradientUnits="userSpaceOnUse">
      <stop
         stop-color="#0c542a"
         offset="0"
         id="stop15-61" />
      <stop
         stop-color="#0c542a"
         offset=".21472"
         id="stop17-29" />
      <stop
         stop-color="#25af64"
         offset=".57995"
         id="stop19-3" />
      <stop
         stop-color="#25af64"
         offset=".84663"
         id="stop21-19" />
      <stop
         stop-color="#25af64"
         offset="1"
         id="stop23-4" />
    </linearGradient>
    <linearGradient
       id="f"
       x2="1"
       gradientTransform="matrix(14.322136,11.189559,-11.189559,14.322136,103.39117,-43.22521)"
       gradientUnits="userSpaceOnUse">
      <stop
         stop-color="#0c542a"
         offset="0"
         id="stop12" />
      <stop
         stop-color="#0c542a"
         offset=".21472"
         id="stop14" />
      <stop
         stop-color="#25af64"
         offset=".57995"
         id="stop16" />
      <stop
         stop-color="#25af64"
         offset=".84663"
         id="stop18" />
      <stop
         stop-color="#25af64"
         offset="1"
         id="stop20" />
    </linearGradient>
  </defs>
  <sodipodi:namedview
     id="base"
     pagecolor="#ffffff"
     bordercolor="#666666"
     borderopacity="1.0"
     inkscape:pageopacity="0.0"
     inkscape:pageshadow="2"
     inkscape:zoom="2"
     inkscape:cx="264.97874"
     inkscape:cy="72.320865"
     inkscape:document-units="px"
     inkscape:current-layer="layer4"
     showgrid="false"
     fit-margin-top="0"
     fit-margin-left="0"
     fit-margin-right="0"
     fit-margin-bottom="0"
     units="px"
     width="200mm"
     inkscape:window-width="1920"
     inkscape:window-height="1012"
     inkscape:window-x="1920"
     inkscape:window-y="312"
     inkscape:window-maximized="1" />
  <metadata
     id="metadata4929">
    <rdf:RDF>
      <cc:Work
         rdf:about="">
        <dc:format>image/svg+xml</dc:format>
        <dc:type
           rdf:resource="http://purl.org/dc/dcmitype/StillImage" />
        <dc:title></dc:title>
      </cc:Work>
    </rdf:RDF>
  </metadata>
  <g
     inkscape:groupmode="layer"
     id="layer4"
     inkscape:label="Sarek"
     style="display:inline"
     transform="translate(-15.436598,82.468416)">
    <path
       d="m 100.42371,40.737998 c 0,-23.050353 -18.686065,-41.73674603 -41.736759,-41.73674603 -23.050353,0 -41.736736,18.68639303 -41.736736,41.73674603 0,23.050354 18.686383,41.736747 41.736736,41.736747 23.050694,0 41.736759,-18.686393 41.736759,-41.736747 z"
       style="fill:#000000;stroke:none;stroke-width:3.01842356;stroke-linecap:butt;stroke-linejoin:miter;stroke-miterlimit:10;stroke-dasharray:none;stroke-opacity:1"
       id="path685"
       inkscape:connector-curvature="0" />
    <path
       style="fill:#ffffff;fill-opacity:1;fill-rule:nonzero;stroke:none;stroke-width:0.72076589"
       d="m 48.113373,21.415287 -2.78734,1.206425 -3.522179,22.183264 -7.746821,2.11302 v 27.466543 l -0.02389,0.0338 c 6.907826,5.064918 15.431897,8.056536 24.653847,8.056536 18.436869,0 34.081475,-11.954488 39.605527,-28.535017 l 0.06895,0.02253 -0.06468,-0.03797 c 1.37921,-4.14496 2.127103,-8.578154 2.127103,-13.186356 0,-2.530444 -0.22471,-5.007165 -0.656014,-7.413187 z"
       id="path687"
       inkscape:connector-curvature="0" />
    <path
       inkscape:connector-curvature="0"
       id="path689"
       style="fill:#ffffff;fill-opacity:1;fill-rule:nonzero;stroke:none;stroke-width:0.72076589"
       d="M 98.361157,53.962743 45.325441,22.62179 l -3.52116,22.18373 -7.746617,2.112894 v 27.465649 l -0.02418,0.03448 c 6.907826,5.064908 15.431519,8.056167 24.653478,8.056167 18.436869,0 34.081348,-11.954293 39.605401,-28.534833" />
    <path
       inkscape:connector-curvature="0"
       id="path691"
       style="fill:none;stroke:#ffffff;stroke-width:3.02690959;stroke-linecap:butt;stroke-linejoin:miter;stroke-miterlimit:10;stroke-dasharray:none;stroke-opacity:1"
       d="m 100.41506,40.768764 c 0,-23.048023 -18.684145,-41.73250253 -41.732498,-41.73250253 -23.048014,0 -41.732503,18.68447953 -41.732503,41.73250253 0,23.048013 18.684489,41.732503 41.732503,41.732503 23.048353,0 41.732498,-18.68449 41.732498,-41.732503 z" />
    <g
       id="g603"
       transform="translate(-0.76752)"
       style="fill:#ffffff">
      <path
         d="m 143.57338,63.489019 q -3.79837,0 -6.64714,-0.791325 -2.84878,-0.712195 -6.33062,-2.136583 V 50.194718 q 6.40975,4.827099 13.45256,4.827099 2.69052,0 3.8775,-0.870456 1.26612,-0.949603 1.26612,-2.532254 0,-1.820044 -1.97832,-2.690515 -1.97832,-0.870457 -6.33062,-1.899176 -4.58969,-0.949602 -7.59673,-3.79838 -2.92791,-2.848778 -2.92791,-8.308925 0,-4.668837 2.37398,-7.675876 2.37398,-3.00704 5.93495,-4.352298 3.6401,-1.424389 7.51761,-1.424389 4.74796,0 7.67586,0.870457 3.00706,0.791325 5.85584,2.532253 v 9.258528 q -4.03578,-2.215715 -6.25149,-3.165317 -2.21571,-0.949588 -5.14362,-0.949588 -2.92791,0 -4.3523,0.949588 -1.42439,0.870456 -1.42439,2.532253 0,1.978322 1.58265,2.927909 1.58265,0.870457 5.06449,1.820044 3.95663,1.028734 6.25149,2.057452 2.29485,0.949603 4.11489,3.40271 1.82006,2.373977 1.82006,6.726289 -0.15826,6.805406 -5.14362,9.970722 -4.98536,3.086171 -12.66124,3.086171 z"
         style="font-weight:bold;font-size:medium;line-height:0%;font-family:'Maven Pro';fill:#ffffff;fill-opacity:1;stroke:none;stroke-width:0.30792567"
         id="path695"
         inkscape:connector-curvature="0" />
      <path
         d="m 187.36716,21.073878 q 6.56801,0 11.94903,3.086186 5.38103,3.00704 5.38103,10.920309 l -0.0792,18.912726 q -0.0792,4.985361 -4.98536,7.280206 -4.90623,2.215714 -14.32302,2.215714 -17.56747,0 -17.56747,-13.689956 0,-5.776686 3.56098,-9.021134 3.6401,-3.244448 10.76204,-3.244448 2.92791,0 5.85582,0.79134 2.92792,0.712195 5.06451,1.899175 v -2.532238 q 0,-6.884551 -8.86288,-6.884551 -3.40271,0 -7.04281,1.266127 -3.56097,1.18698 -5.69755,2.927908 V 24.555719 q 2.13658,-1.424389 6.48888,-2.453107 4.43144,-1.028734 9.49593,-1.028734 z m -1.6618,34.106201 q 4.11491,0 5.69756,-0.553932 1.58266,-0.553917 1.58266,-2.215714 v -6.172342 q -2.76964,-0.949603 -6.09322,-0.949603 -3.8775,0 -5.69756,1.186996 -1.74091,1.107865 -1.74091,3.560972 0,2.294846 1.82004,3.719234 1.89919,1.424389 4.43143,1.424389 z"
         style="font-weight:bold;font-size:medium;line-height:0%;font-family:'Maven Pro';fill:#ffffff;fill-opacity:1;stroke:none;stroke-width:0.30792567"
         id="path697"
         inkscape:connector-curvature="0" />
      <path
         d="m 215.16375,26.454909 q 1.18699,-1.028733 4.1149,-2.294845 3.00704,-1.266127 6.64715,-2.136583 3.71925,-0.949603 7.12194,-0.949603 6.56803,0 9.10027,1.978321 v 8.625464 q -3.16531,-0.712194 -9.10027,-0.712194 -3.71923,0 -6.09321,0.39567 v 30.940885 h -11.79078 z"
         style="font-weight:bold;font-size:medium;line-height:0%;font-family:'Maven Pro';fill:#ffffff;fill-opacity:1;stroke:none;stroke-width:0.30792567"
         id="path699"
         inkscape:connector-curvature="0" />
      <path
         d="m 265.34625,20.915616 q 18.75447,0 18.51706,24.452003 h -26.43033 q 1.50352,8.30894 11.15772,8.30894 2.92791,0 5.69756,-0.791325 2.84878,-0.870457 6.01408,-2.215714 v 10.128984 q -6.48888,2.690515 -14.56042,2.690515 -6.09322,0 -10.68291,-2.453122 -4.58971,-2.532239 -7.12195,-7.201075 -2.53225,-4.668822 -2.53225,-10.999441 0,-10.445523 5.14362,-16.143079 5.22277,-5.776686 14.79782,-5.776686 z m -0.47478,9.021134 q -6.33062,0 -7.51762,7.91327 h 14.79782 q -0.55393,-4.273167 -2.29484,-6.093226 -1.6618,-1.820044 -4.98536,-1.820044 z"
         style="font-weight:bold;font-size:medium;line-height:0%;font-family:'Maven Pro';fill:#ffffff;fill-opacity:1;stroke:none;stroke-width:0.30792567"
         id="path701"
         inkscape:connector-curvature="0" />
      <path
         d="M 316.42643,62.302024 303.92346,45.76329 303.84428,62.302024 H 292.13265 V 7.1465287 h 11.86989 l -0.0792,29.9121663 12.1073,-14.797821 h 14.32302 l -16.53873,17.40919 17.56747,22.63196 z"
         style="font-weight:bold;font-size:medium;line-height:0%;font-family:'Maven Pro';fill:#ffffff;fill-opacity:1;stroke:none;stroke-width:0.30792567"
         id="path703"
         inkscape:connector-curvature="0" />
    </g>
    <path
       style="fill:#ffffff;stroke-width:0.40270504"
       d="M 394.79102 0 L 394.79102 0.041015625 C 393.86479 0.081286565 392.98016 0.20173589 392.01367 0.44335938 C 390.12096 0.88633539 388.42947 1.691068 386.93945 2.9394531 C 385.12728 4.4294617 383.83909 6.3234399 382.95312 8.4980469 C 381.74501 11.397523 381.2607 14.457765 381.09961 17.558594 C 381.05991 18.350761 381.06065 19.103646 381.06055 19.894531 C 380.58736 19.894556 380.07907 19.894331 379.5293 19.933594 L 376.50977 20.095703 C 373.89219 20.216515 371.31439 20.538803 368.77734 21.263672 C 366.44165 21.908 364.30631 22.954378 362.49414 24.605469 C 361.12495 25.853854 360.03783 27.384066 359.23242 29.035156 C 358.14512 31.250034 357.54138 33.62553 357.13867 36.082031 C 356.85678 37.853933 356.73678 39.665598 356.65625 41.4375 C 356.65625 41.51804 356.65553 41.599142 356.61523 41.679688 L 356.61523 41.759766 C 357.01793 41.558413 357.38049 41.276779 357.7832 41.035156 C 358.78997 40.390828 359.75719 39.788215 360.88477 39.425781 C 362.21369 38.982805 363.50162 39.061495 364.75 39.746094 C 365.59569 40.189069 366.32126 40.833724 367.00586 41.558594 C 367.12667 41.679404 367.20731 41.679404 367.32812 41.558594 C 368.01273 40.954536 368.6572 40.350151 369.3418 39.746094 C 370.06667 39.061495 370.7903 38.338433 371.5957 37.734375 C 371.6762 37.774655 371.71633 37.73363 371.79688 37.693359 C 372.64256 37.411466 373.52811 37.330642 374.41406 37.572266 C 376.42759 38.095781 377.87892 39.38463 378.72461 41.277344 C 380.13408 44.458713 380.89825 47.761345 381.09961 51.224609 C 381.18011 52.352183 380.93843 57.103177 380.77734 58.351562 C 380.53572 60.083196 380.21325 61.775436 379.81055 63.466797 C 379.24676 65.762216 378.60332 68.057352 377.95898 70.3125 C 377.51601 72.003861 376.7096 73.494547 375.58203 74.783203 C 375.30013 75.105367 374.9987 75.507914 374.7168 75.830078 C 373.83084 76.071703 372.884 76.231218 371.99805 76.271484 C 371.23291 76.311764 370.46828 76.312962 369.70312 76.232422 C 368.77691 76.192152 367.8508 76.030687 366.96484 75.789062 C 365.63592 75.426628 364.34754 74.862333 363.17969 74.177734 C 362.13266 73.533407 361.12619 72.809316 360.24023 72.003906 C 360.11942 71.883095 359.95795 71.762646 359.79688 71.601562 C 359.59551 73.011031 359.47391 74.379595 359.43359 75.789062 C 359.39329 76.795826 359.43388 77.762769 359.55469 78.769531 C 359.63519 79.45413 359.71587 80.178683 359.87695 80.863281 C 360.23939 82.433831 360.72267 83.924517 361.56836 85.333984 C 362.41403 86.703182 363.42032 87.910461 364.70898 88.876953 C 366.07818 89.923986 367.56886 90.648358 369.17969 91.171875 C 370.26699 91.494039 371.39466 91.776418 372.5625 91.9375 C 373.40819 92.058312 374.21292 92.099323 375.05859 91.978516 C 376.30698 91.777163 377.35428 91.173061 378.24023 90.287109 L 379.81055 88.716797 C 380.53541 88.032198 381.38191 87.669459 382.38867 87.75 C 383.15381 87.79027 383.87864 88.031352 384.60352 88.353516 C 385.93243 88.957573 387.10076 89.763593 388.42969 90.287109 C 389.31564 90.609273 390.24175 90.809338 391.16797 90.849609 C 391.61094 90.849609 392.05312 90.769989 392.49609 90.689453 C 394.10691 90.40756 395.71851 90.08481 397.28906 89.601562 C 398.94016 89.118317 400.55101 88.513649 402.04102 87.667969 C 403.16859 87.063911 404.21441 86.339821 405.14062 85.494141 C 405.94604 84.809542 406.59051 84.005092 407.1543 83.119141 C 407.59727 82.434542 407.96029 81.708499 408.24219 80.943359 C 408.72543 79.694974 408.96633 78.366036 409.04688 77.037109 C 409.12748 75.949806 409.0876 74.90371 408.9668 73.816406 C 408.84599 72.890184 408.72479 71.963331 408.52344 71.037109 C 408.36236 70.352511 408.24312 69.667766 408.08203 69.023438 C 408.04173 68.942907 408.04143 68.901882 407.96094 68.982422 L 406.50977 70.191406 C 405.66409 70.916276 404.81955 71.601765 403.93359 72.246094 C 402.88656 73.011233 401.83851 73.735323 400.71094 74.419922 C 399.74445 74.943439 398.71771 75.446904 397.71094 75.849609 C 396.22093 74.802577 395.11392 73.41299 394.83203 71.560547 C 394.59041 70.271891 394.42987 68.98276 394.22852 67.734375 C 393.82582 65.438956 393.42252 63.145028 393.14062 60.849609 C 392.97954 59.440142 392.81756 58.070369 392.77734 56.701172 C 392.73704 55.573597 392.77937 54.445933 392.85938 53.318359 C 392.98019 51.868621 393.22155 50.419233 393.58398 49.009766 C 394.02696 47.358674 394.63059 45.747076 395.35547 44.216797 C 395.67762 43.451658 396.08046 42.686552 396.52344 42.001953 C 397.08722 41.156273 397.81177 40.471244 398.61719 39.867188 C 400.26827 38.6188 402.08051 37.813704 404.21484 37.773438 C 404.57728 37.853978 404.90049 38.055715 405.22266 38.216797 C 407.15564 39.183289 408.88722 40.390568 410.49805 41.759766 L 411.22266 42.365234 C 411.26286 42.324964 411.26233 42.324219 411.30273 42.324219 L 411.30273 40.875 L 411.34375 40.875 L 411.34375 38.257812 L 411.34375 38.216797 L 411.3418 38.216797 C 411.2599 35.854514 411.01659 33.491193 410.41602 31.208984 C 409.81196 28.873296 408.84547 26.699354 407.35547 24.806641 C 405.62383 22.632033 403.40934 21.142273 400.83203 20.175781 C 399.1004 19.531454 397.28799 19.168149 395.43555 18.966797 C 393.865 18.805718 392.25414 18.765159 390.68359 18.845703 C 388.83115 18.926243 386.98014 19.087992 385.16797 19.410156 C 385.14707 19.431036 385.11528 19.426801 385.08398 19.431641 C 385.04568 19.410321 385.00278 19.390801 384.96484 19.369141 C 384.80376 19.369141 384.68451 19.410156 384.52344 19.410156 L 384.48242 19.451172 C 384.28112 18.001434 384.1597 16.511493 384.24023 15.021484 C 384.32083 13.330123 384.56242 11.718242 385.08594 10.107422 C 385.64972 8.3355199 386.45502 6.6851404 387.82422 5.3964844 C 389.47531 3.7856651 391.48899 3.2613574 393.74414 3.6640625 C 393.86496 3.6640625 393.90499 3.7053605 393.94531 3.8261719 C 394.02591 4.188606 394.18732 4.509867 394.38867 4.8320312 C 395.033 5.838794 395.9991 6.2425488 397.00586 5.8398438 C 398.01262 5.4774095 398.93948 4.9934742 399.78516 4.4296875 C 400.46975 3.9867126 401.11366 3.5037025 401.55664 2.859375 C 402.20097 1.9331531 401.96035 1.2081373 400.87305 0.84570312 C 399.50385 0.36245725 398.05325 0.12155964 396.60352 0.041015625 L 396.60352 0 L 394.79102 0 z "
       transform="matrix(0.93749998,0,0,0.93749998,15.436598,-82.468416)"
       id="path101" />
    <g
       id="g96">
      <path
         d="m 150.58729,-13.861192 q -5.8632,0 -10.61714,-2.29774 -4.75394,-2.29774 -7.60631,-6.89322 -2.77314,-4.674713 -2.77314,-11.330235 0,-10.696376 5.70474,-16.163413 5.70473,-5.546269 15.21262,-5.546269 3.32776,0 6.73476,0.713092 3.40699,0.633859 6.02166,1.822345 v 10.141749 q -3.24853,-1.426183 -5.78397,-2.139275 -2.53543,-0.792324 -5.07087,-0.792324 -5.22934,0 -8.16094,2.61467 -2.9316,2.535437 -2.9316,8.002474 0,6.100896 2.6939,9.032495 2.77314,2.931599 8.95327,2.931599 4.67471,0 10.37944,-3.169296 v 10.062516 q -2.85236,1.505416 -5.94243,2.218508 -3.01083,0.792324 -6.81399,0.792324 z"
         style="font-weight:bold;font-size:medium;line-height:0%;font-family:'Maven Pro';fill:#ffffff;fill-opacity:1;stroke:none;stroke-width:0.37753597"
         id="path569"
         inkscape:connector-curvature="0" />
      <path
         d="m 189.64516,-13.702727 q -10.14175,0 -15.21262,-5.387804 -5.07088,-5.387805 -5.07088,-16.004948 0,-11.092538 4.99164,-16.163413 5.07088,-5.070874 15.29186,-5.070874 10.22098,0 15.37109,5.229339 5.15011,5.150107 5.15011,16.004948 0,10.458679 -5.30858,15.925715 -5.30857,5.467037 -15.21262,5.467037 z m 0,-9.428657 q 4.35778,0 6.57629,-3.010832 2.21851,-3.090064 2.21851,-8.953263 0,-6.417826 -2.21851,-9.111728 -2.13927,-2.773134 -6.57629,-2.773134 -4.59548,0 -6.65552,2.773134 -1.98081,2.693902 -1.98081,9.111728 0,6.100896 2.06004,9.032495 2.13927,2.9316 6.57629,2.9316 z"
         style="font-weight:bold;font-size:medium;line-height:0%;font-family:'Maven Pro';fill:#ffffff;fill-opacity:1;stroke:none;stroke-width:0.37753597"
         id="path571"
         inkscape:connector-curvature="0" />
      <path
         d="m 218.31492,-50.783497 q 1.18848,-1.030021 4.12008,-2.29774 3.01084,-1.267719 6.65553,-2.139275 3.72392,-0.950789 7.13091,-0.950789 6.57629,0 9.11173,1.98081 v 8.636333 q -3.1693,-0.713091 -9.11173,-0.713091 -3.72392,0 -6.10089,0.396162 v 30.979874 h -11.80563 z"
         style="font-weight:bold;font-size:medium;line-height:0%;font-family:'Maven Pro';fill:#ffffff;fill-opacity:1;stroke:none;stroke-width:0.37753597"
         id="path573"
         inkscape:connector-curvature="0" />
      <path
         d="m 268.56064,-56.329766 q 18.77809,0 18.54039,24.482816 H 260.6374 q 1.50542,8.319403 11.17177,8.319403 2.9316,0 5.70474,-0.792324 2.85236,-0.871556 6.02166,-2.218507 v 10.141749 q -6.49706,2.693902 -14.57876,2.693902 -6.1009,0 -10.69638,-2.456205 -4.59548,-2.535437 -7.13092,-7.21015 -2.53543,-4.674712 -2.53543,-11.013305 0,-10.458679 5.1501,-16.163413 5.22934,-5.783966 14.81646,-5.783966 z m -0.47539,9.032495 q -6.33859,0 -7.52708,7.923242 h 14.81646 q -0.55462,-4.278551 -2.29774,-6.100896 -1.66388,-1.822346 -4.99164,-1.822346 z"
         style="font-weight:bold;font-size:medium;line-height:0%;font-family:'Maven Pro';fill:#ffffff;fill-opacity:1;stroke:none;stroke-width:0.37753597"
         id="path575"
         inkscape:connector-curvature="0" />
      <path
         d="m 318.12052,-74.790919 h 8.47787 l -29.15753,67.6644822 h -8.39863 z"
         style="font-weight:bold;font-size:medium;line-height:0%;font-family:'Maven Pro';fill:#ffffff;fill-opacity:1;stroke:none;stroke-width:0.37753597"
         id="path577"
         inkscape:connector-curvature="0" />
      <path
         d="m 15.436598,-51.575821 q 3.090064,-1.663881 9.428657,-3.090064 6.338593,-1.426184 11.330235,-1.426184 8.477868,0 12.756419,3.327762 4.27855,3.327761 4.27855,10.934073 v 26.939021 h -11.80563 v -24.562049 q 0,-6.89322 -7.764776,-6.89322 -1.743113,0 -3.565459,0.396162 -1.822345,0.396162 -2.852367,0.950789 v 30.108318 H 15.436598 Z"
         style="font-weight:bold;font-size:79.23241425px;line-height:0%;font-family:'Maven Pro';fill:#ffffff;fill-opacity:1;stroke:none;stroke-width:0.37753597"
         id="path559"
         inkscape:connector-curvature="0" />
      <path
         d="m 66.729683,-45.95032 h -5.863199 v -9.032495 h 5.942431 v -0.950789 q 0.07923,-9.032495 4.120086,-12.518721 4.120085,-3.565459 11.17177,-3.565459 1.267719,0 2.773134,0.237697 1.505416,0.237697 2.456205,0.554627 v 10.379446 q -0.871556,-0.871556 -1.743113,-1.267718 -0.871556,-0.475395 -2.218507,-0.475395 -2.218508,0 -3.486227,1.188486 -1.267718,1.188487 -1.267718,4.040854 v 2.376972 h 8.715565 v 9.032495 h -8.794798 v 31.059107 H 66.729683 Z"
         style="font-weight:bold;font-size:79.23241425px;line-height:0%;font-family:'Maven Pro';fill:#ffffff;fill-opacity:1;stroke:none;stroke-width:0.37753597"
         id="path561"
         inkscape:connector-curvature="0" />
      <path
         sodipodi:nodetypes="cccccc"
         inkscape:connector-curvature="0"
         id="path563"
         transform="matrix(0.93749998,0,0,0.93749998,15.436598,-82.468416)"
         d="m 85.943359,41.826172 v 8.705078 h 25.705081 0.0723 v -8.705078 z"
         style="font-weight:bold;font-size:79.23241425px;line-height:0%;font-family:'Maven Pro';fill:#ffffff;fill-opacity:1;stroke:none;stroke-width:0.40270504" />
    </g>
  </g>
</svg>
