<?xml version="1.0" encoding="UTF-8" standalone="no"?>
<!-- Created with Inkscape (http://www.inkscape.org/) -->

<svg
   xmlns:dc="http://purl.org/dc/elements/1.1/"
   xmlns:cc="http://creativecommons.org/ns#"
   xmlns:rdf="http://www.w3.org/1999/02/22-rdf-syntax-ns#"
   xmlns:svg="http://www.w3.org/2000/svg"
   xmlns="http://www.w3.org/2000/svg"
   xmlns:sodipodi="http://sodipodi.sourceforge.net/DTD/sodipodi-0.dtd"
   xmlns:inkscape="http://www.inkscape.org/namespaces/inkscape"
   width="411.34305"
   height="177.58202"
   viewBox="0 0 385.63409 166.48314"
   id="svg4924"
   version="1.1"
   inkscape:version="0.92.3 (2405546, 2018-03-11)"
   sodipodi:docname="nf-core_sarek_dark_color.svg"
   inkscape:export-filename="nf-core_sarek_logo.png"
   inkscape:export-xdpi="90"
   inkscape:export-ydpi="90">
  <defs
     id="defs4926">
    <clipPath
       clipPathUnits="userSpaceOnUse"
       id="clipPath202">
      <path
         d="M 0,600 H 1500 V 0 H 0 Z"
         id="path204"
         inkscape:connector-curvature="0" />
    </clipPath>
    <clipPath
       clipPathUnits="userSpaceOnUse"
       id="clipPath158">
      <path
         d="M 0,600 H 1500 V 0 H 0 Z"
         id="path160"
         inkscape:connector-curvature="0" />
    </clipPath>
    <clipPath
       clipPathUnits="userSpaceOnUse"
       id="clipPath86">
      <path
         d="M 0,600 H 1500 V 0 H 0 Z"
         id="path88"
         inkscape:connector-curvature="0" />
    </clipPath>
    <clipPath
       clipPathUnits="userSpaceOnUse"
       id="clipPath94">
      <path
         d="M 804.509,211 H 968.795 V 114.019 H 804.509 Z"
         id="path96"
         inkscape:connector-curvature="0" />
    </clipPath>
    <clipPath
       clipPathUnits="userSpaceOnUse"
       id="clipPath110">
      <path
         d="M 804.597,506 H 968.883 V 409.019 H 804.597 Z"
         id="path112"
         inkscape:connector-curvature="0" />
    </clipPath>
    <clipPath
       clipPathUnits="userSpaceOnUse"
       id="clipPath126">
      <path
         d="M 133.598,209 H 297.883 V 112.019 H 133.598 Z"
         id="path128"
         inkscape:connector-curvature="0" />
    </clipPath>
    <clipPath
       clipPathUnits="userSpaceOnUse"
       id="clipPath142">
      <path
         d="M 133.686,504 H 297.972 V 407.019 H 133.686 Z"
         id="path144"
         inkscape:connector-curvature="0" />
    </clipPath>
    <clipPath
       clipPathUnits="userSpaceOnUse"
       id="clipPath54">
      <path
         d="M 0,600 H 1500 V 0 H 0 Z"
         id="path56"
         inkscape:connector-curvature="0" />
    </clipPath>
    <clipPath
       clipPathUnits="userSpaceOnUse"
       id="clipPath30">
      <path
         d="M 0,600 H 1500 V 0 H 0 Z"
         id="path32"
         inkscape:connector-curvature="0" />
    </clipPath>
    <linearGradient
       id="a-3"
       x2="1"
       gradientTransform="matrix(47.34875,36.9925,-36.9925,47.34875,344.325,162.1875)"
       gradientUnits="userSpaceOnUse">
      <stop
         stop-color="#0c542a"
         offset="0"
         id="stop15-61" />
      <stop
         stop-color="#0c542a"
         offset=".21472"
         id="stop17-29" />
      <stop
         stop-color="#25af64"
         offset=".57995"
         id="stop19-3" />
      <stop
         stop-color="#25af64"
         offset=".84663"
         id="stop21-19" />
      <stop
         stop-color="#25af64"
         offset="1"
         id="stop23-4" />
    </linearGradient>
    <linearGradient
       id="f"
       x2="1"
       gradientTransform="matrix(14.322136,11.189559,-11.189559,14.322136,103.39117,-43.22521)"
       gradientUnits="userSpaceOnUse">
      <stop
         stop-color="#0c542a"
         offset="0"
         id="stop12" />
      <stop
         stop-color="#0c542a"
         offset=".21472"
         id="stop14" />
      <stop
         stop-color="#25af64"
         offset=".57995"
         id="stop16" />
      <stop
         stop-color="#25af64"
         offset=".84663"
         id="stop18" />
      <stop
         stop-color="#25af64"
         offset="1"
         id="stop20" />
    </linearGradient>
  </defs>
  <sodipodi:namedview
     id="base"
     pagecolor="#ffffff"
     bordercolor="#666666"
     borderopacity="1.0"
     inkscape:pageopacity="0.0"
     inkscape:pageshadow="2"
     inkscape:zoom="5.6568542"
     inkscape:cx="350.51581"
     inkscape:cy="127.1652"
     inkscape:document-units="px"
     inkscape:current-layer="layer4"
     showgrid="false"
     fit-margin-top="0"
     fit-margin-left="0"
     fit-margin-right="0"
     fit-margin-bottom="0"
     units="px"
     width="200mm"
     inkscape:window-width="1920"
     inkscape:window-height="1012"
     inkscape:window-x="1920"
     inkscape:window-y="312"
     inkscape:window-maximized="1" />
  <metadata
     id="metadata4929">
    <rdf:RDF>
      <cc:Work
         rdf:about="">
        <dc:format>image/svg+xml</dc:format>
        <dc:type
           rdf:resource="http://purl.org/dc/dcmitype/StillImage" />
        <dc:title />
      </cc:Work>
    </rdf:RDF>
  </metadata>
  <g
     inkscape:groupmode="layer"
     id="layer4"
     inkscape:label="Sarek"
     style="display:inline"
     transform="translate(-15.436598,82.468416)">
    <path
       style="fill:none;stroke:none;stroke-width:4.99999999;stroke-linecap:round;stroke-linejoin:round;stroke-miterlimit:4;stroke-dasharray:none"
       d="m 397.77148,75.869141 c -0.0403,-0.04027 -0.12109,-0.07933 -0.12109,-0.03906 -1.49,-1.047033 -2.53647,-2.417088 -2.81836,-4.269531 -0.24162,-1.288656 -0.40216,-2.577787 -0.60351,-3.826172 -0.4027,-2.295419 -0.80601,-4.589347 -1.0879,-6.884766 -0.16108,-1.409467 -0.32306,-2.77924 -0.36328,-4.148437 -0.0403,-1.127575 0.002,-2.255239 0.082,-3.382813 0.12081,-1.449738 0.36217,-2.899126 0.7246,-4.308593 0.44298,-1.651092 1.04661,-3.26269 1.77149,-4.792969 0.32215,-0.765139 0.72499,-1.530245 1.16797,-2.214844 0.56378,-0.84568 1.28833,-1.530709 2.09375,-2.134765 1.65108,-1.248387 3.46332,-2.053484 5.59765,-2.09375 0.36244,0.08054 0.68565,0.282277 1.00782,0.443359 1.93298,0.966492 3.66456,2.173771 5.27539,3.542969 1.09725,1.073011 0.80471,0.296914 0.80471,-0.884769 h 0.041 v -2.617188 -0.04102 h -0.002 c -0.0819,-2.362283 -0.32521,-4.725604 -0.92578,-7.007813 -0.60406,-2.335688 -1.57055,-4.50963 -3.06055,-6.402343 -1.73164,-2.174608 -3.94613,-3.664368 -6.52344,-4.63086 -1.73163,-0.644327 -3.54404,-1.007632 -5.39648,-1.208984 -1.57055,-0.161079 -3.18141,-0.201638 -4.75196,-0.121094 -1.85244,0.08054 -3.70345,0.242289 -5.51562,0.564453 -0.0209,0.02088 -0.0527,0.01664 -0.084,0.02148 -0.0383,-0.02132 -0.0812,-0.04084 -0.11914,-0.0625 -0.16108,0 -0.28033,0.04102 -0.4414,0.04102 l -0.041,0.04102 c -0.2013,-1.449738 -0.32272,-2.939679 -0.24219,-4.429688 0.0806,-1.691361 0.32219,-3.303242 0.84571,-4.914062 0.56378,-1.771902 1.36908,-3.4222816 2.73828,-4.7109376 1.65109,-1.6108193 3.66477,-2.135127 5.91992,-1.7324219 0.12082,0 0.16085,0.041298 0.20117,0.1621094 0.0806,0.3624341 0.24201,0.6836951 0.44336,1.0058593 0.64433,1.0067627 1.61043,1.4105176 2.61719,1.0078126 1.00676,-0.3624342 1.93362,-0.8463696 2.7793,-1.4101563 0.68459,-0.4429749 1.3285,-0.925985 1.77148,-1.5703125 0.64433,-0.9262219 0.40371,-1.6512377 -0.68359,-2.01367188 -1.3692,-0.48324587 -2.8198,-0.72414349 -4.26953,-0.8046875 V 0 h -1.8125 v 0.04101562 c -0.92623,0.04027094 -1.81086,0.16072028 -2.77735,0.40234376 -1.89271,0.44297601 -3.5842,1.24770862 -5.07422,2.49609372 -1.81217,1.4900086 -3.10037,3.3839868 -3.98633,5.5585938 -1.20811,2.8994761 -1.69242,5.9597181 -1.85351,9.0605471 -0.0397,0.792167 -0.039,1.545052 -0.0391,2.335937 l -4.55078,0.201172 c -2.61758,0.120812 -5.19538,0.4431 -7.73243,1.167969 -2.33569,0.644328 -4.47103,1.690706 -6.2832,3.341797 -1.36919,1.248385 -2.45631,2.778597 -3.26172,4.429687 -1.0873,2.214878 -1.69104,4.590374 -2.09375,7.046875 -0.28189,1.771902 -0.40189,3.583567 -0.48242,5.355469 -0.0276,0.806484 0.92,-0.266993 1.12697,-0.402342 1.00677,-0.644328 1.97399,-1.246941 3.10157,-1.609375 1.32892,-0.442976 2.61685,-0.364286 3.86523,0.320313 0.84569,0.442975 1.57126,1.08763 2.25586,1.8125 0.12081,0.12081 0.20145,0.12081 0.32226,0 0.6846,-0.604058 1.32908,-1.208443 2.01368,-1.8125 0.72487,-0.684599 1.4485,-1.407661 2.2539,-2.011719 0.0805,0.04028 0.12064,-7.49e-4 0.20118,-0.04102 0.84568,-0.281893 1.73123,-0.362717 2.61718,-0.121093 2.01353,0.523515 3.46486,1.812364 4.31055,3.705078 1.40947,3.181369 2.17364,6.484001 2.375,9.947265 0.0805,1.127574 -0.16118,5.878568 -0.32227,7.126953 -0.24162,1.731633 -0.56409,3.423874 -0.96679,5.115235 -0.56379,2.295419 -1.20723,4.590555 -1.85157,6.845703 -0.44297,1.691361 -1.24938,3.182047 -2.37695,4.470703 -0.2819,0.322164 -0.5638,0.64268 -0.8457,0.964844 0.0805,0 0.20145,0.0012 0.32226,-0.03906 m -0.0391,0.160157 c -0.0805,0.04027 -0.20145,0.04102 -0.32226,0.04102 -0.88596,0.241624 -1.81327,0.321062 -2.69922,0.361328 -0.76514,0.04028 -1.52978,0.04148 -2.29493,-0.03906 -0.92621,-0.04027 -1.85232,-0.201736 -2.73828,-0.44336 -1.32892,-0.362434 -2.6173,-0.926729 -3.78515,-1.611328 -1.04703,-0.644327 -2.0535,-1.368418 -2.93946,-2.173828 -0.12081,-0.120811 -0.28228,-0.241261 -0.44335,-0.402344 -0.20136,1.409468 -0.32297,2.778033 -0.36329,4.1875 -0.0403,1.006763 2.9e-4,1.973707 0.1211,2.980469 0.0805,0.684599 0.16118,1.409152 0.32226,2.09375 0.36244,1.57055 0.84572,3.061236 1.69141,4.470703 0.84567,1.369198 1.85196,2.576477 3.14062,3.542969 1.3692,1.047033 2.85988,1.771405 4.47071,2.294922 1.0873,0.322164 2.21497,0.604543 3.38281,0.765625 0.84569,0.120812 1.65042,0.161827 2.49609,0.04102 1.24839,-0.201353 2.29569,-0.805455 3.18164,-1.691407 l 1.57032,-1.570312 c 0.72486,-0.684599 1.57136,-1.047338 2.57812,-0.966797 0.76514,0.04027 1.48997,0.281352 2.21485,0.603516 1.32891,0.604057 2.49724,1.410077 3.82617,1.933593 0.88595,0.322164 1.81206,0.522229 2.73828,0.5625 0.44297,0 0.88515,-0.07962 1.32812,-0.160156 1.61082,-0.281893 3.22242,-0.604644 4.79297,-1.087891 1.6511,-0.483245 3.26195,-1.087913 4.75196,-1.933593 1.12757,-0.604058 2.17339,-1.328148 3.0996,-2.173828 0.80541,-0.684599 1.44989,-1.489049 2.01368,-2.375 0.44297,-0.684599 0.80599,-1.410642 1.08789,-2.175782 0.48324,-1.248385 0.72415,-2.577323 0.80469,-3.90625 0.0806,-1.087303 0.0407,-2.133399 -0.0801,-3.220703 -0.12081,-0.926222 -0.24201,-1.853075 -0.44336,-2.779297 -0.16108,-0.684598 -0.28032,-1.369343 -0.44141,-2.013671 -0.0403,-0.08053 -0.0406,-0.12156 -0.12109,-0.04102 l -1.45117,1.208984 c -0.84568,0.72487 -1.69022,1.410359 -2.57618,2.054688 -1.04703,0.765139 -2.09508,1.489229 -3.22265,2.173828 -0.96649,0.523517 -1.93269,1.046514 -2.93946,1.449219"
       transform="matrix(0.93749998,0,0,0.93749998,15.436598,-82.468416)"
       id="path141"
       inkscape:connector-curvature="0"
       sodipodi:nodetypes="cccccccccccccccccccccccccccccccccccccccccccccccccccccccccccccccccccccccccccccccccccccccccccccccccccccccccccc" />
    <path
       d="m 100.42371,40.737998 c 0,-23.050353 -18.686065,-41.73674603 -41.736759,-41.73674603 -23.050353,0 -41.736736,18.68639303 -41.736736,41.73674603 0,23.050354 18.686383,41.736747 41.736736,41.736747 23.050694,0 41.736759,-18.686393 41.736759,-41.736747 z"
       style="fill:#000000;stroke:none;stroke-width:3.01842356;stroke-linecap:butt;stroke-linejoin:miter;stroke-miterlimit:10;stroke-dasharray:none;stroke-opacity:1"
       id="path685"
       inkscape:connector-curvature="0" />
    <path
       style="fill:#b3deb2;fill-opacity:1;fill-rule:nonzero;stroke:none;stroke-width:0.72076589"
       d="m 48.113373,21.415287 -2.78734,1.206425 -3.522179,22.183264 -7.746821,2.11302 v 27.466543 l -0.02389,0.0338 c 6.907826,5.064918 15.431897,8.056536 24.653847,8.056536 18.436869,0 34.081475,-11.954488 39.605527,-28.535017 l 0.06895,0.02253 -0.06468,-0.03797 c 1.37921,-4.14496 2.127103,-8.578154 2.127103,-13.186356 0,-2.530444 -0.22471,-5.007165 -0.656014,-7.413187 z"
       id="path687"
       inkscape:connector-curvature="0" />
    <path
       inkscape:connector-curvature="0"
       id="path689"
       style="fill:#24af63;fill-opacity:1;fill-rule:nonzero;stroke:none;stroke-width:0.72076589"
       d="M 98.361157,53.962743 45.325441,22.62179 l -3.52116,22.18373 -7.746617,2.112894 v 27.465649 l -0.02418,0.03448 c 6.907826,5.064908 15.431519,8.056167 24.653478,8.056167 18.436869,0 34.081348,-11.954293 39.605401,-28.534833" />
    <path
       inkscape:connector-curvature="0"
       id="path691"
       style="fill:none;stroke:#ffffff;stroke-width:3.02690959;stroke-linecap:butt;stroke-linejoin:miter;stroke-miterlimit:10;stroke-dasharray:none;stroke-opacity:1"
       d="m 100.41506,40.768764 c 0,-23.048023 -18.684145,-41.73250253 -41.732498,-41.73250253 -23.048014,0 -41.732503,18.68447953 -41.732503,41.73250253 0,23.048013 18.684489,41.732503 41.732503,41.732503 23.048353,0 41.732498,-18.68449 41.732498,-41.732503 z" />
    <g
       id="g603"
       transform="translate(-0.76752)"
       style="fill:#ffffff">
      <path
         d="m 143.57338,63.489019 q -3.79837,0 -6.64714,-0.791325 -2.84878,-0.712195 -6.33062,-2.136583 V 50.194718 q 6.40975,4.827099 13.45256,4.827099 2.69052,0 3.8775,-0.870456 1.26612,-0.949603 1.26612,-2.532254 0,-1.820044 -1.97832,-2.690515 -1.97832,-0.870457 -6.33062,-1.899176 -4.58969,-0.949602 -7.59673,-3.79838 -2.92791,-2.848778 -2.92791,-8.308925 0,-4.668837 2.37398,-7.675876 2.37398,-3.00704 5.93495,-4.352298 3.6401,-1.424389 7.51761,-1.424389 4.74796,0 7.67586,0.870457 3.00706,0.791325 5.85584,2.532253 v 9.258528 q -4.03578,-2.215715 -6.25149,-3.165317 -2.21571,-0.949588 -5.14362,-0.949588 -2.92791,0 -4.3523,0.949588 -1.42439,0.870456 -1.42439,2.532253 0,1.978322 1.58265,2.927909 1.58265,0.870457 5.06449,1.820044 3.95663,1.028734 6.25149,2.057452 2.29485,0.949603 4.11489,3.40271 1.82006,2.373977 1.82006,6.726289 -0.15826,6.805406 -5.14362,9.970722 -4.98536,3.086171 -12.66124,3.086171 z"
         style="font-weight:bold;font-size:medium;line-height:0%;font-family:'Maven Pro';fill:#ffffff;fill-opacity:1;stroke:none;stroke-width:0.30792567"
         id="path695"
         inkscape:connector-curvature="0" />
      <path
         d="m 187.36716,21.073878 q 6.56801,0 11.94903,3.086186 5.38103,3.00704 5.38103,10.920309 l -0.0792,18.912726 q -0.0792,4.985361 -4.98536,7.280206 -4.90623,2.215714 -14.32302,2.215714 -17.56747,0 -17.56747,-13.689956 0,-5.776686 3.56098,-9.021134 3.6401,-3.244448 10.76204,-3.244448 2.92791,0 5.85582,0.79134 2.92792,0.712195 5.06451,1.899175 v -2.532238 q 0,-6.884551 -8.86288,-6.884551 -3.40271,0 -7.04281,1.266127 -3.56097,1.18698 -5.69755,2.927908 V 24.555719 q 2.13658,-1.424389 6.48888,-2.453107 4.43144,-1.028734 9.49593,-1.028734 z m -1.6618,34.106201 q 4.11491,0 5.69756,-0.553932 1.58266,-0.553917 1.58266,-2.215714 v -6.172342 q -2.76964,-0.949603 -6.09322,-0.949603 -3.8775,0 -5.69756,1.186996 -1.74091,1.107865 -1.74091,3.560972 0,2.294846 1.82004,3.719234 1.89919,1.424389 4.43143,1.424389 z"
         style="font-weight:bold;font-size:medium;line-height:0%;font-family:'Maven Pro';fill:#ffffff;fill-opacity:1;stroke:none;stroke-width:0.30792567"
         id="path697"
         inkscape:connector-curvature="0" />
      <path
         d="m 215.16375,26.454909 q 1.18699,-1.028733 4.1149,-2.294845 3.00704,-1.266127 6.64715,-2.136583 3.71925,-0.949603 7.12194,-0.949603 6.56803,0 9.10027,1.978321 v 8.625464 q -3.16531,-0.712194 -9.10027,-0.712194 -3.71923,0 -6.09321,0.39567 v 30.940885 h -11.79078 z"
         style="font-weight:bold;font-size:medium;line-height:0%;font-family:'Maven Pro';fill:#ffffff;fill-opacity:1;stroke:none;stroke-width:0.30792567"
         id="path699"
         inkscape:connector-curvature="0" />
      <path
         d="m 265.34625,20.915616 q 18.75447,0 18.51706,24.452003 h -26.43033 q 1.50352,8.30894 11.15772,8.30894 2.92791,0 5.69756,-0.791325 2.84878,-0.870457 6.01408,-2.215714 v 10.128984 q -6.48888,2.690515 -14.56042,2.690515 -6.09322,0 -10.68291,-2.453122 -4.58971,-2.532239 -7.12195,-7.201075 -2.53225,-4.668822 -2.53225,-10.999441 0,-10.445523 5.14362,-16.143079 5.22277,-5.776686 14.79782,-5.776686 z m -0.47478,9.021134 q -6.33062,0 -7.51762,7.91327 h 14.79782 q -0.55393,-4.273167 -2.29484,-6.093226 -1.6618,-1.820044 -4.98536,-1.820044 z"
         style="font-weight:bold;font-size:medium;line-height:0%;font-family:'Maven Pro';fill:#ffffff;fill-opacity:1;stroke:none;stroke-width:0.30792567"
         id="path701"
         inkscape:connector-curvature="0" />
      <path
         d="M 316.42643,62.302024 303.92346,45.76329 303.84428,62.302024 H 292.13265 V 7.1465287 h 11.86989 l -0.0792,29.9121663 12.1073,-14.797821 h 14.32302 l -16.53873,17.40919 17.56747,22.63196 z"
         style="font-weight:bold;font-size:medium;line-height:0%;font-family:'Maven Pro';fill:#ffffff;fill-opacity:1;stroke:none;stroke-width:0.30792567"
         id="path703"
         inkscape:connector-curvature="0" />
    </g>
    <g
       id="g551">
      <path
         style="fill:#24af63;stroke-width:0.37753597"
         inkscape:connector-curvature="0"
         id="path24"
         d="m 401.03289,-44.148517 v 1.35913 c -0.0378,0 -0.0378,0 -0.0755,0.03775 l -0.67956,-0.566304 c -1.51015,-1.283623 -3.13355,-2.416231 -4.94572,-3.322317 -0.30203,-0.151014 -0.60406,-0.339782 -0.94384,-0.415289 -0.0378,-0.03775 -0.0755,-0.07551 -0.11326,-0.07551 -0.67957,-0.264275 -1.35913,-0.490796 -2.07645,-0.679564 -1.5479,-0.339783 -3.0958,-0.377536 -4.64369,-0.07551 -2.00094,0.41529 -3.77536,1.283623 -5.47428,2.416231 -1.66115,1.132607 -3.1713,2.453983 -4.56818,3.850866 -0.26428,0.264276 -0.26428,0.264276 -0.41529,-0.07551 -0.75507,-1.547897 -1.58565,-3.058041 -2.605,-4.454924 -0.79282,-1.057101 -1.66116,-2.038694 -2.79376,-2.718259 -1.13261,-0.717318 -2.37848,-0.981594 -3.69986,-0.641811 -1.6234,0.377536 -2.94478,1.359129 -4.19065,2.41623 -0.75507,0.566304 -1.43463,1.245869 -2.1142,1.88768 -0.64181,0.566304 -1.24587,1.132608 -1.88768,1.698912 -0.11326,0.11326 -0.18877,0.11326 -0.30203,0 -0.64181,-0.679565 -1.32137,-1.283623 -2.1142,-1.698912 -1.17036,-0.641811 -2.37847,-0.717319 -3.62434,-0.302029 -1.0571,0.339782 -1.96319,0.906086 -2.90703,1.510144 -0.37754,0.226521 -0.71732,0.490797 -1.09485,0.679565 v -0.07551 c 0.0378,-0.07551 0.0378,-0.151014 0.0378,-0.226521 0.0755,-1.661158 0.18877,-3.36007 0.45304,-5.021228 0.37754,-2.30297 0.94384,-4.530432 1.96319,-6.60688 0.75507,-1.547897 1.77442,-2.982534 3.05804,-4.152895 1.69891,-1.547898 3.69985,-2.529491 5.88956,-3.133549 2.37848,-0.679565 4.79471,-0.981593 7.24869,-1.094854 0.9816,-0.03775 1.92544,-0.07551 2.90703,-0.113261 0.4908,0.188768 0.98159,0.302029 1.47239,0.453043 0.71732,0.226522 1.43464,0.453043 2.15195,0.641811 0.37754,0.151015 0.71732,0.264276 1.09486,0.41529 1.39688,0.490797 2.75601,1.132608 3.92637,2.076448 0.30203,0.226521 0.60406,0.490796 0.90609,0.755072 -0.0755,-0.226522 -0.15102,-0.41529 -0.22652,-0.641811 -0.52855,-1.396884 -1.32138,-2.529491 -2.605,-3.322317 -0.52855,-0.339782 -1.09485,-0.566304 -1.66116,-0.868333 0.0378,0 0.11326,0 0.15102,-0.03775 1.69891,-0.302029 3.43557,-0.453043 5.17224,-0.528551 1.47239,-0.07551 2.98253,-0.03775 4.45492,0.113261 1.73667,0.188768 3.43558,0.528551 5.05898,1.132608 2.41623,0.906086 4.49268,2.302969 6.11609,4.341664 1.39688,1.774419 2.30297,3.813113 2.86927,6.002821 0.5663,2.151955 0.79283,4.379418 0.86833,6.60688 -0.0378,0.792825 -0.0378,1.623404 -0.0378,2.453983 z"
         class="st0" />
      <path
         style="fill:#ecdc86;stroke-width:0.37753597"
         inkscape:connector-curvature="0"
         id="path26"
         d="m 401.03289,-46.640254 h 0.0378 v 2.491737 h -0.0378 z"
         class="st4" />
      <path
         style="fill:#a0918f;stroke-width:0.37753597"
         inkscape:connector-curvature="0"
         id="path28"
         d="m 387.25283,-82.468416 v 0.03775 h -1.69891 v -0.03775 z"
         class="st5" />
      <path
         style="fill:#24af63;stroke-width:0.37753597"
         inkscape:connector-curvature="0"
         id="path30"
         d="m 388.34768,-11.340642 c 0.94384,-0.377536 1.84993,-0.868332 2.75601,-1.359129 1.0571,-0.641811 2.0387,-1.321376 3.02029,-2.038694 0.83058,-0.604058 1.62341,-1.245869 2.41623,-1.925434 l 1.35913,-1.132608 c 0.0755,-0.07551 0.0755,-0.03775 0.11326,0.03775 0.15102,0.604058 0.26428,1.245869 0.41529,1.88768 0.18877,0.868333 0.30203,1.736665 0.41529,2.604998 0.11326,1.019347 0.15102,2.000941 0.0755,3.020288 -0.0755,1.2458683 -0.30203,2.491737 -0.75507,3.6620985 -0.26428,0.7173183 -0.60406,1.396883 -1.01935,2.0386942 -0.52855,0.8305791 -1.13261,1.585651 -1.88768,2.2274621 -0.86833,0.7928255 -1.84993,1.47239026 -2.90703,2.0386942 -1.39688,0.79282552 -2.90702,1.3591295 -4.45492,1.8121726 -1.47239,0.4530432 -2.98254,0.7550719 -4.49268,1.0193471 -0.41529,0.075507 -0.83058,0.1510144 -1.24587,0.1510144 -0.86833,-0.037754 -1.73666,-0.2265216 -2.56724,-0.5285504 -1.24587,-0.4907967 -2.34073,-1.24586863 -3.58659,-1.81217257 -0.67957,-0.30202876 -1.35913,-0.52855034 -2.07645,-0.56630394 -0.94384,-0.0755072 -1.73667,0.26427518 -2.41623,0.90608631 l -1.47239,1.4723902 c -0.83058,0.8305792 -1.81218,1.3968831 -2.98254,1.5856511 -0.79282,0.1132608 -1.54789,0.075507 -2.34072,-0.037754 -1.09485,-0.1510144 -2.15195,-0.4152896 -3.1713,-0.7173183 -1.51015,-0.4907968 -2.90703,-1.1703615 -4.19065,-2.15195502 -1.20812,-0.9060863 -2.15196,-2.03869418 -2.94478,-3.32231648 -0.79283,-1.3213758 -1.24587,-2.7182589 -1.58565,-4.1906491 -0.15102,-0.6418112 -0.22652,-1.3213759 -0.30203,-1.963187 -0.11326,-0.9438399 -0.15102,-1.8499259 -0.11326,-2.7937659 0.0378,-1.321376 0.15101,-2.604998 0.33978,-3.926374 0.15101,0.151015 0.30203,0.264275 0.41529,0.377536 0.83058,0.755072 1.77442,1.434637 2.75601,2.038694 1.09486,0.641811 2.30297,1.170362 3.54884,1.510144 0.83058,0.226522 1.69891,0.377536 2.56724,0.41529 0.71732,0.07551 1.43464,0.07551 2.15196,0.03775 0.83058,-0.03775 1.69891,-0.11326 2.52949,-0.339782 0.11326,0 0.22652,0 0.30203,-0.03775 0.75507,-0.151014 1.51014,-0.339782 2.26522,-0.566304 0.86833,-0.264275 1.69891,-0.52855 2.52949,-0.830579 0.79282,-0.302028 1.6234,-0.641811 2.41623,-0.981593 0.22652,-0.113261 0.37753,-0.07551 0.5663,0.07551 1.32138,1.019347 2.75601,1.88768 4.30391,2.529491 1.73667,0.679565 3.51108,1.019347 5.36101,0.868333 1.35913,-0.264276 2.64275,-0.604058 3.88862,-1.094855 z"
         class="st0" />
      <path
         style="fill:#ecdc86;stroke-width:0.37753597"
         inkscape:connector-curvature="0"
         id="path32-3"
         d="m 388.34768,-11.340642 c -1.24587,0.490797 -2.52949,0.830579 -3.85087,0.94384 -1.84992,0.151015 -3.62434,-0.188768 -5.36101,-0.868332 -1.54789,-0.604058 -2.98253,-1.472391 -4.30391,-2.529491 -0.18876,-0.151015 -0.33978,-0.188768 -0.5663,-0.07551 -0.79283,0.339783 -1.58565,0.679565 -2.41623,0.981594 -0.83058,0.302029 -1.66116,0.604057 -2.52949,0.830579 -0.75507,0.226522 -1.51014,0.377536 -2.26522,0.566304 -0.11326,0.03775 -0.22652,0.03775 -0.30203,0.03775 0.26428,-0.302029 0.52855,-0.604058 0.79283,-0.906087 1.0571,-1.208115 1.81217,-2.604998 2.22746,-4.190649 0.60406,-2.114201 1.20812,-4.266156 1.73667,-6.418111 0.37753,-1.585651 0.67956,-3.171302 0.90608,-4.794707 0.15102,-1.170361 0.37754,-5.625286 0.30203,-6.682386 -0.18877,-3.24681 -0.90608,-6.342605 -2.22746,-9.325139 -0.79283,-1.774419 -2.15195,-2.982534 -4.03963,-3.47333 -0.83058,-0.226522 -1.66116,-0.151015 -2.45399,0.11326 -0.0755,0.03775 -0.11326,0.07551 -0.18877,0.03775 1.24587,-1.057101 2.52949,-2.038694 4.19065,-2.41623 1.32138,-0.302029 2.56725,-0.07551 3.69986,0.641811 1.1326,0.717318 2.00094,1.661158 2.79376,2.718259 1.01935,1.396883 1.84993,2.907027 2.605,4.454924 0.15101,0.339783 0.15101,0.339783 0.41529,0.07551 1.39688,-1.434636 2.90703,-2.756012 4.56818,-3.850866 1.66116,-1.132608 3.47334,-2.000941 5.47428,-2.416231 1.54789,-0.302028 3.09579,-0.264275 4.64369,0.07551 0.71732,0.151014 1.39688,0.377536 2.07645,0.679564 0.0378,0.03775 0.11326,0.03775 0.11326,0.07551 -2.00094,0.03775 -3.69986,0.792825 -5.24775,1.963187 -0.75508,0.566303 -1.43464,1.208115 -1.96319,2.00094 -0.41529,0.641811 -0.79283,1.35913 -1.09485,2.076448 -0.67957,1.434637 -1.24587,2.94478 -1.66116,4.492678 -0.33978,1.321376 -0.56631,2.680505 -0.67957,4.039635 -0.0755,1.0571 -0.11326,2.114201 -0.0755,3.171302 0.0377,1.283622 0.18876,2.567244 0.33978,3.88862 0.26427,2.151955 0.64181,4.30391 1.01934,6.455865 0.18877,1.170361 0.33979,2.378477 0.56631,3.586592 0.26427,1.736665 1.24587,3.020287 2.64275,4.001881 0,-0.03775 0.0755,0 0.11326,0.03775 z"
         class="st4" />
      <path
         style="fill:#3f2b29;stroke-width:0.37753597"
         inkscape:connector-curvature="0"
         id="path34"
         d="m 385.55392,-82.430663 h 1.69891 c 1.35913,0.07551 2.71826,0.302029 4.00188,0.755072 1.01935,0.339782 1.24587,1.019347 0.64181,1.88768 -0.41529,0.604057 -1.01935,1.057101 -1.66116,1.47239 -0.79282,0.52855 -1.66116,0.981594 -2.605,1.321376 -0.94384,0.377536 -1.84992,0 -2.45398,-0.94384 -0.18877,-0.302029 -0.33978,-0.604058 -0.41529,-0.94384 -0.0378,-0.113261 -0.0755,-0.151014 -0.18877,-0.151014 -2.1142,-0.377536 -4.00188,0.113261 -5.54978,1.623404 -1.28362,1.208115 -2.03869,2.756013 -2.56724,4.417171 -0.4908,1.510144 -0.71732,3.020288 -0.79283,4.605939 -0.0755,1.396883 0.0378,2.793766 0.22652,4.152895 0.0378,0.226522 0.11327,0.453044 0.11327,0.717319 0.0378,0.302028 -0.0755,0.566304 -0.30203,0.717318 -0.26428,0.188768 -0.56631,0.151014 -0.86834,0.151014 -0.71731,-0.226521 -1.43463,-0.453043 -2.15195,-0.641811 v -0.490796 c 0,-0.755072 0,-1.472391 0.0378,-2.227463 0.15102,-2.907027 0.60406,-5.7763 1.73667,-8.494559 0.83058,-2.038694 2.03869,-3.813113 3.7376,-5.209996 1.39689,-1.170361 2.98254,-1.925433 4.75696,-2.340723 0.90608,-0.226522 1.73666,-0.339782 2.605,-0.377536 z"
         class="st6" />
      <path
         style="fill:#396e35;stroke-width:0.37753597"
         inkscape:connector-curvature="0"
         id="path36"
         d="m 374.86965,-62.685532 c 0.30203,0 0.60406,0.03775 0.86833,-0.151015 0.26428,-0.188768 0.33978,-0.453043 0.30203,-0.717318 -0.0378,-0.226521 -0.0755,-0.490797 -0.11326,-0.717318 0.15101,0 0.26427,-0.03775 0.41529,-0.03775 0.52855,0.302029 1.09485,0.566304 1.66116,0.868333 1.28362,0.792825 2.07644,1.925433 2.60499,3.322316 0.0755,0.226522 0.15102,0.41529 0.22653,0.641811 -0.30203,-0.264275 -0.60406,-0.52855 -0.90609,-0.755071 -1.20812,-0.906087 -2.52949,-1.547898 -3.92637,-2.076448 -0.41529,-0.113261 -0.75508,-0.226522 -1.13261,-0.377536 z"
         class="st7" />
      <path
         style="fill:#396e35;stroke-width:0.37753597"
         inkscape:connector-curvature="0"
         id="path38"
         d="m 372.71769,-63.81814 v 0.490797 c -0.49079,-0.151015 -0.98159,-0.264275 -1.47239,-0.453043 0.52855,-0.03775 1.01935,-0.03775 1.47239,-0.03775 z"
         class="st7" />
    </g>
    <g
       id="g596"
       style="fill:#ffffff">
      <path
         d="m 150.58729,-13.861192 q -5.8632,0 -10.61714,-2.29774 -4.75394,-2.29774 -7.60631,-6.89322 -2.77314,-4.674713 -2.77314,-11.330235 0,-10.696376 5.70474,-16.163413 5.70473,-5.546269 15.21262,-5.546269 3.32776,0 6.73476,0.713092 3.40699,0.633859 6.02166,1.822345 v 10.141749 q -3.24853,-1.426183 -5.78397,-2.139275 -2.53543,-0.792324 -5.07087,-0.792324 -5.22934,0 -8.16094,2.61467 -2.9316,2.535437 -2.9316,8.002474 0,6.100896 2.6939,9.032495 2.77314,2.931599 8.95327,2.931599 4.67471,0 10.37944,-3.169296 v 10.062516 q -2.85236,1.505416 -5.94243,2.218508 -3.01083,0.792324 -6.81399,0.792324 z"
         style="font-weight:bold;font-size:medium;line-height:0%;font-family:'Maven Pro';fill:#ffffff;fill-opacity:1;stroke:none;stroke-width:0.37753597"
         id="path569"
         inkscape:connector-curvature="0" />
      <path
         d="m 189.64516,-13.702727 q -10.14175,0 -15.21262,-5.387804 -5.07088,-5.387805 -5.07088,-16.004948 0,-11.092538 4.99164,-16.163413 5.07088,-5.070874 15.29186,-5.070874 10.22098,0 15.37109,5.229339 5.15011,5.150107 5.15011,16.004948 0,10.458679 -5.30858,15.925715 -5.30857,5.467037 -15.21262,5.467037 z m 0,-9.428657 q 4.35778,0 6.57629,-3.010832 2.21851,-3.090064 2.21851,-8.953263 0,-6.417826 -2.21851,-9.111728 -2.13927,-2.773134 -6.57629,-2.773134 -4.59548,0 -6.65552,2.773134 -1.98081,2.693902 -1.98081,9.111728 0,6.100896 2.06004,9.032495 2.13927,2.9316 6.57629,2.9316 z"
         style="font-weight:bold;font-size:medium;line-height:0%;font-family:'Maven Pro';fill:#ffffff;fill-opacity:1;stroke:none;stroke-width:0.37753597"
         id="path571"
         inkscape:connector-curvature="0" />
      <path
         d="m 218.31492,-50.783497 q 1.18848,-1.030021 4.12008,-2.29774 3.01084,-1.267719 6.65553,-2.139275 3.72392,-0.950789 7.13091,-0.950789 6.57629,0 9.11173,1.98081 v 8.636333 q -3.1693,-0.713091 -9.11173,-0.713091 -3.72392,0 -6.10089,0.396162 v 30.979874 h -11.80563 z"
         style="font-weight:bold;font-size:medium;line-height:0%;font-family:'Maven Pro';fill:#ffffff;fill-opacity:1;stroke:none;stroke-width:0.37753597"
         id="path573"
         inkscape:connector-curvature="0" />
      <path
         d="m 268.56064,-56.329766 q 18.77809,0 18.54039,24.482816 H 260.6374 q 1.50542,8.319403 11.17177,8.319403 2.9316,0 5.70474,-0.792324 2.85236,-0.871556 6.02166,-2.218507 v 10.141749 q -6.49706,2.693902 -14.57876,2.693902 -6.1009,0 -10.69638,-2.456205 -4.59548,-2.535437 -7.13092,-7.21015 -2.53543,-4.674712 -2.53543,-11.013305 0,-10.458679 5.1501,-16.163413 5.22934,-5.783966 14.81646,-5.783966 z m -0.47539,9.032495 q -6.33859,0 -7.52708,7.923242 h 14.81646 q -0.55462,-4.278551 -2.29774,-6.100896 -1.66388,-1.822346 -4.99164,-1.822346 z"
         style="font-weight:bold;font-size:medium;line-height:0%;font-family:'Maven Pro';fill:#ffffff;fill-opacity:1;stroke:none;stroke-width:0.37753597"
         id="path575"
         inkscape:connector-curvature="0" />
      <path
         d="m 318.12052,-74.790919 h 8.47787 l -29.15753,67.6644822 h -8.39863 z"
         style="font-weight:bold;font-size:medium;line-height:0%;font-family:'Maven Pro';fill:#ffffff;fill-opacity:1;stroke:none;stroke-width:0.37753597"
         id="path577"
         inkscape:connector-curvature="0" />
    </g>
    <g
       id="g589">
      <path
         d="m 15.436598,-51.575821 q 3.090064,-1.663881 9.428657,-3.090064 6.338593,-1.426184 11.330235,-1.426184 8.477868,0 12.756419,3.327762 4.27855,3.327761 4.27855,10.934073 v 26.939021 h -11.80563 v -24.562049 q 0,-6.89322 -7.764776,-6.89322 -1.743113,0 -3.565459,0.396162 -1.822345,0.396162 -2.852367,0.950789 v 30.108318 H 15.436598 Z"
         style="font-weight:bold;font-size:79.23241425px;line-height:0%;font-family:'Maven Pro';fill:#24af63;fill-opacity:1;stroke:none;stroke-width:0.37753597"
         id="path559"
         inkscape:connector-curvature="0" />
      <path
         d="m 66.729683,-45.95032 h -5.863199 v -9.032495 h 5.942431 v -0.950789 q 0.07923,-9.032495 4.120086,-12.518721 4.120085,-3.565459 11.17177,-3.565459 1.267719,0 2.773134,0.237697 1.505416,0.237697 2.456205,0.554627 v 10.379446 q -0.871556,-0.871556 -1.743113,-1.267718 -0.871556,-0.475395 -2.218507,-0.475395 -2.218508,0 -3.486227,1.188486 -1.267718,1.188487 -1.267718,4.040854 v 2.376972 h 8.715565 v 9.032495 h -8.794798 v 31.059107 H 66.729683 Z"
         style="font-weight:bold;font-size:79.23241425px;line-height:0%;font-family:'Maven Pro';fill:#24af63;fill-opacity:1;stroke:none;stroke-width:0.37753597"
         id="path561"
         inkscape:connector-curvature="0" />
      <path
         d="m 96.008535,-43.256418 h 24.165885 v 8.160939 H 96.008535 Z"
         style="font-weight:bold;font-size:79.23241425px;line-height:0%;font-family:'Maven Pro';fill:#24af63;fill-opacity:1;stroke:none;stroke-width:0.37753597"
         id="path563"
         inkscape:connector-curvature="0" />
      <path
         style="display:inline;fill:url(#f);stroke-width:0.37753597"
         inkscape:connector-curvature="0"
         id="path67"
         d="m 105.17203,-43.255454 -8.129199,8.160957 h 23.064239 v -8.160957 z" />
    </g>
  </g>
</svg>
