<?xml version="1.0" encoding="UTF-8" standalone="no"?>
<!-- Created with Inkscape (http://www.inkscape.org/) -->

<svg
   xmlns:dc="http://purl.org/dc/elements/1.1/"
   xmlns:cc="http://creativecommons.org/ns#"
   xmlns:rdf="http://www.w3.org/1999/02/22-rdf-syntax-ns#"
   xmlns:svg="http://www.w3.org/2000/svg"
   xmlns="http://www.w3.org/2000/svg"
   xmlns:sodipodi="http://sodipodi.sourceforge.net/DTD/sodipodi-0.dtd"
   xmlns:inkscape="http://www.inkscape.org/namespaces/inkscape"
   width="1280"
   height="640"
   viewBox="0 0 338.66666 169.33333"
   version="1.1"
   id="svg8"
   inkscape:version="0.92.5 (2060ec1f9f, 2020-04-08)"
   sodipodi:docname="nf-core-sarek_social_preview.svg"
   inkscape:export-filename="social_preview_image.png"
   inkscape:export-xdpi="96"
   inkscape:export-ydpi="96">
  <defs
     id="defs2">
    <clipPath
       id="d">
      <path
         inkscape:connector-curvature="0"
         id="path9"
         d="M 0,266 H 1022 V 0 H 0 Z" />
    </clipPath>
    <clipPath
       id="c">
      <path
         inkscape:connector-curvature="0"
         id="path12"
         d="m 280.17,136.33 -21.5,-21.584 h 61 v 21.584 z" />
    </clipPath>
    <linearGradient
       gradientUnits="userSpaceOnUse"
       gradientTransform="matrix(47.34875,36.9925,-36.9925,47.34875,344.325,162.1875)"
       x2="1"
       id="a">
      <stop
         id="stop15"
         offset="0"
         stop-color="#0c542a" />
      <stop
         id="stop17"
         offset=".21472"
         stop-color="#0c542a" />
      <stop
         id="stop19"
         offset=".57995"
         stop-color="#25af64" />
      <stop
         id="stop21"
         offset=".84663"
         stop-color="#25af64" />
      <stop
         id="stop23"
         offset="1"
         stop-color="#25af64" />
    </linearGradient>
    <clipPath
       id="b">
      <path
         inkscape:connector-curvature="0"
         id="path26"
         d="M 0,266 H 1022 V 0 H 0 Z" />
    </clipPath>
    <clipPath
       id="clipPath202"
       clipPathUnits="userSpaceOnUse">
      <path
         inkscape:connector-curvature="0"
         id="path204"
         d="M 0,600 H 1500 V 0 H 0 Z" />
    </clipPath>
    <clipPath
       id="clipPath158"
       clipPathUnits="userSpaceOnUse">
      <path
         inkscape:connector-curvature="0"
         id="path160"
         d="M 0,600 H 1500 V 0 H 0 Z" />
    </clipPath>
    <clipPath
       id="clipPath86"
       clipPathUnits="userSpaceOnUse">
      <path
         inkscape:connector-curvature="0"
         id="path88"
         d="M 0,600 H 1500 V 0 H 0 Z" />
    </clipPath>
    <clipPath
       id="clipPath94"
       clipPathUnits="userSpaceOnUse">
      <path
         inkscape:connector-curvature="0"
         id="path96"
         d="M 804.509,211 H 968.795 V 114.019 H 804.509 Z" />
    </clipPath>
    <clipPath
       id="clipPath110"
       clipPathUnits="userSpaceOnUse">
      <path
         inkscape:connector-curvature="0"
         id="path112"
         d="M 804.597,506 H 968.883 V 409.019 H 804.597 Z" />
    </clipPath>
    <clipPath
       id="clipPath126"
       clipPathUnits="userSpaceOnUse">
      <path
         inkscape:connector-curvature="0"
         id="path128"
         d="M 133.598,209 H 297.883 V 112.019 H 133.598 Z" />
    </clipPath>
    <clipPath
       id="clipPath142"
       clipPathUnits="userSpaceOnUse">
      <path
         inkscape:connector-curvature="0"
         id="path144"
         d="M 133.686,504 H 297.972 V 407.019 H 133.686 Z" />
    </clipPath>
    <clipPath
       id="clipPath54"
       clipPathUnits="userSpaceOnUse">
      <path
         inkscape:connector-curvature="0"
         id="path56-6"
         d="M 0,600 H 1500 V 0 H 0 Z" />
    </clipPath>
    <clipPath
       id="clipPath30"
       clipPathUnits="userSpaceOnUse">
      <path
         inkscape:connector-curvature="0"
         id="path32"
         d="M 0,600 H 1500 V 0 H 0 Z" />
    </clipPath>
    <clipPath
       id="clipPath202-3"
       clipPathUnits="userSpaceOnUse">
      <path
         inkscape:connector-curvature="0"
         id="path204-6"
         d="M 0,600 H 1500 V 0 H 0 Z" />
    </clipPath>
    <clipPath
       id="clipPath158-7"
       clipPathUnits="userSpaceOnUse">
      <path
         inkscape:connector-curvature="0"
         id="path160-5"
         d="M 0,600 H 1500 V 0 H 0 Z" />
    </clipPath>
    <clipPath
       id="clipPath86-3"
       clipPathUnits="userSpaceOnUse">
      <path
         inkscape:connector-curvature="0"
         id="path88-5"
         d="M 0,600 H 1500 V 0 H 0 Z" />
    </clipPath>
    <clipPath
       id="clipPath94-6"
       clipPathUnits="userSpaceOnUse">
      <path
         inkscape:connector-curvature="0"
         id="path96-2"
         d="M 804.509,211 H 968.795 V 114.019 H 804.509 Z" />
    </clipPath>
    <clipPath
       id="clipPath110-9"
       clipPathUnits="userSpaceOnUse">
      <path
         inkscape:connector-curvature="0"
         id="path112-1"
         d="M 804.597,506 H 968.883 V 409.019 H 804.597 Z" />
    </clipPath>
    <clipPath
       id="clipPath126-2"
       clipPathUnits="userSpaceOnUse">
      <path
         inkscape:connector-curvature="0"
         id="path128-7"
         d="M 133.598,209 H 297.883 V 112.019 H 133.598 Z" />
    </clipPath>
    <clipPath
       id="clipPath142-0"
       clipPathUnits="userSpaceOnUse">
      <path
         inkscape:connector-curvature="0"
         id="path144-9"
         d="M 133.686,504 H 297.972 V 407.019 H 133.686 Z" />
    </clipPath>
    <clipPath
       id="clipPath54-3"
       clipPathUnits="userSpaceOnUse">
      <path
         inkscape:connector-curvature="0"
         id="path56-60"
         d="M 0,600 H 1500 V 0 H 0 Z" />
    </clipPath>
    <clipPath
       id="clipPath30-6"
       clipPathUnits="userSpaceOnUse">
      <path
         inkscape:connector-curvature="0"
         id="path32-2"
         d="M 0,600 H 1500 V 0 H 0 Z" />
    </clipPath>
    <linearGradient
       gradientUnits="userSpaceOnUse"
       gradientTransform="matrix(47.34875,36.9925,-36.9925,47.34875,344.325,162.1875)"
       x2="1"
       id="a-3">
      <stop
         id="stop15-61"
         offset="0"
         stop-color="#0c542a" />
      <stop
         id="stop17-29"
         offset=".21472"
         stop-color="#0c542a" />
      <stop
         id="stop19-3"
         offset=".57995"
         stop-color="#25af64" />
      <stop
         id="stop21-19"
         offset=".84663"
         stop-color="#25af64" />
      <stop
         id="stop23-4"
         offset="1"
         stop-color="#25af64" />
    </linearGradient>
    <linearGradient
       gradientUnits="userSpaceOnUse"
       gradientTransform="matrix(14.322136,11.189559,-11.189559,14.322136,103.39117,-43.22521)"
       x2="1"
       id="f">
      <stop
         id="stop12"
         offset="0"
         stop-color="#0c542a" />
      <stop
         id="stop14"
         offset=".21472"
         stop-color="#0c542a" />
      <stop
         id="stop16"
         offset=".57995"
         stop-color="#25af64" />
      <stop
         id="stop18"
         offset=".84663"
         stop-color="#25af64" />
      <stop
         id="stop20"
         offset="1"
         stop-color="#25af64" />
    </linearGradient>
  </defs>
  <sodipodi:namedview
     id="base"
     pagecolor="#ffffff"
     bordercolor="#666666"
     borderopacity="1.0"
     inkscape:pageopacity="0.0"
     inkscape:pageshadow="2"
     inkscape:zoom="0.7"
     inkscape:cx="208.11599"
     inkscape:cy="219.73097"
     inkscape:document-units="mm"
     inkscape:current-layer="layer1"
     showgrid="false"
     inkscape:window-width="1920"
     inkscape:window-height="1016"
     inkscape:window-x="0"
     inkscape:window-y="0"
     inkscape:window-maximized="1"
     fit-margin-top="0"
     fit-margin-left="0"
     fit-margin-right="0"
     fit-margin-bottom="0"
     units="px" />
  <metadata
     id="metadata5">
    <rdf:RDF>
      <cc:Work
         rdf:about="">
        <dc:format>image/svg+xml</dc:format>
        <dc:type
           rdf:resource="http://purl.org/dc/dcmitype/StillImage" />
        <dc:title />
      </cc:Work>
    </rdf:RDF>
  </metadata>
  <g
     inkscape:label="Layer 1"
     inkscape:groupmode="layer"
     id="layer1"
     transform="translate(31.749994,-15.785728)">
    <flowRoot
       xml:space="preserve"
       id="flowRoot308"
       style="font-style:normal;font-weight:normal;font-size:37.33333206px;line-height:1.25;font-family:sans-serif;text-align:center;letter-spacing:0px;word-spacing:0px;text-anchor:middle;fill:#000000;fill-opacity:1;stroke:none"
       transform="matrix(0.26458333,0,0,0.26458333,-34.517006,20.683034)"><flowRegion
         id="flowRegion310"
         style="font-size:37.33333206px;text-align:center;text-anchor:middle"><rect
           id="rect312"
           width="1031.3657"
           height="101.01524"
           x="135.36044"
           y="417.76645"
           style="font-size:37.33333206px;text-align:center;text-anchor:middle" /></flowRegion><flowPara
         style="font-size:32px;text-align:center;text-anchor:middle"
         id="flowPara316">An open-source analysis pipeline to detect germline or</flowPara><flowPara
         style="font-size:32px;text-align:center;text-anchor:middle"
         id="flowPara318">somatic variants from whole genome or targeted sequencing</flowPara></flowRoot>    <g
       transform="matrix(0.44611981,0,0,0.44611981,44.677261,81.689003)"
       style="display:inline"
       inkscape:label="Sarek"
       id="layer4-1">
      <g
         id="g856">
        <g
           id="g747">
          <g
             id="g557">
            <path
               d="m 100.42371,40.737998 c 0,-23.050353 -18.686065,-41.73674603 -41.736759,-41.73674603 -23.050353,0 -41.736736,18.68639303 -41.736736,41.73674603 0,23.050354 18.686383,41.736747 41.736736,41.736747 23.050694,0 41.736759,-18.686393 41.736759,-41.736747 z"
               style="fill:#ffffff;stroke:none;stroke-width:3.01842356;stroke-linecap:butt;stroke-linejoin:miter;stroke-miterlimit:10;stroke-dasharray:none;stroke-opacity:1"
               id="path685"
               inkscape:connector-curvature="0" />
            <path
               style="fill:#b3deb2;fill-opacity:1;fill-rule:nonzero;stroke:none;stroke-width:0.72076589"
               d="m 48.113373,21.415287 -2.78734,1.206425 -3.522179,22.183264 -7.746821,2.11302 v 27.466543 l -0.02389,0.0338 c 6.907826,5.064918 15.431897,8.056536 24.653847,8.056536 18.436869,0 34.081475,-11.954488 39.605527,-28.535017 l 0.06895,0.02253 -0.06468,-0.03797 c 1.37921,-4.14496 2.127103,-8.578154 2.127103,-13.186356 0,-2.530444 -0.22471,-5.007165 -0.656014,-7.413187 z"
               id="path687"
               inkscape:connector-curvature="0" />
            <path
               inkscape:connector-curvature="0"
               id="path689"
               style="fill:#24af63;fill-opacity:1;fill-rule:nonzero;stroke:none;stroke-width:0.72076589"
               d="M 98.361157,53.962743 45.325441,22.62179 l -3.52116,22.18373 -7.746617,2.112894 v 27.465649 l -0.02418,0.03448 c 6.907826,5.064908 15.431519,8.056167 24.653478,8.056167 18.436869,0 34.081348,-11.954293 39.605401,-28.534833" />
            <path
               inkscape:connector-curvature="0"
               id="path691"
               style="fill:none;stroke:#000000;stroke-width:3.02690959;stroke-linecap:butt;stroke-linejoin:miter;stroke-miterlimit:10;stroke-dasharray:none;stroke-opacity:1"
               d="m 100.41506,40.768764 c 0,-23.048023 -18.684145,-41.73250253 -41.732498,-41.73250253 -23.048014,0 -41.732503,18.68447953 -41.732503,41.73250253 0,23.048013 18.684489,41.732503 41.732503,41.732503 23.048353,0 41.732498,-18.68449 41.732498,-41.732503 z" />
          </g>
          <g
             transform="translate(-0.76752)"
             id="g603">
            <path
               inkscape:connector-curvature="0"
               id="path695"
               style="font-weight:bold;font-size:medium;line-height:0%;font-family:'Maven Pro';fill:#000000;fill-opacity:1;stroke:none;stroke-width:0.30792567"
               d="m 143.57338,63.489019 q -3.79837,0 -6.64714,-0.791325 -2.84878,-0.712195 -6.33062,-2.136583 V 50.194718 q 6.40975,4.827099 13.45256,4.827099 2.69052,0 3.8775,-0.870456 1.26612,-0.949603 1.26612,-2.532254 0,-1.820044 -1.97832,-2.690515 -1.97832,-0.870457 -6.33062,-1.899176 -4.58969,-0.949602 -7.59673,-3.79838 -2.92791,-2.848778 -2.92791,-8.308925 0,-4.668837 2.37398,-7.675876 2.37398,-3.00704 5.93495,-4.352298 3.6401,-1.424389 7.51761,-1.424389 4.74796,0 7.67586,0.870457 3.00706,0.791325 5.85584,2.532253 v 9.258528 q -4.03578,-2.215715 -6.25149,-3.165317 -2.21571,-0.949588 -5.14362,-0.949588 -2.92791,0 -4.3523,0.949588 -1.42439,0.870456 -1.42439,2.532253 0,1.978322 1.58265,2.927909 1.58265,0.870457 5.06449,1.820044 3.95663,1.028734 6.25149,2.057452 2.29485,0.949603 4.11489,3.40271 1.82006,2.373977 1.82006,6.726289 -0.15826,6.805406 -5.14362,9.970722 -4.98536,3.086171 -12.66124,3.086171 z" />
            <path
               inkscape:connector-curvature="0"
               id="path697"
               style="font-weight:bold;font-size:medium;line-height:0%;font-family:'Maven Pro';fill:#000000;fill-opacity:1;stroke:none;stroke-width:0.30792567"
               d="m 187.36716,21.073878 q 6.56801,0 11.94903,3.086186 5.38103,3.00704 5.38103,10.920309 l -0.0792,18.912726 q -0.0792,4.985361 -4.98536,7.280206 -4.90623,2.215714 -14.32302,2.215714 -17.56747,0 -17.56747,-13.689956 0,-5.776686 3.56098,-9.021134 3.6401,-3.244448 10.76204,-3.244448 2.92791,0 5.85582,0.79134 2.92792,0.712195 5.06451,1.899175 v -2.532238 q 0,-6.884551 -8.86288,-6.884551 -3.40271,0 -7.04281,1.266127 -3.56097,1.18698 -5.69755,2.927908 V 24.555719 q 2.13658,-1.424389 6.48888,-2.453107 4.43144,-1.028734 9.49593,-1.028734 z m -1.6618,34.106201 q 4.11491,0 5.69756,-0.553932 1.58266,-0.553917 1.58266,-2.215714 v -6.172342 q -2.76964,-0.949603 -6.09322,-0.949603 -3.8775,0 -5.69756,1.186996 -1.74091,1.107865 -1.74091,3.560972 0,2.294846 1.82004,3.719234 1.89919,1.424389 4.43143,1.424389 z" />
            <path
               inkscape:connector-curvature="0"
               id="path699"
               style="font-weight:bold;font-size:medium;line-height:0%;font-family:'Maven Pro';fill:#000000;fill-opacity:1;stroke:none;stroke-width:0.30792567"
               d="m 215.16375,26.454909 q 1.18699,-1.028733 4.1149,-2.294845 3.00704,-1.266127 6.64715,-2.136583 3.71925,-0.949603 7.12194,-0.949603 6.56803,0 9.10027,1.978321 v 8.625464 q -3.16531,-0.712194 -9.10027,-0.712194 -3.71923,0 -6.09321,0.39567 v 30.940885 h -11.79078 z" />
            <path
               inkscape:connector-curvature="0"
               id="path701"
               style="font-weight:bold;font-size:medium;line-height:0%;font-family:'Maven Pro';fill:#000000;fill-opacity:1;stroke:none;stroke-width:0.30792567"
               d="m 265.34625,20.915616 q 18.75447,0 18.51706,24.452003 h -26.43033 q 1.50352,8.30894 11.15772,8.30894 2.92791,0 5.69756,-0.791325 2.84878,-0.870457 6.01408,-2.215714 v 10.128984 q -6.48888,2.690515 -14.56042,2.690515 -6.09322,0 -10.68291,-2.453122 -4.58971,-2.532239 -7.12195,-7.201075 -2.53225,-4.668822 -2.53225,-10.999441 0,-10.445523 5.14362,-16.143079 5.22277,-5.776686 14.79782,-5.776686 z m -0.47478,9.021134 q -6.33062,0 -7.51762,7.91327 h 14.79782 q -0.55393,-4.273167 -2.29484,-6.093226 -1.6618,-1.820044 -4.98536,-1.820044 z" />
            <path
               inkscape:connector-curvature="0"
               id="path703"
               style="font-weight:bold;font-size:medium;line-height:0%;font-family:'Maven Pro';fill:#000000;fill-opacity:1;stroke:none;stroke-width:0.30792567"
               d="M 316.42643,62.302024 303.92346,45.76329 303.84428,62.302024 H 292.13265 V 7.1465287 h 11.86989 l -0.0792,29.9121663 12.1073,-14.797821 h 14.32302 l -16.53873,17.40919 17.56747,22.63196 z" />
          </g>
        </g>
        <g
           id="g821">
          <g
             id="g551">
            <path
               class="st0"
               d="m 401.03289,-44.148517 v 1.35913 c -0.0378,0 -0.0378,0 -0.0755,0.03775 l -0.67956,-0.566304 c -1.51015,-1.283623 -3.13355,-2.416231 -4.94572,-3.322317 -0.30203,-0.151014 -0.60406,-0.339782 -0.94384,-0.415289 -0.0378,-0.03775 -0.0755,-0.07551 -0.11326,-0.07551 -0.67957,-0.264275 -1.35913,-0.490796 -2.07645,-0.679564 -1.5479,-0.339783 -3.0958,-0.377536 -4.64369,-0.07551 -2.00094,0.41529 -3.77536,1.283623 -5.47428,2.416231 -1.66115,1.132607 -3.1713,2.453983 -4.56818,3.850866 -0.26428,0.264276 -0.26428,0.264276 -0.41529,-0.07551 -0.75507,-1.547897 -1.58565,-3.058041 -2.605,-4.454924 -0.79282,-1.057101 -1.66116,-2.038694 -2.79376,-2.718259 -1.13261,-0.717318 -2.37848,-0.981594 -3.69986,-0.641811 -1.6234,0.377536 -2.94478,1.359129 -4.19065,2.41623 -0.75507,0.566304 -1.43463,1.245869 -2.1142,1.88768 -0.64181,0.566304 -1.24587,1.132608 -1.88768,1.698912 -0.11326,0.11326 -0.18877,0.11326 -0.30203,0 -0.64181,-0.679565 -1.32137,-1.283623 -2.1142,-1.698912 -1.17036,-0.641811 -2.37847,-0.717319 -3.62434,-0.302029 -1.0571,0.339782 -1.96319,0.906086 -2.90703,1.510144 -0.37754,0.226521 -0.71732,0.490797 -1.09485,0.679565 v -0.07551 c 0.0378,-0.07551 0.0378,-0.151014 0.0378,-0.226521 0.0755,-1.661158 0.18877,-3.36007 0.45304,-5.021228 0.37754,-2.30297 0.94384,-4.530432 1.96319,-6.60688 0.75507,-1.547897 1.77442,-2.982534 3.05804,-4.152895 1.69891,-1.547898 3.69985,-2.529491 5.88956,-3.133549 2.37848,-0.679565 4.79471,-0.981593 7.24869,-1.094854 0.9816,-0.03775 1.92544,-0.07551 2.90703,-0.113261 0.4908,0.188768 0.98159,0.302029 1.47239,0.453043 0.71732,0.226522 1.43464,0.453043 2.15195,0.641811 0.37754,0.151015 0.71732,0.264276 1.09486,0.41529 1.39688,0.490797 2.75601,1.132608 3.92637,2.076448 0.30203,0.226521 0.60406,0.490796 0.90609,0.755072 -0.0755,-0.226522 -0.15102,-0.41529 -0.22652,-0.641811 -0.52855,-1.396884 -1.32138,-2.529491 -2.605,-3.322317 -0.52855,-0.339782 -1.09485,-0.566304 -1.66116,-0.868333 0.0378,0 0.11326,0 0.15102,-0.03775 1.69891,-0.302029 3.43557,-0.453043 5.17224,-0.528551 1.47239,-0.07551 2.98253,-0.03775 4.45492,0.113261 1.73667,0.188768 3.43558,0.528551 5.05898,1.132608 2.41623,0.906086 4.49268,2.302969 6.11609,4.341664 1.39688,1.774419 2.30297,3.813113 2.86927,6.002821 0.5663,2.151955 0.79283,4.379418 0.86833,6.60688 -0.0378,0.792825 -0.0378,1.623404 -0.0378,2.453983 z"
               id="path24"
               inkscape:connector-curvature="0"
               style="fill:#24af63;stroke-width:0.37753597" />
            <path
               class="st4"
               d="m 401.03289,-46.640254 h 0.0378 v 2.491737 h -0.0378 z"
               id="path26-8"
               inkscape:connector-curvature="0"
               style="fill:#ecdc86;stroke-width:0.37753597" />
            <path
               class="st5"
               d="m 387.25283,-82.468416 v 0.03775 h -1.69891 v -0.03775 z"
               id="path28"
               inkscape:connector-curvature="0"
               style="fill:#a0918f;stroke-width:0.37753597" />
            <path
               class="st0"
               d="m 388.34768,-11.340642 c 0.94384,-0.377536 1.84993,-0.868332 2.75601,-1.359129 1.0571,-0.641811 2.0387,-1.321376 3.02029,-2.038694 0.83058,-0.604058 1.62341,-1.245869 2.41623,-1.925434 l 1.35913,-1.132608 c 0.0755,-0.07551 0.0755,-0.03775 0.11326,0.03775 0.15102,0.604058 0.26428,1.245869 0.41529,1.88768 0.18877,0.868333 0.30203,1.736665 0.41529,2.604998 0.11326,1.019347 0.15102,2.000941 0.0755,3.020288 -0.0755,1.2458683 -0.30203,2.491737 -0.75507,3.6620985 -0.26428,0.7173183 -0.60406,1.396883 -1.01935,2.0386942 -0.52855,0.8305791 -1.13261,1.585651 -1.88768,2.2274621 -0.86833,0.7928255 -1.84993,1.47239026 -2.90703,2.0386942 -1.39688,0.79282552 -2.90702,1.3591295 -4.45492,1.8121726 -1.47239,0.4530432 -2.98254,0.7550719 -4.49268,1.0193471 -0.41529,0.075507 -0.83058,0.1510144 -1.24587,0.1510144 -0.86833,-0.037754 -1.73666,-0.2265216 -2.56724,-0.5285504 -1.24587,-0.4907967 -2.34073,-1.24586863 -3.58659,-1.81217257 -0.67957,-0.30202876 -1.35913,-0.52855034 -2.07645,-0.56630394 -0.94384,-0.0755072 -1.73667,0.26427518 -2.41623,0.90608631 l -1.47239,1.4723902 c -0.83058,0.8305792 -1.81218,1.3968831 -2.98254,1.5856511 -0.79282,0.1132608 -1.54789,0.075507 -2.34072,-0.037754 -1.09485,-0.1510144 -2.15195,-0.4152896 -3.1713,-0.7173183 -1.51015,-0.4907968 -2.90703,-1.1703615 -4.19065,-2.15195502 -1.20812,-0.9060863 -2.15196,-2.03869418 -2.94478,-3.32231648 -0.79283,-1.3213758 -1.24587,-2.7182589 -1.58565,-4.1906491 -0.15102,-0.6418112 -0.22652,-1.3213759 -0.30203,-1.963187 -0.11326,-0.9438399 -0.15102,-1.8499259 -0.11326,-2.7937659 0.0378,-1.321376 0.15101,-2.604998 0.33978,-3.926374 0.15101,0.151015 0.30203,0.264275 0.41529,0.377536 0.83058,0.755072 1.77442,1.434637 2.75601,2.038694 1.09486,0.641811 2.30297,1.170362 3.54884,1.510144 0.83058,0.226522 1.69891,0.377536 2.56724,0.41529 0.71732,0.07551 1.43464,0.07551 2.15196,0.03775 0.83058,-0.03775 1.69891,-0.11326 2.52949,-0.339782 0.11326,0 0.22652,0 0.30203,-0.03775 0.75507,-0.151014 1.51014,-0.339782 2.26522,-0.566304 0.86833,-0.264275 1.69891,-0.52855 2.52949,-0.830579 0.79282,-0.302028 1.6234,-0.641811 2.41623,-0.981593 0.22652,-0.113261 0.37753,-0.07551 0.5663,0.07551 1.32138,1.019347 2.75601,1.88768 4.30391,2.529491 1.73667,0.679565 3.51108,1.019347 5.36101,0.868333 1.35913,-0.264276 2.64275,-0.604058 3.88862,-1.094855 z"
               id="path30"
               inkscape:connector-curvature="0"
               style="fill:#24af63;stroke-width:0.37753597" />
            <path
               class="st4"
               d="m 388.34768,-11.340642 c -1.24587,0.490797 -2.52949,0.830579 -3.85087,0.94384 -1.84992,0.151015 -3.62434,-0.188768 -5.36101,-0.868332 -1.54789,-0.604058 -2.98253,-1.472391 -4.30391,-2.529491 -0.18876,-0.151015 -0.33978,-0.188768 -0.5663,-0.07551 -0.79283,0.339783 -1.58565,0.679565 -2.41623,0.981594 -0.83058,0.302029 -1.66116,0.604057 -2.52949,0.830579 -0.75507,0.226522 -1.51014,0.377536 -2.26522,0.566304 -0.11326,0.03775 -0.22652,0.03775 -0.30203,0.03775 0.26428,-0.302029 0.52855,-0.604058 0.79283,-0.906087 1.0571,-1.208115 1.81217,-2.604998 2.22746,-4.190649 0.60406,-2.114201 1.20812,-4.266156 1.73667,-6.418111 0.37753,-1.585651 0.67956,-3.171302 0.90608,-4.794707 0.15102,-1.170361 0.37754,-5.625286 0.30203,-6.682386 -0.18877,-3.24681 -0.90608,-6.342605 -2.22746,-9.325139 -0.79283,-1.774419 -2.15195,-2.982534 -4.03963,-3.47333 -0.83058,-0.226522 -1.66116,-0.151015 -2.45399,0.11326 -0.0755,0.03775 -0.11326,0.07551 -0.18877,0.03775 1.24587,-1.057101 2.52949,-2.038694 4.19065,-2.41623 1.32138,-0.302029 2.56725,-0.07551 3.69986,0.641811 1.1326,0.717318 2.00094,1.661158 2.79376,2.718259 1.01935,1.396883 1.84993,2.907027 2.605,4.454924 0.15101,0.339783 0.15101,0.339783 0.41529,0.07551 1.39688,-1.434636 2.90703,-2.756012 4.56818,-3.850866 1.66116,-1.132608 3.47334,-2.000941 5.47428,-2.416231 1.54789,-0.302028 3.09579,-0.264275 4.64369,0.07551 0.71732,0.151014 1.39688,0.377536 2.07645,0.679564 0.0378,0.03775 0.11326,0.03775 0.11326,0.07551 -2.00094,0.03775 -3.69986,0.792825 -5.24775,1.963187 -0.75508,0.566303 -1.43464,1.208115 -1.96319,2.00094 -0.41529,0.641811 -0.79283,1.35913 -1.09485,2.076448 -0.67957,1.434637 -1.24587,2.94478 -1.66116,4.492678 -0.33978,1.321376 -0.56631,2.680505 -0.67957,4.039635 -0.0755,1.0571 -0.11326,2.114201 -0.0755,3.171302 0.0377,1.283622 0.18876,2.567244 0.33978,3.88862 0.26427,2.151955 0.64181,4.30391 1.01934,6.455865 0.18877,1.170361 0.33979,2.378477 0.56631,3.586592 0.26427,1.736665 1.24587,3.020287 2.64275,4.001881 0,-0.03775 0.0755,0 0.11326,0.03775 z"
               id="path32-3"
               inkscape:connector-curvature="0"
               style="fill:#ecdc86;stroke-width:0.37753597" />
            <path
               class="st6"
               d="m 385.55392,-82.430663 h 1.69891 c 1.35913,0.07551 2.71826,0.302029 4.00188,0.755072 1.01935,0.339782 1.24587,1.019347 0.64181,1.88768 -0.41529,0.604057 -1.01935,1.057101 -1.66116,1.47239 -0.79282,0.52855 -1.66116,0.981594 -2.605,1.321376 -0.94384,0.377536 -1.84992,0 -2.45398,-0.94384 -0.18877,-0.302029 -0.33978,-0.604058 -0.41529,-0.94384 -0.0378,-0.113261 -0.0755,-0.151014 -0.18877,-0.151014 -2.1142,-0.377536 -4.00188,0.113261 -5.54978,1.623404 -1.28362,1.208115 -2.03869,2.756013 -2.56724,4.417171 -0.4908,1.510144 -0.71732,3.020288 -0.79283,4.605939 -0.0755,1.396883 0.0378,2.793766 0.22652,4.152895 0.0378,0.226522 0.11327,0.453044 0.11327,0.717319 0.0378,0.302028 -0.0755,0.566304 -0.30203,0.717318 -0.26428,0.188768 -0.56631,0.151014 -0.86834,0.151014 -0.71731,-0.226521 -1.43463,-0.453043 -2.15195,-0.641811 v -0.490796 c 0,-0.755072 0,-1.472391 0.0378,-2.227463 0.15102,-2.907027 0.60406,-5.7763 1.73667,-8.494559 0.83058,-2.038694 2.03869,-3.813113 3.7376,-5.209996 1.39689,-1.170361 2.98254,-1.925433 4.75696,-2.340723 0.90608,-0.226522 1.73666,-0.339782 2.605,-0.377536 z"
               id="path34-7"
               inkscape:connector-curvature="0"
               style="fill:#3f2b29;stroke-width:0.37753597" />
            <path
               class="st7"
               d="m 374.86965,-62.685532 c 0.30203,0 0.60406,0.03775 0.86833,-0.151015 0.26428,-0.188768 0.33978,-0.453043 0.30203,-0.717318 -0.0378,-0.226521 -0.0755,-0.490797 -0.11326,-0.717318 0.15101,0 0.26427,-0.03775 0.41529,-0.03775 0.52855,0.302029 1.09485,0.566304 1.66116,0.868333 1.28362,0.792825 2.07644,1.925433 2.60499,3.322316 0.0755,0.226522 0.15102,0.41529 0.22653,0.641811 -0.30203,-0.264275 -0.60406,-0.52855 -0.90609,-0.755071 -1.20812,-0.906087 -2.52949,-1.547898 -3.92637,-2.076448 -0.41529,-0.113261 -0.75508,-0.226522 -1.13261,-0.377536 z"
               id="path36"
               inkscape:connector-curvature="0"
               style="fill:#396e35;stroke-width:0.37753597" />
            <path
               class="st7"
               d="m 372.71769,-63.81814 v 0.490797 c -0.49079,-0.151015 -0.98159,-0.264275 -1.47239,-0.453043 0.52855,-0.03775 1.01935,-0.03775 1.47239,-0.03775 z"
               id="path38-9"
               inkscape:connector-curvature="0"
               style="fill:#396e35;stroke-width:0.37753597" />
          </g>
          <g
             id="g596">
            <path
               inkscape:connector-curvature="0"
               id="path569"
               style="font-weight:bold;font-size:medium;line-height:0%;font-family:'Maven Pro';fill:#000000;fill-opacity:1;stroke:none;stroke-width:0.37753597"
               d="m 150.58729,-13.861192 q -5.8632,0 -10.61714,-2.29774 -4.75394,-2.29774 -7.60631,-6.89322 -2.77314,-4.674713 -2.77314,-11.330235 0,-10.696376 5.70474,-16.163413 5.70473,-5.546269 15.21262,-5.546269 3.32776,0 6.73476,0.713092 3.40699,0.633859 6.02166,1.822345 v 10.141749 q -3.24853,-1.426183 -5.78397,-2.139275 -2.53543,-0.792324 -5.07087,-0.792324 -5.22934,0 -8.16094,2.61467 -2.9316,2.535437 -2.9316,8.002474 0,6.100896 2.6939,9.032495 2.77314,2.931599 8.95327,2.931599 4.67471,0 10.37944,-3.169296 v 10.062516 q -2.85236,1.505416 -5.94243,2.218508 -3.01083,0.792324 -6.81399,0.792324 z" />
            <path
               inkscape:connector-curvature="0"
               id="path571"
               style="font-weight:bold;font-size:medium;line-height:0%;font-family:'Maven Pro';fill:#000000;fill-opacity:1;stroke:none;stroke-width:0.37753597"
               d="m 189.64516,-13.702727 q -10.14175,0 -15.21262,-5.387804 -5.07088,-5.387805 -5.07088,-16.004948 0,-11.092538 4.99164,-16.163413 5.07088,-5.070874 15.29186,-5.070874 10.22098,0 15.37109,5.229339 5.15011,5.150107 5.15011,16.004948 0,10.458679 -5.30858,15.925715 -5.30857,5.467037 -15.21262,5.467037 z m 0,-9.428657 q 4.35778,0 6.57629,-3.010832 2.21851,-3.090064 2.21851,-8.953263 0,-6.417826 -2.21851,-9.111728 -2.13927,-2.773134 -6.57629,-2.773134 -4.59548,0 -6.65552,2.773134 -1.98081,2.693902 -1.98081,9.111728 0,6.100896 2.06004,9.032495 2.13927,2.9316 6.57629,2.9316 z" />
            <path
               inkscape:connector-curvature="0"
               id="path573"
               style="font-weight:bold;font-size:medium;line-height:0%;font-family:'Maven Pro';fill:#000000;fill-opacity:1;stroke:none;stroke-width:0.37753597"
               d="m 218.31492,-50.783497 q 1.18848,-1.030021 4.12008,-2.29774 3.01084,-1.267719 6.65553,-2.139275 3.72392,-0.950789 7.13091,-0.950789 6.57629,0 9.11173,1.98081 v 8.636333 q -3.1693,-0.713091 -9.11173,-0.713091 -3.72392,0 -6.10089,0.396162 v 30.979874 h -11.80563 z" />
            <path
               inkscape:connector-curvature="0"
               id="path575"
               style="font-weight:bold;font-size:medium;line-height:0%;font-family:'Maven Pro';fill:#000000;fill-opacity:1;stroke:none;stroke-width:0.37753597"
               d="m 268.56064,-56.329766 q 18.77809,0 18.54039,24.482816 H 260.6374 q 1.50542,8.319403 11.17177,8.319403 2.9316,0 5.70474,-0.792324 2.85236,-0.871556 6.02166,-2.218507 v 10.141749 q -6.49706,2.693902 -14.57876,2.693902 -6.1009,0 -10.69638,-2.456205 -4.59548,-2.535437 -7.13092,-7.21015 -2.53543,-4.674712 -2.53543,-11.013305 0,-10.458679 5.1501,-16.163413 5.22934,-5.783966 14.81646,-5.783966 z m -0.47539,9.032495 q -6.33859,0 -7.52708,7.923242 h 14.81646 q -0.55462,-4.278551 -2.29774,-6.100896 -1.66388,-1.822346 -4.99164,-1.822346 z" />
            <path
               inkscape:connector-curvature="0"
               id="path577"
               style="font-weight:bold;font-size:medium;line-height:0%;font-family:'Maven Pro';fill:#000000;fill-opacity:1;stroke:none;stroke-width:0.37753597"
               d="m 318.12052,-74.790919 h 8.47787 l -29.15753,67.6644822 h -8.39863 z" />
          </g>
          <g
             id="g589">
            <path
               inkscape:connector-curvature="0"
               id="path559"
               style="font-weight:bold;font-size:79.23241425px;line-height:0%;font-family:'Maven Pro';fill:#24af63;fill-opacity:1;stroke:none;stroke-width:0.37753597"
               d="m 15.436598,-51.575821 q 3.090064,-1.663881 9.428657,-3.090064 6.338593,-1.426184 11.330235,-1.426184 8.477868,0 12.756419,3.327762 4.27855,3.327761 4.27855,10.934073 v 26.939021 h -11.80563 v -24.562049 q 0,-6.89322 -7.764776,-6.89322 -1.743113,0 -3.565459,0.396162 -1.822345,0.396162 -2.852367,0.950789 v 30.108318 H 15.436598 Z" />
            <path
               inkscape:connector-curvature="0"
               id="path561"
               style="font-weight:bold;font-size:79.23241425px;line-height:0%;font-family:'Maven Pro';fill:#24af63;fill-opacity:1;stroke:none;stroke-width:0.37753597"
               d="m 66.729683,-45.95032 h -5.863199 v -9.032495 h 5.942431 v -0.950789 q 0.07923,-9.032495 4.120086,-12.518721 4.120085,-3.565459 11.17177,-3.565459 1.267719,0 2.773134,0.237697 1.505416,0.237697 2.456205,0.554627 v 10.379446 q -0.871556,-0.871556 -1.743113,-1.267718 -0.871556,-0.475395 -2.218507,-0.475395 -2.218508,0 -3.486227,1.188486 -1.267718,1.188487 -1.267718,4.040854 v 2.376972 h 8.715565 v 9.032495 h -8.794798 v 31.059107 H 66.729683 Z" />
            <path
               inkscape:connector-curvature="0"
               id="path563"
               style="font-weight:bold;font-size:79.23241425px;line-height:0%;font-family:'Maven Pro';fill:#24af63;fill-opacity:1;stroke:none;stroke-width:0.37753597"
               d="m 96.008535,-43.256418 h 24.165885 v 8.160939 H 96.008535 Z" />
            <path
               d="m 105.17203,-43.255454 -8.129199,8.160957 h 23.064239 v -8.160957 z"
               id="path67"
               inkscape:connector-curvature="0"
               style="display:inline;fill:url(#f);stroke-width:0.37753597" />
          </g>
        </g>
      </g>
    </g>
    <g
       aria-label="An open-source analysis pipeline to detect germline or
somatic variants from whole genome or targeted sequencing"
       transform="matrix(0.26458333,0,0,0.26458333,-34.517006,20.683034)"
       style="font-style:normal;font-weight:normal;font-size:37.33333206px;line-height:1.25;font-family:sans-serif;text-align:center;letter-spacing:0px;word-spacing:0px;text-anchor:middle;fill:#000000;fill-opacity:1;stroke:none"
       id="flowRoot115">
      <path
         d="m 223.8252,430.57812 -4.28125,11.60938 h 8.57812 z m -1.78125,-3.10937 h 3.57812 l 8.89063,23.32812 h -3.28125 l -2.125,-5.98437 h -10.51563 l -2.125,5.98437 h -3.32812 z"
         style="font-size:32px;text-align:center;text-anchor:middle"
         id="path117" />
      <path
         d="m 252.34082,440.23437 v 10.5625 h -2.875 v -10.46875 q 0,-2.48437 -0.96875,-3.71875 -0.96875,-1.23437 -2.90625,-1.23437 -2.32812,0 -3.67187,1.48437 -1.34375,1.48438 -1.34375,4.04688 v 9.89062 h -2.89063 v -17.5 h 2.89063 v 2.71875 q 1.03125,-1.57812 2.42187,-2.35937 1.40625,-0.78125 3.23438,-0.78125 3.01562,0 4.5625,1.875 1.54687,1.85937 1.54687,5.48437 z"
         style="font-size:32px;text-align:center;text-anchor:middle"
         id="path119" />
      <path
         d="m 275.02832,435.3125 q -2.3125,0 -3.65625,1.8125 -1.34375,1.79687 -1.34375,4.9375 0,3.14062 1.32813,4.95312 1.34375,1.79688 3.67187,1.79688 2.29688,0 3.64063,-1.8125 1.34375,-1.8125 1.34375,-4.9375 0,-3.10938 -1.34375,-4.92188 -1.34375,-1.82812 -3.64063,-1.82812 z m 0,-2.4375 q 3.75,0 5.89063,2.4375 2.14062,2.4375 2.14062,6.75 0,4.29687 -2.14062,6.75 -2.14063,2.4375 -5.89063,2.4375 -3.76562,0 -5.90625,-2.4375 -2.125,-2.45313 -2.125,-6.75 0,-4.3125 2.125,-6.75 2.14063,-2.4375 5.90625,-2.4375 z"
         style="font-size:32px;text-align:center;text-anchor:middle"
         id="path121" />
      <path
         d="m 290.60645,448.17187 v 9.28125 h -2.89063 v -24.15625 h 2.89063 v 2.65625 q 0.90625,-1.5625 2.28125,-2.3125 1.39062,-0.76562 3.3125,-0.76562 3.1875,0 5.17187,2.53125 2,2.53125 2,6.65625 0,4.125 -2,6.65625 -1.98437,2.53125 -5.17187,2.53125 -1.92188,0 -3.3125,-0.75 -1.375,-0.76563 -2.28125,-2.32813 z m 9.78125,-6.10937 q 0,-3.17188 -1.3125,-4.96875 -1.29688,-1.8125 -3.57813,-1.8125 -2.28125,0 -3.59375,1.8125 -1.29687,1.79687 -1.29687,4.96875 0,3.17187 1.29687,4.98437 1.3125,1.79688 3.59375,1.79688 2.28125,0 3.57813,-1.79688 1.3125,-1.8125 1.3125,-4.98437 z"
         style="font-size:32px;text-align:center;text-anchor:middle"
         id="path123" />
      <path
         d="m 323.10645,441.32812 v 1.40625 H 309.8877 q 0.1875,2.96875 1.78125,4.53125 1.60937,1.54688 4.46875,1.54688 1.65625,0 3.20312,-0.40625 1.5625,-0.40625 3.09375,-1.21875 v 2.71875 q -1.54687,0.65625 -3.17187,1 -1.625,0.34375 -3.29688,0.34375 -4.1875,0 -6.64062,-2.4375 -2.4375,-2.4375 -2.4375,-6.59375 0,-4.29688 2.3125,-6.8125 2.32812,-2.53125 6.26562,-2.53125 3.53125,0 5.57813,2.28125 2.0625,2.26562 2.0625,6.17187 z m -2.875,-0.84375 q -0.0312,-2.35937 -1.32813,-3.76562 -1.28125,-1.40625 -3.40625,-1.40625 -2.40625,0 -3.85937,1.35937 -1.4375,1.35938 -1.65625,3.82813 z"
         style="font-size:32px;text-align:center;text-anchor:middle"
         id="path125" />
      <path
         d="m 342.37207,440.23437 v 10.5625 h -2.875 v -10.46875 q 0,-2.48437 -0.96875,-3.71875 -0.96875,-1.23437 -2.90625,-1.23437 -2.32812,0 -3.67187,1.48437 -1.34375,1.48438 -1.34375,4.04688 v 9.89062 h -2.89063 v -17.5 h 2.89063 v 2.71875 q 1.03125,-1.57812 2.42187,-2.35937 1.40625,-0.78125 3.23438,-0.78125 3.01562,0 4.5625,1.875 1.54687,1.85937 1.54687,5.48437 z"
         style="font-size:32px;text-align:center;text-anchor:middle"
         id="path127" />
      <path
         d="m 346.65332,440.75 h 8.42188 v 2.5625 h -8.42188 z"
         style="font-size:32px;text-align:center;text-anchor:middle"
         id="path129" />
      <path
         d="m 370.80957,433.8125 v 2.71875 q -1.21875,-0.625 -2.53125,-0.9375 -1.3125,-0.3125 -2.71875,-0.3125 -2.14062,0 -3.21875,0.65625 -1.0625,0.65625 -1.0625,1.96875 0,1 0.76563,1.57812 0.76562,0.5625 3.07812,1.07813 l 0.98438,0.21875 q 3.0625,0.65625 4.34375,1.85937 1.29687,1.1875 1.29687,3.32813 0,2.4375 -1.9375,3.85937 -1.92187,1.42188 -5.29687,1.42188 -1.40625,0 -2.9375,-0.28125 -1.51563,-0.26563 -3.20313,-0.8125 v -2.96875 q 1.59375,0.82812 3.14063,1.25 1.54687,0.40625 3.0625,0.40625 2.03125,0 3.125,-0.6875 1.09375,-0.70313 1.09375,-1.96875 0,-1.17188 -0.79688,-1.79688 -0.78125,-0.625 -3.45312,-1.20312 l -1,-0.23438 q -2.67188,-0.5625 -3.85938,-1.71875 -1.1875,-1.17187 -1.1875,-3.20312 0,-2.46875 1.75,-3.8125 1.75,-1.34375 4.96875,-1.34375 1.59375,0 3,0.23437 1.40625,0.23438 2.59375,0.70313 z"
         style="font-size:32px;text-align:center;text-anchor:middle"
         id="path131" />
      <path
         d="m 383.10645,435.3125 q -2.3125,0 -3.65625,1.8125 -1.34375,1.79687 -1.34375,4.9375 0,3.14062 1.32812,4.95312 1.34375,1.79688 3.67188,1.79688 2.29687,0 3.64062,-1.8125 1.34375,-1.8125 1.34375,-4.9375 0,-3.10938 -1.34375,-4.92188 -1.34375,-1.82812 -3.64062,-1.82812 z m 0,-2.4375 q 3.75,0 5.89062,2.4375 2.14063,2.4375 2.14063,6.75 0,4.29687 -2.14063,6.75 -2.14062,2.4375 -5.89062,2.4375 -3.76563,0 -5.90625,-2.4375 -2.125,-2.45313 -2.125,-6.75 0,-4.3125 2.125,-6.75 2.14062,-2.4375 5.90625,-2.4375 z"
         style="font-size:32px;text-align:center;text-anchor:middle"
         id="path133" />
      <path
         d="m 395.60645,443.89062 v -10.59375 h 2.875 v 10.48438 q 0,2.48437 0.96875,3.73437 0.96875,1.23438 2.90625,1.23438 2.32812,0 3.67187,-1.48438 1.35938,-1.48437 1.35938,-4.04687 v -9.92188 h 2.875 v 17.5 h -2.875 v -2.6875 q -1.04688,1.59375 -2.4375,2.375 -1.375,0.76563 -3.20313,0.76563 -3.01562,0 -4.57812,-1.875 -1.5625,-1.875 -1.5625,-5.48438 z m 7.23437,-11.01562 z"
         style="font-size:32px;text-align:center;text-anchor:middle"
         id="path135" />
      <path
         d="m 426.3252,435.98437 q -0.48438,-0.28125 -1.0625,-0.40625 -0.5625,-0.14062 -1.25,-0.14062 -2.4375,0 -3.75,1.59375 -1.29688,1.57812 -1.29688,4.54687 v 9.21875 h -2.89062 v -17.5 h 2.89062 v 2.71875 q 0.90625,-1.59375 2.35938,-2.35937 1.45312,-0.78125 3.53125,-0.78125 0.29687,0 0.65625,0.0469 0.35937,0.0312 0.79687,0.10938 z"
         style="font-size:32px;text-align:center;text-anchor:middle"
         id="path137" />
      <path
         d="m 441.23145,433.96875 v 2.6875 q -1.21875,-0.67188 -2.45313,-1 -1.21875,-0.34375 -2.46875,-0.34375 -2.79687,0 -4.34375,1.78125 -1.54687,1.76562 -1.54687,4.96875 0,3.20312 1.54687,4.98437 1.54688,1.76563 4.34375,1.76563 1.25,0 2.46875,-0.32813 1.23438,-0.34375 2.45313,-1.01562 v 2.65625 q -1.20313,0.5625 -2.5,0.84375 -1.28125,0.28125 -2.73438,0.28125 -3.95312,0 -6.28125,-2.48438 -2.32812,-2.48437 -2.32812,-6.70312 0,-4.28125 2.34375,-6.73438 2.35937,-2.45312 6.45312,-2.45312 1.32813,0 2.59375,0.28125 1.26563,0.26562 2.45313,0.8125 z"
         style="font-size:32px;text-align:center;text-anchor:middle"
         id="path139" />
      <path
         d="m 461.2002,441.32812 v 1.40625 h -13.21875 q 0.1875,2.96875 1.78125,4.53125 1.60937,1.54688 4.46875,1.54688 1.65625,0 3.20312,-0.40625 1.5625,-0.40625 3.09375,-1.21875 v 2.71875 q -1.54687,0.65625 -3.17187,1 -1.625,0.34375 -3.29688,0.34375 -4.1875,0 -6.64062,-2.4375 -2.4375,-2.4375 -2.4375,-6.59375 0,-4.29688 2.3125,-6.8125 2.32812,-2.53125 6.26562,-2.53125 3.53125,0 5.57813,2.28125 2.0625,2.26562 2.0625,6.17187 z m -2.875,-0.84375 q -0.0312,-2.35937 -1.32813,-3.76562 -1.28125,-1.40625 -3.40625,-1.40625 -2.40625,0 -3.85937,1.35937 -1.4375,1.35938 -1.65625,3.82813 z"
         style="font-size:32px;text-align:center;text-anchor:middle"
         id="path141" />
      <path
         d="m 484.04395,442 q -3.48438,0 -4.82813,0.79687 -1.34375,0.79688 -1.34375,2.71875 0,1.53125 1,2.4375 1.01563,0.89063 2.75,0.89063 2.39063,0 3.82813,-1.6875 1.45312,-1.70313 1.45312,-4.51563 V 442 Z m 5.73437,-1.1875 v 9.98437 h -2.875 v -2.65625 q -0.98437,1.59375 -2.45312,2.35938 -1.46875,0.75 -3.59375,0.75 -2.6875,0 -4.28125,-1.5 -1.57813,-1.51563 -1.57813,-4.04688 0,-2.95312 1.96875,-4.45312 1.98438,-1.5 5.90625,-1.5 h 4.03125 v -0.28125 q 0,-1.98438 -1.3125,-3.0625 -1.29687,-1.09375 -3.65625,-1.09375 -1.5,0 -2.92187,0.35937 -1.42188,0.35938 -2.73438,1.07813 v -2.65625 q 1.57813,-0.60938 3.0625,-0.90625 1.48438,-0.3125 2.89063,-0.3125 3.79687,0 5.67187,1.96875 1.875,1.96875 1.875,5.96875 z"
         style="font-size:32px;text-align:center;text-anchor:middle"
         id="path143" />
      <path
         d="m 510.24707,440.23437 v 10.5625 h -2.875 v -10.46875 q 0,-2.48437 -0.96875,-3.71875 -0.96875,-1.23437 -2.90625,-1.23437 -2.32812,0 -3.67187,1.48437 -1.34375,1.48438 -1.34375,4.04688 v 9.89062 h -2.89063 v -17.5 h 2.89063 v 2.71875 q 1.03125,-1.57812 2.42187,-2.35937 1.40625,-0.78125 3.23438,-0.78125 3.01562,0 4.5625,1.875 1.54687,1.85937 1.54687,5.48437 z"
         style="font-size:32px;text-align:center;text-anchor:middle"
         id="path145" />
      <path
         d="m 523.93457,442 q -3.48437,0 -4.82812,0.79687 -1.34375,0.79688 -1.34375,2.71875 0,1.53125 1,2.4375 1.01562,0.89063 2.75,0.89063 2.39062,0 3.82812,-1.6875 1.45313,-1.70313 1.45313,-4.51563 V 442 Z m 5.73438,-1.1875 v 9.98437 h -2.875 v -2.65625 q -0.98438,1.59375 -2.45313,2.35938 -1.46875,0.75 -3.59375,0.75 -2.6875,0 -4.28125,-1.5 -1.57812,-1.51563 -1.57812,-4.04688 0,-2.95312 1.96875,-4.45312 1.98437,-1.5 5.90625,-1.5 h 4.03125 v -0.28125 q 0,-1.98438 -1.3125,-3.0625 -1.29688,-1.09375 -3.65625,-1.09375 -1.5,0 -2.92188,0.35937 -1.42187,0.35938 -2.73437,1.07813 v -2.65625 q 1.57812,-0.60938 3.0625,-0.90625 1.48437,-0.3125 2.89062,-0.3125 3.79688,0 5.67188,1.96875 1.875,1.96875 1.875,5.96875 z"
         style="font-size:32px;text-align:center;text-anchor:middle"
         id="path147" />
      <path
         d="m 535.59082,426.48437 h 2.875 v 24.3125 h -2.875 z"
         style="font-size:32px;text-align:center;text-anchor:middle"
         id="path149" />
      <path
         d="m 551.7627,452.42187 q -1.21875,3.125 -2.375,4.07813 -1.15625,0.95312 -3.09375,0.95312 h -2.29688 v -2.40625 h 1.6875 q 1.1875,0 1.84375,-0.5625 0.65625,-0.5625 1.45313,-2.65625 l 0.51562,-1.3125 -7.07812,-17.21875 h 3.04687 l 5.46875,13.6875 5.46875,-13.6875 h 3.04688 z"
         style="font-size:32px;text-align:center;text-anchor:middle"
         id="path151" />
      <path
         d="m 574.5752,433.8125 v 2.71875 q -1.21875,-0.625 -2.53125,-0.9375 -1.3125,-0.3125 -2.71875,-0.3125 -2.14063,0 -3.21875,0.65625 -1.0625,0.65625 -1.0625,1.96875 0,1 0.76562,1.57812 0.76563,0.5625 3.07813,1.07813 l 0.98437,0.21875 q 3.0625,0.65625 4.34375,1.85937 1.29688,1.1875 1.29688,3.32813 0,2.4375 -1.9375,3.85937 -1.92188,1.42188 -5.29688,1.42188 -1.40625,0 -2.9375,-0.28125 -1.51562,-0.26563 -3.20312,-0.8125 v -2.96875 q 1.59375,0.82812 3.14062,1.25 1.54688,0.40625 3.0625,0.40625 2.03125,0 3.125,-0.6875 1.09375,-0.70313 1.09375,-1.96875 0,-1.17188 -0.79687,-1.79688 -0.78125,-0.625 -3.45313,-1.20312 l -1,-0.23438 q -2.67187,-0.5625 -3.85937,-1.71875 -1.1875,-1.17187 -1.1875,-3.20312 0,-2.46875 1.75,-3.8125 1.75,-1.34375 4.96875,-1.34375 1.59375,0 3,0.23437 1.40625,0.23438 2.59375,0.70313 z"
         style="font-size:32px;text-align:center;text-anchor:middle"
         id="path153" />
      <path
         d="m 580.09082,433.29687 h 2.875 v 17.5 h -2.875 z m 0,-6.8125 h 2.875 v 3.64063 h -2.875 z"
         style="font-size:32px;text-align:center;text-anchor:middle"
         id="path155" />
      <path
         d="m 600.1377,433.8125 v 2.71875 q -1.21875,-0.625 -2.53125,-0.9375 -1.3125,-0.3125 -2.71875,-0.3125 -2.14063,0 -3.21875,0.65625 -1.0625,0.65625 -1.0625,1.96875 0,1 0.76562,1.57812 0.76563,0.5625 3.07813,1.07813 l 0.98437,0.21875 q 3.0625,0.65625 4.34375,1.85937 1.29688,1.1875 1.29688,3.32813 0,2.4375 -1.9375,3.85937 -1.92188,1.42188 -5.29688,1.42188 -1.40625,0 -2.9375,-0.28125 -1.51562,-0.26563 -3.20312,-0.8125 v -2.96875 q 1.59375,0.82812 3.14062,1.25 1.54688,0.40625 3.0625,0.40625 2.03125,0 3.125,-0.6875 1.09375,-0.70313 1.09375,-1.96875 0,-1.17188 -0.79687,-1.79688 -0.78125,-0.625 -3.45313,-1.20312 l -1,-0.23438 q -2.67187,-0.5625 -3.85937,-1.71875 -1.1875,-1.17187 -1.1875,-3.20312 0,-2.46875 1.75,-3.8125 1.75,-1.34375 4.96875,-1.34375 1.59375,0 3,0.23437 1.40625,0.23438 2.59375,0.70313 z"
         style="font-size:32px;text-align:center;text-anchor:middle"
         id="path157" />
      <path
         d="m 618.60645,448.17187 v 9.28125 h -2.89063 v -24.15625 h 2.89063 v 2.65625 q 0.90625,-1.5625 2.28125,-2.3125 1.39062,-0.76562 3.3125,-0.76562 3.1875,0 5.17187,2.53125 2,2.53125 2,6.65625 0,4.125 -2,6.65625 -1.98437,2.53125 -5.17187,2.53125 -1.92188,0 -3.3125,-0.75 -1.375,-0.76563 -2.28125,-2.32813 z m 9.78125,-6.10937 q 0,-3.17188 -1.3125,-4.96875 -1.29688,-1.8125 -3.57813,-1.8125 -2.28125,0 -3.59375,1.8125 -1.29687,1.79687 -1.29687,4.96875 0,3.17187 1.29687,4.98437 1.3125,1.79688 3.59375,1.79688 2.28125,0 3.57813,-1.79688 1.3125,-1.8125 1.3125,-4.98437 z"
         style="font-size:32px;text-align:center;text-anchor:middle"
         id="path159" />
      <path
         d="m 636.1377,433.29687 h 2.875 v 17.5 h -2.875 z m 0,-6.8125 h 2.875 v 3.64063 h -2.875 z"
         style="font-size:32px;text-align:center;text-anchor:middle"
         id="path161" />
      <path
         d="m 647.80957,448.17187 v 9.28125 h -2.89062 v -24.15625 h 2.89062 v 2.65625 q 0.90625,-1.5625 2.28125,-2.3125 1.39063,-0.76562 3.3125,-0.76562 3.1875,0 5.17188,2.53125 2,2.53125 2,6.65625 0,4.125 -2,6.65625 -1.98438,2.53125 -5.17188,2.53125 -1.92187,0 -3.3125,-0.75 -1.375,-0.76563 -2.28125,-2.32813 z m 9.78125,-6.10937 q 0,-3.17188 -1.3125,-4.96875 -1.29687,-1.8125 -3.57812,-1.8125 -2.28125,0 -3.59375,1.8125 -1.29688,1.79687 -1.29688,4.96875 0,3.17187 1.29688,4.98437 1.3125,1.79688 3.59375,1.79688 2.28125,0 3.57812,-1.79688 1.3125,-1.8125 1.3125,-4.98437 z"
         style="font-size:32px;text-align:center;text-anchor:middle"
         id="path163" />
      <path
         d="m 680.30957,441.32812 v 1.40625 h -13.21875 q 0.1875,2.96875 1.78125,4.53125 1.60938,1.54688 4.46875,1.54688 1.65625,0 3.20313,-0.40625 1.5625,-0.40625 3.09375,-1.21875 v 2.71875 q -1.54688,0.65625 -3.17188,1 -1.625,0.34375 -3.29687,0.34375 -4.1875,0 -6.64063,-2.4375 -2.4375,-2.4375 -2.4375,-6.59375 0,-4.29688 2.3125,-6.8125 2.32813,-2.53125 6.26563,-2.53125 3.53125,0 5.57812,2.28125 2.0625,2.26562 2.0625,6.17187 z m -2.875,-0.84375 q -0.0312,-2.35937 -1.32812,-3.76562 -1.28125,-1.40625 -3.40625,-1.40625 -2.40625,0 -3.85938,1.35937 -1.4375,1.35938 -1.65625,3.82813 z"
         style="font-size:32px;text-align:center;text-anchor:middle"
         id="path165" />
      <path
         d="m 685.02832,426.48437 h 2.875 v 24.3125 h -2.875 z"
         style="font-size:32px;text-align:center;text-anchor:middle"
         id="path167" />
      <path
         d="m 693.91895,433.29687 h 2.875 v 17.5 h -2.875 z m 0,-6.8125 h 2.875 v 3.64063 h -2.875 z"
         style="font-size:32px;text-align:center;text-anchor:middle"
         id="path169" />
      <path
         d="m 717.35645,440.23437 v 10.5625 h -2.875 v -10.46875 q 0,-2.48437 -0.96875,-3.71875 -0.96875,-1.23437 -2.90625,-1.23437 -2.32813,0 -3.67188,1.48437 -1.34375,1.48438 -1.34375,4.04688 v 9.89062 h -2.89062 v -17.5 h 2.89062 v 2.71875 q 1.03125,-1.57812 2.42188,-2.35937 1.40625,-0.78125 3.23437,-0.78125 3.01563,0 4.5625,1.875 1.54688,1.85937 1.54688,5.48437 z"
         style="font-size:32px;text-align:center;text-anchor:middle"
         id="path171" />
      <path
         d="m 738.05957,441.32812 v 1.40625 h -13.21875 q 0.1875,2.96875 1.78125,4.53125 1.60938,1.54688 4.46875,1.54688 1.65625,0 3.20313,-0.40625 1.5625,-0.40625 3.09375,-1.21875 v 2.71875 q -1.54688,0.65625 -3.17188,1 -1.625,0.34375 -3.29687,0.34375 -4.1875,0 -6.64063,-2.4375 -2.4375,-2.4375 -2.4375,-6.59375 0,-4.29688 2.3125,-6.8125 2.32813,-2.53125 6.26563,-2.53125 3.53125,0 5.57812,2.28125 2.0625,2.26562 2.0625,6.17187 z m -2.875,-0.84375 q -0.0312,-2.35937 -1.32812,-3.76562 -1.28125,-1.40625 -3.40625,-1.40625 -2.40625,0 -3.85938,1.35937 -1.4375,1.35938 -1.65625,3.82813 z"
         style="font-size:32px;text-align:center;text-anchor:middle"
         id="path173" />
      <path
         d="m 755.79395,428.32812 v 4.96875 h 5.92187 v 2.23438 h -5.92187 v 9.5 q 0,2.14062 0.57812,2.75 0.59375,0.60937 2.39063,0.60937 h 2.95312 v 2.40625 h -2.95312 q -3.32813,0 -4.59375,-1.23437 -1.26563,-1.25 -1.26563,-4.53125 v -9.5 h -2.10937 v -2.23438 h 2.10937 v -4.96875 z"
         style="font-size:32px;text-align:center;text-anchor:middle"
         id="path175" />
      <path
         d="m 772.27832,435.3125 q -2.3125,0 -3.65625,1.8125 -1.34375,1.79687 -1.34375,4.9375 0,3.14062 1.32813,4.95312 1.34375,1.79688 3.67187,1.79688 2.29688,0 3.64063,-1.8125 1.34375,-1.8125 1.34375,-4.9375 0,-3.10938 -1.34375,-4.92188 -1.34375,-1.82812 -3.64063,-1.82812 z m 0,-2.4375 q 3.75,0 5.89063,2.4375 2.14062,2.4375 2.14062,6.75 0,4.29687 -2.14062,6.75 -2.14063,2.4375 -5.89063,2.4375 -3.76562,0 -5.90625,-2.4375 -2.125,-2.45313 -2.125,-6.75 0,-4.3125 2.125,-6.75 2.14063,-2.4375 5.90625,-2.4375 z"
         style="font-size:32px;text-align:center;text-anchor:middle"
         id="path177" />
      <path
         d="m 806.7627,435.95312 v -9.46875 h 2.875 v 24.3125 h -2.875 v -2.625 q -0.90625,1.5625 -2.29688,2.32813 -1.375,0.75 -3.3125,0.75 -3.17187,0 -5.17187,-2.53125 -1.98438,-2.53125 -1.98438,-6.65625 0,-4.125 1.98438,-6.65625 2,-2.53125 5.17187,-2.53125 1.9375,0 3.3125,0.76562 1.39063,0.75 2.29688,2.3125 z m -9.79688,6.10938 q 0,3.17187 1.29688,4.98437 1.3125,1.79688 3.59375,1.79688 2.28125,0 3.59375,-1.79688 1.3125,-1.8125 1.3125,-4.98437 0,-3.17188 -1.3125,-4.96875 -1.3125,-1.8125 -3.59375,-1.8125 -2.28125,0 -3.59375,1.8125 -1.29688,1.79687 -1.29688,4.96875 z"
         style="font-size:32px;text-align:center;text-anchor:middle"
         id="path179" />
      <path
         d="m 830.52832,441.32812 v 1.40625 h -13.21875 q 0.1875,2.96875 1.78125,4.53125 1.60938,1.54688 4.46875,1.54688 1.65625,0 3.20313,-0.40625 1.5625,-0.40625 3.09375,-1.21875 v 2.71875 q -1.54688,0.65625 -3.17188,1 -1.625,0.34375 -3.29687,0.34375 -4.1875,0 -6.64063,-2.4375 -2.4375,-2.4375 -2.4375,-6.59375 0,-4.29688 2.3125,-6.8125 2.32813,-2.53125 6.26563,-2.53125 3.53125,0 5.57812,2.28125 2.0625,2.26562 2.0625,6.17187 z m -2.875,-0.84375 q -0.0312,-2.35937 -1.32812,-3.76562 -1.28125,-1.40625 -3.40625,-1.40625 -2.40625,0 -3.85938,1.35937 -1.4375,1.35938 -1.65625,3.82813 z"
         style="font-size:32px;text-align:center;text-anchor:middle"
         id="path181" />
      <path
         d="m 838.09082,428.32812 v 4.96875 h 5.92188 v 2.23438 h -5.92188 v 9.5 q 0,2.14062 0.57813,2.75 0.59375,0.60937 2.39062,0.60937 h 2.95313 v 2.40625 h -2.95313 q -3.32812,0 -4.59375,-1.23437 -1.26562,-1.25 -1.26562,-4.53125 v -9.5 h -2.10938 v -2.23438 h 2.10938 v -4.96875 z"
         style="font-size:32px;text-align:center;text-anchor:middle"
         id="path183" />
      <path
         d="m 862.7627,441.32812 v 1.40625 h -13.21875 q 0.1875,2.96875 1.78125,4.53125 1.60937,1.54688 4.46875,1.54688 1.65625,0 3.20312,-0.40625 1.5625,-0.40625 3.09375,-1.21875 v 2.71875 q -1.54687,0.65625 -3.17187,1 -1.625,0.34375 -3.29688,0.34375 -4.1875,0 -6.64062,-2.4375 -2.4375,-2.4375 -2.4375,-6.59375 0,-4.29688 2.3125,-6.8125 2.32812,-2.53125 6.26562,-2.53125 3.53125,0 5.57813,2.28125 2.0625,2.26562 2.0625,6.17187 z m -2.875,-0.84375 q -0.0312,-2.35937 -1.32813,-3.76562 -1.28125,-1.40625 -3.40625,-1.40625 -2.40625,0 -3.85937,1.35937 -1.4375,1.35938 -1.65625,3.82813 z"
         style="font-size:32px;text-align:center;text-anchor:middle"
         id="path185" />
      <path
         d="m 880.0752,433.96875 v 2.6875 q -1.21875,-0.67188 -2.45313,-1 -1.21875,-0.34375 -2.46875,-0.34375 -2.79687,0 -4.34375,1.78125 -1.54687,1.76562 -1.54687,4.96875 0,3.20312 1.54687,4.98437 1.54688,1.76563 4.34375,1.76563 1.25,0 2.46875,-0.32813 1.23438,-0.34375 2.45313,-1.01562 v 2.65625 q -1.20313,0.5625 -2.5,0.84375 -1.28125,0.28125 -2.73438,0.28125 -3.95312,0 -6.28125,-2.48438 -2.32812,-2.48437 -2.32812,-6.70312 0,-4.28125 2.34375,-6.73438 2.35937,-2.45312 6.45312,-2.45312 1.32813,0 2.59375,0.28125 1.26563,0.26562 2.45313,0.8125 z"
         style="font-size:32px;text-align:center;text-anchor:middle"
         id="path187" />
      <path
         d="m 887.91895,428.32812 v 4.96875 h 5.92187 v 2.23438 h -5.92187 v 9.5 q 0,2.14062 0.57812,2.75 0.59375,0.60937 2.39063,0.60937 h 2.95312 v 2.40625 h -2.95312 q -3.32813,0 -4.59375,-1.23437 -1.26563,-1.25 -1.26563,-4.53125 v -9.5 h -2.10937 v -2.23438 h 2.10937 v -4.96875 z"
         style="font-size:32px;text-align:center;text-anchor:middle"
         id="path189" />
      <path
         d="m 919.30957,441.84375 q 0,-3.125 -1.29687,-4.84375 -1.28125,-1.71875 -3.60938,-1.71875 -2.3125,0 -3.60937,1.71875 -1.28125,1.71875 -1.28125,4.84375 0,3.10937 1.28125,4.82812 1.29687,1.71875 3.60937,1.71875 2.32813,0 3.60938,-1.71875 1.29687,-1.71875 1.29687,-4.82812 z m 2.875,6.78125 q 0,4.46875 -1.98437,6.64062 -1.98438,2.1875 -6.07813,2.1875 -1.51562,0 -2.85937,-0.23437 -1.34375,-0.21875 -2.60938,-0.6875 v -2.79688 q 1.26563,0.6875 2.5,1.01563 1.23438,0.32812 2.51563,0.32812 2.82812,0 4.23437,-1.48437 1.40625,-1.46875 1.40625,-4.45313 v -1.42187 q -0.89062,1.54687 -2.28125,2.3125 -1.39062,0.76562 -3.32812,0.76562 -3.21875,0 -5.1875,-2.45312 -1.96875,-2.45313 -1.96875,-6.5 0,-4.0625 1.96875,-6.51563 1.96875,-2.45312 5.1875,-2.45312 1.9375,0 3.32812,0.76562 1.39063,0.76563 2.28125,2.3125 v -2.65625 h 2.875 z"
         style="font-size:32px;text-align:center;text-anchor:middle"
         id="path191" />
      <path
         d="m 943.0752,441.32812 v 1.40625 h -13.21875 q 0.1875,2.96875 1.78125,4.53125 1.60937,1.54688 4.46875,1.54688 1.65625,0 3.20312,-0.40625 1.5625,-0.40625 3.09375,-1.21875 v 2.71875 q -1.54687,0.65625 -3.17187,1 -1.625,0.34375 -3.29688,0.34375 -4.1875,0 -6.64062,-2.4375 -2.4375,-2.4375 -2.4375,-6.59375 0,-4.29688 2.3125,-6.8125 2.32812,-2.53125 6.26562,-2.53125 3.53125,0 5.57813,2.28125 2.0625,2.26562 2.0625,6.17187 z m -2.875,-0.84375 q -0.0312,-2.35937 -1.32813,-3.76562 -1.28125,-1.40625 -3.40625,-1.40625 -2.40625,0 -3.85937,1.35937 -1.4375,1.35938 -1.65625,3.82813 z"
         style="font-size:32px;text-align:center;text-anchor:middle"
         id="path193" />
      <path
         d="m 957.93457,435.98437 q -0.48437,-0.28125 -1.0625,-0.40625 -0.5625,-0.14062 -1.25,-0.14062 -2.4375,0 -3.75,1.59375 -1.29687,1.57812 -1.29687,4.54687 v 9.21875 h -2.89063 v -17.5 h 2.89063 v 2.71875 q 0.90625,-1.59375 2.35937,-2.35937 1.45313,-0.78125 3.53125,-0.78125 0.29688,0 0.65625,0.0469 0.35938,0.0312 0.79688,0.10938 z"
         style="font-size:32px;text-align:center;text-anchor:middle"
         id="path195" />
      <path
         d="m 974.0127,436.65625 q 1.07812,-1.9375 2.57812,-2.85938 1.5,-0.92187 3.53125,-0.92187 2.73438,0 4.21875,1.92187 1.48438,1.90625 1.48438,5.4375 v 10.5625 h -2.89063 v -10.46875 q 0,-2.51562 -0.89062,-3.73437 -0.89063,-1.21875 -2.71875,-1.21875 -2.23438,0 -3.53125,1.48437 -1.29688,1.48438 -1.29688,4.04688 v 9.89062 h -2.89062 v -10.46875 q 0,-2.53125 -0.89063,-3.73437 -0.89062,-1.21875 -2.75,-1.21875 -2.20312,0 -3.5,1.5 -1.29687,1.48437 -1.29687,4.03125 v 9.89062 h -2.89063 v -17.5 h 2.89063 v 2.71875 q 0.98437,-1.60937 2.35937,-2.375 1.375,-0.76562 3.26563,-0.76562 1.90625,0 3.23437,0.96875 1.34375,0.96875 1.98438,2.8125 z"
         style="font-size:32px;text-align:center;text-anchor:middle"
         id="path197" />
      <path
         d="m 991.55957,426.48437 h 2.875 v 24.3125 h -2.875 z"
         style="font-size:32px;text-align:center;text-anchor:middle"
         id="path199" />
      <path
         d="m 1000.4502,433.29687 h 2.875 v 17.5 h -2.875 z m 0,-6.8125 h 2.875 v 3.64063 h -2.875 z"
         style="font-size:32px;text-align:center;text-anchor:middle"
         id="path201" />
      <path
         d="m 1023.8877,440.23437 v 10.5625 h -2.875 v -10.46875 q 0,-2.48437 -0.9688,-3.71875 -0.9687,-1.23437 -2.9062,-1.23437 -2.3281,0 -3.6719,1.48437 -1.3437,1.48438 -1.3437,4.04688 v 9.89062 h -2.8907 v -17.5 h 2.8907 v 2.71875 q 1.0312,-1.57812 2.4218,-2.35937 1.4063,-0.78125 3.2344,-0.78125 3.0156,0 4.5625,1.875 1.5469,1.85937 1.5469,5.48437 z"
         style="font-size:32px;text-align:center;text-anchor:middle"
         id="path203" />
      <path
         d="m 1044.5908,441.32812 v 1.40625 h -13.2187 q 0.1875,2.96875 1.7812,4.53125 1.6094,1.54688 4.4688,1.54688 1.6562,0 3.2031,-0.40625 1.5625,-0.40625 3.0937,-1.21875 v 2.71875 q -1.5468,0.65625 -3.1718,1 -1.625,0.34375 -3.2969,0.34375 -4.1875,0 -6.6406,-2.4375 -2.4375,-2.4375 -2.4375,-6.59375 0,-4.29688 2.3125,-6.8125 2.3281,-2.53125 6.2656,-2.53125 3.5312,0 5.5781,2.28125 2.0625,2.26562 2.0625,6.17187 z m -2.875,-0.84375 q -0.031,-2.35937 -1.3281,-3.76562 -1.2813,-1.40625 -3.4063,-1.40625 -2.4062,0 -3.8593,1.35937 -1.4375,1.35938 -1.6563,3.82813 z"
         style="font-size:32px;text-align:center;text-anchor:middle"
         id="path205" />
      <path
         d="m 1066.2627,435.3125 q -2.3125,0 -3.6563,1.8125 -1.3437,1.79687 -1.3437,4.9375 0,3.14062 1.3281,4.95312 1.3438,1.79688 3.6719,1.79688 2.2969,0 3.6406,-1.8125 1.3438,-1.8125 1.3438,-4.9375 0,-3.10938 -1.3438,-4.92188 -1.3437,-1.82812 -3.6406,-1.82812 z m 0,-2.4375 q 3.75,0 5.8906,2.4375 2.1406,2.4375 2.1406,6.75 0,4.29687 -2.1406,6.75 -2.1406,2.4375 -5.8906,2.4375 -3.7656,0 -5.9063,-2.4375 -2.125,-2.45313 -2.125,-6.75 0,-4.3125 2.125,-6.75 2.1407,-2.4375 5.9063,-2.4375 z"
         style="font-size:32px;text-align:center;text-anchor:middle"
         id="path207" />
      <path
         d="m 1089.2002,435.98437 q -0.4844,-0.28125 -1.0625,-0.40625 -0.5625,-0.14062 -1.25,-0.14062 -2.4375,0 -3.75,1.59375 -1.2969,1.57812 -1.2969,4.54687 v 9.21875 h -2.8906 v -17.5 h 2.8906 v 2.71875 q 0.9063,-1.59375 2.3594,-2.35937 1.4531,-0.78125 3.5312,-0.78125 0.2969,0 0.6563,0.0469 0.3594,0.0312 0.7969,0.10938 z"
         style="font-size:32px;text-align:center;text-anchor:middle"
         id="path209" />
      <path
         d="m 174.81738,480.47916 v 2.71875 q -1.21875,-0.625 -2.53125,-0.9375 -1.3125,-0.3125 -2.71875,-0.3125 -2.14062,0 -3.21875,0.65625 -1.0625,0.65625 -1.0625,1.96875 0,1 0.76563,1.57812 0.76562,0.5625 3.07812,1.07813 l 0.98438,0.21875 q 3.0625,0.65625 4.34375,1.85937 1.29687,1.1875 1.29687,3.32813 0,2.4375 -1.9375,3.85937 -1.92187,1.42188 -5.29687,1.42188 -1.40625,0 -2.9375,-0.28125 -1.51563,-0.26563 -3.20313,-0.8125 v -2.96875 q 1.59375,0.82812 3.14063,1.25 1.54687,0.40625 3.0625,0.40625 2.03125,0 3.125,-0.6875 1.09375,-0.70313 1.09375,-1.96875 0,-1.17188 -0.79688,-1.79688 -0.78125,-0.625 -3.45312,-1.20312 l -1,-0.23438 q -2.67188,-0.5625 -3.85938,-1.71875 -1.1875,-1.17187 -1.1875,-3.20312 0,-2.46875 1.75,-3.8125 1.75,-1.34375 4.96875,-1.34375 1.59375,0 3,0.23437 1.40625,0.23438 2.59375,0.70313 z"
         style="font-size:32px;text-align:center;text-anchor:middle"
         id="path211" />
      <path
         d="m 187.11426,481.97916 q -2.3125,0 -3.65625,1.8125 -1.34375,1.79687 -1.34375,4.9375 0,3.14062 1.32812,4.95312 1.34375,1.79688 3.67188,1.79688 2.29687,0 3.64062,-1.8125 1.34375,-1.8125 1.34375,-4.9375 0,-3.10938 -1.34375,-4.92188 -1.34375,-1.82812 -3.64062,-1.82812 z m 0,-2.4375 q 3.75,0 5.89062,2.4375 2.14063,2.4375 2.14063,6.75 0,4.29687 -2.14063,6.75 -2.14062,2.4375 -5.89062,2.4375 -3.76563,0 -5.90625,-2.4375 -2.125,-2.45313 -2.125,-6.75 0,-4.3125 2.125,-6.75 2.14062,-2.4375 5.90625,-2.4375 z"
         style="font-size:32px;text-align:center;text-anchor:middle"
         id="path213" />
      <path
         d="m 213.53613,483.32291 q 1.07813,-1.9375 2.57813,-2.85938 1.5,-0.92187 3.53125,-0.92187 2.73437,0 4.21875,1.92187 1.48437,1.90625 1.48437,5.4375 v 10.5625 h -2.89062 v -10.46875 q 0,-2.51562 -0.89063,-3.73437 -0.89062,-1.21875 -2.71875,-1.21875 -2.23437,0 -3.53125,1.48437 -1.29687,1.48438 -1.29687,4.04688 v 9.89062 h -2.89063 v -10.46875 q 0,-2.53125 -0.89062,-3.73437 -0.89063,-1.21875 -2.75,-1.21875 -2.20313,0 -3.5,1.5 -1.29688,1.48437 -1.29688,4.03125 v 9.89062 h -2.89062 v -17.5 h 2.89062 v 2.71875 q 0.98438,-1.60937 2.35938,-2.375 1.375,-0.76562 3.26562,-0.76562 1.90625,0 3.23438,0.96875 1.34375,0.96875 1.98437,2.8125 z"
         style="font-size:32px;text-align:center;text-anchor:middle"
         id="path215" />
      <path
         d="m 239.03613,488.66666 q -3.48437,0 -4.82812,0.79687 -1.34375,0.79688 -1.34375,2.71875 0,1.53125 1,2.4375 1.01562,0.89063 2.75,0.89063 2.39062,0 3.82812,-1.6875 1.45313,-1.70313 1.45313,-4.51563 v -0.64062 z m 5.73438,-1.1875 v 9.98437 h -2.875 v -2.65625 q -0.98438,1.59375 -2.45313,2.35938 -1.46875,0.75 -3.59375,0.75 -2.6875,0 -4.28125,-1.5 -1.57812,-1.51563 -1.57812,-4.04688 0,-2.95312 1.96875,-4.45312 1.98437,-1.5 5.90625,-1.5 h 4.03125 v -0.28125 q 0,-1.98438 -1.3125,-3.0625 -1.29688,-1.09375 -3.65625,-1.09375 -1.5,0 -2.92188,0.35937 -1.42187,0.35938 -2.73437,1.07813 v -2.65625 q 1.57812,-0.60938 3.0625,-0.90625 1.48437,-0.3125 2.89062,-0.3125 3.79688,0 5.67188,1.96875 1.875,1.96875 1.875,5.96875 z"
         style="font-size:32px;text-align:center;text-anchor:middle"
         id="path217" />
      <path
         d="m 253.53613,474.99478 v 4.96875 h 5.92188 v 2.23438 h -5.92188 v 9.5 q 0,2.14062 0.57813,2.75 0.59375,0.60937 2.39062,0.60937 h 2.95313 v 2.40625 h -2.95313 q -3.32812,0 -4.59375,-1.23437 -1.26562,-1.25 -1.26562,-4.53125 v -9.5 h -2.10938 v -2.23438 h 2.10938 v -4.96875 z"
         style="font-size:32px;text-align:center;text-anchor:middle"
         id="path219" />
      <path
         d="m 263.23926,479.96353 h 2.875 v 17.5 h -2.875 z m 0,-6.8125 h 2.875 v 3.64063 h -2.875 z"
         style="font-size:32px;text-align:center;text-anchor:middle"
         id="path221" />
      <path
         d="m 284.72363,480.63541 v 2.6875 q -1.21875,-0.67188 -2.45312,-1 -1.21875,-0.34375 -2.46875,-0.34375 -2.79688,0 -4.34375,1.78125 -1.54688,1.76562 -1.54688,4.96875 0,3.20312 1.54688,4.98437 1.54687,1.76563 4.34375,1.76563 1.25,0 2.46875,-0.32813 1.23437,-0.34375 2.45312,-1.01562 v 2.65625 q -1.20312,0.5625 -2.5,0.84375 -1.28125,0.28125 -2.73437,0.28125 -3.95313,0 -6.28125,-2.48438 -2.32813,-2.48437 -2.32813,-6.70312 0,-4.28125 2.34375,-6.73438 2.35938,-2.45312 6.45313,-2.45312 1.32812,0 2.59375,0.28125 1.26562,0.26562 2.45312,0.8125 z"
         style="font-size:32px;text-align:center;text-anchor:middle"
         id="path223" />
      <path
         d="m 297.83301,479.96353 h 3.04687 l 5.46875,14.6875 5.46875,-14.6875 h 3.04688 l -6.5625,17.5 h -3.90625 z"
         style="font-size:32px;text-align:center;text-anchor:middle"
         id="path225" />
      <path
         d="m 326.78613,488.66666 q -3.48437,0 -4.82812,0.79687 -1.34375,0.79688 -1.34375,2.71875 0,1.53125 1,2.4375 1.01562,0.89063 2.75,0.89063 2.39062,0 3.82812,-1.6875 1.45313,-1.70313 1.45313,-4.51563 v -0.64062 z m 5.73438,-1.1875 v 9.98437 h -2.875 v -2.65625 q -0.98438,1.59375 -2.45313,2.35938 -1.46875,0.75 -3.59375,0.75 -2.6875,0 -4.28125,-1.5 -1.57812,-1.51563 -1.57812,-4.04688 0,-2.95312 1.96875,-4.45312 1.98437,-1.5 5.90625,-1.5 h 4.03125 v -0.28125 q 0,-1.98438 -1.3125,-3.0625 -1.29688,-1.09375 -3.65625,-1.09375 -1.5,0 -2.92188,0.35937 -1.42187,0.35938 -2.73437,1.07813 v -2.65625 q 1.57812,-0.60938 3.0625,-0.90625 1.48437,-0.3125 2.89062,-0.3125 3.79688,0 5.67188,1.96875 1.875,1.96875 1.875,5.96875 z"
         style="font-size:32px;text-align:center;text-anchor:middle"
         id="path227" />
      <path
         d="m 348.58301,482.65103 q -0.48438,-0.28125 -1.0625,-0.40625 -0.5625,-0.14062 -1.25,-0.14062 -2.4375,0 -3.75,1.59375 -1.29688,1.57812 -1.29688,4.54687 v 9.21875 h -2.89062 v -17.5 h 2.89062 v 2.71875 q 0.90625,-1.59375 2.35938,-2.35937 1.45312,-0.78125 3.53125,-0.78125 0.29687,0 0.65625,0.0469 0.35937,0.0312 0.79687,0.10938 z"
         style="font-size:32px;text-align:center;text-anchor:middle"
         id="path229" />
      <path
         d="m 351.59863,479.96353 h 2.875 v 17.5 h -2.875 z m 0,-6.8125 h 2.875 v 3.64063 h -2.875 z"
         style="font-size:32px;text-align:center;text-anchor:middle"
         id="path231" />
      <path
         d="m 368.44238,488.66666 q -3.48437,0 -4.82812,0.79687 -1.34375,0.79688 -1.34375,2.71875 0,1.53125 1,2.4375 1.01562,0.89063 2.75,0.89063 2.39062,0 3.82812,-1.6875 1.45313,-1.70313 1.45313,-4.51563 v -0.64062 z m 5.73438,-1.1875 v 9.98437 h -2.875 v -2.65625 q -0.98438,1.59375 -2.45313,2.35938 -1.46875,0.75 -3.59375,0.75 -2.6875,0 -4.28125,-1.5 -1.57812,-1.51563 -1.57812,-4.04688 0,-2.95312 1.96875,-4.45312 1.98437,-1.5 5.90625,-1.5 h 4.03125 v -0.28125 q 0,-1.98438 -1.3125,-3.0625 -1.29688,-1.09375 -3.65625,-1.09375 -1.5,0 -2.92188,0.35937 -1.42187,0.35938 -2.73437,1.07813 v -2.65625 q 1.57812,-0.60938 3.0625,-0.90625 1.48437,-0.3125 2.89062,-0.3125 3.79688,0 5.67188,1.96875 1.875,1.96875 1.875,5.96875 z"
         style="font-size:32px;text-align:center;text-anchor:middle"
         id="path233" />
      <path
         d="m 394.64551,486.90103 v 10.5625 h -2.875 v -10.46875 q 0,-2.48437 -0.96875,-3.71875 -0.96875,-1.23437 -2.90625,-1.23437 -2.32813,0 -3.67188,1.48437 -1.34375,1.48438 -1.34375,4.04688 v 9.89062 h -2.89062 v -17.5 h 2.89062 v 2.71875 q 1.03125,-1.57812 2.42188,-2.35937 1.40625,-0.78125 3.23437,-0.78125 3.01563,0 4.5625,1.875 1.54688,1.85937 1.54688,5.48437 z"
         style="font-size:32px;text-align:center;text-anchor:middle"
         id="path235" />
      <path
         d="m 403.22363,474.99478 v 4.96875 h 5.92188 v 2.23438 h -5.92188 v 9.5 q 0,2.14062 0.57813,2.75 0.59375,0.60937 2.39062,0.60937 h 2.95313 v 2.40625 h -2.95313 q -3.32812,0 -4.59375,-1.23437 -1.26562,-1.25 -1.26562,-4.53125 v -9.5 h -2.10938 v -2.23438 h 2.10938 v -4.96875 z"
         style="font-size:32px;text-align:center;text-anchor:middle"
         id="path237" />
      <path
         d="m 424.08301,480.47916 v 2.71875 q -1.21875,-0.625 -2.53125,-0.9375 -1.3125,-0.3125 -2.71875,-0.3125 -2.14063,0 -3.21875,0.65625 -1.0625,0.65625 -1.0625,1.96875 0,1 0.76562,1.57812 0.76563,0.5625 3.07813,1.07813 l 0.98437,0.21875 q 3.0625,0.65625 4.34375,1.85937 1.29688,1.1875 1.29688,3.32813 0,2.4375 -1.9375,3.85937 -1.92188,1.42188 -5.29688,1.42188 -1.40625,0 -2.9375,-0.28125 -1.51562,-0.26563 -3.20312,-0.8125 v -2.96875 q 1.59375,0.82812 3.14062,1.25 1.54688,0.40625 3.0625,0.40625 2.03125,0 3.125,-0.6875 1.09375,-0.70313 1.09375,-1.96875 0,-1.17188 -0.79687,-1.79688 -0.78125,-0.625 -3.45313,-1.20312 l -1,-0.23438 q -2.67187,-0.5625 -3.85937,-1.71875 -1.1875,-1.17187 -1.1875,-3.20312 0,-2.46875 1.75,-3.8125 1.75,-1.34375 4.96875,-1.34375 1.59375,0 3,0.23437 1.40625,0.23438 2.59375,0.70313 z"
         style="font-size:32px;text-align:center;text-anchor:middle"
         id="path239" />
      <path
         d="m 448.62988,473.15103 v 2.39063 h -2.75 q -1.54687,0 -2.15625,0.625 -0.59375,0.625 -0.59375,2.25 v 1.54687 h 4.73438 v 2.23438 h -4.73438 v 15.26562 h -2.89062 v -15.26562 h -2.75 v -2.23438 h 2.75 v -1.21875 q 0,-2.92187 1.35937,-4.25 1.35938,-1.34375 4.3125,-1.34375 z"
         style="font-size:32px;text-align:center;text-anchor:middle"
         id="path241" />
      <path
         d="m 461.17676,482.65103 q -0.48438,-0.28125 -1.0625,-0.40625 -0.5625,-0.14062 -1.25,-0.14062 -2.4375,0 -3.75,1.59375 -1.29688,1.57812 -1.29688,4.54687 v 9.21875 h -2.89062 v -17.5 h 2.89062 v 2.71875 q 0.90625,-1.59375 2.35938,-2.35937 1.45312,-0.78125 3.53125,-0.78125 0.29687,0 0.65625,0.0469 0.35937,0.0312 0.79687,0.10938 z"
         style="font-size:32px;text-align:center;text-anchor:middle"
         id="path243" />
      <path
         d="m 470.27051,481.97916 q -2.3125,0 -3.65625,1.8125 -1.34375,1.79687 -1.34375,4.9375 0,3.14062 1.32812,4.95312 1.34375,1.79688 3.67188,1.79688 2.29687,0 3.64062,-1.8125 1.34375,-1.8125 1.34375,-4.9375 0,-3.10938 -1.34375,-4.92188 -1.34375,-1.82812 -3.64062,-1.82812 z m 0,-2.4375 q 3.75,0 5.89062,2.4375 2.14063,2.4375 2.14063,6.75 0,4.29687 -2.14063,6.75 -2.14062,2.4375 -5.89062,2.4375 -3.76563,0 -5.90625,-2.4375 -2.125,-2.45313 -2.125,-6.75 0,-4.3125 2.125,-6.75 2.14062,-2.4375 5.90625,-2.4375 z"
         style="font-size:32px;text-align:center;text-anchor:middle"
         id="path245" />
      <path
         d="m 496.69238,483.32291 q 1.07813,-1.9375 2.57813,-2.85938 1.5,-0.92187 3.53125,-0.92187 2.73437,0 4.21875,1.92187 1.48437,1.90625 1.48437,5.4375 v 10.5625 h -2.89062 v -10.46875 q 0,-2.51562 -0.89063,-3.73437 -0.89062,-1.21875 -2.71875,-1.21875 -2.23437,0 -3.53125,1.48437 -1.29687,1.48438 -1.29687,4.04688 v 9.89062 h -2.89063 v -10.46875 q 0,-2.53125 -0.89062,-3.73437 -0.89063,-1.21875 -2.75,-1.21875 -2.20313,0 -3.5,1.5 -1.29688,1.48437 -1.29688,4.03125 v 9.89062 h -2.89062 v -17.5 h 2.89062 v 2.71875 q 0.98438,-1.60937 2.35938,-2.375 1.375,-0.76562 3.26562,-0.76562 1.90625,0 3.23438,0.96875 1.34375,0.96875 1.98437,2.8125 z"
         style="font-size:32px;text-align:center;text-anchor:middle"
         id="path247" />
      <path
         d="m 522.73926,479.96353 h 2.875 l 3.59375,13.65625 3.57812,-13.65625 h 3.39063 l 3.59375,13.65625 3.57812,-13.65625 h 2.875 l -4.57812,17.5 h -3.39063 l -3.76562,-14.34375 -3.78125,14.34375 h -3.39063 z"
         style="font-size:32px;text-align:center;text-anchor:middle"
         id="path249" />
      <path
         d="m 565.12988,486.90103 v 10.5625 h -2.875 v -10.46875 q 0,-2.48437 -0.96875,-3.71875 -0.96875,-1.23437 -2.90625,-1.23437 -2.32812,0 -3.67187,1.48437 -1.34375,1.48438 -1.34375,4.04688 v 9.89062 h -2.89063 v -24.3125 h 2.89063 v 9.53125 q 1.03125,-1.57812 2.42187,-2.35937 1.40625,-0.78125 3.23438,-0.78125 3.01562,0 4.5625,1.875 1.54687,1.85937 1.54687,5.48437 z"
         style="font-size:32px;text-align:center;text-anchor:middle"
         id="path251" />
      <path
         d="m 577.64551,481.97916 q -2.3125,0 -3.65625,1.8125 -1.34375,1.79687 -1.34375,4.9375 0,3.14062 1.32812,4.95312 1.34375,1.79688 3.67188,1.79688 2.29687,0 3.64062,-1.8125 1.34375,-1.8125 1.34375,-4.9375 0,-3.10938 -1.34375,-4.92188 -1.34375,-1.82812 -3.64062,-1.82812 z m 0,-2.4375 q 3.75,0 5.89062,2.4375 2.14063,2.4375 2.14063,6.75 0,4.29687 -2.14063,6.75 -2.14062,2.4375 -5.89062,2.4375 -3.76563,0 -5.90625,-2.4375 -2.125,-2.45313 -2.125,-6.75 0,-4.3125 2.125,-6.75 2.14062,-2.4375 5.90625,-2.4375 z"
         style="font-size:32px;text-align:center;text-anchor:middle"
         id="path253" />
      <path
         d="m 590.44238,473.15103 h 2.875 v 24.3125 h -2.875 z"
         style="font-size:32px;text-align:center;text-anchor:middle"
         id="path255" />
      <path
         d="m 614.30176,487.99478 v 1.40625 h -13.21875 q 0.1875,2.96875 1.78125,4.53125 1.60937,1.54688 4.46875,1.54688 1.65625,0 3.20312,-0.40625 1.5625,-0.40625 3.09375,-1.21875 v 2.71875 q -1.54687,0.65625 -3.17187,1 -1.625,0.34375 -3.29688,0.34375 -4.1875,0 -6.64062,-2.4375 -2.4375,-2.4375 -2.4375,-6.59375 0,-4.29688 2.3125,-6.8125 2.32812,-2.53125 6.26562,-2.53125 3.53125,0 5.57813,2.28125 2.0625,2.26562 2.0625,6.17187 z m -2.875,-0.84375 q -0.0312,-2.35937 -1.32813,-3.76562 -1.28125,-1.40625 -3.40625,-1.40625 -2.40625,0 -3.85937,1.35937 -1.4375,1.35938 -1.65625,3.82813 z"
         style="font-size:32px;text-align:center;text-anchor:middle"
         id="path257" />
      <path
         d="m 640.70801,488.51041 q 0,-3.125 -1.29688,-4.84375 -1.28125,-1.71875 -3.60937,-1.71875 -2.3125,0 -3.60938,1.71875 -1.28125,1.71875 -1.28125,4.84375 0,3.10937 1.28125,4.82812 1.29688,1.71875 3.60938,1.71875 2.32812,0 3.60937,-1.71875 1.29688,-1.71875 1.29688,-4.82812 z m 2.875,6.78125 q 0,4.46875 -1.98438,6.64062 -1.98437,2.1875 -6.07812,2.1875 -1.51563,0 -2.85938,-0.23437 -1.34375,-0.21875 -2.60937,-0.6875 v -2.79688 q 1.26562,0.6875 2.5,1.01563 1.23437,0.32812 2.51562,0.32812 2.82813,0 4.23438,-1.48437 1.40625,-1.46875 1.40625,-4.45313 v -1.42187 q -0.89063,1.54687 -2.28125,2.3125 -1.39063,0.76562 -3.32813,0.76562 -3.21875,0 -5.1875,-2.45312 -1.96875,-2.45313 -1.96875,-6.5 0,-4.0625 1.96875,-6.51563 1.96875,-2.45312 5.1875,-2.45312 1.9375,0 3.32813,0.76562 1.39062,0.76563 2.28125,2.3125 v -2.65625 h 2.875 z"
         style="font-size:32px;text-align:center;text-anchor:middle"
         id="path259" />
      <path
         d="m 664.47363,487.99478 v 1.40625 h -13.21875 q 0.1875,2.96875 1.78125,4.53125 1.60938,1.54688 4.46875,1.54688 1.65625,0 3.20313,-0.40625 1.5625,-0.40625 3.09375,-1.21875 v 2.71875 q -1.54688,0.65625 -3.17188,1 -1.625,0.34375 -3.29687,0.34375 -4.1875,0 -6.64063,-2.4375 -2.4375,-2.4375 -2.4375,-6.59375 0,-4.29688 2.3125,-6.8125 2.32813,-2.53125 6.26563,-2.53125 3.53125,0 5.57812,2.28125 2.0625,2.26562 2.0625,6.17187 z m -2.875,-0.84375 q -0.0312,-2.35937 -1.32812,-3.76562 -1.28125,-1.40625 -3.40625,-1.40625 -2.40625,0 -3.85938,1.35937 -1.4375,1.35938 -1.65625,3.82813 z"
         style="font-size:32px;text-align:center;text-anchor:middle"
         id="path261" />
      <path
         d="m 683.73926,486.90103 v 10.5625 h -2.875 v -10.46875 q 0,-2.48437 -0.96875,-3.71875 -0.96875,-1.23437 -2.90625,-1.23437 -2.32813,0 -3.67188,1.48437 -1.34375,1.48438 -1.34375,4.04688 v 9.89062 h -2.89062 v -17.5 h 2.89062 v 2.71875 q 1.03125,-1.57812 2.42188,-2.35937 1.40625,-0.78125 3.23437,-0.78125 3.01563,0 4.5625,1.875 1.54688,1.85937 1.54688,5.48437 z"
         style="font-size:32px;text-align:center;text-anchor:middle"
         id="path263" />
      <path
         d="m 696.25488,481.97916 q -2.3125,0 -3.65625,1.8125 -1.34375,1.79687 -1.34375,4.9375 0,3.14062 1.32813,4.95312 1.34375,1.79688 3.67187,1.79688 2.29688,0 3.64063,-1.8125 1.34375,-1.8125 1.34375,-4.9375 0,-3.10938 -1.34375,-4.92188 -1.34375,-1.82812 -3.64063,-1.82812 z m 0,-2.4375 q 3.75,0 5.89063,2.4375 2.14062,2.4375 2.14062,6.75 0,4.29687 -2.14062,6.75 -2.14063,2.4375 -5.89063,2.4375 -3.76562,0 -5.90625,-2.4375 -2.125,-2.45313 -2.125,-6.75 0,-4.3125 2.125,-6.75 2.14063,-2.4375 5.90625,-2.4375 z"
         style="font-size:32px;text-align:center;text-anchor:middle"
         id="path265" />
      <path
         d="m 722.67676,483.32291 q 1.07812,-1.9375 2.57812,-2.85938 1.5,-0.92187 3.53125,-0.92187 2.73438,0 4.21875,1.92187 1.48438,1.90625 1.48438,5.4375 v 10.5625 h -2.89063 v -10.46875 q 0,-2.51562 -0.89062,-3.73437 -0.89063,-1.21875 -2.71875,-1.21875 -2.23438,0 -3.53125,1.48437 -1.29688,1.48438 -1.29688,4.04688 v 9.89062 h -2.89062 v -10.46875 q 0,-2.53125 -0.89063,-3.73437 -0.89062,-1.21875 -2.75,-1.21875 -2.20312,0 -3.5,1.5 -1.29687,1.48437 -1.29687,4.03125 v 9.89062 h -2.89063 v -17.5 h 2.89063 v 2.71875 q 0.98437,-1.60937 2.35937,-2.375 1.375,-0.76562 3.26563,-0.76562 1.90625,0 3.23437,0.96875 1.34375,0.96875 1.98438,2.8125 z"
         style="font-size:32px;text-align:center;text-anchor:middle"
         id="path267" />
      <path
         d="m 755.19238,487.99478 v 1.40625 h -13.21875 q 0.1875,2.96875 1.78125,4.53125 1.60938,1.54688 4.46875,1.54688 1.65625,0 3.20313,-0.40625 1.5625,-0.40625 3.09375,-1.21875 v 2.71875 q -1.54688,0.65625 -3.17188,1 -1.625,0.34375 -3.29687,0.34375 -4.1875,0 -6.64063,-2.4375 -2.4375,-2.4375 -2.4375,-6.59375 0,-4.29688 2.3125,-6.8125 2.32813,-2.53125 6.26563,-2.53125 3.53125,0 5.57812,2.28125 2.0625,2.26562 2.0625,6.17187 z m -2.875,-0.84375 q -0.0312,-2.35937 -1.32812,-3.76562 -1.28125,-1.40625 -3.40625,-1.40625 -2.40625,0 -3.85938,1.35937 -1.4375,1.35938 -1.65625,3.82813 z"
         style="font-size:32px;text-align:center;text-anchor:middle"
         id="path269" />
      <path
         d="m 776.86426,481.97916 q -2.3125,0 -3.65625,1.8125 -1.34375,1.79687 -1.34375,4.9375 0,3.14062 1.32812,4.95312 1.34375,1.79688 3.67188,1.79688 2.29687,0 3.64062,-1.8125 1.34375,-1.8125 1.34375,-4.9375 0,-3.10938 -1.34375,-4.92188 -1.34375,-1.82812 -3.64062,-1.82812 z m 0,-2.4375 q 3.75,0 5.89062,2.4375 2.14063,2.4375 2.14063,6.75 0,4.29687 -2.14063,6.75 -2.14062,2.4375 -5.89062,2.4375 -3.76563,0 -5.90625,-2.4375 -2.125,-2.45313 -2.125,-6.75 0,-4.3125 2.125,-6.75 2.14062,-2.4375 5.90625,-2.4375 z"
         style="font-size:32px;text-align:center;text-anchor:middle"
         id="path271" />
      <path
         d="m 799.80176,482.65103 q -0.48438,-0.28125 -1.0625,-0.40625 -0.5625,-0.14062 -1.25,-0.14062 -2.4375,0 -3.75,1.59375 -1.29688,1.57812 -1.29688,4.54687 v 9.21875 h -2.89062 v -17.5 h 2.89062 v 2.71875 q 0.90625,-1.59375 2.35938,-2.35937 1.45312,-0.78125 3.53125,-0.78125 0.29687,0 0.65625,0.0469 0.35937,0.0312 0.79687,0.10938 z"
         style="font-size:32px;text-align:center;text-anchor:middle"
         id="path273" />
      <path
         d="m 815.83301,474.99478 v 4.96875 h 5.92187 v 2.23438 h -5.92187 v 9.5 q 0,2.14062 0.57812,2.75 0.59375,0.60937 2.39063,0.60937 h 2.95312 v 2.40625 h -2.95312 q -3.32813,0 -4.59375,-1.23437 -1.26563,-1.25 -1.26563,-4.53125 v -9.5 h -2.10937 v -2.23438 h 2.10937 v -4.96875 z"
         style="font-size:32px;text-align:center;text-anchor:middle"
         id="path275" />
      <path
         d="m 833.48926,488.66666 q -3.48438,0 -4.82813,0.79687 -1.34375,0.79688 -1.34375,2.71875 0,1.53125 1,2.4375 1.01563,0.89063 2.75,0.89063 2.39063,0 3.82813,-1.6875 1.45312,-1.70313 1.45312,-4.51563 v -0.64062 z m 5.73437,-1.1875 v 9.98437 h -2.875 v -2.65625 q -0.98437,1.59375 -2.45312,2.35938 -1.46875,0.75 -3.59375,0.75 -2.6875,0 -4.28125,-1.5 -1.57813,-1.51563 -1.57813,-4.04688 0,-2.95312 1.96875,-4.45312 1.98438,-1.5 5.90625,-1.5 h 4.03125 v -0.28125 q 0,-1.98438 -1.3125,-3.0625 -1.29687,-1.09375 -3.65625,-1.09375 -1.5,0 -2.92187,0.35937 -1.42188,0.35938 -2.73438,1.07813 v -2.65625 q 1.57813,-0.60938 3.0625,-0.90625 1.48438,-0.3125 2.89063,-0.3125 3.79687,0 5.67187,1.96875 1.875,1.96875 1.875,5.96875 z"
         style="font-size:32px;text-align:center;text-anchor:middle"
         id="path277" />
      <path
         d="m 855.28613,482.65103 q -0.48437,-0.28125 -1.0625,-0.40625 -0.5625,-0.14062 -1.25,-0.14062 -2.4375,0 -3.75,1.59375 -1.29687,1.57812 -1.29687,4.54687 v 9.21875 h -2.89063 v -17.5 h 2.89063 v 2.71875 q 0.90625,-1.59375 2.35937,-2.35937 1.45313,-0.78125 3.53125,-0.78125 0.29688,0 0.65625,0.0469 0.35938,0.0312 0.79688,0.10938 z"
         style="font-size:32px;text-align:center;text-anchor:middle"
         id="path279" />
      <path
         d="m 869.25488,488.51041 q 0,-3.125 -1.29687,-4.84375 -1.28125,-1.71875 -3.60938,-1.71875 -2.3125,0 -3.60937,1.71875 -1.28125,1.71875 -1.28125,4.84375 0,3.10937 1.28125,4.82812 1.29687,1.71875 3.60937,1.71875 2.32813,0 3.60938,-1.71875 1.29687,-1.71875 1.29687,-4.82812 z m 2.875,6.78125 q 0,4.46875 -1.98437,6.64062 -1.98438,2.1875 -6.07813,2.1875 -1.51562,0 -2.85937,-0.23437 -1.34375,-0.21875 -2.60938,-0.6875 v -2.79688 q 1.26563,0.6875 2.5,1.01563 1.23438,0.32812 2.51563,0.32812 2.82812,0 4.23437,-1.48437 1.40625,-1.46875 1.40625,-4.45313 v -1.42187 q -0.89062,1.54687 -2.28125,2.3125 -1.39062,0.76562 -3.32812,0.76562 -3.21875,0 -5.1875,-2.45312 -1.96875,-2.45313 -1.96875,-6.5 0,-4.0625 1.96875,-6.51563 1.96875,-2.45312 5.1875,-2.45312 1.9375,0 3.32812,0.76562 1.39063,0.76563 2.28125,2.3125 v -2.65625 h 2.875 z"
         style="font-size:32px;text-align:center;text-anchor:middle"
         id="path281" />
      <path
         d="m 893.02051,487.99478 v 1.40625 h -13.21875 q 0.1875,2.96875 1.78125,4.53125 1.60937,1.54688 4.46875,1.54688 1.65625,0 3.20312,-0.40625 1.5625,-0.40625 3.09375,-1.21875 v 2.71875 q -1.54687,0.65625 -3.17187,1 -1.625,0.34375 -3.29688,0.34375 -4.1875,0 -6.64062,-2.4375 -2.4375,-2.4375 -2.4375,-6.59375 0,-4.29688 2.3125,-6.8125 2.32812,-2.53125 6.26562,-2.53125 3.53125,0 5.57813,2.28125 2.0625,2.26562 2.0625,6.17187 z m -2.875,-0.84375 q -0.0312,-2.35937 -1.32813,-3.76562 -1.28125,-1.40625 -3.40625,-1.40625 -2.40625,0 -3.85937,1.35937 -1.4375,1.35938 -1.65625,3.82813 z"
         style="font-size:32px;text-align:center;text-anchor:middle"
         id="path283" />
      <path
         d="m 900.58301,474.99478 v 4.96875 h 5.92187 v 2.23438 h -5.92187 v 9.5 q 0,2.14062 0.57812,2.75 0.59375,0.60937 2.39063,0.60937 h 2.95312 v 2.40625 h -2.95312 q -3.32813,0 -4.59375,-1.23437 -1.26563,-1.25 -1.26563,-4.53125 v -9.5 h -2.10937 v -2.23438 h 2.10937 v -4.96875 z"
         style="font-size:32px;text-align:center;text-anchor:middle"
         id="path285" />
      <path
         d="m 925.25488,487.99478 v 1.40625 h -13.21875 q 0.1875,2.96875 1.78125,4.53125 1.60938,1.54688 4.46875,1.54688 1.65625,0 3.20313,-0.40625 1.5625,-0.40625 3.09375,-1.21875 v 2.71875 q -1.54688,0.65625 -3.17188,1 -1.625,0.34375 -3.29687,0.34375 -4.1875,0 -6.64063,-2.4375 -2.4375,-2.4375 -2.4375,-6.59375 0,-4.29688 2.3125,-6.8125 2.32813,-2.53125 6.26563,-2.53125 3.53125,0 5.57812,2.28125 2.0625,2.26562 2.0625,6.17187 z m -2.875,-0.84375 q -0.0312,-2.35937 -1.32812,-3.76562 -1.28125,-1.40625 -3.40625,-1.40625 -2.40625,0 -3.85938,1.35937 -1.4375,1.35938 -1.65625,3.82813 z"
         style="font-size:32px;text-align:center;text-anchor:middle"
         id="path287" />
      <path
         d="m 941.48926,482.61978 v -9.46875 h 2.875 v 24.3125 h -2.875 v -2.625 q -0.90625,1.5625 -2.29688,2.32813 -1.375,0.75 -3.3125,0.75 -3.17187,0 -5.17187,-2.53125 -1.98438,-2.53125 -1.98438,-6.65625 0,-4.125 1.98438,-6.65625 2,-2.53125 5.17187,-2.53125 1.9375,0 3.3125,0.76562 1.39063,0.75 2.29688,2.3125 z m -9.79688,6.10938 q 0,3.17187 1.29688,4.98437 1.3125,1.79688 3.59375,1.79688 2.28125,0 3.59375,-1.79688 1.3125,-1.8125 1.3125,-4.98437 0,-3.17188 -1.3125,-4.96875 -1.3125,-1.8125 -3.59375,-1.8125 -2.28125,0 -3.59375,1.8125 -1.29688,1.79687 -1.29688,4.96875 z"
         style="font-size:32px;text-align:center;text-anchor:middle"
         id="path289" />
      <path
         d="m 971.61426,480.47916 v 2.71875 q -1.21875,-0.625 -2.53125,-0.9375 -1.3125,-0.3125 -2.71875,-0.3125 -2.14063,0 -3.21875,0.65625 -1.0625,0.65625 -1.0625,1.96875 0,1 0.76562,1.57812 0.76563,0.5625 3.07813,1.07813 l 0.98437,0.21875 q 3.0625,0.65625 4.34375,1.85937 1.29688,1.1875 1.29688,3.32813 0,2.4375 -1.9375,3.85937 -1.92188,1.42188 -5.29688,1.42188 -1.40625,0 -2.9375,-0.28125 -1.51562,-0.26563 -3.20312,-0.8125 v -2.96875 q 1.59375,0.82812 3.14062,1.25 1.54688,0.40625 3.0625,0.40625 2.03125,0 3.125,-0.6875 1.09375,-0.70313 1.09375,-1.96875 0,-1.17188 -0.79687,-1.79688 -0.78125,-0.625 -3.45313,-1.20312 l -1,-0.23438 q -2.67187,-0.5625 -3.85937,-1.71875 -1.1875,-1.17187 -1.1875,-3.20312 0,-2.46875 1.75,-3.8125 1.75,-1.34375 4.96875,-1.34375 1.59375,0 3,0.23437 1.40625,0.23438 2.59375,0.70313 z"
         style="font-size:32px;text-align:center;text-anchor:middle"
         id="path291" />
      <path
         d="m 992.09863,487.99478 v 1.40625 h -13.21875 q 0.1875,2.96875 1.78125,4.53125 1.60938,1.54688 4.46875,1.54688 1.65625,0 3.20313,-0.40625 1.5625,-0.40625 3.09375,-1.21875 v 2.71875 q -1.54688,0.65625 -3.17188,1 -1.625,0.34375 -3.29687,0.34375 -4.1875,0 -6.64063,-2.4375 -2.4375,-2.4375 -2.4375,-6.59375 0,-4.29688 2.3125,-6.8125 2.32813,-2.53125 6.26563,-2.53125 3.53125,0 5.57812,2.28125 2.0625,2.26562 2.0625,6.17187 z m -2.875,-0.84375 q -0.0312,-2.35937 -1.32812,-3.76562 -1.28125,-1.40625 -3.40625,-1.40625 -2.40625,0 -3.85938,1.35937 -1.4375,1.35938 -1.65625,3.82813 z"
         style="font-size:32px;text-align:center;text-anchor:middle"
         id="path293" />
      <path
         d="m 998.53613,488.72916 q 0,3.17187 1.29688,4.98437 1.31249,1.79688 3.59379,1.79688 2.2812,0 3.5937,-1.79688 1.3125,-1.8125 1.3125,-4.98437 0,-3.17188 -1.3125,-4.96875 -1.3125,-1.8125 -3.5937,-1.8125 -2.2813,0 -3.59379,1.8125 -1.29688,1.79687 -1.29688,4.96875 z m 9.79687,6.10937 q -0.9062,1.5625 -2.2969,2.32813 -1.375,0.75 -3.3125,0.75 -3.17184,0 -5.17184,-2.53125 -1.98438,-2.53125 -1.98438,-6.65625 0,-4.125 1.98438,-6.65625 2,-2.53125 5.17184,-2.53125 1.9375,0 3.3125,0.76562 1.3907,0.75 2.2969,2.3125 v -2.65625 h 2.875 v 24.15625 h -2.875 z"
         style="font-size:32px;text-align:center;text-anchor:middle"
         id="path295" />
      <path
         d="m 1016.833,490.55728 v -10.59375 h 2.875 v 10.48438 q 0,2.48437 0.9688,3.73437 0.9687,1.23438 2.9062,1.23438 2.3281,0 3.6719,-1.48438 1.3594,-1.48437 1.3594,-4.04687 v -9.92188 h 2.875 v 17.5 h -2.875 v -2.6875 q -1.0469,1.59375 -2.4375,2.375 -1.375,0.76563 -3.2032,0.76563 -3.0156,0 -4.5781,-1.875 -1.5625,-1.875 -1.5625,-5.48438 z m 7.2344,-11.01562 z"
         style="font-size:32px;text-align:center;text-anchor:middle"
         id="path297" />
      <path
         d="m 1052.3799,487.99478 v 1.40625 h -13.2188 q 0.1875,2.96875 1.7813,4.53125 1.6094,1.54688 4.4687,1.54688 1.6563,0 3.2032,-0.40625 1.5625,-0.40625 3.0937,-1.21875 v 2.71875 q -1.5469,0.65625 -3.1719,1 -1.625,0.34375 -3.2968,0.34375 -4.1875,0 -6.6407,-2.4375 -2.4375,-2.4375 -2.4375,-6.59375 0,-4.29688 2.3125,-6.8125 2.3282,-2.53125 6.2657,-2.53125 3.5312,0 5.5781,2.28125 2.0625,2.26562 2.0625,6.17187 z m -2.875,-0.84375 q -0.031,-2.35937 -1.3281,-3.76562 -1.2813,-1.40625 -3.4063,-1.40625 -2.4062,0 -3.8594,1.35937 -1.4375,1.35938 -1.6562,3.82813 z"
         style="font-size:32px;text-align:center;text-anchor:middle"
         id="path299" />
      <path
         d="m 1071.6455,486.90103 v 10.5625 h -2.875 v -10.46875 q 0,-2.48437 -0.9687,-3.71875 -0.9688,-1.23437 -2.9063,-1.23437 -2.3281,0 -3.6719,1.48437 -1.3437,1.48438 -1.3437,4.04688 v 9.89062 h -2.8906 v -17.5 h 2.8906 v 2.71875 q 1.0312,-1.57812 2.4219,-2.35937 1.4062,-0.78125 3.2343,-0.78125 3.0157,0 4.5625,1.875 1.5469,1.85937 1.5469,5.48437 z"
         style="font-size:32px;text-align:center;text-anchor:middle"
         id="path301" />
      <path
         d="m 1089.9736,480.63541 v 2.6875 q -1.2187,-0.67188 -2.4531,-1 -1.2187,-0.34375 -2.4687,-0.34375 -2.7969,0 -4.3438,1.78125 -1.5469,1.76562 -1.5469,4.96875 0,3.20312 1.5469,4.98437 1.5469,1.76563 4.3438,1.76563 1.25,0 2.4687,-0.32813 1.2344,-0.34375 2.4531,-1.01562 v 2.65625 q -1.2031,0.5625 -2.5,0.84375 -1.2812,0.28125 -2.7343,0.28125 -3.9532,0 -6.2813,-2.48438 -2.3281,-2.48437 -2.3281,-6.70312 0,-4.28125 2.3437,-6.73438 2.3594,-2.45312 6.4532,-2.45312 1.3281,0 2.5937,0.28125 1.2656,0.26562 2.4531,0.8125 z"
         style="font-size:32px;text-align:center;text-anchor:middle"
         id="path303" />
      <path
         d="m 1094.9736,479.96353 h 2.875 v 17.5 h -2.875 z m 0,-6.8125 h 2.875 v 3.64063 h -2.875 z"
         style="font-size:32px;text-align:center;text-anchor:middle"
         id="path305" />
      <path
         d="m 1118.4111,486.90103 v 10.5625 h -2.875 v -10.46875 q 0,-2.48437 -0.9687,-3.71875 -0.9688,-1.23437 -2.9063,-1.23437 -2.3281,0 -3.6718,1.48437 -1.3438,1.48438 -1.3438,4.04688 v 9.89062 h -2.8906 v -17.5 h 2.8906 v 2.71875 q 1.0313,-1.57812 2.4219,-2.35937 1.4062,-0.78125 3.2344,-0.78125 3.0156,0 4.5625,1.875 1.5468,1.85937 1.5468,5.48437 z"
         style="font-size:32px;text-align:center;text-anchor:middle"
         id="path307" />
      <path
         d="m 1135.6611,488.51041 q 0,-3.125 -1.2968,-4.84375 -1.2813,-1.71875 -3.6094,-1.71875 -2.3125,0 -3.6094,1.71875 -1.2812,1.71875 -1.2812,4.84375 0,3.10937 1.2812,4.82812 1.2969,1.71875 3.6094,1.71875 2.3281,0 3.6094,-1.71875 1.2968,-1.71875 1.2968,-4.82812 z m 2.875,6.78125 q 0,4.46875 -1.9843,6.64062 -1.9844,2.1875 -6.0782,2.1875 -1.5156,0 -2.8593,-0.23437 -1.3438,-0.21875 -2.6094,-0.6875 v -2.79688 q 1.2656,0.6875 2.5,1.01563 1.2344,0.32812 2.5156,0.32812 2.8281,0 4.2344,-1.48437 1.4062,-1.46875 1.4062,-4.45313 v -1.42187 q -0.8906,1.54687 -2.2812,2.3125 -1.3906,0.76562 -3.3281,0.76562 -3.2188,0 -5.1875,-2.45312 -1.9688,-2.45313 -1.9688,-6.5 0,-4.0625 1.9688,-6.51563 1.9687,-2.45312 5.1875,-2.45312 1.9375,0 3.3281,0.76562 1.3906,0.76563 2.2812,2.3125 v -2.65625 h 2.875 z"
         style="font-size:32px;text-align:center;text-anchor:middle"
         id="path309" />
    </g>
  </g>
</svg>
