<?xml version="1.0" encoding="UTF-8" standalone="no"?>
<!-- Created with Inkscape (http://www.inkscape.org/) -->

<svg
   xmlns:dc="http://purl.org/dc/elements/1.1/"
   xmlns:cc="http://creativecommons.org/ns#"
   xmlns:rdf="http://www.w3.org/1999/02/22-rdf-syntax-ns#"
   xmlns:svg="http://www.w3.org/2000/svg"
   xmlns="http://www.w3.org/2000/svg"
   xmlns:sodipodi="http://sodipodi.sourceforge.net/DTD/sodipodi-0.dtd"
   xmlns:inkscape="http://www.inkscape.org/namespaces/inkscape"
   width="380"
   height="120"
   viewBox="0 0 380.00002 120.00001"
   id="svg4924"
   version="1.1"
   inkscape:version="0.91 r13725"
   sodipodi:docname="Sarek_dark_grey.svg"
   inkscape:export-filename="Sarek_germline_logo.png"
   inkscape:export-xdpi="90"
   inkscape:export-ydpi="90">
  <defs
     id="defs4926">
    <clipPath
       clipPathUnits="userSpaceOnUse"
       id="clipPath202">
      <path
         d="M 0,600 1500,600 1500,0 0,0 0,600 Z"
         id="path204"
         inkscape:connector-curvature="0" />
    </clipPath>
    <clipPath
       clipPathUnits="userSpaceOnUse"
       id="clipPath158">
      <path
         d="M 0,600 1500,600 1500,0 0,0 0,600 Z"
         id="path160"
         inkscape:connector-curvature="0" />
    </clipPath>
    <clipPath
       clipPathUnits="userSpaceOnUse"
       id="clipPath86">
      <path
         d="M 0,600 1500,600 1500,0 0,0 0,600 Z"
         id="path88"
         inkscape:connector-curvature="0" />
    </clipPath>
    <clipPath
       clipPathUnits="userSpaceOnUse"
       id="clipPath94">
      <path
         d="m 804.509,211 164.286,0 0,-96.981 -164.286,0 0,96.981 z"
         id="path96"
         inkscape:connector-curvature="0" />
    </clipPath>
    <clipPath
       clipPathUnits="userSpaceOnUse"
       id="clipPath110">
      <path
         d="m 804.597,506 164.286,0 0,-96.981 -164.286,0 0,96.981 z"
         id="path112"
         inkscape:connector-curvature="0" />
    </clipPath>
    <clipPath
       clipPathUnits="userSpaceOnUse"
       id="clipPath126">
      <path
         d="m 133.598,209 164.285,0 0,-96.981 -164.285,0 0,96.981 z"
         id="path128"
         inkscape:connector-curvature="0" />
    </clipPath>
    <clipPath
       clipPathUnits="userSpaceOnUse"
       id="clipPath142">
      <path
         d="m 133.686,504 164.286,0 0,-96.981 -164.286,0 0,96.981 z"
         id="path144"
         inkscape:connector-curvature="0" />
    </clipPath>
    <clipPath
       clipPathUnits="userSpaceOnUse"
       id="clipPath54">
      <path
         d="M 0,600 1500,600 1500,0 0,0 0,600 Z"
         id="path56"
         inkscape:connector-curvature="0" />
    </clipPath>
    <clipPath
       clipPathUnits="userSpaceOnUse"
       id="clipPath30">
      <path
         d="M 0,600 1500,600 1500,0 0,0 0,600 Z"
         id="path32"
         inkscape:connector-curvature="0" />
    </clipPath>
    <filter
       style="color-interpolation-filters:sRGB;"
       inkscape:label="Greyscale"
       id="filter3410">
      <feColorMatrix
         values="0.21 0.72 0.072 0 0 0.21 0.72 0.072 0 0 0.21 0.72 0.072 0 0 0 0 0 1 0 "
         id="feColorMatrix3412" />
    </filter>
    <filter
       style="color-interpolation-filters:sRGB;"
       inkscape:label="Greyscale"
       id="filter3414">
      <feColorMatrix
         values="0.21 0.72 0.072 0 0 0.21 0.72 0.072 0 0 0.21 0.72 0.072 0 0 0 0 0 1 0 "
         id="feColorMatrix3416" />
    </filter>
  </defs>
  <sodipodi:namedview
     id="base"
     pagecolor="#ffffff"
     bordercolor="#666666"
     borderopacity="1.0"
     inkscape:pageopacity="0.0"
     inkscape:pageshadow="2"
     inkscape:zoom="1.979899"
     inkscape:cx="137.61645"
     inkscape:cy="51.034552"
     inkscape:document-units="px"
     inkscape:current-layer="layer4"
     showgrid="false"
     fit-margin-top="0"
     fit-margin-left="0"
     fit-margin-right="0"
     fit-margin-bottom="0"
     units="px"
     width="200mm"
     inkscape:window-width="1920"
     inkscape:window-height="1007"
     inkscape:window-x="0"
     inkscape:window-y="0"
     inkscape:window-maximized="1" />
  <metadata
     id="metadata4929">
    <rdf:RDF>
      <cc:Work
         rdf:about="">
        <dc:format>image/svg+xml</dc:format>
        <dc:type
           rdf:resource="http://purl.org/dc/dcmitype/StillImage" />
        <dc:title />
      </cc:Work>
    </rdf:RDF>
  </metadata>
  <g
     inkscape:label="Germline"
     inkscape:groupmode="layer"
     id="layer1"
     transform="translate(-221.17594,-598.32411)"
     style="display:none">
    <flowRoot
       xml:space="preserve"
       id="flowRoot5674-6-8-8-6"
       style="font-style:normal;font-variant:normal;font-weight:normal;font-stretch:normal;font-size:52.46426392px;line-height:125%;font-family:Michroma;-inkscape-font-specification:Michroma;letter-spacing:0px;word-spacing:0px;display:inline;fill:#ffffff;fill-opacity:1;stroke:none;stroke-width:1px;stroke-linecap:butt;stroke-linejoin:miter;stroke-opacity:1"
       transform="translate(397.88815,-1473.0326)"><flowRegion
         id="flowRegion5676-1-5-9-8"><rect
           id="rect5678-0-9-7-9"
           width="616.24683"
           height="383.07242"
           x="-40.786236"
           y="2079.1736"
           style="font-style:normal;font-variant:normal;font-weight:normal;font-stretch:normal;font-size:52.46426392px;font-family:Michroma;-inkscape-font-specification:Michroma;fill:#ffffff" /></flowRegion><flowPara
         id="flowPara5680-6-75-7-06"
         style="font-style:normal;font-variant:normal;font-weight:normal;font-stretch:normal;font-size:50.00000381px;font-family:Michroma;-inkscape-font-specification:Michroma;text-align:start;text-anchor:start;fill:#ffffff">Sarek</flowPara><flowPara
         id="flowPara5682-3-3-6-8"
         style="font-style:normal;font-variant:normal;font-weight:normal;font-stretch:normal;font-family:Michroma;-inkscape-font-specification:Michroma;text-align:start;text-anchor:start;fill:#ffffff" /></flowRoot>    <path
       sodipodi:nodetypes="cc"
       inkscape:connector-curvature="0"
       inkscape:connector-type="polyline"
       id="path5765-9-4-7"
       d="m 389.07266,663.19468 159.33699,0"
       style="display:inline;fill:none;fill-opacity:1;fill-rule:evenodd;stroke:#377eb8;stroke-width:4.20000029;stroke-linecap:butt;stroke-linejoin:miter;stroke-miterlimit:4;stroke-dasharray:none;stroke-opacity:1" />
    <flowRoot
       style="font-style:normal;font-variant:normal;font-weight:normal;font-stretch:normal;font-size:41.45429611px;line-height:125%;font-family:Michroma;-inkscape-font-specification:Michroma;text-align:center;letter-spacing:0px;word-spacing:0px;text-anchor:middle;display:inline;fill:#ffffff;fill-opacity:1;stroke:none;stroke-width:1px;stroke-linecap:butt;stroke-linejoin:miter;stroke-opacity:1"
       id="flowRoot4855-2-3"
       xml:space="preserve"
       transform="translate(-19.995698,-240.03049)"><flowRegion
         id="flowRegion4857-8-5"><rect
           style="font-style:normal;font-variant:normal;font-weight:normal;font-stretch:normal;font-size:41.45429611px;font-family:Michroma;-inkscape-font-specification:Michroma;text-align:center;text-anchor:middle;fill:#ffffff"
           y="847.40942"
           x="406.72501"
           height="383.07242"
           width="616.24683"
           id="rect4859-9-1" /></flowRegion><flowPara
         style="font-style:normal;font-variant:normal;font-weight:normal;font-stretch:normal;font-size:41.45429611px;font-family:Michroma;-inkscape-font-specification:Michroma;text-align:start;text-anchor:start;fill:#ffffff"
         id="flowPara4861-7-7" /><flowPara
         style="font-style:normal;font-variant:normal;font-weight:normal;font-stretch:normal;font-size:37.50000381px;font-family:Michroma;-inkscape-font-specification:Michroma;text-align:start;text-anchor:start;fill:#ffffff"
         id="flowPara4863-3-4">Germline</flowPara></flowRoot>    <path
       inkscape:connector-curvature="0"
       id="path5280"
       style="fill:#000000;stroke:none;stroke-width:4.18779993;stroke-linecap:butt;stroke-linejoin:miter;stroke-miterlimit:10;stroke-dasharray:none;stroke-opacity:1"
       d="m 339.08814,658.29363 c 0,-31.98037 -25.92527,-57.90611 -57.9061,-57.90611 -31.98037,0 -57.9061,25.92574 -57.9061,57.90611 0,31.98036 25.92573,57.9061 57.9061,57.9061 31.98083,0 57.9061,-25.92574 57.9061,-57.9061 z" />
    <path
       inkscape:connector-curvature="0"
       id="path5282"
       d="m 266.51211,631.48504 -3.86719,1.67382 -4.88672,30.77734 -10.74804,2.93164 0,38.10743 -0.0332,0.0469 c 9.58401,7.02713 21.41042,11.17773 34.20507,11.17773 25.57955,0 47.28508,-16.5858 54.94922,-39.58985 l 0.0957,0.0312 -0.0898,-0.0527 c 1.91353,-5.75078 2.95117,-11.90144 2.95117,-18.29492 0,-3.51077 -0.31177,-6.94701 -0.91016,-10.28516 l -71.66605,-16.52343 z"
       style="fill:#aacbe6;fill-opacity:1;fill-rule:nonzero;stroke:none" />
    <path
       d="m 336.22653,676.64181 -73.58244,-43.48285 -4.8853,30.778 -10.74775,2.93146 0,38.10619 -0.0335,0.0479 c 9.58401,7.02713 21.40989,11.17724 34.20455,11.17724 25.57955,0 47.28491,-16.58555 54.94905,-39.58961"
       style="fill:#377eb8;fill-opacity:1;fill-rule:nonzero;stroke:none"
       id="path5284"
       inkscape:connector-curvature="0" />
    <path
       d="m 339.07616,658.32412 c 0,-31.97712 -25.92264,-57.90023 -57.90022,-57.90023 -31.97712,0 -57.90022,25.92311 -57.90022,57.90023 0,31.97711 25.9231,57.90021 57.90022,57.90021 31.97758,0 57.90022,-25.9231 57.90022,-57.90021 z"
       style="fill:none;stroke:#ffffff;stroke-width:4.19957352;stroke-linecap:butt;stroke-linejoin:miter;stroke-miterlimit:10;stroke-dasharray:none;stroke-opacity:1"
       id="path5286"
       inkscape:connector-curvature="0" />
  </g>
  <g
     inkscape:groupmode="layer"
     id="layer2"
     inkscape:label="Somatic"
     style="display:none"
     transform="translate(2.7783959e-5,59.99996)">
    <flowRoot
       xml:space="preserve"
       id="flowRoot5674-6-8-3"
       style="font-style:normal;font-variant:normal;font-weight:normal;font-stretch:normal;font-size:52.46426392px;line-height:125%;font-family:Chandas;-inkscape-font-specification:Chandas;letter-spacing:0px;word-spacing:0px;display:inline;fill:#ffffff;fill-opacity:1;stroke:none;stroke-width:1px;stroke-linecap:butt;stroke-linejoin:miter;stroke-opacity:1"
       transform="translate(2.9094459,-398.05499)"><flowRegion
         id="flowRegion5676-1-5-3"><rect
           id="rect5678-0-9-3"
           width="616.24683"
           height="383.07242"
           x="133.01567"
           y="345.89627"
           style="font-style:normal;font-variant:normal;font-weight:normal;font-stretch:normal;font-size:52.46426392px;font-family:Chandas;-inkscape-font-specification:Chandas;fill:#ffffff" /></flowRegion><flowPara
         id="flowPara5680-6-75-8"
         style="font-style:normal;font-variant:normal;font-weight:normal;font-stretch:normal;font-size:50.00000381px;font-family:Michroma;-inkscape-font-specification:Michroma;text-align:start;text-anchor:start;fill:#ffffff">Sarek</flowPara><flowPara
         id="flowPara5682-3-3-0"
         style="font-style:normal;font-variant:normal;font-weight:normal;font-stretch:normal;font-family:'Eurostile Extended';-inkscape-font-specification:'Eurostile Extended';text-align:start;text-anchor:start;fill:#ffffff" /></flowRoot>    <path
       sodipodi:nodetypes="cc"
       inkscape:connector-curvature="0"
       inkscape:connector-type="polyline"
       id="path5765-9-47"
       d="m 167.89671,4.8706135 159.33698,0"
       style="display:inline;fill:none;fill-opacity:1;fill-rule:evenodd;stroke:#e41a1c;stroke-width:4.20000029;stroke-linecap:butt;stroke-linejoin:miter;stroke-miterlimit:4;stroke-dasharray:none;stroke-opacity:1" />
    <flowRoot
       xml:space="preserve"
       id="flowRoot4835-4-8"
       style="font-style:normal;font-variant:normal;font-weight:normal;font-stretch:normal;font-size:41.45429611px;line-height:125%;font-family:Chandas;-inkscape-font-specification:Chandas;letter-spacing:0px;word-spacing:0px;display:inline;fill:#ffffff;fill-opacity:1;stroke:none;stroke-width:1px;stroke-linecap:butt;stroke-linejoin:miter;stroke-opacity:1"
       transform="translate(-12.814241,-398.10894)"><flowRegion
         id="flowRegion4837-7-6"><rect
           id="rect4839-8-8"
           width="616.24683"
           height="383.07242"
           x="178.36752"
           y="347.11771"
           style="font-style:normal;font-variant:normal;font-weight:normal;font-stretch:normal;font-size:41.45429611px;font-family:Chandas;-inkscape-font-specification:Chandas;fill:#ffffff" /></flowRegion><flowPara
         id="flowPara4841-4-3"
         style="font-style:normal;font-variant:normal;font-weight:normal;font-stretch:normal;font-size:41.45429611px;font-family:'Eurostile Extended';-inkscape-font-specification:'Eurostile Extended';text-align:start;text-anchor:start;fill:#ffffff" /><flowPara
         id="flowPara4843-5-8"
         style="font-style:normal;font-variant:normal;font-weight:normal;font-stretch:normal;font-size:37.50000381px;font-family:Michroma;-inkscape-font-specification:Michroma;text-align:start;text-anchor:start;fill:#ffffff">Somatic</flowPara></flowRoot>    <path
       inkscape:connector-curvature="0"
       id="path5300"
       style="fill:#000000;stroke:none;stroke-width:4.18779993;stroke-linecap:butt;stroke-linejoin:miter;stroke-miterlimit:10;stroke-dasharray:none;stroke-opacity:1"
       d="m 117.91218,-0.00605 c 0,-31.98037 -25.925277,-57.90611 -57.906108,-57.90611 -31.980369,0 -57.9060996,25.92574 -57.9060996,57.90611 0,31.98036 25.9257306,57.9061 57.9060996,57.9061 31.980831,0 57.906108,-25.92574 57.906108,-57.9061 z" />
    <path
       inkscape:connector-curvature="0"
       id="path5302"
       d="m 45.336146,-26.81464 -3.867187,1.67382 -4.886719,30.77734 -10.748047,2.93164 0,38.10743 -0.0332,0.0469 c 9.584012,7.02713 21.41042,11.17773 34.205078,11.17773 25.579545,0 47.285079,-16.5858 54.949219,-39.58985 l 0.0957,0.0312 -0.0898,-0.0527 c 1.91353,-5.75078 2.95117,-11.90144 2.95117,-18.29492 0,-3.51077 -0.31177,-6.94701 -0.91016,-10.28516 L 45.336146,-26.81464 Z"
       style="fill:#f49c9d;fill-opacity:1;fill-rule:nonzero;stroke:none" />
    <path
       d="m 115.05057,18.34213 -73.582439,-43.48285 -4.885301,30.778 -10.747755,2.93146 0,38.10619 -0.0335,0.0479 c 9.584013,7.02713 21.409894,11.17724 34.204553,11.17724 25.579547,0 47.284912,-16.58555 54.949052,-39.58961"
       style="fill:#e41a1c;fill-opacity:1;fill-rule:nonzero;stroke:none"
       id="path5304"
       inkscape:connector-curvature="0" />
    <path
       d="m 117.9002,5e-5 c 0,-31.97712 -25.922646,-57.90023 -57.900226,-57.90023 -31.977116,0 -57.900215,25.92311 -57.900215,57.90023 0,31.97711 25.923099,57.90021 57.900215,57.90021 31.97758,0 57.900226,-25.9231 57.900226,-57.90021 z"
       style="fill:none;stroke:#ffffff;stroke-width:4.19957352;stroke-linecap:butt;stroke-linejoin:miter;stroke-miterlimit:10;stroke-dasharray:none;stroke-opacity:1"
       id="path5306"
       inkscape:connector-curvature="0" />
  </g>
  <g
     inkscape:groupmode="layer"
     id="layer3"
     inkscape:label="Exome"
     style="display:none"
     transform="translate(2.7783959e-5,59.99996)">
    <flowRoot
       xml:space="preserve"
       id="flowRoot5674-6-2"
       style="font-style:normal;font-variant:normal;font-weight:normal;font-stretch:normal;font-size:52.46426392px;line-height:125%;font-family:Chandas;-inkscape-font-specification:Chandas;letter-spacing:0px;word-spacing:0px;display:inline;fill:#ffffff;fill-opacity:1;stroke:none;stroke-width:1px;stroke-linecap:butt;stroke-linejoin:miter;stroke-opacity:1"
       transform="translate(2.9094459,-271.6004)"><flowRegion
         id="flowRegion5676-1-2"><rect
           id="rect5678-0-6"
           width="616.24683"
           height="383.07242"
           x="133.01567"
           y="219.43036"
           style="font-style:normal;font-variant:normal;font-weight:normal;font-stretch:normal;font-size:52.46426392px;font-family:Chandas;-inkscape-font-specification:Chandas;fill:#ffffff" /></flowRegion><flowPara
         id="flowPara5680-6-4"
         style="font-style:normal;font-variant:normal;font-weight:normal;font-stretch:normal;font-size:50.00000381px;font-family:Michroma;-inkscape-font-specification:Michroma;text-align:start;text-anchor:start;fill:#ffffff">Sarek</flowPara><flowPara
         id="flowPara5682-3-1"
         style="font-style:normal;font-variant:normal;font-weight:normal;font-stretch:normal;font-size:50.00000381px;font-family:Michroma;-inkscape-font-specification:Michroma;text-align:start;text-anchor:start;fill:#ffffff" /></flowRoot>    <path
       sodipodi:nodetypes="cc"
       inkscape:connector-curvature="0"
       inkscape:connector-type="polyline"
       id="path5765-8"
       d="m 167.8967,4.8706135 159.33699,0"
       style="display:inline;fill:none;fill-opacity:1;fill-rule:evenodd;stroke:#974ea2;stroke-width:4.20000029;stroke-linecap:butt;stroke-linejoin:miter;stroke-miterlimit:4;stroke-dasharray:none;stroke-opacity:1" />
    <flowRoot
       style="font-style:normal;font-variant:normal;font-weight:normal;font-stretch:normal;font-size:41.45429611px;line-height:125%;font-family:Chandas;-inkscape-font-specification:Chandas;letter-spacing:0px;word-spacing:0px;display:inline;fill:#ffffff;fill-opacity:1;stroke:none;stroke-width:1px;stroke-linecap:butt;stroke-linejoin:miter;stroke-opacity:1"
       id="flowRoot4845-2-2"
       xml:space="preserve"
       transform="translate(-13.488069,-271.4019)"><flowRegion
         id="flowRegion4847-0-8"><rect
           style="font-style:normal;font-variant:normal;font-weight:normal;font-stretch:normal;font-size:41.45429611px;font-family:Chandas;-inkscape-font-specification:Chandas;fill:#ffffff"
           y="220.65378"
           x="177.86926"
           height="383.07242"
           width="616.24683"
           id="rect4849-6-8" /></flowRegion><flowPara
         style="font-style:normal;font-variant:normal;font-weight:normal;font-stretch:normal;font-size:41.45429611px;font-family:'Eurostile Extended';-inkscape-font-specification:'Eurostile Extended';text-align:start;text-anchor:start;fill:#ffffff"
         id="flowPara4851-1-9" /><flowPara
         style="font-style:normal;font-variant:normal;font-weight:normal;font-stretch:normal;font-size:37.50000381px;font-family:Michroma;-inkscape-font-specification:Michroma;text-align:start;text-anchor:start;fill:#ffffff"
         id="flowPara4853-5-28">Exome</flowPara></flowRoot>    <path
       d="m 117.91218,-0.01825 c 0,-31.98037 -25.925277,-57.90611 -57.906108,-57.90611 -31.980369,0 -57.9060996,25.92574 -57.9060996,57.90611 0,31.98036 25.9257306,57.9061 57.9060996,57.9061 31.980831,0 57.906108,-25.92574 57.906108,-57.9061 z"
       style="fill:#000000;stroke:none;stroke-width:4.18779993;stroke-linecap:butt;stroke-linejoin:miter;stroke-miterlimit:10;stroke-dasharray:none;stroke-opacity:1"
       id="path5290"
       inkscape:connector-curvature="0" />
    <path
       style="fill:#d6b5db;fill-opacity:1;fill-rule:nonzero;stroke:none"
       d="m 45.336146,-26.82684 -3.867187,1.67382 -4.886719,30.77734 -10.748047,2.93164 0,38.10743 -0.0332,0.0469 c 9.584012,7.02713 21.41042,11.17773 34.205078,11.17773 25.579545,0 47.285079,-16.5858 54.949219,-39.58985 l 0.0957,0.0312 -0.0898,-0.0527 c 1.91353,-5.75078 2.95117,-11.90144 2.95117,-18.29492 0,-3.51077 -0.31177,-6.94701 -0.91016,-10.28516 L 45.336146,-26.82684 Z"
       id="path5292"
       inkscape:connector-curvature="0" />
    <path
       inkscape:connector-curvature="0"
       id="path5294"
       style="fill:#974ea2;fill-opacity:1;fill-rule:nonzero;stroke:none"
       d="m 115.05057,18.32993 -73.582439,-43.48285 -4.885301,30.778 -10.747755,2.93146 0,38.10619 -0.0335,0.0479 c 9.584013,7.02713 21.409894,11.17724 34.204553,11.17724 25.579547,0 47.284912,-16.58555 54.949052,-39.58961" />
    <path
       inkscape:connector-curvature="0"
       id="path5296"
       style="fill:none;stroke:#ffffff;stroke-width:4.19957352;stroke-linecap:butt;stroke-linejoin:miter;stroke-miterlimit:10;stroke-dasharray:none;stroke-opacity:1"
       d="m 117.9002,4e-5 c 0,-31.977116 -25.922646,-57.900221 -57.900226,-57.900221 -31.977116,0 -57.900215,25.923105 -57.900215,57.900221 0,31.97711 25.923099,57.90022 57.900215,57.90022 31.97758,0 57.900226,-25.92311 57.900226,-57.90022 z" />
  </g>
  <g
     inkscape:groupmode="layer"
     id="layer4"
     inkscape:label="Sarek"
     style="display:inline"
     transform="translate(2.7783959e-5,59.99996)">
    <g
       id="g4237">
      <g
         id="flowRoot5349-3"
         style="font-style:normal;font-variant:normal;font-weight:normal;font-stretch:normal;font-size:52.46426392px;line-height:125%;font-family:Chandas;-inkscape-font-specification:Chandas;letter-spacing:0px;word-spacing:0px;display:inline;fill:#ffffff;fill-opacity:1;stroke:none;stroke-width:1px;stroke-linecap:butt;stroke-linejoin:miter;stroke-opacity:1"
         transform="translate(170.97195,-1611.369)">
        <path
           id="path3410"
           style="font-style:normal;font-variant:normal;font-weight:normal;font-stretch:normal;font-size:50.00000381px;font-family:Michroma;-inkscape-font-specification:Michroma;text-align:start;text-anchor:start;fill:#ffffff"
           d="m -6.7265603,1588.9043 q 3.8574221,0 6.6162114,0.3173 2.7587893,0.3174 4.6386722,0.9522 1.9042971,0.6103 3.027344,1.5381 1.123047,0.9277 1.7333986,2.124 0.6103516,1.1719 0.7812501,2.6367 0.195312,1.4649 0.195312,3.1738 0,1.709 -0.3173824,3.2227 -0.2929688,1.4893 -1.0742188,2.7344 -0.7812501,1.2451 -2.1240236,2.2217 -1.3427736,0.9765 -3.417969,1.6601 -2.0751955,0.6836 -5.0048832,1.0254 -2.9052737,0.3662 -6.811524,0.3662 l -6.25,0 q -3.515626,0 -6.152345,-0.2685 -2.636719,-0.2686 -4.541016,-0.8057 -1.904297,-0.5615 -3.149414,-1.3916 -1.245117,-0.8545 -2.001953,-1.9775 -0.732422,-1.1475 -1.025391,-2.5879 -0.292969,-1.4649 -0.292969,-3.2227 l 4.687501,0 q 0,2.1973 0.634765,3.4424 0.634766,1.2451 2.09961,1.8799 1.464844,0.6103 3.833008,0.7812 2.392578,0.1465 5.908204,0.1465 l 6.25,0 q 4.1015628,0 6.811524,-0.3906 2.7099611,-0.3906 4.3212894,-1.2451 1.6113282,-0.8545 2.270508,-2.2217 0.6591797,-1.3916 0.6591797,-3.3692 0,-1.9775 -0.4638672,-3.2959 -0.4394532,-1.3183 -1.7822267,-2.0996 -1.3183595,-0.7812 -3.73535187,-1.0986 -2.41699233,-0.3418 -6.32324263,-0.3418 l -6.4453127,0 q -4.296876,0 -7.373048,-0.3174 -3.051758,-0.3174 -5.126953,-0.9033 -2.075196,-0.6103 -3.320313,-1.4893 -1.245117,-0.9033 -1.904297,-2.0507 -0.634766,-1.1475 -0.830078,-2.5391 -0.195313,-1.416 -0.195313,-3.0518 0,-1.7089 0.292969,-3.1738 0.317383,-1.4648 1.147461,-2.6367 0.830078,-1.1963 2.270508,-2.124 1.44043,-0.9278 3.686524,-1.5381 2.270508,-0.6348 5.444336,-0.9522 3.173828,-0.3173 7.470704,-0.3173 l 4.6875001,0 q 3.5156253,0 6.15234427,0.2685 2.63671893,0.2442 4.54101593,0.8057 1.9042971,0.5371 3.1494143,1.3672 1.2695314,0.8056 2.0019533,1.9531 0.756836,1.123 1.0498048,2.5635 0.2929683,1.4404 0.2929683,3.1982 l -4.6874999,0 q 0,-2.1973 -0.6347657,-3.4424 -0.6347656,-1.2451 -2.0996095,-1.8554 -1.4648439,-0.6348 -3.8574222,-0.7813 -2.3925783,-0.1709 -5.9082036,-0.1709 l -4.6875001,0 q -4.687501,0 -7.714845,0.3418 -3.027344,0.3174 -4.785156,1.0986 -1.757813,0.7813 -2.441407,2.0996 -0.683593,1.3184 -0.683593,3.2959 0,1.2207 0.170898,2.1729 0.170898,0.9521 0.683594,1.6846 0.537109,0.708 1.489258,1.1963 0.952148,0.4882 2.514648,0.8056 1.562501,0.3174 3.808594,0.4639 2.270508,0.1221 5.395509,0.1221 l 6.4453127,0 z" />
        <path
           id="path3412"
           style="font-style:normal;font-variant:normal;font-weight:normal;font-stretch:normal;font-size:50.00000381px;font-family:Michroma;-inkscape-font-specification:Michroma;text-align:start;text-anchor:start;fill:#ffffff"
           d="m 44.518561,1606.1406 q -0.07324,0.293 -1.098633,1.4648 -0.732422,0.8789 -1.953125,1.5625 -1.220703,0.6592 -3.271485,1.0254 -2.026367,0.3906 -5.34668,0.3906 -4.418946,0 -7.543946,-0.4638 -3.125,-0.4395 -5.102539,-1.3672 -1.977539,-0.9522 -2.905274,-2.417 -0.90332,-1.4648 -0.90332,-3.4912 0,-2.124 0.488281,-3.5889 0.512695,-1.4892 1.464844,-2.4902 0.976562,-1.001 2.34375,-1.5625 1.367188,-0.5615 3.100586,-0.8545 1.757813,-0.293 3.833008,-0.3662 2.075196,-0.073 4.418946,-0.073 3.344727,0 5.590821,0.293 2.246094,0.2686 3.662109,0.708 1.44043,0.4151 2.172852,0.9033 0.732422,0.4883 1.049805,0.9034 0,-2.7344 -0.244141,-4.6631 -0.219726,-1.9287 -0.756836,-3.2227 -0.512695,-1.2939 -1.342773,-2.0508 -0.830078,-0.7812 -2.050782,-1.1718 -1.196289,-0.3907 -2.807617,-0.4883 -1.611328,-0.1221 -3.686524,-0.1221 -3.222656,0 -5.34668,0.1709 -2.124024,0.1465 -3.369141,0.6104 -1.245117,0.4638 -1.757812,1.2939 -0.512696,0.8057 -0.512696,2.124 l -4.6875,0 q 0,-2.2217 0.78125,-3.7597 0.805664,-1.5381 2.636719,-2.4903 1.855469,-0.9765 4.858399,-1.416 3.00293,-0.4394 7.397461,-0.4394 4.296875,0 7.275391,0.708 2.978516,0.708 4.809571,2.4902 1.855469,1.7822 2.661133,4.8096 0.830078,3.0029 0.830078,7.6172 l 0,13.2812 -4.6875,0 0,-3.8574 z m -10.888673,0.7324 q 3.100586,0 5.175782,-0.293 2.099609,-0.2929 3.369141,-0.8789 1.269531,-0.5859 1.80664,-1.4648 0.53711,-0.8789 0.53711,-2.0508 0,-1.1719 -0.634766,-1.9775 -0.610351,-0.8301 -2.075195,-1.3428 -1.44043,-0.5127 -3.833008,-0.7324 -2.392579,-0.2442 -5.908204,-0.2442 -3.515625,0 -5.688477,0.1221 -2.148438,0.1221 -3.320313,0.5615 -1.171875,0.4395 -1.586914,1.294 -0.390625,0.8545 -0.390625,2.3193 0,1.4649 0.415039,2.3926 0.439453,0.9033 1.757813,1.416 1.318359,0.5127 3.78418,0.708 2.490234,0.1709 6.591797,0.1709 z" />
        <path
           id="path3414"
           style="font-style:normal;font-variant:normal;font-weight:normal;font-stretch:normal;font-size:50.00000381px;font-family:Michroma;-inkscape-font-specification:Michroma;text-align:start;text-anchor:start;fill:#ffffff"
           d="m 79.699228,1591.0283 q 0,-1.7578 -0.268554,-2.9053 -0.244141,-1.1719 -1.196289,-1.8555 -0.952149,-0.708 -2.832032,-0.9765 -1.855469,-0.293 -5.078125,-0.293 -3.149415,0 -5.126954,0.5615 -1.977539,0.5371 -3.100586,1.5381 -1.123047,1.001 -1.538086,2.3926 -0.390625,1.3916 -0.390625,3.1006 l 0,17.4072 -4.6875,0 0,-28.125 4.6875,0 0,4.4678 q 0.244141,-0.7569 0.90332,-1.6602 0.65918,-0.9277 2.001954,-1.709 1.342773,-0.8056 3.466797,-1.3427 2.148437,-0.5371 5.34668,-0.5371 3.66211,0 5.957032,0.6591 2.294922,0.6348 3.564453,1.9043 1.293945,1.2451 1.733399,3.1006 0.463867,1.8555 0.463867,4.2725 l -3.906251,0 z" />
        <path
           id="path3416"
           style="font-style:normal;font-variant:normal;font-weight:normal;font-stretch:normal;font-size:50.00000381px;font-family:Michroma;-inkscape-font-specification:Michroma;text-align:start;text-anchor:start;fill:#ffffff"
           d="m 103.13673,1610.5351 q -4.687502,0 -7.958987,-0.6347 -3.271485,-0.6592 -5.322266,-2.2461 -2.050782,-1.587 -2.978516,-4.2481 -0.927734,-2.6611 -0.927734,-6.6894 0,-4.6143 0.927734,-7.6172 0.927734,-3.0274 2.978516,-4.8096 2.050781,-1.7822 5.322266,-2.4902 3.271485,-0.708 7.958987,-0.708 3.34472,0 5.78613,0.4882 2.46582,0.4883 4.19922,1.4161 1.75781,0.9277 2.83203,2.246 1.09863,1.3184 1.70899,2.7832 0.63476,1.4405 0.85449,3.3936 0.24414,1.9531 0.24414,4.126 l -0.39063,1.5625 -27.734373,0 q 0,3.2226 0.634766,5.2978 0.634765,2.0508 2.099609,3.003 1.464844,0.9521 3.857422,1.2207 2.392579,0.2441 5.908206,0.2441 3.22265,0 5.32226,-0.1709 2.12403,-0.1953 3.36914,-0.708 1.24512,-0.5127 1.7334,-1.416 0.5127,-0.9277 0.5127,-2.3926 l 4.6875,0 q 0,2.2705 -0.80567,3.8818 -0.78125,1.587 -2.6123,2.5879 -1.83105,0.9766 -4.83398,1.4161 -2.97852,0.4638 -7.37305,0.4638 z m 0,-25.5371 q -2.34375,0 -4.199221,0.098 -1.831055,0.098 -3.222657,0.4394 -1.367187,0.3174 -2.34375,0.9522 -0.976562,0.6103 -1.586914,1.4648 -0.585938,0.8301 -0.878906,2.3682 -0.268555,1.5136 -0.268555,3.6621 l 23.437503,0 q 0,-2.8565 -0.61035,-4.4678 -0.61035,-1.6357 -1.92871,-2.6855 -1.31836,-1.0498 -3.39356,-1.4405 -2.07519,-0.3906 -5.00488,-0.3906 z" />
        <path
           id="path3418"
           style="font-style:normal;font-variant:normal;font-weight:normal;font-stretch:normal;font-size:50.00000381px;font-family:Michroma;-inkscape-font-specification:Michroma;text-align:start;text-anchor:start;fill:#ffffff"
           d="m 125.01173,1572.498 4.6875,0 0,20.5078 1.5625,0 17.18751,-11.1328 7.03125,0 -19.92188,13.0859 20.70313,15.0391 -7.03125,0 -17.96876,-13.4766 -1.5625,0 0,13.4766 -4.6875,0 0,-37.5 z" />
      </g>
      <path
         sodipodi:nodetypes="cc"
         inkscape:connector-curvature="0"
         inkscape:connector-type="polyline"
         id="path4964-31-4"
         d="m 167.8967,4.8706135 159.33699,0"
         style="display:inline;fill:none;fill-opacity:1;fill-rule:evenodd;stroke:#949494;stroke-width:4.20000029;stroke-linecap:butt;stroke-linejoin:miter;stroke-miterlimit:4;stroke-dasharray:none;stroke-opacity:1" />
      <g
         id="g4232">
        <path
           style="fill:#d3d3d3;fill-opacity:1;fill-rule:nonzero;stroke:none;"
           d="m 45.336146,-26.85123 -3.867187,1.67382 -4.886719,30.77734 -10.748047,2.93164 0,38.107427 -0.0332,0.0469 c 9.584012,7.02713 21.41042,11.17773 34.205078,11.17773 25.579545,0 47.285079,-16.5858 54.949219,-39.589847 l 0.0957,0.0312 -0.0898,-0.0527 c 1.91353,-5.75078 2.95117,-11.90144 2.95117,-18.29492 0,-3.51077 -0.31177,-6.94701 -0.91016,-10.28516 L 45.336146,-26.85123 Z"
           id="path4117"
           inkscape:connector-curvature="0" />
        <path
           inkscape:connector-curvature="0"
           id="path172"
           style="fill:#949494;fill-opacity:1;fill-rule:nonzero;stroke:none;"
           d="m 115.05057,18.30554 -73.582439,-43.48285 -4.885301,30.778 -10.747755,2.93146 0,38.106187 -0.0335,0.0479 c 9.584013,7.02713 21.409894,11.17724 34.204553,11.17724 25.579547,0 47.284912,-16.58555 54.949052,-39.589607" />
        <path
           inkscape:connector-curvature="0"
           id="path220"
           style="fill:none;stroke:#ffffff;stroke-width:4.19957352;stroke-linecap:butt;stroke-linejoin:miter;stroke-miterlimit:10;stroke-dasharray:none;stroke-opacity:1"
           d="m 117.9002,4e-5 c 0,-31.97712 -25.922646,-57.90022 -57.900226,-57.90022 -31.977116,0 -57.900215,25.9231 -57.900215,57.90022 0,31.977116 25.923099,57.900219 57.900215,57.900219 31.97758,0 57.900226,-25.923103 57.900226,-57.900219 z" />
      </g>
    </g>
  </g>
</svg>
