<?xml version="1.0" encoding="UTF-8" standalone="no"?>
<!-- Created with Inkscape (http://www.inkscape.org/) -->

<svg
   xmlns:dc="http://purl.org/dc/elements/1.1/"
   xmlns:cc="http://creativecommons.org/ns#"
   xmlns:rdf="http://www.w3.org/1999/02/22-rdf-syntax-ns#"
   xmlns:svg="http://www.w3.org/2000/svg"
   xmlns="http://www.w3.org/2000/svg"
   xmlns:sodipodi="http://sodipodi.sourceforge.net/DTD/sodipodi-0.dtd"
   xmlns:inkscape="http://www.inkscape.org/namespaces/inkscape"
   id="svg2"
   version="1.1"
   inkscape:version="0.92.3 (2405546, 2018-03-11)"
   xml:space="preserve"
   width="500.97101"
   height="100"
   viewBox="0 0 469.66032 93.749998"
   sodipodi:docname="Barntumörbanken.svg"
   inkscape:export-filename="/home/maxime/workspace/Sarek/docs/images/Barntumörbanken.png"
   inkscape:export-xdpi="96"
   inkscape:export-ydpi="96"><metadata
     id="metadata8"><rdf:RDF><cc:Work
         rdf:about=""><dc:format>image/svg+xml</dc:format><dc:type
           rdf:resource="http://purl.org/dc/dcmitype/StillImage" /><dc:title></dc:title></cc:Work></rdf:RDF></metadata><defs
     id="defs6"><clipPath
       clipPathUnits="userSpaceOnUse"
       id="clipPath16"><path
         d="M 0,595.28 H 841.89 V 0 H 0 Z"
         id="path18"
         inkscape:connector-curvature="0" /></clipPath></defs><sodipodi:namedview
     pagecolor="#ffffff"
     bordercolor="#666666"
     borderopacity="1"
     objecttolerance="10"
     gridtolerance="10"
     guidetolerance="10"
     inkscape:pageopacity="0"
     inkscape:pageshadow="2"
     inkscape:window-width="1920"
     inkscape:window-height="1012"
     id="namedview4"
     showgrid="false"
     fit-margin-top="0"
     fit-margin-left="0"
     fit-margin-right="0"
     fit-margin-bottom="0"
     inkscape:zoom="1"
     inkscape:cx="166.3337"
     inkscape:cy="-29.972584"
     inkscape:window-x="1920"
     inkscape:window-y="312"
     inkscape:window-maximized="1"
     inkscape:current-layer="g10" /><g
     id="g10"
     inkscape:groupmode="layer"
     inkscape:label="Barntumörbanken"
     transform="matrix(1.25,0,0,-1.25,-225.55025,409.14237)"><g
       id="g895"
       transform="matrix(0.8283174,0,0,0.8283174,30.978443,43.317906)"><path
         d="m 295.5898,300.2095 h -8.055 v 12.779 c 0.353,0.013 0.725,0.03 1.112,0.046 1.315,0.057 2.805,0.122 4.219,0.122 7.35,0 10.487,-1.841 10.487,-6.157 v -0.535 c 0,-2.685 -0.805,-6.255 -7.763,-6.255 m -2.724,-18.436 c -2.011,0 -3.463,0.105 -5.144,0.227 l -0.187,0.013 v 14.604 h 8.055 c 5.354,0 7.957,-2.125 7.957,-6.497 v -0.828 c 0,-5.27 -3.194,-7.519 -10.681,-7.519 m 9.531,16.658 c 2.98,1.632 4.596,4.427 4.596,8.033 v 0.535 c 0,6.34 -4.753,9.555 -14.127,9.555 -2.998,0 -6.14,-0.206 -7.372,-0.296 -0.897,-0.09 -1.599,-0.824 -1.599,-1.671 v -34.197 c 0,-0.983 0.589,-1.592 1.591,-1.669 2.289,-0.255 4.91,-0.394 7.38,-0.394 11.837,0 14.322,5.963 14.322,10.965 v 0.828 c 0,3.874 -1.685,6.765 -4.791,8.311"
         style="fill:#231f20;fill-opacity:1;fill-rule:nonzero;stroke:none"
         id="path22"
         inkscape:connector-curvature="0" /><path
         d="m 323.9043,292.4346 h 2.996 v -8.479 c -2.995,-1.566 -5.146,-2.182 -7.569,-2.182 -3.063,0 -4.552,1.696 -4.552,5.184 v 0.632 c 0,3.213 1.411,4.845 9.125,4.845 m -2.384,14.098 c -3.276,0 -5,-0.205 -7.007,-0.444 -1.462,-0.196 -1.769,-0.988 -1.769,-1.619 v -0.291 c 0,-0.872 0.688,-1.481 1.674,-1.481 l 0.988,0.081 c 1.911,0.208 3.291,0.358 6.114,0.358 4.123,0 5.38,-1.473 5.38,-6.304 v -1.001 h -2.996 c -8.829,0 -12.766,-2.542 -12.766,-8.242 v -0.632 c 0,-7.746 5.73,-8.582 8.193,-8.582 2.347,0 4.817,0.654 7.52,1.993 0.012,-0.94 0.78,-1.701 1.723,-1.701 h 0.243 c 0.95,0 1.723,0.773 1.723,1.723 v 16.442 c 0,4.164 -0.935,9.7 -9.02,9.7"
         style="fill:#231f20;fill-opacity:1;fill-rule:nonzero;stroke:none"
         id="path26"
         inkscape:connector-curvature="0" /><path
         d="m 345.5049,306.5327 c -2.159,0 -3.937,-0.479 -6.034,-1.667 -0.126,0.83 -0.773,1.424 -1.603,1.424 h -0.389 c -0.927,0 -1.626,-0.741 -1.626,-1.723 v -24.225 c 0,-0.907 0.767,-1.674 1.674,-1.674 h 0.292 c 0.908,0 1.674,0.767 1.674,1.674 v 20.887 c 2.784,1.675 4.599,1.908 6.012,1.908 1.706,0 2.063,0.831 2.063,1.528 v 0.389 c 0,0.674 -0.357,1.479 -2.063,1.479"
         style="fill:#231f20;fill-opacity:1;fill-rule:nonzero;stroke:none"
         id="path30"
         inkscape:connector-curvature="0" /><path
         d="m 362.3374,306.5327 c -2.21,0 -4.651,-0.55 -7.116,-1.597 -0.151,0.793 -0.785,1.354 -1.592,1.354 h -0.389 c -0.926,0 -1.625,-0.741 -1.625,-1.723 v -24.225 c 0,-0.907 0.766,-1.674 1.674,-1.674 h 0.292 c 0.907,0 1.674,0.767 1.674,1.674 v 21.072 c 2.44,1.113 4.888,1.723 6.936,1.723 3.914,0 5.817,-2.174 5.817,-6.645 v -16.15 c 0,-0.907 0.745,-1.674 1.626,-1.674 h 0.34 c 0.924,0 1.675,0.751 1.675,1.674 v 16.15 c 0,6.381 -3.395,10.041 -9.312,10.041"
         style="fill:#231f20;fill-opacity:1;fill-rule:nonzero;stroke:none"
         id="path34"
         inkscape:connector-curvature="0" /><path
         d="m 388.7061,306.2896 h -5.039 v 4.261 c 0,0.954 -0.657,1.674 -1.528,1.674 h -0.536 c -0.898,0 -1.576,-0.72 -1.576,-1.674 v -4.261 h -4.066 c -0.986,0 -1.674,-0.608 -1.674,-1.479 v -0.487 c 0,-0.886 0.704,-1.528 1.674,-1.528 h 4.066 v -18.416 c 0,-5.321 3.338,-6.004 6.246,-6.004 0.93,0 1.913,0.058 2.636,0.155 1.215,0.172 1.471,0.922 1.471,1.52 v 0.291 c 0,0.336 -0.128,1.432 -1.772,1.432 h -2.335 c -1.852,0 -2.606,0.235 -2.606,2.606 v 18.416 h 5.039 c 0.97,0 1.674,0.642 1.674,1.528 v 0.487 c 0,0.871 -0.689,1.479 -1.674,1.479"
         style="fill:#231f20;fill-opacity:1;fill-rule:nonzero;stroke:none"
         id="path38"
         inkscape:connector-curvature="0" /><path
         d="m 412.5923,306.2896 h -0.292 c -0.908,0 -1.674,-0.767 -1.674,-1.674 v -21.064 c -1.889,-0.831 -4.503,-1.729 -7.034,-1.729 -3.795,0 -5.719,2.235 -5.719,6.643 v 16.15 c 0,0.907 -0.744,1.674 -1.626,1.674 h -0.34 c -0.923,0 -1.674,-0.751 -1.674,-1.674 v -16.15 c 0,-6.287 3.481,-10.041 9.311,-10.041 2.176,0 4.667,0.564 7.116,1.599 0.15,-0.794 0.785,-1.356 1.592,-1.356 h 0.389 c 0.927,0 1.625,0.741 1.625,1.723 v 24.225 c 0,0.907 -0.766,1.674 -1.674,1.674"
         style="fill:#231f20;fill-opacity:1;fill-rule:nonzero;stroke:none"
         id="path42"
         inkscape:connector-curvature="0" /><path
         d="m 442.3164,306.5327 c -2.331,0 -5.028,-0.648 -7.648,-1.832 -2.393,2.393 -6.357,2.417 -11.47,0.157 -0.122,0.834 -0.772,1.432 -1.604,1.432 h -0.389 c -0.927,0 -1.626,-0.741 -1.626,-1.723 v -24.225 c 0,-0.97 0.622,-1.674 1.48,-1.674 h 0.681 c 0.857,0 1.479,0.704 1.479,1.674 v 21.025 c 2.541,1.175 4.627,1.77 6.206,1.77 1.641,0 3.823,-0.538 3.823,-5.185 v -17.61 c 0,-1.001 0.575,-1.674 1.431,-1.674 h 0.73 c 0.885,0 1.479,0.673 1.479,1.674 v 17.61 c 0,1.42 -0.183,2.723 -0.547,3.885 1.876,0.82 3.94,1.3 5.635,1.3 3.51,0 4.942,-1.559 4.942,-5.38 v -17.415 c 0,-0.954 0.677,-1.674 1.577,-1.674 h 0.486 c 0.899,0 1.577,0.72 1.577,1.674 v 17.415 c 0,5.495 -3.081,8.776 -8.242,8.776"
         style="fill:#231f20;fill-opacity:1;fill-rule:nonzero;stroke:none"
         id="path46"
         inkscape:connector-curvature="0" /><path
         d="m 468.4434,309.8979 h 0.291 c 0.924,0 1.675,0.751 1.675,1.674 v 3.599 c 0,0.908 -0.767,1.675 -1.675,1.675 h -0.291 c -0.908,0 -1.675,-0.767 -1.675,-1.675 v -3.599 c 0,-0.923 0.751,-1.674 1.675,-1.674"
         style="fill:#231f20;fill-opacity:1;fill-rule:nonzero;stroke:none"
         id="path50"
         inkscape:connector-curvature="0" /><path
         d="m 461.1465,309.8979 h 0.291 c 0.924,0 1.675,0.751 1.675,1.674 v 3.599 c 0,0.908 -0.767,1.675 -1.675,1.675 h -0.291 c -0.908,0 -1.675,-0.767 -1.675,-1.675 v -3.599 c 0,-0.923 0.751,-1.674 1.675,-1.674"
         style="fill:#231f20;fill-opacity:1;fill-rule:nonzero;stroke:none"
         id="path54"
         inkscape:connector-curvature="0" /><path
         d="m 464.9404,281.7734 c -4.864,0 -7.13,2.853 -7.13,8.979 v 3.405 c 0,6.125 2.266,8.979 7.13,8.979 4.864,0 7.13,-2.854 7.13,-8.979 v -3.405 c 0,-6.126 -2.266,-8.979 -7.13,-8.979 m 0,24.759 c -6.945,0 -10.771,-4.395 -10.771,-12.375 v -3.405 c 0,-7.981 3.826,-12.376 10.771,-12.376 6.945,0 10.771,4.395 10.771,12.376 v 3.405 c 0,7.98 -3.826,12.375 -10.771,12.375"
         style="fill:#231f20;fill-opacity:1;fill-rule:nonzero;stroke:none"
         id="path58"
         inkscape:connector-curvature="0" /><path
         d="m 489.7031,306.5327 c -2.159,0 -3.937,-0.479 -6.034,-1.667 -0.126,0.83 -0.773,1.424 -1.603,1.424 h -0.389 c -0.927,0 -1.626,-0.741 -1.626,-1.723 v -24.225 c 0,-0.907 0.766,-1.674 1.674,-1.674 h 0.292 c 0.908,0 1.674,0.767 1.674,1.674 v 20.887 c 2.784,1.675 4.599,1.908 6.012,1.908 1.705,0 2.063,0.831 2.063,1.528 v 0.389 c 0,0.674 -0.358,1.479 -2.063,1.479"
         style="fill:#231f20;fill-opacity:1;fill-rule:nonzero;stroke:none"
         id="path62"
         inkscape:connector-curvature="0" /><path
         d="m 505.2227,281.7734 c -2.227,0 -4.645,0.313 -6.012,0.521 v 20.339 c 1.831,0.317 4.388,0.503 6.012,0.503 4.657,0 6.645,-2.686 6.645,-8.979 v -3.21 c 0,-6.431 -1.988,-9.174 -6.645,-9.174 m 0,24.759 c -1.75,0 -4.165,-0.232 -6.012,-0.564 v 8.668 c 0,0.923 -0.707,1.675 -1.576,1.675 h -0.487 c -0.87,0 -1.577,-0.752 -1.577,-1.675 v -33.662 c 0,-0.93 0.388,-1.425 1.33,-1.658 1.076,-0.221 4.858,-0.94 8.322,-0.94 6.633,0 10.285,4.464 10.285,12.571 v 3.21 c 0,10.228 -5.593,12.375 -10.285,12.375"
         style="fill:#231f20;fill-opacity:1;fill-rule:nonzero;stroke:none"
         id="path66"
         inkscape:connector-curvature="0" /><path
         d="m 531.834,292.4346 h 2.996 v -8.479 c -2.995,-1.566 -5.146,-2.182 -7.568,-2.182 -3.064,0 -4.553,1.696 -4.553,5.184 v 0.632 c 0,3.213 1.411,4.845 9.125,4.845 m -2.383,14.098 c -3.277,0 -5.001,-0.205 -7.008,-0.444 -1.463,-0.196 -1.769,-0.988 -1.769,-1.619 v -0.291 c 0,-0.872 0.688,-1.481 1.675,-1.481 l 0.989,0.082 c 1.91,0.207 3.29,0.357 6.113,0.357 4.122,0 5.379,-1.473 5.379,-6.304 v -1.001 h -2.996 c -8.828,0 -12.766,-2.542 -12.766,-8.242 v -0.632 c 0,-7.746 5.73,-8.582 8.194,-8.582 2.345,0 4.816,0.654 7.519,1.993 0.012,-0.94 0.781,-1.701 1.723,-1.701 h 0.244 c 0.95,0 1.723,0.773 1.723,1.723 v 16.442 c 0,4.164 -0.935,9.7 -9.02,9.7"
         style="fill:#231f20;fill-opacity:1;fill-rule:nonzero;stroke:none"
         id="path70"
         inkscape:connector-curvature="0" /><path
         d="m 554.0186,306.5327 c -2.21,0 -4.65,-0.55 -7.115,-1.597 -0.152,0.793 -0.785,1.354 -1.592,1.354 h -0.389 c -0.926,0 -1.626,-0.741 -1.626,-1.723 v -24.225 c 0,-0.907 0.767,-1.674 1.674,-1.674 h 0.292 c 0.908,0 1.675,0.767 1.675,1.674 v 21.072 c 2.439,1.113 4.887,1.723 6.935,1.723 3.915,0 5.818,-2.174 5.818,-6.645 v -16.15 c 0,-0.907 0.744,-1.674 1.625,-1.674 h 0.341 c 0.923,0 1.674,0.751 1.674,1.674 v 16.15 c 0,6.381 -3.394,10.041 -9.312,10.041"
         style="fill:#231f20;fill-opacity:1;fill-rule:nonzero;stroke:none"
         id="path74"
         inkscape:connector-curvature="0" /><path
         d="m 574.6953,293.2432 11.316,10.349 c 0.39,0.311 0.622,0.803 0.622,1.316 0,0.896 -0.772,1.625 -1.722,1.625 -0.594,0 -1.197,-0.226 -1.681,-0.64 l -10.703,-10.007 v 18.75 c 0,0.908 -0.767,1.675 -1.675,1.675 h -0.292 c -0.907,0 -1.674,-0.767 -1.674,-1.675 v -34.294 c 0,-0.908 0.767,-1.674 1.674,-1.674 h 0.292 c 0.908,0 1.675,0.766 1.675,1.674 v 10.065 l 10.491,-11.227 c 0.667,-0.667 1.279,-0.804 1.99,-0.804 0.97,0 1.674,0.642 1.674,1.528 0,0.51 -0.289,0.929 -0.546,1.245 z"
         style="fill:#231f20;fill-opacity:1;fill-rule:nonzero;stroke:none"
         id="path78"
         inkscape:connector-curvature="0" /><path
         d="m 599.6035,303.1362 c 4.578,0 6.684,-2.618 6.786,-8.472 h -13.717 c 0.101,3.981 1.433,8.472 6.931,8.472 m 0,3.396 c -6.523,0 -10.576,-4.742 -10.576,-12.375 v -3.21 c 0,-8.342 3.934,-12.571 11.694,-12.571 2.131,0 4.916,0.315 7.444,0.842 0.656,0.13 1.528,0.444 1.528,1.659 v 0.341 c 0,0.842 -0.609,1.43 -1.48,1.43 -0.139,0 -0.252,-0.027 -0.292,-0.048 l -0.15,-0.015 c -2.524,-0.516 -5.094,-0.812 -7.05,-0.812 -4.183,0 -8.055,1.112 -8.055,9.174 v 0.272 h 15.693 c 0.924,0 1.675,0.75 1.675,1.673 v 1.314 c 0,7.949 -3.704,12.326 -10.431,12.326"
         style="fill:#231f20;fill-opacity:1;fill-rule:nonzero;stroke:none"
         id="path82"
         inkscape:connector-curvature="0" /><path
         d="m 624.7324,306.5327 c -2.21,0 -4.65,-0.55 -7.115,-1.597 -0.152,0.793 -0.785,1.354 -1.592,1.354 h -0.39 c -0.926,0 -1.625,-0.741 -1.625,-1.723 v -24.225 c 0,-0.907 0.767,-1.674 1.674,-1.674 h 0.292 c 0.908,0 1.675,0.767 1.675,1.674 v 21.072 c 2.439,1.113 4.887,1.723 6.935,1.723 3.915,0 5.818,-2.174 5.818,-6.645 v -16.15 c 0,-0.907 0.744,-1.674 1.625,-1.674 h 0.341 c 0.923,0 1.674,0.751 1.674,1.674 v 16.15 c 0,6.381 -3.394,10.041 -9.312,10.041"
         style="fill:#231f20;fill-opacity:1;fill-rule:nonzero;stroke:none"
         id="path86"
         inkscape:connector-curvature="0" /><path
         d="m 270.9902,297.5879 c 0,-25.263 -20.012,-45.274 -45.274,-45.274 -25.264,0 -45.276,20.011 -45.276,45.274 0,25.262 20.012,45.271 45.276,45.271 25.262,0 45.274,-20.009 45.274,-45.271"
         style="fill:#231f20;fill-opacity:1;fill-rule:nonzero;stroke:none"
         id="path90"
         inkscape:connector-curvature="0" /><path
         d="m 249.6289,309.3701 c 0,-2.496 -1.719,-4.273 -4.126,-4.273 -2.408,0 -4.126,1.777 -4.126,4.273 0,2.496 1.718,4.277 4.126,4.277 2.407,0 4.126,-1.781 4.126,-4.277"
         style="fill:#1ab5f1;fill-opacity:1;fill-rule:nonzero;stroke:none"
         id="path94"
         inkscape:connector-curvature="0" /><path
         d="m 226.9375,321.708 c 0,-2.498 -1.714,-4.273 -4.127,-4.273 -2.407,0 -4.122,1.775 -4.122,4.273 0,2.498 1.715,4.275 4.122,4.275 2.413,0 4.127,-1.777 4.127,-4.275"
         style="fill:#f24dae;fill-opacity:1;fill-rule:nonzero;stroke:none"
         id="path98"
         inkscape:connector-curvature="0" /><path
         d="m 226.9375,297.7295 c 0,-2.494 -1.714,-4.271 -4.127,-4.271 -2.407,0 -4.122,1.777 -4.122,4.271 0,2.498 1.715,4.277 4.122,4.277 2.413,0 4.127,-1.779 4.127,-4.277"
         style="fill:#33b540;fill-opacity:1;fill-rule:nonzero;stroke:none"
         id="path102"
         inkscape:connector-curvature="0" /><path
         d="m 226.9375,273.4619 c 0,-2.494 -1.714,-4.275 -4.127,-4.275 -2.407,0 -4.122,1.781 -4.122,4.275 0,2.498 1.715,4.273 4.122,4.273 2.413,0 4.127,-1.775 4.127,-4.273"
         style="fill:#fbc707;fill-opacity:1;fill-rule:nonzero;stroke:none"
         id="path106"
         inkscape:connector-curvature="0" /><path
         d="m 240.0908,321.708 c 0,-2.498 -1.716,-4.273 -4.122,-4.273 -2.413,0 -4.129,1.775 -4.129,4.273 0,2.498 1.716,4.279 4.129,4.279 2.406,0 4.122,-1.781 4.122,-4.279"
         style="fill:#fbc707;fill-opacity:1;fill-rule:nonzero;stroke:none"
         id="path110"
         inkscape:connector-curvature="0" /><path
         d="m 240.0908,297.7295 c 0,-2.494 -1.716,-4.271 -4.124,-4.271 -2.411,0 -4.127,1.777 -4.127,4.271 0,2.498 1.716,4.277 4.127,4.277 2.408,0 4.124,-1.779 4.124,-4.277"
         style="fill:#1ab5f1;fill-opacity:1;fill-rule:nonzero;stroke:none"
         id="path114"
         inkscape:connector-curvature="0" /><path
         d="m 240.0908,273.46 c 0,-2.496 -1.716,-4.273 -4.122,-4.273 -2.413,0 -4.129,1.777 -4.129,4.273 0,2.5 1.716,4.275 4.129,4.275 2.406,0 4.122,-1.775 4.122,-4.275"
         style="fill:#f24dae;fill-opacity:1;fill-rule:nonzero;stroke:none"
         id="path118"
         inkscape:connector-curvature="0" /><path
         d="m 214.2637,309.5771 c 0,-2.494 -1.952,-4.273 -4.365,-4.273 -2.404,0 -4.125,1.779 -4.125,4.273 0,2.498 1.721,4.279 4.125,4.279 2.413,0 4.365,-1.781 4.365,-4.279"
         style="fill:#fbc707;fill-opacity:1;fill-rule:nonzero;stroke:none"
         id="path122"
         inkscape:connector-curvature="0" /><path
         d="m 214.2637,273.4619 c 0,-2.494 -1.952,-4.275 -4.365,-4.275 -2.404,0 -4.125,1.781 -4.125,4.275 0,2.498 1.721,4.273 4.125,4.273 2.413,0 4.365,-1.775 4.365,-4.273"
         style="fill:#f47216;fill-opacity:1;fill-rule:nonzero;stroke:none"
         id="path126"
         inkscape:connector-curvature="0" /><path
         d="m 214.0264,321.71 c 0,-2.494 -1.715,-4.275 -4.128,-4.275 -2.403,0 -4.125,1.781 -4.125,4.275 0,2.496 1.722,4.273 4.125,4.273 2.413,0 4.128,-1.777 4.128,-4.273"
         style="fill:#1ab5f1;fill-opacity:1;fill-rule:nonzero;stroke:none"
         id="path130"
         inkscape:connector-curvature="0" /><path
         d="m 214.2637,297.7197 c 0,-2.496 -1.952,-4.273 -4.365,-4.273 -2.404,0 -4.125,1.777 -4.125,4.273 0,2.498 1.721,4.27 4.125,4.27 2.413,0 4.365,-1.772 4.365,-4.27"
         style="fill:#f47216;fill-opacity:1;fill-rule:nonzero;stroke:none"
         id="path134"
         inkscape:connector-curvature="0" /><path
         d="m 214.2637,285.5889 c 0,-2.502 -1.952,-4.273 -4.365,-4.273 -2.404,0 -4.125,1.771 -4.125,4.273 0,2.498 1.721,4.275 4.125,4.275 2.413,0 4.365,-1.777 4.365,-4.275"
         style="fill:#258cd4;fill-opacity:1;fill-rule:nonzero;stroke:none"
         id="path138"
         inkscape:connector-curvature="0" /><path
         d="m 249.627,285.3818 c 0,-2.5 -1.717,-4.271 -4.126,-4.271 -2.412,0 -4.13,1.771 -4.13,4.271 0,2.496 1.718,4.277 4.13,4.277 2.409,0 4.126,-1.781 4.126,-4.277"
         style="fill:#33b540;fill-opacity:1;fill-rule:nonzero;stroke:none"
         id="path142"
         inkscape:connector-curvature="0" /></g></g></svg>