<?xml version="1.0" encoding="UTF-8" standalone="no"?>
<!-- Created with Inkscape (http://www.inkscape.org/) -->

<svg
   xmlns:dc="http://purl.org/dc/elements/1.1/"
   xmlns:cc="http://creativecommons.org/ns#"
   xmlns:rdf="http://www.w3.org/1999/02/22-rdf-syntax-ns#"
   xmlns:svg="http://www.w3.org/2000/svg"
   xmlns="http://www.w3.org/2000/svg"
   xmlns:sodipodi="http://sodipodi.sourceforge.net/DTD/sodipodi-0.dtd"
   xmlns:inkscape="http://www.inkscape.org/namespaces/inkscape"
   version="1.1"
   id="svg2"
   xml:space="preserve"
   width="186.72"
   height="75.58667"
   viewBox="0 0 186.72 75.58667"
   sodipodi:docname="DNGC_logo.svg"
   inkscape:version="0.92.5 (2060ec1f9f, 2020-04-08)"
   inkscape:export-filename="DNGC_logo.png"
   inkscape:export-xdpi="96"
   inkscape:export-ydpi="96"><metadata
     id="metadata8"><rdf:RDF><cc:Work
         rdf:about=""><dc:format>image/svg+xml</dc:format><dc:type
           rdf:resource="http://purl.org/dc/dcmitype/StillImage" /><dc:title /></cc:Work></rdf:RDF></metadata><defs
     id="defs6" /><sodipodi:namedview
     pagecolor="#ffffff"
     bordercolor="#666666"
     borderopacity="1"
     objecttolerance="10"
     gridtolerance="10"
     guidetolerance="10"
     inkscape:pageopacity="0"
     inkscape:pageshadow="2"
     inkscape:window-width="1920"
     inkscape:window-height="1007"
     id="namedview4"
     showgrid="false"
     inkscape:zoom="1.6923736"
     inkscape:cx="-9.4541767"
     inkscape:cy="37.793335"
     inkscape:window-x="0"
     inkscape:window-y="0"
     inkscape:window-maximized="1"
     inkscape:current-layer="g10" /><g
     id="g10"
     inkscape:groupmode="layer"
     inkscape:label="ink_ext_XXXXXX"
     transform="matrix(1.3333333,0,0,-1.3333333,0,75.586667)"><g
       id="g12"
       transform="scale(0.1)"><path
         d="m 57.0273,35.6055 c 0,-10.7149 4.6094,-16.9766 19.1211,-16.9766 5.6055,0 11.3789,0.4922 16.9727,1.3164 V 53.2461 H 112.742 V 4.94531 C 101.207,1.64844 87.5273,0 75.9844,0 49.1172,0 36.2578,11.375 36.2578,33.1328 v 46.8164 c 0,22.5818 13.1836,33.1288 41.707,33.1288 8.8985,0 21.5938,-0.984 31.4842,-3.621 L 107.137,91.3203 C 97.0859,93.4648 87.0273,94.293 76.3164,94.293 61.8047,94.293 57.0273,88.3555 57.0273,77.1484 V 35.6055"
         style="fill:#285f94;fill-opacity:1;fill-rule:nonzero;stroke:none"
         id="path14"
         inkscape:connector-curvature="0" /><path
         d="m 139.605,111.434 h 67.258 V 93.1328 H 160.379 V 66.5977 H 203.23 V 48.3008 H 160.379 V 19.9453 h 46.484 V 1.64844 H 139.605 V 111.434"
         style="fill:#285f94;fill-opacity:1;fill-rule:nonzero;stroke:none"
         id="path16"
         inkscape:connector-curvature="0" /><path
         d="M 253.172,84.8906 V 1.64844 H 232.898 V 111.434 h 27.684 l 41.707,-83.4106 v 83.4106 h 20.277 V 1.64844 H 294.879 L 253.172,84.8906"
         style="fill:#285f94;fill-opacity:1;fill-rule:nonzero;stroke:none"
         id="path18"
         inkscape:connector-curvature="0" /><path
         d="m 370.203,34.9453 c 0,-10.3867 5.274,-16.6484 20.77,-16.6484 15.488,0 20.761,6.2617 20.761,16.6484 v 43.1875 c 0,10.3867 -5.273,16.6524 -20.761,16.6524 -15.496,0 -20.77,-6.2657 -20.77,-16.6524 z M 432.508,33.793 C 432.508,15.4961 421.961,0 390.973,0 359.977,0 349.43,15.4961 349.43,33.793 v 45.5 c 0,18.2929 10.547,33.785 41.543,33.785 30.988,0 41.535,-15.4921 41.535,-33.785 v -45.5"
         style="fill:#285f94;fill-opacity:1;fill-rule:nonzero;stroke:none"
         id="path20"
         inkscape:connector-curvature="0" /><path
         d="M 527.449,15.8242 H 501.07 L 480.797,72.6953 478.98,1.64844 h -21.257 l 4.941,109.78556 h 23.242 l 28.36,-77.9731 28.347,77.9731 h 23.242 L 570.809,1.64844 h -21.27 L 547.723,72.6953 527.449,15.8242"
         style="fill:#285f94;fill-opacity:1;fill-rule:nonzero;stroke:none"
         id="path22"
         inkscape:connector-curvature="0" /><path
         d="m 598.484,111.434 h 67.254 V 93.1328 H 619.254 V 66.5977 h 42.863 V 48.3008 H 619.254 V 19.9453 h 46.484 V 1.64844 H 598.484 V 111.434"
         style="fill:#285f94;fill-opacity:1;fill-rule:nonzero;stroke:none"
         id="path24"
         inkscape:connector-curvature="0" /><path
         d="m 724.742,81.2695 c 0,20.1055 11.711,31.8085 39.074,31.8085 10.215,0 20.77,-1.316 29.832,-3.621 l -2.304,-17.9687 c -8.906,1.6445 -19.285,2.8047 -26.875,2.8047 -14.336,0 -18.953,-4.9492 -18.953,-16.6524 V 35.4453 c 0,-11.707 4.617,-16.6523 18.953,-16.6523 7.59,0 17.969,1.1523 26.875,2.8047 L 793.648,3.62891 C 784.586,1.31641 774.031,0 763.816,0 736.453,0 724.742,11.7031 724.742,31.8164 v 49.4531"
         style="fill:#285f94;fill-opacity:1;fill-rule:nonzero;stroke:none"
         id="path26"
         inkscape:connector-curvature="0" /><path
         d="m 818.035,111.434 h 67.254 V 93.1328 H 838.805 V 66.5977 h 42.863 V 48.3008 H 838.805 V 19.9453 h 46.484 V 1.64844 H 818.035 V 111.434"
         style="fill:#285f94;fill-opacity:1;fill-rule:nonzero;stroke:none"
         id="path28"
         inkscape:connector-curvature="0" /><path
         d="M 931.609,84.8906 V 1.64844 H 911.324 V 111.434 H 939.02 L 980.73,28.0234 V 111.434 H 1001 V 1.64844 h -27.691 l -41.7,83.24216"
         style="fill:#285f94;fill-opacity:1;fill-rule:nonzero;stroke:none"
         id="path30"
         inkscape:connector-curvature="0" /><path
         d="m 1052.75,93.1328 h -30.65 v 18.3012 h 82.09 V 93.1328 h -30.67 V 1.64844 h -20.77 V 93.1328"
         style="fill:#285f94;fill-opacity:1;fill-rule:nonzero;stroke:none"
         id="path32"
         inkscape:connector-curvature="0" /><path
         d="m 1125.28,111.434 h 67.26 V 93.1328 h -46.5 V 66.5977 h 42.86 V 48.3008 h -42.86 V 19.9453 h 46.5 V 1.64844 h -67.26 V 111.434"
         style="fill:#285f94;fill-opacity:1;fill-rule:nonzero;stroke:none"
         id="path34"
         inkscape:connector-curvature="0" /><path
         d="m 1262.74,93.1328 h -23.41 v -37.25 h 23.41 c 11.38,0 15,4.1211 15,13.3516 v 10.875 c 0,9.2344 -3.95,13.0234 -15,13.0234 z m 21.6,-91.48436 -25.22,36.26566 h -19.79 V 1.64844 h -20.76 V 111.434 h 45 c 25.55,0 34.94,-10.383 34.94,-29.6723 V 67.4219 c 0,-13.1875 -4.94,-22.418 -16.48,-26.5391 l 27.2,-39.23436 h -24.89"
         style="fill:#285f94;fill-opacity:1;fill-rule:nonzero;stroke:none"
         id="path36"
         inkscape:connector-curvature="0" /><path
         d="m 57.5273,172.125 h 23.7383 c 16.6524,0 21.5934,6.922 21.5934,19.781 v 44.836 c 0,12.856 -4.941,19.781 -21.5934,19.781 H 57.5273 Z m 24.2383,97.094 c 26.8634,0 35.2734,-14.016 35.2734,-31.485 v -46.816 c 0,-17.477 -8.41,-31.484 -35.2734,-31.484 H 43.3555 v 109.785 h 38.4101"
         style="fill:#285f94;fill-opacity:1;fill-rule:nonzero;stroke:none"
         id="path38"
         inkscape:connector-curvature="0" /><path
         d="m 181.813,258.996 -19.618,-60.828 h 39.239 z m 46.652,-99.562 h -14.348 l -9.062,26.371 h -46.649 l -8.91,-26.371 h -14.332 l 37.09,109.785 h 19.121 l 37.09,-109.785"
         style="fill:#285f94;fill-opacity:1;fill-rule:nonzero;stroke:none"
         id="path40"
         inkscape:connector-curvature="0" /><path
         d="m 265.875,252.898 v -93.464 h -13.523 v 109.785 h 19.453 l 47.812,-93.961 v 93.961 h 13.516 V 159.434 H 313.68 l -47.805,93.464"
         style="fill:#285f94;fill-opacity:1;fill-rule:nonzero;stroke:none"
         id="path42"
         inkscape:connector-curvature="0" /><path
         d="m 381.414,159.434 h -14.172 v 109.785 h 14.172 V 159.434"
         style="fill:#285f94;fill-opacity:1;fill-rule:nonzero;stroke:none"
         id="path44"
         inkscape:connector-curvature="0" /><path
         d="m 444.051,157.781 c -10.547,0 -23.242,1.981 -32.637,5.774 l 2.305,11.539 c 10.058,-3.133 20.605,-4.781 30.664,-4.781 17.637,0 21.258,4.613 21.258,17.14 0,14.836 -0.164,16.156 -22.743,21.266 -26.543,5.933 -29.679,11.047 -29.679,33.797 0,19.121 7.922,28.347 35.117,28.347 9.562,0 20.93,-1.316 29.668,-3.625 l -1.152,-12.035 c -8.739,1.981 -19.122,3.137 -28.192,3.137 -17.961,0 -21.262,-3.629 -21.262,-16.32 0,-15.165 0,-15.825 21.758,-21.262 29.18,-7.258 30.664,-11.543 30.664,-32.973 0,-19.125 -5.605,-30.004 -35.769,-30.004"
         style="fill:#285f94;fill-opacity:1;fill-rule:nonzero;stroke:none"
         id="path46"
         inkscape:connector-curvature="0" /><path
         d="m 572.613,159.434 v 49.781 h -48.621 v -49.781 h -14.179 v 109.785 h 14.179 v -47.313 h 48.621 v 47.313 h 14.18 V 159.434 h -14.18"
         style="fill:#285f94;fill-opacity:1;fill-rule:nonzero;stroke:none"
         id="path48"
         inkscape:connector-curvature="0" /><path
         d="m 669.039,252.898 v -93.464 h -13.516 v 109.785 h 19.454 l 47.804,-93.961 v 93.961 h 13.516 V 159.434 h -19.453 l -47.805,93.464"
         style="fill:#285f94;fill-opacity:1;fill-rule:nonzero;stroke:none"
         id="path50"
         inkscape:connector-curvature="0" /><path
         d="m 806.844,258.996 -19.621,-60.828 h 39.23 z m 46.648,-99.562 h -14.344 l -9.062,26.371 h -46.652 l -8.907,-26.371 h -14.336 l 37.09,109.785 h 19.121 l 37.09,-109.785"
         style="fill:#285f94;fill-opacity:1;fill-rule:nonzero;stroke:none"
         id="path52"
         inkscape:connector-curvature="0" /><path
         d="m 890.242,256.523 h -32.804 v 12.696 h 79.785 V 256.523 H 904.41 v -97.089 h -14.168 v 97.089"
         style="fill:#285f94;fill-opacity:1;fill-rule:nonzero;stroke:none"
         id="path54"
         inkscape:connector-curvature="0" /><path
         d="m 974.793,159.434 h -14.172 v 109.785 h 14.172 V 159.434"
         style="fill:#285f94;fill-opacity:1;fill-rule:nonzero;stroke:none"
         id="path56"
         inkscape:connector-curvature="0" /><path
         d="m 1020.61,191.41 c 0,-13.515 8.24,-21.097 25.55,-21.097 17.31,0 25.56,7.582 25.56,21.097 v 45.824 c 0,13.524 -8.25,21.106 -25.56,21.106 -17.31,0 -25.55,-7.582 -25.55,-21.106 z m 65.28,-0.328 c 0,-18.301 -11.37,-33.301 -39.73,-33.301 -28.35,0 -39.73,15 -39.73,33.301 v 46.484 c 0,18.297 11.38,33.297 39.73,33.297 28.36,0 39.73,-15 39.73,-33.297 v -46.484"
         style="fill:#285f94;fill-opacity:1;fill-rule:nonzero;stroke:none"
         id="path58"
         inkscape:connector-curvature="0" /><path
         d="m 1130.22,252.898 v -93.464 h -13.51 v 109.785 h 19.45 l 47.8,-93.961 v 93.961 h 13.52 V 159.434 h -19.46 l -47.8,93.464"
         style="fill:#285f94;fill-opacity:1;fill-rule:nonzero;stroke:none"
         id="path60"
         inkscape:connector-curvature="0" /><path
         d="m 1268.02,258.996 -19.62,-60.828 h 39.23 z m 46.65,-99.562 h -14.34 l -9.06,26.371 h -46.65 l -8.91,-26.371 h -14.34 l 37.09,109.785 h 19.12 l 37.09,-109.785"
         style="fill:#285f94;fill-opacity:1;fill-rule:nonzero;stroke:none"
         id="path62"
         inkscape:connector-curvature="0" /><path
         d="m 1352.73,172.125 h 47.64 v -12.691 h -61.82 v 109.785 h 14.18 v -97.094"
         style="fill:#285f94;fill-opacity:1;fill-rule:nonzero;stroke:none"
         id="path64"
         inkscape:connector-curvature="0" /><path
         d="M 43.3477,333.984 H 220.641 v 34.989 H 43.3477 v -34.989"
         style="fill:#285f94;fill-opacity:1;fill-rule:nonzero;stroke:none"
         id="path66"
         inkscape:connector-curvature="0" /><path
         d="m 234.859,424.566 c 0,0 -11.464,3.918 -19.961,-11.324 -3.699,-6.574 -6.503,-15.539 -7.351,-21.289 -0.606,-3.762 -3.859,-6.633 -7.766,-6.633 -3.984,0 -7.254,2.969 -7.761,6.793 -0.508,8.321 0.691,23.383 19.519,34.532 1.375,0.855 1.621,2.16 0.871,3.3 -0.851,1.309 -6.437,1.723 -6.437,1.723 0,0 12.773,9.309 16.406,13.336 4.687,5.137 8.996,12.73 6.836,22.297 -0.184,0.672 -0.676,1.707 -0.676,1.707 11.547,0.578 20.871,-13.238 9.172,-21.559 -2.43,-1.707 -1.746,-3.504 1.398,-3.773 1.805,-0.149 5.008,0.863 7.149,2.402 0,0 -2.793,-13.394 -11.399,-21.512 m -56.972,-16.05 c -2.461,-4.161 -6.414,-8.715 -11.426,-12.875 -10.977,-9.137 -22.742,-13.118 -26.551,-8.34 -0.793,0.969 -1.23,2.152 -1.191,3.64 h 0.008 c 0.011,2.125 1.269,3.786 3.339,4.883 10.118,5.137 22.383,15.871 25.743,26.285 0.011,0.047 0.8,2.246 0.8,4.848 0,8.168 -6.621,14.789 -14.793,14.789 -6.242,0 -11.574,-3.883 -13.742,-9.348 h -2.617 c 0.84,6.415 2.356,12.004 5.09,16.868 15.476,27.586 50.078,32.175 58.621,21.578 6.016,-7.438 -2.664,-16.375 -5.82,-18.281 -2.41,-1.461 -2.637,-5.254 5.109,-3.641 2.645,0.555 5.594,2.558 5.594,2.558 0,-6.582 -8.621,-17.812 -11.934,-18.578 -16.66,0.668 -15.984,-20.257 -16.25,-24.386 z m -81.68,13.593 c 3.3516,-10.414 15.617,-21.148 25.742,-26.285 2.063,-1.097 3.321,-2.758 3.332,-4.883 h 0.02 c 0.039,-1.488 -0.422,-2.671 -1.203,-3.64 -3.809,-4.778 -15.567,-0.797 -26.5511,8.34 -5.0117,4.16 -8.9649,8.714 -11.4258,12.875 h 0.0195 c -0.2656,4.129 0.3985,25.054 -16.2617,24.386 -3.3008,0.766 -11.9219,11.996 -11.9219,18.578 0,0 2.9493,-2.003 5.5938,-2.558 7.7539,-1.613 7.5195,2.18 5.1094,3.641 -3.1563,1.906 -11.8282,10.843 -5.8321,18.281 8.5664,10.597 43.1449,6.008 58.6329,-21.578 2.727,-4.864 4.25,-10.453 5.09,-16.868 h -2.61 c -2.175,5.465 -7.507,9.348 -13.757,9.348 -8.164,0 -14.7973,-6.621 -14.7973,-14.789 0,-2.602 0.8008,-4.801 0.8203,-4.848 M 72,392.113 c -0.5195,-3.824 -3.7891,-6.793 -7.7734,-6.793 -3.918,0 -7.1602,2.871 -7.7539,6.633 -0.8594,5.75 -3.6641,14.715 -7.3633,21.289 -8.4961,15.242 -19.9531,11.324 -19.9531,11.324 -8.6133,8.118 -11.4141,21.512 -11.4141,21.512 2.1484,-1.539 5.3398,-2.551 7.1562,-2.402 3.1446,0.269 3.8399,2.066 1.4063,3.773 -11.707,8.321 -2.3711,22.137 9.1601,21.559 0,0 -0.496,-1.035 -0.6718,-1.707 -2.1602,-9.567 2.1562,-17.16 6.8242,-22.297 3.6445,-4.027 16.418,-13.336 16.418,-13.336 0,0 -5.5782,-0.414 -6.4454,-1.723 -0.7421,-1.14 -0.4882,-2.445 0.879,-3.3 C 71.2969,415.496 72.4961,400.434 72,392.113 m 173.477,30.61 c 0,0 18.523,13.785 18.523,33.554 0,19.852 -18.145,25.09 -21.758,25.895 -10.762,2.363 -18.543,-1.25 -18.543,-1.25 0,0 -5.91,11.625 -21.41,13.238 -22.215,2.309 -40.289,-9.586 -52.117,-19.73 -4.981,-4.293 -8.856,-8.582 -11.453,-10.856 l -1.133,13.239 c 12.578,2.121 22.019,11.277 22.019,22.269 0,11.422 -10.222,20.875 -23.542,22.5 v 11.316 h 9.109 c 1.426,-2.539 4.141,-4.265 7.277,-4.265 4.598,0 8.321,3.734 8.321,8.32 0,4.598 -3.723,8.328 -8.321,8.328 -3.136,0 -5.851,-1.718 -7.277,-4.258 h -9.109 v 10.329 c 2.546,1.425 4.257,4.14 4.257,7.277 0,4.59 -3.722,8.301 -8.324,8.301 -4.598,0 -8.316,-3.711 -8.316,-8.301 0,-3.137 1.726,-5.852 4.265,-7.277 v -10.329 h -9.109 c -1.426,2.54 -4.141,4.258 -7.266,4.258 -4.601,0 -8.324,-3.73 -8.324,-8.328 0,-4.586 3.723,-8.32 8.324,-8.32 3.125,0 5.84,1.726 7.266,4.265 h 9.109 v -11.316 c -13.308,-1.625 -23.535,-11.078 -23.535,-22.5 0,-10.973 9.434,-20.137 21.961,-22.262 0.031,0 -1.07,-13.246 -1.07,-13.246 -2.61,2.274 -6.477,6.563 -11.465,10.856 -11.816,10.144 -29.9024,22.039 -52.1016,19.73 -15.5274,-1.613 -21.4336,-13.238 -21.4336,-13.238 0,0 -7.7735,3.613 -18.5469,1.25 -3.5937,-0.805 -21.75780625,-6.043 -21.75780625,-25.895 0,-19.769 18.55470625,-33.554 18.55470625,-33.554 0,0 -3.5352,-0.383 -4.7461,-1.594 -1.4141,-1.481 -0.2344,-3.469 0.6758,-3.637 3.7578,-0.668 14.414,-1.847 22.0312,-14.269 6.9336,-11.27 6.8438,-18.965 6.8438,-27.114 H 220.652 c 0,8.149 -0.089,15.844 6.844,27.114 7.617,12.422 18.262,13.601 22.031,14.269 0.899,0.168 2.09,2.156 0.676,3.637 -1.211,1.211 -4.726,1.594 -4.726,1.594"
         style="fill:#285f94;fill-opacity:1;fill-rule:nonzero;stroke:none"
         id="path68"
         inkscape:connector-curvature="0" /></g></g></svg>