<?xml version="1.0" encoding="UTF-8"?><svg id="Ebene_2" xmlns="http://www.w3.org/2000/svg" viewBox="0 0 318.31 113.39"><defs><style>.cls-1{fill:#e84614;}</style></defs><g><path class="cls-1" d="M92.17,52.27v-15.73h-.01c-.14-4.18-2.77-6.88-6.94-7.55v15.73h.01c.14,4.18,2.77,6.88,6.94,7.55Z"/><path class="cls-1" d="M85.16,65.72h-.01v18.67c4.17-.67,6.8-3.37,6.94-7.54h.01v-18.67c-4.17,.67-6.8,3.37-6.94,7.54Z"/><path class="cls-1" d="M119.94,76.83h.01c.14,4.18,2.77,6.88,6.94,7.55v-18.65h-.01c-.14-4.18-2.77-6.88-6.94-7.55v18.65Z"/><path class="cls-1" d="M119.96,36.53h-.01v15.75c-.72,.08-1.44,.16-2.15,.16h-23.54c-.72,0-1.51-.08-2.15-.16h0c1.47,.18,2.62,1.43,2.62,2.95s-1.14,2.77-2.62,2.95h0c.64-.07,1.44-.15,2.15-.15h23.54c.72,0,1.43,.08,2.15,.16h0c-1.53-.12-2.73-1.39-2.73-2.95s1.21-2.83,2.73-2.94h0c4.17-.67,6.8-3.37,6.94-7.54h.01v-15.76c-4.17,.67-6.8,3.37-6.94,7.54Z"/><path class="cls-1" d="M215.94,34.39l-.95-3.02s-.01-.03-.02-.04h0c-.19-.62-.49-1.19-.9-1.66h-.01c-.11-.14-.24-.26-.37-.38-.03-.03-.06-.06-.09-.08-.67-.54-1.54-.88-2.62-.88-1.38,0-2.32,.48-2.99,1.27-.11,.12-.2,.25-.29,.39-.01,.02-.03,.04-.04,.06-.1,.16-.19,.32-.28,.5-.01,.03-.03,.05-.04,.08-.06,.12-.11,.24-.16,.36-.03,.08-.07,.15-.1,.24h0s-.04,.1-.06,.15l-.95,3.02c1.47-.33,3.11-.52,4.93-.52s3.46,.2,4.93,.52Z"/><path class="cls-1" d="M226.17,50.07s-1.47-5.05-2.24-8.4c-.95-4.12-4.72-6.54-7.98-7.29l5.64,23.58c2.88-1.28,5.45-4.76,4.59-7.9Z"/><path class="cls-1" d="M231.62,70l-.04-.04-.09-.37c-1.24-4.54-4.4-6.73-8.59-6.24h-.15c-1.57,0-2.87-1.23-2.87-2.8,0-1.15,.69-2.14,1.67-2.59h.03l-.02-.09c-.4,.1-1.34,.07-1.92,.07,0,0-13.55,.14-17.81,.02-.47-.01-1,.01-1.35-.07l5.62-23.51c-3.26,.74-7.03,3.17-7.98,7.29-.77,3.35-2.24,8.4-2.24,8.4-.86,3.12,1.67,6.57,4.52,7.87,.97,.45,1.64,1.43,1.64,2.57,0,1.57-1.27,2.84-2.84,2.84-.06,0-.12,0-.17,0h0c-3.98-.39-7.05,1.69-8.1,5.87l-.47,1.69h0l-3.69,13.41c4.2,.51,7.37-1.69,8.62-6.24l.09-.37,.04-.04,3.5-14.22c.52-.08,1.16-.14,1.74-.14h20.3c.58,0,1.28,.06,1.86,.14h0l3.66,13.32h0l.47,1.69c1.06,4.18,4.12,6.25,8.11,5.86l-3.53-14.31Z"/><path class="cls-1" d="M66.76,36.74c-.25-.57-3.91-8.38-13.41-8.38-9.59,0-13.3,8.2-13.39,8.41-.36,.18-11.62,5.81-11.62,20.03,0,14.55,11.44,19.77,11.63,19.85,.26,.57,4.02,8.38,13.38,8.38,9.33,0,13.02-7.53,13.39-8.34,5.94-2.76,8.76-7.49,8.76-13.52v-5.12h-17.92c-3.16,0-5.71,2.27-5.71,5.34h17.05v2.69c0,3.87-.68,7.51-2.18,10.55-14.82,5.05-26.4,.15-26.77,0-7.55-22.13-.18-39.41,0-39.85,.36-.16,11.96-5.07,26.8,0,1.35,2.87,.86,3.6,1.17,6.16,.54,4.52,4.3,6.34,7.83,6.34l1.07-.03s.18-3.17-1.18-5.69c-1.79-3.32-5.59-5.52-8.89-6.82Z"/><path class="cls-1" d="M173.45,36.74c-.25-.57-3.91-8.38-13.41-8.38-9.59,0-13.3,8.2-13.39,8.41-.36,.18-11.62,5.81-11.62,20.03,0,14.55,11.44,19.77,11.63,19.85,.26,.57,4.02,8.38,13.38,8.38,9.33,0,13.02-7.53,13.39-8.34,5.94-2.76,8.76-7.49,8.76-13.52v-5.12h-17.92c-3.16,0-5.71,2.27-5.71,5.34h17.05v2.69c0,3.87-.68,7.51-2.18,10.55-14.82,5.05-26.4,.15-26.77,0-7.55-22.13-.18-39.41,0-39.85,.36-.16,11.96-5.07,26.8,0,1.35,2.87,.86,3.6,1.17,6.16,.54,4.52,4.3,6.34,7.83,6.34l1.07-.03s.18-3.17-1.18-5.69c-1.79-3.32-5.59-5.52-8.89-6.82Z"/></g><g><g><polygon class="cls-1" points="245.19 45.97 246.44 45.97 246.44 49.09 247.6 49.09 247.6 45.97 248.89 45.97 248.89 44.97 245.19 44.97 245.19 45.97"/><polygon class="cls-1" points="254.6 46.52 253.27 46.52 253.27 44.97 252.11 44.97 252.11 49.09 253.27 49.09 253.27 47.54 254.6 47.54 254.6 49.09 255.77 49.09 255.77 44.97 254.6 44.97 254.6 46.52"/><polygon class="cls-1" points="260.41 48.13 260.41 47.45 262.06 47.45 262.06 46.55 260.41 46.55 260.41 45.93 262.29 45.93 262.29 44.97 259.3 44.97 259.3 49.09 262.38 49.09 262.38 48.13 260.41 48.13"/></g><g><polygon class="cls-1" points="247.7 60.61 246.37 60.61 246.37 59.05 245.21 59.05 245.21 63.17 246.37 63.17 246.37 61.63 247.7 61.63 247.7 63.17 248.87 63.17 248.87 59.05 247.7 59.05 247.7 60.61"/><path class="cls-1" d="M254.6,61.54c0,.13-.03,.24-.09,.34-.06,.1-.14,.18-.24,.24-.1,.06-.21,.09-.34,.09-.12,0-.22-.03-.32-.09-.1-.06-.17-.14-.23-.24-.05-.1-.08-.21-.08-.34v-2.48h-1.18v2.53c0,.31,.08,.59,.23,.84,.15,.24,.37,.43,.64,.57s.58,.21,.93,.21,.66-.07,.93-.21c.27-.14,.48-.33,.64-.57,.15-.24,.23-.52,.23-.84v-2.53h-1.14v2.48Z"/><path class="cls-1" d="M260.85,60.85l-1.1-1.8h-1.02v4.12h1.12v-1.1c0-.38,0-.71-.03-.98,0-.04,0-.09-.01-.13l.82,1.3h.39l.85-1.31c0,.06-.01,.12-.02,.18-.02,.28-.03,.6-.03,.95v1.1h1.12v-4.12h-.98l-1.12,1.8Z"/><path class="cls-1" d="M267.27,59.05l-1.64,4.12h1.13l.25-.68h1.41l.25,.68h1.16l-1.63-4.12h-.94Zm.05,2.61l.15-.41c.04-.11,.08-.21,.11-.3,.03-.09,.06-.18,.09-.26,.02-.06,.04-.12,.06-.18,.02,.06,.04,.12,.06,.18,.03,.09,.06,.17,.09,.26,.03,.09,.07,.19,.11,.29l.15,.41h-.81Z"/><path class="cls-1" d="M275.42,59.05v1.29c0,.13,0,.24,0,.35,0,.11,.01,.21,.02,.32,0,.11,.02,.22,.04,.33v.06l-1.71-2.35h-1.04v4.12h1.12v-1.22c0-.13,0-.24,0-.34,0-.1,0-.19-.01-.28,0-.09-.01-.18-.02-.27,0-.06-.01-.13-.02-.19l1.68,2.3h1.05v-4.12h-1.12Z"/></g><g><path class="cls-1" d="M249.1,53.96c0-.09-.01-.15-.01-.2h-1.99v.85h.92c0,.07-.02,.13-.05,.19-.04,.08-.09,.16-.16,.22-.07,.06-.15,.11-.24,.14-.09,.04-.2,.05-.31,.05-.16,0-.3-.03-.44-.09-.14-.06-.25-.14-.35-.24-.1-.1-.17-.22-.23-.36-.05-.14-.08-.29-.08-.45s.03-.32,.08-.46c.05-.14,.13-.26,.22-.36,.09-.1,.2-.18,.33-.24,.13-.06,.27-.09,.42-.09,.14,0,.26,.02,.37,.05,.11,.04,.22,.08,.31,.14,.1,.06,.19,.13,.27,.21l.69-.74c-.12-.13-.26-.24-.42-.34-.16-.1-.35-.18-.56-.24-.21-.06-.42-.09-.66-.09-.34,0-.64,.05-.92,.16-.28,.11-.52,.25-.72,.45-.2,.19-.36,.42-.47,.68s-.16,.55-.16,.86,.05,.59,.15,.85c.1,.26,.24,.49,.43,.68,.19,.19,.42,.34,.69,.45,.27,.11,.58,.16,.92,.16,.29,0,.55-.05,.79-.14,.24-.09,.45-.22,.62-.38,.18-.16,.31-.35,.41-.58,.1-.22,.15-.47,.15-.73,0-.04,0-.1,0-.18,0-.09,0-.17-.01-.26Z"/><polygon class="cls-1" points="253.52 54.53 255.16 54.53 255.16 53.62 253.52 53.62 253.52 53 255.39 53 255.39 52.04 252.4 52.04 252.4 56.16 255.48 56.16 255.48 55.2 253.52 55.2 253.52 54.53"/><path class="cls-1" d="M261.73,54.58c.22-.12,.39-.29,.51-.5,.12-.21,.19-.45,.19-.73,0-.25-.06-.48-.19-.68-.12-.2-.3-.35-.51-.46-.22-.11-.47-.17-.75-.17h-1.9v4.12h1.09v-1.4h.32l.79,1.4h1.31l-.91-1.56s.02-.01,.04-.02Zm-1.55-1.6h.6c.11,0,.21,.02,.29,.06,.08,.04,.13,.09,.17,.16,.04,.07,.06,.15,.06,.24s-.02,.18-.06,.26c-.04,.07-.09,.13-.16,.17-.07,.04-.15,.06-.26,.06h-.65v-.95Z"/><path class="cls-1" d="M267.75,53.84l-1.1-1.8h-1.02v4.12h1.12v-1.1c0-.38,0-.71-.03-.98,0-.04,0-.09-.01-.13l.82,1.3h.39l.85-1.31c0,.06-.01,.12-.02,.18-.02,.28-.03,.6-.03,.95v1.1h1.12v-4.12h-.98l-1.12,1.8Z"/><path class="cls-1" d="M274.17,52.04l-1.64,4.12h1.13l.25-.68h1.41l.25,.68h1.16l-1.63-4.12h-.94Zm.05,2.61l.15-.41c.04-.11,.08-.21,.11-.3,.03-.09,.06-.18,.09-.26,.02-.06,.04-.12,.06-.18,.02,.06,.04,.12,.06,.18,.03,.09,.06,.17,.09,.26,.03,.09,.07,.19,.11,.29l.15,.41h-.81Z"/><path class="cls-1" d="M282.32,52.04v1.29c0,.13,0,.24,0,.35,0,.11,.01,.21,.02,.32,0,.11,.02,.22,.04,.33v.06l-1.71-2.35h-1.04v4.12h1.12v-1.22c0-.13,0-.24,0-.34,0-.1,0-.19-.01-.28,0-.09-.01-.18-.02-.27,0-.06-.01-.13-.02-.19l1.68,2.3h1.05v-4.12h-1.12Z"/></g><g><path class="cls-1" d="M249.1,68.06c0-.09-.01-.15-.01-.2h-1.99v.85h.92c0,.07-.02,.13-.05,.19-.04,.08-.09,.16-.16,.22-.07,.06-.15,.11-.24,.14s-.2,.05-.31,.05c-.16,0-.3-.03-.44-.09-.14-.06-.25-.14-.35-.24-.1-.1-.17-.22-.23-.36-.05-.14-.08-.29-.08-.45s.03-.32,.08-.46c.05-.14,.13-.26,.22-.36,.09-.1,.2-.18,.33-.24,.13-.06,.27-.09,.42-.09,.14,0,.26,.02,.37,.05,.11,.04,.22,.08,.31,.14,.1,.06,.19,.13,.27,.21l.69-.74c-.12-.13-.26-.24-.42-.34-.16-.1-.35-.18-.56-.24-.21-.06-.42-.09-.66-.09-.34,0-.64,.05-.92,.16-.28,.11-.52,.25-.72,.45-.2,.19-.36,.42-.47,.68-.11,.26-.16,.55-.16,.86s.05,.59,.15,.85c.1,.26,.24,.49,.43,.68,.19,.19,.42,.34,.69,.45,.27,.11,.58,.16,.92,.16,.29,0,.55-.05,.79-.14,.24-.09,.45-.22,.62-.38,.18-.16,.31-.35,.41-.58,.1-.22,.15-.47,.15-.73,0-.04,0-.1,0-.18,0-.09,0-.17-.01-.26Z"/><polygon class="cls-1" points="253.52 68.63 255.16 68.63 255.16 67.72 253.52 67.72 253.52 67.11 255.39 67.11 255.39 66.15 252.4 66.15 252.4 70.26 255.48 70.26 255.48 69.31 253.52 69.31 253.52 68.63"/><path class="cls-1" d="M261.62,67.01v.42c0,.13,0,.24,0,.35,0,.11,.01,.21,.02,.32,0,.11,.02,.22,.04,.33v.06l-1.71-2.35h-1.04v4.12h1.12v-1.22c0-.13,0-.24,0-.34,0-.1,0-.19-.01-.28,0-.09-.01-.18-.02-.27,0-.06-.01-.13-.02-.19l1.68,2.3h1.05v-4.12h-1.12v.86Z"/><path class="cls-1" d="M269.31,66.65c-.2-.19-.43-.34-.69-.45-.26-.11-.56-.16-.87-.16s-.61,.05-.88,.16-.5,.25-.69,.45c-.2,.19-.35,.42-.46,.68s-.16,.54-.16,.86,.05,.59,.16,.86c.11,.26,.26,.49,.46,.68,.2,.19,.43,.34,.69,.45,.27,.11,.56,.16,.88,.16s.61-.05,.87-.16c.26-.11,.5-.25,.69-.45,.2-.19,.35-.42,.46-.68,.11-.26,.16-.55,.16-.86s-.05-.59-.16-.85c-.11-.26-.26-.48-.46-.68Zm-.65,1.96c-.05,.13-.12,.24-.21,.34-.09,.1-.2,.17-.32,.22-.12,.05-.25,.08-.39,.08s-.28-.03-.4-.08c-.12-.05-.23-.12-.32-.22-.09-.1-.16-.21-.21-.34-.05-.13-.07-.27-.07-.42s.02-.3,.07-.43c.05-.13,.12-.24,.21-.34,.09-.1,.2-.17,.32-.22,.12-.05,.25-.08,.4-.08s.27,.03,.39,.08c.12,.05,.23,.12,.32,.22,.09,.1,.16,.21,.21,.34,.05,.13,.07,.27,.07,.42s-.02,.29-.07,.42Z"/><path class="cls-1" d="M274.65,67.94l-1.1-1.8h-1.02v4.12h1.12v-1.1c0-.38,0-.71-.03-.98,0-.04,0-.09-.01-.13l.82,1.3h.39l.85-1.31c0,.06-.01,.12-.02,.18-.02,.28-.03,.6-.03,.95v1.1h1.12v-4.12h-.98l-1.12,1.8Z"/><polygon class="cls-1" points="281.11 68.63 282.75 68.63 282.75 67.72 281.11 67.72 281.11 67.11 282.99 67.11 282.99 66.15 280 66.15 280 70.26 283.08 70.26 283.08 69.31 281.11 69.31 281.11 68.63"/><rect class="cls-1" x="287.07" y="68.08" width="2.18" height=".98"/></g><g><path class="cls-1" d="M247.97,73.38c-.21-.12-.46-.18-.73-.18h-1.82v4.12h1.16v-1.28h.66c.27,0,.51-.06,.73-.19,.21-.13,.38-.3,.51-.51,.12-.22,.19-.47,.19-.74s-.06-.51-.19-.72c-.12-.21-.29-.37-.51-.49Zm-.56,1.46c-.04,.06-.09,.11-.15,.14-.06,.03-.14,.05-.22,.05h-.48v-.82h.48c.08,0,.15,.01,.22,.04,.06,.03,.11,.07,.15,.13,.04,.06,.06,.13,.06,.22s-.02,.17-.06,.23Z"/><polygon class="cls-1" points="254.6 74.75 253.27 74.75 253.27 73.2 252.11 73.2 252.11 77.32 253.27 77.32 253.27 75.77 254.6 75.77 254.6 77.32 255.77 77.32 255.77 73.2 254.6 73.2 254.6 74.75"/><polygon class="cls-1" points="260.41 75.68 262.06 75.68 262.06 74.78 260.41 74.78 260.41 74.16 262.29 74.16 262.29 73.2 259.3 73.2 259.3 77.32 262.38 77.32 262.38 76.36 260.41 76.36 260.41 75.68"/><path class="cls-1" d="M268.52,74.06v.42c0,.13,0,.24,0,.35,0,.11,.01,.21,.02,.32,0,.11,.02,.22,.04,.33v.06l-1.71-2.35h-1.04v4.12h1.12v-1.22c0-.13,0-.24,0-.34,0-.1,0-.19-.01-.28,0-.09-.01-.18-.02-.27,0-.06-.01-.13-.02-.19l1.68,2.3h1.05v-4.12h-1.12v.86Z"/><path class="cls-1" d="M276.21,73.7c-.2-.19-.43-.34-.69-.45-.26-.11-.56-.16-.87-.16s-.61,.05-.88,.16c-.27,.11-.5,.25-.69,.45-.2,.19-.35,.42-.46,.68s-.16,.54-.16,.86,.05,.59,.16,.86c.11,.26,.26,.49,.46,.68,.2,.19,.43,.34,.69,.45,.27,.11,.56,.16,.88,.16s.61-.05,.87-.16c.26-.11,.5-.25,.69-.45,.2-.19,.35-.42,.46-.68,.11-.26,.16-.55,.16-.86s-.05-.59-.16-.85c-.11-.26-.26-.48-.46-.68Zm-.65,1.96c-.05,.13-.12,.24-.21,.34-.09,.1-.2,.17-.32,.22-.12,.05-.25,.08-.39,.08s-.28-.03-.4-.08c-.12-.05-.23-.12-.32-.22-.09-.1-.16-.21-.21-.34-.05-.13-.07-.27-.07-.42s.02-.3,.07-.43c.05-.13,.12-.24,.21-.34,.09-.1,.2-.17,.32-.22,.12-.05,.25-.08,.4-.08s.27,.03,.39,.08c.12,.05,.23,.12,.32,.22,.09,.1,.16,.21,.21,.34,.05,.13,.07,.27,.07,.42s-.02,.29-.07,.42Z"/><path class="cls-1" d="M281.55,75l-1.1-1.8h-1.02v4.12h1.12v-1.1c0-.38,0-.71-.03-.98,0-.04,0-.09-.01-.13l.82,1.3h.39l.85-1.31c0,.06-.01,.12-.02,.18-.02,.28-.03,.6-.03,.95v1.1h1.12v-4.12h-.98l-1.12,1.8Z"/><polygon class="cls-1" points="288.01 76.36 288.01 75.68 289.65 75.68 289.65 74.78 288.01 74.78 288.01 74.16 289.89 74.16 289.89 73.2 286.9 73.2 286.9 77.32 289.98 77.32 289.98 76.36 288.01 76.36"/></g><g><path class="cls-1" d="M246.57,80.25l-1.64,4.12h1.13l.25-.68h1.41l.25,.68h1.16l-1.63-4.12h-.94Zm.05,2.61l.15-.41c.04-.11,.08-.21,.11-.3,.03-.09,.06-.18,.09-.26,.02-.06,.04-.12,.06-.18,.02,.06,.04,.12,.06,.18,.03,.09,.06,.17,.09,.26,.03,.09,.07,.19,.11,.29l.15,.41h-.81Z"/><path class="cls-1" d="M254.83,82.79c.22-.12,.39-.29,.51-.5,.12-.21,.19-.45,.19-.73,0-.25-.06-.48-.19-.68-.12-.2-.3-.35-.51-.46-.22-.11-.47-.17-.75-.17h-1.9v4.12h1.09v-1.4h.32l.79,1.4h1.31l-.91-1.56s.02-.01,.04-.02Zm-1.55-1.6h.6c.11,0,.21,.02,.29,.06,.08,.04,.13,.09,.17,.16,.04,.07,.06,.15,.06,.24s-.02,.18-.06,.26c-.04,.07-.09,.13-.16,.17-.07,.04-.15,.06-.26,.06h-.65v-.95Z"/><path class="cls-1" d="M260.44,81.5c.09-.09,.2-.17,.33-.21,.13-.05,.26-.07,.41-.07,.13,0,.24,.02,.34,.05,.1,.03,.2,.08,.28,.14,.08,.06,.16,.13,.22,.2l.7-.81c-.13-.14-.28-.26-.44-.35-.16-.09-.34-.17-.53-.21-.19-.05-.38-.07-.57-.07-.33,0-.63,.05-.9,.16-.27,.11-.51,.25-.71,.45-.2,.19-.36,.42-.47,.68-.11,.26-.17,.55-.17,.86s.05,.6,.16,.86,.26,.49,.46,.68c.2,.19,.43,.34,.7,.44,.27,.11,.57,.16,.89,.16,.2,0,.41-.02,.61-.07,.2-.05,.39-.12,.55-.2,.17-.09,.3-.18,.4-.29l-.55-.88c-.07,.07-.15,.14-.24,.19-.09,.06-.19,.11-.3,.14-.11,.04-.22,.05-.34,.05-.17,0-.33-.03-.47-.08-.14-.05-.26-.12-.36-.21-.1-.09-.18-.2-.23-.34-.05-.13-.08-.28-.08-.44s.03-.33,.08-.46c.05-.13,.13-.25,.22-.34Z"/><polygon class="cls-1" points="268.4 81.8 267.07 81.8 267.07 80.25 265.91 80.25 265.91 84.37 267.07 84.37 267.07 82.83 268.4 82.83 268.4 84.37 269.57 84.37 269.57 80.25 268.4 80.25 268.4 81.8"/><polygon class="cls-1" points="273.34 81.2 274.06 81.2 274.06 83.41 273.34 83.41 273.34 84.37 275.93 84.37 275.93 83.41 275.22 83.41 275.22 81.2 275.93 81.2 275.93 80.25 273.34 80.25 273.34 81.2"/><path class="cls-1" d="M281.8,82.17c-.06,.16-.11,.29-.14,.4-.04,.11-.07,.21-.1,.32h0c-.02-.05-.03-.11-.05-.16-.02-.08-.05-.16-.08-.25-.03-.09-.07-.19-.12-.31l-.71-1.92h-1.18l1.64,4.12h.93l1.65-4.12h-1.15l-.7,1.92Z"/><polygon class="cls-1" points="288.01 83.41 288.01 82.73 289.65 82.73 289.65 81.83 288.01 81.83 288.01 81.21 289.89 81.21 289.89 80.25 286.9 80.25 286.9 84.37 289.98 84.37 289.98 83.41 288.01 83.41"/></g></g></svg>
