<?xml version="1.0" encoding="UTF-8" standalone="no"?>
<!-- Created with Inkscape (http://www.inkscape.org/) -->

<svg
   xmlns:dc="http://purl.org/dc/elements/1.1/"
   xmlns:cc="http://creativecommons.org/ns#"
   xmlns:rdf="http://www.w3.org/1999/02/22-rdf-syntax-ns#"
   xmlns:svg="http://www.w3.org/2000/svg"
   xmlns="http://www.w3.org/2000/svg"
   xmlns:sodipodi="http://sodipodi.sourceforge.net/DTD/sodipodi-0.dtd"
   xmlns:inkscape="http://www.inkscape.org/namespaces/inkscape"
   version="1.1"
   id="svg2"
   xml:space="preserve"
   width="186.25398"
   height="100"
   viewBox="0 0 186.25398 100"
   sodipodi:docname="NBIS.svg"
   inkscape:version="0.92.3 (2405546, 2018-03-11)"
   inkscape:export-filename="NBIS.png"
   inkscape:export-xdpi="96"
   inkscape:export-ydpi="96"><metadata
     id="metadata8"><rdf:RDF><cc:Work
         rdf:about=""><dc:format>image/svg+xml</dc:format><dc:type
           rdf:resource="http://purl.org/dc/dcmitype/StillImage" /><dc:title></dc:title></cc:Work></rdf:RDF></metadata><defs
     id="defs6" /><sodipodi:namedview
     pagecolor="#ffffff"
     bordercolor="#666666"
     borderopacity="1"
     objecttolerance="10"
     gridtolerance="10"
     guidetolerance="10"
     inkscape:pageopacity="0"
     inkscape:pageshadow="2"
     inkscape:window-width="1920"
     inkscape:window-height="1012"
     id="namedview4"
     showgrid="false"
     inkscape:zoom="3.6272881"
     inkscape:cx="102.73167"
     inkscape:cy="69.029758"
     inkscape:window-x="1920"
     inkscape:window-y="312"
     inkscape:window-maximized="1"
     inkscape:current-layer="g10"
     fit-margin-top="0"
     fit-margin-left="0"
     fit-margin-right="0"
     fit-margin-bottom="0" /><g
     id="g10"
     inkscape:groupmode="layer"
     inkscape:label="NBIS"
     transform="matrix(1.3333333,0,0,-1.3333333,0,100.00133)"><g
       id="g12"
       transform="matrix(0.66495848,0,0,0.66495848,0,3.3504152e-4)"><path
         d="m 126.09,108.568 c -0.317,0.625 -0.953,1.015 -1.652,1.015 h -1.508 c -0.762,0 -1.254,-0.8 -0.914,-1.48 l 2.523,-5.031 2.301,-3.918 c 1.808,-3.075 4.262,-5.727 7.183,-7.774 L 149.02,80.888 c 2.039,-1.426 3.773,-3.242 5.101,-5.348 l 4.899,-7.867 0.714,6.336 -3.945,7.035 c -1.129,2.012 -2.715,3.731 -4.633,5.012 l -16.242,10.848 -1.574,1.433 c -2.543,2.321 -4.645,5.082 -6.199,8.156 l -1.051,2.075"
         style="fill:#8f3b1b;fill-opacity:1;fill-rule:nonzero;stroke:none"
         id="path14"
         inkscape:connector-curvature="0" /><path
         d="m 134.98,49.779 -5.418,4.941 -3.257,7.973 0.121,3.058 -1.582,-5.465 0.851,-3.339 c 0.969,-3.797 3.332,-7.094 6.617,-9.231 l 14.192,-9.234 c 1.394,-0.907 3.023,-1.391 4.687,-1.391 h 0.582 c 1.477,0 1.997,1.957 0.715,2.688 l -17.508,10"
         style="fill:#8f3b1b;fill-opacity:1;fill-rule:nonzero;stroke:none"
         id="path16"
         inkscape:connector-curvature="0" /><path
         d="m 158.695,98.868 0.063,-0.117 c 0.277,-0.519 0.336,-1.133 0.16,-1.695 l -0.613,-1.996 c -0.184,-0.598 -0.961,-0.738 -1.344,-0.246 l -8.113,10.429 c -0.864,1.114 -0.024,2.727 1.382,2.653 l 2.524,-0.129 c 0.773,-0.039 1.469,-0.481 1.832,-1.164 l 4.109,-7.735"
         style="fill:#8f3b1b;fill-opacity:1;fill-rule:nonzero;stroke:none"
         id="path18"
         inkscape:connector-curvature="0" /><path
         d="m 154.27,104.263 c 0.429,-0.809 -0.215,-1.766 -1.125,-1.672 l -11.879,1.227 c -0.078,0.007 -0.157,0.007 -0.235,0 l -13.312,-1.364 c -0.481,-0.05 -0.938,0.207 -1.145,0.645 l -1.402,2.934 c -0.406,0.847 0.328,1.792 1.25,1.613 l 14.273,-2.793 c 0.114,-0.02 0.231,-0.028 0.344,-0.012 l 11.137,1.234 c 0.644,0.071 1.269,-0.257 1.574,-0.832 l 0.52,-0.98"
         style="fill:#85be42;fill-opacity:1;fill-rule:nonzero;stroke:none"
         id="path20"
         inkscape:connector-curvature="0" /><path
         d="m 157.91,96.411 c 0.09,-0.148 0.145,-0.316 0.16,-0.488 0.067,-0.715 -0.539,-1.312 -1.254,-1.238 l -9.882,1.023 c -0.071,0.008 -0.141,0.008 -0.211,0.004 l -12.606,-1.039 c -0.316,-0.023 -0.633,0.082 -0.867,0.297 l -1.109,1.02 c -0.805,0.738 -0.215,2.078 0.871,1.98 l 13.449,-1.195 c 0.121,-0.012 0.238,-0.004 0.355,0.023 l 8.278,1.887 c 0.758,0.176 1.535,-0.156 1.937,-0.82 l 0.879,-1.454"
         style="fill:#85be42;fill-opacity:1;fill-rule:nonzero;stroke:none"
         id="path22"
         inkscape:connector-curvature="0" /><path
         d="m 142.605,89.736 6.805,-1.137 c 0.195,-0.035 0.395,-0.016 0.578,0.051 l 2.793,1.015 c 0.907,0.328 1.785,-0.543 1.469,-1.449 l -0.055,-0.156 c -0.168,-0.492 -0.648,-0.805 -1.168,-0.766 l -3.078,0.246 c -0.16,0.012 -0.32,-0.011 -0.469,-0.062 l -3.617,-1.281 c -0.418,-0.149 -0.883,-0.043 -1.195,0.273 l -2.461,2.5 c -0.309,0.313 -0.035,0.836 0.398,0.766"
         style="fill:#85be42;fill-opacity:1;fill-rule:nonzero;stroke:none"
         id="path24"
         inkscape:connector-curvature="0" /><path
         d="m 127.957,55.036 c 0.18,-0.546 0.738,-0.875 1.305,-0.765 l 7.066,1.367 c 0.094,0.016 0.188,0.023 0.281,0.02 l 5.243,-0.286 c 0.453,-0.023 0.875,0.223 1.082,0.625 l 0.183,0.364 c 0.442,0.875 -0.344,1.863 -1.293,1.625 l -5.136,-1.278 c -0.145,-0.035 -0.297,-0.043 -0.446,-0.019 l -8.156,1.215 c -0.516,0.074 -0.93,-0.414 -0.77,-0.911 l 0.641,-1.957"
         style="fill:#85be42;fill-opacity:1;fill-rule:nonzero;stroke:none"
         id="path26"
         inkscape:connector-curvature="0" /><path
         d="m 152,80.681 -1.773,-0.859 c -0.161,-0.079 -0.336,-0.118 -0.516,-0.114 l -7.25,0.098 c -0.535,0.008 -1.004,-0.356 -1.125,-0.879 l -0.391,-1.656 c -0.207,-0.879 0.641,-1.637 1.489,-1.34 l 7.57,2.656 c 0.191,0.067 0.394,0.082 0.594,0.043 l 1.847,-0.355 c 0.985,-0.192 1.715,0.886 1.18,1.73 l -0.164,0.262 c -0.309,0.488 -0.941,0.668 -1.461,0.414"
         style="fill:#85be42;fill-opacity:1;fill-rule:nonzero;stroke:none"
         id="path28"
         inkscape:connector-curvature="0" /><path
         d="m 158.035,72.45 c 0.281,-0.761 -0.301,-1.562 -1.109,-1.535 l -9.039,0.313 c -0.09,0.004 -0.176,-0.004 -0.262,-0.02 l -14.734,-2.894 c -0.993,-0.196 -1.727,0.902 -1.172,1.746 l 1.941,2.949 c 0.235,0.359 0.652,0.555 1.078,0.508 l 12.848,-1.414 c 0.113,-0.016 0.226,-0.012 0.336,0.012 l 8.609,1.625 c 0.555,0.105 1.106,-0.207 1.301,-0.735 l 0.203,-0.555"
         style="fill:#85be42;fill-opacity:1;fill-rule:nonzero;stroke:none"
         id="path30"
         inkscape:connector-curvature="0" /><path
         d="m 145.906,42.247 c 0.961,-0.668 0.414,-2.175 -0.75,-2.07 l -7.836,0.559 c -0.09,-0.004 -0.183,-0.004 -0.277,-0.008 l -8.547,-1.203 c -0.957,-0.137 -1.641,0.906 -1.133,1.726 l 1.004,1.633 c 0.262,0.426 0.778,0.633 1.262,0.504 l 7.281,-1.918 c 0.184,-0.051 0.379,-0.051 0.563,-0.008 l 7.047,1.196 c 0.414,0.07 0.835,-0.024 1.179,-0.266 l 0.207,-0.145"
         style="fill:#85be42;fill-opacity:1;fill-rule:nonzero;stroke:none"
         id="path32"
         inkscape:connector-curvature="0" /><path
         d="m 154.316,66.954 -2.195,-4.386 c -0.211,-0.426 -0.668,-0.676 -1.141,-0.625 l -11.941,1.269 c -0.101,0.012 -0.203,0.008 -0.301,-0.008 l -11.629,-1.859 c -0.949,-0.152 -1.652,0.867 -1.168,1.699 l 0.688,1.184 c 0.219,0.375 0.629,0.594 1.062,0.566 l 11.055,-0.707 c 0.094,-0.008 0.188,0 0.281,0.016 l 15.289,2.851"
         style="fill:#85be42;fill-opacity:1;fill-rule:nonzero;stroke:none"
         id="path34"
         inkscape:connector-curvature="0" /><path
         d="m 156.555,93.896 2.465,3.762 -0.137,-5.637 c -0.016,-0.602 -0.223,-1.18 -0.59,-1.656 l -2.559,-3.309 c -1.867,-2.422 -4.086,-4.551 -6.578,-6.32 L 133.961,69.935 c -0.949,-0.672 -1.816,-1.453 -2.59,-2.32 0,0 -5.238,-5.317 -6.527,-7.329 0.203,1.043 0.258,1.606 0.258,1.606 0.511,3.187 1.824,6.191 3.816,8.734 l 1.262,1.614 c 1,1.273 2.179,2.386 3.511,3.304 l 14.903,10.313 c 1.179,0.816 2.281,1.742 3.293,2.761 l 2.175,2.196 c 0.93,0.941 1.766,1.972 2.493,3.082"
         style="fill:#f47d20;fill-opacity:1;fill-rule:nonzero;stroke:none"
         id="path36"
         inkscape:connector-curvature="0" /><path
         d="m 146.586,61.447 -10.004,-6.922 c -3.234,-2.239 -6,-5.086 -8.144,-8.383 l -5.641,-8.672 c -0.254,-0.387 0.023,-0.898 0.484,-0.898 h 2.637 c 0.648,0 1.254,0.339 1.586,0.898 l 1.363,2.285 c 2.418,4.051 5.653,7.555 9.5,10.285 l 10.313,7.328 c 2.816,2.004 5.453,4.258 7.871,6.727 l 1.691,1.727 c 0.793,0.812 1.254,1.886 1.297,3.019 l 0.195,5.168 -0.015,-0.023 c -0.953,-2.211 -1.957,-3.223 -2.942,-4.305 l -0.422,-0.422 c -0.316,-0.316 -0.648,-0.613 -1.003,-0.891 l -8.766,-6.921"
         style="fill:#f47d20;fill-opacity:1;fill-rule:nonzero;stroke:none"
         id="path38"
         inkscape:connector-curvature="0" /><path
         d="M 0,112.646 V 35.372 H 16.629 V 80.021 L 38.402,35.372 h 19.743 v 77.274 H 41.516 V 68.103 l -21.911,44.543 z"
         style="fill:#f47d20;fill-opacity:1;fill-rule:nonzero;stroke:none"
         id="path40"
         inkscape:connector-curvature="0" /><path
         d="M 82.723,69.04 V 48.904 h 10.675 c 4.512,0 7.84,0.863 9.989,2.589 2.148,1.727 3.226,4.368 3.226,7.93 0,6.41 -4.582,9.617 -13.742,9.617 z m 0,13.004 h 9.511 c 4.442,0 7.657,0.688 9.649,2.063 1.988,1.371 2.984,3.644 2.984,6.816 0,2.961 -1.082,5.082 -3.25,6.371 -2.168,1.285 -5.594,1.93 -10.281,1.93 h -8.613 z m -16.387,30.602 h 24.051 c 10.957,0 18.91,-1.559 23.863,-4.676 4.949,-3.117 7.426,-8.078 7.426,-14.879 0,-4.617 -1.082,-8.402 -3.25,-11.363 -2.168,-2.961 -5.047,-4.742 -8.641,-5.34 v -0.527 c 4.895,-1.094 8.43,-3.137 10.594,-6.133 2.168,-2.996 3.254,-6.977 3.254,-11.945 0,-7.047 -2.547,-12.543 -7.641,-16.489 -5.09,-3.949 -12.004,-5.922 -20.746,-5.922 h -28.91 v 77.274"
         style="fill:#f47d20;fill-opacity:1;fill-rule:nonzero;stroke:none"
         id="path42"
         inkscape:connector-curvature="0" /><path
         d="m 210.074,57.314 c 0,-6.797 -2.512,-12.153 -7.531,-16.071 -5.023,-3.914 -12.008,-5.871 -20.957,-5.871 -8.246,0 -15.539,1.512 -21.883,4.536 V 54.74 c 5.215,-2.266 9.629,-3.864 13.238,-4.79 3.614,-0.929 6.918,-1.39 9.914,-1.39 3.594,0 6.348,0.668 8.27,2.008 1.922,1.34 2.883,3.332 2.883,5.976 0,1.477 -0.426,2.789 -1.27,3.938 -0.847,1.152 -2.09,2.258 -3.726,3.324 -1.641,1.062 -4.977,2.762 -10.016,5.098 -4.723,2.164 -8.266,4.242 -10.625,6.234 -2.359,1.988 -4.246,4.309 -5.656,6.953 -1.41,2.645 -2.113,5.734 -2.113,9.27 0,6.664 2.316,11.902 6.949,15.711 4.633,3.812 11.039,5.718 19.215,5.718 4.015,0 6.367,-0.547 9.988,-1.57 4.031,-1.137 6.094,-1.602 9.984,-3.098 l 0.207,-15.148 c -5.371,3.559 -9.058,4.801 -12.16,5.769 -2.805,0.875 -5.941,0.758 -8.547,0.758 -3.101,0 -5.48,-0.703 -7.136,-2.113 -1.657,-1.406 -2.485,-3.242 -2.485,-5.512 0,-1.406 0.332,-2.633 1.004,-3.679 0.668,-1.051 1.734,-2.063 3.199,-3.039 1.461,-0.981 4.922,-2.743 10.383,-5.282 7.223,-3.367 12.176,-6.738 14.856,-10.121 2.675,-3.383 4.015,-7.531 4.015,-12.441"
         style="fill:#f47d20;fill-opacity:1;fill-rule:nonzero;stroke:none"
         id="path44"
         inkscape:connector-curvature="0" /><path
         d="M 8.93,16.286 H 7.414 L 1.164,26.357 H 1.102 c 0.086,-1.18 0.125,-2.266 0.125,-3.25 V 16.286 H 0 v 12 H 1.5 L 7.734,18.259 H 7.797 C 7.785,18.404 7.762,18.88 7.727,19.681 7.691,20.482 7.676,21.056 7.688,21.4 v 6.886 H 8.93 v -12"
         style="fill:#85be42;fill-opacity:1;fill-rule:nonzero;stroke:none"
         id="path46"
         inkscape:connector-curvature="0" /><path
         d="m 17.422,21.361 -1.328,3.714 c -0.172,0.473 -0.348,1.047 -0.532,1.735 -0.113,-0.527 -0.277,-1.106 -0.492,-1.735 l -1.343,-3.714 z m 1.84,-5.075 -1.422,3.817 h -4.586 l -1.406,-3.817 h -1.344 l 4.519,12.047 h 1.118 l 4.496,-12.047 h -1.375"
         style="fill:#85be42;fill-opacity:1;fill-rule:nonzero;stroke:none"
         id="path48"
         inkscape:connector-curvature="0" /><path
         d="m 25.73,16.286 h -1.332 v 10.758 h -3.621 v 1.242 h 8.575 V 27.044 H 25.73 V 16.286"
         style="fill:#85be42;fill-opacity:1;fill-rule:nonzero;stroke:none"
         id="path50"
         inkscape:connector-curvature="0" /><path
         d="m 31.07,28.286 h 1.328 v -12 H 31.07 Z"
         style="fill:#85be42;fill-opacity:1;fill-rule:nonzero;stroke:none"
         id="path52"
         inkscape:connector-curvature="0" /><path
         d="m 36.348,22.302 c 0,-1.625 0.332,-2.855 0.992,-3.695 0.656,-0.84 1.617,-1.262 2.871,-1.262 1.269,0 2.227,0.422 2.871,1.258 0.648,0.836 0.969,2.07 0.969,3.699 0,1.613 -0.321,2.84 -0.965,3.672 -0.645,0.836 -1.598,1.254 -2.859,1.254 -1.266,0 -2.231,-0.422 -2.887,-1.262 -0.66,-0.84 -0.992,-2.058 -0.992,-3.664 z m 9.113,0 c 0,-1.918 -0.465,-3.43 -1.391,-4.527 -0.922,-1.102 -2.211,-1.649 -3.859,-1.649 -1.684,0 -2.981,0.539 -3.899,1.617 -0.914,1.082 -1.371,2.606 -1.371,4.579 0,1.949 0.457,3.464 1.375,4.539 0.918,1.074 2.223,1.613 3.911,1.613 1.644,0 2.925,-0.547 3.847,-1.641 0.926,-1.093 1.387,-2.605 1.387,-4.531"
         style="fill:#85be42;fill-opacity:1;fill-rule:nonzero;stroke:none"
         id="path54"
         inkscape:connector-curvature="0" /><path
         d="m 56.941,16.286 h -1.519 l -6.246,10.071 h -0.063 c 0.082,-1.18 0.125,-2.266 0.125,-3.25 v -6.821 h -1.23 v 12 h 1.504 l 6.23,-10.027 h 0.067 c -0.012,0.145 -0.036,0.621 -0.075,1.422 -0.035,0.801 -0.046,1.375 -0.039,1.719 v 6.886 h 1.246 v -12"
         style="fill:#85be42;fill-opacity:1;fill-rule:nonzero;stroke:none"
         id="path56"
         inkscape:connector-curvature="0" /><path
         d="m 65.434,21.361 -1.329,3.714 c -0.171,0.473 -0.351,1.047 -0.535,1.735 -0.113,-0.527 -0.277,-1.106 -0.492,-1.735 l -1.344,-3.714 z m 1.836,-5.075 -1.422,3.817 h -4.582 l -1.407,-3.817 h -1.347 l 4.519,12.047 h 1.121 L 68.648,16.286 H 67.27"
         style="fill:#85be42;fill-opacity:1;fill-rule:nonzero;stroke:none"
         id="path58"
         inkscape:connector-curvature="0" /><path
         d="m 70.219,16.286 v 12 h 1.332 V 17.552 h 5.043 v -1.266 h -6.375"
         style="fill:#85be42;fill-opacity:1;fill-rule:nonzero;stroke:none"
         id="path60"
         inkscape:connector-curvature="0" /><path
         d="m 83.43,21.966 v -4.488 h 2.382 c 0.926,0 1.618,0.187 2.086,0.562 0.465,0.375 0.7,0.961 0.7,1.762 0,0.742 -0.239,1.289 -0.715,1.641 -0.477,0.347 -1.203,0.523 -2.18,0.523 z m 0,1.184 h 2.187 c 0.942,0 1.613,0.152 2.028,0.461 0.41,0.308 0.617,0.832 0.617,1.566 0,0.672 -0.231,1.156 -0.688,1.453 -0.461,0.301 -1.187,0.449 -2.191,0.449 H 83.43 Z m -1.332,5.136 h 3.23 c 1.52,0 2.617,-0.238 3.293,-0.714 0.68,-0.477 1.016,-1.227 1.016,-2.258 0,-0.711 -0.188,-1.297 -0.567,-1.758 -0.375,-0.465 -0.929,-0.762 -1.652,-0.898 v -0.083 c 1.734,-0.312 2.605,-1.269 2.605,-2.875 0,-1.07 -0.347,-1.906 -1.039,-2.507 -0.691,-0.602 -1.656,-0.907 -2.894,-0.907 h -3.992 v 12"
         style="fill:#85be42;fill-opacity:1;fill-rule:nonzero;stroke:none"
         id="path62"
         inkscape:connector-curvature="0" /><path
         d="m 92.477,28.286 h 1.332 v -12 h -1.332 z"
         style="fill:#85be42;fill-opacity:1;fill-rule:nonzero;stroke:none"
         id="path64"
         inkscape:connector-curvature="0" /><path
         d="m 97.758,22.302 c 0,-1.625 0.328,-2.855 0.988,-3.695 0.66,-0.84 1.617,-1.262 2.875,-1.262 1.266,0 2.223,0.422 2.867,1.258 0.649,0.836 0.969,2.07 0.969,3.699 0,1.613 -0.32,2.84 -0.965,3.672 -0.644,0.836 -1.597,1.254 -2.855,1.254 -1.27,0 -2.231,-0.422 -2.891,-1.262 -0.66,-0.84 -0.988,-2.058 -0.988,-3.664 z m 9.109,0 c 0,-1.918 -0.465,-3.43 -1.387,-4.527 -0.925,-1.102 -2.214,-1.649 -3.859,-1.649 -1.687,0 -2.984,0.539 -3.902,1.617 -0.914,1.082 -1.371,2.606 -1.371,4.579 0,1.949 0.461,3.464 1.375,4.539 0.918,1.074 2.222,1.613 3.914,1.613 1.64,0 2.922,-0.547 3.847,-1.641 0.922,-1.093 1.383,-2.605 1.383,-4.531"
         style="fill:#85be42;fill-opacity:1;fill-rule:nonzero;stroke:none"
         id="path66"
         inkscape:connector-curvature="0" /><path
         d="m 109.418,28.286 h 1.328 v -12 h -1.328 z"
         style="fill:#85be42;fill-opacity:1;fill-rule:nonzero;stroke:none"
         id="path68"
         inkscape:connector-curvature="0" /><path
         d="m 122.812,16.286 h -1.515 l -6.25,10.071 h -0.063 c 0.082,-1.18 0.125,-2.266 0.125,-3.25 v -6.821 h -1.226 v 12 h 1.5 l 6.234,-10.027 h 0.063 c -0.012,0.145 -0.035,0.621 -0.071,1.422 -0.039,0.801 -0.05,1.375 -0.039,1.719 v 6.886 h 1.242 v -12"
         style="fill:#85be42;fill-opacity:1;fill-rule:nonzero;stroke:none"
         id="path70"
         inkscape:connector-curvature="0" /><path
         d="m 127.285,16.286 h -1.328 v 12 h 6.371 v -1.242 h -5.043 v -4.386 h 4.738 v -1.243 h -4.738 v -5.129"
         style="fill:#85be42;fill-opacity:1;fill-rule:nonzero;stroke:none"
         id="path72"
         inkscape:connector-curvature="0" /><path
         d="m 135.035,22.302 c 0,-1.625 0.332,-2.855 0.988,-3.695 0.661,-0.84 1.622,-1.262 2.875,-1.262 1.27,0 2.223,0.422 2.872,1.258 0.644,0.836 0.968,2.07 0.968,3.699 0,1.613 -0.32,2.84 -0.965,3.672 -0.644,0.836 -1.597,1.254 -2.859,1.254 -1.266,0 -2.23,-0.422 -2.891,-1.262 -0.656,-0.84 -0.988,-2.058 -0.988,-3.664 z m 9.113,0 c 0,-1.918 -0.464,-3.43 -1.39,-4.527 -0.926,-1.102 -2.211,-1.649 -3.86,-1.649 -1.683,0 -2.984,0.539 -3.898,1.617 -0.914,1.082 -1.371,2.606 -1.371,4.579 0,1.949 0.457,3.464 1.375,4.539 0.918,1.074 2.223,1.613 3.91,1.613 1.645,0 2.926,-0.547 3.848,-1.641 0.926,-1.093 1.386,-2.605 1.386,-4.531"
         style="fill:#85be42;fill-opacity:1;fill-rule:nonzero;stroke:none"
         id="path74"
         inkscape:connector-curvature="0" /><path
         d="m 148.027,22.474 h 1.821 c 0.937,0 1.625,0.195 2.066,0.59 0.438,0.39 0.656,0.976 0.656,1.758 0,0.793 -0.222,1.367 -0.668,1.714 -0.449,0.352 -1.164,0.528 -2.148,0.528 h -1.727 z m 0,-1.195 v -4.993 h -1.332 v 12 h 3.137 c 1.402,0 2.438,-0.281 3.109,-0.847 0.668,-0.563 1.004,-1.41 1.004,-2.543 0,-1.586 -0.765,-2.66 -2.3,-3.215 l 3.105,-5.395 h -1.57 l -2.77,4.993 h -2.383"
         style="fill:#85be42;fill-opacity:1;fill-rule:nonzero;stroke:none"
         id="path76"
         inkscape:connector-curvature="0" /><path
         d="m 161.656,16.286 -3.879,10.637 h -0.062 c 0.074,-0.844 0.109,-1.844 0.109,-3.004 v -7.633 h -1.226 v 12 h 2 l 3.621,-9.898 h 0.062 l 3.653,9.898 h 1.988 v -12 h -1.332 v 7.731 c 0,0.887 0.039,1.851 0.109,2.891 h -0.062 l -3.91,-10.622 h -1.071"
         style="fill:#85be42;fill-opacity:1;fill-rule:nonzero;stroke:none"
         id="path78"
         inkscape:connector-curvature="0" /><path
         d="m 176.406,21.361 -1.328,3.714 c -0.172,0.473 -0.351,1.047 -0.535,1.735 -0.113,-0.527 -0.277,-1.106 -0.492,-1.735 l -1.344,-3.714 z m 1.836,-5.075 -1.422,3.817 h -4.582 l -1.406,-3.817 h -1.348 l 4.52,12.047 h 1.121 l 4.496,-12.047 h -1.379"
         style="fill:#85be42;fill-opacity:1;fill-rule:nonzero;stroke:none"
         id="path80"
         inkscape:connector-curvature="0" /><path
         d="m 184.117,16.286 h -1.328 v 10.758 h -3.621 v 1.242 h 8.57 v -1.242 h -3.621 V 16.286"
         style="fill:#85be42;fill-opacity:1;fill-rule:nonzero;stroke:none"
         id="path82"
         inkscape:connector-curvature="0" /><path
         d="m 190.051,28.286 h 1.332 v -12 h -1.332 z"
         style="fill:#85be42;fill-opacity:1;fill-rule:nonzero;stroke:none"
         id="path84"
         inkscape:connector-curvature="0" /><path
         d="m 198.82,27.208 c -1.258,0 -2.25,-0.437 -2.976,-1.316 -0.727,-0.875 -1.09,-2.078 -1.09,-3.606 0,-1.57 0.351,-2.781 1.051,-3.64 0.703,-0.856 1.703,-1.281 3,-1.281 0.797,0 1.707,0.148 2.73,0.449 v -1.223 c -0.793,-0.312 -1.773,-0.465 -2.933,-0.465 -1.684,0 -2.985,0.535 -3.899,1.606 -0.914,1.074 -1.371,2.597 -1.371,4.57 0,1.238 0.219,2.32 0.66,3.25 0.438,0.93 1.074,1.648 1.906,2.152 0.832,0.5 1.813,0.754 2.938,0.754 1.199,0 2.246,-0.23 3.144,-0.691 l -0.562,-1.195 c -0.867,0.425 -1.734,0.636 -2.598,0.636"
         style="fill:#85be42;fill-opacity:1;fill-rule:nonzero;stroke:none"
         id="path86"
         inkscape:connector-curvature="0" /><path
         d="m 210.074,19.482 c 0,-1.059 -0.363,-1.879 -1.094,-2.473 -0.73,-0.59 -1.722,-0.883 -2.972,-0.883 -1.356,0 -2.399,0.18 -3.129,0.547 v 1.348 c 0.469,-0.211 0.98,-0.375 1.535,-0.492 0.551,-0.121 1.098,-0.184 1.641,-0.184 0.886,0 1.554,0.18 2.004,0.531 0.445,0.352 0.671,0.844 0.671,1.473 0,0.418 -0.082,0.758 -0.238,1.023 -0.16,0.266 -0.426,0.508 -0.801,0.735 -0.371,0.222 -0.937,0.476 -1.699,0.761 -1.062,0.399 -1.824,0.872 -2.281,1.418 -0.453,0.547 -0.684,1.262 -0.684,2.145 0,0.922 0.332,1.66 0.993,2.207 0.664,0.547 1.539,0.82 2.628,0.82 1.137,0 2.184,-0.218 3.137,-0.656 l -0.414,-1.215 c -0.945,0.414 -1.863,0.621 -2.754,0.621 -0.703,0 -1.254,-0.156 -1.648,-0.472 -0.399,-0.321 -0.594,-0.758 -0.594,-1.325 0,-0.414 0.07,-0.753 0.219,-1.019 0.144,-0.266 0.39,-0.508 0.738,-0.731 0.348,-0.222 0.875,-0.464 1.59,-0.734 1.199,-0.449 2.023,-0.93 2.476,-1.445 0.45,-0.512 0.676,-1.18 0.676,-2"
         style="fill:#85be42;fill-opacity:1;fill-rule:nonzero;stroke:none"
         id="path88"
         inkscape:connector-curvature="0" /><path
         d="M 0,12.161 H 1.406 V 0.165 H 0 Z"
         style="fill:#85be42;fill-opacity:1;fill-rule:nonzero;stroke:none"
         id="path90"
         inkscape:connector-curvature="0" /><path
         d="M 14.172,0.165 H 12.566 L 5.957,10.232 H 5.891 C 5.98,9.052 6.023,7.966 6.023,6.982 V 0.165 h -1.3 V 12.161 H 6.312 L 12.906,2.134 h 0.067 c -0.012,0.149 -0.035,0.621 -0.075,1.422 -0.039,0.801 -0.05,1.375 -0.043,1.719 v 6.886 h 1.317 V 0.165"
         style="fill:#85be42;fill-opacity:1;fill-rule:nonzero;stroke:none"
         id="path92"
         inkscape:connector-curvature="0" /><path
         d="M 18.906,0.165 H 17.5 v 11.996 h 6.742 v -1.238 h -5.336 v -4.39 h 5.012 V 5.294 H 18.906 V 0.165"
         style="fill:#85be42;fill-opacity:1;fill-rule:nonzero;stroke:none"
         id="path94"
         inkscape:connector-curvature="0" /><path
         d="m 27.652,6.353 h 1.926 c 0.992,0 1.723,0.195 2.184,0.586 0.465,0.39 0.695,0.976 0.695,1.758 0,0.793 -0.234,1.367 -0.707,1.714 -0.473,0.352 -1.227,0.528 -2.27,0.528 h -1.828 z m 0,-1.199 V 0.165 h -1.406 v 11.996 h 3.316 c 1.485,0 2.579,-0.281 3.29,-0.843 0.707,-0.567 1.062,-1.414 1.062,-2.547 0,-1.586 -0.812,-2.656 -2.434,-3.215 l 3.286,-5.391 h -1.664 l -2.926,4.989 h -2.524"
         style="fill:#85be42;fill-opacity:1;fill-rule:nonzero;stroke:none"
         id="path96"
         inkscape:connector-curvature="0" /><path
         d="M 42.379,5.236 40.973,8.954 C 40.789,9.423 40.602,10.001 40.41,10.685 40.289,10.158 40.113,9.583 39.887,8.954 L 38.465,5.236 Z M 44.32,0.165 42.816,3.978 H 37.969 L 36.48,0.165 h -1.425 l 4.781,12.047 H 41.02 L 45.777,0.165 H 44.32"
         style="fill:#85be42;fill-opacity:1;fill-rule:nonzero;stroke:none"
         id="path98"
         inkscape:connector-curvature="0" /><path
         d="m 54.266,3.357 c 0,-1.055 -0.387,-1.879 -1.157,-2.469 -0.773,-0.594 -1.82,-0.887 -3.144,-0.887 -1.434,0 -2.539,0.184 -3.309,0.551 v 1.344 c 0.496,-0.207 1.035,-0.371 1.621,-0.492 0.586,-0.121 1.164,-0.18 1.739,-0.18 0.937,0 1.64,0.176 2.117,0.527 0.472,0.356 0.711,0.844 0.711,1.473 0,0.418 -0.082,0.758 -0.25,1.023 -0.172,0.266 -0.453,0.508 -0.848,0.735 -0.394,0.222 -0.992,0.476 -1.797,0.761 -1.125,0.399 -1.929,0.872 -2.414,1.422 -0.48,0.547 -0.723,1.258 -0.723,2.141 0,0.926 0.352,1.66 1.051,2.207 0.699,0.547 1.629,0.82 2.782,0.82 1.199,0 2.308,-0.218 3.316,-0.656 l -0.438,-1.215 c -1,0.414 -1.968,0.625 -2.914,0.625 -0.742,0 -1.324,-0.16 -1.746,-0.476 -0.418,-0.317 -0.629,-0.758 -0.629,-1.321 0,-0.418 0.078,-0.757 0.235,-1.023 0.152,-0.266 0.414,-0.508 0.781,-0.731 0.367,-0.222 0.926,-0.464 1.684,-0.734 1.269,-0.449 2.14,-0.93 2.617,-1.441 0.476,-0.516 0.715,-1.184 0.715,-2.004"
         style="fill:#85be42;fill-opacity:1;fill-rule:nonzero;stroke:none"
         id="path100"
         inkscape:connector-curvature="0" /><path
         d="m 60.465,0.165 h -1.406 v 10.758 h -3.832 v 1.238 h 9.07 V 10.923 H 60.465 V 0.165"
         style="fill:#85be42;fill-opacity:1;fill-rule:nonzero;stroke:none"
         id="path102"
         inkscape:connector-curvature="0" /><path
         d="m 67.52,6.353 h 1.929 c 0.992,0 1.723,0.195 2.184,0.586 0.465,0.39 0.695,0.976 0.695,1.758 0,0.793 -0.234,1.367 -0.707,1.714 -0.473,0.352 -1.23,0.528 -2.269,0.528 H 67.52 Z m 0,-1.199 V 0.165 h -1.407 v 11.996 h 3.321 c 1.484,0 2.578,-0.281 3.289,-0.843 0.707,-0.567 1.062,-1.414 1.062,-2.547 0,-1.586 -0.812,-2.656 -2.433,-3.215 l 3.285,-5.391 h -1.664 l -2.93,4.989 H 67.52"
         style="fill:#85be42;fill-opacity:1;fill-rule:nonzero;stroke:none"
         id="path104"
         inkscape:connector-curvature="0" /><path
         d="M 85.723,12.161 V 4.4 c 0,-1.367 -0.414,-2.446 -1.25,-3.227 -0.832,-0.781 -1.977,-1.172 -3.434,-1.172 -1.453,0 -2.582,0.395 -3.379,1.18 -0.797,0.789 -1.195,1.871 -1.195,3.25 v 7.73 h 1.406 V 4.333 c 0,-1 0.277,-1.769 0.828,-2.304 0.551,-0.539 1.363,-0.805 2.434,-0.805 1.019,0 1.805,0.269 2.355,0.809 0.555,0.539 0.828,1.308 0.828,2.316 v 7.812 h 1.407"
         style="fill:#85be42;fill-opacity:1;fill-rule:nonzero;stroke:none"
         id="path106"
         inkscape:connector-curvature="0" /><path
         d="m 94.105,11.087 c -1.328,0 -2.378,-0.441 -3.148,-1.316 -0.769,-0.879 -1.156,-2.082 -1.156,-3.61 0,-1.57 0.371,-2.781 1.113,-3.636 0.742,-0.856 1.801,-1.285 3.176,-1.285 0.844,0 1.805,0.148 2.887,0.449 V 0.466 c -0.84,-0.308 -1.875,-0.465 -3.102,-0.465 -1.785,0 -3.156,0.535 -4.125,1.606 -0.969,1.074 -1.453,2.597 -1.453,4.574 0,1.234 0.234,2.316 0.699,3.246 0.465,0.93 1.137,1.648 2.02,2.152 0.879,0.504 1.914,0.754 3.105,0.754 1.27,0 2.379,-0.23 3.328,-0.687 l -0.597,-1.199 c -0.914,0.425 -1.832,0.64 -2.747,0.64"
         style="fill:#85be42;fill-opacity:1;fill-rule:nonzero;stroke:none"
         id="path108"
         inkscape:connector-curvature="0" /><path
         d="m 103.34,0.165 h -1.406 v 10.758 h -3.832 v 1.238 h 9.066 V 10.923 H 103.34 V 0.165"
         style="fill:#85be42;fill-opacity:1;fill-rule:nonzero;stroke:none"
         id="path110"
         inkscape:connector-curvature="0" /><path
         d="M 118.125,12.161 V 4.4 c 0,-1.367 -0.418,-2.446 -1.25,-3.227 -0.832,-0.781 -1.977,-1.172 -3.434,-1.172 -1.457,0 -2.582,0.395 -3.379,1.18 -0.8,0.789 -1.195,1.871 -1.195,3.25 v 7.73 h 1.406 V 4.333 c 0,-1 0.274,-1.769 0.825,-2.304 0.554,-0.539 1.363,-0.805 2.433,-0.805 1.02,0 1.805,0.269 2.36,0.809 0.55,0.539 0.828,1.308 0.828,2.316 v 7.812 h 1.406"
         style="fill:#85be42;fill-opacity:1;fill-rule:nonzero;stroke:none"
         id="path112"
         inkscape:connector-curvature="0" /><path
         d="m 122.73,6.353 h 1.93 c 0.992,0 1.719,0.195 2.184,0.586 0.465,0.39 0.695,0.976 0.695,1.758 0,0.793 -0.234,1.367 -0.707,1.714 -0.473,0.352 -1.23,0.528 -2.273,0.528 h -1.829 z m 0,-1.199 V 0.165 h -1.406 v 11.996 h 3.321 c 1.48,0 2.578,-0.281 3.289,-0.843 0.707,-0.567 1.062,-1.414 1.062,-2.547 0,-1.586 -0.812,-2.656 -2.434,-3.215 l 3.286,-5.391 h -1.664 l -2.93,4.989 h -2.524"
         style="fill:#85be42;fill-opacity:1;fill-rule:nonzero;stroke:none"
         id="path114"
         inkscape:connector-curvature="0" /><path
         d="m 138.543,0.165 h -6.742 v 11.996 h 6.742 v -1.238 h -5.336 V 7.056 h 5.012 V 5.825 h -5.012 V 1.411 h 5.336 V 0.165"
         style="fill:#85be42;fill-opacity:1;fill-rule:nonzero;stroke:none"
         id="path116"
         inkscape:connector-curvature="0" /><path
         d="m 152.449,3.357 c 0,-1.055 -0.383,-1.879 -1.156,-2.469 -0.773,-0.594 -1.82,-0.887 -3.145,-0.887 -1.433,0 -2.535,0.184 -3.308,0.551 v 1.344 c 0.496,-0.207 1.035,-0.371 1.621,-0.492 0.586,-0.121 1.164,-0.18 1.738,-0.18 0.938,0 1.645,0.176 2.117,0.527 0.473,0.356 0.711,0.844 0.711,1.473 0,0.418 -0.082,0.758 -0.25,1.023 -0.168,0.266 -0.449,0.508 -0.847,0.735 -0.391,0.222 -0.992,0.476 -1.797,0.761 -1.125,0.399 -1.93,0.872 -2.414,1.422 -0.481,0.547 -0.723,1.258 -0.723,2.141 0,0.926 0.352,1.66 1.051,2.207 0.699,0.547 1.629,0.82 2.781,0.82 1.203,0 2.309,-0.218 3.317,-0.656 l -0.438,-1.215 c -1,0.414 -1.969,0.625 -2.914,0.625 -0.742,0 -1.324,-0.16 -1.746,-0.476 -0.418,-0.317 -0.629,-0.758 -0.629,-1.321 0,-0.418 0.078,-0.757 0.234,-1.023 0.153,-0.266 0.414,-0.508 0.782,-0.731 0.367,-0.222 0.925,-0.464 1.683,-0.734 1.27,-0.449 2.141,-0.93 2.617,-1.441 0.477,-0.516 0.715,-1.184 0.715,-2.004"
         style="fill:#85be42;fill-opacity:1;fill-rule:nonzero;stroke:none"
         id="path118"
         inkscape:connector-curvature="0" /><path
         d="m 165.48,0.165 h -1.386 l -2.442,8.032 c -0.117,0.355 -0.246,0.804 -0.39,1.347 -0.145,0.539 -0.219,0.867 -0.223,0.977 -0.121,-0.723 -0.312,-1.512 -0.578,-2.371 l -2.367,-7.985 h -1.391 l -3.219,11.996 h 1.489 l 1.914,-7.41 c 0.265,-1.039 0.457,-1.98 0.578,-2.824 0.148,1.004 0.371,1.981 0.66,2.938 l 2.168,7.296 h 1.492 l 2.274,-7.359 c 0.265,-0.848 0.488,-1.809 0.671,-2.875 0.102,0.777 0.301,1.727 0.594,2.84 l 1.903,7.394 h 1.492 L 165.48,0.165"
         style="fill:#85be42;fill-opacity:1;fill-rule:nonzero;stroke:none"
         id="path120"
         inkscape:connector-curvature="0" /><path
         d="m 177.355,0.165 h -6.742 v 11.996 h 6.742 V 10.923 H 172.02 V 7.056 h 5.011 V 5.825 H 172.02 V 1.411 h 5.335 V 0.165"
         style="fill:#85be42;fill-opacity:1;fill-rule:nonzero;stroke:none"
         id="path122"
         inkscape:connector-curvature="0" /><path
         d="m 188.203,6.228 c 0,1.566 -0.398,2.742 -1.187,3.539 -0.793,0.793 -1.969,1.187 -3.532,1.187 h -2.043 V 1.372 h 1.715 c 1.676,0 2.934,0.407 3.778,1.227 0.847,0.816 1.269,2.027 1.269,3.629 z m 1.488,0.051 c 0,-1.981 -0.543,-3.496 -1.625,-4.543 -1.086,-1.047 -2.644,-1.571 -4.679,-1.571 h -3.352 v 11.996 h 3.707 c 1.879,0 3.344,-0.515 4.383,-1.55 1.043,-1.036 1.566,-2.477 1.566,-4.332"
         style="fill:#85be42;fill-opacity:1;fill-rule:nonzero;stroke:none"
         id="path124"
         inkscape:connector-curvature="0" /><path
         d="m 197.945,0.165 h -6.746 v 11.996 h 6.746 v -1.238 h -5.34 V 7.056 h 5.016 V 5.825 h -5.016 V 1.411 h 5.34 V 0.165"
         style="fill:#85be42;fill-opacity:1;fill-rule:nonzero;stroke:none"
         id="path126"
         inkscape:connector-curvature="0" /><path
         d="m 210.074,0.165 h -1.605 l -6.61,10.067 h -0.066 c 0.086,-1.18 0.133,-2.266 0.133,-3.25 V 0.165 h -1.301 v 11.996 h 1.59 l 6.594,-10.027 h 0.066 c -0.012,0.149 -0.035,0.621 -0.074,1.422 -0.039,0.801 -0.055,1.375 -0.043,1.719 v 6.886 h 1.316 V 0.165"
         style="fill:#85be42;fill-opacity:1;fill-rule:nonzero;stroke:none"
         id="path128"
         inkscape:connector-curvature="0" /></g></g></svg>