<?xml version="1.0" encoding="UTF-8" standalone="no"?>
<!-- Created with Inkscape (http://www.inkscape.org/) -->

<svg
   xmlns:dc="http://purl.org/dc/elements/1.1/"
   xmlns:cc="http://creativecommons.org/ns#"
   xmlns:rdf="http://www.w3.org/1999/02/22-rdf-syntax-ns#"
   xmlns:svg="http://www.w3.org/2000/svg"
   xmlns="http://www.w3.org/2000/svg"
   xmlns:xlink="http://www.w3.org/1999/xlink"
   xmlns:sodipodi="http://sodipodi.sourceforge.net/DTD/sodipodi-0.dtd"
   xmlns:inkscape="http://www.inkscape.org/namespaces/inkscape"
   width="500"
   height="200"
   viewBox="0 0 468.74998 187.5"
   id="svg4924"
   version="1.1"
   inkscape:version="0.92.5 (2060ec1f9f, 2020-04-08)"
   sodipodi:docname="nf-core-sarek_logo.svg"
   inkscape:export-filename="nf-core-sarek_logo.png"
   inkscape:export-xdpi="100"
   inkscape:export-ydpi="100">
  <defs
     id="defs4926">
    <clipPath
       clipPathUnits="userSpaceOnUse"
       id="clipPath202">
      <path
         d="M 0,600 H 1500 V 0 H 0 Z"
         id="path204"
         inkscape:connector-curvature="0" />
    </clipPath>
    <clipPath
       clipPathUnits="userSpaceOnUse"
       id="clipPath158">
      <path
         d="M 0,600 H 1500 V 0 H 0 Z"
         id="path160"
         inkscape:connector-curvature="0" />
    </clipPath>
    <clipPath
       clipPathUnits="userSpaceOnUse"
       id="clipPath86">
      <path
         d="M 0,600 H 1500 V 0 H 0 Z"
         id="path88"
         inkscape:connector-curvature="0" />
    </clipPath>
    <clipPath
       clipPathUnits="userSpaceOnUse"
       id="clipPath94">
      <path
         d="M 804.509,211 H 968.795 V 114.019 H 804.509 Z"
         id="path96"
         inkscape:connector-curvature="0" />
    </clipPath>
    <clipPath
       clipPathUnits="userSpaceOnUse"
       id="clipPath110">
      <path
         d="M 804.597,506 H 968.883 V 409.019 H 804.597 Z"
         id="path112"
         inkscape:connector-curvature="0" />
    </clipPath>
    <clipPath
       clipPathUnits="userSpaceOnUse"
       id="clipPath126">
      <path
         d="M 133.598,209 H 297.883 V 112.019 H 133.598 Z"
         id="path128"
         inkscape:connector-curvature="0" />
    </clipPath>
    <clipPath
       clipPathUnits="userSpaceOnUse"
       id="clipPath142">
      <path
         d="M 133.686,504 H 297.972 V 407.019 H 133.686 Z"
         id="path144"
         inkscape:connector-curvature="0" />
    </clipPath>
    <clipPath
       clipPathUnits="userSpaceOnUse"
       id="clipPath54">
      <path
         d="M 0,600 H 1500 V 0 H 0 Z"
         id="path56"
         inkscape:connector-curvature="0" />
    </clipPath>
    <clipPath
       clipPathUnits="userSpaceOnUse"
       id="clipPath30">
      <path
         d="M 0,600 H 1500 V 0 H 0 Z"
         id="path32"
         inkscape:connector-curvature="0" />
    </clipPath>
    <linearGradient
       id="a-3"
       x2="1"
       gradientTransform="matrix(47.34875,36.9925,-36.9925,47.34875,344.325,162.1875)"
       gradientUnits="userSpaceOnUse">
      <stop
         stop-color="#0c542a"
         offset="0"
         id="stop15-61" />
      <stop
         stop-color="#0c542a"
         offset=".21472"
         id="stop17-29" />
      <stop
         stop-color="#25af64"
         offset=".57995"
         id="stop19-3" />
      <stop
         stop-color="#25af64"
         offset=".84663"
         id="stop21-19" />
      <stop
         stop-color="#25af64"
         offset="1"
         id="stop23-4" />
    </linearGradient>
    <linearGradient
       id="f"
       x2="1"
       gradientTransform="matrix(14.322136,11.189559,-11.189559,14.322136,103.39117,-43.22521)"
       gradientUnits="userSpaceOnUse">
      <stop
         stop-color="#0c542a"
         offset="0"
         id="stop12" />
      <stop
         stop-color="#0c542a"
         offset=".21472"
         id="stop14" />
      <stop
         stop-color="#25af64"
         offset=".57995"
         id="stop16" />
      <stop
         stop-color="#25af64"
         offset=".84663"
         id="stop18" />
      <stop
         stop-color="#25af64"
         offset="1"
         id="stop20" />
    </linearGradient>
    <linearGradient
       inkscape:collect="always"
       xlink:href="#f"
       id="linearGradient297"
       gradientUnits="userSpaceOnUse"
       gradientTransform="matrix(14.322136,11.189559,-11.189559,14.322136,103.39117,-43.22521)"
       x2="1" />
  </defs>
  <sodipodi:namedview
     id="base"
     pagecolor="#ffffff"
     bordercolor="#666666"
     borderopacity="1.0"
     inkscape:pageopacity="0.0"
     inkscape:pageshadow="2"
     inkscape:zoom="2.8284271"
     inkscape:cx="228.15978"
     inkscape:cy="111.0976"
     inkscape:document-units="px"
     inkscape:current-layer="layer4"
     showgrid="false"
     fit-margin-top="10"
     fit-margin-left="40"
     fit-margin-right="40"
     fit-margin-bottom="10"
     units="px"
     width="200mm"
     inkscape:window-width="1920"
     inkscape:window-height="1015"
     inkscape:window-x="0"
     inkscape:window-y="0"
     inkscape:window-maximized="1" />
  <metadata
     id="metadata4929">
    <rdf:RDF>
      <cc:Work
         rdf:about="">
        <dc:format>image/svg+xml</dc:format>
        <dc:type
           rdf:resource="http://purl.org/dc/dcmitype/StillImage" />
        <dc:title></dc:title>
      </cc:Work>
    </rdf:RDF>
  </metadata>
  <g
     inkscape:groupmode="layer"
     id="layer4"
     inkscape:label="Sarek"
     style="display:inline"
     transform="translate(22.063401,94.110284)">
    <rect
       style="opacity:1;fill:#24af63;fill-opacity:1;stroke:none;stroke-width:18.23356438;stroke-linecap:round;stroke-linejoin:round;stroke-miterlimit:4;stroke-dasharray:none;stroke-dashoffset:0;stroke-opacity:1"
       id="rect71"
       width="468.75"
       height="75"
       x="-22.063406"
       y="-37.860287" />
    <path
       style="fill:none;stroke:#ffffff;stroke-width:5.62499988;stroke-linecap:butt;stroke-linejoin:miter;stroke-miterlimit:10;stroke-dasharray:none;stroke-opacity:1"
       d="m 389.61082,-83.601852 v 0.03846 c -0.86834,0.03775 -1.69768,0.150675 -2.60376,0.377197 -1.77442,0.41529 -3.36019,1.169727 -4.75709,2.340088 -1.6989,1.396883 -2.90659,3.172487 -3.73718,5.211181 -1.13252,2.718259 -1.58664,5.587236 -1.73767,8.494263 -0.0372,0.742657 -0.0366,1.448486 -0.0367,2.189941 -1.43749,-0.0083 -2.97135,0.136762 -4.26636,0.188599 -2.45398,0.113261 -4.87067,0.415406 -7.24915,1.094971 -2.18971,0.604057 -4.19159,1.585036 -5.8905,3.132934 -1.28362,1.170361 -2.30279,2.604935 -3.05786,4.152832 -1.01935,2.076448 -1.58535,4.303475 -1.96289,6.606445 -0.26428,1.661158 -0.37678,3.359594 -0.45227,5.020752 0,0.07551 -7.5e-4,0.15154 -0.0384,0.227051 v 0.07507 c 0.37753,-0.188768 0.71743,-0.4528 1.09497,-0.679322 0.94385,-0.604057 1.85062,-1.169007 2.90772,-1.508789 1.24587,-0.41529 2.4533,-0.341518 3.62366,0.300294 0.79283,0.415289 1.47305,1.019653 2.11487,1.699218 0.11326,0.11326 0.18894,0.11326 0.30211,0 0.64182,-0.566304 1.24602,-1.132915 1.88783,-1.699218 0.67957,-0.641812 1.35797,-1.319682 2.11303,-1.885987 0.0755,0.03776 0.1131,-6.83e-4 0.18861,-0.03846 0.79274,-0.264275 1.62303,-0.340047 2.4536,-0.113525 1.88769,0.490796 3.24831,1.699092 4.04114,3.473511 1.32138,2.982533 2.03779,6.078751 2.22657,9.325561 0.0755,1.0571 -0.15111,5.511165 -0.30213,6.681518 -0.22652,1.623406 -0.52884,3.209882 -0.90637,4.795533 -0.52855,2.151955 -1.13178,4.303645 -1.73584,6.417846 -0.41529,1.585651 -1.1713,2.983169 -2.2284,4.191284 -0.26428,0.302029 -0.66223,0.75449 -0.92651,1.056518 -0.83058,0.226523 -1.60289,0.300996 -2.43347,0.338745 -0.71731,0.03776 -1.43416,0.03889 -2.15149,-0.03662 -0.86824,-0.03775 -1.73655,-0.189128 -2.56714,-0.41565 -1.24586,-0.339774 -2.45372,-0.868809 -3.54858,-1.51062 -0.98159,-0.604057 -1.92515,-1.282892 -2.75574,-2.037964 -0.11326,-0.11326 -0.26472,-0.226182 -0.41564,-0.377198 -0.18878,1.321377 -0.30279,2.604415 -0.34059,3.925782 -0.0378,0.94384 2.7e-4,1.85035 0.11353,2.7941898 0.0755,0.6418115 0.15111,1.32108 0.30212,1.9628906 0.33979,1.4723906 0.79287,2.8699087 1.5857,4.1912839 0.79282,1.2836231 1.73621,2.4154471 2.94433,3.32153338 1.28363,0.98159339 2.68114,1.66069032 4.19129,2.15149032 1.01935,0.3019406 2.07654,0.5667562 3.17139,0.7177687 0.79283,0.1132594 1.54726,0.1518094 2.34008,0.038438 1.17037,-0.188775 2.15221,-0.7551187 2.98279,-1.5856968 l 1.47217,-1.47216472 c 0.67956,-0.64181158 1.47315,-0.98187938 2.41699,-0.90637218 0.71732,0.037753 1.39685,0.2637675 2.07642,0.56579625 1.24585,0.56630343 2.34116,1.32194252 3.58704,1.81274065 0.83057,0.302025 1.6988,0.4895906 2.56713,0.5273437 0.41529,0 0.82983,-0.074625 1.24512,-0.15015 1.51014,-0.2642719 3.02101,-0.56685003 4.49341,-1.01989123 1.5479,-0.4530338 3.05807,-1.01991843 4.45496,-1.81274347 1.05709,-0.5663043 2.03764,-1.2451386 2.90587,-2.0379636 0.75507,-0.6418116 1.35927,-1.3959834 1.88783,-2.2265625 0.41528,-0.6418115 0.75561,-1.3224768 1.01989,-2.0397956 0.45304,-1.1703609 0.67889,-2.4162402 0.7544,-3.6621102 0.0755,-1.019347 0.0382,-2.000062 -0.0751,-3.019409 -0.11326,-0.868333 -0.22689,-1.737258 -0.41565,-2.605591 -0.15102,-0.641811 -0.2628,-1.283767 -0.41382,-1.887816 -0.0378,-0.0755 -0.0381,-0.113944 -0.11353,-0.03846 l -1.36047,1.133423 c -0.79282,0.679565 -1.58458,1.322211 -2.41517,1.92627 -0.98159,0.717318 -1.96413,1.396152 -3.02123,2.037963 -0.90609,0.490798 -1.8119,0.981107 -2.75574,1.358643 -0.0378,-0.03775 -0.11353,-0.07437 -0.11353,-0.03662 -1.39687,-0.981593 -2.37794,-2.266019 -2.64221,-4.002685 -0.22652,-1.208115 -0.37702,-2.416675 -0.56579,-3.587036 -0.37753,-2.151955 -0.75563,-4.302513 -1.01991,-6.454468 -0.15092,-1.321375 -0.30286,-2.605537 -0.34057,-3.88916 -0.0378,-1.057101 0.002,-2.114286 0.0769,-3.171387 0.11318,-1.359129 0.33954,-2.71793 0.67932,-4.039305 0.41529,-1.547899 0.98119,-3.058772 1.66077,-4.493409 0.30201,-0.717318 0.67968,-1.434604 1.09497,-2.076416 0.52854,-0.792825 1.20781,-1.435048 1.96289,-2.001342 1.54789,-1.170363 3.24686,-1.92515 5.2478,-1.962891 2.52475,1.049996 4.63053,2.684368 6.56983,4.304809 0.34984,-3.540541 0.0159,-7.352727 -0.75641,-10.458981 -0.56631,-2.189707 -1.47239,-4.227778 -2.86927,-6.002196 -1.62341,-2.038695 -3.6995,-3.435345 -6.11572,-4.341432 -1.62341,-0.604056 -3.32254,-0.944655 -5.0592,-1.133422 -1.47239,-0.151012 -2.98258,-0.189036 -4.45497,-0.113526 -1.73666,0.07551 -3.47198,0.227147 -5.17089,0.529175 -0.0196,0.01958 -0.0494,0.01562 -0.0787,0.02014 -0.0359,-0.01999 -0.0761,-0.03829 -0.11169,-0.05859 -0.11303,0 -0.30006,0.01926 -0.45777,0.03113 -0.18496,-1.34484 -0.29621,-2.725706 -0.22156,-4.107056 0.0756,-1.585651 0.30206,-3.09679 0.79286,-4.606932 0.52854,-1.661159 1.28351,-3.20839 2.56713,-4.416506 1.5479,-1.510142 3.43573,-2.001672 5.54993,-1.624144 0.11327,0 0.1508,0.03872 0.1886,0.151978 0.0756,0.339782 0.22688,0.640963 0.41565,0.942993 0.60406,0.943839 1.50977,1.32236 2.45361,0.944823 0.94384,-0.339782 1.81277,-0.79348 2.6056,-1.322021 0.6418,-0.415289 1.24546,-0.868112 1.66076,-1.472168 0.60406,-0.868333 0.37848,-1.548036 -0.64087,-1.887817 -1.28362,-0.453043 -2.64356,-0.678884 -4.00268,-0.754395 v -0.03844 z m -67.43225,7.677612 -29.07898,67.6647936 h 8.39905 L 330.65635,-75.92424 Z m -236.01928,2.772216 c -4.701131,0 -8.426381,1.189922 -11.1731,3.566895 -2.693903,2.324151 -4.067053,6.497258 -4.119873,12.518921 v 0.950317 h -5.941772 v 9.032593 h 5.863037 v 31.058348 h 11.804812 v -31.058348 h 8.794556 v -9.032593 H 82.672953 V -58.4926 c 9e-6,-1.901578 0.42195,-3.248812 1.267097,-4.041138 0.845147,-0.792323 2.007319,-1.188354 3.486328,-1.188354 0.897966,0 1.636369,0.157313 2.217403,0.474244 0.581044,0.264101 1.162125,0.687883 1.743169,1.26892 v -10.380248 c -0.633863,-0.211287 -1.451841,-0.396345 -2.455444,-0.55481 -1.003612,-0.158465 -1.927144,-0.238038 -2.772216,-0.238038 z m 107.54333,15.688477 c -6.81399,0 -11.91055,1.691439 -15.29114,5.072022 -3.32776,3.380582 -4.99145,8.767694 -4.99145,16.162719 0,7.078095 1.6896,12.413379 5.07018,16.005249 3.38059,3.591869 8.45124,5.386962 15.21241,5.386962 6.6027,0 11.67335,-1.821007 15.2124,-5.465698 3.53906,-3.644691 5.30823,-8.954061 5.30823,-15.926513 0,-7.236561 -1.71552,-12.571844 -5.14893,-16.005249 -3.4334,-3.486226 -8.55771,-5.229492 -15.3717,-5.229492 z m 78.91479,0 c -6.39141,0 -11.32884,1.928325 -14.81506,5.784301 -3.4334,3.803156 -5.15076,9.190268 -5.15076,16.16272 0,4.225729 0.84573,7.897328 2.53601,11.013793 1.6903,3.116476 4.06647,5.520402 7.13013,7.210694 3.06366,1.637469 6.62976,2.455444 10.69703,2.455444 5.3877,0 10.24747,-0.897547 14.57885,-2.693482 v -10.142211 c -2.11287,0.897967 -4.12077,1.638201 -6.02234,2.219239 -1.84876,0.528215 -3.74933,0.792846 -5.70374,0.792846 -6.44423,0 -10.16956,-2.774044 -11.17309,-8.320312 h 26.46423 c 0.15847,-16.321878 -6.02253,-24.483032 -18.54126,-24.483032 z m -32.33825,0.159301 c -2.27133,0 -4.64752,0.316458 -7.13013,0.950318 -2.42979,0.581037 -4.64866,1.293526 -6.65588,2.138672 -1.95441,0.845146 -3.32756,1.611293 -4.11987,2.297973 v 35.892333 h 11.8048 v -30.979613 c 1.58464,-0.264108 3.61847,-0.395508 6.10108,-0.395508 3.96161,0 6.99846,0.236886 9.11133,0.712281 v -8.635255 c -1.6903,-1.320532 -4.72714,-1.981201 -9.11133,-1.981201 z m -200.026245,0.07873 c -3.327762,0 -7.104837,0.475602 -11.330566,1.426391 -4.225729,0.950817 -7.368058,1.97974 -9.428101,3.088994 v 36.685179 h 11.80481 v -30.108031 c 0.686681,-0.369752 1.637886,-0.686209 2.852783,-0.950317 1.214897,-0.264108 2.402988,-0.397339 3.565063,-0.397339 5.176518,0 7.765503,2.298447 7.765503,6.89392 v 24.561767 h 11.804809 v -26.938474 c 0,-5.070874 -1.424976,-8.71655 -4.277344,-10.935057 -2.852367,-2.218509 -7.105046,-3.327027 -12.756957,-3.327027 z m 114.312735,0 c -6.33858,0 -11.40924,1.848752 -15.2124,5.546264 -3.80315,3.644691 -5.70556,9.031802 -5.70556,16.16272 0,4.437014 0.92529,8.21409 2.77405,11.330565 1.90158,3.063654 4.43691,5.362094 7.6062,6.893921 3.16929,1.531827 6.70765,2.297974 10.61646,2.297974 2.53544,0 4.80795,-0.264638 6.81518,-0.792846 2.06004,-0.475395 4.04019,-1.215629 5.94177,-2.219239 v -10.061639 c -3.80315,2.112864 -7.26378,3.169556 -10.38025,3.169556 -4.12009,0 -7.10326,-0.977119 -8.95203,-2.931519 -1.79593,-1.954399 -2.69347,-4.965328 -2.69347,-9.032592 0,-3.644691 0.97711,-6.313249 2.93151,-8.00354 1.9544,-1.743114 4.67479,-2.614746 8.16101,-2.614746 1.6903,0 3.37991,0.264631 5.07019,0.792847 1.69029,0.475395 3.61862,1.187882 5.7843,2.138671 v -10.14038 c -1.74311,-0.792324 -3.75101,-1.401158 -6.02233,-1.823731 -2.27134,-0.475394 -4.51612,-0.71228 -6.73463,-0.71228 z m 117.57752,8.794555 c 2.2185,0 3.8822,0.607002 4.99146,1.821899 1.16208,1.214897 1.92822,3.248707 2.29797,6.101074 h -14.8169 c 0.79233,-5.282161 3.30175,-7.922973 7.52747,-7.922973 z m -78.44055,0.316773 c 2.95801,0 5.15096,0.925291 6.57715,2.774047 1.47901,1.795935 2.21742,4.832778 2.2174,9.111328 0,3.908799 -0.73839,6.893814 -2.2174,8.953857 -1.47901,2.007221 -3.67197,3.010254 -6.57715,3.010254 -2.95802,0 -5.14914,-0.977118 -6.57532,-2.931518 -1.37336,-1.9544 -2.05993,-4.965329 -2.05993,-9.032593 0,-4.27855 0.65882,-7.315393 1.97937,-9.111328 1.37335,-1.848756 3.59223,-2.774047 6.65588,-2.774047 z m -93.63647,3.724365 v 8.161015 h 24.16625 v -8.161011 z M 62.740097,-3.6103981 c -23.865962,0 -43.245849,19.3799251 -43.245849,43.2458431 0,23.865965 19.379886,43.245852 43.245849,43.245852 23.866287,0 43.245843,-19.379896 43.245843,-43.245852 0,-23.865909 -19.379556,-43.2458431 -43.245843,-43.2458431 z M 295.4232,6.0136214 V 61.168657 h 11.71143 l 0.0787,-16.53809 12.50244,16.53809 h 14.95605 L 317.10468,38.536817 333.6446,21.127152 H 319.32026 L 307.21333,35.92573 307.29213,6.0136214 Z M 268.6367,19.781324 c -6.38337,0 -11.31674,1.92585 -14.79858,5.776978 -3.42909,3.798375 -5.14344,9.180731 -5.14344,16.144406 0,4.220418 0.84419,7.886681 2.53235,10.999143 1.68816,3.112566 4.06299,5.511553 7.12281,7.199709 3.05979,1.635413 6.62022,2.453616 10.68237,2.453616 5.38102,0 10.23462,-0.896147 14.56054,-2.689819 V 49.535961 c -2.11019,0.89684 -4.11583,1.635271 -6.01501,2.215575 -1.84644,0.52755 -3.74447,0.791015 -5.69641,0.791015 -6.43614,0 -10.1561,-2.768287 -11.15845,-8.307487 h 26.43128 c 0.15827,-16.301344 -6.01448,-24.45374 -18.51746,-24.45374 z m -77.97912,0.1593 c -3.37634,0 -6.54156,0.343228 -9.49586,1.029056 -2.90153,0.685809 -5.06487,1.502184 -6.48925,2.451778 v 10.446169 c 1.42438,-1.160616 3.32426,-2.136535 5.69824,-2.92786 2.42673,-0.844078 4.77377,-1.265259 7.04223,-1.265259 5.90859,0 8.86231,2.293237 8.86231,6.882937 v 2.532347 c -1.4244,-0.791316 -3.11275,-1.424006 -5.0647,-1.898803 -1.95194,-0.527559 -3.90377,-0.791016 -5.85571,-0.791016 -4.74796,0 -8.33437,1.081669 -10.76111,3.244632 -2.37399,2.162962 -3.56138,5.170481 -3.5614,9.021609 1e-5,9.126637 5.85549,13.688962 17.56714,13.688962 6.27786,0 11.05169,-0.738431 14.32251,-2.215575 3.27077,-1.529897 4.93316,-3.9567 4.98596,-7.280278 l 0.0788,-18.912956 c 0,-5.275518 -1.79228,-8.915718 -5.37964,-10.920412 -3.58734,-2.057456 -7.57079,-3.085331 -11.94946,-3.085331 z m 45.68114,0 c -2.26845,0 -4.64329,0.31725 -7.1228,0.950315 -2.42666,0.580313 -4.64203,1.290928 -6.64673,2.135016 -1.95194,0.844069 -3.32488,1.610315 -4.1162,2.296144 v 35.846558 h 11.79198 V 30.227492 c 1.58265,-0.263784 3.61427,-0.395512 6.09375,-0.395512 3.95665,0 6.98831,0.237487 9.09852,0.712284 v -8.626097 c -1.68816,-1.318884 -4.71983,-1.977543 -9.09852,-1.977543 z m -86.8634,0.395512 c -2.58501,0 -5.09157,0.474966 -7.51831,1.42456 -2.37397,0.89684 -4.35186,2.347725 -5.93444,4.352418 -1.58266,2.004694 -2.37488,4.563216 -2.37488,7.675781 0,3.640097 0.97592,6.410138 2.92786,8.309325 2.00469,1.899188 4.53724,3.164541 7.59704,3.797606 2.90153,0.68581 5.01291,1.3185 6.33179,1.898803 1.31888,0.580313 1.97754,1.478288 1.97754,2.691647 0,1.0551 -0.42118,1.899281 -1.26526,2.532356 -0.79132,0.580303 -2.08449,0.869747 -3.87817,0.869747 -4.69521,0 -9.1796,-1.60859 -13.45276,-4.826662 v 10.3656 c 2.32122,0.949593 4.43076,1.662046 6.32995,2.136843 1.89918,0.52755 4.11631,0.791016 6.64856,0.791016 5.11725,0 9.33634,-1.027884 12.65991,-3.085331 3.32358,-2.11021 5.03793,-5.434978 5.14343,-9.971916 0,-2.901543 -0.60669,-5.142815 -1.82006,-6.725465 -1.21336,-1.635403 -2.58448,-2.769038 -4.11439,-3.402103 -1.5299,-0.68581 -3.61346,-1.372285 -6.25121,-2.058103 -2.32123,-0.633057 -4.0096,-1.239769 -5.0647,-1.820072 -1.0551,-0.633056 -1.58203,-1.608975 -1.58203,-2.92785 0,-1.107872 0.47496,-1.952053 1.42456,-2.532356 0.94959,-0.633056 2.40047,-0.950316 4.35241,-0.950316 1.95194,0 3.66629,0.31726 5.14344,0.950316 1.47714,0.633075 3.5607,1.688756 6.25122,3.1659 v -9.25965 c -1.89919,-1.160616 -3.85101,-2.004797 -5.85572,-2.532347 -1.95193,-0.580303 -4.51047,-0.869747 -7.67578,-0.869747 z m 118.68713,8.466797 c 2.21571,0 3.87627,0.606703 4.98414,1.820062 1.1606,1.213378 1.92502,3.244978 2.29431,6.09375 h -14.79676 c 0.79134,-5.275509 3.2979,-7.913812 7.51831,-7.913812 z m -77.97912,15.351562 c 2.21572,0 4.24549,0.31725 6.09192,0.950316 v 6.172481 c 0,1.107872 -0.52693,1.846303 -1.58203,2.215584 -1.0551,0.369197 -2.95497,0.552975 -5.69824,0.552975 -1.68816,0 -3.16503,-0.473137 -4.43115,-1.422731 -1.21336,-0.949594 -1.82008,-2.190806 -1.82008,-3.720703 0,-1.635403 0.58073,-2.820994 1.74134,-3.559566 1.21337,-0.791334 3.11325,-1.188356 5.69824,-1.188356 z"
       id="path73"
       inkscape:connector-curvature="0"
       sodipodi:nodetypes="cccccccccccccccccccccccccccccccccccccccccccccccccccccccccccccccccccccccccccccccccccccccccccccccccccccccccsccccccccccccccsccccsscssssscsscsscscccsccssccccccsccsscccccsssccsssscscsscccscscsccccsscccsscccscscsccsccsscssccccccccccccsccccscccsccssccccssccsccsccccssccccccsccssccccccscscccsccccccscsccccssccssscssscscsscs" />
    <g
       id="g359"
       transform="translate(135.30794,-1.1334389)">
      <path
         inkscape:connector-curvature="0"
         id="path685"
         style="fill:#ffffff;stroke:none;stroke-width:3.01842356;stroke-linecap:butt;stroke-linejoin:miter;stroke-miterlimit:10;stroke-dasharray:none;stroke-opacity:1"
         d="m -30.82629,40.737998 c 0,-23.050353 -18.686065,-41.73674603 -41.736759,-41.73674603 -23.050353,0 -41.736741,18.68639303 -41.736741,41.73674603 0,23.050354 18.686388,41.736747 41.736741,41.736747 23.050694,0 41.736759,-18.686393 41.736759,-41.736747 z" />
      <path
         inkscape:connector-curvature="0"
         id="path687"
         d="m -83.136627,21.415287 -2.78734,1.206425 -3.522179,22.183264 -7.746821,2.11302 v 27.466543 l -0.02389,0.0338 c 6.907826,5.064918 15.431897,8.056536 24.653847,8.056536 18.436869,0 34.081475,-11.954488 39.605527,-28.535017 l 0.06895,0.02253 -0.06468,-0.03797 c 1.37921,-4.14496 2.127103,-8.578154 2.127103,-13.186356 0,-2.530444 -0.22471,-5.007165 -0.656014,-7.413187 z"
         style="fill:#b3deb2;fill-opacity:1;fill-rule:nonzero;stroke:none;stroke-width:0.72076589" />
      <path
         d="m -32.888843,53.962743 -53.035716,-31.340953 -3.52116,22.18373 -7.746617,2.112894 v 27.465649 l -0.02418,0.03448 c 6.907826,5.064908 15.431519,8.056167 24.653478,8.056167 18.436869,0 34.081348,-11.954293 39.605401,-28.534833"
         style="fill:#24af63;fill-opacity:1;fill-rule:nonzero;stroke:none;stroke-width:0.72076589"
         id="path689"
         inkscape:connector-curvature="0" />
      <path
         d="m -30.83494,40.768764 c 0,-23.048023 -18.684145,-41.73250253 -41.732498,-41.73250253 -23.048014,0 -41.732502,18.68447953 -41.732502,41.73250253 0,23.048013 18.684488,41.732503 41.732502,41.732503 23.048353,0 41.732498,-18.68449 41.732498,-41.732503 z"
         style="fill:none;stroke:#000000;stroke-width:3.02690959;stroke-linecap:butt;stroke-linejoin:miter;stroke-miterlimit:10;stroke-dasharray:none;stroke-opacity:1"
         id="path691"
         inkscape:connector-curvature="0" />
    </g>
    <g
       id="g980">
      <g
         transform="translate(3.290425,-1.1334389)"
         id="g603">
        <path
           inkscape:connector-curvature="0"
           id="path695"
           style="font-weight:bold;font-size:medium;line-height:0%;font-family:'Maven Pro';fill:#000000;fill-opacity:1;stroke:none;stroke-width:0.30792567"
           d="m 143.57338,63.489019 q -3.79837,0 -6.64714,-0.791325 -2.84878,-0.712195 -6.33062,-2.136583 V 50.194718 q 6.40975,4.827099 13.45256,4.827099 2.69052,0 3.8775,-0.870456 1.26612,-0.949603 1.26612,-2.532254 0,-1.820044 -1.97832,-2.690515 -1.97832,-0.870457 -6.33062,-1.899176 -4.58969,-0.949602 -7.59673,-3.79838 -2.92791,-2.848778 -2.92791,-8.308925 0,-4.668837 2.37398,-7.675876 2.37398,-3.00704 5.93495,-4.352298 3.6401,-1.424389 7.51761,-1.424389 4.74796,0 7.67586,0.870457 3.00706,0.791325 5.85584,2.532253 v 9.258528 q -4.03578,-2.215715 -6.25149,-3.165317 -2.21571,-0.949588 -5.14362,-0.949588 -2.92791,0 -4.3523,0.949588 -1.42439,0.870456 -1.42439,2.532253 0,1.978322 1.58265,2.927909 1.58265,0.870457 5.06449,1.820044 3.95663,1.028734 6.25149,2.057452 2.29485,0.949603 4.11489,3.40271 1.82006,2.373977 1.82006,6.726289 -0.15826,6.805406 -5.14362,9.970722 -4.98536,3.086171 -12.66124,3.086171 z" />
        <path
           inkscape:connector-curvature="0"
           id="path697"
           style="font-weight:bold;font-size:medium;line-height:0%;font-family:'Maven Pro';fill:#000000;fill-opacity:1;stroke:none;stroke-width:0.30792567"
           d="m 187.36716,21.073878 q 6.56801,0 11.94903,3.086186 5.38103,3.00704 5.38103,10.920309 l -0.0792,18.912726 q -0.0792,4.985361 -4.98536,7.280206 -4.90623,2.215714 -14.32302,2.215714 -17.56747,0 -17.56747,-13.689956 0,-5.776686 3.56098,-9.021134 3.6401,-3.244448 10.76204,-3.244448 2.92791,0 5.85582,0.79134 2.92792,0.712195 5.06451,1.899175 v -2.532238 q 0,-6.884551 -8.86288,-6.884551 -3.40271,0 -7.04281,1.266127 -3.56097,1.18698 -5.69755,2.927908 V 24.555719 q 2.13658,-1.424389 6.48888,-2.453107 4.43144,-1.028734 9.49593,-1.028734 z m -1.6618,34.106201 q 4.11491,0 5.69756,-0.553932 1.58266,-0.553917 1.58266,-2.215714 v -6.172342 q -2.76964,-0.949603 -6.09322,-0.949603 -3.8775,0 -5.69756,1.186996 -1.74091,1.107865 -1.74091,3.560972 0,2.294846 1.82004,3.719234 1.89919,1.424389 4.43143,1.424389 z" />
        <path
           inkscape:connector-curvature="0"
           id="path699"
           style="font-weight:bold;font-size:medium;line-height:0%;font-family:'Maven Pro';fill:#000000;fill-opacity:1;stroke:none;stroke-width:0.30792567"
           d="m 215.16375,26.454909 q 1.18699,-1.028733 4.1149,-2.294845 3.00704,-1.266127 6.64715,-2.136583 3.71925,-0.949603 7.12194,-0.949603 6.56803,0 9.10027,1.978321 v 8.625464 q -3.16531,-0.712194 -9.10027,-0.712194 -3.71923,0 -6.09321,0.39567 v 30.940885 h -11.79078 z" />
        <path
           inkscape:connector-curvature="0"
           id="path701"
           style="font-weight:bold;font-size:medium;line-height:0%;font-family:'Maven Pro';fill:#000000;fill-opacity:1;stroke:none;stroke-width:0.30792567"
           d="m 265.34625,20.915616 q 18.75447,0 18.51706,24.452003 h -26.43033 q 1.50352,8.30894 11.15772,8.30894 2.92791,0 5.69756,-0.791325 2.84878,-0.870457 6.01408,-2.215714 v 10.128984 q -6.48888,2.690515 -14.56042,2.690515 -6.09322,0 -10.68291,-2.453122 -4.58971,-2.532239 -7.12195,-7.201075 -2.53225,-4.668822 -2.53225,-10.999441 0,-10.445523 5.14362,-16.143079 5.22277,-5.776686 14.79782,-5.776686 z m -0.47478,9.021134 q -6.33062,0 -7.51762,7.91327 h 14.79782 q -0.55393,-4.273167 -2.29484,-6.093226 -1.6618,-1.820044 -4.98536,-1.820044 z" />
        <path
           inkscape:connector-curvature="0"
           id="path703"
           style="font-weight:bold;font-size:medium;line-height:0%;font-family:'Maven Pro';fill:#000000;fill-opacity:1;stroke:none;stroke-width:0.30792567"
           d="M 316.42643,62.302024 303.92346,45.76329 303.84428,62.302024 H 292.13265 V 7.1465287 h 11.86989 l -0.0792,29.9121663 12.1073,-14.797821 h 14.32302 l -16.53873,17.40919 17.56747,22.63196 z" />
      </g>
      <g
         transform="translate(4.057945,-1.1334389)"
         id="g821">
        <g
           id="g551">
          <path
             style="fill:#24af63;stroke-width:0.37753597"
             inkscape:connector-curvature="0"
             id="path24"
             d="m 401.03289,-44.148517 v 1.35913 c -0.0378,0 -0.0378,0 -0.0755,0.03775 l -0.67956,-0.566304 c -1.51015,-1.283623 -3.13355,-2.416231 -4.94572,-3.322317 -0.30203,-0.151014 -0.60406,-0.339782 -0.94384,-0.415289 -0.0378,-0.03775 -0.0755,-0.07551 -0.11326,-0.07551 -0.67957,-0.264275 -1.35913,-0.490796 -2.07645,-0.679564 -1.5479,-0.339783 -3.0958,-0.377536 -4.64369,-0.07551 -2.00094,0.41529 -3.77536,1.283623 -5.47428,2.416231 -1.66115,1.132607 -3.1713,2.453983 -4.56818,3.850866 -0.26428,0.264276 -0.26428,0.264276 -0.41529,-0.07551 -0.75507,-1.547897 -1.58565,-3.058041 -2.605,-4.454924 -0.79282,-1.057101 -1.66116,-2.038694 -2.79376,-2.718259 -1.13261,-0.717318 -2.37848,-0.981594 -3.69986,-0.641811 -1.6234,0.377536 -2.94478,1.359129 -4.19065,2.41623 -0.75507,0.566304 -1.43463,1.245869 -2.1142,1.88768 -0.64181,0.566304 -1.24587,1.132608 -1.88768,1.698912 -0.11326,0.11326 -0.18877,0.11326 -0.30203,0 -0.64181,-0.679565 -1.32137,-1.283623 -2.1142,-1.698912 -1.17036,-0.641811 -2.37847,-0.717319 -3.62434,-0.302029 -1.0571,0.339782 -1.96319,0.906086 -2.90703,1.510144 -0.37754,0.226521 -0.71732,0.490797 -1.09485,0.679565 v -0.07551 c 0.0378,-0.07551 0.0378,-0.151014 0.0378,-0.226521 0.0755,-1.661158 0.18877,-3.36007 0.45304,-5.021228 0.37754,-2.30297 0.94384,-4.530432 1.96319,-6.60688 0.75507,-1.547897 1.77442,-2.982534 3.05804,-4.152895 1.69891,-1.547898 3.69985,-2.529491 5.88956,-3.133549 2.37848,-0.679565 4.79471,-0.981593 7.24869,-1.094854 0.9816,-0.03775 1.92544,-0.07551 2.90703,-0.113261 0.4908,0.188768 0.98159,0.302029 1.47239,0.453043 0.71732,0.226522 1.43464,0.453043 2.15195,0.641811 0.37754,0.151015 0.71732,0.264276 1.09486,0.41529 1.39688,0.490797 2.75601,1.132608 3.92637,2.076448 0.30203,0.226521 0.60406,0.490796 0.90609,0.755072 -0.0755,-0.226522 -0.15102,-0.41529 -0.22652,-0.641811 -0.52855,-1.396884 -1.32138,-2.529491 -2.605,-3.322317 -0.52855,-0.339782 -1.09485,-0.566304 -1.66116,-0.868333 0.0378,0 0.11326,0 0.15102,-0.03775 1.69891,-0.302029 3.43557,-0.453043 5.17224,-0.528551 1.47239,-0.07551 2.98253,-0.03775 4.45492,0.113261 1.73667,0.188768 3.43558,0.528551 5.05898,1.132608 2.41623,0.906086 4.49268,2.302969 6.11609,4.341664 1.39688,1.774419 2.30297,3.813113 2.86927,6.002821 0.5663,2.151955 0.79283,4.379418 0.86833,6.60688 -0.0378,0.792825 -0.0378,1.623404 -0.0378,2.453983 z"
             class="st0" />
          <path
             style="fill:#ecdc86;stroke-width:0.37753597"
             inkscape:connector-curvature="0"
             id="path26"
             d="m 401.03289,-46.640254 h 0.0378 v 2.491737 h -0.0378 z"
             class="st4" />
          <path
             style="fill:#a0918f;stroke-width:0.37753597"
             inkscape:connector-curvature="0"
             id="path28"
             d="m 387.25283,-82.468416 v 0.03775 h -1.69891 v -0.03775 z"
             class="st5" />
          <path
             style="fill:#24af63;stroke-width:0.37753597"
             inkscape:connector-curvature="0"
             id="path30"
             d="m 388.34768,-11.340642 c 0.94384,-0.377536 1.84993,-0.868332 2.75601,-1.359129 1.0571,-0.641811 2.0387,-1.321376 3.02029,-2.038694 0.83058,-0.604058 1.62341,-1.245869 2.41623,-1.925434 l 1.35913,-1.132608 c 0.0755,-0.07551 0.0755,-0.03775 0.11326,0.03775 0.15102,0.604058 0.26428,1.245869 0.41529,1.88768 0.18877,0.868333 0.30203,1.736665 0.41529,2.604998 0.11326,1.019347 0.15102,2.000941 0.0755,3.020288 -0.0755,1.2458683 -0.30203,2.491737 -0.75507,3.6620985 -0.26428,0.7173183 -0.60406,1.396883 -1.01935,2.0386942 -0.52855,0.8305791 -1.13261,1.585651 -1.88768,2.2274621 -0.86833,0.7928255 -1.84993,1.47239026 -2.90703,2.0386942 -1.39688,0.79282552 -2.90702,1.3591295 -4.45492,1.8121726 -1.47239,0.4530432 -2.98254,0.7550719 -4.49268,1.0193471 -0.41529,0.075507 -0.83058,0.1510144 -1.24587,0.1510144 -0.86833,-0.037754 -1.73666,-0.2265216 -2.56724,-0.5285504 -1.24587,-0.4907967 -2.34073,-1.24586863 -3.58659,-1.81217257 -0.67957,-0.30202876 -1.35913,-0.52855034 -2.07645,-0.56630394 -0.94384,-0.0755072 -1.73667,0.26427518 -2.41623,0.90608631 l -1.47239,1.4723902 c -0.83058,0.8305792 -1.81218,1.3968831 -2.98254,1.5856511 -0.79282,0.1132608 -1.54789,0.075507 -2.34072,-0.037754 -1.09485,-0.1510144 -2.15195,-0.4152896 -3.1713,-0.7173183 -1.51015,-0.4907968 -2.90703,-1.1703615 -4.19065,-2.15195502 -1.20812,-0.9060863 -2.15196,-2.03869418 -2.94478,-3.32231648 -0.79283,-1.3213758 -1.24587,-2.7182589 -1.58565,-4.1906491 -0.15102,-0.6418112 -0.22652,-1.3213759 -0.30203,-1.963187 -0.11326,-0.9438399 -0.15102,-1.8499259 -0.11326,-2.7937659 0.0378,-1.321376 0.15101,-2.604998 0.33978,-3.926374 0.15101,0.151015 0.30203,0.264275 0.41529,0.377536 0.83058,0.755072 1.77442,1.434637 2.75601,2.038694 1.09486,0.641811 2.30297,1.170362 3.54884,1.510144 0.83058,0.226522 1.69891,0.377536 2.56724,0.41529 0.71732,0.07551 1.43464,0.07551 2.15196,0.03775 0.83058,-0.03775 1.69891,-0.11326 2.52949,-0.339782 0.11326,0 0.22652,0 0.30203,-0.03775 0.75507,-0.151014 1.51014,-0.339782 2.26522,-0.566304 0.86833,-0.264275 1.69891,-0.52855 2.52949,-0.830579 0.79282,-0.302028 1.6234,-0.641811 2.41623,-0.981593 0.22652,-0.113261 0.37753,-0.07551 0.5663,0.07551 1.32138,1.019347 2.75601,1.88768 4.30391,2.529491 1.73667,0.679565 3.51108,1.019347 5.36101,0.868333 1.35913,-0.264276 2.64275,-0.604058 3.88862,-1.094855 z"
             class="st0" />
          <path
             style="fill:#ecdc86;stroke-width:0.37753597"
             inkscape:connector-curvature="0"
             id="path32-3"
             d="m 388.34768,-11.340642 c -1.24587,0.490797 -2.52949,0.830579 -3.85087,0.94384 -1.84992,0.151015 -3.62434,-0.188768 -5.36101,-0.868332 -1.54789,-0.604058 -2.98253,-1.472391 -4.30391,-2.529491 -0.18876,-0.151015 -0.33978,-0.188768 -0.5663,-0.07551 -0.79283,0.339783 -1.58565,0.679565 -2.41623,0.981594 -0.83058,0.302029 -1.66116,0.604057 -2.52949,0.830579 -0.75507,0.226522 -1.51014,0.377536 -2.26522,0.566304 -0.11326,0.03775 -0.22652,0.03775 -0.30203,0.03775 0.26428,-0.302029 0.52855,-0.604058 0.79283,-0.906087 1.0571,-1.208115 1.81217,-2.604998 2.22746,-4.190649 0.60406,-2.114201 1.20812,-4.266156 1.73667,-6.418111 0.37753,-1.585651 0.67956,-3.171302 0.90608,-4.794707 0.15102,-1.170361 0.37754,-5.625286 0.30203,-6.682386 -0.18877,-3.24681 -0.90608,-6.342605 -2.22746,-9.325139 -0.79283,-1.774419 -2.15195,-2.982534 -4.03963,-3.47333 -0.83058,-0.226522 -1.66116,-0.151015 -2.45399,0.11326 -0.0755,0.03775 -0.11326,0.07551 -0.18877,0.03775 1.24587,-1.057101 2.52949,-2.038694 4.19065,-2.41623 1.32138,-0.302029 2.56725,-0.07551 3.69986,0.641811 1.1326,0.717318 2.00094,1.661158 2.79376,2.718259 1.01935,1.396883 1.84993,2.907027 2.605,4.454924 0.15101,0.339783 0.15101,0.339783 0.41529,0.07551 1.39688,-1.434636 2.90703,-2.756012 4.56818,-3.850866 1.66116,-1.132608 3.47334,-2.000941 5.47428,-2.416231 1.54789,-0.302028 3.09579,-0.264275 4.64369,0.07551 0.71732,0.151014 1.39688,0.377536 2.07645,0.679564 0.0378,0.03775 0.11326,0.03775 0.11326,0.07551 -2.00094,0.03775 -3.69986,0.792825 -5.24775,1.963187 -0.75508,0.566303 -1.43464,1.208115 -1.96319,2.00094 -0.41529,0.641811 -0.79283,1.35913 -1.09485,2.076448 -0.67957,1.434637 -1.24587,2.94478 -1.66116,4.492678 -0.33978,1.321376 -0.56631,2.680505 -0.67957,4.039635 -0.0755,1.0571 -0.11326,2.114201 -0.0755,3.171302 0.0377,1.283622 0.18876,2.567244 0.33978,3.88862 0.26427,2.151955 0.64181,4.30391 1.01934,6.455865 0.18877,1.170361 0.33979,2.378477 0.56631,3.586592 0.26427,1.736665 1.24587,3.020287 2.64275,4.001881 0,-0.03775 0.0755,0 0.11326,0.03775 z"
             class="st4" />
          <path
             style="fill:#3f2b29;stroke-width:0.37753597"
             inkscape:connector-curvature="0"
             id="path34"
             d="m 385.55392,-82.430663 h 1.69891 c 1.35913,0.07551 2.71826,0.302029 4.00188,0.755072 1.01935,0.339782 1.24587,1.019347 0.64181,1.88768 -0.41529,0.604057 -1.01935,1.057101 -1.66116,1.47239 -0.79282,0.52855 -1.66116,0.981594 -2.605,1.321376 -0.94384,0.377536 -1.84992,0 -2.45398,-0.94384 -0.18877,-0.302029 -0.33978,-0.604058 -0.41529,-0.94384 -0.0378,-0.113261 -0.0755,-0.151014 -0.18877,-0.151014 -2.1142,-0.377536 -4.00188,0.113261 -5.54978,1.623404 -1.28362,1.208115 -2.03869,2.756013 -2.56724,4.417171 -0.4908,1.510144 -0.71732,3.020288 -0.79283,4.605939 -0.0755,1.396883 0.0378,2.793766 0.22652,4.152895 0.0378,0.226522 0.11327,0.453044 0.11327,0.717319 0.0378,0.302028 -0.0755,0.566304 -0.30203,0.717318 -0.26428,0.188768 -0.56631,0.151014 -0.86834,0.151014 -0.71731,-0.226521 -1.43463,-0.453043 -2.15195,-0.641811 v -0.490796 c 0,-0.755072 0,-1.472391 0.0378,-2.227463 0.15102,-2.907027 0.60406,-5.7763 1.73667,-8.494559 0.83058,-2.038694 2.03869,-3.813113 3.7376,-5.209996 1.39689,-1.170361 2.98254,-1.925433 4.75696,-2.340723 0.90608,-0.226522 1.73666,-0.339782 2.605,-0.377536 z"
             class="st6" />
          <path
             style="fill:#396e35;stroke-width:0.37753597"
             inkscape:connector-curvature="0"
             id="path36"
             d="m 374.86965,-62.685532 c 0.30203,0 0.60406,0.03775 0.86833,-0.151015 0.26428,-0.188768 0.33978,-0.453043 0.30203,-0.717318 -0.0378,-0.226521 -0.0755,-0.490797 -0.11326,-0.717318 0.15101,0 0.26427,-0.03775 0.41529,-0.03775 0.52855,0.302029 1.09485,0.566304 1.66116,0.868333 1.28362,0.792825 2.07644,1.925433 2.60499,3.322316 0.0755,0.226522 0.15102,0.41529 0.22653,0.641811 -0.30203,-0.264275 -0.60406,-0.52855 -0.90609,-0.755071 -1.20812,-0.906087 -2.52949,-1.547898 -3.92637,-2.076448 -0.41529,-0.113261 -0.75508,-0.226522 -1.13261,-0.377536 z"
             class="st7" />
          <path
             style="fill:#396e35;stroke-width:0.37753597"
             inkscape:connector-curvature="0"
             id="path38"
             d="m 372.71769,-63.81814 v 0.490797 c -0.49079,-0.151015 -0.98159,-0.264275 -1.47239,-0.453043 0.52855,-0.03775 1.01935,-0.03775 1.47239,-0.03775 z"
             class="st7" />
        </g>
        <g
           id="g596">
          <path
             d="m 150.58729,-13.861192 q -5.8632,0 -10.61714,-2.29774 -4.75394,-2.29774 -7.60631,-6.89322 -2.77314,-4.674713 -2.77314,-11.330235 0,-10.696376 5.70474,-16.163413 5.70473,-5.546269 15.21262,-5.546269 3.32776,0 6.73476,0.713092 3.40699,0.633859 6.02166,1.822345 v 10.141749 q -3.24853,-1.426183 -5.78397,-2.139275 -2.53543,-0.792324 -5.07087,-0.792324 -5.22934,0 -8.16094,2.61467 -2.9316,2.535437 -2.9316,8.002474 0,6.100896 2.6939,9.032495 2.77314,2.931599 8.95327,2.931599 4.67471,0 10.37944,-3.169296 v 10.062516 q -2.85236,1.505416 -5.94243,2.218508 -3.01083,0.792324 -6.81399,0.792324 z"
             style="font-weight:bold;font-size:medium;line-height:0%;font-family:'Maven Pro';fill:#000000;fill-opacity:1;stroke:none;stroke-width:0.37753597"
             id="path569"
             inkscape:connector-curvature="0" />
          <path
             d="m 189.64516,-13.702727 q -10.14175,0 -15.21262,-5.387804 -5.07088,-5.387805 -5.07088,-16.004948 0,-11.092538 4.99164,-16.163413 5.07088,-5.070874 15.29186,-5.070874 10.22098,0 15.37109,5.229339 5.15011,5.150107 5.15011,16.004948 0,10.458679 -5.30858,15.925715 -5.30857,5.467037 -15.21262,5.467037 z m 0,-9.428657 q 4.35778,0 6.57629,-3.010832 2.21851,-3.090064 2.21851,-8.953263 0,-6.417826 -2.21851,-9.111728 -2.13927,-2.773134 -6.57629,-2.773134 -4.59548,0 -6.65552,2.773134 -1.98081,2.693902 -1.98081,9.111728 0,6.100896 2.06004,9.032495 2.13927,2.9316 6.57629,2.9316 z"
             style="font-weight:bold;font-size:medium;line-height:0%;font-family:'Maven Pro';fill:#000000;fill-opacity:1;stroke:none;stroke-width:0.37753597"
             id="path571"
             inkscape:connector-curvature="0" />
          <path
             d="m 218.31492,-50.783497 q 1.18848,-1.030021 4.12008,-2.29774 3.01084,-1.267719 6.65553,-2.139275 3.72392,-0.950789 7.13091,-0.950789 6.57629,0 9.11173,1.98081 v 8.636333 q -3.1693,-0.713091 -9.11173,-0.713091 -3.72392,0 -6.10089,0.396162 v 30.979874 h -11.80563 z"
             style="font-weight:bold;font-size:medium;line-height:0%;font-family:'Maven Pro';fill:#000000;fill-opacity:1;stroke:none;stroke-width:0.37753597"
             id="path573"
             inkscape:connector-curvature="0" />
          <path
             d="m 268.56064,-56.329766 q 18.77809,0 18.54039,24.482816 H 260.6374 q 1.50542,8.319403 11.17177,8.319403 2.9316,0 5.70474,-0.792324 2.85236,-0.871556 6.02166,-2.218507 v 10.141749 q -6.49706,2.693902 -14.57876,2.693902 -6.1009,0 -10.69638,-2.456205 -4.59548,-2.535437 -7.13092,-7.21015 -2.53543,-4.674712 -2.53543,-11.013305 0,-10.458679 5.1501,-16.163413 5.22934,-5.783966 14.81646,-5.783966 z m -0.47539,9.032495 q -6.33859,0 -7.52708,7.923242 h 14.81646 q -0.55462,-4.278551 -2.29774,-6.100896 -1.66388,-1.822346 -4.99164,-1.822346 z"
             style="font-weight:bold;font-size:medium;line-height:0%;font-family:'Maven Pro';fill:#000000;fill-opacity:1;stroke:none;stroke-width:0.37753597"
             id="path575"
             inkscape:connector-curvature="0" />
          <path
             d="m 318.12052,-74.790919 h 8.47787 l -29.15753,67.6644822 h -8.39863 z"
             style="font-weight:bold;font-size:medium;line-height:0%;font-family:'Maven Pro';fill:#000000;fill-opacity:1;stroke:none;stroke-width:0.37753597"
             id="path577"
             inkscape:connector-curvature="0" />
        </g>
        <g
           id="g589">
          <path
             d="m 15.436598,-51.575821 q 3.090064,-1.663881 9.428657,-3.090064 6.338593,-1.426184 11.330235,-1.426184 8.477868,0 12.756419,3.327762 4.27855,3.327761 4.27855,10.934073 v 26.939021 h -11.80563 v -24.562049 q 0,-6.89322 -7.764776,-6.89322 -1.743113,0 -3.565459,0.396162 -1.822345,0.396162 -2.852367,0.950789 v 30.108318 H 15.436598 Z"
             style="font-weight:bold;font-size:79.23241425px;line-height:0%;font-family:'Maven Pro';fill:#24af63;fill-opacity:1;stroke:none;stroke-width:0.37753597"
             id="path559"
             inkscape:connector-curvature="0" />
          <path
             d="m 66.729683,-45.95032 h -5.863199 v -9.032495 h 5.942431 v -0.950789 q 0.07923,-9.032495 4.120086,-12.518721 4.120085,-3.565459 11.17177,-3.565459 1.267719,0 2.773134,0.237697 1.505416,0.237697 2.456205,0.554627 v 10.379446 q -0.871556,-0.871556 -1.743113,-1.267718 -0.871556,-0.475395 -2.218507,-0.475395 -2.218508,0 -3.486227,1.188486 -1.267718,1.188487 -1.267718,4.040854 v 2.376972 h 8.715565 v 9.032495 h -8.794798 v 31.059107 H 66.729683 Z"
             style="font-weight:bold;font-size:79.23241425px;line-height:0%;font-family:'Maven Pro';fill:#24af63;fill-opacity:1;stroke:none;stroke-width:0.37753597"
             id="path561"
             inkscape:connector-curvature="0" />
          <path
             d="m 96.008535,-43.256418 h 24.165885 v 8.160939 H 96.008535 Z"
             style="font-weight:bold;font-size:79.23241425px;line-height:0%;font-family:'Maven Pro';fill:#24af63;fill-opacity:1;stroke:none;stroke-width:0.37753597"
             id="path563"
             inkscape:connector-curvature="0" />
          <path
             style="display:inline;fill:url(#linearGradient297);stroke-width:0.37753597"
             inkscape:connector-curvature="0"
             id="path67"
             d="m 105.17203,-43.255454 -8.129199,8.160957 h 23.064239 v -8.160957 z" />
        </g>
      </g>
    </g>
  </g>
</svg>
