<?xml version="1.0" encoding="UTF-8" standalone="no"?>
<!-- Created with Inkscape (http://www.inkscape.org/) -->

<svg
   xmlns:dc="http://purl.org/dc/elements/1.1/"
   xmlns:cc="http://creativecommons.org/ns#"
   xmlns:rdf="http://www.w3.org/1999/02/22-rdf-syntax-ns#"
   xmlns:svg="http://www.w3.org/2000/svg"
   xmlns="http://www.w3.org/2000/svg"
   xmlns:xlink="http://www.w3.org/1999/xlink"
   xmlns:sodipodi="http://sodipodi.sourceforge.net/DTD/sodipodi-0.dtd"
   xmlns:inkscape="http://www.inkscape.org/namespaces/inkscape"
   width="491.34305"
   height="197.58202"
   viewBox="0 0 460.63409 185.23314"
   id="svg4924"
   version="1.1"
   inkscape:version="0.92.5 (2060ec1f9f, 2020-04-08)"
   sodipodi:docname="nf-core-sarek_logo.svg"
   inkscape:export-filename="nf-core-sarek_logo_transparent.png"
   inkscape:export-xdpi="100"
   inkscape:export-ydpi="100">
  <defs
     id="defs4926">
    <clipPath
       clipPathUnits="userSpaceOnUse"
       id="clipPath202">
      <path
         d="M 0,600 H 1500 V 0 H 0 Z"
         id="path204"
         inkscape:connector-curvature="0" />
    </clipPath>
    <clipPath
       clipPathUnits="userSpaceOnUse"
       id="clipPath158">
      <path
         d="M 0,600 H 1500 V 0 H 0 Z"
         id="path160"
         inkscape:connector-curvature="0" />
    </clipPath>
    <clipPath
       clipPathUnits="userSpaceOnUse"
       id="clipPath86">
      <path
         d="M 0,600 H 1500 V 0 H 0 Z"
         id="path88"
         inkscape:connector-curvature="0" />
    </clipPath>
    <clipPath
       clipPathUnits="userSpaceOnUse"
       id="clipPath94">
      <path
         d="M 804.509,211 H 968.795 V 114.019 H 804.509 Z"
         id="path96"
         inkscape:connector-curvature="0" />
    </clipPath>
    <clipPath
       clipPathUnits="userSpaceOnUse"
       id="clipPath110">
      <path
         d="M 804.597,506 H 968.883 V 409.019 H 804.597 Z"
         id="path112"
         inkscape:connector-curvature="0" />
    </clipPath>
    <clipPath
       clipPathUnits="userSpaceOnUse"
       id="clipPath126">
      <path
         d="M 133.598,209 H 297.883 V 112.019 H 133.598 Z"
         id="path128"
         inkscape:connector-curvature="0" />
    </clipPath>
    <clipPath
       clipPathUnits="userSpaceOnUse"
       id="clipPath142">
      <path
         d="M 133.686,504 H 297.972 V 407.019 H 133.686 Z"
         id="path144"
         inkscape:connector-curvature="0" />
    </clipPath>
    <clipPath
       clipPathUnits="userSpaceOnUse"
       id="clipPath54">
      <path
         d="M 0,600 H 1500 V 0 H 0 Z"
         id="path56"
         inkscape:connector-curvature="0" />
    </clipPath>
    <clipPath
       clipPathUnits="userSpaceOnUse"
       id="clipPath30">
      <path
         d="M 0,600 H 1500 V 0 H 0 Z"
         id="path32"
         inkscape:connector-curvature="0" />
    </clipPath>
    <linearGradient
       id="a-3"
       x2="1"
       gradientTransform="matrix(47.34875,36.9925,-36.9925,47.34875,344.325,162.1875)"
       gradientUnits="userSpaceOnUse">
      <stop
         stop-color="#0c542a"
         offset="0"
         id="stop15-61" />
      <stop
         stop-color="#0c542a"
         offset=".21472"
         id="stop17-29" />
      <stop
         stop-color="#25af64"
         offset=".57995"
         id="stop19-3" />
      <stop
         stop-color="#25af64"
         offset=".84663"
         id="stop21-19" />
      <stop
         stop-color="#25af64"
         offset="1"
         id="stop23-4" />
    </linearGradient>
    <linearGradient
       id="f"
       x2="1"
       gradientTransform="matrix(14.322136,11.189559,-11.189559,14.322136,103.39117,-43.22521)"
       gradientUnits="userSpaceOnUse">
      <stop
         stop-color="#0c542a"
         offset="0"
         id="stop12" />
      <stop
         stop-color="#0c542a"
         offset=".21472"
         id="stop14" />
      <stop
         stop-color="#25af64"
         offset=".57995"
         id="stop16" />
      <stop
         stop-color="#25af64"
         offset=".84663"
         id="stop18" />
      <stop
         stop-color="#25af64"
         offset="1"
         id="stop20" />
    </linearGradient>
    <linearGradient
       inkscape:collect="always"
       xlink:href="#f"
       id="linearGradient297"
       gradientUnits="userSpaceOnUse"
       gradientTransform="matrix(14.322136,11.189559,-11.189559,14.322136,103.39117,-43.22521)"
       x2="1" />
  </defs>
  <sodipodi:namedview
     id="base"
     pagecolor="#ffffff"
     bordercolor="#666666"
     borderopacity="1.0"
     inkscape:pageopacity="0.0"
     inkscape:pageshadow="2"
     inkscape:zoom="1.979899"
     inkscape:cx="228.33617"
     inkscape:cy="123.6635"
     inkscape:document-units="px"
     inkscape:current-layer="layer4"
     showgrid="false"
     fit-margin-top="10"
     fit-margin-left="40"
     fit-margin-right="40"
     fit-margin-bottom="10"
     units="px"
     width="200mm"
     inkscape:window-width="1920"
     inkscape:window-height="1015"
     inkscape:window-x="0"
     inkscape:window-y="0"
     inkscape:window-maximized="1" />
  <metadata
     id="metadata4929">
    <rdf:RDF>
      <cc:Work
         rdf:about="">
        <dc:format>image/svg+xml</dc:format>
        <dc:type
           rdf:resource="http://purl.org/dc/dcmitype/StillImage" />
        <dc:title />
      </cc:Work>
    </rdf:RDF>
  </metadata>
  <g
     inkscape:groupmode="layer"
     id="layer4"
     inkscape:label="Sarek"
     style="display:inline"
     transform="translate(22.063401,91.843416)">
    <rect
       style="opacity:1;fill:#24af63;fill-opacity:1;stroke:none;stroke-width:19.18009567;stroke-linecap:round;stroke-linejoin:round;stroke-miterlimit:4;stroke-dasharray:none;stroke-dashoffset:0;stroke-opacity:1"
       id="rect71"
       width="460.25076"
       height="84.521347"
       x="-21.589891"
       y="-39.666309" />
    <path
       style="fill:#ffffff;stroke:#ffffff;stroke-width:4.50000001;stroke-linecap:butt;stroke-linejoin:miter;stroke-miterlimit:10;stroke-dasharray:none;stroke-opacity:1"
       d="M 434.79102 10 L 434.79102 10.041016 C 433.86479 10.081287 432.98016 10.201736 432.01367 10.443359 C 430.12096 10.886335 428.42947 11.691068 426.93945 12.939453 C 425.12728 14.429462 423.83908 16.32344 422.95312 18.498047 C 421.74505 21.397523 421.2607 24.457765 421.09961 27.558594 C 421.05995 28.350761 421.06056 29.103646 421.06055 29.894531 C 420.58736 29.894556 420.07907 29.894328 419.5293 29.933594 C 420.03975 30.129922 420.5501 30.251073 421.06055 30.40625 L 421.06055 30.421875 C 420.57682 30.278047 420.09307 30.160659 419.60938 29.974609 C 418.56235 30.014877 417.55681 30.055436 416.50977 30.095703 C 413.89219 30.216515 411.31439 30.538803 408.77734 31.263672 C 406.44165 31.908 404.30631 32.954378 402.49414 34.605469 C 401.12495 35.853854 400.03783 37.384066 399.23242 39.035156 C 398.14512 41.250034 397.54138 43.62553 397.13867 46.082031 C 396.85678 47.853933 396.73678 49.665598 396.65625 51.4375 C 396.65625 51.518041 396.65555 51.599143 396.61523 51.679688 L 396.61523 51.759766 C 397.01793 51.558413 397.38049 51.276779 397.7832 51.035156 C 398.78997 50.390828 399.75719 49.788215 400.88477 49.425781 C 402.21369 48.982805 403.50162 49.061495 404.75 49.746094 C 405.59569 50.189069 406.32126 50.833724 407.00586 51.558594 C 407.12667 51.679404 407.20735 51.679404 407.32812 51.558594 C 408.01272 50.954536 408.6572 50.350151 409.3418 49.746094 C 410.06667 49.061495 410.7903 48.338433 411.5957 47.734375 C 411.67625 47.774652 411.71634 47.733626 411.79688 47.693359 C 412.64252 47.411466 413.52811 47.330642 414.41406 47.572266 C 416.42759 48.095781 417.87892 49.38463 418.72461 51.277344 C 420.13408 54.458713 420.89825 57.761345 421.09961 61.224609 C 421.18015 62.352183 420.93843 67.103181 420.77734 68.351562 C 420.53572 70.083195 420.21325 71.775436 419.81055 73.466797 C 419.24676 75.762216 418.60332 78.057352 417.95898 80.3125 C 417.51601 82.003861 416.7096 83.494547 415.58203 84.783203 C 415.30013 85.105367 415.01823 85.425883 414.73633 85.748047 C 414.81687 85.748047 414.93778 85.749251 415.05859 85.708984 C 415.86401 85.507632 416.6692 85.345139 417.47461 85.103516 C 418.40083 84.861892 419.28788 84.540914 420.17383 84.21875 C 421.05978 83.896586 421.90431 83.53431 422.75 83.171875 C 422.99162 83.051066 423.15412 83.09087 423.35547 83.251953 C 424.76494 84.379526 426.29423 85.30489 427.94531 85.949219 C 429.79776 86.674087 431.69081 87.038036 433.66406 86.876953 C 434.72116 86.786344 435.75583 86.55922 436.76758 86.230469 L 436.76562 86.232422 C 435.75181 86.568463 434.71035 86.825689 433.62305 87.037109 C 431.64979 87.198191 429.7587 86.836197 427.90625 86.111328 C 426.25516 85.42673 424.72393 84.501366 423.31445 83.414062 C 423.1131 83.252978 422.95256 83.21122 422.71094 83.332031 C 421.86525 83.694465 420.97849 84.056743 420.13281 84.378906 C 419.24686 84.701071 418.36177 84.983732 417.43555 85.265625 C 416.63013 85.507248 415.82494 85.708059 415.01953 85.869141 C 414.93899 85.909407 414.81808 85.910156 414.69727 85.910156 C 413.81131 86.15178 412.884 86.231218 411.99805 86.271484 C 411.23291 86.311762 410.46827 86.312966 409.70312 86.232422 C 408.77695 86.192151 407.8508 86.030686 406.96484 85.789062 C 405.63592 85.426632 404.34754 84.862333 403.17969 84.177734 C 402.13266 83.533407 401.12619 82.809316 400.24023 82.003906 C 400.11942 81.883095 399.95791 81.762645 399.79688 81.601562 C 399.59552 83.01103 399.47391 84.379599 399.43359 85.789062 C 399.39332 86.795825 399.43388 87.762769 399.55469 88.769531 C 399.63523 89.45413 399.71587 90.178683 399.87695 90.863281 C 400.23939 92.433831 400.72267 93.924517 401.56836 95.333984 C 402.41403 96.703182 403.42032 97.910461 404.70898 98.876953 C 406.07818 99.923986 407.56886 100.64836 409.17969 101.17188 C 410.26699 101.494 411.39466 101.77642 412.5625 101.9375 C 413.40819 102.05831 414.21292 102.09933 415.05859 101.97852 C 416.30698 101.77716 417.35428 101.17306 418.24023 100.28711 L 419.81055 98.716797 C 420.53541 98.032198 421.38191 97.669459 422.38867 97.75 C 423.15381 97.790271 423.87864 98.031352 424.60352 98.353516 C 425.93243 98.957573 427.10076 99.763589 428.42969 100.28711 C 429.31564 100.60927 430.24175 100.80934 431.16797 100.84961 C 431.61094 100.84961 432.05312 100.76999 432.49609 100.68945 C 434.10691 100.40756 435.71851 100.08481 437.28906 99.601562 C 438.94016 99.118321 440.55101 98.513649 442.04102 97.667969 C 443.16859 97.063911 444.21445 96.339821 445.14062 95.494141 C 445.94603 94.809542 446.59051 94.005092 447.1543 93.119141 C 447.59727 92.434542 447.96029 91.708499 448.24219 90.943359 C 448.72543 89.694974 448.96634 88.366036 449.04688 87.037109 C 449.12739 85.949806 449.08761 84.90371 448.9668 83.816406 C 448.84599 82.890184 448.72479 81.963331 448.52344 81.037109 C 448.36236 80.352511 448.24312 79.667762 448.08203 79.023438 C 448.04175 78.942904 448.04147 78.901878 447.96094 78.982422 L 446.50977 80.191406 C 445.66409 80.916276 444.81955 81.601765 443.93359 82.246094 C 442.88656 83.011233 441.83851 83.735323 440.71094 84.419922 C 439.74445 84.943439 438.77825 85.466436 437.77148 85.869141 C 437.73121 85.828874 437.65039 85.789811 437.65039 85.830078 C 436.16039 84.783045 435.11392 83.41299 434.83203 81.560547 C 434.59041 80.271891 434.42987 78.98276 434.22852 77.734375 C 433.82582 75.438956 433.42251 73.145028 433.14062 70.849609 C 432.97958 69.440142 432.81756 68.070369 432.77734 66.701172 C 432.73707 65.573597 432.77884 64.445933 432.85938 63.318359 C 432.98015 61.868621 433.22155 60.419233 433.58398 59.009766 C 434.02696 57.358674 434.63059 55.747076 435.35547 54.216797 C 435.67762 53.451658 436.08046 52.686552 436.52344 52.001953 C 437.08722 51.156273 437.81177 50.47124 438.61719 49.867188 C 440.26827 48.618801 442.08051 47.8137 444.21484 47.773438 C 444.57728 47.853974 444.90049 48.055715 445.22266 48.216797 C 447.15564 49.183289 448.88722 50.390568 450.49805 51.759766 L 451.22266 52.365234 C 451.26287 52.324968 451.26241 52.324219 451.30273 52.324219 L 451.30273 50.875 L 451.34375 50.875 L 451.34375 48.257812 L 451.34375 48.216797 L 451.3418 48.216797 C 451.25988 45.854514 451.01659 43.491193 450.41602 41.208984 C 449.81196 38.873296 448.84547 36.699354 447.35547 34.806641 C 445.62383 32.632033 443.40934 31.142273 440.83203 30.175781 C 439.1004 29.531454 437.28799 29.168149 435.43555 28.966797 C 433.865 28.805718 432.25414 28.765159 430.68359 28.845703 C 428.83115 28.926245 426.98014 29.087992 425.16797 29.410156 C 425.14709 29.431031 425.11528 29.426799 425.08398 29.431641 C 425.04573 29.410324 425.00274 29.390797 424.96484 29.369141 C 424.80376 29.369141 424.68451 29.410156 424.52344 29.410156 C 424.56371 29.651779 424.60421 29.934159 424.64453 30.175781 C 424.67733 30.405427 424.62227 30.632259 424.45117 30.818359 C 424.57523 30.65798 424.63266 30.447746 424.60352 30.214844 C 424.60352 29.93295 424.52274 29.692795 424.48242 29.451172 C 424.28112 28.001434 424.1597 26.511493 424.24023 25.021484 C 424.32078 23.330123 424.56242 21.718242 425.08594 20.107422 C 425.64972 18.33552 426.45502 16.68514 427.82422 15.396484 C 429.47531 13.785665 431.48899 13.261361 433.74414 13.664062 C 433.86496 13.664062 433.90499 13.70536 433.94531 13.826172 C 434.02586 14.188606 434.18732 14.509867 434.38867 14.832031 C 435.033 15.838794 435.9991 16.242549 437.00586 15.839844 C 438.01262 15.47741 438.93948 14.99347 439.78516 14.429688 C 440.46975 13.986713 441.11366 13.503702 441.55664 12.859375 C 442.20097 11.933153 441.96035 11.208137 440.87305 10.845703 C 439.50385 10.362457 438.05325 10.12156 436.60352 10.041016 L 436.60352 10 L 434.79102 10 z M 362.86328 18.189453 L 331.8457 90.365234 L 340.80469 90.365234 L 371.90625 18.189453 L 362.86328 18.189453 z M 111.10938 21.146484 C 106.09484 21.146484 102.12124 22.415734 99.191406 24.951172 C 96.317909 27.430266 94.853216 31.88158 94.796875 38.304688 L 94.796875 39.318359 L 88.458984 39.318359 L 88.458984 48.953125 L 94.712891 48.953125 L 94.712891 82.082031 L 107.30469 82.082031 L 107.30469 48.953125 L 116.68555 48.953125 L 116.68555 39.318359 L 107.39062 39.318359 L 107.39062 36.783203 C 107.39063 34.754853 107.8407 33.317803 108.74219 32.472656 C 109.64368 31.627511 110.88333 31.205078 112.46094 31.205078 C 113.41877 31.205078 114.2064 31.372879 114.82617 31.710938 C 115.44595 31.992651 116.06577 32.44468 116.68555 33.064453 L 116.68555 21.992188 C 116.00943 21.766815 115.13692 21.56942 114.06641 21.400391 C 112.99589 21.231362 112.01084 21.146484 111.10938 21.146484 z M 423.47266 31.140625 C 423.48578 31.140855 423.49861 31.140395 423.51172 31.140625 C 423.86935 31.279381 424.20348 31.394807 424.60352 31.503906 C 426.09352 32.067693 427.50235 32.752257 428.79102 33.71875 C 429.11318 33.960372 429.43565 34.243497 429.75781 34.525391 C 429.67727 34.283768 429.59616 34.081467 429.51562 33.839844 C 429.38191 33.486358 429.22925 33.152711 429.06055 32.832031 C 429.24663 33.176158 429.41184 33.537243 429.55664 33.919922 C 429.63717 34.161544 429.71829 34.363845 429.79883 34.605469 C 429.47666 34.323574 429.1542 34.042404 428.83203 33.800781 C 427.58365 32.794019 426.13454 32.10945 424.64453 31.585938 C 424.24182 31.424856 423.87927 31.303661 423.47656 31.142578 C 423.47519 31.142217 423.47403 31.140987 423.47266 31.140625 z M 225.82227 37.880859 C 218.55401 37.880859 213.11768 39.685061 209.51172 43.291016 C 205.96211 46.896971 204.1875 52.643223 204.1875 60.53125 C 204.1875 68.081218 205.98974 73.772188 209.5957 77.603516 C 213.20166 81.434843 218.61035 83.349609 225.82227 83.349609 C 232.86515 83.349609 238.27384 81.407202 242.04883 77.519531 C 245.82382 73.631861 247.71094 67.968533 247.71094 60.53125 C 247.71094 52.812252 245.88105 47.121283 242.21875 43.458984 C 238.55645 39.740343 233.09052 37.880859 225.82227 37.880859 z M 309.99805 37.880859 C 303.18054 37.880859 297.91395 39.937739 294.19531 44.050781 C 290.53302 48.107481 288.70117 53.853733 288.70117 61.291016 C 288.70117 65.79846 289.60328 69.714827 291.40625 73.039062 C 293.20923 76.363303 295.74382 78.927491 299.01172 80.730469 C 302.27962 82.477103 306.08346 83.349609 310.42188 83.349609 C 316.16882 83.349609 321.35252 82.392226 325.97266 80.476562 L 325.97266 69.658203 C 323.71893 70.616035 321.57717 71.405617 319.54883 72.025391 C 317.57682 72.588821 315.54954 72.871094 313.46484 72.871094 C 306.59099 72.871094 302.61736 69.912114 301.54688 63.996094 L 329.77539 63.996094 C 329.94442 46.586091 323.35136 37.880859 309.99805 37.880859 z M 275.50391 38.050781 C 273.08116 38.050781 270.54656 38.388336 267.89844 39.064453 C 265.30666 39.684226 262.93987 40.444214 260.79883 41.345703 C 258.71413 42.247192 257.24944 43.064416 256.4043 43.796875 L 256.4043 82.082031 L 268.99609 82.082031 L 268.99609 49.037109 C 270.68638 48.755394 272.85579 48.615234 275.50391 48.615234 C 279.72963 48.615234 282.96893 48.867913 285.22266 49.375 L 285.22266 40.164062 C 283.41968 38.755489 280.18038 38.050781 275.50391 38.050781 z M 62.142578 38.134766 C 58.592966 38.134766 54.564085 38.642075 50.056641 39.65625 C 45.549197 40.670425 42.197379 41.767968 40 42.951172 L 40 82.082031 L 52.591797 82.082031 L 52.591797 49.966797 C 53.324257 49.572395 54.338876 49.23484 55.634766 48.953125 C 56.930656 48.67141 58.197953 48.529297 59.4375 48.529297 C 64.959119 48.529297 67.720703 50.980969 67.720703 55.882812 L 67.720703 82.082031 L 80.3125 82.082031 L 80.3125 53.347656 C 80.3125 47.938723 78.792525 44.050002 75.75 41.683594 C 72.707475 39.317185 68.171284 38.134766 62.142578 38.134766 z M 184.07617 38.134766 C 177.31501 38.134766 171.90631 40.106768 167.84961 44.050781 C 163.79291 47.938452 161.76367 53.684704 161.76367 61.291016 C 161.76367 66.023831 162.75065 70.052713 164.72266 73.376953 C 166.75101 76.64485 169.45536 79.09652 172.83594 80.730469 C 176.21652 82.364417 179.99077 83.181641 184.16016 83.181641 C 186.86463 83.181641 189.28865 82.899365 191.42969 82.335938 C 193.62707 81.82885 195.73923 81.039268 197.76758 79.96875 L 197.76758 69.236328 C 193.71088 71.49005 190.01955 72.617188 186.69531 72.617188 C 182.30055 72.617188 179.1185 71.574927 177.14648 69.490234 C 175.23082 67.405542 174.27344 64.193884 174.27344 59.855469 C 174.27344 55.967798 175.3157 53.121337 177.40039 51.318359 C 179.48508 49.459038 182.38683 48.529297 186.10547 48.529297 C 187.90845 48.529297 189.7107 48.81157 191.51367 49.375 C 193.31665 49.882088 195.37353 50.642075 197.68359 51.65625 L 197.68359 40.839844 C 195.82427 39.994698 193.68251 39.345275 191.25977 38.894531 C 188.83701 38.387444 186.44258 38.134766 184.07617 38.134766 z M 417.10742 45.001953 C 417.45005 44.989333 417.78475 45.029106 418.11523 45.089844 C 417.45611 44.974318 416.77114 44.995168 416.06641 45.15625 C 416.41877 45.065641 416.76575 45.014538 417.10742 45.001953 z M 420.01172 45.839844 C 421.21983 46.564713 422.14651 47.61266 422.99219 48.740234 C 422.14651 47.61266 421.21983 46.604983 420.01172 45.839844 z M 309.49219 47.515625 C 311.85859 47.515625 313.6332 48.163094 314.81641 49.458984 C 316.05596 50.754874 316.87318 52.924272 317.26758 55.966797 L 301.46289 55.966797 C 302.30804 50.332491 304.98475 47.515625 309.49219 47.515625 z M 225.82227 47.853516 C 228.97748 47.853516 231.31663 48.840494 232.83789 50.8125 C 234.4155 52.728164 235.20314 55.967463 235.20312 60.53125 C 235.20312 64.700636 234.4155 67.884652 232.83789 70.082031 C 231.26028 72.223067 228.92113 73.292969 225.82227 73.292969 C 222.66705 73.292969 220.32985 72.250709 218.80859 70.166016 C 217.34368 68.081323 216.61133 64.869665 216.61133 60.53125 C 216.61133 55.967463 217.31408 52.728164 218.72266 50.8125 C 220.18757 48.840494 222.55437 47.853516 225.82227 47.853516 z M 125.94336 51.826172 L 125.94336 60.53125 L 151.7207 60.53125 L 151.7207 51.826172 L 125.94336 51.826172 z M 86.128906 95.324219 C 60.67188 95.324219 40 115.99609 40 141.45312 C 40 166.91015 60.671879 187.58203 86.128906 187.58203 C 111.58628 187.58203 132.25781 166.91014 132.25781 141.45312 C 132.25781 115.9961 111.58628 95.324219 86.128906 95.324219 z M 334.32422 105.58984 L 334.32422 164.42188 L 346.81641 164.42188 L 346.90039 146.78125 L 360.23633 164.42188 L 376.18945 164.42188 L 357.45117 140.28125 L 375.09375 121.71094 L 359.81445 121.71094 L 346.90039 137.49609 L 346.98438 105.58984 L 334.32422 105.58984 z M 305.75195 120.27539 C 298.94303 120.27539 293.68077 122.32963 289.9668 126.4375 C 286.30911 130.4891 284.48047 136.23028 284.48047 143.6582 C 284.48047 148.15998 285.38093 152.07061 287.18164 155.39062 C 288.98234 158.71069 291.5155 161.26961 294.7793 163.07031 C 298.04308 164.81475 301.84087 165.6875 306.17383 165.6875 C 311.91359 165.6875 317.09076 164.73161 321.70508 162.81836 L 321.70508 152.01367 C 319.4542 152.9703 317.31486 153.75796 315.28906 154.37695 C 313.31953 154.93967 311.29496 155.2207 309.21289 155.2207 C 302.34768 155.2207 298.37972 152.26791 297.31055 146.35938 L 325.50391 146.35938 C 325.67273 128.97128 319.08847 120.27539 305.75195 120.27539 z M 222.57422 120.44531 C 218.9728 120.44531 215.59656 120.81142 212.44531 121.54297 C 209.35034 122.2745 207.04278 123.1453 205.52344 124.1582 L 205.52344 135.30078 C 207.04278 134.06279 209.06932 133.02181 211.60156 132.17773 C 214.19008 131.27738 216.69358 130.82812 219.11328 130.82812 C 225.41577 130.82812 228.56641 133.27424 228.56641 138.16992 L 228.56641 140.87109 C 227.04705 140.02702 225.24614 139.35215 223.16406 138.8457 C 221.08199 138.28297 219.00004 138.00195 216.91797 138.00195 C 211.85348 138.00195 208.02797 139.15573 205.43945 141.46289 C 202.9072 143.77005 201.64065 146.97807 201.64062 151.08594 C 201.64063 160.82102 207.88648 165.6875 220.37891 165.6875 C 227.07529 165.6875 232.16738 164.89984 235.65625 163.32422 C 239.14507 161.69233 240.91829 159.10374 240.97461 155.55859 L 241.05859 135.38477 C 241.05859 129.75755 239.14682 125.87467 235.32031 123.73633 C 231.49381 121.54171 227.2448 120.44531 222.57422 120.44531 z M 271.30078 120.44531 C 268.88109 120.44531 266.34793 120.78371 263.70312 121.45898 C 261.11463 122.07798 258.75162 122.83597 256.61328 123.73633 C 254.53121 124.63667 253.06674 125.454 252.22266 126.18555 L 252.22266 164.42188 L 264.80078 164.42188 L 264.80078 131.41797 C 266.48894 131.1366 268.656 130.99609 271.30078 130.99609 C 275.5212 130.99609 278.75497 131.24941 281.00586 131.75586 L 281.00586 122.55469 C 279.20516 121.14788 275.97138 120.44531 271.30078 120.44531 z M 178.64648 120.86719 C 175.88914 120.86719 173.21547 121.37382 170.62695 122.38672 C 168.09471 123.34335 165.98501 124.89096 164.29688 127.0293 C 162.60871 129.16764 161.76367 131.89673 161.76367 135.2168 C 161.76367 139.09957 162.80465 142.05428 164.88672 144.08008 C 167.02506 146.10588 169.72645 147.45559 172.99023 148.13086 C 176.0852 148.86239 178.33734 149.53726 179.74414 150.15625 C 181.15095 150.77525 181.85352 151.73309 181.85352 153.02734 C 181.85352 154.15278 181.40426 155.05324 180.50391 155.72852 C 179.65983 156.34751 178.28045 156.65625 176.36719 156.65625 C 171.35897 156.65625 166.57562 154.94042 162.01758 151.50781 L 162.01758 162.56445 C 164.49355 163.57735 166.74373 164.3373 168.76953 164.84375 C 170.79532 165.40647 173.16026 165.6875 175.86133 165.6875 C 181.31973 165.6875 185.82009 164.59109 189.36523 162.39648 C 192.91038 160.14559 194.73902 156.59917 194.85156 151.75977 C 194.85156 148.66479 194.20442 146.2741 192.91016 144.58594 C 191.61591 142.84151 190.15338 141.6323 188.52148 140.95703 C 186.88958 140.2255 184.66712 139.49326 181.85352 138.76172 C 179.37754 138.08646 177.57661 137.4393 176.45117 136.82031 C 175.32573 136.14505 174.76367 135.10407 174.76367 133.69727 C 174.76367 132.51554 175.2703 131.61508 176.2832 130.99609 C 177.2961 130.32083 178.84371 129.98242 180.92578 129.98242 C 183.00785 129.98242 184.83649 130.32083 186.41211 130.99609 C 187.98773 131.67137 190.21019 132.79743 193.08008 134.37305 L 193.08008 124.49609 C 191.05428 123.2581 188.97234 122.35764 186.83398 121.79492 C 184.75192 121.17593 182.02281 120.86719 178.64648 120.86719 z M 305.24609 129.89844 C 307.60951 129.89844 309.38078 130.54559 310.5625 131.83984 C 311.80048 133.13411 312.61586 135.30115 313.00977 138.33984 L 297.22656 138.33984 C 298.07065 132.71263 300.74432 129.89844 305.24609 129.89844 z M 222.06836 146.27344 C 224.43179 146.27344 226.59688 146.61184 228.56641 147.28711 L 228.56641 153.87109 C 228.56641 155.05282 228.00435 155.84048 226.87891 156.23438 C 225.75347 156.62824 223.72694 156.82422 220.80078 156.82422 C 219.00008 156.82422 217.42475 156.31954 216.07422 155.30664 C 214.77997 154.29374 214.13281 152.96978 214.13281 151.33789 C 214.13281 149.59346 214.75225 148.32883 215.99023 147.54102 C 217.2845 146.69693 219.31103 146.27344 222.06836 146.27344 z "
       transform="matrix(0.93749998,0,0,0.93749998,-22.063401,-91.843416)"
       id="path73" />
    <g
       id="g359"
       transform="translate(131.25)">
      <path
         inkscape:connector-curvature="0"
         id="path685"
         style="fill:#ffffff;stroke:none;stroke-width:3.01842356;stroke-linecap:butt;stroke-linejoin:miter;stroke-miterlimit:10;stroke-dasharray:none;stroke-opacity:1"
         d="m -30.82629,40.737998 c 0,-23.050353 -18.686065,-41.73674603 -41.736759,-41.73674603 -23.050353,0 -41.736741,18.68639303 -41.736741,41.73674603 0,23.050354 18.686388,41.736747 41.736741,41.736747 23.050694,0 41.736759,-18.686393 41.736759,-41.736747 z" />
      <path
         inkscape:connector-curvature="0"
         id="path687"
         d="m -83.136627,21.415287 -2.78734,1.206425 -3.522179,22.183264 -7.746821,2.11302 v 27.466543 l -0.02389,0.0338 c 6.907826,5.064918 15.431897,8.056536 24.653847,8.056536 18.436869,0 34.081475,-11.954488 39.605527,-28.535017 l 0.06895,0.02253 -0.06468,-0.03797 c 1.37921,-4.14496 2.127103,-8.578154 2.127103,-13.186356 0,-2.530444 -0.22471,-5.007165 -0.656014,-7.413187 z"
         style="fill:#b3deb2;fill-opacity:1;fill-rule:nonzero;stroke:none;stroke-width:0.72076589" />
      <path
         d="m -32.888843,53.962743 -53.035716,-31.340953 -3.52116,22.18373 -7.746617,2.112894 v 27.465649 l -0.02418,0.03448 c 6.907826,5.064908 15.431519,8.056167 24.653478,8.056167 18.436869,0 34.081348,-11.954293 39.605401,-28.534833"
         style="fill:#24af63;fill-opacity:1;fill-rule:nonzero;stroke:none;stroke-width:0.72076589"
         id="path689"
         inkscape:connector-curvature="0" />
      <path
         d="m -30.83494,40.768764 c 0,-23.048023 -18.684145,-41.73250253 -41.732498,-41.73250253 -23.048014,0 -41.732502,18.68447953 -41.732502,41.73250253 0,23.048013 18.684488,41.732503 41.732502,41.732503 23.048353,0 41.732498,-18.68449 41.732498,-41.732503 z"
         style="fill:none;stroke:#000000;stroke-width:3.02690959;stroke-linecap:butt;stroke-linejoin:miter;stroke-miterlimit:10;stroke-dasharray:none;stroke-opacity:1"
         id="path691"
         inkscape:connector-curvature="0" />
    </g>
    <g
       id="g603"
       transform="translate(-0.76752)">
      <path
         d="m 143.57338,63.489019 q -3.79837,0 -6.64714,-0.791325 -2.84878,-0.712195 -6.33062,-2.136583 V 50.194718 q 6.40975,4.827099 13.45256,4.827099 2.69052,0 3.8775,-0.870456 1.26612,-0.949603 1.26612,-2.532254 0,-1.820044 -1.97832,-2.690515 -1.97832,-0.870457 -6.33062,-1.899176 -4.58969,-0.949602 -7.59673,-3.79838 -2.92791,-2.848778 -2.92791,-8.308925 0,-4.668837 2.37398,-7.675876 2.37398,-3.00704 5.93495,-4.352298 3.6401,-1.424389 7.51761,-1.424389 4.74796,0 7.67586,0.870457 3.00706,0.791325 5.85584,2.532253 v 9.258528 q -4.03578,-2.215715 -6.25149,-3.165317 -2.21571,-0.949588 -5.14362,-0.949588 -2.92791,0 -4.3523,0.949588 -1.42439,0.870456 -1.42439,2.532253 0,1.978322 1.58265,2.927909 1.58265,0.870457 5.06449,1.820044 3.95663,1.028734 6.25149,2.057452 2.29485,0.949603 4.11489,3.40271 1.82006,2.373977 1.82006,6.726289 -0.15826,6.805406 -5.14362,9.970722 -4.98536,3.086171 -12.66124,3.086171 z"
         style="font-weight:bold;font-size:medium;line-height:0%;font-family:'Maven Pro';fill:#000000;fill-opacity:1;stroke:none;stroke-width:0.30792567"
         id="path695"
         inkscape:connector-curvature="0" />
      <path
         d="m 187.36716,21.073878 q 6.56801,0 11.94903,3.086186 5.38103,3.00704 5.38103,10.920309 l -0.0792,18.912726 q -0.0792,4.985361 -4.98536,7.280206 -4.90623,2.215714 -14.32302,2.215714 -17.56747,0 -17.56747,-13.689956 0,-5.776686 3.56098,-9.021134 3.6401,-3.244448 10.76204,-3.244448 2.92791,0 5.85582,0.79134 2.92792,0.712195 5.06451,1.899175 v -2.532238 q 0,-6.884551 -8.86288,-6.884551 -3.40271,0 -7.04281,1.266127 -3.56097,1.18698 -5.69755,2.927908 V 24.555719 q 2.13658,-1.424389 6.48888,-2.453107 4.43144,-1.028734 9.49593,-1.028734 z m -1.6618,34.106201 q 4.11491,0 5.69756,-0.553932 1.58266,-0.553917 1.58266,-2.215714 v -6.172342 q -2.76964,-0.949603 -6.09322,-0.949603 -3.8775,0 -5.69756,1.186996 -1.74091,1.107865 -1.74091,3.560972 0,2.294846 1.82004,3.719234 1.89919,1.424389 4.43143,1.424389 z"
         style="font-weight:bold;font-size:medium;line-height:0%;font-family:'Maven Pro';fill:#000000;fill-opacity:1;stroke:none;stroke-width:0.30792567"
         id="path697"
         inkscape:connector-curvature="0" />
      <path
         d="m 215.16375,26.454909 q 1.18699,-1.028733 4.1149,-2.294845 3.00704,-1.266127 6.64715,-2.136583 3.71925,-0.949603 7.12194,-0.949603 6.56803,0 9.10027,1.978321 v 8.625464 q -3.16531,-0.712194 -9.10027,-0.712194 -3.71923,0 -6.09321,0.39567 v 30.940885 h -11.79078 z"
         style="font-weight:bold;font-size:medium;line-height:0%;font-family:'Maven Pro';fill:#000000;fill-opacity:1;stroke:none;stroke-width:0.30792567"
         id="path699"
         inkscape:connector-curvature="0" />
      <path
         d="m 265.34625,20.915616 q 18.75447,0 18.51706,24.452003 h -26.43033 q 1.50352,8.30894 11.15772,8.30894 2.92791,0 5.69756,-0.791325 2.84878,-0.870457 6.01408,-2.215714 v 10.128984 q -6.48888,2.690515 -14.56042,2.690515 -6.09322,0 -10.68291,-2.453122 -4.58971,-2.532239 -7.12195,-7.201075 -2.53225,-4.668822 -2.53225,-10.999441 0,-10.445523 5.14362,-16.143079 5.22277,-5.776686 14.79782,-5.776686 z m -0.47478,9.021134 q -6.33062,0 -7.51762,7.91327 h 14.79782 q -0.55393,-4.273167 -2.29484,-6.093226 -1.6618,-1.820044 -4.98536,-1.820044 z"
         style="font-weight:bold;font-size:medium;line-height:0%;font-family:'Maven Pro';fill:#000000;fill-opacity:1;stroke:none;stroke-width:0.30792567"
         id="path701"
         inkscape:connector-curvature="0" />
      <path
         d="M 316.42643,62.302024 303.92346,45.76329 303.84428,62.302024 H 292.13265 V 7.1465287 h 11.86989 l -0.0792,29.9121663 12.1073,-14.797821 h 14.32302 l -16.53873,17.40919 17.56747,22.63196 z"
         style="font-weight:bold;font-size:medium;line-height:0%;font-family:'Maven Pro';fill:#000000;fill-opacity:1;stroke:none;stroke-width:0.30792567"
         id="path703"
         inkscape:connector-curvature="0" />
    </g>
    <g
       id="g821">
      <g
         id="g551">
        <path
           class="st0"
           d="m 401.03289,-44.148517 v 1.35913 c -0.0378,0 -0.0378,0 -0.0755,0.03775 l -0.67956,-0.566304 c -1.51015,-1.283623 -3.13355,-2.416231 -4.94572,-3.322317 -0.30203,-0.151014 -0.60406,-0.339782 -0.94384,-0.415289 -0.0378,-0.03775 -0.0755,-0.07551 -0.11326,-0.07551 -0.67957,-0.264275 -1.35913,-0.490796 -2.07645,-0.679564 -1.5479,-0.339783 -3.0958,-0.377536 -4.64369,-0.07551 -2.00094,0.41529 -3.77536,1.283623 -5.47428,2.416231 -1.66115,1.132607 -3.1713,2.453983 -4.56818,3.850866 -0.26428,0.264276 -0.26428,0.264276 -0.41529,-0.07551 -0.75507,-1.547897 -1.58565,-3.058041 -2.605,-4.454924 -0.79282,-1.057101 -1.66116,-2.038694 -2.79376,-2.718259 -1.13261,-0.717318 -2.37848,-0.981594 -3.69986,-0.641811 -1.6234,0.377536 -2.94478,1.359129 -4.19065,2.41623 -0.75507,0.566304 -1.43463,1.245869 -2.1142,1.88768 -0.64181,0.566304 -1.24587,1.132608 -1.88768,1.698912 -0.11326,0.11326 -0.18877,0.11326 -0.30203,0 -0.64181,-0.679565 -1.32137,-1.283623 -2.1142,-1.698912 -1.17036,-0.641811 -2.37847,-0.717319 -3.62434,-0.302029 -1.0571,0.339782 -1.96319,0.906086 -2.90703,1.510144 -0.37754,0.226521 -0.71732,0.490797 -1.09485,0.679565 v -0.07551 c 0.0378,-0.07551 0.0378,-0.151014 0.0378,-0.226521 0.0755,-1.661158 0.18877,-3.36007 0.45304,-5.021228 0.37754,-2.30297 0.94384,-4.530432 1.96319,-6.60688 0.75507,-1.547897 1.77442,-2.982534 3.05804,-4.152895 1.69891,-1.547898 3.69985,-2.529491 5.88956,-3.133549 2.37848,-0.679565 4.79471,-0.981593 7.24869,-1.094854 0.9816,-0.03775 1.92544,-0.07551 2.90703,-0.113261 0.4908,0.188768 0.98159,0.302029 1.47239,0.453043 0.71732,0.226522 1.43464,0.453043 2.15195,0.641811 0.37754,0.151015 0.71732,0.264276 1.09486,0.41529 1.39688,0.490797 2.75601,1.132608 3.92637,2.076448 0.30203,0.226521 0.60406,0.490796 0.90609,0.755072 -0.0755,-0.226522 -0.15102,-0.41529 -0.22652,-0.641811 -0.52855,-1.396884 -1.32138,-2.529491 -2.605,-3.322317 -0.52855,-0.339782 -1.09485,-0.566304 -1.66116,-0.868333 0.0378,0 0.11326,0 0.15102,-0.03775 1.69891,-0.302029 3.43557,-0.453043 5.17224,-0.528551 1.47239,-0.07551 2.98253,-0.03775 4.45492,0.113261 1.73667,0.188768 3.43558,0.528551 5.05898,1.132608 2.41623,0.906086 4.49268,2.302969 6.11609,4.341664 1.39688,1.774419 2.30297,3.813113 2.86927,6.002821 0.5663,2.151955 0.79283,4.379418 0.86833,6.60688 -0.0378,0.792825 -0.0378,1.623404 -0.0378,2.453983 z"
           id="path24"
           inkscape:connector-curvature="0"
           style="fill:#24af63;stroke-width:0.37753597" />
        <path
           class="st4"
           d="m 401.03289,-46.640254 h 0.0378 v 2.491737 h -0.0378 z"
           id="path26"
           inkscape:connector-curvature="0"
           style="fill:#ecdc86;stroke-width:0.37753597" />
        <path
           class="st5"
           d="m 387.25283,-82.468416 v 0.03775 h -1.69891 v -0.03775 z"
           id="path28"
           inkscape:connector-curvature="0"
           style="fill:#a0918f;stroke-width:0.37753597" />
        <path
           class="st0"
           d="m 388.34768,-11.340642 c 0.94384,-0.377536 1.84993,-0.868332 2.75601,-1.359129 1.0571,-0.641811 2.0387,-1.321376 3.02029,-2.038694 0.83058,-0.604058 1.62341,-1.245869 2.41623,-1.925434 l 1.35913,-1.132608 c 0.0755,-0.07551 0.0755,-0.03775 0.11326,0.03775 0.15102,0.604058 0.26428,1.245869 0.41529,1.88768 0.18877,0.868333 0.30203,1.736665 0.41529,2.604998 0.11326,1.019347 0.15102,2.000941 0.0755,3.020288 -0.0755,1.2458683 -0.30203,2.491737 -0.75507,3.6620985 -0.26428,0.7173183 -0.60406,1.396883 -1.01935,2.0386942 -0.52855,0.8305791 -1.13261,1.585651 -1.88768,2.2274621 -0.86833,0.7928255 -1.84993,1.47239026 -2.90703,2.0386942 -1.39688,0.79282552 -2.90702,1.3591295 -4.45492,1.8121726 -1.47239,0.4530432 -2.98254,0.7550719 -4.49268,1.0193471 -0.41529,0.075507 -0.83058,0.1510144 -1.24587,0.1510144 -0.86833,-0.037754 -1.73666,-0.2265216 -2.56724,-0.5285504 -1.24587,-0.4907967 -2.34073,-1.24586863 -3.58659,-1.81217257 -0.67957,-0.30202876 -1.35913,-0.52855034 -2.07645,-0.56630394 -0.94384,-0.0755072 -1.73667,0.26427518 -2.41623,0.90608631 l -1.47239,1.4723902 c -0.83058,0.8305792 -1.81218,1.3968831 -2.98254,1.5856511 -0.79282,0.1132608 -1.54789,0.075507 -2.34072,-0.037754 -1.09485,-0.1510144 -2.15195,-0.4152896 -3.1713,-0.7173183 -1.51015,-0.4907968 -2.90703,-1.1703615 -4.19065,-2.15195502 -1.20812,-0.9060863 -2.15196,-2.03869418 -2.94478,-3.32231648 -0.79283,-1.3213758 -1.24587,-2.7182589 -1.58565,-4.1906491 -0.15102,-0.6418112 -0.22652,-1.3213759 -0.30203,-1.963187 -0.11326,-0.9438399 -0.15102,-1.8499259 -0.11326,-2.7937659 0.0378,-1.321376 0.15101,-2.604998 0.33978,-3.926374 0.15101,0.151015 0.30203,0.264275 0.41529,0.377536 0.83058,0.755072 1.77442,1.434637 2.75601,2.038694 1.09486,0.641811 2.30297,1.170362 3.54884,1.510144 0.83058,0.226522 1.69891,0.377536 2.56724,0.41529 0.71732,0.07551 1.43464,0.07551 2.15196,0.03775 0.83058,-0.03775 1.69891,-0.11326 2.52949,-0.339782 0.11326,0 0.22652,0 0.30203,-0.03775 0.75507,-0.151014 1.51014,-0.339782 2.26522,-0.566304 0.86833,-0.264275 1.69891,-0.52855 2.52949,-0.830579 0.79282,-0.302028 1.6234,-0.641811 2.41623,-0.981593 0.22652,-0.113261 0.37753,-0.07551 0.5663,0.07551 1.32138,1.019347 2.75601,1.88768 4.30391,2.529491 1.73667,0.679565 3.51108,1.019347 5.36101,0.868333 1.35913,-0.264276 2.64275,-0.604058 3.88862,-1.094855 z"
           id="path30"
           inkscape:connector-curvature="0"
           style="fill:#24af63;stroke-width:0.37753597" />
        <path
           class="st4"
           d="m 388.34768,-11.340642 c -1.24587,0.490797 -2.52949,0.830579 -3.85087,0.94384 -1.84992,0.151015 -3.62434,-0.188768 -5.36101,-0.868332 -1.54789,-0.604058 -2.98253,-1.472391 -4.30391,-2.529491 -0.18876,-0.151015 -0.33978,-0.188768 -0.5663,-0.07551 -0.79283,0.339783 -1.58565,0.679565 -2.41623,0.981594 -0.83058,0.302029 -1.66116,0.604057 -2.52949,0.830579 -0.75507,0.226522 -1.51014,0.377536 -2.26522,0.566304 -0.11326,0.03775 -0.22652,0.03775 -0.30203,0.03775 0.26428,-0.302029 0.52855,-0.604058 0.79283,-0.906087 1.0571,-1.208115 1.81217,-2.604998 2.22746,-4.190649 0.60406,-2.114201 1.20812,-4.266156 1.73667,-6.418111 0.37753,-1.585651 0.67956,-3.171302 0.90608,-4.794707 0.15102,-1.170361 0.37754,-5.625286 0.30203,-6.682386 -0.18877,-3.24681 -0.90608,-6.342605 -2.22746,-9.325139 -0.79283,-1.774419 -2.15195,-2.982534 -4.03963,-3.47333 -0.83058,-0.226522 -1.66116,-0.151015 -2.45399,0.11326 -0.0755,0.03775 -0.11326,0.07551 -0.18877,0.03775 1.24587,-1.057101 2.52949,-2.038694 4.19065,-2.41623 1.32138,-0.302029 2.56725,-0.07551 3.69986,0.641811 1.1326,0.717318 2.00094,1.661158 2.79376,2.718259 1.01935,1.396883 1.84993,2.907027 2.605,4.454924 0.15101,0.339783 0.15101,0.339783 0.41529,0.07551 1.39688,-1.434636 2.90703,-2.756012 4.56818,-3.850866 1.66116,-1.132608 3.47334,-2.000941 5.47428,-2.416231 1.54789,-0.302028 3.09579,-0.264275 4.64369,0.07551 0.71732,0.151014 1.39688,0.377536 2.07645,0.679564 0.0378,0.03775 0.11326,0.03775 0.11326,0.07551 -2.00094,0.03775 -3.69986,0.792825 -5.24775,1.963187 -0.75508,0.566303 -1.43464,1.208115 -1.96319,2.00094 -0.41529,0.641811 -0.79283,1.35913 -1.09485,2.076448 -0.67957,1.434637 -1.24587,2.94478 -1.66116,4.492678 -0.33978,1.321376 -0.56631,2.680505 -0.67957,4.039635 -0.0755,1.0571 -0.11326,2.114201 -0.0755,3.171302 0.0377,1.283622 0.18876,2.567244 0.33978,3.88862 0.26427,2.151955 0.64181,4.30391 1.01934,6.455865 0.18877,1.170361 0.33979,2.378477 0.56631,3.586592 0.26427,1.736665 1.24587,3.020287 2.64275,4.001881 0,-0.03775 0.0755,0 0.11326,0.03775 z"
           id="path32-3"
           inkscape:connector-curvature="0"
           style="fill:#ecdc86;stroke-width:0.37753597" />
        <path
           class="st6"
           d="m 385.55392,-82.430663 h 1.69891 c 1.35913,0.07551 2.71826,0.302029 4.00188,0.755072 1.01935,0.339782 1.24587,1.019347 0.64181,1.88768 -0.41529,0.604057 -1.01935,1.057101 -1.66116,1.47239 -0.79282,0.52855 -1.66116,0.981594 -2.605,1.321376 -0.94384,0.377536 -1.84992,0 -2.45398,-0.94384 -0.18877,-0.302029 -0.33978,-0.604058 -0.41529,-0.94384 -0.0378,-0.113261 -0.0755,-0.151014 -0.18877,-0.151014 -2.1142,-0.377536 -4.00188,0.113261 -5.54978,1.623404 -1.28362,1.208115 -2.03869,2.756013 -2.56724,4.417171 -0.4908,1.510144 -0.71732,3.020288 -0.79283,4.605939 -0.0755,1.396883 0.0378,2.793766 0.22652,4.152895 0.0378,0.226522 0.11327,0.453044 0.11327,0.717319 0.0378,0.302028 -0.0755,0.566304 -0.30203,0.717318 -0.26428,0.188768 -0.56631,0.151014 -0.86834,0.151014 -0.71731,-0.226521 -1.43463,-0.453043 -2.15195,-0.641811 v -0.490796 c 0,-0.755072 0,-1.472391 0.0378,-2.227463 0.15102,-2.907027 0.60406,-5.7763 1.73667,-8.494559 0.83058,-2.038694 2.03869,-3.813113 3.7376,-5.209996 1.39689,-1.170361 2.98254,-1.925433 4.75696,-2.340723 0.90608,-0.226522 1.73666,-0.339782 2.605,-0.377536 z"
           id="path34"
           inkscape:connector-curvature="0"
           style="fill:#3f2b29;stroke-width:0.37753597" />
        <path
           class="st7"
           d="m 374.86965,-62.685532 c 0.30203,0 0.60406,0.03775 0.86833,-0.151015 0.26428,-0.188768 0.33978,-0.453043 0.30203,-0.717318 -0.0378,-0.226521 -0.0755,-0.490797 -0.11326,-0.717318 0.15101,0 0.26427,-0.03775 0.41529,-0.03775 0.52855,0.302029 1.09485,0.566304 1.66116,0.868333 1.28362,0.792825 2.07644,1.925433 2.60499,3.322316 0.0755,0.226522 0.15102,0.41529 0.22653,0.641811 -0.30203,-0.264275 -0.60406,-0.52855 -0.90609,-0.755071 -1.20812,-0.906087 -2.52949,-1.547898 -3.92637,-2.076448 -0.41529,-0.113261 -0.75508,-0.226522 -1.13261,-0.377536 z"
           id="path36"
           inkscape:connector-curvature="0"
           style="fill:#396e35;stroke-width:0.37753597" />
        <path
           class="st7"
           d="m 372.71769,-63.81814 v 0.490797 c -0.49079,-0.151015 -0.98159,-0.264275 -1.47239,-0.453043 0.52855,-0.03775 1.01935,-0.03775 1.47239,-0.03775 z"
           id="path38"
           inkscape:connector-curvature="0"
           style="fill:#396e35;stroke-width:0.37753597" />
      </g>
      <g
         id="g596">
        <path
           inkscape:connector-curvature="0"
           id="path569"
           style="font-weight:bold;font-size:medium;line-height:0%;font-family:'Maven Pro';fill:#000000;fill-opacity:1;stroke:none;stroke-width:0.37753597"
           d="m 150.58729,-13.861192 q -5.8632,0 -10.61714,-2.29774 -4.75394,-2.29774 -7.60631,-6.89322 -2.77314,-4.674713 -2.77314,-11.330235 0,-10.696376 5.70474,-16.163413 5.70473,-5.546269 15.21262,-5.546269 3.32776,0 6.73476,0.713092 3.40699,0.633859 6.02166,1.822345 v 10.141749 q -3.24853,-1.426183 -5.78397,-2.139275 -2.53543,-0.792324 -5.07087,-0.792324 -5.22934,0 -8.16094,2.61467 -2.9316,2.535437 -2.9316,8.002474 0,6.100896 2.6939,9.032495 2.77314,2.931599 8.95327,2.931599 4.67471,0 10.37944,-3.169296 v 10.062516 q -2.85236,1.505416 -5.94243,2.218508 -3.01083,0.792324 -6.81399,0.792324 z" />
        <path
           inkscape:connector-curvature="0"
           id="path571"
           style="font-weight:bold;font-size:medium;line-height:0%;font-family:'Maven Pro';fill:#000000;fill-opacity:1;stroke:none;stroke-width:0.37753597"
           d="m 189.64516,-13.702727 q -10.14175,0 -15.21262,-5.387804 -5.07088,-5.387805 -5.07088,-16.004948 0,-11.092538 4.99164,-16.163413 5.07088,-5.070874 15.29186,-5.070874 10.22098,0 15.37109,5.229339 5.15011,5.150107 5.15011,16.004948 0,10.458679 -5.30858,15.925715 -5.30857,5.467037 -15.21262,5.467037 z m 0,-9.428657 q 4.35778,0 6.57629,-3.010832 2.21851,-3.090064 2.21851,-8.953263 0,-6.417826 -2.21851,-9.111728 -2.13927,-2.773134 -6.57629,-2.773134 -4.59548,0 -6.65552,2.773134 -1.98081,2.693902 -1.98081,9.111728 0,6.100896 2.06004,9.032495 2.13927,2.9316 6.57629,2.9316 z" />
        <path
           inkscape:connector-curvature="0"
           id="path573"
           style="font-weight:bold;font-size:medium;line-height:0%;font-family:'Maven Pro';fill:#000000;fill-opacity:1;stroke:none;stroke-width:0.37753597"
           d="m 218.31492,-50.783497 q 1.18848,-1.030021 4.12008,-2.29774 3.01084,-1.267719 6.65553,-2.139275 3.72392,-0.950789 7.13091,-0.950789 6.57629,0 9.11173,1.98081 v 8.636333 q -3.1693,-0.713091 -9.11173,-0.713091 -3.72392,0 -6.10089,0.396162 v 30.979874 h -11.80563 z" />
        <path
           inkscape:connector-curvature="0"
           id="path575"
           style="font-weight:bold;font-size:medium;line-height:0%;font-family:'Maven Pro';fill:#000000;fill-opacity:1;stroke:none;stroke-width:0.37753597"
           d="m 268.56064,-56.329766 q 18.77809,0 18.54039,24.482816 H 260.6374 q 1.50542,8.319403 11.17177,8.319403 2.9316,0 5.70474,-0.792324 2.85236,-0.871556 6.02166,-2.218507 v 10.141749 q -6.49706,2.693902 -14.57876,2.693902 -6.1009,0 -10.69638,-2.456205 -4.59548,-2.535437 -7.13092,-7.21015 -2.53543,-4.674712 -2.53543,-11.013305 0,-10.458679 5.1501,-16.163413 5.22934,-5.783966 14.81646,-5.783966 z m -0.47539,9.032495 q -6.33859,0 -7.52708,7.923242 h 14.81646 q -0.55462,-4.278551 -2.29774,-6.100896 -1.66388,-1.822346 -4.99164,-1.822346 z" />
        <path
           inkscape:connector-curvature="0"
           id="path577"
           style="font-weight:bold;font-size:medium;line-height:0%;font-family:'Maven Pro';fill:#000000;fill-opacity:1;stroke:none;stroke-width:0.37753597"
           d="m 318.12052,-74.790919 h 8.47787 l -29.15753,67.6644822 h -8.39863 z" />
      </g>
      <g
         id="g589">
        <path
           inkscape:connector-curvature="0"
           id="path559"
           style="font-weight:bold;font-size:79.23241425px;line-height:0%;font-family:'Maven Pro';fill:#24af63;fill-opacity:1;stroke:none;stroke-width:0.37753597"
           d="m 15.436598,-51.575821 q 3.090064,-1.663881 9.428657,-3.090064 6.338593,-1.426184 11.330235,-1.426184 8.477868,0 12.756419,3.327762 4.27855,3.327761 4.27855,10.934073 v 26.939021 h -11.80563 v -24.562049 q 0,-6.89322 -7.764776,-6.89322 -1.743113,0 -3.565459,0.396162 -1.822345,0.396162 -2.852367,0.950789 v 30.108318 H 15.436598 Z" />
        <path
           inkscape:connector-curvature="0"
           id="path561"
           style="font-weight:bold;font-size:79.23241425px;line-height:0%;font-family:'Maven Pro';fill:#24af63;fill-opacity:1;stroke:none;stroke-width:0.37753597"
           d="m 66.729683,-45.95032 h -5.863199 v -9.032495 h 5.942431 v -0.950789 q 0.07923,-9.032495 4.120086,-12.518721 4.120085,-3.565459 11.17177,-3.565459 1.267719,0 2.773134,0.237697 1.505416,0.237697 2.456205,0.554627 v 10.379446 q -0.871556,-0.871556 -1.743113,-1.267718 -0.871556,-0.475395 -2.218507,-0.475395 -2.218508,0 -3.486227,1.188486 -1.267718,1.188487 -1.267718,4.040854 v 2.376972 h 8.715565 v 9.032495 h -8.794798 v 31.059107 H 66.729683 Z" />
        <path
           inkscape:connector-curvature="0"
           id="path563"
           style="font-weight:bold;font-size:79.23241425px;line-height:0%;font-family:'Maven Pro';fill:#24af63;fill-opacity:1;stroke:none;stroke-width:0.37753597"
           d="m 96.008535,-43.256418 h 24.165885 v 8.160939 H 96.008535 Z" />
        <path
           d="m 105.17203,-43.255454 -8.129199,8.160957 h 23.064239 v -8.160957 z"
           id="path67"
           inkscape:connector-curvature="0"
           style="display:inline;fill:url(#linearGradient297);stroke-width:0.37753597" />
      </g>
    </g>
  </g>
</svg>
