<?xml version="1.0" encoding="UTF-8" standalone="no"?>
<!-- Created with Inkscape (http://www.inkscape.org/) -->

<svg
   xmlns:dc="http://purl.org/dc/elements/1.1/"
   xmlns:cc="http://creativecommons.org/ns#"
   xmlns:rdf="http://www.w3.org/1999/02/22-rdf-syntax-ns#"
   xmlns:svg="http://www.w3.org/2000/svg"
   xmlns="http://www.w3.org/2000/svg"
   xmlns:sodipodi="http://sodipodi.sourceforge.net/DTD/sodipodi-0.dtd"
   xmlns:inkscape="http://www.inkscape.org/namespaces/inkscape"
   version="1.1"
   id="svg2"
   xml:space="preserve"
   width="384.11472"
   height="100"
   viewBox="0 0 384.11472 99.999999"
   sodipodi:docname="NGI.svg"
   inkscape:version="0.92.3 (2405546, 2018-03-11)"
   inkscape:export-filename="NGI.png"
   inkscape:export-xdpi="96"
   inkscape:export-ydpi="96"><metadata
     id="metadata8"><rdf:RDF><cc:Work
         rdf:about=""><dc:format>image/svg+xml</dc:format><dc:type
           rdf:resource="http://purl.org/dc/dcmitype/StillImage" /><dc:title></dc:title></cc:Work></rdf:RDF></metadata><defs
     id="defs6"><clipPath
       clipPathUnits="userSpaceOnUse"
       id="clipPath28"><path
         d="M 0,0 H 411 V 107 H 0 Z"
         id="path26"
         inkscape:connector-curvature="0" /></clipPath><clipPath
       clipPathUnits="userSpaceOnUse"
       id="clipPath38"><path
         d="m 99.391,105.086 h 311 v -105 h -311 z"
         id="path36"
         inkscape:connector-curvature="0" /></clipPath><clipPath
       clipPathUnits="userSpaceOnUse"
       id="clipPath48"><path
         d="M 99,0 H 411 V 105 H 99 Z"
         id="path46"
         inkscape:connector-curvature="0" /></clipPath></defs><sodipodi:namedview
     pagecolor="#ffffff"
     bordercolor="#666666"
     borderopacity="1"
     objecttolerance="10"
     gridtolerance="10"
     guidetolerance="10"
     inkscape:pageopacity="0"
     inkscape:pageshadow="2"
     inkscape:window-width="1920"
     inkscape:window-height="1012"
     id="namedview4"
     showgrid="false"
     inkscape:zoom="0.45889676"
     inkscape:cx="273.48199"
     inkscape:cy="71.197998"
     inkscape:window-x="1920"
     inkscape:window-y="312"
     inkscape:window-maximized="1"
     inkscape:current-layer="g10"
     fit-margin-top="0"
     fit-margin-left="0"
     fit-margin-right="0"
     fit-margin-bottom="0" /><g
     id="g10"
     inkscape:groupmode="layer"
     inkscape:label="NGI"
     transform="matrix(1.3333333,0,0,-1.3333333,0,100.00001)"><g
       id="g12"
       transform="matrix(0.70226694,0,0,0.70226694,0,1.4886653e-6)"><path
         d="m 103.711,1.207 v 2.891 h 6.738 v 23.125 h -6.738 v 2.894 h 17.348 V 27.223 H 114.32 V 4.098 h 6.739 V 1.207 Z"
         style="fill:#2e86ef;fill-opacity:1;fill-rule:nonzero;stroke:none"
         id="path14"
         inkscape:connector-curvature="0" /><path
         d="m 125.328,1.207 v 28.91 h 3.652 l 11.485,-21.984 0.039,0.012 v 21.972 h 3.144 V 1.207 h -3.554 l -11.563,22.141 -0.058,-0.02 V 1.207 Z"
         style="fill:#2e86ef;fill-opacity:1;fill-rule:nonzero;stroke:none"
         id="path16"
         inkscape:connector-curvature="0" /><path
         d="m 149.363,1.207 v 28.91 h 17.836 V 27.223 H 153.23 v -10.43 h 11.918 V 13.902 H 153.23 V 1.207 Z"
         style="fill:#2e86ef;fill-opacity:1;fill-rule:nonzero;stroke:none"
         id="path18"
         inkscape:connector-curvature="0" /><g
         id="g20"
         transform="translate(0,-0.202995)"><g
           id="g22"><g
             id="g24"
             clip-path="url(#clipPath28)"><g
               id="g30" /><g
               id="g32"><g
                 id="g34"
                 clip-path="url(#clipPath38)"><g
                   id="g40"><g
                     id="g42"><g
                       id="g44"
                       clip-path="url(#clipPath48)"><g
                         id="g50"><path
                           d="m 174.105,16.664 h 2.028 c 2.222,0 3.898,0.629 5.027,1.887 1.129,1.254 1.695,2.73 1.695,4.426 0,0.894 -0.187,1.675 -0.554,2.339 -0.371,0.668 -0.957,1.184 -1.766,1.555 -0.805,0.371 -2.164,0.559 -4.074,0.559 h -2.356 z M 170.238,1.41 v 28.91 h 7.004 c 2.703,0 4.656,-0.254 5.852,-0.761 1.195,-0.508 2.136,-1.348 2.82,-2.512 0.684,-1.164 1.024,-2.418 1.024,-3.762 0,-1.39 -0.391,-2.844 -1.176,-4.355 -0.785,-1.508 -2.328,-2.852 -4.621,-4.024 L 190.133,1.41 h -4.66 l -7.907,12.363 h -3.461 V 1.41 Z"
                           style="fill:#2e86ef;fill-opacity:1;fill-rule:nonzero;stroke:none"
                           id="path52"
                           inkscape:connector-curvature="0" /><path
                           d="m 214.055,2.074 v 3.809 c 3.383,-1.535 6.293,-2.305 8.73,-2.305 1.094,0 2.117,0.207 3.074,0.617 0.957,0.407 1.688,1.016 2.188,1.825 0.504,0.808 0.754,1.668 0.754,2.578 0,1.847 -1.149,3.371 -3.438,4.57 l -5.605,2.93 c -2.059,1.082 -3.492,2.203 -4.297,3.359 -0.809,1.16 -1.211,2.516 -1.211,4.063 0,2.007 0.703,3.761 2.109,5.265 1.407,1.504 3.633,2.254 6.68,2.254 2.211,0 4.727,-0.387 7.539,-1.168 v -3.34 c -2.812,1.078 -5.328,1.621 -7.539,1.621 -1.031,0 -1.953,-0.156 -2.766,-0.461 -0.812,-0.304 -1.421,-0.789 -1.824,-1.445 -0.406,-0.656 -0.605,-1.359 -0.605,-2.101 0,-0.872 0.277,-1.676 0.84,-2.418 0.546,-0.747 1.554,-1.493 3.027,-2.25 l 5.234,-2.715 c 2.227,-1.145 3.739,-2.305 4.532,-3.477 0.793,-1.172 1.191,-2.527 1.191,-4.062 0,-2.422 -0.887,-4.45 -2.656,-6.082 -1.77,-1.637 -4.332,-2.453 -7.676,-2.453 -0.859,0 -1.824,0.062 -2.891,0.187 -1.07,0.121 -2.867,0.523 -5.39,1.199"
                           style="fill:#2e86ef;fill-opacity:1;fill-rule:nonzero;stroke:none"
                           id="path54"
                           inkscape:connector-curvature="0" /><path
                           d="m 262.52,16.664 h 2.023 c 2.223,0 3.898,0.629 5.031,1.887 1.129,1.254 1.696,2.73 1.696,4.426 0,0.894 -0.188,1.675 -0.559,2.339 -0.367,0.668 -0.957,1.184 -1.762,1.555 -0.808,0.371 -2.164,0.559 -4.074,0.559 H 262.52 Z M 258.652,1.41 v 28.91 h 7 c 2.707,0 4.657,-0.254 5.856,-0.761 1.195,-0.508 2.137,-1.348 2.82,-2.512 0.68,-1.164 1.024,-2.418 1.024,-3.762 0,-1.39 -0.395,-2.844 -1.18,-4.355 -0.785,-1.508 -2.324,-2.852 -4.617,-4.024 L 278.543,1.41 h -4.656 l -7.907,12.363 h -3.46 V 1.41 Z"
                           style="fill:#2e86ef;fill-opacity:1;fill-rule:nonzero;stroke:none"
                           id="path56"
                           inkscape:connector-curvature="0" /><path
                           d="m 280.148,30.32 h 3.848 V 11.137 c 0,-2.289 0.231,-3.895 0.692,-4.813 0.464,-0.918 1.082,-1.605 1.855,-2.062 0.777,-0.453 1.703,-0.684 2.785,-0.684 1.574,0 2.899,0.481 3.973,1.438 1.074,0.957 1.613,3.027 1.613,6.218 V 30.32 h 3.359 V 11.801 c 0,-2.082 -0.109,-3.653 -0.332,-4.707 -0.363,-1.719 -1.281,-3.215 -2.746,-4.492 -1.465,-1.278 -3.406,-1.914 -5.828,-1.914 -2.89,0 -5.156,0.828 -6.797,2.48 -0.836,0.848 -1.441,1.844 -1.816,2.988 -0.25,0.758 -0.41,1.492 -0.492,2.207 -0.074,0.719 -0.114,1.66 -0.114,2.832 z"
                           style="fill:#2e86ef;fill-opacity:1;fill-rule:nonzero;stroke:none"
                           id="path58"
                           inkscape:connector-curvature="0" /><path
                           d="m 346.457,30.32 h 3.848 V 11.137 c 0,-2.289 0.23,-3.895 0.695,-4.813 0.461,-0.918 1.078,-1.605 1.855,-2.062 0.774,-0.453 1.7,-0.684 2.782,-0.684 1.578,0 2.902,0.481 3.976,1.438 1.075,0.957 1.61,3.027 1.61,6.218 V 30.32 h 3.359 V 11.801 c 0,-2.082 -0.109,-3.653 -0.332,-4.707 -0.363,-1.719 -1.277,-3.215 -2.742,-4.492 -1.465,-1.278 -3.41,-1.914 -5.832,-1.914 -2.891,0 -5.156,0.828 -6.797,2.48 -0.832,0.848 -1.438,1.844 -1.817,2.988 -0.246,0.758 -0.41,1.492 -0.488,2.207 -0.078,0.719 -0.117,1.66 -0.117,2.832 z"
                           style="fill:#2e86ef;fill-opacity:1;fill-rule:nonzero;stroke:none"
                           id="path60"
                           inkscape:connector-curvature="0" /><path
                           d="m 373.035,16.664 h 2.024 c 2.222,0 3.898,0.629 5.031,1.887 1.129,1.254 1.695,2.73 1.695,4.426 0,0.894 -0.187,1.675 -0.555,2.339 -0.371,0.668 -0.96,1.184 -1.765,1.555 -0.805,0.371 -2.164,0.559 -4.074,0.559 h -2.356 z M 369.168,1.41 v 28.91 h 7 c 2.707,0 4.66,-0.254 5.855,-0.761 1.196,-0.508 2.137,-1.348 2.821,-2.512 0.679,-1.164 1.023,-2.418 1.023,-3.762 0,-1.39 -0.394,-2.844 -1.179,-4.355 -0.782,-1.508 -2.325,-2.852 -4.618,-4.024 L 389.059,1.41 h -4.657 l -7.906,12.363 h -3.461 V 1.41 Z"
                           style="fill:#2e86ef;fill-opacity:1;fill-rule:nonzero;stroke:none"
                           id="path62"
                           inkscape:connector-curvature="0" /><path
                           d="m 391.895,1.41 v 28.91 h 16.933 v -2.894 h -13.066 v -9.278 h 11.074 v -2.89 H 395.762 V 4.301 h 13.965 V 1.41 Z"
                           style="fill:#2e86ef;fill-opacity:1;fill-rule:nonzero;stroke:none"
                           id="path64"
                           inkscape:connector-curvature="0" /><path
                           d="m 196.07,12.484 h 8.676 l -4.34,12.692 z m -7.09,-11.074 9.883,28.91 h 3.848 l 9.883,-28.91 h -4.063 L 205.73,9.594 H 195.078 L 192.281,1.41 Z"
                           style="fill:#8e8e8e;fill-opacity:1;fill-rule:nonzero;stroke:none"
                           id="path66"
                           inkscape:connector-curvature="0" /><path
                           d="m 243.07,1.41 v 26.016 h -9.629 v 2.894 h 23.125 v -2.894 h -9.628 V 1.41 Z"
                           style="fill:#8e8e8e;fill-opacity:1;fill-rule:nonzero;stroke:none"
                           id="path68"
                           inkscape:connector-curvature="0" /><path
                           d="m 321.82,2.074 c -2.55,-0.926 -4.98,-1.386 -7.285,-1.386 -1.976,0 -3.765,0.324 -5.359,0.976 -1.598,0.652 -2.922,1.543 -3.977,2.676 -1.34,1.433 -2.336,3.133 -2.98,5.098 -0.641,1.964 -0.965,4.039 -0.965,6.21 0,2.149 0.316,4.254 0.949,6.313 0.629,2.055 1.512,3.734 2.645,5.039 1.16,1.328 2.582,2.332 4.269,3.016 1.684,0.683 3.461,1.023 5.321,1.023 2.164,0 4.511,-0.371 7.05,-1.113 v -3.555 c -2.578,1.188 -4.965,1.781 -7.156,1.781 -1.355,0 -2.617,-0.312 -3.785,-0.929 -1.164,-0.618 -2.102,-1.457 -2.805,-2.512 -0.82,-1.234 -1.43,-2.637 -1.82,-4.207 -0.391,-1.57 -0.586,-3.176 -0.586,-4.816 0,-3.543 0.879,-6.368 2.641,-8.477 0.914,-1.082 2.019,-1.914 3.324,-2.5 1.304,-0.586 2.711,-0.879 4.222,-0.879 1.762,0 3.86,0.469 6.297,1.406 z"
                           style="fill:#8e8e8e;fill-opacity:1;fill-rule:nonzero;stroke:none"
                           id="path70"
                           inkscape:connector-curvature="0" /><path
                           d="m 331.484,1.41 v 26.016 h -9.629 v 2.894 h 23.125 v -2.894 h -9.628 V 1.41 Z"
                           style="fill:#8e8e8e;fill-opacity:1;fill-rule:nonzero;stroke:none"
                           id="path72"
                           inkscape:connector-curvature="0" /><path
                           d="m 214.129,37.945 v 28.91 h 16.933 v -2.89 H 217.996 V 54.688 H 229.07 V 51.797 H 217.996 V 40.84 h 13.965 v -2.895 z"
                           style="fill:#2e86ef;fill-opacity:1;fill-rule:nonzero;stroke:none"
                           id="path74"
                           inkscape:connector-curvature="0" /><path
                           d="m 234.902,37.945 v 28.91 h 3.653 l 11.488,-21.984 0.039,0.012 v 21.972 h 3.145 v -28.91 h -3.555 l -11.563,22.137 -0.062,-0.016 V 37.945 Z"
                           style="fill:#2e86ef;fill-opacity:1;fill-rule:nonzero;stroke:none"
                           id="path76"
                           inkscape:connector-curvature="0" /><path
                           d="m 266.156,40.117 c 2.192,0 3.867,1.016 5.028,3.047 1.16,2.031 1.742,5.117 1.742,9.258 0,4.125 -0.582,7.203 -1.742,9.226 -1.161,2.028 -2.836,3.04 -5.028,3.04 -2.176,0 -3.847,-1.012 -5.008,-3.04 -1.16,-2.023 -1.738,-5.101 -1.738,-9.226 0,-4.141 0.574,-7.227 1.731,-9.258 1.152,-2.031 2.824,-3.047 5.015,-3.047 m 0.012,-2.894 c -3.492,0 -6.172,1.429 -8.039,4.281 -1.867,2.848 -2.801,6.484 -2.801,10.898 0,4.426 0.938,8.063 2.813,10.907 1.875,2.847 4.55,4.269 8.027,4.269 3.488,0 6.168,-1.422 8.035,-4.269 1.871,-2.844 2.805,-6.481 2.805,-10.907 0,-4.414 -0.934,-8.05 -2.805,-10.898 -1.867,-2.852 -4.547,-4.281 -8.035,-4.281"
                           style="fill:#2e86ef;fill-opacity:1;fill-rule:nonzero;stroke:none"
                           id="path78"
                           inkscape:connector-curvature="0" /><path
                           d="m 278.055,37.945 v 28.91 h 4.629 l 5.507,-16.445 h 0.039 l 5.411,16.445 h 4.824 v -28.91 h -3.145 v 25.453 h -0.039 L 289.59,45.66 h -3.086 l -5.734,17.129 -0.04,-0.012 V 37.938 h -2.675 z"
                           style="fill:#2e86ef;fill-opacity:1;fill-rule:nonzero;stroke:none"
                           id="path80"
                           inkscape:connector-curvature="0" /><path
                           d="m 301.703,37.945 v 2.895 h 6.738 v 23.125 h -6.738 v 2.89 h 17.344 v -2.89 h -6.738 V 40.84 h 6.738 v -2.895 z"
                           style="fill:#2e86ef;fill-opacity:1;fill-rule:nonzero;stroke:none"
                           id="path82"
                           inkscape:connector-curvature="0" /><path
                           d="m 345.73,38.609 v 3.813 c 3.387,-1.539 6.297,-2.305 8.735,-2.305 1.094,0 2.117,0.203 3.074,0.613 0.957,0.411 1.688,1.02 2.188,1.829 0.503,0.804 0.753,1.664 0.753,2.578 0,1.847 -1.148,3.371 -3.437,4.57 l -5.605,2.93 c -2.059,1.078 -3.493,2.199 -4.297,3.359 -0.809,1.156 -1.211,2.512 -1.211,4.063 0,2.003 0.703,3.757 2.105,5.261 1.41,1.504 3.637,2.258 6.684,2.258 2.211,0 4.726,-0.39 7.539,-1.172 v -3.34 c -2.813,1.082 -5.328,1.622 -7.539,1.622 -1.031,0 -1.953,-0.153 -2.766,-0.461 -0.812,-0.305 -1.422,-0.786 -1.824,-1.446 -0.406,-0.656 -0.609,-1.355 -0.609,-2.097 0,-0.872 0.281,-1.68 0.843,-2.422 0.547,-0.742 1.555,-1.492 3.028,-2.246 l 5.234,-2.715 c 2.227,-1.145 3.734,-2.305 4.531,-3.477 0.793,-1.172 1.192,-2.527 1.192,-4.062 0,-2.422 -0.887,-4.453 -2.657,-6.086 -1.769,-1.637 -4.332,-2.453 -7.675,-2.453 -0.86,0 -1.825,0.062 -2.891,0.187 -1.07,0.121 -2.867,0.524 -5.395,1.199"
                           style="fill:#2e86ef;fill-opacity:1;fill-rule:nonzero;stroke:none"
                           id="path84"
                           inkscape:connector-curvature="0" /><path
                           d="m 209.859,38.59 c -2.019,-0.676 -3.492,-1.074 -4.414,-1.188 -0.925,-0.121 -1.816,-0.175 -2.675,-0.175 -2.774,0 -5.141,0.57 -7.102,1.714 -1.961,1.149 -3.508,2.899 -4.648,5.258 -1.141,2.356 -1.708,5.071 -1.708,8.145 0,2.914 0.52,5.554 1.559,7.918 1.043,2.363 2.578,4.176 4.609,5.429 2.036,1.258 4.422,1.887 7.172,1.887 2.032,0 4.336,-0.359 6.914,-1.074 v -3.555 c -2.398,1.156 -4.765,1.739 -7.097,1.739 -1.75,0 -3.313,-0.473 -4.696,-1.418 -1.382,-0.942 -2.457,-2.434 -3.226,-4.473 -0.77,-2.039 -1.152,-4.266 -1.152,-6.688 0,-2.449 0.417,-4.535 1.257,-6.261 0.84,-1.727 2.051,-3.075 3.633,-4.043 1.582,-0.969 3.313,-1.453 5.188,-1.453 0.648,0 1.488,0.089 2.519,0.269 v 9.77 h 3.867 z"
                           style="fill:#8e8e8e;fill-opacity:1;fill-rule:nonzero;stroke:none"
                           id="path86"
                           inkscape:connector-curvature="0" /><path
                           d="m 342.984,38.609 c -2.55,-0.921 -4.98,-1.386 -7.285,-1.386 -1.98,0 -3.765,0.328 -5.359,0.98 -1.598,0.649 -2.922,1.543 -3.977,2.676 -1.34,1.43 -2.336,3.129 -2.98,5.098 -0.645,1.964 -0.965,4.035 -0.965,6.211 0,2.148 0.316,4.25 0.949,6.308 0.629,2.059 1.512,3.734 2.645,5.039 1.16,1.328 2.582,2.332 4.265,3.016 1.688,0.683 3.465,1.027 5.325,1.027 2.164,0 4.511,-0.371 7.05,-1.113 V 62.91 c -2.582,1.184 -4.968,1.778 -7.156,1.778 -1.355,0 -2.617,-0.309 -3.785,-0.93 -1.168,-0.617 -2.102,-1.453 -2.805,-2.508 -0.82,-1.238 -1.429,-2.641 -1.82,-4.211 -0.391,-1.57 -0.586,-3.172 -0.586,-4.812 0,-3.543 0.879,-6.372 2.641,-8.477 0.91,-1.082 2.019,-1.918 3.324,-2.5 1.305,-0.586 2.711,-0.879 4.223,-0.879 1.761,0 3.859,0.469 6.296,1.406 z"
                           style="fill:#8e8e8e;fill-opacity:1;fill-rule:nonzero;stroke:none"
                           id="path88"
                           inkscape:connector-curvature="0" /><path
                           d="m 106.59,49.023 h 8.676 l -4.34,12.688 z m -7.09,-11.078 9.887,28.91 h 3.847 l 9.883,-28.91 h -4.066 l -2.797,8.184 h -10.652 l -2.801,-8.184 z"
                           style="fill:#eeeeee;fill-opacity:1;fill-rule:nonzero;stroke:none"
                           id="path90"
                           inkscape:connector-curvature="0" /><path
                           d="m 131.488,37.945 v 26.02 h -9.629 v 2.89 h 23.125 v -2.89 h -9.629 v -26.02 z"
                           style="fill:#eeeeee;fill-opacity:1;fill-rule:nonzero;stroke:none"
                           id="path92"
                           inkscape:connector-curvature="0" /><path
                           d="m 166.035,38.609 c -2.555,-0.921 -4.98,-1.386 -7.289,-1.386 -1.976,0 -3.766,0.328 -5.359,0.98 -1.594,0.649 -2.922,1.543 -3.977,2.676 -1.34,1.43 -2.332,3.129 -2.976,5.098 -0.645,1.964 -0.969,4.035 -0.969,6.211 0,2.148 0.316,4.25 0.949,6.308 0.629,2.059 1.512,3.734 2.645,5.039 1.16,1.328 2.582,2.332 4.269,3.016 1.684,0.683 3.461,1.027 5.32,1.027 2.164,0 4.512,-0.371 7.051,-1.113 V 62.91 c -2.578,1.184 -4.965,1.778 -7.156,1.778 -1.355,0 -2.617,-0.309 -3.785,-0.93 -1.164,-0.617 -2.102,-1.453 -2.805,-2.508 -0.82,-1.238 -1.426,-2.641 -1.82,-4.211 -0.391,-1.57 -0.586,-3.172 -0.586,-4.812 0,-3.543 0.883,-6.372 2.641,-8.477 0.914,-1.082 2.019,-1.918 3.324,-2.5 1.304,-0.586 2.711,-0.879 4.222,-0.879 1.762,0 3.86,0.469 6.301,1.406 z"
                           style="fill:#eeeeee;fill-opacity:1;fill-rule:nonzero;stroke:none"
                           id="path94"
                           inkscape:connector-curvature="0" /><path
                           d="m 172.898,49.023 h 8.676 l -4.34,12.688 z m -7.086,-11.078 9.883,28.91 h 3.848 l 9.883,-28.91 h -4.067 l -2.797,8.184 H 171.91 l -2.797,-8.184 z"
                           style="fill:#eeeeee;fill-opacity:1;fill-rule:nonzero;stroke:none"
                           id="path96"
                           inkscape:connector-curvature="0" /><path
                           d="m 386.559,38.59 c -2.02,-0.676 -3.493,-1.074 -4.414,-1.188 -0.926,-0.121 -1.817,-0.175 -2.676,-0.175 -2.774,0 -5.141,0.57 -7.102,1.714 -1.961,1.149 -3.508,2.899 -4.648,5.258 -1.141,2.356 -1.711,5.071 -1.711,8.145 0,2.914 0.523,5.554 1.562,7.918 1.043,2.363 2.578,4.176 4.61,5.429 2.035,1.258 4.422,1.887 7.172,1.887 2.031,0 4.336,-0.359 6.914,-1.074 v -3.555 c -2.399,1.156 -4.766,1.739 -7.098,1.739 -1.75,0 -3.313,-0.473 -4.695,-1.418 -1.383,-0.942 -2.457,-2.434 -3.227,-4.473 -0.769,-2.039 -1.152,-4.266 -1.152,-6.688 0,-2.449 0.418,-4.535 1.258,-6.261 0.839,-1.727 2.05,-3.075 3.632,-4.043 1.582,-0.969 3.309,-1.453 5.188,-1.453 0.648,0 1.488,0.089 2.519,0.269 v 9.77 h 3.868 z"
                           style="fill:#eeeeee;fill-opacity:1;fill-rule:nonzero;stroke:none"
                           id="path98"
                           inkscape:connector-curvature="0" /><path
                           d="m 396.727,37.945 v 26.02 h -9.629 v 2.89 h 23.125 v -2.89 h -9.629 v -26.02 z"
                           style="fill:#eeeeee;fill-opacity:1;fill-rule:nonzero;stroke:none"
                           id="path100"
                           inkscape:connector-curvature="0" /><path
                           d="m 146.828,74.578 v 28.906 h 3.649 l 11.488,-21.984 0.039,0.012 v 21.972 h 3.144 V 74.578 h -3.554 l -11.563,22.133 -0.058,-0.016 V 74.578 Z"
                           style="fill:#2e86ef;fill-opacity:1;fill-rule:nonzero;stroke:none"
                           id="path102"
                           inkscape:connector-curvature="0" /><path
                           d="m 213.625,74.578 v 2.891 h 6.738 v 23.125 h -6.738 v 2.89 h 17.344 v -2.89 H 224.23 V 77.469 h 6.739 v -2.891 z"
                           style="fill:#2e86ef;fill-opacity:1;fill-rule:nonzero;stroke:none"
                           id="path104"
                           inkscape:connector-curvature="0" /><path
                           d="m 244.391,76.746 c 2.191,0 3.867,1.016 5.027,3.047 1.16,2.031 1.742,5.117 1.742,9.258 0,4.129 -0.582,7.203 -1.742,9.23 -1.16,2.024 -2.836,3.035 -5.027,3.035 -2.18,0 -3.848,-1.011 -5.008,-3.035 -1.16,-2.027 -1.742,-5.101 -1.742,-9.23 0,-4.141 0.578,-7.227 1.73,-9.258 1.156,-2.031 2.828,-3.047 5.02,-3.047 m 0.011,-2.894 c -3.488,0 -6.168,1.429 -8.035,4.281 -1.871,2.851 -2.805,6.484 -2.805,10.898 0,4.426 0.934,8.063 2.809,10.91 1.875,2.844 4.555,4.266 8.031,4.266 3.493,0 6.172,-1.422 8.039,-4.266 1.868,-2.847 2.805,-6.484 2.805,-10.91 0,-4.414 -0.937,-8.047 -2.805,-10.898 -1.867,-2.852 -4.546,-4.281 -8.039,-4.281"
                           style="fill:#2e86ef;fill-opacity:1;fill-rule:nonzero;stroke:none"
                           id="path106"
                           inkscape:connector-curvature="0" /><path
                           d="m 257.344,74.578 v 28.906 h 3.648 L 272.48,81.5 l 0.04,0.012 v 21.972 h 3.144 V 74.578 h -3.555 l -11.562,22.133 -0.059,-0.016 V 74.578 Z"
                           style="fill:#2e86ef;fill-opacity:1;fill-rule:nonzero;stroke:none"
                           id="path108"
                           inkscape:connector-curvature="0" /><path
                           d="m 302.992,74.578 v 28.906 h 3.867 V 77.469 h 13.481 v -2.891 z"
                           style="fill:#2e86ef;fill-opacity:1;fill-rule:nonzero;stroke:none"
                           id="path110"
                           inkscape:connector-curvature="0" /><path
                           d="m 121.719,75.223 c -2.016,-0.68 -3.489,-1.078 -4.414,-1.192 -0.926,-0.121 -1.817,-0.176 -2.676,-0.176 -2.774,0 -5.141,0.571 -7.102,1.715 -1.957,1.149 -3.507,2.899 -4.648,5.258 -1.137,2.356 -1.707,5.07 -1.707,8.145 0,2.918 0.519,5.554 1.562,7.918 1.043,2.367 2.578,4.175 4.61,5.433 2.031,1.254 4.422,1.883 7.168,1.883 2.031,0 4.336,-0.355 6.914,-1.074 v -3.555 c -2.399,1.16 -4.766,1.738 -7.098,1.738 -1.75,0 -3.312,-0.472 -4.695,-1.414 -1.383,-0.945 -2.457,-2.437 -3.227,-4.472 -0.769,-2.039 -1.152,-4.27 -1.152,-6.692 0,-2.449 0.418,-4.535 1.258,-6.261 0.84,-1.723 2.05,-3.071 3.633,-4.043 1.582,-0.969 3.312,-1.454 5.187,-1.454 0.652,0 1.492,0.09 2.52,0.274 v 9.766 h 3.867 z"
                           style="fill:#eeeeee;fill-opacity:1;fill-rule:nonzero;stroke:none"
                           id="path112"
                           inkscape:connector-curvature="0" /><path
                           d="m 129.094,85.652 h 8.676 l -4.34,12.688 z m -7.09,-11.078 9.883,28.91 h 3.851 l 9.883,-28.91 h -4.066 l -2.801,8.188 h -10.649 l -2.8,-8.188 z"
                           style="fill:#eeeeee;fill-opacity:1;fill-rule:nonzero;stroke:none"
                           id="path114"
                           inkscape:connector-curvature="0" /><path
                           d="m 343.258,75.242 c -2.551,-0.926 -4.981,-1.387 -7.285,-1.387 -1.981,0 -3.766,0.325 -5.364,0.977 -1.593,0.648 -2.918,1.543 -3.972,2.676 -1.344,1.43 -2.336,3.129 -2.981,5.097 -0.644,1.965 -0.965,4.036 -0.965,6.211 0,2.149 0.313,4.25 0.946,6.309 0.633,2.059 1.515,3.738 2.648,5.039 1.16,1.328 2.582,2.332 4.266,3.02 1.687,0.683 3.461,1.023 5.324,1.023 2.16,0 4.512,-0.371 7.051,-1.113 v -3.555 c -2.582,1.184 -4.969,1.777 -7.156,1.777 -1.356,0 -2.618,-0.308 -3.786,-0.925 -1.168,-0.621 -2.101,-1.457 -2.804,-2.512 -0.825,-1.238 -1.43,-2.641 -1.821,-4.211 -0.39,-1.566 -0.586,-3.172 -0.586,-4.813 0,-3.543 0.879,-6.367 2.641,-8.476 0.91,-1.082 2.02,-1.918 3.32,-2.5 1.305,-0.586 2.715,-0.879 4.227,-0.879 1.762,0 3.859,0.469 6.297,1.406 z"
                           style="fill:#eeeeee;fill-opacity:1;fill-rule:nonzero;stroke:none"
                           id="path116"
                           inkscape:connector-curvature="0" /><path
                           d="m 352.918,74.578 v 26.016 h -9.629 v 2.89 h 23.125 v -2.89 h -9.629 V 74.578 Z"
                           style="fill:#eeeeee;fill-opacity:1;fill-rule:nonzero;stroke:none"
                           id="path118"
                           inkscape:connector-curvature="0" /><path
                           d="m 372.227,85.652 h 8.675 l -4.34,12.688 z m -7.086,-11.078 9.882,28.91 h 3.848 l 9.883,-28.91 h -4.066 l -2.797,8.188 h -10.653 l -2.797,-8.188 z"
                           style="fill:#eeeeee;fill-opacity:1;fill-rule:nonzero;stroke:none"
                           id="path120"
                           inkscape:connector-curvature="0" /><path
                           d="m 409.566,75.242 c -2.55,-0.926 -4.976,-1.387 -7.285,-1.387 -1.976,0 -3.765,0.325 -5.359,0.977 -1.598,0.648 -2.922,1.543 -3.977,2.676 -1.34,1.43 -2.332,3.129 -2.976,5.097 -0.645,1.965 -0.969,4.036 -0.969,6.211 0,2.149 0.316,4.25 0.949,6.309 0.629,2.059 1.512,3.738 2.645,5.039 1.16,1.328 2.582,2.332 4.269,3.02 1.684,0.683 3.461,1.023 5.321,1.023 2.164,0 4.511,-0.371 7.05,-1.113 v -3.555 c -2.578,1.184 -4.964,1.777 -7.156,1.777 -1.355,0 -2.617,-0.308 -3.785,-0.925 -1.164,-0.621 -2.102,-1.457 -2.805,-2.512 -0.82,-1.238 -1.429,-2.641 -1.82,-4.211 -0.391,-1.566 -0.586,-3.172 -0.586,-4.813 0,-3.543 0.879,-6.367 2.641,-8.476 0.914,-1.082 2.019,-1.918 3.324,-2.5 1.305,-0.586 2.711,-0.879 4.223,-0.879 1.761,0 3.859,0.469 6.296,1.406 z"
                           style="fill:#eeeeee;fill-opacity:1;fill-rule:nonzero;stroke:none"
                           id="path122"
                           inkscape:connector-curvature="0" /><path
                           d="m 173.359,85.652 h 8.676 l -4.336,12.688 z m -7.086,-11.078 9.883,28.91 h 3.848 l 9.883,-28.91 h -4.063 l -2.801,8.188 h -10.652 l -2.797,-8.188 z"
                           style="fill:#8e8e8e;fill-opacity:1;fill-rule:nonzero;stroke:none"
                           id="path124"
                           inkscape:connector-curvature="0" /><path
                           d="m 198.258,74.578 v 26.016 h -9.629 v 2.89 h 23.129 v -2.89 h -9.633 V 74.578 Z"
                           style="fill:#8e8e8e;fill-opacity:1;fill-rule:nonzero;stroke:none"
                           id="path126"
                           inkscape:connector-curvature="0" /><path
                           d="m 283.875,85.652 h 8.68 l -4.34,12.688 z m -7.086,-11.078 9.883,28.91 h 3.848 l 9.882,-28.91 h -4.062 l -2.801,8.188 h -10.652 l -2.797,-8.188 z"
                           style="fill:#8e8e8e;fill-opacity:1;fill-rule:nonzero;stroke:none"
                           id="path128"
                           inkscape:connector-curvature="0" /></g></g></g></g></g></g><g
               id="g130"><path
                 d="M 25.559,106.91 H 96.18 V 98.707 H 25.559 Z"
                 style="fill:#c6c6c6;fill-opacity:1;fill-rule:evenodd;stroke:none"
                 id="path132"
                 inkscape:connector-curvature="0" /><path
                 d="M 23.801,95.965 H 91.594 V 87.762 H 23.801 Z"
                 style="fill:#c6c6c6;fill-opacity:1;fill-rule:evenodd;stroke:none"
                 id="path134"
                 inkscape:connector-curvature="0" /><path
                 d="M 24.625,85.02 H 87.621 V 76.817 H 24.625 Z"
                 style="fill:#c6c6c6;fill-opacity:1;fill-rule:evenodd;stroke:none"
                 id="path136"
                 inkscape:connector-curvature="0" /><path
                 d="M 27.531,74.074 H 86.226 V 65.871 H 27.531 Z"
                 style="fill:#c6c6c6;fill-opacity:1;fill-rule:evenodd;stroke:none"
                 id="path138"
                 inkscape:connector-curvature="0" /><path
                 d="M 32.652,63.129 H 83.371 V 54.926 H 32.652 Z"
                 style="fill:#c6c6c6;fill-opacity:1;fill-rule:evenodd;stroke:none"
                 id="path140"
                 inkscape:connector-curvature="0" /><path
                 d="M 36.656,52.188 H 82.437 V 43.981 H 36.656 Z"
                 style="fill:#c6c6c6;fill-opacity:1;fill-rule:evenodd;stroke:none"
                 id="path142"
                 inkscape:connector-curvature="0" /><path
                 d="m 47.031,41.242 h 38.66 v -8.207 h -38.66 z"
                 style="fill:#c6c6c6;fill-opacity:1;fill-rule:evenodd;stroke:none"
                 id="path144"
                 inkscape:connector-curvature="0" /><path
                 d="M 57.898,30.293 H 88.582 V 22.09 H 57.898 Z"
                 style="fill:#c6c6c6;fill-opacity:1;fill-rule:evenodd;stroke:none"
                 id="path146"
                 inkscape:connector-curvature="0" /><path
                 d="M 65.176,19.352 H 89.754 V 11.149 H 65.176 Z"
                 style="fill:#c6c6c6;fill-opacity:1;fill-rule:evenodd;stroke:none"
                 id="path148"
                 inkscape:connector-curvature="0" /><path
                 d="M 69.137,8.406 H 89.356 V 0.203 H 69.137 Z"
                 style="fill:#c6c6c6;fill-opacity:1;fill-rule:evenodd;stroke:none"
                 id="path150"
                 inkscape:connector-curvature="0" /><path
                 d="M 0,8.496 H 70.621 V 0.293 H 0 Z"
                 style="fill:#2e86ef;fill-opacity:1;fill-rule:evenodd;stroke:none"
                 id="path152"
                 inkscape:connector-curvature="0" /><path
                 d="M 3.801,19.441 H 71.59 V 11.238 H 3.801 Z"
                 style="fill:#2e86ef;fill-opacity:1;fill-rule:evenodd;stroke:none"
                 id="path154"
                 inkscape:connector-curvature="0" /><path
                 d="M 9.07,30.387 H 72.066 V 22.184 H 9.07 Z"
                 style="fill:#2e86ef;fill-opacity:1;fill-rule:evenodd;stroke:none"
                 id="path156"
                 inkscape:connector-curvature="0" /><path
                 d="M 16.422,41.332 H 75.113 V 33.129 H 16.422 Z"
                 style="fill:#2e86ef;fill-opacity:1;fill-rule:evenodd;stroke:none"
                 id="path158"
                 inkscape:connector-curvature="0" /><path
                 d="m 24.875,52.277 h 52.66 v -8.203 h -52.66 z"
                 style="fill:#2e86ef;fill-opacity:1;fill-rule:evenodd;stroke:none"
                 id="path160"
                 inkscape:connector-curvature="0" /><path
                 d="M 37.77,63.223 H 83.547 V 55.016 H 37.77 Z"
                 style="fill:#2e86ef;fill-opacity:1;fill-rule:evenodd;stroke:none"
                 id="path162"
                 inkscape:connector-curvature="0" /><path
                 d="m 49.254,74.168 h 38.66 v -8.207 h -38.66 z"
                 style="fill:#2e86ef;fill-opacity:1;fill-rule:evenodd;stroke:none"
                 id="path164"
                 inkscape:connector-curvature="0" /><path
                 d="M 61.23,85.109 H 91.914 V 76.906 H 61.23 Z"
                 style="fill:#2e86ef;fill-opacity:1;fill-rule:evenodd;stroke:none"
                 id="path166"
                 inkscape:connector-curvature="0" /><path
                 d="M 71.844,96.055 H 96.422 V 87.852 H 71.844 Z"
                 style="fill:#2e86ef;fill-opacity:1;fill-rule:evenodd;stroke:none"
                 id="path168"
                 inkscape:connector-curvature="0" /><path
                 d="M 76.914,107 H 97.133 V 98.797 H 76.914 Z"
                 style="fill:#2e86ef;fill-opacity:1;fill-rule:evenodd;stroke:none"
                 id="path170"
                 inkscape:connector-curvature="0" /></g></g></g></g></g></g></svg>