<?xml version="1.0" encoding="UTF-8" standalone="no"?>
<!-- Generator: Adobe Illustrator 21.1.0, SVG Export Plug-In . SVG Version: 6.00 Build 0)  -->

<svg
   xmlns:dc="http://purl.org/dc/elements/1.1/"
   xmlns:cc="http://creativecommons.org/ns#"
   xmlns:rdf="http://www.w3.org/1999/02/22-rdf-syntax-ns#"
   xmlns:svg="http://www.w3.org/2000/svg"
   xmlns="http://www.w3.org/2000/svg"
   xmlns:sodipodi="http://sodipodi.sourceforge.net/DTD/sodipodi-0.dtd"
   xmlns:inkscape="http://www.inkscape.org/namespaces/inkscape"
   version="1.1"
   id="Layer_1"
   x="0px"
   y="0px"
   viewBox="0 0 100 100"
   xml:space="preserve"
   sodipodi:docname="QBiC_logo.svg"
   width="100"
   height="100"
   inkscape:version="0.92.5 (2060ec1f9f, 2020-04-08)"
   inkscape:export-filename="QBiC_logo.png"
   inkscape:export-xdpi="96"
   inkscape:export-ydpi="96"><metadata
   id="metadata23"><rdf:RDF><cc:Work
       rdf:about=""><dc:format>image/svg+xml</dc:format><dc:type
         rdf:resource="http://purl.org/dc/dcmitype/StillImage" /><dc:title></dc:title></cc:Work></rdf:RDF></metadata><defs
   id="defs21" /><sodipodi:namedview
   pagecolor="#ffffff"
   bordercolor="#666666"
   borderopacity="1"
   objecttolerance="10"
   gridtolerance="10"
   guidetolerance="10"
   inkscape:pageopacity="0"
   inkscape:pageshadow="2"
   inkscape:window-width="1920"
   inkscape:window-height="1016"
   id="namedview19"
   showgrid="false"
   fit-margin-top="0"
   fit-margin-left="0"
   fit-margin-right="0"
   fit-margin-bottom="0"
   inkscape:zoom="0.84466716"
   inkscape:cx="140"
   inkscape:cy="140.3"
   inkscape:window-x="0"
   inkscape:window-y="0"
   inkscape:window-maximized="1"
   inkscape:current-layer="Layer_1" />
<style
   type="text/css"
   id="style2">
	.st0{fill:#3A69B1;}
	.st1{enable-background:new    ;}
	.st2{fill:#FFFFFF;}
</style>


<g
   id="g32"
   transform="scale(0.35714286)"><rect
     id="rect4"
     height="280"
     width="280"
     class="st0"
     y="0"
     x="0"
     style="fill:#3a69b1" /><g
     id="g10"
     class="st1"
     style="enable-background:new">
	<path
   id="path6"
   d="m 98.6,239.3 -7.1,7.9 -12.1,-10.5 c -3.1,1.8 -6.3,3.1 -9.6,3.8 -3.3,0.8 -6.6,1.2 -9.8,1.2 -6.2,0 -11.7,-1.1 -16.6,-3.4 -4.9,-2.3 -9.1,-5.4 -12.5,-9.3 -3.4,-3.9 -6,-8.5 -7.8,-13.8 -1.8,-5.3 -2.7,-10.9 -2.7,-16.8 0,-5.9 0.9,-11.4 2.7,-16.7 1.8,-5.3 4.4,-9.8 7.8,-13.8 3.4,-3.9 7.5,-7.1 12.5,-9.4 4.9,-2.3 10.4,-3.5 16.6,-3.5 6.2,0 11.7,1.2 16.6,3.5 4.9,2.3 9.1,5.4 12.5,9.4 3.4,3.9 6,8.5 7.8,13.8 1.8,5.3 2.7,10.8 2.7,16.7 0,2.9 -0.2,5.7 -0.7,8.6 -0.5,2.9 -1.2,5.7 -2.1,8.5 -0.9,2.8 -2.1,5.4 -3.6,7.9 -1.5,2.5 -3.2,4.7 -5.3,6.7 z M 61,220.6 l 7,-8 10.1,8.8 c 2.6,-3.2 4.5,-6.8 5.6,-10.8 1.1,-4 1.6,-8.1 1.6,-12.3 0,-3.9 -0.5,-7.8 -1.4,-11.6 -1,-3.8 -2.5,-7.2 -4.5,-10.1 -2,-3 -4.6,-5.3 -7.8,-7.1 -3.2,-1.8 -7,-2.7 -11.4,-2.7 -4.4,0 -8.2,0.9 -11.4,2.7 -3.2,1.8 -5.8,4.2 -7.8,7.1 -2,3 -3.5,6.4 -4.5,10.1 -1,3.8 -1.4,7.6 -1.4,11.6 0,4 0.5,7.8 1.4,11.6 1,3.8 2.5,7.2 4.5,10.1 2,3 4.6,5.4 7.8,7.1 3.2,1.8 7,2.7 11.4,2.7 1.5,0 3.1,-0.2 4.7,-0.5 1.6,-0.3 3.1,-0.8 4.6,-1.5 z"
   class="st2"
   inkscape:connector-curvature="0"
   style="fill:#ffffff" />
	<path
   id="path8"
   d="m 103.9,156.9 h 40.2 c 7.4,0 13.4,1.7 17.8,5.1 4.5,3.4 6.7,8.5 6.7,15.4 0,4.2 -1,7.7 -3.1,10.7 -2,3 -5,5.3 -8.7,6.9 v 0.2 c 5.1,1.1 9,3.5 11.6,7.2 2.6,3.7 3.9,8.4 3.9,14.1 0,3.2 -0.6,6.3 -1.7,9.1 -1.2,2.8 -3,5.3 -5.4,7.3 -2.5,2 -5.6,3.7 -9.5,4.9 -3.9,1.2 -8.5,1.8 -13.8,1.8 h -38 z m 14.5,34.7 H 142 c 3.5,0 6.4,-1 8.7,-3 2.3,-2 3.5,-4.8 3.5,-8.5 0,-4.2 -1,-7.1 -3.1,-8.8 -2.1,-1.7 -5.1,-2.5 -9,-2.5 h -23.6 v 22.8 z m 0,36.3 H 144 c 4.4,0 7.8,-1.1 10.3,-3.4 2.4,-2.3 3.7,-5.5 3.7,-9.7 0,-4.1 -1.2,-7.2 -3.7,-9.4 -2.4,-2.2 -5.9,-3.3 -10.3,-3.3 h -25.6 z"
   class="st2"
   inkscape:connector-curvature="0"
   style="fill:#ffffff" />
</g><g
     id="g16"
     class="st1"
     style="enable-background:new">
	<path
   id="path12"
   d="m 175.1,169 v -12.1 h 9.8 V 169 Z m 9.8,10.8 v 59.9 h -9.8 v -59.9 z"
   class="st2"
   inkscape:connector-curvature="0"
   style="fill:#ffffff" />
	<path
   id="path14"
   d="m 242.9,168.6 c -4.2,-2.9 -9.2,-4.4 -15,-4.4 -4.9,0 -9.2,0.9 -12.7,2.8 -3.5,1.9 -6.4,4.3 -8.7,7.5 -2.3,3.1 -4,6.7 -5,10.7 -1.1,4 -1.6,8.2 -1.6,12.5 0,4.7 0.5,9.2 1.6,13.4 1.1,4.2 2.8,7.9 5,11 2.3,3.1 5.2,5.6 8.7,7.5 3.6,1.9 7.8,2.8 12.7,2.8 3.6,0 6.9,-0.6 9.7,-1.8 2.8,-1.2 5.3,-2.9 7.3,-5 2,-2.1 3.6,-4.7 4.8,-7.6 1.2,-2.9 1.9,-6.1 2.1,-9.5 h 11 c -1.1,10.4 -4.7,18.5 -10.8,24.3 -6.1,5.8 -14.4,8.7 -25,8.7 -6.4,0 -12,-1.1 -16.8,-3.3 -4.8,-2.2 -8.8,-5.2 -11.9,-9.1 -3.2,-3.9 -5.5,-8.4 -7.1,-13.7 -1.6,-5.3 -2.4,-10.9 -2.4,-16.9 0,-6 0.8,-11.7 2.5,-17 1.7,-5.3 4.2,-9.9 7.5,-13.8 3.3,-3.9 7.4,-7 12.3,-9.3 4.9,-2.3 10.5,-3.4 16.9,-3.4 4.3,0 8.4,0.6 12.3,1.7 3.9,1.2 7.3,2.9 10.3,5.1 3,2.2 5.5,5 7.5,8.4 2,3.4 3.3,7.2 3.9,11.6 h -11 c -1.1,-5.8 -3.9,-10.2 -8.1,-13.2 z"
   class="st2"
   inkscape:connector-curvature="0"
   style="fill:#ffffff" />
</g></g>
</svg>