<?xml version="1.0" encoding="UTF-8" standalone="no"?>
<!-- Created with Inkscape (http://www.inkscape.org/) -->

<svg
   xmlns:dc="http://purl.org/dc/elements/1.1/"
   xmlns:cc="http://creativecommons.org/ns#"
   xmlns:rdf="http://www.w3.org/1999/02/22-rdf-syntax-ns#"
   xmlns:svg="http://www.w3.org/2000/svg"
   xmlns="http://www.w3.org/2000/svg"
   xmlns:sodipodi="http://sodipodi.sourceforge.net/DTD/sodipodi-0.dtd"
   xmlns:inkscape="http://www.inkscape.org/namespaces/inkscape"
   width="48"
   height="48"
   viewBox="0 0 48.000002 48.000003"
   id="svg4924"
   version="1.1"
   inkscape:version="0.91 r13725"
   sodipodi:docname="Sarek_icon.svg"
   inkscape:export-filename="Sarek_germline_icon.png"
   inkscape:export-xdpi="90"
   inkscape:export-ydpi="90">
  <defs
     id="defs4926" />
  <sodipodi:namedview
     id="base"
     pagecolor="#ffffff"
     bordercolor="#666666"
     borderopacity="1.0"
     inkscape:pageopacity="0.0"
     inkscape:pageshadow="2"
     inkscape:zoom="2.8"
     inkscape:cx="21.012198"
     inkscape:cy="42.031925"
     inkscape:document-units="px"
     inkscape:current-layer="layer1"
     showgrid="false"
     fit-margin-top="0"
     fit-margin-left="0"
     fit-margin-right="0"
     fit-margin-bottom="0"
     units="px"
     width="200mm"
     inkscape:window-width="1920"
     inkscape:window-height="1015"
     inkscape:window-x="1920"
     inkscape:window-y="724"
     inkscape:window-maximized="1" />
  <metadata
     id="metadata4929">
    <rdf:RDF>
      <cc:Work
         rdf:about="">
        <dc:format>image/svg+xml</dc:format>
        <dc:type
           rdf:resource="http://purl.org/dc/dcmitype/StillImage" />
        <dc:title />
      </cc:Work>
    </rdf:RDF>
  </metadata>
  <g
     inkscape:label="Germline"
     inkscape:groupmode="layer"
     id="layer1"
     transform="translate(-221.17598,-670.32414)"
     style="display:inline">
    <g
       style="display:inline"
       id="g5369"
       transform="matrix(0.39999996,0,0,0.39999996,221.17843,694.31193)">
      <path
         d="m 117.90608,4e-5 c 0,-31.98037 -25.925273,-57.90611 -57.906104,-57.90611 -31.980369,0 -57.9060994,25.92574 -57.9060994,57.90611 0,31.980361 25.9257304,57.906099 57.9060994,57.906099 31.980831,0 57.906104,-25.925738 57.906104,-57.906099 z"
         style="fill:#ffffff;stroke:none;stroke-width:4.18779993;stroke-linecap:butt;stroke-linejoin:miter;stroke-miterlimit:10;stroke-dasharray:none;stroke-opacity:1"
         id="path5280"
         inkscape:connector-curvature="0" />
      <path
         style="fill:#aacbe6;fill-opacity:1;fill-rule:nonzero;stroke:none"
         d="m 45.33005,-26.80855 -3.867187,1.67382 -4.886719,30.77734 -10.748047,2.93164 0,38.107427 -0.0332,0.0469 c 9.584012,7.02713 21.41042,11.17773 34.205078,11.17773 25.579545,0 47.285075,-16.5858 54.949215,-39.589847 l 0.0957,0.0312 -0.0898,-0.0527 c 1.91353,-5.75078 2.95117,-11.90144 2.95117,-18.29492 0,-3.51077 -0.31177,-6.94701 -0.91016,-10.28516 L 45.33005,-26.80855 Z"
         id="path5282"
         inkscape:connector-curvature="0" />
      <path
         inkscape:connector-curvature="0"
         id="path5284"
         style="fill:#377eb8;fill-opacity:1;fill-rule:nonzero;stroke:none"
         d="m 115.04447,18.34822 -73.582435,-43.48285 -4.885301,30.778 -10.747755,2.93146 0,38.106187 -0.0335,0.0479 c 9.584013,7.02713 21.409894,11.17724 34.204553,11.17724 25.579547,0 47.284908,-16.58555 54.949048,-39.589607" />
      <path
         inkscape:connector-curvature="0"
         id="path5286"
         style="fill:none;stroke:#000000;stroke-width:4.19957352;stroke-linecap:butt;stroke-linejoin:miter;stroke-miterlimit:10;stroke-dasharray:none;stroke-opacity:1"
         d="m 117.8941,0.03052935 c 0,-31.97712035 -25.922642,-57.90022535 -57.900222,-57.90022535 -31.977116,0 -57.9002148,25.923105 -57.9002148,57.90022535 0,31.97711065 25.9230988,57.90021365 57.9002148,57.90021365 31.97758,0 57.900222,-25.923103 57.900222,-57.90021365 z" />
    </g>
  </g>
  <g
     inkscape:groupmode="layer"
     id="layer2"
     inkscape:label="Somatic"
     style="display:inline"
     transform="translate(-7.4225275e-6,-12.000066)">
    <g
       style="display:inline"
       id="g5381"
       transform="matrix(0.39999996,0,0,0.39999996,0.00245861,-60.002375)">
      <path
         d="m 117.90608,240.00004 c 0,-31.98037 -25.925273,-57.90611 -57.906104,-57.90611 -31.980369,0 -57.9060994,25.92574 -57.9060994,57.90611 0,31.98036 25.9257304,57.9061 57.9060994,57.9061 31.980831,0 57.906104,-25.92574 57.906104,-57.9061 z"
         style="fill:#ffffff;stroke:none;stroke-width:4.18779993;stroke-linecap:butt;stroke-linejoin:miter;stroke-miterlimit:10;stroke-dasharray:none;stroke-opacity:1"
         id="path5300"
         inkscape:connector-curvature="0" />
      <path
         style="fill:#f49c9d;fill-opacity:1;fill-rule:nonzero;stroke:none"
         d="m 45.33005,213.19145 -3.867187,1.67382 -4.886719,30.77734 -10.748047,2.93164 0,38.10743 -0.0332,0.0469 c 9.584012,7.02713 21.41042,11.17773 34.205078,11.17773 25.579545,0 47.285075,-16.5858 54.949215,-39.58985 l 0.0957,0.0312 -0.0898,-0.0527 c 1.91353,-5.75078 2.95117,-11.90144 2.95117,-18.29492 0,-3.51077 -0.31177,-6.94701 -0.91016,-10.28516 L 45.33005,213.19145 Z"
         id="path5302"
         inkscape:connector-curvature="0" />
      <path
         inkscape:connector-curvature="0"
         id="path5304"
         style="fill:#e41a1c;fill-opacity:1;fill-rule:nonzero;stroke:none"
         d="m 115.04447,258.34822 -73.582435,-43.48285 -4.885301,30.778 -10.747755,2.93146 0,38.10619 -0.0335,0.0479 c 9.584013,7.02713 21.409894,11.17724 34.204553,11.17724 25.579547,0 47.284908,-16.58555 54.949048,-39.58961" />
      <path
         inkscape:connector-curvature="0"
         id="path5306"
         style="fill:none;stroke:#000000;stroke-width:4.19957352;stroke-linecap:butt;stroke-linejoin:miter;stroke-miterlimit:10;stroke-dasharray:none;stroke-opacity:1"
         d="m 117.8941,240.00614 c 0,-31.97712 -25.922642,-57.90023 -57.900222,-57.90023 -31.977116,0 -57.9002148,25.92311 -57.9002148,57.90023 0,31.97711 25.9230988,57.90021 57.9002148,57.90021 31.97758,0 57.900222,-25.9231 57.900222,-57.90021 z" />
    </g>
  </g>
  <g
     inkscape:groupmode="layer"
     id="layer3"
     inkscape:label="Exome"
     style="display:inline"
     transform="translate(-7.4225275e-6,-12.000066)">
    <g
       style="display:inline"
       id="g5375"
       transform="matrix(0.39999996,0,0,0.39999996,0.00245861,-12.00726)">
      <path
         inkscape:connector-curvature="0"
         id="path5290"
         style="fill:#ffffff;stroke:none;stroke-width:4.18779993;stroke-linecap:butt;stroke-linejoin:miter;stroke-miterlimit:10;stroke-dasharray:none;stroke-opacity:1"
         d="m 117.90608,120.00004 c 0,-31.98037 -25.925273,-57.90611 -57.906104,-57.90611 -31.980369,0 -57.9060994,25.92574 -57.9060994,57.90611 0,31.98036 25.9257304,57.9061 57.9060994,57.9061 31.980831,0 57.906104,-25.92574 57.906104,-57.9061 z" />
      <path
         inkscape:connector-curvature="0"
         id="path5292"
         d="m 45.33005,93.19145 -3.867187,1.67382 -4.886719,30.77734 -10.748047,2.93164 0,38.10743 -0.0332,0.0469 c 9.584012,7.02713 21.41042,11.17773 34.205078,11.17773 25.579545,0 47.285075,-16.5858 54.949215,-39.58985 l 0.0957,0.0312 -0.0898,-0.0527 c 1.91353,-5.75078 2.95117,-11.90144 2.95117,-18.29492 0,-3.51077 -0.31177,-6.94701 -0.91016,-10.28516 L 45.33005,93.19145 Z"
         style="fill:#d6b5db;fill-opacity:1;fill-rule:nonzero;stroke:none" />
      <path
         d="m 115.04447,138.34822 -73.582435,-43.48285 -4.885301,30.778 -10.747755,2.93146 0,38.10619 -0.0335,0.0479 c 9.584013,7.02713 21.409894,11.17724 34.204553,11.17724 25.579547,0 47.284908,-16.58555 54.949048,-39.58961"
         style="fill:#974ea2;fill-opacity:1;fill-rule:nonzero;stroke:none"
         id="path5294"
         inkscape:connector-curvature="0" />
      <path
         d="m 117.8941,120.01833 c 0,-31.977116 -25.922642,-57.900221 -57.900222,-57.900221 -31.977116,0 -57.9002148,25.923105 -57.9002148,57.900221 0,31.97711 25.9230988,57.90022 57.9002148,57.90022 31.97758,0 57.900222,-25.92311 57.900222,-57.90022 z"
         style="fill:none;stroke:#000000;stroke-width:4.19957352;stroke-linecap:butt;stroke-linejoin:miter;stroke-miterlimit:10;stroke-dasharray:none;stroke-opacity:1"
         id="path5296"
         inkscape:connector-curvature="0" />
    </g>
  </g>
  <g
     inkscape:groupmode="layer"
     id="layer4"
     inkscape:label="Sarek"
     style="display:inline"
     transform="translate(-7.4225275e-6,-12.000066)">
    <g
       style="display:inline"
       id="g5363"
       transform="matrix(0.39999996,0,0,0.39999996,0.00245865,83.982979)">
      <path
         inkscape:connector-curvature="0"
         id="path4113"
         style="fill:#ffffff;stroke:none;stroke-width:4.18779993;stroke-linecap:butt;stroke-linejoin:miter;stroke-miterlimit:10;stroke-dasharray:none;stroke-opacity:1"
         d="m 117.90608,-119.99997 c 0,-31.98037 -25.925273,-57.90611 -57.906104,-57.90611 -31.980369,0 -57.9060996,25.92574 -57.9060996,57.90611 0,31.980361 25.9257306,57.906099 57.9060996,57.906099 31.980831,0 57.906104,-25.925738 57.906104,-57.906099 z" />
      <path
         inkscape:connector-curvature="0"
         id="path4117"
         d="m 45.33005,-146.80856 -3.867187,1.67382 -4.886719,30.77734 -10.748047,2.93164 0,38.107427 -0.0332,0.0469 c 9.584012,7.02713 21.41042,11.17773 34.205078,11.17773 25.579545,0 47.285075,-16.5858 54.949215,-39.589847 l 0.0957,0.0312 -0.0898,-0.0527 c 1.91353,-5.75078 2.95117,-11.90144 2.95117,-18.29492 0,-3.51077 -0.31177,-6.94701 -0.91016,-10.28516 l -71.66605,-16.52343 z"
         style="fill:#b3deb2;fill-opacity:1;fill-rule:nonzero;stroke:none" />
      <path
         d="m 115.04447,-101.65179 -73.582435,-43.48285 -4.885301,30.778 -10.747755,2.93146 0,38.106187 -0.0335,0.0479 c 9.584013,7.02713 21.409894,11.17724 34.204553,11.17724 25.579547,0 47.284908,-16.58555 54.949048,-39.589607"
         style="fill:#4daf4a;fill-opacity:1;fill-rule:nonzero;stroke:none"
         id="path172"
         inkscape:connector-curvature="0" />
      <path
         d="m 117.8941,-119.95729 c 0,-31.97712 -25.922642,-57.90022 -57.900222,-57.90022 -31.977116,0 -57.900215,25.9231 -57.900215,57.90022 0,31.977116 25.923099,57.900219 57.900215,57.900219 31.97758,0 57.900222,-25.923103 57.900222,-57.900219 z"
         style="fill:none;stroke:#000000;stroke-width:4.19957352;stroke-linecap:butt;stroke-linejoin:miter;stroke-miterlimit:10;stroke-dasharray:none;stroke-opacity:1"
         id="path220"
         inkscape:connector-curvature="0" />
    </g>
  </g>
</svg>
