<?xml version="1.0" encoding="UTF-8" standalone="no"?>
<!-- Created with Inkscape (http://www.inkscape.org/) -->

<svg
   xmlns:dc="http://purl.org/dc/elements/1.1/"
   xmlns:cc="http://creativecommons.org/ns#"
   xmlns:rdf="http://www.w3.org/1999/02/22-rdf-syntax-ns#"
   xmlns:svg="http://www.w3.org/2000/svg"
   xmlns="http://www.w3.org/2000/svg"
   xmlns:sodipodi="http://sodipodi.sourceforge.net/DTD/sodipodi-0.dtd"
   xmlns:inkscape="http://www.inkscape.org/namespaces/inkscape"
   width="380"
   height="120"
   viewBox="0 0 380.00002 120.00001"
   id="svg4924"
   version="1.1"
   inkscape:version="0.91 r13725"
   sodipodi:docname="Sarek_logo_dark_background.svg"
   inkscape:export-filename="Sarek_germline_logo.png"
   inkscape:export-xdpi="90"
   inkscape:export-ydpi="90">
  <defs
     id="defs4926">
    <clipPath
       clipPathUnits="userSpaceOnUse"
       id="clipPath202">
      <path
         d="M 0,600 1500,600 1500,0 0,0 0,600 Z"
         id="path204"
         inkscape:connector-curvature="0" />
    </clipPath>
    <clipPath
       clipPathUnits="userSpaceOnUse"
       id="clipPath158">
      <path
         d="M 0,600 1500,600 1500,0 0,0 0,600 Z"
         id="path160"
         inkscape:connector-curvature="0" />
    </clipPath>
    <clipPath
       clipPathUnits="userSpaceOnUse"
       id="clipPath86">
      <path
         d="M 0,600 1500,600 1500,0 0,0 0,600 Z"
         id="path88"
         inkscape:connector-curvature="0" />
    </clipPath>
    <clipPath
       clipPathUnits="userSpaceOnUse"
       id="clipPath94">
      <path
         d="m 804.509,211 164.286,0 0,-96.981 -164.286,0 0,96.981 z"
         id="path96"
         inkscape:connector-curvature="0" />
    </clipPath>
    <clipPath
       clipPathUnits="userSpaceOnUse"
       id="clipPath110">
      <path
         d="m 804.597,506 164.286,0 0,-96.981 -164.286,0 0,96.981 z"
         id="path112"
         inkscape:connector-curvature="0" />
    </clipPath>
    <clipPath
       clipPathUnits="userSpaceOnUse"
       id="clipPath126">
      <path
         d="m 133.598,209 164.285,0 0,-96.981 -164.285,0 0,96.981 z"
         id="path128"
         inkscape:connector-curvature="0" />
    </clipPath>
    <clipPath
       clipPathUnits="userSpaceOnUse"
       id="clipPath142">
      <path
         d="m 133.686,504 164.286,0 0,-96.981 -164.286,0 0,96.981 z"
         id="path144"
         inkscape:connector-curvature="0" />
    </clipPath>
    <clipPath
       clipPathUnits="userSpaceOnUse"
       id="clipPath54">
      <path
         d="M 0,600 1500,600 1500,0 0,0 0,600 Z"
         id="path56"
         inkscape:connector-curvature="0" />
    </clipPath>
    <clipPath
       clipPathUnits="userSpaceOnUse"
       id="clipPath30">
      <path
         d="M 0,600 1500,600 1500,0 0,0 0,600 Z"
         id="path32"
         inkscape:connector-curvature="0" />
    </clipPath>
  </defs>
  <sodipodi:namedview
     id="base"
     pagecolor="#ffffff"
     bordercolor="#666666"
     borderopacity="1.0"
     inkscape:pageopacity="0.0"
     inkscape:pageshadow="2"
     inkscape:zoom="1.979899"
     inkscape:cx="147.3736"
     inkscape:cy="82.822455"
     inkscape:document-units="px"
     inkscape:current-layer="layer1"
     showgrid="false"
     fit-margin-top="0"
     fit-margin-left="0"
     fit-margin-right="0"
     fit-margin-bottom="0"
     units="px"
     width="200mm"
     inkscape:window-width="1920"
     inkscape:window-height="1015"
     inkscape:window-x="2120"
     inkscape:window-y="264"
     inkscape:window-maximized="1" />
  <metadata
     id="metadata4929">
    <rdf:RDF>
      <cc:Work
         rdf:about="">
        <dc:format>image/svg+xml</dc:format>
        <dc:type
           rdf:resource="http://purl.org/dc/dcmitype/StillImage" />
        <dc:title></dc:title>
      </cc:Work>
    </rdf:RDF>
  </metadata>
  <g
     inkscape:label="Germline"
     inkscape:groupmode="layer"
     id="layer1"
     transform="translate(-221.17594,-598.32411)"
     style="display:none">
    <flowRoot
       xml:space="preserve"
       id="flowRoot5674-6-8-8-6"
       style="font-style:normal;font-variant:normal;font-weight:normal;font-stretch:normal;font-size:52.46426392px;line-height:125%;font-family:Michroma;-inkscape-font-specification:Michroma;letter-spacing:0px;word-spacing:0px;display:inline;fill:#ffffff;fill-opacity:1;stroke:none;stroke-width:1px;stroke-linecap:butt;stroke-linejoin:miter;stroke-opacity:1"
       transform="translate(397.88815,-1473.0326)"><flowRegion
         id="flowRegion5676-1-5-9-8"><rect
           id="rect5678-0-9-7-9"
           width="616.24683"
           height="383.07242"
           x="-40.786236"
           y="2079.1736"
           style="font-style:normal;font-variant:normal;font-weight:normal;font-stretch:normal;font-size:52.46426392px;font-family:Michroma;-inkscape-font-specification:Michroma;fill:#ffffff" /></flowRegion><flowPara
         id="flowPara5680-6-75-7-06"
         style="font-style:normal;font-variant:normal;font-weight:normal;font-stretch:normal;font-size:50.00000381px;font-family:Michroma;-inkscape-font-specification:Michroma;text-align:start;text-anchor:start;fill:#ffffff">Sarek</flowPara><flowPara
         id="flowPara5682-3-3-6-8"
         style="font-style:normal;font-variant:normal;font-weight:normal;font-stretch:normal;font-family:Michroma;-inkscape-font-specification:Michroma;text-align:start;text-anchor:start;fill:#ffffff" /></flowRoot>    <path
       sodipodi:nodetypes="cc"
       inkscape:connector-curvature="0"
       inkscape:connector-type="polyline"
       id="path5765-9-4-7"
       d="m 389.07266,663.19468 159.33699,0"
       style="display:inline;fill:none;fill-opacity:1;fill-rule:evenodd;stroke:#377eb8;stroke-width:4.20000029;stroke-linecap:butt;stroke-linejoin:miter;stroke-miterlimit:4;stroke-dasharray:none;stroke-opacity:1" />
    <flowRoot
       style="font-style:normal;font-variant:normal;font-weight:normal;font-stretch:normal;font-size:41.45429611px;line-height:125%;font-family:Michroma;-inkscape-font-specification:Michroma;text-align:center;letter-spacing:0px;word-spacing:0px;text-anchor:middle;display:inline;fill:#ffffff;fill-opacity:1;stroke:none;stroke-width:1px;stroke-linecap:butt;stroke-linejoin:miter;stroke-opacity:1"
       id="flowRoot4855-2-3"
       xml:space="preserve"
       transform="translate(-19.995698,-240.03049)"><flowRegion
         id="flowRegion4857-8-5"><rect
           style="font-style:normal;font-variant:normal;font-weight:normal;font-stretch:normal;font-size:41.45429611px;font-family:Michroma;-inkscape-font-specification:Michroma;text-align:center;text-anchor:middle;fill:#ffffff"
           y="847.40942"
           x="406.72501"
           height="383.07242"
           width="616.24683"
           id="rect4859-9-1" /></flowRegion><flowPara
         style="font-style:normal;font-variant:normal;font-weight:normal;font-stretch:normal;font-size:41.45429611px;font-family:Michroma;-inkscape-font-specification:Michroma;text-align:start;text-anchor:start;fill:#ffffff"
         id="flowPara4861-7-7" /><flowPara
         style="font-style:normal;font-variant:normal;font-weight:normal;font-stretch:normal;font-size:37.50000381px;font-family:Michroma;-inkscape-font-specification:Michroma;text-align:start;text-anchor:start;fill:#ffffff"
         id="flowPara4863-3-4">Germline</flowPara></flowRoot>    <path
       inkscape:connector-curvature="0"
       id="path5280"
       style="fill:#000000;stroke:none;stroke-width:4.18779993;stroke-linecap:butt;stroke-linejoin:miter;stroke-miterlimit:10;stroke-dasharray:none;stroke-opacity:1"
       d="m 339.08814,658.29363 c 0,-31.98037 -25.92527,-57.90611 -57.9061,-57.90611 -31.98037,0 -57.9061,25.92574 -57.9061,57.90611 0,31.98036 25.92573,57.9061 57.9061,57.9061 31.98083,0 57.9061,-25.92574 57.9061,-57.9061 z" />
    <path
       inkscape:connector-curvature="0"
       id="path5282"
       d="m 266.51211,631.48504 -3.86719,1.67382 -4.88672,30.77734 -10.74804,2.93164 0,38.10743 -0.0332,0.0469 c 9.58401,7.02713 21.41042,11.17773 34.20507,11.17773 25.57955,0 47.28508,-16.5858 54.94922,-39.58985 l 0.0957,0.0312 -0.0898,-0.0527 c 1.91353,-5.75078 2.95117,-11.90144 2.95117,-18.29492 0,-3.51077 -0.31177,-6.94701 -0.91016,-10.28516 l -71.66605,-16.52343 z"
       style="fill:#aacbe6;fill-opacity:1;fill-rule:nonzero;stroke:none" />
    <path
       d="m 336.22653,676.64181 -73.58244,-43.48285 -4.8853,30.778 -10.74775,2.93146 0,38.10619 -0.0335,0.0479 c 9.58401,7.02713 21.40989,11.17724 34.20455,11.17724 25.57955,0 47.28491,-16.58555 54.94905,-39.58961"
       style="fill:#377eb8;fill-opacity:1;fill-rule:nonzero;stroke:none"
       id="path5284"
       inkscape:connector-curvature="0" />
    <path
       d="m 339.07616,658.32412 c 0,-31.97712 -25.92264,-57.90023 -57.90022,-57.90023 -31.97712,0 -57.90022,25.92311 -57.90022,57.90023 0,31.97711 25.9231,57.90021 57.90022,57.90021 31.97758,0 57.90022,-25.9231 57.90022,-57.90021 z"
       style="fill:none;stroke:#ffffff;stroke-width:4.19957352;stroke-linecap:butt;stroke-linejoin:miter;stroke-miterlimit:10;stroke-dasharray:none;stroke-opacity:1"
       id="path5286"
       inkscape:connector-curvature="0" />
  </g>
  <g
     inkscape:groupmode="layer"
     id="layer2"
     inkscape:label="Somatic"
     style="display:none"
     transform="translate(2.7783959e-5,59.99996)">
    <flowRoot
       xml:space="preserve"
       id="flowRoot5674-6-8-3"
       style="font-style:normal;font-variant:normal;font-weight:normal;font-stretch:normal;font-size:52.46426392px;line-height:125%;font-family:Chandas;-inkscape-font-specification:Chandas;letter-spacing:0px;word-spacing:0px;display:inline;fill:#ffffff;fill-opacity:1;stroke:none;stroke-width:1px;stroke-linecap:butt;stroke-linejoin:miter;stroke-opacity:1"
       transform="translate(2.9094459,-398.05499)"><flowRegion
         id="flowRegion5676-1-5-3"><rect
           id="rect5678-0-9-3"
           width="616.24683"
           height="383.07242"
           x="133.01567"
           y="345.89627"
           style="font-style:normal;font-variant:normal;font-weight:normal;font-stretch:normal;font-size:52.46426392px;font-family:Chandas;-inkscape-font-specification:Chandas;fill:#ffffff" /></flowRegion><flowPara
         id="flowPara5680-6-75-8"
         style="font-style:normal;font-variant:normal;font-weight:normal;font-stretch:normal;font-size:50.00000381px;font-family:Michroma;-inkscape-font-specification:Michroma;text-align:start;text-anchor:start;fill:#ffffff">Sarek</flowPara><flowPara
         id="flowPara5682-3-3-0"
         style="font-style:normal;font-variant:normal;font-weight:normal;font-stretch:normal;font-family:'Eurostile Extended';-inkscape-font-specification:'Eurostile Extended';text-align:start;text-anchor:start;fill:#ffffff" /></flowRoot>    <path
       sodipodi:nodetypes="cc"
       inkscape:connector-curvature="0"
       inkscape:connector-type="polyline"
       id="path5765-9-47"
       d="m 167.89671,4.8706135 159.33698,0"
       style="display:inline;fill:none;fill-opacity:1;fill-rule:evenodd;stroke:#e41a1c;stroke-width:4.20000029;stroke-linecap:butt;stroke-linejoin:miter;stroke-miterlimit:4;stroke-dasharray:none;stroke-opacity:1" />
    <flowRoot
       xml:space="preserve"
       id="flowRoot4835-4-8"
       style="font-style:normal;font-variant:normal;font-weight:normal;font-stretch:normal;font-size:41.45429611px;line-height:125%;font-family:Chandas;-inkscape-font-specification:Chandas;letter-spacing:0px;word-spacing:0px;display:inline;fill:#ffffff;fill-opacity:1;stroke:none;stroke-width:1px;stroke-linecap:butt;stroke-linejoin:miter;stroke-opacity:1"
       transform="translate(-12.814241,-398.10894)"><flowRegion
         id="flowRegion4837-7-6"><rect
           id="rect4839-8-8"
           width="616.24683"
           height="383.07242"
           x="178.36752"
           y="347.11771"
           style="font-style:normal;font-variant:normal;font-weight:normal;font-stretch:normal;font-size:41.45429611px;font-family:Chandas;-inkscape-font-specification:Chandas;fill:#ffffff" /></flowRegion><flowPara
         id="flowPara4841-4-3"
         style="font-style:normal;font-variant:normal;font-weight:normal;font-stretch:normal;font-size:41.45429611px;font-family:'Eurostile Extended';-inkscape-font-specification:'Eurostile Extended';text-align:start;text-anchor:start;fill:#ffffff" /><flowPara
         id="flowPara4843-5-8"
         style="font-style:normal;font-variant:normal;font-weight:normal;font-stretch:normal;font-size:37.50000381px;font-family:Michroma;-inkscape-font-specification:Michroma;text-align:start;text-anchor:start;fill:#ffffff">Somatic</flowPara></flowRoot>    <path
       inkscape:connector-curvature="0"
       id="path5300"
       style="fill:#000000;stroke:none;stroke-width:4.18779993;stroke-linecap:butt;stroke-linejoin:miter;stroke-miterlimit:10;stroke-dasharray:none;stroke-opacity:1"
       d="m 117.91218,-0.00605 c 0,-31.98037 -25.925277,-57.90611 -57.906108,-57.90611 -31.980369,0 -57.9060996,25.92574 -57.9060996,57.90611 0,31.98036 25.9257306,57.9061 57.9060996,57.9061 31.980831,0 57.906108,-25.92574 57.906108,-57.9061 z" />
    <path
       inkscape:connector-curvature="0"
       id="path5302"
       d="m 45.336146,-26.81464 -3.867187,1.67382 -4.886719,30.77734 -10.748047,2.93164 0,38.10743 -0.0332,0.0469 c 9.584012,7.02713 21.41042,11.17773 34.205078,11.17773 25.579545,0 47.285079,-16.5858 54.949219,-39.58985 l 0.0957,0.0312 -0.0898,-0.0527 c 1.91353,-5.75078 2.95117,-11.90144 2.95117,-18.29492 0,-3.51077 -0.31177,-6.94701 -0.91016,-10.28516 L 45.336146,-26.81464 Z"
       style="fill:#f49c9d;fill-opacity:1;fill-rule:nonzero;stroke:none" />
    <path
       d="m 115.05057,18.34213 -73.582439,-43.48285 -4.885301,30.778 -10.747755,2.93146 0,38.10619 -0.0335,0.0479 c 9.584013,7.02713 21.409894,11.17724 34.204553,11.17724 25.579547,0 47.284912,-16.58555 54.949052,-39.58961"
       style="fill:#e41a1c;fill-opacity:1;fill-rule:nonzero;stroke:none"
       id="path5304"
       inkscape:connector-curvature="0" />
    <path
       d="m 117.9002,5e-5 c 0,-31.97712 -25.922646,-57.90023 -57.900226,-57.90023 -31.977116,0 -57.900215,25.92311 -57.900215,57.90023 0,31.97711 25.923099,57.90021 57.900215,57.90021 31.97758,0 57.900226,-25.9231 57.900226,-57.90021 z"
       style="fill:none;stroke:#ffffff;stroke-width:4.19957352;stroke-linecap:butt;stroke-linejoin:miter;stroke-miterlimit:10;stroke-dasharray:none;stroke-opacity:1"
       id="path5306"
       inkscape:connector-curvature="0" />
  </g>
  <g
     inkscape:groupmode="layer"
     id="layer3"
     inkscape:label="Exome"
     style="display:none"
     transform="translate(2.7783959e-5,59.99996)">
    <flowRoot
       xml:space="preserve"
       id="flowRoot5674-6-2"
       style="font-style:normal;font-variant:normal;font-weight:normal;font-stretch:normal;font-size:52.46426392px;line-height:125%;font-family:Chandas;-inkscape-font-specification:Chandas;letter-spacing:0px;word-spacing:0px;display:inline;fill:#ffffff;fill-opacity:1;stroke:none;stroke-width:1px;stroke-linecap:butt;stroke-linejoin:miter;stroke-opacity:1"
       transform="translate(2.9094459,-271.6004)"><flowRegion
         id="flowRegion5676-1-2"><rect
           id="rect5678-0-6"
           width="616.24683"
           height="383.07242"
           x="133.01567"
           y="219.43036"
           style="font-style:normal;font-variant:normal;font-weight:normal;font-stretch:normal;font-size:52.46426392px;font-family:Chandas;-inkscape-font-specification:Chandas;fill:#ffffff" /></flowRegion><flowPara
         id="flowPara5680-6-4"
         style="font-style:normal;font-variant:normal;font-weight:normal;font-stretch:normal;font-size:50.00000381px;font-family:Michroma;-inkscape-font-specification:Michroma;text-align:start;text-anchor:start;fill:#ffffff">Sarek</flowPara><flowPara
         id="flowPara5682-3-1"
         style="font-style:normal;font-variant:normal;font-weight:normal;font-stretch:normal;font-size:50.00000381px;font-family:Michroma;-inkscape-font-specification:Michroma;text-align:start;text-anchor:start;fill:#ffffff" /></flowRoot>    <path
       sodipodi:nodetypes="cc"
       inkscape:connector-curvature="0"
       inkscape:connector-type="polyline"
       id="path5765-8"
       d="m 167.8967,4.8706135 159.33699,0"
       style="display:inline;fill:none;fill-opacity:1;fill-rule:evenodd;stroke:#974ea2;stroke-width:4.20000029;stroke-linecap:butt;stroke-linejoin:miter;stroke-miterlimit:4;stroke-dasharray:none;stroke-opacity:1" />
    <flowRoot
       style="font-style:normal;font-variant:normal;font-weight:normal;font-stretch:normal;font-size:41.45429611px;line-height:125%;font-family:Chandas;-inkscape-font-specification:Chandas;letter-spacing:0px;word-spacing:0px;display:inline;fill:#ffffff;fill-opacity:1;stroke:none;stroke-width:1px;stroke-linecap:butt;stroke-linejoin:miter;stroke-opacity:1"
       id="flowRoot4845-2-2"
       xml:space="preserve"
       transform="translate(-13.488069,-271.4019)"><flowRegion
         id="flowRegion4847-0-8"><rect
           style="font-style:normal;font-variant:normal;font-weight:normal;font-stretch:normal;font-size:41.45429611px;font-family:Chandas;-inkscape-font-specification:Chandas;fill:#ffffff"
           y="220.65378"
           x="177.86926"
           height="383.07242"
           width="616.24683"
           id="rect4849-6-8" /></flowRegion><flowPara
         style="font-style:normal;font-variant:normal;font-weight:normal;font-stretch:normal;font-size:41.45429611px;font-family:'Eurostile Extended';-inkscape-font-specification:'Eurostile Extended';text-align:start;text-anchor:start;fill:#ffffff"
         id="flowPara4851-1-9" /><flowPara
         style="font-style:normal;font-variant:normal;font-weight:normal;font-stretch:normal;font-size:37.50000381px;font-family:Michroma;-inkscape-font-specification:Michroma;text-align:start;text-anchor:start;fill:#ffffff"
         id="flowPara4853-5-28">Exome</flowPara></flowRoot>    <path
       d="m 117.91218,-0.01825 c 0,-31.98037 -25.925277,-57.90611 -57.906108,-57.90611 -31.980369,0 -57.9060996,25.92574 -57.9060996,57.90611 0,31.98036 25.9257306,57.9061 57.9060996,57.9061 31.980831,0 57.906108,-25.92574 57.906108,-57.9061 z"
       style="fill:#000000;stroke:none;stroke-width:4.18779993;stroke-linecap:butt;stroke-linejoin:miter;stroke-miterlimit:10;stroke-dasharray:none;stroke-opacity:1"
       id="path5290"
       inkscape:connector-curvature="0" />
    <path
       style="fill:#d6b5db;fill-opacity:1;fill-rule:nonzero;stroke:none"
       d="m 45.336146,-26.82684 -3.867187,1.67382 -4.886719,30.77734 -10.748047,2.93164 0,38.10743 -0.0332,0.0469 c 9.584012,7.02713 21.41042,11.17773 34.205078,11.17773 25.579545,0 47.285079,-16.5858 54.949219,-39.58985 l 0.0957,0.0312 -0.0898,-0.0527 c 1.91353,-5.75078 2.95117,-11.90144 2.95117,-18.29492 0,-3.51077 -0.31177,-6.94701 -0.91016,-10.28516 L 45.336146,-26.82684 Z"
       id="path5292"
       inkscape:connector-curvature="0" />
    <path
       inkscape:connector-curvature="0"
       id="path5294"
       style="fill:#974ea2;fill-opacity:1;fill-rule:nonzero;stroke:none"
       d="m 115.05057,18.32993 -73.582439,-43.48285 -4.885301,30.778 -10.747755,2.93146 0,38.10619 -0.0335,0.0479 c 9.584013,7.02713 21.409894,11.17724 34.204553,11.17724 25.579547,0 47.284912,-16.58555 54.949052,-39.58961" />
    <path
       inkscape:connector-curvature="0"
       id="path5296"
       style="fill:none;stroke:#ffffff;stroke-width:4.19957352;stroke-linecap:butt;stroke-linejoin:miter;stroke-miterlimit:10;stroke-dasharray:none;stroke-opacity:1"
       d="m 117.9002,4e-5 c 0,-31.977116 -25.922646,-57.900221 -57.900226,-57.900221 -31.977116,0 -57.900215,25.923105 -57.900215,57.900221 0,31.97711 25.923099,57.90022 57.900215,57.90022 31.97758,0 57.900226,-25.92311 57.900226,-57.90022 z" />
  </g>
  <g
     inkscape:groupmode="layer"
     id="layer4"
     inkscape:label="Sarek"
     style="display:inline"
     transform="translate(2.7783959e-5,59.99996)">
    <flowRoot
       style="font-style:normal;font-variant:normal;font-weight:normal;font-stretch:normal;font-size:52.46426392px;line-height:125%;font-family:Chandas;-inkscape-font-specification:Chandas;letter-spacing:0px;word-spacing:0px;display:inline;fill:#ffffff;fill-opacity:1;stroke:none;stroke-width:1px;stroke-linecap:butt;stroke-linejoin:miter;stroke-opacity:1"
       id="flowRoot5349-3"
       xml:space="preserve"
       transform="translate(170.97195,-1611.369)"><flowRegion
         id="flowRegion5351-1"><rect
           style="font-style:normal;font-variant:normal;font-weight:normal;font-stretch:normal;font-size:52.46426392px;font-family:Chandas;-inkscape-font-specification:Chandas;fill:#ffffff"
           y="1559.1736"
           x="-35.047737"
           height="383.07242"
           width="616.24683"
           id="rect5353-4" /></flowRegion><flowPara
         style="font-style:normal;font-variant:normal;font-weight:normal;font-stretch:normal;font-size:50.00000381px;font-family:Michroma;-inkscape-font-specification:Michroma;text-align:start;text-anchor:start;fill:#ffffff"
         id="flowPara5355-6">Sarek</flowPara><flowPara
         style="font-style:normal;font-variant:normal;font-weight:normal;font-stretch:normal;font-family:'Eurostile Extended';-inkscape-font-specification:'Eurostile Extended';text-align:start;text-anchor:start;fill:#ffffff"
         id="flowPara5357-9" /></flowRoot>    <path
       style="display:inline;fill:none;fill-opacity:1;fill-rule:evenodd;stroke:#4daf4a;stroke-width:4.20000029;stroke-linecap:butt;stroke-linejoin:miter;stroke-miterlimit:4;stroke-dasharray:none;stroke-opacity:1"
       d="m 167.8967,4.8706135 159.33699,0"
       id="path4964-31-4"
       inkscape:connector-type="polyline"
       inkscape:connector-curvature="0"
       sodipodi:nodetypes="cc" />
    <path
       d="m 117.91218,-0.04264 c 0,-31.98037 -25.925277,-57.90611 -57.906108,-57.90611 -31.980369,0 -57.9060996,25.92574 -57.9060996,57.90611 0,31.980361 25.9257306,57.906099 57.9060996,57.906099 31.980831,0 57.906108,-25.925738 57.906108,-57.906099 z"
       style="fill:#000000;stroke:none;stroke-width:4.18779993;stroke-linecap:butt;stroke-linejoin:miter;stroke-miterlimit:10;stroke-dasharray:none;stroke-opacity:1"
       id="path4113"
       inkscape:connector-curvature="0" />
    <path
       style="fill:#b3deb2;fill-opacity:1;fill-rule:nonzero;stroke:none"
       d="m 45.336146,-26.85123 -3.867187,1.67382 -4.886719,30.77734 -10.748047,2.93164 0,38.107427 -0.0332,0.0469 c 9.584012,7.02713 21.41042,11.17773 34.205078,11.17773 25.579545,0 47.285079,-16.5858 54.949219,-39.589847 l 0.0957,0.0312 -0.0898,-0.0527 c 1.91353,-5.75078 2.95117,-11.90144 2.95117,-18.29492 0,-3.51077 -0.31177,-6.94701 -0.91016,-10.28516 L 45.336146,-26.85123 Z"
       id="path4117"
       inkscape:connector-curvature="0" />
    <path
       inkscape:connector-curvature="0"
       id="path172"
       style="fill:#4daf4a;fill-opacity:1;fill-rule:nonzero;stroke:none"
       d="m 115.05057,18.30554 -73.582439,-43.48285 -4.885301,30.778 -10.747755,2.93146 0,38.106187 -0.0335,0.0479 c 9.584013,7.02713 21.409894,11.17724 34.204553,11.17724 25.579547,0 47.284912,-16.58555 54.949052,-39.589607" />
    <path
       inkscape:connector-curvature="0"
       id="path220"
       style="fill:none;stroke:#ffffff;stroke-width:4.19957352;stroke-linecap:butt;stroke-linejoin:miter;stroke-miterlimit:10;stroke-dasharray:none;stroke-opacity:1"
       d="m 117.9002,4e-5 c 0,-31.97712 -25.922646,-57.90022 -57.900226,-57.90022 -31.977116,0 -57.900215,25.9231 -57.900215,57.90022 0,31.977116 25.923099,57.900219 57.900215,57.900219 31.97758,0 57.900226,-25.923103 57.900226,-57.900219 z" />
  </g>
</svg>
