<?xml version="1.0" encoding="UTF-8" standalone="no"?>
<!-- Created with Inkscape (http://www.inkscape.org/) -->

<svg
   xmlns:dc="http://purl.org/dc/elements/1.1/"
   xmlns:cc="http://creativecommons.org/ns#"
   xmlns:rdf="http://www.w3.org/1999/02/22-rdf-syntax-ns#"
   xmlns:svg="http://www.w3.org/2000/svg"
   xmlns="http://www.w3.org/2000/svg"
   xmlns:sodipodi="http://sodipodi.sourceforge.net/DTD/sodipodi-0.dtd"
   xmlns:inkscape="http://www.inkscape.org/namespaces/inkscape"
   version="1.1"
   id="svg2"
   xml:space="preserve"
   width="309.41211"
   height="100"
   viewBox="0 0 309.41211 100"
   sodipodi:docname="SciLifeLab.svg"
   inkscape:export-filename="SciLifeLab.png"
   inkscape:export-xdpi="96"
   inkscape:export-ydpi="96"
   inkscape:version="0.92.3 (2405546, 2018-03-11)"><metadata
     id="metadata8"><rdf:RDF><cc:Work
         rdf:about=""><dc:format>image/svg+xml</dc:format><dc:type
           rdf:resource="http://purl.org/dc/dcmitype/StillImage" /><dc:title></dc:title></cc:Work></rdf:RDF></metadata><defs
     id="defs6" /><sodipodi:namedview
     pagecolor="#ffffff"
     bordercolor="#666666"
     borderopacity="1"
     objecttolerance="10"
     gridtolerance="10"
     guidetolerance="10"
     inkscape:pageopacity="0"
     inkscape:pageshadow="2"
     inkscape:window-width="1920"
     inkscape:window-height="1012"
     id="namedview4"
     showgrid="false"
     fit-margin-top="0"
     fit-margin-left="0"
     fit-margin-right="0"
     fit-margin-bottom="0"
     inkscape:zoom="1.0143225"
     inkscape:cx="450.66142"
     inkscape:cy="120.65316"
     inkscape:window-x="1920"
     inkscape:window-y="312"
     inkscape:window-maximized="1"
     inkscape:current-layer="g10" /><g
     id="g10"
     inkscape:groupmode="layer"
     inkscape:label="SciLifeLab"
     transform="matrix(1.3333333,0,0,-1.3333333,0,100.0003)"><g
       id="g12"
       transform="matrix(0.39913982,0,0,0.39913982,0,1.3409897e-4)"><path
         d="m 336.699,177.091 c 0.102,0 9.903,9.902 9.801,9.902 -13.699,3 -31.398,-1.199 -42.602,-15.699 -12.5,-16.102 -13.898,-38.703 -14.296,-43.902 0,-0.098 -6,0 -6,0 l -8.204,-8.598 h 13.204 c 0,0 -7.301,-75.203 -7.903,-79.203 -0.597,-4 -3.801,-40.199 -35.5,-29.399 -0.097,0.102 -9.597,-8.601 -9.597,-8.699 15.199,-5.402 52.597,1.801 57,56.199 3.199,39.7 6.199,61.102 6.199,61.102 0,0 19.898,0.098 19.801,0 -1.102,-1.902 -5.5,-8.203 -5.403,-20 0.102,-19.801 14.699,-32.102 33.102,-32.203 22,-0.098 25.199,15.203 25.801,17.801 0,0 -1.403,0.601 -1.403,0.5 -1.699,-4.399 -5,-13 -19.301,-13.301 -17.898,-0.199 -27.699,20.5 -24.699,37.203 0,0.199 43.903,0 43.903,0 -0.5,25.5 -25.204,24.5 -29.403,23.797 -0.097,0 -0.097,-1.699 0,-1.699 16.403,2.402 18.102,-15.5 18.102,-19 0,-0.098 -32.199,-0.301 -32.199,-0.2 0.597,3.801 2.597,11.399 6.597,15 0.903,0.801 -34,0.399 -34,0.399 0,0 1.301,14 1.699,17.101 1.5,10.301 2.602,44.399 35.301,32.899 z"
         style="fill:#7fcb28;fill-opacity:1;fill-rule:evenodd;stroke:none"
         id="path14"
         inkscape:connector-curvature="0" /><path
         d="m 1.699,68.493 c 0.903,2.301 2.602,3.5 4.903,3.5 0.796,0 1.398,-0.101 2,-0.301 0.699,-0.199 2.5,-0.898 5.5,-2.3 6,-2.5 12.097,-3.801 18.5,-3.801 7,0 13.097,1.601 18.296,4.801 5.102,3.101 9,7.601 11.602,13.402 1.801,4.098 2.699,8.398 2.699,13 0,6.898 -2,12.898 -6,18 -3.597,4.699 -9.5,8.898 -17.5,12.699 l -10.5,5.098 c -10.699,5 -16,11.801 -16,20 0,2.101 0.403,4.203 1.199,6.301 0.704,2.101 1.801,3.902 3.102,5.5 3.199,3.699 7.602,5.601 13.199,5.601 3.801,0 7.199,-0.902 10.102,-2.801 2.898,-1.898 5.597,-4.699 8,-8.601 1.398,-2.098 2.5,-4.5 3.5,-6.899 0.898,-2.601 2.097,-6.199 3.398,-10.898 h 1.699 l -0.5,29.598 h -1.699 c -0.597,-2.598 -1.801,-3.801 -3.5,-3.801 -0.699,0 -1.5,0.101 -2.398,0.402 -0.903,0.199 -2.602,0.899 -5,1.899 -3.403,1.402 -6,2.3 -8,2.8 -2,0.399 -4.102,0.7 -6.5,0.7 -7.199,0 -13.403,-2.5 -18.699,-7.301 -2.903,-2.699 -5.301,-6 -7,-9.797 -1.602,-3.902 -2.403,-7.801 -2.403,-11.902 0,-6.7 2.102,-12.399 6.403,-17.098 1.5,-1.703 3.5,-3.301 6.097,-5 2.5,-1.703 6,-3.703 10.801,-6 5.301,-2.703 9.301,-5 11.898,-6.801 2.602,-1.699 4.602,-3.601 6.102,-5.5 1.398,-1.902 2.5,-4.199 3.301,-6.801 0.801,-2.699 1.199,-5.199 1.199,-7.8 0,-5.899 -1.898,-10.7 -5.602,-14.5 -3.699,-3.801 -8.398,-5.801 -14.097,-5.801 -8.199,0 -15,4.203 -20.403,12.5 C 6.5,85.192 4,91.294 1.898,99.192 H 0.199 L 0,68.493 Z"
         style="fill:#000000;fill-opacity:1;fill-rule:evenodd;stroke:none"
         id="path16"
         inkscape:connector-curvature="0" /><path
         d="m 116.5,74.493 c -3.199,-3 -7.102,-4.601 -11.801,-4.601 -5.801,0 -10.801,2.3 -15.097,6.699 -2.704,2.902 -4.801,6.402 -6.403,10.601 -1.597,4.2 -2.398,8.602 -2.398,13 0,4.801 0.898,9.7 2.597,14.7 1.102,3.3 2.5,6 4,8.199 1.5,2.101 3.301,3.902 5.5,5.402 2.5,1.598 5.204,2.399 8.102,2.399 2.199,0 4.102,-0.5 5.602,-1.7 0.796,-0.601 1.5,-1.3 1.898,-2.101 0.398,-0.797 0.898,-2.297 1.602,-4.399 1.597,-4.8 3.898,-7.101 7.199,-7.101 1.5,0 2.699,0.5 3.801,1.601 1,1 1.5,2.399 1.5,4 0,2.399 -1.204,4.5 -3.704,6.5 -4.097,3.2 -9.699,4.801 -16.898,4.801 -5.199,0 -10,-0.801 -14.398,-2.699 -4.403,-1.801 -8.102,-4.5 -11.102,-7.902 -2.699,-3.098 -4.801,-6.801 -6.301,-11 -1.597,-4.301 -2.398,-8.598 -2.398,-13 0,-8.899 2.801,-16.301 8.398,-22.2 5.699,-5.898 13.5,-8.898 23.602,-8.898 6.199,0 11.097,1.199 14.699,3.598 3.602,2.3 6.301,6 8,11.3 l -1.5,0.5 c -1.5,-3.5 -2.898,-6.101 -4.5,-7.699 z"
         style="fill:#000000;fill-opacity:1;fill-rule:evenodd;stroke:none"
         id="path18"
         inkscape:connector-curvature="0" /><path
         d="m 122.898,128.294 c 2.204,-0.102 3.903,-0.5 5.102,-1.102 1.199,-0.601 2.199,-1.601 3,-3 0.898,-1.3 1.398,-3 1.699,-5 0.301,-2.101 0.403,-5.601 0.403,-10.699 V 90.091 c 0,-4.297 -0.102,-7.598 -0.403,-9.899 -0.199,-2.3 -0.597,-4 -1.097,-5.101 -0.801,-1.797 -1.903,-3 -3.102,-3.699 -1.301,-0.7 -3.398,-1.301 -6.398,-1.7 V 68.091 H 155 v 1.601 c -3.801,0.7 -6.301,1.801 -7.699,3.102 -1.102,1 -1.903,2.297 -2.301,3.797 -0.398,1.601 -0.602,4.101 -0.602,7.402 l -0.097,5.699 v 42.801 l -21.403,-2.601 z"
         style="fill:#000000;fill-opacity:1;fill-rule:evenodd;stroke:none"
         id="path20"
         inkscape:connector-curvature="0" /><path
         d="m 246.102,68.091 0.898,30.601 -1.801,0.102 c -0.898,-4.602 -2,-8.301 -3.097,-11.102 -1.102,-2.898 -2.5,-5.398 -4.204,-7.601 -2.597,-3.297 -5.898,-5.699 -10,-7.297 -4,-1.5 -9,-2.301 -14.898,-2.301 -5.699,0 -10.199,0.801 -13.602,2.5 -3.5,1.598 -6.097,4.199 -7.796,7.801 -1,2.098 -1.602,4.699 -2,7.898 -0.403,3.301 -0.5,8.2 -0.5,14.7 v 43 c 0,5.199 0.296,9.101 0.898,11.5 0.602,2.5 1.699,4.601 3.398,6.199 1.301,1.301 2.903,2.301 4.602,2.801 1.801,0.699 4,1 6.699,1.199 v 1.703 h -47.597 v -1.703 c 2.699,-0.098 4.898,-0.5 6.597,-1.098 1.801,-0.601 3.301,-1.5 4.699,-2.801 1.602,-1.601 2.801,-3.601 3.403,-6.101 0.699,-2.598 1,-6.399 1,-11.699 V 91.493 c 0,-5 -0.301,-8.801 -0.903,-11.199 -0.5,-2.5 -1.597,-4.5 -3.097,-6.102 -2.801,-2.8 -6.699,-4.3 -11.699,-4.3 v -1.801 z"
         style="fill:#7fcb28;fill-opacity:1;fill-rule:evenodd;stroke:none"
         id="path22"
         inkscape:connector-curvature="0" /><path
         d="m 249.602,128.294 c 2.199,-0.102 3.898,-0.5 5.097,-1.102 1.199,-0.601 2.199,-1.601 3.102,-3 0.801,-1.3 1.398,-3 1.597,-5 0.301,-2.101 0.403,-5.601 0.403,-10.699 V 90.091 c 0,-4.297 -0.102,-7.598 -0.301,-9.899 -0.199,-2.3 -0.602,-4 -1.199,-5.101 -0.801,-1.797 -1.801,-3 -3.102,-3.699 -1.301,-0.7 -3.5,-1.301 -6.398,-1.7 v -1.601 h 32.898 v 1.601 c -3.699,0.7 -6.301,1.801 -7.699,3.102 -1.102,1 -1.898,2.297 -2.301,3.797 -0.398,1.601 -0.597,4.101 -0.597,7.402 L 271,89.692 v 42.801 l -21.398,-2.601 z"
         style="fill:#7fcb28;fill-opacity:1;fill-rule:evenodd;stroke:none"
         id="path24"
         inkscape:connector-curvature="0" /><path
         d="m 454.602,68.091 1,30.601 -1.801,0.102 c -1,-4.602 -2,-8.301 -3.102,-11.102 -1.097,-2.898 -2.597,-5.398 -4.301,-7.601 -2.597,-3.297 -5.898,-5.699 -10,-7.297 -4,-1.5 -9,-2.301 -14.898,-2.301 -5.602,0 -10.199,0.801 -13.602,2.5 -3.398,1.598 -6,4.199 -7.796,7.801 -1,2.098 -1.602,4.699 -2,7.898 -0.301,3.301 -0.5,8.2 -0.5,14.7 v 43 c 0,5.199 0.296,9.101 0.898,11.5 0.602,2.5 1.801,4.601 3.398,6.199 1.403,1.301 2.903,2.301 4.704,2.801 1.699,0.699 3.898,1 6.597,1.199 v 1.703 h -47.5 v -1.703 c 2.699,-0.098 4.903,-0.5 6.5,-1.098 1.801,-0.601 3.301,-1.5 4.699,-2.801 1.704,-1.601 2.903,-3.601 3.5,-6.101 0.602,-2.598 0.903,-6.399 0.903,-11.699 V 91.493 c 0,-5 -0.301,-8.801 -0.903,-11.199 -0.5,-2.5 -1.597,-4.5 -3.097,-6.102 -2.801,-2.8 -6.602,-4.3 -11.602,-4.3 v -1.801 z"
         style="fill:#000000;fill-opacity:1;fill-rule:evenodd;stroke:none"
         id="path26"
         inkscape:connector-curvature="0" /><path
         d="m 493.602,92.294 c 0,-6.301 -0.801,-11.102 -2.301,-14.5 -1.102,-2.5 -2.699,-4.5 -4.903,-6 -2.097,-1.5 -4.398,-2.301 -6.898,-2.301 -2.699,0 -5,1.098 -6.801,3.199 -1.801,2.2 -2.699,4.899 -2.699,8.102 0,3.898 1.102,7.199 3.398,10 1.204,1.398 2.403,2.699 3.801,3.598 1.403,1 4,2.5 7.602,4.402 3.199,1.699 6.097,3.699 8.801,5.898 z m 21.5,-20.203 c -0.801,-0.598 -2,-0.797 -3.602,-0.797 -3.199,0 -5.199,1.797 -6.102,5.297 -0.398,1.703 -0.597,4.801 -0.597,9.5 v 27.5 c 0,3.601 -0.199,6 -0.602,7.601 -0.801,2.899 -2.801,5.301 -6,7.102 -2.301,1.199 -5,2.297 -8.398,3.098 -3.301,0.8 -6.5,1.101 -9.602,1.101 -2.699,0 -5.5,-0.199 -8.398,-0.801 -2.801,-0.601 -5.199,-1.3 -7.199,-2.199 -3.5,-1.699 -5.301,-3.902 -5.301,-6.402 0,-1.699 0.5,-3.098 1.699,-4.199 1.102,-1.098 2.5,-1.7 4.199,-1.7 2.602,0 4.403,1.2 5.403,3.602 l 1.796,4.199 c 0.801,1.801 2,3.301 3.602,4.399 1.602,1 3.398,1.5 5.5,1.5 1.602,0 3.301,-0.399 4.801,-1.098 1.597,-0.703 2.801,-1.703 3.801,-3 2.199,-2.703 3.398,-6.902 3.398,-12.703 0,-2.797 -0.398,-4.899 -1,-6.399 -0.602,-1.5 -1.699,-2.898 -3.301,-4 -1.398,-1.101 -3,-2 -5.097,-2.699 -2.102,-0.699 -5.301,-1.699 -9.602,-2.801 -3.602,-0.898 -6.5,-1.8 -8.398,-2.8 -1.903,-0.899 -3.704,-2.098 -5.102,-3.598 -2.699,-2.801 -4,-6.301 -4,-10.402 0,-4.399 1.602,-8 4.801,-10.598 3.199,-2.703 7.597,-4 13,-4 4.301,0 8.097,0.898 11.301,2.699 1.699,0.899 4.199,2.899 7.5,5.899 1.699,-2.801 3.296,-4.801 4.796,-6 2.301,-1.7 5.301,-2.598 8.801,-2.598 6.403,0 10.5,2.598 12.301,7.797 l -1.301,0.801 C 517,73.692 516,72.692 515.102,72.091 Z"
         style="fill:#000000;fill-opacity:1;fill-rule:evenodd;stroke:none"
         id="path28"
         inkscape:connector-curvature="0" /><path
         d="m 534.398,120.892 c 1.102,2.8 3,5.101 5.403,6.902 2.5,1.699 5.199,2.598 8,2.598 2.398,0 4.801,-0.598 7,-1.899 2.301,-1.301 4.398,-3.101 6.199,-5.5 2.398,-3 4.301,-6.5 5.602,-10.699 1.199,-4.203 1.898,-8.602 1.898,-13.301 0,-8.902 -2,-16.101 -5.898,-21.902 -4,-5.797 -8.903,-8.598 -15,-8.598 -2.801,0 -5.403,0.699 -7.602,2.098 -2.301,1.301 -4,3.203 -5.102,5.703 -1,2 -1.699,5.297 -2.398,9.699 -0.602,4.5 -0.801,9.301 -0.801,14.699 0,9.301 0.801,16 2.699,20.2 z m -2.699,51.8 -22.801,-3.101 v -1.797 c 4.204,0 7.102,-1.203 8.903,-3.602 1.801,-2.3 2.597,-6.3 2.597,-11.898 V 64.993 h 3 c 1.903,4.098 4.204,6.098 6.704,6.098 0.898,0 1.898,-0.199 3.097,-0.598 l 4.102,-1.699 c 3.301,-1.301 7.301,-2 12,-2 9,0 16.398,2.699 22.199,8.098 6.602,6.199 9.898,14.699 9.898,25.402 0,10.797 -3.398,19.199 -10.398,25 -5.602,4.797 -12.199,7.199 -19.699,7.199 -5.301,0 -9.903,-1.199 -13.699,-3.601 -1.801,-1.2 -3.801,-3.2 -5.903,-5.7 z"
         style="fill:#000000;fill-opacity:1;fill-rule:evenodd;stroke:none"
         id="path30"
         inkscape:connector-curvature="0" /><path
         d="m 138.301,144.591 c 3.898,0 7,3.101 7,7.101 0,3.801 -3.102,6.899 -7,6.899 -3.801,0 -6.903,-3.098 -6.903,-6.899 0,-4 3.102,-7.101 6.903,-7.101 z"
         style="fill:#000000;fill-opacity:1;fill-rule:evenodd;stroke:none"
         id="path32"
         inkscape:connector-curvature="0" /><path
         d="m 265.398,144.591 c 3.801,0 7,3.101 7,7.101 0,3.801 -3.199,6.899 -7,6.899 -3.898,0 -7,-3.098 -7,-6.899 0,-4 3.102,-7.101 7,-7.101 z"
         style="fill:#7fcb28;fill-opacity:1;fill-rule:evenodd;stroke:none"
         id="path34"
         inkscape:connector-curvature="0" /></g></g></svg>