<?xml version="1.0" encoding="UTF-8" standalone="no"?>
<!-- Created with Inkscape (http://www.inkscape.org/) -->

<svg
   xmlns:dc="http://purl.org/dc/elements/1.1/"
   xmlns:cc="http://creativecommons.org/ns#"
   xmlns:rdf="http://www.w3.org/1999/02/22-rdf-syntax-ns#"
   xmlns:svg="http://www.w3.org/2000/svg"
   xmlns="http://www.w3.org/2000/svg"
   xmlns:sodipodi="http://sodipodi.sourceforge.net/DTD/sodipodi-0.dtd"
   xmlns:inkscape="http://www.inkscape.org/namespaces/inkscape"
   version="1.1"
   id="svg2"
   xml:space="preserve"
   width="540"
   height="117.17813"
   viewBox="0 0 540 117.17813"
   sodipodi:docname="SciLifeLab_logo.svg"
   inkscape:version="0.92.5 (2060ec1f9f, 2020-04-08)"
   inkscape:export-filename="SciLifeLab_logo.png"
   inkscape:export-xdpi="90"
   inkscape:export-ydpi="90"><metadata
     id="metadata8"><rdf:RDF><cc:Work
         rdf:about=""><dc:format>image/svg+xml</dc:format><dc:type
           rdf:resource="http://purl.org/dc/dcmitype/StillImage" /><dc:title></dc:title></cc:Work></rdf:RDF></metadata><defs
     id="defs6"><clipPath
       clipPathUnits="userSpaceOnUse"
       id="clipPath18"><path
         d="M 0,87.884 H 405 V 0 H 0 Z"
         id="path16"
         inkscape:connector-curvature="0" /></clipPath></defs><sodipodi:namedview
     pagecolor="#ffffff"
     bordercolor="#666666"
     borderopacity="1"
     objecttolerance="10"
     gridtolerance="10"
     guidetolerance="10"
     inkscape:pageopacity="0"
     inkscape:pageshadow="2"
     inkscape:window-width="1920"
     inkscape:window-height="1056"
     id="namedview4"
     showgrid="false"
     inkscape:zoom="0.74074074"
     inkscape:cx="270"
     inkscape:cy="58.589066"
     inkscape:window-x="0"
     inkscape:window-y="0"
     inkscape:window-maximized="1"
     inkscape:current-layer="g10" /><g
     id="g10"
     inkscape:groupmode="layer"
     inkscape:label="SciLifeLab_Logotype_Green_POS"
     transform="matrix(1.3333333,0,0,-1.3333333,0,117.17813)"><g
       id="g12"><g
         id="g14"
         clip-path="url(#clipPath18)"><g
           id="g20"
           transform="translate(253.5525,14.9146)"><path
             d="m 0,0 v 29.067 h -5.904 v 4.426 H 0 v 1.022 c 0,1.795 0.281,3.389 0.846,4.782 0.563,1.393 1.376,2.564 2.434,3.514 1.058,0.949 2.348,1.666 3.867,2.151 1.52,0.485 3.234,0.727 5.145,0.727 1.473,0 2.935,-0.175 4.385,-0.526 L 16.332,40.52 c -0.484,0.082 -1.031,0.149 -1.641,0.201 -0.61,0.051 -1.213,0.077 -1.812,0.077 -2.071,0 -3.672,-0.541 -4.8,-1.625 C 6.951,38.09 6.388,36.537 6.388,34.515 v -1.022 h 6.303 V 29.067 H 6.388 L 6.388,0 Z"
             style="fill:#231f20;fill-opacity:1;fill-rule:nonzero;stroke:none"
             id="path22"
             inkscape:connector-curvature="0" /></g><g
           id="g24"
           transform="translate(143.6101,26.0372)"><path
             d="m 0,0 c 0,1.053 -0.179,1.981 -0.536,2.786 -0.358,0.804 -0.989,1.542 -1.899,2.213 -0.91,0.67 -2.135,1.3 -3.676,1.888 -1.543,0.589 -3.5,1.192 -5.87,1.811 -2.488,0.64 -4.737,1.367 -6.751,2.182 -2.014,0.816 -3.729,1.755 -5.145,2.817 -1.416,1.063 -2.503,2.276 -3.263,3.637 -0.759,1.363 -1.139,2.92 -1.139,4.675 0,1.754 0.409,3.379 1.225,4.875 0.818,1.496 1.975,2.797 3.47,3.901 1.497,1.103 3.292,1.965 5.387,2.585 2.094,0.618 4.431,0.928 7.009,0.928 2.832,0 5.352,-0.382 7.562,-1.145 2.21,-0.764 4.068,-1.775 5.576,-3.034 C 3.457,28.86 4.604,27.405 5.386,25.754 6.168,24.103 6.56,22.401 6.56,20.647 h -6.664 c 0,1.258 -0.224,2.425 -0.673,3.498 -0.449,1.073 -1.134,2.001 -2.055,2.786 -0.921,0.784 -2.071,1.393 -3.453,1.826 -1.381,0.433 -3.015,0.65 -4.903,0.65 -1.772,0 -3.315,-0.185 -4.626,-0.557 -1.312,-0.371 -2.395,-0.882 -3.247,-1.533 -0.851,-0.65 -1.484,-1.418 -1.898,-2.305 -0.415,-0.888 -0.622,-1.858 -0.622,-2.91 0,-0.95 0.225,-1.816 0.673,-2.6 0.45,-0.785 1.145,-1.507 2.09,-2.168 0.943,-0.66 2.158,-1.268 3.642,-1.826 1.485,-0.557 3.263,-1.093 5.335,-1.61 2.854,-0.722 5.318,-1.522 7.389,-2.398 C -0.381,10.622 1.329,9.627 2.676,8.513 4.022,7.398 5.023,6.149 5.68,4.767 6.336,3.384 6.664,1.815 6.664,0.062 6.664,-1.775 6.249,-3.436 5.42,-4.922 4.592,-6.408 3.412,-7.677 1.882,-8.729 c -1.532,-1.053 -3.373,-1.863 -5.526,-2.43 -2.152,-0.568 -4.552,-0.852 -7.199,-0.852 -1.542,0 -3.084,0.129 -4.627,0.387 -1.542,0.258 -3.02,0.645 -4.435,1.161 -1.416,0.516 -2.729,1.156 -3.938,1.92 -1.208,0.763 -2.261,1.65 -3.158,2.662 -0.898,1.01 -1.601,2.145 -2.106,3.404 -0.507,1.259 -0.76,2.642 -0.76,4.148 h 6.664 c 0,-1.547 0.339,-2.874 1.018,-3.977 0.679,-1.105 1.588,-2.018 2.728,-2.74 1.14,-0.723 2.451,-1.253 3.936,-1.594 1.485,-0.34 3.043,-0.511 4.678,-0.511 3.499,0 6.181,0.64 8.045,1.92 C -0.933,-3.952 0,-2.208 0,0"
             style="fill:#231f20;fill-opacity:1;fill-rule:nonzero;stroke:none"
             id="path26"
             inkscape:connector-curvature="0" /></g><g
           id="g28"
           transform="translate(169.9216,18.7008)"><path
             d="M 0,0 C 1.128,0 2.21,0.165 3.247,0.495 4.282,0.825 5.197,1.279 5.991,1.857 6.785,2.435 7.43,3.121 7.925,3.916 8.42,4.71 8.714,5.572 8.806,6.5 h 6.042 C 14.756,5.015 14.301,3.596 13.484,2.244 12.667,0.892 11.59,-0.294 10.256,-1.315 8.92,-2.337 7.373,-3.152 5.611,-3.761 3.851,-4.369 1.98,-4.674 0,-4.674 c -2.808,0 -5.253,0.449 -7.337,1.346 -2.083,0.898 -3.814,2.11 -5.195,3.638 -1.382,1.526 -2.413,3.301 -3.091,5.324 -0.68,2.022 -1.019,4.158 -1.019,6.408 v 1.3 c 0,2.249 0.339,4.385 1.019,6.408 0.678,2.021 1.709,3.796 3.091,5.323 1.381,1.528 3.107,2.74 5.178,3.638 2.072,0.898 4.511,1.347 7.32,1.347 2.187,0 4.172,-0.31 5.957,-0.929 1.783,-0.62 3.325,-1.471 4.626,-2.554 1.301,-1.083 2.319,-2.368 3.056,-3.854 0.736,-1.486 1.151,-3.085 1.243,-4.798 H 8.806 c -0.092,1.032 -0.364,1.996 -0.812,2.894 -0.449,0.898 -1.053,1.682 -1.812,2.353 -0.76,0.67 -1.663,1.202 -2.711,1.594 -1.047,0.392 -2.216,0.588 -3.505,0.588 -1.98,0 -3.62,-0.351 -4.92,-1.052 -1.301,-0.702 -2.348,-1.625 -3.143,-2.771 -0.794,-1.145 -1.351,-2.435 -1.674,-3.869 -0.323,-1.435 -0.483,-2.874 -0.483,-4.318 v -1.3 c 0,-1.486 0.16,-2.947 0.483,-4.38 0.323,-1.435 0.875,-2.72 1.658,-3.854 0.782,-1.136 1.83,-2.055 3.142,-2.755 C -3.659,0.351 -2.002,0 0,0"
             style="fill:#231f20;fill-opacity:1;fill-rule:nonzero;stroke:none"
             id="path30"
             inkscape:connector-curvature="0" /></g><g
           id="g32"
           transform="translate(208.656,19.5059)"><path
             d="M 0,0 H 23.825 V -4.86 H -6.663 V 40.83 H 0 Z"
             style="fill:#231f20;fill-opacity:1;fill-rule:nonzero;stroke:none"
             id="path34"
             inkscape:connector-curvature="0" /></g><g
           id="g36"
           transform="translate(283.0262,44.3219)"><path
             d="m 0,0 c -1.289,0 -2.475,-0.212 -3.556,-0.635 -1.082,-0.423 -2.049,-1.036 -2.9,-1.842 -0.853,-0.804 -1.56,-1.806 -2.124,-3.002 -0.565,-1.197 -0.949,-2.57 -1.156,-4.117 H 8.978 v 0.433 C 8.908,-8.049 8.707,-6.944 8.373,-5.851 8.039,-4.757 7.521,-3.776 6.819,-2.91 6.117,-2.043 5.214,-1.342 4.109,-0.805 3.005,-0.269 1.634,0 0,0 m 0.795,-30.026 c -2.602,0 -4.955,0.402 -7.062,1.207 -2.105,0.805 -3.907,1.924 -5.403,3.359 -1.497,1.433 -2.647,3.141 -3.453,5.122 -0.806,1.982 -1.208,4.149 -1.208,6.501 v 1.3 c 0,2.724 0.454,5.159 1.363,7.306 0.909,2.146 2.123,3.951 3.643,5.417 1.519,1.465 3.257,2.585 5.214,3.358 C -4.155,4.318 -2.118,4.705 0,4.705 2.671,4.705 4.973,4.287 6.906,3.451 8.839,2.616 10.433,1.465 11.688,0 c 1.254,-1.465 2.18,-3.199 2.78,-5.201 0.597,-2.001 0.897,-4.178 0.897,-6.531 v -2.569 H -9.944 c 0.047,-1.548 0.328,-2.993 0.846,-4.334 0.518,-1.342 1.254,-2.507 2.21,-3.498 0.954,-0.991 2.107,-1.775 3.452,-2.353 1.347,-0.577 2.872,-0.867 4.576,-0.867 2.256,0 4.166,0.413 5.732,1.239 1.565,0.825 2.935,1.919 4.108,3.281 l 3.902,-2.724 c -0.599,-0.825 -1.324,-1.625 -2.175,-2.399 -0.853,-0.774 -1.848,-1.465 -2.987,-2.074 -1.14,-0.609 -2.446,-1.094 -3.919,-1.455 -1.473,-0.361 -3.142,-0.541 -5.006,-0.541"
             style="fill:#231f20;fill-opacity:1;fill-rule:nonzero;stroke:none"
             id="path38"
             inkscape:connector-curvature="0" /></g><g
           id="g40"
           transform="translate(309.5349,19.7745)"><path
             d="M 0,0 H 23.825 V -4.86 H -6.663 V 40.83 H 0 Z"
             style="fill:#231f20;fill-opacity:1;fill-rule:nonzero;stroke:none"
             id="path42"
             inkscape:connector-curvature="0" /></g><g
           id="g44"
           transform="translate(349.0515,19.2794)"><path
             d="m 0,0 c 1.151,0 2.232,0.144 3.246,0.433 1.013,0.289 1.933,0.666 2.762,1.13 0.828,0.464 1.548,0.996 2.158,1.594 0.609,0.598 1.088,1.218 1.433,1.858 v 6.872 H 4.281 c -3.66,0 -6.479,-0.512 -8.459,-1.533 -1.98,-1.021 -2.969,-2.564 -2.969,-4.627 0,-0.806 0.149,-1.559 0.448,-2.26 0.3,-0.702 0.755,-1.306 1.365,-1.811 C -4.725,1.15 -3.977,0.747 -3.09,0.449 -2.205,0.149 -1.174,0 0,0 m 10.6,-4.365 c -0.23,0.412 -0.414,0.934 -0.552,1.563 C 9.91,-2.172 9.794,-1.517 9.702,-0.836 9.104,-1.393 8.43,-1.925 7.683,-2.43 6.935,-2.936 6.116,-3.379 5.231,-3.761 4.345,-4.144 3.384,-4.442 2.348,-4.659 1.312,-4.876 0.218,-4.984 -0.933,-4.984 c -1.91,0 -3.641,0.258 -5.195,0.774 -1.555,0.516 -2.879,1.217 -3.972,2.105 -1.092,0.887 -1.939,1.935 -2.538,3.142 -0.598,1.207 -0.897,2.502 -0.897,3.884 0,1.796 0.39,3.379 1.174,4.752 0.782,1.372 1.904,2.523 3.367,3.452 1.461,0.928 3.228,1.629 5.299,2.104 2.072,0.475 4.385,0.712 6.941,0.712 h 6.353 v 2.632 c 0,2.001 -0.667,3.595 -2.003,4.782 -1.335,1.187 -3.303,1.78 -5.904,1.78 -1.197,0 -2.291,-0.145 -3.281,-0.433 -0.989,-0.289 -1.835,-0.676 -2.537,-1.161 -0.702,-0.485 -1.249,-1.048 -1.64,-1.687 -0.392,-0.64 -0.587,-1.311 -0.587,-2.012 h -6.422 c 0,1.197 0.35,2.384 1.052,3.559 0.702,1.177 1.698,2.235 2.988,3.174 1.288,0.938 2.848,1.702 4.677,2.29 1.831,0.589 3.873,0.883 6.129,0.883 2.026,0 3.897,-0.232 5.612,-0.697 1.714,-0.464 3.181,-1.166 4.402,-2.105 1.22,-0.939 2.175,-2.11 2.865,-3.513 0.691,-1.404 1.037,-3.045 1.037,-4.922 V 2.94 c 0,-1.135 0.109,-2.327 0.328,-3.575 0.218,-1.249 0.546,-2.327 0.983,-3.235 v -0.495 z"
             style="fill:#231f20;fill-opacity:1;fill-rule:nonzero;stroke:none"
             id="path46"
             inkscape:connector-curvature="0" /></g><g
           id="g48"
           transform="translate(396.1131,31.9395)"><path
             d="m 0,0 c 0,1.672 -0.174,3.245 -0.519,4.721 -0.345,1.475 -0.903,2.771 -1.674,3.885 -0.771,1.114 -1.779,1.997 -3.021,2.646 -1.243,0.65 -2.763,0.976 -4.557,0.976 -1.175,0 -2.235,-0.135 -3.178,-0.403 -0.944,-0.268 -1.789,-0.64 -2.537,-1.114 -0.749,-0.476 -1.399,-1.032 -1.951,-1.672 -0.552,-0.64 -1.025,-1.331 -1.417,-2.074 V -7.522 c 0.416,-0.743 0.905,-1.434 1.468,-2.074 0.564,-0.64 1.22,-1.197 1.969,-1.672 0.747,-0.474 1.594,-0.846 2.537,-1.114 0.943,-0.268 2.003,-0.402 3.177,-0.402 1.726,0 3.199,0.32 4.42,0.959 1.22,0.639 2.22,1.507 3.004,2.601 0.782,1.093 1.357,2.378 1.726,3.853 C -0.185,-3.896 0,-2.321 0,-0.65 Z m 6.387,-0.65 c 0,-2.456 -0.323,-4.721 -0.967,-6.794 -0.645,-2.075 -1.588,-3.87 -2.831,-5.387 -1.243,-1.517 -2.763,-2.698 -4.558,-3.544 -1.795,-0.846 -3.844,-1.269 -6.145,-1.269 -2.464,0 -4.593,0.387 -6.389,1.161 -1.795,0.774 -3.314,1.882 -4.558,3.327 l -0.31,-3.869 h -5.869 v 45.69 h 6.386 v -15.88 c 1.244,1.382 2.74,2.445 4.49,3.188 1.749,0.743 3.808,1.114 6.18,1.114 2.348,0 4.425,-0.413 6.233,-1.238 1.806,-0.825 3.326,-1.986 4.557,-3.482 C 3.838,10.871 4.775,9.075 5.42,6.98 6.064,4.886 6.387,2.559 6.387,0 Z"
             style="fill:#231f20;fill-opacity:1;fill-rule:nonzero;stroke:none"
             id="path50"
             inkscape:connector-curvature="0" /></g><path
           d="m 196.094,14.646 h -6.388 v 33.493 h 6.388 z"
           style="fill:#231f20;fill-opacity:1;fill-rule:nonzero;stroke:none"
           id="path52"
           inkscape:connector-curvature="0" /><g
           id="g54"
           transform="translate(196.655,56.5748)"><path
             d="m 0,0 c 0,2.077 -1.684,3.761 -3.761,3.761 -2.076,0 -3.76,-1.684 -3.76,-3.761 0,-2.077 1.684,-3.76 3.76,-3.76 C -1.684,-3.76 0,-2.077 0,0"
             style="fill:#231f20;fill-opacity:1;fill-rule:nonzero;stroke:none"
             id="path56"
             inkscape:connector-curvature="0" /></g><g
           id="g58"
           transform="translate(244.0632,56.8438)"><path
             d="m 0,0 c 0,2.077 -1.684,3.76 -3.76,3.76 -2.077,0 -3.761,-1.683 -3.761,-3.76 0,-2.077 1.684,-3.761 3.761,-3.761 C -1.684,-3.761 0,-2.077 0,0"
             style="fill:#231f20;fill-opacity:1;fill-rule:nonzero;stroke:none"
             id="path60"
             inkscape:connector-curvature="0" /></g><path
           d="m 243.497,14.915 h -6.388 v 33.493 h 6.388 z"
           style="fill:#231f20;fill-opacity:1;fill-rule:nonzero;stroke:none"
           id="path62"
           inkscape:connector-curvature="0" /><g
           id="g64"
           transform="translate(57.2449,36.6422)"><path
             d="M 0,0 C 0.651,1.419 0.973,2.94 0.955,4.47 0.943,5.489 0.78,6.513 0.465,7.513 0.464,7.514 0.464,7.516 0.463,7.517 0.437,7.597 0.411,7.677 0.384,7.757 L 0.355,7.839 C 0.338,7.888 0.32,7.937 0.303,7.986 0.294,8.008 0.285,8.031 0.276,8.053 c -0.617,1.98 -2.088,3.778 -3.793,5.86 -2.085,2.546 -4.449,5.434 -5.675,9.32 -1.196,3.785 -0.911,7.298 -0.659,10.398 0.216,2.655 0.419,5.162 -0.308,7.468 -10e-4,0.003 -0.002,0.007 -0.003,0.011 -0.005,0.018 -0.01,0.036 -0.014,0.055 -0.014,0.051 -0.028,0.102 -0.043,0.153 l -0.022,0.084 c -0.025,0.082 -0.049,0.165 -0.075,0.246 -0.054,0.171 -0.112,0.339 -0.173,0.505 -0.01,0.025 -0.02,0.048 -0.03,0.073 -0.054,0.142 -0.11,0.284 -0.17,0.424 -0.002,0.005 -0.005,0.011 -0.007,0.016 -0.951,2.202 -2.616,3.996 -4.773,5.118 -2.162,1.124 -4.592,1.455 -6.945,0.965 h -0.002 c -0.153,-0.033 -0.306,-0.069 -0.459,-0.108 -0.021,-0.005 -0.042,-0.01 -0.062,-0.015 -0.172,-0.045 -0.343,-0.094 -0.514,-0.148 -2.666,-0.842 -4.845,-2.672 -6.135,-5.153 -0.161,-0.31 -0.307,-0.626 -0.435,-0.946 -0.514,-1.28 -0.766,-2.633 -0.75,-3.992 0.012,-1.02 0.174,-2.044 0.491,-3.044 0,-0.002 0.001,-0.004 0.002,-0.006 0.025,-0.08 0.051,-0.159 0.078,-0.237 l 0.029,-0.083 c 0.006,-0.016 0.011,-0.031 0.017,-0.046 0.008,-0.024 0.017,-0.049 0.026,-0.073 0.005,-0.015 0.011,-0.031 0.017,-0.046 l 0.018,-0.048 c 0.615,-1.972 2.085,-3.768 3.787,-5.848 2.088,-2.552 4.454,-5.444 5.683,-9.333 1.231,-3.9 0.956,-7.649 0.713,-10.956 -0.195,-2.669 -0.365,-4.975 0.254,-6.909 10e-4,-0.003 10e-4,-0.007 0.002,-0.009 0.005,-0.02 0.009,-0.04 0.014,-0.06 0.014,-0.05 0.029,-0.101 0.042,-0.151 l 0.024,-0.084 c 0.023,-0.082 0.049,-0.164 0.074,-0.246 0.044,-0.14 0.091,-0.277 0.14,-0.414 1.527,-4.221 5.542,-6.903 9.849,-6.903 1.041,0 2.101,0.157 3.146,0.487 2.667,0.842 4.845,2.672 6.135,5.153 C -0.149,-0.314 -0.073,-0.158 0,0"
             style="fill:#91d342;fill-opacity:1;fill-rule:nonzero;stroke:none"
             id="path66"
             inkscape:connector-curvature="0" /></g><g
           id="g68"
           transform="translate(88.6638,62.9581)"><path
             d="m 0,0 c -1.782,2.795 -4.547,4.729 -7.784,5.445 -6.683,1.478 -13.321,-2.756 -14.8,-9.438 -0.021,-0.099 -0.042,-0.199 -0.062,-0.299 l -0.018,-0.101 c -0.014,-0.068 -0.025,-0.137 -0.038,-0.206 l -10e-4,-0.006 c -0.002,-0.016 -0.005,-0.032 -0.007,-0.047 -10e-4,-0.003 -10e-4,-0.006 -0.002,-0.009 -0.537,-2.39 -0.092,-5.111 0.424,-8.263 0.635,-3.876 1.353,-8.269 0.304,-13.017 -1.054,-4.761 -3.571,-8.464 -5.791,-11.731 -1.787,-2.631 -3.332,-4.903 -3.844,-7.257 -0.001,-0.005 -0.003,-0.01 -0.004,-0.014 -0.006,-0.022 -0.013,-0.043 -0.018,-0.064 -0.016,-0.061 -0.033,-0.123 -0.048,-0.184 l -0.026,-0.1 c -0.024,-0.099 -0.048,-0.198 -0.069,-0.297 -0.717,-3.238 -0.129,-6.56 1.653,-9.355 1.783,-2.795 4.548,-4.729 7.784,-5.445 0.901,-0.199 1.806,-0.298 2.706,-0.298 2.337,0 4.631,0.665 6.65,1.952 0.698,0.445 1.344,0.953 1.928,1.513 1.757,1.681 2.979,3.843 3.516,6.271 10e-4,0.002 10e-4,0.003 10e-4,0.005 0.022,0.098 0.042,0.196 0.062,0.294 l 0.018,0.101 c 0.013,0.069 0.027,0.137 0.038,0.206 l 0.001,0.007 c 0.003,0.017 0.005,0.035 0.008,0.052 v 0.003 c 0.54,2.4 0.094,5.125 -0.423,8.28 -0.635,3.87 -1.352,8.256 -0.304,13 1.023,4.621 3.41,8.075 5.516,11.123 1.8,2.604 3.499,5.064 4.118,7.864 0.002,0.006 0.004,0.013 0.006,0.019 0.006,0.02 0.012,0.04 0.017,0.06 0.016,0.061 0.032,0.123 0.049,0.185 l 0.025,0.099 c 0.024,0.099 0.048,0.198 0.069,0.298 C 2.37,-6.118 1.783,-2.795 0,0"
             style="fill:#91d342;fill-opacity:1;fill-rule:nonzero;stroke:none"
             id="path70"
             inkscape:connector-curvature="0" /></g><g
           id="g72"
           transform="translate(18.8201,58.5455)"><path
             d="m 0,0 c -2.646,1.376 -5.669,1.639 -8.513,0.741 -2.843,-0.898 -5.167,-2.85 -6.543,-5.496 -1.376,-2.645 -1.638,-5.668 -0.74,-8.512 0.898,-2.844 2.85,-5.168 5.495,-6.543 1.614,-0.839 3.368,-1.265 5.138,-1.265 1.13,0 2.266,0.174 3.375,0.524 2.843,0.898 5.167,2.85 6.543,5.495 1.375,2.646 1.639,5.669 0.74,8.513 C 4.597,-3.699 2.646,-1.375 0,0"
             style="fill:#91d342;fill-opacity:1;fill-rule:nonzero;stroke:none"
             id="path74"
             inkscape:connector-curvature="0" /></g></g></g></g></svg>
